<?xml version="1.0"?><svg xmlns="http://www.w3.org/2000/svg" width="960" height="960" viewBox="0 0 960 960"><path d="m760 685.7v-205.7c0-22.1-17.9-40-40-40s-40 17.9-40 40v200h-80v-240c0-22.1-17.9-40-40-40s-40 17.9-40 40v240h-80v-240c0-22.1-17.9-40-40-40s-40 17.9-40 40v240h-80v-320h200c22.1 0 40-17.9 40-40s-17.9-40-40-40h-149.8l127.6-63.4c19.8-9.9 27.8-33.9 18-53.6-9.8-19.9-33.8-27.9-53.6-18l-280 139.2c-16.7 8.2-25.5 26.9-21.2 45 4.2 18 20.4 30.8 39 30.8h40v325.6c-70.4 18.2-119.7 81.6-120 154.4v40h800v-40c-0.3-72.8-49.6-136.2-120-154.4z m-589.2 114.3c14.2-24.7 40.6-40 69.2-40h480c28.6 0 55 15.3 69.2 40h-618.4z m669.2-640c22.1 0 40 17.9 40 40s-17.9 40-40 40h-80v80c0 22.1-17.9 40-40 40s-40-17.9-40-40v-80h-80c-22.1 0-40-17.9-40-40s17.9-40 40-40h80v-80c0-22.1 17.9-40 40-40s40 17.9 40 40v80h80z"></path></svg>