<?xml version="1.0"?><svg xmlns="http://www.w3.org/2000/svg" width="960" height="960" viewBox="0 0 960 960"><path d="m764 685.7v-205.7c0-22.1-17.9-40-40-40s-40 17.9-40 40v200h-80v-240c0-22.1-17.9-40-40-40s-40 17.9-40 40v240h-80v-240c0-22.1-17.9-40-40-40s-40 17.9-40 40v240h-80v-320h200c22.1 0 40-17.9 40-40s-17.9-40-40-40h-149.8l127.6-63.4c19.8-9.9 27.8-33.9 18-53.6-9.9-19.9-33.9-27.9-53.7-18l-280 139.2c-16.7 8.2-25.4 26.9-21.2 45 4.3 18 20.5 30.8 39.1 30.8h40v325.6c-70.4 18.2-119.7 81.6-120 154.4v40h800v-40c-0.3-72.8-49.6-136.2-120-154.4z m-589.3 114.3c14.3-24.8 40.7-40 69.3-40h480c28.6 0 55 15.3 69.2 40h-618.4z m705.3-600h-40v40h39.6c22 0 40 17.9 40 40s-18 40-40 40h-39.6v40c0 22.1-17.9 40-40 40s-40-17.9-40-40v-40h-40v40c0 22.1-17.9 40-40 40s-40-17.9-40-40v-40h-39.6c-22 0-40-17.9-40-40s18-40 40-40h39.6v-40h-39.6c-22 0-40-17.9-40-40s18-40 40-40h39.6v-40c-0.6-10.3 3-20.5 10-28 7.1-7.6 17-11.9 27.3-12 22.7-0.3 41.5 17.4 42.7 40v40h40v-40c-0.4-10.5 3.6-20.6 10.9-28.2 7.3-7.5 17.3-11.8 27.8-11.8 10.7-0.1 20.9 4 28.5 11.6 7.6 7.5 12 17.7 12 28.4v40h40.4c14.3-0.1 27.6 7.5 34.8 19.8 7.2 12.4 7.2 27.6 0.2 40-7.1 12.4-20.3 20.1-34.6 20.2z m-120 40v-40h-40v40h40z"></path></svg>