<?xml version="1.0"?><svg xmlns="http://www.w3.org/2000/svg" width="960" height="960" viewBox="0 0 960 960"><path d="m760 440c-22.1 0-40 17.9-40 40v270.4l-200-116.7-200 116.7v-550.4c-0.2-13.7-3-27.3-8.2-40h128.2c22.1 0 40-17.9 40-40s-17.9-40-40-40h-240c-65.2 2.4-117.6 54.8-120 120v200h160v489.6l280-163.3 280 163.3v-409.6c0-22.1-17.9-40-40-40z m-520-120h-80v-120c2.3-21 19-37.7 40-40 21 2.4 37.6 19 40 40v120z m600-160h-80v-80c0-22.1-17.9-40-40-40s-40 17.9-40 40v80h-80c-22.1 0-40 17.9-40 40s17.9 40 40 40h80v80c0 22.1 17.9 40 40 40s40-17.9 40-40v-80h80c22.1 0 40-17.9 40-40s-17.9-40-40-40z"></path></svg>