<?xml version="1.0"?><svg xmlns="http://www.w3.org/2000/svg" width="960" height="960" viewBox="0 0 960 960"><path d="m160 880h600c66.3 0 120-53.7 120-120v-480c0-66.3-53.7-120-120-120h-40v-40c0-22.1-17.9-40-40-40s-40 17.9-40 40v40h-360v-40c0-22.1-17.9-40-40-40s-40 17.9-40 40v40h-40c-66.3 0-120 53.7-120 120v480c0 66.3 53.7 120 120 120z m600-80h-600c-22.1 0-40-17.9-40-40v-320h680v320c0 22.1-17.9 40-40 40z m-600-560h40v40c0 22.1 17.9 40 40 40s40-17.9 40-40v-40h360v40c0 22.1 17.9 40 40 40s40-17.9 40-40v-40h40c22.1 0 40 17.9 40 40v80h-680v-80c0-22.1 17.9-40 40-40z m0 240h120v120h-120v-120z m160 0h120v120h-120v-120z m160 0h120v120h-120v-120z m-320 160h120v120h-120v-120z m160 0h120v120h-120v-120z m160 0h120v120h-120v-120z m160-160h120v120h-120v-120z m0 160h120v120h-120v-120z"></path></svg>