<?xml version="1.0"?><svg xmlns="http://www.w3.org/2000/svg" width="960" height="960" viewBox="0 0 960 960"><path d="m720 800c22.1 0 40-17.9 40-40s-17.9-40-40-40h-520c-22.1 0-40-17.9-40-40v-280c0-22.1 17.9-40 40-40h480c22.1 0 40 17.9 40 40v40c0 22.1 17.9 40 40 40s40-17.9 40-40v-40c-0.2-50.9-32.6-96.2-80.7-112.8 0.2-2.4 0.7-4.8 0.7-7.2 0-44.2-35.8-80-80-80s-80 35.8-80 80h-40v-40c0-44.2-35.8-80-80-80h-120c-44.2 0-80 35.8-80 80v40h-40c-66.3 0-120 53.7-120 120v280c0 66.3 53.7 120 120 120h520z m-400-560h120v40h-120v-40z m560 320c22.1 0 40 17.9 40 40s-17.9 40-40 40h-240c-22.1 0-40-17.9-40-40s17.9-40 40-40h240z m-640-20c0-77.3 62.7-140 140-140s140 62.7 140 140-62.7 140-140 140-140-62.7-140-140z m208 0c0-37.6-30.4-68-68-68s-68 30.4-68 68 30.4 68 68 68 68-30.4 68-68z"></path></svg>