<?xml version="1.0"?><svg xmlns="http://www.w3.org/2000/svg" width="960" height="960" viewBox="0 0 960 960"><path d="m420 680c77.3 0 140-62.7 140-140s-62.7-140-140-140-140 62.7-140 140 62.7 140 140 140z m60-520c44.2 0 80 35.8 80 80v40h40c0-44.2 35.8-80 80-80s80 35.8 80 80c0 2.4-0.5 4.8-0.7 7.2 48.1 16.6 80.5 61.8 80.7 112.8v280c0 66.3-53.7 120-120 120h-480c-66.3 0-120-53.7-120-120v-280c0-66.3 53.7-120 120-120h40v-40c0-44.2 35.8-80 80-80h120z m-120 80v40h120v-40h-120z m60 232c37.6 0 68 30.4 68 68s-30.4 68-68 68-68-30.4-68-68 30.4-68 68-68z m300-112h-480c-22.1 0-40 17.9-40 40v280c0 22.1 17.9 40 40 40h480c22.1 0 40-17.9 40-40v-280c0-22.1-17.9-40-40-40z"></path></svg>