<?xml version="1.0"?><svg xmlns="http://www.w3.org/2000/svg" width="960" height="960" viewBox="0 0 960 960"><path d="m865.4 574.5c6.8 6.8 10.6 15.9 10.6 25.5 0 9.6-3.8 18.7-10.6 25.5l-94.5 94.5 94.5 94.6c13.6 14.1 13.4 36.5-0.5 50.4-13.8 13.8-36.2 14-50.4 0.5l-94.5-94.6-94.6 94.5c-9 9.4-22.4 13.2-35 10-12.7-3.3-22.6-13.2-25.8-25.8-3.3-12.6 0.5-26 10-35.1l94.4-94.5-94.5-94.6c-9.4-9-13.2-22.4-10-35 3.3-12.7 13.2-22.6 25.8-25.8 12.6-3.3 26 0.5 35.1 9.9l94.6 94.6 94.6-94.6c14-14 36.8-14 50.8 0z m-225.4-414.5c44.2 0 80 35.8 80 80 0 2.4-0.5 4.8-0.7 7.2 48.1 16.6 80.5 61.8 80.7 112.8v120c0 22.1-17.9 40-40 40s-40-17.9-40-40v-120c0-22.1-17.9-40-40-40h-480c-22.1 0-40 17.9-40 40v280c0 22.1 17.9 40 40 40h240c22.1 0 40 17.9 40 40s-17.9 40-40 40h-240c-66.3 0-120-53.7-120-120v-280c0-66.3 53.7-120 120-120h40v-40c0-44.2 35.8-80 80-80h120c44.2 0 80 35.8 80 80v40h40c0-44.2 35.8-80 80-80z m-320 40v40h120v-40h-120z m-80 300c0-77.3 62.7-140 140-140s140 62.7 140 140-62.7 140-140 140-140-62.7-140-140z m208 0c0-37.6-30.4-68-68-68s-68 30.4-68 68 30.4 68 68 68 68-30.4 68-68z"></path></svg>