<?xml version="1.0"?><svg xmlns="http://www.w3.org/2000/svg" width="960" height="960" viewBox="0 0 960 960"><path d="m880 680c22.1 0 40 17.9 40 40s-17.9 40-40 40h-80v80c0 22.1-17.9 40-40 40s-40-17.9-40-40v-80h-80c-22.1 0-40-17.9-40-40s17.9-40 40-40h80v-80c0-22.1 17.9-40 40-40s40 17.9 40 40v80h80z m-240-520c44.2 0 80 35.8 80 80 0 2.4-0.5 4.8-0.7 7.2 48.1 16.6 80.5 61.8 80.7 112.8v80c0 22.1-17.9 40-40 40s-40-17.9-40-40v-80c0-22.1-17.9-40-40-40h-480c-22.1 0-40 17.9-40 40v280c0 22.1 17.9 40 40 40h280c22.1 0 40 17.9 40 40s-17.9 40-40 40h-280c-66.3 0-120-53.7-120-120v-280c0-66.3 53.7-120 120-120h40v-40c0-44.2 35.8-80 80-80h120c44.2 0 80 35.8 80 80v40h40c0-44.2 35.8-80 80-80z m-320 40v40h120v-40h-120z m-80 300c0-77.3 62.7-140 140-140s140 62.7 140 140-62.7 140-140 140-140-62.7-140-140z m208 0c0-37.6-30.4-68-68-68s-68 30.4-68 68 30.4 68 68 68 68-30.4 68-68z"></path></svg>