<?xml version="1.0"?><svg xmlns="http://www.w3.org/2000/svg" width="960" height="960" viewBox="0 0 960 960"><path d="m934.6 162.7c20.5 8 30.8 31.2 22.7 51.8l-80 204.9c-0.7 1.7-1.5 3.4-2.3 4.9-60.3 108.4-174.6 175.6-298.6 175.7h-266.6c5.5 23.3 26.3 39.8 50.2 40h440c22.1 0 40 17.9 40 40s-17.9 40-40 40h-440c-65.7-0.2-121.4-48.5-130.9-113.5l-48.8-401.7c-4.3-51.1-49.2-89-100.3-84.8-22.1 0-40-17.9-40-40s17.9-40 40-40c90.8-3.7 169 63.2 179.5 153.5l39.7 326.5h277.2c94.1 0 180.8-50.5 227.4-132.2l78.8-202.4c3.8-9.9 11.5-17.9 21.2-22.1 9.8-4.3 20.8-4.5 30.8-0.6z m-654.6 757.3c-44.2 0-80-35.8-80-80s35.8-80 80-80 80 35.8 80 80-35.8 80-80 80z m480 0c-44.2 0-80-35.8-80-80s35.8-80 80-80 80 35.8 80 80-35.8 80-80 80z m-120-800c-2.4 38.8-19.7 75.2-48.2 101.6-20.3 23.2-31.8 37.4-31.8 58.4 0 22.1-17.9 40-40 40s-40-17.9-40-40c2.1-42.3 20.6-82.1 51.5-111 18.2-21 28.5-33.4 28.5-49 0-22.1-17.9-40-40-40s-40 17.9-40 40-17.9 40-40 40-40-17.9-40-40c0-66.3 53.7-120 120-120s120 53.7 120 120z m-120 330c-27.6 0-50-22.4-50-50s22.4-50 50-50 50 22.4 50 50-22.4 50-50 50z"></path></svg>