<?xml version="1.0"?><svg xmlns="http://www.w3.org/2000/svg" width="960" height="960" viewBox="0 0 960 960"><path d="m934.5 162.7c9.9 3.9 17.9 11.5 22.1 21.2 4.3 9.7 4.5 20.7 0.7 30.6l-80 204.9c-0.7 1.7-1.5 3.4-2.3 4.9-60.3 108.4-174.6 175.6-298.6 175.7h-266.6c5.5 23.3 26.3 39.8 50.2 40h440c22.1 0 40 17.9 40 40s-17.9 40-40 40h-440c-65.7-0.3-121.3-48.5-130.9-113.5l-48.8-401.7c-4.3-51.1-49.2-89.1-100.3-84.8-22.1 0-40-17.9-40-40s17.9-40 40-40c90.8-3.7 169 63.2 179.4 153.5l39.8 326.5h277.2c94.1 0 180.9-50.5 227.4-132.2l78.9-202.4c8-20.5 31.2-30.8 51.8-22.7z m-654.5 757.3c-44.2 0-80-35.8-80-80s35.8-80 80-80 80 35.8 80 80-35.8 80-80 80z m480 0c-44.2 0-80-35.8-80-80s35.8-80 80-80 80 35.8 80 80-35.8 80-80 80z m-240-503.4l-148.3-148.3c-15.2-15.7-14.9-40.7 0.5-56.1 15.4-15.4 40.4-15.6 56.1-0.5l91.7 91.7 211.7-211.7c15.7-15.2 40.7-14.9 56.1 0.5 15.4 15.4 15.6 40.4 0.5 56.1l-268.3 268.3z"></path></svg>