<?xml version="1.0"?><svg xmlns="http://www.w3.org/2000/svg" width="960" height="960" viewBox="0 0 960 960"><path d="m920 160h-568.8c-23.2-74.2-93.5-123.5-171.2-120-22.1 0-40 17.9-40 40s17.9 40 40 40c50.5-4.1 95 33 100 83.4v397.4c0 2 0.1 3.9 0.4 5.8 3.9 63.3 56.1 112.8 119.6 113.4h360c22.1 0 40-17.9 40-40s-17.9-40-40-40h-360c-25.9 0-35.7-20.7-39.4-40h216c124 0 238.3-67.3 298.5-175.7 0.9-1.6 1.7-3.2 2.3-4.9l80-204.9c4.8-12.3 3.2-26.2-4.2-37.2-7.6-10.8-20-17.3-33.2-17.3z m-116.2 227.8c-46.5 81.7-133.3 132.2-227.4 132.2h-216.4v-280h501.4l-57.6 147.8z m-523.8 532.2c-44.2 0-80-35.8-80-80s35.8-80 80-80 80 35.8 80 80-35.8 80-80 80z m400 0c-44.2 0-80-35.8-80-80s35.8-80 80-80 80 35.8 80 80-35.8 80-80 80z m-480-600h-160c-22.1 0-40-17.9-40-40s17.9-40 40-40h160c22.1 0 40 17.9 40 40s-17.9 40-40 40z m40 80c0 22.1-17.9 40-40 40h-100c-22.1 0-40-17.9-40-40s17.9-40 40-40h100c22.1 0 40 17.9 40 40z m-80 160c-22.1 0-40-17.9-40-40s17.9-40 40-40h40c22.1 0 40 17.9 40 40s-17.9 40-40 40h-40z"></path></svg>