<?xml version="1.0"?><svg xmlns="http://www.w3.org/2000/svg" width="960" height="960" viewBox="0 0 960 960"><path d="m480 80c-220.9 0-400 179.1-400 400s179.1 400 400 400 400-179.1 400-400c0-106.1-42.2-207.8-117.2-282.8-74.9-75.1-176.7-117.2-282.8-117.2z m36 717.8v-37.8c0-19.9-16.1-36-36-36s-36 16.1-36 36v37.8c-148-17-264.8-133.8-281.8-281.8h37.8c19.9 0 36-16.1 36-36s-16.1-36-36-36h-37.8c17-148 133.8-264.8 281.8-281.8v37.8c0 19.9 16.1 36 36 36s36-16.1 36-36v-37.8c148 17 264.8 133.8 281.8 281.8h-37.8c-19.9 0-36 16.1-36 36s16.1 36 36 36h37.8c-17 148-133.8 264.8-281.8 281.8z m124-357.8h-120v-120c0-22.1-17.9-40-40-40s-40 17.9-40 40v160c0 22.1 17.9 40 40 40h160c22.1 0 40-17.9 40-40s-17.9-40-40-40z"></path></svg>