<?xml version="1.0"?><svg xmlns="http://www.w3.org/2000/svg" width="960" height="960" viewBox="0 0 960 960"><path d="m480 80c-220.9 0-400 179.1-400 400s179.1 400 400 400 400-179.1 400-400c0-106.1-42.2-207.8-117.2-282.8-74.9-75.1-176.7-117.2-282.8-117.2z m0 720c-176.7 0-320-143.3-320-320s143.3-320 320-320 320 143.3 320 320c-0.2 176.6-143.4 319.8-320 320z m0-560c-66.3 0-120 53.7-120 120 0 22.1 17.9 40 40 40s40-17.9 40-40 17.9-40 40-40 40 17.9 40 40c0 15.6-10.3 28-28.5 49-30.9 28.8-49.4 68.7-51.5 111 0 22.1 17.9 40 40 40s40-17.9 40-40c0-21 11.5-35.2 31.8-58.4 28.5-26.4 45.8-62.8 48.2-101.6 0-66.3-53.7-120-120-120z m0 470c27.6 0 50-22.4 50-50s-22.4-50-50-50-50 22.4-50 50 22.4 50 50 50z"></path></svg>