<?xml version="1.0"?><svg xmlns="http://www.w3.org/2000/svg" width="960" height="960" viewBox="0 0 960 960"><path d="m480 80c-220.9 0-400 179.1-400 400s179.1 400 400 400 400-179.1 400-400c0-106.1-42.2-207.8-117.2-282.8-74.9-75.1-176.7-117.2-282.8-117.2z m0 720c-176.7 0-320-143.3-320-320s143.3-320 320-320 320 143.3 320 320c0 84.9-33.7 166.3-93.7 226.3s-141.4 93.7-226.3 93.7z m160-360h-120v-120c0-22.1-17.9-40-40-40s-40 17.9-40 40v120h-120c-22.1 0-40 17.9-40 40s17.9 40 40 40h120v120c0 22.1 17.9 40 40 40s40-17.9 40-40v-120h120c22.1 0 40-17.9 40-40s-17.9-40-40-40z"></path></svg>