<?xml version="1.0"?><svg xmlns="http://www.w3.org/2000/svg" width="960" height="960" viewBox="0 0 960 960"><path d="m480 80c-220.9 0-400 179.1-400 400s179.1 400 400 400 400-179.1 400-400c0-106.1-42.2-207.8-117.2-282.8-74.9-75.1-176.7-117.2-282.8-117.2z m0 720c-176.7 0-320-143.3-320-320s143.3-320 320-320 320 143.3 320 320c0 84.9-33.7 166.3-93.7 226.3s-141.4 93.7-226.3 93.7z m148.4-468.4c-15.6-15.5-40.8-15.5-56.4 0l-92 92-91.6-92c-15.7-15.7-41.1-15.7-56.8 0-15.7 15.7-15.7 41.1 0 56.8l92 91.6-92 91.6c-11.4 9.8-16.4 25.1-12.9 39.7 3.5 14.7 14.9 26 29.6 29.6 14.6 3.5 29.9-1.5 39.7-12.9l92-91.6 91.6 91.6c15.9 13.6 39.5 12.7 54.3-2.1 14.8-14.8 15.7-38.4 2.1-54.3l-91.6-91.6 91.6-91.6c7.6-7.4 12-17.6 12-28.3 0.1-10.7-4.1-20.9-11.6-28.5z"></path></svg>