<?xml version="1.0"?><svg xmlns="http://www.w3.org/2000/svg" width="960" height="960" viewBox="0 0 960 960"><path d="m480 80c-220.9 0-400 179.1-400 400s179.1 400 400 400 400-179.1 400-400c0-106.1-42.2-207.8-117.2-282.8-74.9-75.1-176.7-117.2-282.8-117.2z m0 720c-176.7 0-320-143.3-320-320s143.3-320 320-320 320 143.3 320 320c-0.2 176.6-143.4 319.8-320 320z m0-400c-22.1 0-40 17.9-40 40v200c0 22.1 17.9 40 40 40s40-17.9 40-40v-200c0-22.1-17.9-40-40-40z m0-40c22.1 0 40-17.9 40-40s-17.9-40-40-40-40 17.9-40 40 17.9 40 40 40z"></path></svg>