<?xml version="1.0"?><svg xmlns="http://www.w3.org/2000/svg" width="960" height="960" viewBox="0 0 960 960"><path d="m880 160c22.1 0 40 17.9 40 40s-17.9 40-40 40h-80v80c0 22.1-17.9 40-40 40s-40-17.9-40-40v-80h-80c-22.1 0-40-17.9-40-40s17.9-40 40-40h80v-80c0-22.1 17.9-40 40-40s40 17.9 40 40v80h80z m-720 640c-66.3 0-120-53.7-120-120v-320c0-66.3 53.7-120 120-120h360c22.1 0 40 17.9 40 40s-17.9 40-40 40h-360c-22.1 0-40 17.9-40 40v40h720v280c0 66.3-53.7 120-120 120h-560z m600-280h-640v160c0 22.1 17.9 40 40 40h560c22.1 0 40-17.9 40-40v-160z"></path></svg>