<?xml version="1.0"?><svg xmlns="http://www.w3.org/2000/svg" width="960" height="960" viewBox="0 0 960 960"><path d="m792.4 80h-624.8c-70.4 0.2-127.4 57.2-127.6 127.6v344.4c0 70.5 57.1 127.8 127.6 128h192.4v40h-120c-44.2 0-80 35.8-80 80v80c0 22.1 17.9 40 40 40h560c22.1 0 40-17.9 40-40v-80c0-44.2-35.8-80-80-80h-120v-40h192.4c70.4-0.2 127.4-57.2 127.6-127.6v-344.8c-0.2-70.4-57.2-127.4-127.6-127.6z m-72.4 760h-480v-40h480v40z m-200-120h-80v-40h80v40z m320-167.6c-0.2 26.2-21.4 47.4-47.6 47.6h-624.8c-26.2-0.2-47.4-21.4-47.6-47.6v-344.8c0.2-26.2 21.4-47.4 47.6-47.6h624.8c26.2 0.2 47.4 21.4 47.6 47.6v344.8z"></path></svg>