<?xml version="1.0"?><svg xmlns="http://www.w3.org/2000/svg" width="960" height="960" viewBox="0 0 960 960"><path d="m680 40h-320c-66.3 0-120 53.7-120 120v478.1c0 0.7-0.4 1.2-0.4 1.9 0 0.7 0.4 1.2 0.4 1.9v158.1c0 66.3 53.7 120 120 120h320c66.3 0 120-53.7 120-120v-640c0-66.3-53.7-120-120-120z m-320 80h320c22.1 0 40 17.9 40 40v440h-399.6v-440c0-21.9 17.7-39.8 39.6-40z m320 720h-320c-22.1 0-40-17.9-40-40v-120h400v120c0 22.1-17.9 40-40 40z m-160-40c22.1 0 40-17.9 40-40s-17.9-40-40-40-40 17.9-40 40 17.9 40 40 40z"></path></svg>