<?xml version="1.0"?><svg xmlns="http://www.w3.org/2000/svg" width="960" height="960" viewBox="0 0 960 960"><path d="m781.5 441.2c-17.7-71.3-81.8-121.3-155.2-121.2h-8.6c14.4-24.2 22.1-51.8 22.3-80 0-88.4-71.6-160-160-160s-160 71.6-160 160c0.2 28.2 7.8 55.8 22.2 80h-8.5c-73.4-0.1-137.5 49.9-155.2 121.2l-109.7 438.8h822.4l-109.7-438.8z m-381.5-201.2c0-44.2 35.8-80 80-80s80 35.8 80 80-35.8 80-80 80-80-35.8-80-80z m-144 220.6c8.9-35.6 41-60.6 77.7-60.6h292.6c36.8 0 68.8 25 77.7 60.6l84.8 339.4h-617.6l84.8-339.4z"></path></svg>