<?xml version="1.0"?><svg xmlns="http://www.w3.org/2000/svg" width="960" height="960" viewBox="0 0 960 960"><path d="m643.8 840h0.2c22.1 0 40 17.9 40 40s-17.9 40-40 40h-440c-44.2 0-80-35.8-80-80v-560c0-22.1 17.9-40 40-40s40 17.9 40 40v560h439.8z m232.9-536l0.4 0.6c4.4 10 6.8 20.9 6.9 32v383.4c0 44.2-35.8 80-80 80h-480c-44.2 0-80-35.8-80-80v-600c0-44.2 35.8-80 80-80h263.2c3 0.1 5.9 0.4 8.8 0.8 1.3-0.3 2.6-0.6 4-0.8 10.4 0 20.4 4.2 27.8 11.4 5.8 3.4 11.2 7.4 16 12l216.6 216.6c6.8 6.9 12.4 15.1 16.3 24z m-129.5-24l-107.2-107.2v107.2h107.2z m-423.2 440h479.8v-360h-243.8v-240h-236v600z m396-320c22.1 0 40 17.9 40 40s-17.9 40-40 40h-320c-22.1 0-40-17.9-40-40s17.9-40 40-40h320z m-320-40c-22.1 0-40-17.9-40-40s17.9-40 40-40h80c22.1 0 40 17.9 40 40s-17.9 40-40 40h-80z m320 160c22.1 0 40 17.9 40 40s-17.9 40-40 40h-320c-22.1 0-40-17.9-40-40s17.9-40 40-40h320z"></path></svg>