<?xml version="1.0"?><svg xmlns="http://www.w3.org/2000/svg" width="960" height="960" viewBox="0 0 960 960"><path d="m723.8 120h-83.8v-40h-320v40h-76c-44.2 0-80 35.8-80 80v600c0 44.2 35.8 80 80 80h480c44.2 0 80-35.8 80-80v-600c0-21.2-8.4-41.6-23.5-56.6-15.1-15-35.5-23.4-56.7-23.4z m0 680h-479.8v-600h76v80h320v-80h83.8v600z m-83.8-440h-320c-22.1 0-40 17.9-40 40s17.9 40 40 40h320c22.1 0 40-17.9 40-40s-17.9-40-40-40z m0 120h-320c-22.1 0-40 17.9-40 40s17.9 40 40 40h320c22.1 0 40-17.9 40-40s-17.9-40-40-40z m0 120h-320c-22.1 0-40 17.9-40 40s17.9 40 40 40h320c22.1 0 40-17.9 40-40s-17.9-40-40-40z"></path></svg>