<?xml version="1.0"?><svg xmlns="http://www.w3.org/2000/svg" width="960" height="960" viewBox="0 0 960 960"><path d="m800 440c22.1 0 40 17.9 40 40s-17.9 40-40 40h-440c-22.1 0-40-17.9-40-40s17.9-40 40-40h440z m0-200c22.1 0 40 17.9 40 40s-17.9 40-40 40h-440c-22.1 0-40-17.9-40-40s17.9-40 40-40h440z m0 400c22.1 0 40 17.9 40 40s-17.9 40-40 40h-440c-22.1 0-40-17.9-40-40s17.9-40 40-40h440z m-600-300c-33.1 0-60-26.9-60-60s26.9-60 60-60 60 26.9 60 60-26.9 60-60 60z m0 200c-33.1 0-60-26.9-60-60s26.9-60 60-60 60 26.9 60 60-26.9 60-60 60z m0 200c-33.1 0-60-26.9-60-60s26.9-60 60-60 60 26.9 60 60-26.9 60-60 60z"></path></svg>