<?xml version="1.0"?><svg xmlns="http://www.w3.org/2000/svg" width="960" height="960" viewBox="0 0 960 960"><path d="m880 240c0-66.3-53.7-120-120-120h-560c-66.3 0-120 53.7-120 120v560c0 66.3 53.7 120 120 120h560c66.3 0 120-53.7 120-120v-560z m-680-40h560c22.1 0 40 17.9 40 40v120h-640v-120c0-22.1 17.9-40 40-40z m560 640h-560c-22.1 0-40-17.9-40-40v-360h640v360c0 22.1-17.9 40-40 40z m-520-520c-22.1 0-40-17.9-40-40s17.9-40 40-40 40 17.9 40 40-17.9 40-40 40z m120 0c-22.1 0-40-17.9-40-40s17.9-40 40-40h340c22.1 0 40 17.9 40 40s-17.9 40-40 40h-340z"></path></svg>