<?xml version="1.0"?><svg xmlns="http://www.w3.org/2000/svg" width="960" height="960" viewBox="0 0 960 960"><path d="m80 760c0 66.3 53.7 120 120 120h560c66.3 0 120-53.7 120-120v-560c0-66.3-53.7-120-120-120h-560c-66.3 0-120 53.7-120 120v560z m80-560c0-22.1 17.9-40 40-40h560c22.1 0 40 17.9 40 40v560c0 22.1-17.9 40-40 40h-560c-22.1 0-40-17.9-40-40v-560z m260 320h260c22.1 0 40-17.9 40-40s-17.9-40-40-40h-260c-22.1 0-40 17.9-40 40s17.9 40 40 40z m0-160h260c22.1 0 40-17.9 40-40s-17.9-40-40-40h-260c-22.1 0-40 17.9-40 40s17.9 40 40 40z m0 320h260c22.1 0 40-17.9 40-40s-17.9-40-40-40h-260c-22.1 0-40 17.9-40 40s17.9 40 40 40z m-140-320c22.1 0 40-17.9 40-40s-17.9-40-40-40-40 17.9-40 40 17.9 40 40 40z m0 160c22.1 0 40-17.9 40-40s-17.9-40-40-40-40 17.9-40 40 17.9 40 40 40z m0 160c22.1 0 40-17.9 40-40s-17.9-40-40-40-40 17.9-40 40 17.9 40 40 40z"></path></svg>