<?xml version="1.0"?><svg xmlns="http://www.w3.org/2000/svg" width="960" height="960" viewBox="0 0 960 960"><path d="m131.7 652.5c-5 4.8-8.7 11-10.5 17.7l-40 160c-3 12-0.3 24.7 7.2 34.4 7.6 9.7 19.3 15.4 31.6 15.4 3.3 0 6.6-0.4 9.7-1.2l160-40c6.7-1.9 12.8-5.5 17.6-10.5h0.7l520-520c0.9-0.8 1.7-1.8 2.5-2.7 48-49.5 46.8-128.5-2.7-176.5-49.4-48-128.4-46.8-176.4 2.6l-520 520 0.3 0.8z m576.8-464.2c17.6-17.1 45.5-17.1 63.1 0 8.7 8.3 13.6 19.7 13.6 31.7 0 12-4.9 23.4-13.5 31.7l-2 2.2-489.7 489.5-63.4-63.4 491.9-491.7z"></path></svg>