<?xml version="1.0"?><svg xmlns="http://www.w3.org/2000/svg" width="960" height="960" viewBox="0 0 960 960"><path d="m120 160c0-22.1 17.8-40 40-40h120c22.1 0 40 17.8 40 40v120c0 22.1-17.8 40-40 40h-120c-22.1 0-40-17.8-40-40v-120z m280 0c0-22.1 17.8-40 40-40h120c22.1 0 40 17.8 40 40v120c0 22.1-17.8 40-40 40h-120c-22.1 0-40-17.8-40-40v-120z m-280 280c0-22.1 17.8-40 40-40h120c22.1 0 40 17.8 40 40v120c0 22.1-17.8 40-40 40h-120c-22.1 0-40-17.8-40-40v-120z m280 0c0-22.1 17.8-40 40-40h120c22.1 0 40 17.8 40 40v120c0 22.1-17.8 40-40 40h-120c-22.1 0-40-17.8-40-40v-120z m280-280c0-22.1 17.8-40 40-40h120c22.1 0 40 17.8 40 40v120c0 22.1-17.8 40-40 40h-120c-22.1 0-40-17.8-40-40v-120z m0 280c0-22.1 17.8-40 40-40h120c22.1 0 40 17.8 40 40v120c0 22.1-17.8 40-40 40h-120c-22.1 0-40-17.8-40-40v-120z m-560 280c0-22.1 17.8-40 40-40h120c22.1 0 40 17.8 40 40v120c0 22.1-17.8 40-40 40h-120c-22.1 0-40-17.8-40-40v-120z m280 0c0-22.1 17.8-40 40-40h120c22.1 0 40 17.8 40 40v120c0 22.1-17.8 40-40 40h-120c-22.1 0-40-17.8-40-40v-120z m280 0c0-22.1 17.8-40 40-40h120c22.1 0 40 17.8 40 40v120c0 22.1-17.8 40-40 40h-120c-22.1 0-40-17.8-40-40v-120z"></path></svg>