<?xml version="1.0"?><svg xmlns="http://www.w3.org/2000/svg" width="960" height="960" viewBox="0 0 960 960"><path d="m720 880c0 22.1-17.9 40-40 40s-40-17.9-40-40v-40c0-22.1 17.9-40 40-40s40 17.9 40 40v40z m120-240c22.1 0 40 17.9 40 40s-17.9 40-40 40h-480c-66.3 0-120-53.7-120-120v-160c0-22.1 17.9-40 40-40s40 17.9 40 40v160c0 22.1 17.9 40 40 40h280v-280c0-22.1-17.9-40-40-40h-480c-22.1 0-40-17.9-40-40s17.9-40 40-40h120v-120c0-22.1 17.9-40 40-40s40 17.9 40 40v120h280c66.3 0 120 53.7 120 120v280h120z"></path></svg>