<?xml version="1.0"?><svg xmlns="http://www.w3.org/2000/svg" width="1800" height="960" viewBox="0 0 1800 960"><path fill="#E95219" d="m658.7 469.4l-70.2 68.6c-5.6 5.5-8.1 13.2-6.8 20.9l16.6 96.8c6.7 38.8-9.3 78.1-41.2 101.3-31.9 23.2-74.2 26.2-109.1 7.8l-87.1-45.6c-6.9-3.6-15.1-3.6-22 0l-86.9 45.6c-34.9 18.4-77.2 15.4-109.1-7.8-31.9-23.2-47.9-62.5-41.1-101.4l16.6-96.7c1.4-7.6-1.2-15.5-6.8-20.9l-70.2-68.6c-28.3-27.5-38.5-68.6-26.2-106.2 12.2-37.4 44.6-64.8 83.6-70.4l97-14.1c7.6-1.1 14.4-5.9 17.7-12.9l43.5-88c17.4-35.4 53.5-57.8 92.9-57.8 39.4 0 75.5 22.4 92.9 57.8l43.4 88c3.5 6.9 10.1 11.8 17.8 12.9l97.2 14.1c39 5.6 71.5 33 83.7 70.5 12.2 37.5 2 78.6-26.2 106.1z m-308.7-188l55.6 112.8 124.4 18-90 87.8 21.2 123.9-111.2-58.5-111.2 58.5 21.2-123.9-90-87.7 124.4-18.1 55.6-112.7z m182.5 199.3l70.3-68.7c6.3-6.3 8.5-15.6 5.8-24-2.8-8.4-10-14.6-18.8-16l-97.2-14.2c-33.8-4.8-62.9-26-78-56.6l-43.4-88c-4-8.1-12.2-13.2-21.2-13.2-9 0-17.2 5.1-21.2 13.2l-43.4 88c-15.1 30.6-44.2 51.8-78 56.6l-97.1 14.2c-8.8 1.3-16.1 7.5-18.9 16-2.8 8.4-0.5 17.7 5.8 24l70.3 68.8c24.4 23.8 35.6 58.1 29.8 91.7l-16.6 96.7c-1.5 8.8 2.1 17.7 9.4 23 7.2 5.2 16.8 6 24.8 1.8l86.9-45.7c30.2-15.7 66.2-15.7 96.4 0l86.9 45.6c8 4.2 17.6 3.5 24.8-1.7 7.3-5.3 11-14.2 9.5-23.1l-16.6-96.7c-5.9-33.6 5.3-67.9 29.7-91.7z"></path><path fill="#279BE9" d="m1090 580.4l55.6 112.7 124.4 18.1-90 87.7 21.2 123.9-111.2-58.5-111.2 58.5 21.2-123.9-90-87.7 124.4-18.1 55.6-112.7z m400 0l55.6 112.7 124.4 18.1-90 87.7 21.2 123.9-111.2-58.5-111.2 58.5 21.2-123.9-90-87.7 124.4-18.1 55.6-112.7z m-520-360.8l55.6 112.7 124.4 18.1-90 87.6 21.2 123.9-111.2-58.5-111.2 58.5 21.2-123.9-90-87.8 124.4-18.1 55.6-112.7z m640 0l55.6 112.7 124.4 18.1-90 87.6 21.2 123.9-111.2-58.5-111.2 58.5 21.2-123.9-90-87.8 124.4-18.1 55.6-112.7z m-320-219.6l55.6 112.7 124.4 18-90 87.8 21.2 123.9-111.2-58.5-111.2 58.5 21.2-123.9-90-87.7 124.4-18.1 55.6-112.7z"></path></svg>