<?xml version="1.0"?><svg xmlns="http://www.w3.org/2000/svg" width="1520" height="960" viewBox="0 0 1520 960"><path fill="#279BE9" d="m940 480l55.6 112.7 124.4 18-90 87.8 21.2 123.9-111.2-58.5-111.2 58.5 21.2-123.9-90-87.7 124.4-18.1 55.6-112.7z m400 0l55.6 112.7 124.4 18-90 87.8 21.2 123.9-111.2-58.5-111.2 58.5 21.2-123.9-90-87.7 124.4-18.1 55.6-112.7z m-200-360l55.6 112.7 124.4 18-90 87.8 21.2 123.9-111.2-58.5-111.2 58.5 21.2-123.9-90-87.7 124.4-18.1 55.6-112.7z"></path><path fill="#E95219" d="m611.2 292.8c39 5.7 71.4 33 83.6 70.6 12.1 37.4 1.9 78.6-26.4 106.1l-70.2 68.5c-5.6 5.5-8.1 13.3-6.8 21l16.6 96.7c6.6 38.9-9.3 78.1-41.2 101.2-31.8 23.2-74.1 26.3-109 8l-86.8-45.7c-6.9-3.6-15.1-3.6-22 0l-86.8 45.7c-35 18.4-77.2 15.3-109.1-7.9-31.9-23.2-47.8-62.4-41.1-101.3l16.4-96.7c1.3-7.6-1.2-15.4-6.8-20.9l-70.2-68.5c-28.3-27.7-38.4-68.8-26.2-106.3 12.2-37.5 44.6-64.8 83.6-70.5l97.1-14.2c7.7-1.1 14.3-6 17.7-12.9l43.5-88c17.5-35.3 53.5-57.7 92.9-57.7 39.4 0 75.4 22.4 92.9 57.7l43.4 88c3.5 7 10.1 11.8 17.8 12.9l97.2 14.2z m-251.2-11.3l55.6 112.7 124.4 18.1-90 87.7 21.2 123.9-111.2-58.5-111.2 58.5 21.2-123.9-90-87.7 124.4-18.1 55.6-112.7z m252.8 130.5c6.3-6.3 8.6-15.6 5.8-24-2.8-8.5-10.1-14.7-18.9-16l-97.2-14.2c-33.7-4.8-62.9-26-78-56.6l-43.3-88c-4-8.1-12.3-13.2-21.2-13.2-9 0-17.2 5.1-21.2 13.2l-43.4 88c-15.1 30.6-44.2 51.8-78 56.6l-97.1 14.2c-8.8 1.4-16 7.6-18.8 16-2.8 8.4-0.6 17.7 5.7 24l70.3 68.8c24.4 23.8 35.6 58 29.8 91.6l-16.6 96.8c-1.5 8.8 2.1 17.8 9.4 23 7.2 5.3 16.9 6 24.8 1.8l86.8-45.6c30.1-15.8 66.1-15.8 96.3 0l87.2 45.5c7.9 4.1 17.5 3.4 24.8-1.9 7.2-5.2 10.9-14.2 9.4-23l-16.6-96.7c-5.8-33.6 5.3-67.9 29.7-91.7l70.3-68.6z"></path></svg>