<?xml version="1.0"?><svg xmlns="http://www.w3.org/2000/svg" width="960" height="960" viewBox="0 0 960 960"><path d="m880 560c22.1 0 40 17.9 40 40s-17.9 40-40 40h-320c-22.1 0-40-17.9-40-40s17.9-40 40-40h320z m-400 277.8c-59 0-439.3-193.8-439.3-511.7-3.6-64.9 19.1-128.4 62.8-176.5 44.6-44.8 105.3-69.8 168.5-69.6 85.8 3.3 164.1 49.6 208.3 123.2 44.1-73.4 122.1-119.7 207.7-123.2 63.2-0.2 123.9 24.8 168.5 69.6 43.7 48.1 66.3 111.8 62.6 176.7 0 37.1-5.1 74-15.1 109.7-2.6 15.1-13.6 27.4-28.2 31.6-14.7 4.3-30.6-0.2-40.8-11.5s-13.2-27.5-7.6-41.7c8-28.8 12-58.4 12-88.3 3.4-43.9-11-87.3-40-120.5-29.6-29.4-69.6-45.9-111.4-45.6-82.4 0-139.2 75.5-172.6 138.8-6.9 13.2-20.5 21.5-35.4 21.5s-28.5-8.4-35.4-21.6c-32.8-63.2-89.5-138.7-172.6-138.7-41.7-0.2-81.7 16.2-111.3 45.6-28.9 33.2-43.4 76.6-40 120.5 0 262.4 310.1 414.8 359.2 430.8 16.3-5.8 32-12.7 47.2-20.8 19.6-9.2 43-1.2 52.8 18 9.8 19.3 2.5 42.9-16.4 53.3-25.6 15.4-54 25.8-83.5 30.4z"></path></svg>