<?xml version="1.0"?><svg xmlns="http://www.w3.org/2000/svg" width="960" height="960" viewBox="0 0 960 960"><path d="m920 680c0 22.1-17.9 40-40 40h-120v120c0 22.1-17.9 40-40 40s-40-17.9-40-40v-120h-120c-22.1 0-40-17.9-40-40s17.9-40 40-40h120v-120c0-22.1 17.9-40 40-40s40 17.9 40 40v120h120c22.1 0 40 17.9 40 40z m-440 197.5c-58.9 0-439.3-193.8-439.3-511.7-3.6-64.8 19-128.4 62.7-176.5 44.7-44.8 105.4-69.8 168.6-69.6 85.8 3.3 164.1 49.6 208.3 123.2 44.1-73.4 122.1-119.7 207.7-123.2 63.1-0.1 123.7 25 168.3 69.6 43.7 48.1 66.3 111.7 62.7 176.5 0 43-6.7 85.6-20 126.6-3.9 14.2-15.3 25.1-29.6 28.4-14.4 3.3-29.4-1.6-39.2-12.7-9.6-11.1-12.4-26.7-7.2-40.5 10.7-32.8 16.2-67.2 16.2-101.8 3.5-43.9-11-87.3-40-120.5-29.5-29.5-69.6-45.9-111.4-45.6-82.4 0-139.2 75.5-172.4 138.8-6.8 13.2-20.5 21.5-35.4 21.5-14.8-0.1-28.4-8.4-35.3-21.6-32.7-63.2-89.5-138.6-172.7-138.6-41.7-0.2-81.7 16.2-111.3 45.6-28.9 33.2-43.4 76.5-40 120.4 0 262.4 309.9 414.8 359.2 430.8 4.5-1.4 12.3-4.3 23.7-9.4 20-8.5 43.1 0.6 52 20.4 8.9 19.8 0.4 43.2-19.2 52.5-17.3 9.9-36.6 15.8-56.4 17.4z"></path></svg>