<?xml version="1.0"?><svg xmlns="http://www.w3.org/2000/svg" width="960" height="960" viewBox="0 0 960 960"><path d="m874.5 517c14.1-14 36.9-14 51 0 14.1 14.2 14.1 36.9 0 51l-245.5 245.4-145.5-145.4c-14.1-14.1-14.1-36.9 0-51s36.9-14 51 0l94.5 94.6 194.5-194.6z m-393.8 323c-58.9 0-439.3-193.8-439.3-511.7-3.6-64.8 19-128.3 62.6-176.3 44.7-44.8 105.5-69.8 168.8-69.6 85.7 3.3 164 49.6 208.2 123.2 44-73.4 122.2-119.7 207.7-123.2 63.2-0.2 123.9 24.8 168.6 69.6 43.7 48.1 66.3 111.7 62.7 176.6 0 12.8-0.7 25.4-1.8 37.9-0.8 10.6-5.9 20.5-14.2 27.3-8.1 6.8-18.8 9.9-29.4 8.7-22-2.1-38-21.6-36-43.6 1-9.9 1.4-20.1 1.4-30.4 3.4-43.9-11-87.3-40-120.5-29.5-29.5-69.6-46-111.3-45.8-82.5 0-139.2 75.5-172.3 138.8-7 13.2-20.6 21.5-35.5 21.5s-28.6-8.3-35.5-21.6c-32.7-63.2-89.5-138.7-172.7-138.7-41.6-0.2-81.6 16-111.2 45.3-29 33.2-43.4 76.6-40 120.5 0 269.7 327.2 423.3 362.6 432 14.3 0.6 27.2 8.8 33.8 21.5 6.6 12.7 6 27.9-1.7 40-7.7 12.1-21.2 19.1-35.5 18.5z"></path></svg>