<?xml version="1.0"?><svg xmlns="http://www.w3.org/2000/svg" width="960" height="960" viewBox="0 0 960 960"><path d="m680 380c0 35.7-6.4 71-19 104.4l259 259.1v176.5h-176.6l-259-259c-33.3 12.6-68.7 19-104.4 19-165.7 0-300-134.3-300-300 0-165.7 134.3-300 300-300 165.7 0 300 134.3 300 300z m-320 60c-44.2 0-80-35.8-80-80s35.8-80 80-80 80 35.8 80 80-35.8 80-80 80z m480 336.6l-274.8-275 12.4-25.6c14.7-29.8 22.4-62.7 22.4-96 0-121.5-98.5-220-220-220s-220 98.5-220 220 98.5 220 220 220c33.3 0 66.2-7.6 96.1-22.4l25.6-12.5 274.9 274.9h63.4v-63.4z"></path></svg>