<?xml version="1.0"?><svg xmlns="http://www.w3.org/2000/svg" width="960" height="960" viewBox="0 0 960 960"><path d="m760 280c19.8 0 36.6-14.5 39.6-34.1 2.9-19.6-9-38.4-27.9-44.1l-520-160c-12.1-3.8-25.3-1.5-35.5 6-10.2 7.6-16.2 19.5-16.2 32.2v160c0 22.1 17.9 40 40 40s40-17.9 40-40v-105.8l82 25.2c-5.6 4.2-10.9 8.6-16 13.3-1.1 0.8-2.2 1.7-3.2 2.6-47.9 44.8-70.5 110.4-60.4 175.2 10 64.8 51.4 120.5 110.6 148.8-18.2 11.8-33.8 27.1-45.9 45.1l-132.8 199.2c-20 30.2-25.5 67.7-14.8 102.3 10.7 34.5 36.4 62.4 70 76 67 25.8 138.3 38.8 210.1 38.1 72.2 0.6 144-12.6 211.3-38.8 33.6-13.4 59.3-41.2 70-75.8 10.7-34.5 5.3-72.1-14.8-102.2-36.3-54.6-87.7-131.6-133-199.2-12.1-18-27.6-33.2-45.8-45 68.7-33.2 112.4-102.7 112.7-179-0.2-22.7-4.4-45.2-12.2-66.6l80.4 24.8c3.8 1.2 7.8 1.8 11.8 1.8z m-174.6 366.6c33.9 50.7 68 101.7 94 141 6.8 10.1 8.6 22.6 5 34.1-3.6 11.6-12.2 20.9-23.4 25.4-116.6 43.6-245 43.7-361.8 0.3-11.2-4.5-19.7-13.8-23.3-25.4-3.6-11.5-1.7-24 4.9-34.1l94-140.9c26 31.4 64.6 49.6 105.4 49.6 40.8 0 79.4-18.4 105.3-50z m-160.8-70.9c14.8-14.6 34.7-22.7 55.4-22.7 20.6-0.1 40.4 8 55.2 22.4-7.4 24.4-29.8 41.1-55.3 41.2-25.4 0-48-16.5-55.4-40.9h0.2z m55.4-135.7c-66.3 0-120-53.7-120-120 0.1-26.8 9.2-52.7 26-73.6l213.1 64.6c0.3 3 0.9 5.9 0.9 9 0 31.8-12.6 62.4-35.1 84.9-22.5 22.5-53 35.1-84.9 35.1z"></path></svg>