<?xml version="1.0"?><svg xmlns="http://www.w3.org/2000/svg" width="960" height="960" viewBox="0 0 960 960"><path d="m880 440h-42.4c-18.8-167-150.6-298.7-317.6-317.6v-42.4c0-22.1-17.9-40-40-40s-40 17.9-40 40v42.4c-167 18.8-298.7 150.6-317.6 317.6h-42.4c-22.1 0-40 17.9-40 40s17.9 40 40 40h42.4c18.9 167 150.6 298.7 317.6 317.6v42.4c0 22.1 17.9 40 40 40s40-17.9 40-40v-42.4c167-18.9 298.7-150.6 317.6-317.6h42.4c22.1 0 40-17.9 40-40s-17.9-40-40-40z m-360 316.8v-36.8c0-22.1-17.9-40-40-40s-40 17.9-40 40v36.8c-122.6-17.9-218.9-114.2-236.8-236.8h36.8c22.1 0 40-17.9 40-40s-17.9-40-40-40h-36.8c17.9-122.6 114.2-218.9 236.8-236.8v36.8c0 22.1 17.9 40 40 40s40-17.9 40-40v-36.8c122.6 17.9 218.9 114.2 236.8 236.8h-36.8c-22.1 0-40 17.9-40 40s17.9 40 40 40h36.8c-17.9 122.6-114.2 218.9-236.8 236.8z m-40-436.8c-88.4 0-160 71.6-160 160s71.6 160 160 160 160-71.6 160-160c0-42.4-16.8-83.1-46.9-113.1-30-30-70.7-46.9-113.1-46.9z m0 240c-44.2 0-80-35.8-80-80s35.8-80 80-80 80 35.8 80 80-35.8 80-80 80z"></path></svg>