<?xml version="1.0"?><svg xmlns="http://www.w3.org/2000/svg" width="960" height="960" viewBox="0 0 960 960"><path d="m821.2 546.7c-12.1-7.6-27.4-8.1-40-1.4-12.7 6.7-20.8 19.7-21.3 34-0.5 14.3 6.7 27.8 18.8 35.4 22.9 14.2 61.3 43.5 61.3 78.9 0 44.4-62.1 92-160 121v-278.6c-0.6-84.9-55.5-160-136.2-186.2 69.6-30.2 108.3-105.1 92.9-179.4-15.5-74.2-80.8-127.4-156.7-127.4-75.8 0-141.2 53.2-156.6 127.5-15.4 74.3 23.4 149.2 92.9 179.3-80.8 26.2-135.7 101.2-136.3 186.2v278.6c-97.9-28.9-160-76.6-160-121 0-35.4 38.4-64.7 61.2-79 18.8-11.8 24.5-36.5 12.8-55.2-11.7-18.8-36.5-24.6-55.2-12.8-81.6 51.3-98.8 108.2-98.8 147 0 130.1 189.2 228.3 440 228.3s440-98.1 440-228.3c0-38.8-17.2-95.7-98.8-146.9z m-341.2-423.5c44.2 0 80 35.8 80 80s-35.8 80-80 80-80-35.8-80-80 35.8-80 80-80z m-120 709.2v-296.4c0-66.3 53.7-120 120-120s120 53.7 120 120v296.4c-79.5 12.6-160.5 12.6-240 0z"></path></svg>