<?xml version="1.0"?><svg xmlns="http://www.w3.org/2000/svg" width="960" height="960" viewBox="0 0 960 960"><path d="m360 600v320h200v-320h129.3c29.6 0 58.2-11 80.3-30.8l144-129.7c16.8-15.2 26.4-36.8 26.4-59.5s-9.6-44.2-26.4-59.4l-144-129.8c-22.1-19.8-50.7-30.8-80.4-30.8h-129.2v-20c0-55.2-44.8-100-100-100s-100 44.8-100 100v20h-240c-44.2 0-80 35.8-80 80v280c0 44.2 35.8 80 80 80h240z m120 240h-40v-240h40v240z m-40-700c0-11 9-20 20-20s20 9 20 20v20h-40v-20z m-320 100h569.3c9.9 0 19.4 3.6 26.8 10.2l143.9 129.8-144 129.7c-7.4 6.6-16.9 10.3-26.8 10.3h-569.2v-280z"></path></svg>