<?xml version="1.0"?><svg xmlns="http://www.w3.org/2000/svg" width="960" height="960" viewBox="0 0 960 960"><path d="m200 880c-66.3 0-120-53.7-120-120v-360c0-44.2 35.8-80 80-80h80v-160c0-44.2 35.8-80 80-80h480c44.2 0 80 35.8 80 80v600c0 66.3-53.7 120-120 120h-560z m360-440v80h-200v-320h200v240z m80 80c-22.1 0-40-17.9-40-40s17.9-40 40-40h80c22.1 0 40 17.9 40 40s-17.9 40-40 40h-80z m-240 120c-22.1 0-40-17.9-40-40s17.9-40 40-40h320c22.1 0 40 17.9 40 40s-17.9 40-40 40h-320z m0 120c-22.1 0-40-17.9-40-40s17.9-40 40-40h320c22.1 0 40 17.9 40 40s-17.9 40-40 40h-320z m240-480c-22.1 0-40-17.9-40-40s17.9-40 40-40h80c22.1 0 40 17.9 40 40s-17.9 40-40 40h-80z m0 120c-22.1 0-40-17.9-40-40s17.9-40 40-40h80c22.1 0 40 17.9 40 40s-17.9 40-40 40h-80z m-320-240v600c-0.1 13.6-2.6 27.2-7.4 40h447.4c22.1 0 40-17.9 40-40v-600h-480z m-160 240v360c0 22.1 17.9 40 40 40s40-17.9 40-40v-360h-80z"></path></svg>