<?xml version="1.0"?><svg xmlns="http://www.w3.org/2000/svg" width="960" height="960" viewBox="0 0 960 960"><path d="m164.8 884.9c33.2 0.1 65-13.1 88.3-36.6l335.2-335.2c18.5 4.5 37.5 6.8 56.6 6.9 10 0 20.1-0.6 30-1.8 93.6-12.8 171.3-78.6 199.3-168.7 10.5-33.6 13.3-69.2 8-104-4.6-29.5-25.4-53.9-53.8-63.1-28.8-9.6-60.5-2.1-82 19.4l-90 90.2c-2.5 3.9-6.9 6.3-11.5 6.3-4.7 0-9.1-2.4-11.6-6.3l-0.3-0.2c-6.4-6.4-6.4-16.8 0-23.2l90-90c21.6-21.5 29.1-53.2 19.5-82-9.1-28.6-33.6-49.5-63.3-54-34.8-5.2-70.4-2.5-104 8-90.1 28.1-155.8 105.9-168.5 199.4-3.5 28.9-1.8 58.2 5.1 86.5l-335.2 335.2c-35.8 35.7-46.4 89.5-27.1 136.1 19.3 46.6 64.8 77.1 115.3 77.1z m319.2-625.2c9.6-62.6 54.2-114.2 114.8-132.6 14.7-4.6 30.1-7 45.5-7.1 7.4 0 14.8 0.6 22.1 1.8l-90 90.2c-37.4 37.8-37.3 98.8 0.3 136.6 38.2 36.4 98.2 36.4 136.3 0l90.2-90.7c3.3 22.9 1.5 46.2-5.5 68.3-18.5 60.1-70.2 104-132.5 112.7-49.1 6.3-98.4-10.5-133.4-45.6-35.4-35-53-84.1-47.8-133.6z m-350.9 468.6l313.5-313.5c16.8 25.1 38.2 46.7 63.2 63.6l-313.2 313.3c-17.8 16.9-45.7 16.9-63.4 0-17.6-17.5-17.6-45.9-0.1-63.5z"></path></svg>