<?xml version="1.0"?><svg xmlns="http://www.w3.org/2000/svg" width="960" height="960" viewBox="0 0 960 960"><path d="m160 880h640c66.3 0 120-53.7 120-120v-480c0-66.3-53.7-120-120-120h-120c0-66.3-53.7-120-120-120h-160c-66.3 0-120 53.7-120 120h-120c-66.3 0-120 53.7-120 120v480c0 66.3 53.7 120 120 120z m640-80h-640c-22.1 0-40-17.9-40-40v-360h720v360c0 22.1-17.9 40-40 40z m-400-680h160c22.1 0 40 17.9 40 40h-240c0-22.1 17.9-40 40-40z m-240 120h640c22.1 0 40 17.9 40 40v40h-720v-40c0-22.1 17.9-40 40-40z m400 200c22.1 0 40 17.9 40 40s-17.9 40-40 40h-160c-22.1 0-40-17.9-40-40s17.9-40 40-40h160z"></path></svg>