<?xml version="1.0"?><svg xmlns="http://www.w3.org/2000/svg" width="960" height="960" viewBox="0 0 960 960"><path d="m80 280c0.2 43.4 14.6 85.6 41 120h-1v240c0.1 110.4 89.6 199.9 200 200h400v-80h160v-240h-160v-81c62.3-47 91.5-126 74.7-202.3-16.8-76.2-76.5-135.7-152.8-152.2-76.2-16.5-155.1 13-201.9 75.5-51.6-68.9-141.6-97-223.2-69.7-81.8 27.2-136.8 103.6-136.8 189.7z m720 320v80h-80v-80h80z m-160-120v280h-320c-66.3 0-120-53.7-120-120v-160h440z m-240-200c0 22.1 17.9 40 40 40s40-17.9 40-40c0-66.3 53.7-120 120-120s120 53.7 120 120-53.7 120-120 120h-320c-66.3 0-120-53.7-120-120s53.7-120 120-120 120 53.7 120 120z m-120 40c22.1 0 40-17.9 40-40s-17.9-40-40-40-40 17.9-40 40 17.9 40 40 40z m320 0c22.1 0 40-17.9 40-40s-17.9-40-40-40-40 17.9-40 40 17.9 40 40 40z"></path></svg>