<?xml version="1.0"?><svg xmlns="http://www.w3.org/2000/svg" width="960" height="960" viewBox="0 0 960 960"><path d="m124.7 541.2c-6.3 11.8-6.3 25.8 0 37.6 4.8 9.2 120.5 221.2 355.3 221.2 237.9 0 350.8-212.5 355.5-221.6 6-11.6 6-25.3 0-36.8-4.7-9.1-117.9-221.6-355.5-221.6-234.8 0-350.5 212-355.3 221.2z m180.8-83.2c-3.5 13.7-5.4 27.8-5.5 42 0 99.4 80.6 180 180 180 22.1 0 40-17.9 40-40s-17.9-40-40-40c-44.2 0-83.2-29.1-95.8-71.4-12.6-42.4 4.1-88 41.1-112.3 37-24.2 85.5-21.2 119.3 7.3 33.7 28.6 44.8 75.9 27.1 116.4-6.3 13.2-4.8 28.7 3.7 40.5 8.5 11.9 22.8 18.1 37.3 16.3 14.4-1.7 26.8-11.2 32.3-24.8 16.2-36.4 19.4-77.2 9-115.7 39.2 28.2 72.9 63.3 99.4 103.7-59 95.4-161.4 155.4-273.4 160-151.5 0-242.4-113.7-273.1-160 26.7-39.5 60-74 98.5-102z m556.1-211.7c8.9 5.7 15.2 14.8 17.5 25.1 2.3 10.4 0.3 21.2-5.4 30.2l-40 62.4c-12 18.6-36.7 24-55.3 12-18.6-11.9-24-36.7-12-55.3l40-62.4c11.9-18.5 36.6-23.9 55.2-12z m-261.6 33.7c-12.3 0-24-5.6-31.6-15.4-7.5-9.7-10.2-22.4-7.2-34.3l20-80c3.2-14.1 13.8-25.3 27.7-29.3 13.9-4 28.8-0.4 39.2 9.8 10.3 10 14.4 24.9 10.7 38.9l-20 80c-4.5 17.8-20.5 30.3-38.8 30.3z m-504-32c17.7-13.2 42.8-9.7 56 8l40 53.6c8.6 11.5 10.4 26.6 4.8 39.8-5.6 13.1-17.8 22.2-32 24-14.2 1.7-28.2-4.3-36.8-15.8l-40-53.6c-13.2-17.6-9.7-42.8 8-56z m264 32c-18.4 0-34.4-12.5-38.8-30.3l-20-80c-3.8-14 0.3-28.8 10.7-39 10.3-10.1 25.3-13.8 39.2-9.8 13.8 4 24.4 15.3 27.7 29.4l20 80c3 12 0.3 24.6-7.3 34.3s-19.2 15.4-31.5 15.4z"></path></svg>