<?xml version="1.0"?><svg xmlns="http://www.w3.org/2000/svg" width="960" height="960" viewBox="0 0 960 960"><path d="m160 760h640c22.1 0 40-17.9 40-40s-17.9-40-40-40h-40v-320c-0.2-139-102.4-256.8-240-276.8v-43.2c0-22.1-17.9-40-40-40s-40 17.9-40 40v43.2c-137.6 20-239.8 137.8-240 276.8v320h-40c-22.1 0-40 17.9-40 40s17.9 40 40 40z m120-400c0-110.4 89.6-200 200-200s200 89.6 200 200v320h-400v-320z m280 520h-160c-22.1 0-40-17.9-40-40s17.9-40 40-40h160c22.1 0 40 17.9 40 40s-17.9 40-40 40z"></path></svg>