<?xml version="1.0"?><svg xmlns="http://www.w3.org/2000/svg" width="960" height="960" viewBox="0 0 960 960"><path d="m934.8 642.8l-88.4-35.2c73-61.4 114.6-152.2 113.6-247.6v-44.4l-207.2 21.2-102-122.4c-9.2-11-23.5-16.3-37.6-13.9-14.1 2.4-25.8 12.2-30.8 25.6-4.9 13.5-2.4 28.5 6.8 39.5l67.6 81.2-396.8 40.4c-55 7.2-102.4 42.2-125.2 92.8h-54.8v-20.8c0-22.1-17.9-40-40-40s-40 17.9-40 40v197.2l77.2 42c51.4 26.4 111.6 29.2 165.2 7.6l73.2-29.2c28.5-11.6 60.3-11.6 88.8 0l81.2 32.4c47.8 19.2 101 19.2 148.8 0l81.2-32.4c28.5-11.6 60.3-11.6 88.8 0l100.8 40.4c20.6 8 43.7-2 52-22.4 4-9.8 3.9-20.9-0.3-30.7-4.2-9.7-12.2-17.4-22.1-21.3z m-814.8-11.8l-40-22.2v-48.8h40v71z m647.6-65.4c-8.6 5.4-15 13.8-17.6 23.6-22 1-43.8 5.5-64.4 13.2l-81.2 32.8c-28.6 11.2-60.2 11.2-88.8 0l-81.2-32.8c-47.8-18.8-101-18.8-148.8 0l-73.2 29.2c-4 1.6-8.2 2.8-12.4 3.6v-89.2c-0.2-40 29.5-74 69.2-79.2l606.8-62c-10.8 66.9-50.4 125.7-108.4 160.8z"></path></svg>