<?xml version="1.0"?><svg xmlns="http://www.w3.org/2000/svg" width="960" height="960" viewBox="0 0 960 960"><path d="m280 796h40v-400h-40c-14.9 0.1-29.7 1.9-44.2 5.3 1.7-133.7 110.6-241.1 244.2-241.1s242.5 107.4 244.2 241.1c-14.5-3.4-29.3-5.2-44.2-5.3h-40v400h40c85.4 0.4 161.6-53.8 189.2-134.6 27.7-80.8 0.8-170.3-66.9-222.4 13.4-123.5-45-243.8-150.2-309.6-105.2-66-238.9-66-344.2 0-105.2 65.8-163.6 186.1-150.2 309.6-67.7 52.1-94.6 141.6-66.9 222.4 27.6 80.8 103.7 135 189.2 134.6z m440-86.8v-226.4c48 17 80 62.3 80 113.2 0 50.8-32 96.2-80 113.1z m-480 0c-48-17-80-62.3-80-113.2 0-50.8 32-96.2 80-113.1v226.3z"></path></svg>