<?xml version="1.0"?><svg xmlns="http://www.w3.org/2000/svg" width="960" height="960" viewBox="0 0 960 960"><path d="m179.7 418.3l29.3-30.8c11.3-11.8 111-119 111-207.5 0-77.3-62.7-140-140-140s-140 62.7-140 140c0 86.1 99.4 195.1 110.8 207.3l28.9 31z m-59.7-238.3c0-33.1 26.9-60 60-60s60 26.9 60 60-26.9 60-60 60c-15.9 0-31.2-6.3-42.4-17.6-11.3-11.2-17.6-26.4-17.6-42.4z m580 20c121.4 0.2 219.8 98.6 220 220 0 146.8-171.5 331-191 351.6l-29.3 30.7-28.9-31c-19.6-20.9-190.8-208.7-190.8-351.3 0.2-121.4 98.6-219.8 220-220z m0 328c28.6 0 56.1-11.4 76.4-31.6 20.2-20.3 31.6-47.8 31.6-76.4 0-59.6-48.4-108-108-108-59.6 0-108 48.4-108 108 0 59.6 48.4 108 108 108z m-464.7 187.2l86.9-86.9c11.4-11.5 14.8-28.7 8.6-43.6-6.1-15-20.7-24.7-36.9-24.7h-133.9c-22.1 0-40-17.9-40-40s17.9-40 40-40h133.9c48.5 0 92.4 29.2 110.9 74 18.7 44.8 8.4 96.5-25.9 130.8l-86.9 87c-11.4 11.4-14.8 28.5-8.7 43.4 6.1 14.9 20.6 24.7 36.7 24.8h440c22.1 0 40 17.9 40 40s-17.9 40-40 40h-440c-48.5-0.1-92.2-29.3-110.7-74.2-18.5-44.8-8.3-96.4 26-130.6z"></path></svg>