<?xml version="1.0"?><svg xmlns="http://www.w3.org/2000/svg" width="960" height="960" viewBox="0 0 960 960"><path d="m878.9 718.6c-5.4-38.4-28.4-72-62.1-90.9l-130.1-72.5c-47.7-26.7-107.5-17.6-145.3 21.9l-47.2 49.5c-9.6 9.6-15.6 13.2-19.2 13-10.6 0-35.3-26.6-53.3-45.9-8.8-9.3-17.9-19.2-27.7-29-9.8-9.8-19.6-19-29-27.7-19.3-18-45.7-42.6-45.8-53.3 0-2.8 3.2-9.6 12.2-18.6l49.6-47.4c40-38.1 48.8-98.5 21.4-146.4l-73.9-129.3c-19.1-33.2-52.7-55.8-90.7-61-33.9-4.9-68.2 6.4-92.6 30.5-68 76-94.8 180.4-72 279.8 24.7 123.1 86.4 235.7 176.9 322.7 133.9 134 265.9 178 373.5 178 82.5 2.5 162.9-26.3 225.1-80.7 24.2-24.4 35.4-58.8 30.2-92.8z m-86.7 36c-41 40.9-243.6 144.6-485.5-97.2-78.8-75.2-132.8-172.8-154.7-279.6-18.2-73.8 0.4-152 49.8-209.8 5.4-5.3 12.8-8.2 20.4-8 1.6 0 3.3 0.1 5 0.3 13.3 1.9 25.2 9.7 32 21.4l73.8 129.3c9.2 16 6.2 36.3-7.2 49l-50.2 48c-22.5 19.5-35.8 47.5-36.5 77.2 0.8 44.6 35 76.6 71.3 110.4 8.7 8 17.9 16.7 27 25.8 9.1 9.1 17.6 18.3 25.8 27 33.8 36.2 65.8 70.5 110.4 71.3 29.8-1.5 57.9-14.8 77.8-37.1l48-50.2c12.6-13.1 32.5-16.1 48.4-7.2l130.1 72.5c11.8 6.8 19.9 18.6 21.8 32 1.6 9.2-1.3 18.4-7.7 25.1l0.2-0.2z"></path></svg>