<?xml version="1.0"?><svg xmlns="http://www.w3.org/2000/svg" width="960" height="960" viewBox="0 0 960 960"><path d="m480 0c-265.1 0-480 214.9-480 480s214.9 480 480 480 480-214.9 480-480c-0.3-265-215-479.7-480-480z m-270.6 773.8c85.4-37.1 177.6-55.4 270.6-53.8 93-1.6 185.2 16.7 270.6 53.8-152.6 141.6-388.6 141.6-541.2 0z m596-62.2c-101.3-49.2-212.8-73.7-325.4-71.6-112.6-2.1-224.2 22.4-325.5 71.6-100.2-140.7-98.7-329.9 3.8-469 102.4-139.1 282.7-196.6 446.8-142.6 164.1 54 275 207.2 274.9 380 0 83.1-26.1 164.1-74.5 231.6z m-325.4-551.6c-121.5 0-220 98.5-220 220s98.5 220 220 220 220-98.5 220-220c-0.2-121.4-98.6-219.8-220-220z m0 360c-77.3 0-140-62.7-140-140s62.7-140 140-140 140 62.7 140 140c0 37.1-14.8 72.7-41 99-26.3 26.2-61.9 41-99 41z"></path></svg>