<?xml version="1.0"?><svg xmlns="http://www.w3.org/2000/svg" width="960" height="960" viewBox="0 0 960 960"><path d="m480 560c132.6 0 240-107.4 240-240s-107.4-240-240-240-240 107.4-240 240c0.2 132.5 107.5 239.8 240 240z m0-400c88.4 0 160 71.6 160 160s-71.6 160-160 160-160-71.6-160-160 71.6-160 160-160z m-325.6 720c-31.8 0.2-60.6-18.4-73.4-47.6-13-28.5-7.9-62 13.2-85.2 60-67.2 176-147.2 388.4-147.2 214.6 0 328.8 80.7 386.6 148.4 20.3 23.5 24.9 56.8 11.7 84.8-12.9 28.7-41.6 47-72.9 46.8h-653.6z m328.3-200c-182.7 0-279.7 65.5-328.8 120.4l654.1-0.4h0.4c-46.8-54.5-141.4-120-325.7-120z"></path></svg>