<?xml version="1.0"?><svg xmlns="http://www.w3.org/2000/svg" width="960" height="960" viewBox="0 0 960 960"><path d="m800 360h-80v-227.6l-240-91.2-240 91.2v227.6h-80c-66.3 0-120 53.7-120 120v440h880v-440c0-66.3-53.7-120-120-120z m-680 480v-360c0-22.1 17.9-40 40-40h80v400h-120z m400 0h-80v-200c0-22.1 17.9-40 40-40s40 17.9 40 40v200z m80 0v-200c0-66.3-53.7-120-120-120s-120 53.7-120 120v200h-40v-652.4l160-60.9 160 60.8v652.5h-40z m240 0h-120v-400h80c22.1 0 40 17.9 40 40v360z"></path><ellipse cx="480" cy="360" rx="78" ry="78"></ellipse></svg>