<?xml version="1.0"?><svg xmlns="http://www.w3.org/2000/svg" width="960" height="960" viewBox="0 0 960 960"><path d="m380 720c56.7 0.1 112.5-14.1 162.3-41.2l229.4 229.5c19.4 20.7 46.3 32.6 74.7 33.1 25.1 0 49.2-9.9 67-27.5 18.7-19.2 28.8-45.3 27.8-72.2-0.9-26.9-12.8-52.1-32.9-70l-229.4-229.4c73.1-134.5 47.3-301.2-63.1-407.3-110.4-106.2-278-125.5-409.5-47.2-131.6 78.2-194.6 234.7-154.1 382.3 40.6 147.6 174.8 249.9 327.8 249.9z m471.7 108.3c5.4 4.7 8.8 11.2 9.7 18.3 0 4-1.7 7.9-4.6 10.7-7.2 7.3-17.6 5.3-28.5-5.6l-220-220c8.2-7.5 16-15.2 23.5-23.5l220 220z m-471.7-708.3c143.6 0 260 116.4 260 260s-116.4 260-260 260-260-116.4-260-260c0.2-143.5 116.5-259.8 260-260z m-141.4 300h101.4v101.4c0 22.1 17.9 40 40 40s40-17.9 40-40v-101.4h101.4c22.1 0 40-17.9 40-40s-17.9-40-40-40h-101.4v-101.4c0-22.1-17.9-40-40-40s-40 17.9-40 40v101.4h-101.4c-22.1 0-40 17.9-40 40s17.9 40 40 40z"></path></svg>