<?xml version="1.0"?><svg xmlns="http://www.w3.org/2000/svg" width="960" height="960" viewBox="0 0 960 960"><path d="m469.6 878.6c3.4 0.9 6.9 1.4 10.4 1.4 3.2 0 6.3-0.4 9.4-1.1 14.4-3.5 350.6-87.6 350.6-358.9v-280c0-16.7-10.3-31.6-25.9-37.5l-320-120c-9.1-3.3-19-3.3-28 0l-320 120c-15.7 5.8-26.1 20.8-26.1 37.5v280c0 261.8 335.4 354.8 349.6 358.6z m-269.6-444.8l240-95v74l-240 95v-74z m240 350c-46.9-18.4-91.2-42.8-131.6-72.9l131.6-52.1v125z m0-284.9v73.9l-193.9 76.8c-14.2-18.4-25.6-38.9-33.7-60.7l227.6-90z m320 21.1c0 154.4-157.4 233.8-240 265v-607.3l240 90v252.3z m-320-342.3v75.1l-240 95v-80l240-90.1z"></path></svg>