<?xml version="1.0"?><svg xmlns="http://www.w3.org/2000/svg" width="960" height="960" viewBox="0 0 960 960"><path d="m400 760h280c88.4 0 160-71.6 160-160v-396h-121.6c-7.8-92.8-85.3-164.1-178.4-164.1-93 0-170.6 71.3-178.4 164.1h-121.6v396c0 88.4 71.6 160 160 160z m140-640c48.9 0.2 90.6 35.7 98.4 84h-196.8c7.8-48.3 49.5-83.8 98.4-84z m-220 164h40v116c0 22.1 17.9 40 40 40s40-17.9 40-40v-116h200v116c0 22.1 17.9 40 40 40s40-17.9 40-40v-116h40v316c0 44.2-35.8 80-80 80h-280c-44.2 0-80-35.8-80-80v-316z m-40 596c-88.4 0-160-71.6-160-160v-356c0-22.1 17.9-40 40-40s40 17.9 40 40v356c0 44.2 35.8 80 80 80h320c22.1 0 40 17.9 40 40s-17.9 40-40 40h-320z"></path></svg>