<?xml version="1.0"?><svg xmlns="http://www.w3.org/2000/svg" width="960" height="960" viewBox="0 0 960 960"><path d="m120 880h720v-375.3c25.6-28.9 39.8-66.1 40-104.7v-240c0-22.1-17.9-40-40-40h-720c-22.1 0-40 17.9-40 40v240c0.2 38.6 14.4 75.8 40 104.7v375.3z m240-80h-160v-245.7c58.2 16.2 120.6-2.8 160-48.6v294.3z m40-400h160c0 44.2-35.8 80-80 80s-80-35.8-80-80z m360 400h-320v-245.5c58.3 16 120.5-3 160-48.8 39.4 45.9 101.8 64.8 160 48.6v245.7z m-40-320c-44.2 0-80-35.8-80-80h160c0 44.2-35.8 80-80 80z m-560-280h640v120h-640v-120z m160 200c0 44.2-35.8 80-80 80s-80-35.8-80-80h160z m-20 300c-22.1 0-40-17.9-40-40s17.9-40 40-40 40 17.9 40 40-17.9 40-40 40z"></path></svg>