<?xml version="1.0"?><svg xmlns="http://www.w3.org/2000/svg" width="960" height="960" viewBox="0 0 960 960"><path fill-rule="evenodd" d="m920 204.1c-30.5 13.2-63.2 22.3-97.4 26.4-0.2-0.6-0.5-1.2-0.8-1.8 36.3-21.2 64.2-55 78-95.3-10.5 6.4-61.1 35-110.5 44.2-32.2-35.4-78.5-57.6-130.1-57.6-109.1 0-176.2 89.5-176.2 176.2 0 6.8 3.2 34.7 3.7 36.3-146.5-3.2-276.3-73.7-360-181.8-59.9 109.1 2.8 203.6 45.9 237.4-25-0.4-48.7-5.8-70.4-15.2 4.6 83.8 65.2 152.8 145.2 169.9-32 9-70.5 2.1-85.2-1.7 23.6 70.1 88.2 121.5 165.4 125.2-118.2 86.9-245.5 78-247.6 78 74.9 44.8 162.5 71.3 256.1 70.6 343.2-2.2 519.4-306.7 498.4-525.3 37.6-17.6 68-47.9 85.5-85.5"></path></svg>