<?xml version="1.0"?><svg xmlns="http://www.w3.org/2000/svg" width="960" height="960" viewBox="0 0 960 960"><path d="m780 320c77.3 0 140-62.7 140-140s-62.7-140-140-140-140 62.7-140 140c0.1 8 0.9 16.1 2.4 24l-360.6 180.4c-39.2-42-100.2-55.8-153.6-34.6-53.6 21-88.7 72.7-88.7 130.2 0 57.5 35.1 109.1 88.6 130.2 53.4 21.1 114.4 7.4 153.6-34.6l360.7 180.4c-12.1 68.6 28 135.8 94.2 157.7 66.2 21.9 138.4-8.1 169.6-70.5 31.2-62.3 11.9-138.1-45.3-178-57.2-39.8-135-31.6-182.7 19.2l-360.6-180.4c3.2-15.8 3.2-32.2 0-48l360.6-180.4c26.3 28.3 63.2 44.4 101.8 44.4z"></path></svg>