<?xml version="1.0"?><svg xmlns="http://www.w3.org/2000/svg" width="960" height="960" viewBox="0 0 960 960"><path d="m282.6 280.5c-0.7 0-1.3-0.4-2-0.4h-40.6c-88.2 0-160 89.7-160 200s71.8 200 160 200h40.6c0.7 0 1.3-0.4 2-0.4 56 124.4 181 203.3 317.4 200.4 22.1 0 40-17.9 40-40v-720c0-22.1-17.9-40-40-40-136.4-3-261.4 76-317.4 200.4z m-42.6 319.6c-43.4 0-80-55-80-120s36.6-120 80-120h14.7c-18.8 78.9-18.8 161.1 0 240h-14.7z m320 197.3c-142.8-19.6-239.4-144.6-239.4-317.3 0-172.8 96.6-297.7 239.4-317.3v634.6z m320-357.3c22.1 0 40 17.9 40 40s-17.9 40-40 40h-120c-22.1 0-40-17.9-40-40s17.9-40 40-40h120z m-57.9-195.8c12.8-6.4 28-5.5 39.9 2.4 12 7.9 18.8 21.5 18 35.7-0.8 14.4-9.2 27.1-22 33.5l-80 40c-19.8 9.9-43.8 1.9-53.7-17.9-9.9-19.8-1.9-43.8 17.9-53.7l80-40z m0 471.6l-80-40c-19.7-9.9-27.7-33.9-17.9-53.7 9.9-19.8 34-27.8 53.7-17.9l80 40c12.8 6.4 21.2 19.1 22 33.4 0.9 14.3-5.9 27.9-17.9 35.8-11.8 7.9-27 8.8-39.8 2.4z"></path></svg>