<?xml version="1.0"?><svg xmlns="http://www.w3.org/2000/svg" width="960" height="960" viewBox="0 0 960 960"><path d="m120.8 832l35.9-176c-48.8-53.7-76.1-123.4-76.7-196 0-187.5 188.4-340 420-340s420 152.5 420 340c0 187.5-188.4 340-420 340-41.8 0-83.4-5.2-124-15.4l-199.2 91.7c-13.7 6.4-29.8 4.4-41.6-4.9-11.9-9.4-17.4-24.6-14.4-39.4z m199.2-392c-22.1 0-40-17.9-40-40s17.9-40 40-40h360c22.1 0 40 17.9 40 40s-17.9 40-40 40h-360z m0 120c-22.1 0-40-17.9-40-40s17.9-40 40-40h360c22.1 0 40 17.9 40 40s-17.9 40-40 40h-360z m180-360c-187.5 0-340 116.6-340 260 1.2 59 25.8 115 68.5 155.6 9.3 9.5 13.3 23 10.7 36l-24.2 119 140.5-64.7c8.6-4 18.4-4.8 27.6-2.1 38 10.8 77.4 16.2 116.9 16.2 187.5 0 340-116.6 340-260s-152.5-260-340-260z"></path></svg>