<?xml version="1.0"?><svg xmlns="http://www.w3.org/2000/svg" width="960" height="960" viewBox="0 0 960 960"><path d="m120.8 832c-3 14.8 2.5 30 14.4 39.4 11.8 9.4 27.9 11.3 41.6 4.9l199.2-91.7c40.6 10.2 82.2 15.4 124 15.4 231.6 0 420-152.5 420-340 0-187.5-188.4-340-420-340s-420 152.5-420 340c0.6 72.6 27.8 142.3 76.7 196l-35.9 176z m379.2-632c187.5 0 340 116.6 340 260s-152.5 260-340 260c-39.5 0-78.9-5.5-116.9-16.2-9.2-2.6-19-1.9-27.6 2.1l-140.5 64.7 24.2-119c2.6-13-1.4-26.4-10.7-36-42.7-40.6-67.3-96.6-68.5-155.6 0-143.4 152.5-260 340-260z"></path></svg>