<?xml version="1.0"?><svg xmlns="http://www.w3.org/2000/svg" width="960" height="960" viewBox="0 0 960 960"><path d="m500 120c231.6 0 420 152.5 420 340 0 187.5-188.4 340-420 340-41.8 0-83.4-5.2-124-15.4l-199.3 91.9c-13.7 6.4-29.8 4.4-41.6-4.9-11.9-9.4-17.4-24.6-14.4-39.4l36-176.2c-48.8-53.6-76.1-123.4-76.7-196 0-187.5 188.4-340 420-340z m-160 400c-33.1 0-60-26.9-60-60s26.9-60 60-60 60 26.9 60 60-26.9 60-60 60z m320 0c-33.1 0-60-26.9-60-60s26.9-60 60-60 60 26.9 60 60-26.9 60-60 60z m-160 0c-33.1 0-60-26.9-60-60s26.9-60 60-60 60 26.9 60 60-26.9 60-60 60z m0 200c187.5 0 340-116.6 340-260s-152.5-260-340-260c-187.5 0-340 116.6-340 260 1.2 58.9 25.8 115 68.5 155.6 9.3 9.5 13.3 23 10.7 36l-24.3 119 140.5-64.7c8.7-4 18.4-4.7 27.6-2.1 38 10.8 77.4 16.2 117 16.2z"></path></svg>