<?xml version="1.0"?><svg xmlns="http://www.w3.org/2000/svg" width="960" height="960" viewBox="0 0 960 960"><path d="m252.3 582.4l-40 233.5c-2.5 15 3.6 30.2 15.9 39.1 12.4 9 28.7 10.2 42.2 3.1l209.6-110.1 209.7 110.2c13.5 7.1 29.9 6 42.2-3 12.3-9 18.5-24.2 15.9-39.2l-40-233.5 169.6-165.4c10.9-10.6 14.8-26.5 10.1-41-4.7-14.5-17.2-25.1-32.3-27.2l-234.4-34.1-104.8-212.5c-7.5-12.7-21.2-20.5-35.9-20.5-14.7 0-28.4 7.8-35.9 20.5l-104.9 212.4-234.4 34.1c-15.1 2.2-27.6 12.7-32.4 27.2-4.7 14.5-0.8 30.4 10.1 41l169.7 165.4z m119.3-191.5c13-1.9 24.3-10.1 30.1-21.9l78.3-158.6 78.3 158.6c5.8 11.8 17.1 20 30.1 21.9l175 25.4-126.6 123.5c-9.4 9.2-13.7 22.4-11.5 35.4l29.9 174.4-156.6-82.4c-11.6-6.1-25.6-6.1-37.2 0l-156.6 82.4 29.9-174.4c2.2-13-2.1-26.2-11.5-35.4l-126.6-123.5 175-25.4z"></path></svg>