<?xml version="1.0"?><svg xmlns="http://www.w3.org/2000/svg" width="960" height="960" viewBox="0 0 960 960"><path d="m887.5 376c-4.7-14.5-17.2-25-32.3-27.2l-234.5-34.1-104.7-212.4c-7.5-12.7-21.2-20.4-35.9-20.4-14.7 0-28.4 7.7-35.9 20.4l-104.9 212.5-234.4 34c-15.1 2.2-27.6 12.7-32.4 27.2-4.7 14.5-0.8 30.4 10.1 41l169.7 165.4-40 233.5c-2.5 15 3.6 30.2 15.9 39.1 12.4 9 28.7 10.2 42.2 3.1l209.6-110.1 209.7 110.2c13.5 7.1 29.9 6 42.2-3 12.3-9 18.5-24.2 15.9-39.2l-40-233.5 169.6-165.4c10.9-10.6 14.8-26.6 10.1-41.1z m-250.7 163.8c-9.4 9.2-13.7 22.4-11.5 35.4l29.9 174.4-156.6-82.4c-5.7-3-12.1-4.6-18.6-4.6v-452.2l78.3 158.6c5.8 11.8 17.1 20 30.1 21.9l175 25.4-126.6 123.5z"></path></svg>