<?xml version="1.0"?><svg xmlns="http://www.w3.org/2000/svg" width="960" height="960" viewBox="0 0 960 960"><path d="m491.7 792.3c-15.6-15.6-15.6-41 0-56.6l91.7-91.7-91.7-91.7c-15.2-15.7-14.9-40.7 0.5-56.1 15.4-15.4 40.4-15.6 56.1-0.5l91.7 91.7 91.7-91.7c15.7-15.2 40.7-14.9 56.1 0.5 15.4 15.4 15.6 40.4 0.5 56.1l-91.7 91.7 91.7 91.7c15.2 15.7 14.9 40.7-0.5 56.1-15.4 15.4-40.4 15.6-56.1 0.5l-91.7-91.7-91.7 91.7c-15.6 15.6-41 15.6-56.6 0z m208.3-452.3c-44.2 0-80-35.8-80-80s35.8-80 80-80 80 35.8 80 80-35.8 80-80 80z m180-300c22.1 0 40 17.9 40 40v253.7c0 28.6-6.1 56.8-18 82.8-5.7 13.4-18.2 22.6-32.6 24.1-14.4 1.5-28.6-4.9-36.9-16.8-8.4-11.8-9.6-27.3-3.3-40.4 7.1-15.6 10.8-32.5 10.8-49.7v-213.7h-213.7c-31.9-0.1-62.4 12.6-84.9 35.1l-433.1 433.2c-7.5 7.5-11.7 17.6-11.7 28.3 0 10.6 4.2 20.8 11.7 28.3l206.9 206.8c15.7 15.2 40.7 15.2 56.5 0 15.7-15.1 40.6-14.9 56.1 0.5 15.4 15.4 15.6 40.4 0.4 56.1-22.5 22.5-53 35.2-84.8 35.2-31.8 0-62.4-12.7-84.8-35.2l-206.9-206.8c-22.5-22.6-35.2-53.1-35.2-84.9 0-31.8 12.7-62.4 35.2-84.9l433.1-433.2c37.5-37.6 88.4-58.7 141.5-58.5h253.7z"></path></svg>