<?xml version="1.0"?><svg xmlns="http://www.w3.org/2000/svg" width="960" height="960" viewBox="0 0 960 960"><path d="m840 310.3v-230.3c0-22.1-17.9-40-40-40h-230.3c-42.5-0.1-83.2 16.8-113.2 46.9l-404.8 404.8c-46.8 46.9-46.8 122.9 0 169.7l166.8 166.9c22.6 22.5 53.1 35.2 84.9 35.2 31.8 0 62.4-12.7 84.9-35.2l404.8-404.8c30-30.1 46.8-70.8 46.9-113.2z m-80 0c0 21.2-8.5 41.5-23.4 56.6l-404.8 404.8c-7.6 7.6-17.8 11.7-28.4 11.7-10.6 0-20.8-4.2-28.3-11.7l-166.8-166.9c-15.6-15.6-15.6-40.9 0-56.5l404.8-404.8c15-15.1 35.4-23.5 56.6-23.5h190.3v190.3z m160-190.3c22.1 0 40 17.9 40 40v206.9c-0.1 42.4-17 83-46.9 113.1l-429.5 429.5c-10 10.4-24.9 14.6-38.9 10.9-14-3.6-24.9-14.5-28.6-28.5-3.6-14 0.5-28.9 10.9-38.9l429.6-429.5c14.9-15.1 23.4-35.4 23.4-56.6v-206.9c0-22.1 17.9-40 40-40z m-428.3 211.7l-40 40c-1.8 2.2-3.4 4.6-4.7 7.1l-11.4-5.7c-30-15-66.2-9.6-90.6 13.3-24.4 23-31.9 58.8-18.8 89.6l34 79.3-62.4-31.2c-9.4-4.7-20.4-5.5-30.5-2.2-10 3.4-18.4 10.6-23.1 20.1-5.6 11.4-5.2 24.9 0.9 36l-38.9 38.9c-10.4 10-14.6 24.9-10.9 38.9 3.7 14 14.6 24.9 28.5 28.6 14 3.6 28.9-0.6 39-11l40-40c3.8-3.8 6.8-8.2 8.8-13.2l12.8 6.5c30 15.2 66.4 9.9 90.6-13.4 24.6-22.9 32-58.8 18.6-89.6l-34-79.3 62.4 31.2c9.5 4.7 20.4 5.4 30.6 2.1 10-3.3 18.4-10.6 23.1-20.1 5.5-11.4 5.1-24.8-1-36l33.5-33.4c15.2-15.7 14.9-40.7-0.5-56.1-15.5-15.5-40.4-15.6-56.1-0.5l0.1 0.1z m128.3-11.7c33.1 0 60-26.9 60-60s-26.9-60-60-60-60 26.9-60 60 26.9 60 60 60z"></path></svg>