<?xml version="1.0"?><svg xmlns="http://www.w3.org/2000/svg" width="960" height="960" viewBox="0 0 960 960"><path d="m320 800c29.4-3 59.2-0.2 87.5 8.3l29.3 14.6c22.1 11.2 46.6 17 71.5 17.1h198.1c96.7 0 179.5-69.1 196.8-164.2l9.1-146.2c2.6-44-13-87.2-43.2-119.3-30.3-32.1-72.4-50.3-116.6-50.3h-112.5v-120c0-88.4-71.6-160-160-160h-30.2l-71.7 251c-4.9 17.2-20.6 29-38.4 29h-299.7v520h280v-80z m19.6-360c53.6-0.2 100.6-35.6 115.4-87l53.6-187.6c31 11.8 51.4 41.4 51.4 74.6v200h192.6c22 0 43.2 9 58.3 25.1 15.2 16 23 37.6 21.7 59.7l-8.6 138.8c-11.2 56-60.4 96.3-117.5 96.4h-198.2c-12.4 0-24.7-2.9-35.8-8.4l-29.3-14.7c-23.2-11.6-45.5-16-123.2-16.9v-280h19.6z m-99.6 360h-120v-360h120v360z"></path></svg>