<?xml version="1.0"?><svg xmlns="http://www.w3.org/2000/svg" width="960" height="960" viewBox="0 0 960 960"><path d="m229.3 853c20 41.1 61.7 67.2 107.5 67h286.4c45.7 0.1 87.5-25.9 107.5-67 20.6-41.4 15.8-91-12.4-127.6l-187.9-245.4 188-245.4c28.3-36.6 33.1-86.2 12.4-127.6-20-41.2-61.8-67.2-107.6-67h-286.4c-45.8-0.1-87.6 25.9-107.6 67-20.6 41.4-15.8 91 12.4 127.6l188 245.4-188 245.4c-28.2 36.6-33 86.2-12.3 127.6z m71.7-710.5c6.5-13.8 20.5-22.6 35.8-22.5h286.4c15.3-0.1 29.2 8.7 35.8 22.5 7.2 14.1 5.6 31.1-4.2 43.5l-102.8 134h-144l-102.8-134c-9.7-12.4-11.4-29.4-4.2-43.5z m179 403.3l164 214.2h-328l164-214.2z m0.4 174.2c22.1 0 40-17.9 40-40s-17.9-40-40-40h-0.4c-14.3 0.1-27.4 7.8-34.6 20.2-7 12.4-7 27.6 0.2 40 7.3 12.4 20.6 19.9 34.8 19.8z"></path></svg>