<?xml version="1.0"?><svg xmlns="http://www.w3.org/2000/svg" width="960" height="960" viewBox="0 0 960 960"><path d="m280 440c0-22.1 17.9-40 40-40h3.6l-3.6-36c-1.4-14.3 4.9-28.2 16.5-36.6 11.7-8.4 26.9-10 40-4 13.1 5.9 22 18.4 23.5 32.6l12.2 125.6c0 2 0.7 3.9 2.2 5.3 1.3 1.3 3.2 2 5.2 1.9 6.8 0.1 7.8-3.8 8.4-6l26.4-105c10.4-41.4 49-69.4 91.6-66.4 42.7 3.2 77 36.4 81.2 79l1 9.6h11.8c22.1 0 40 17.9 40 40s-17.9 40-40 40h-3.6l3.6 36c1.4 14.3-4.9 28.2-16.5 36.6-11.7 8.4-26.9 10-40 4-13.1-5.9-22-18.4-23.5-32.6l-12.2-125.6c0-2-0.7-3.9-2.2-5.3-1.3-1.3-3.3-2.1-5.2-1.9-2-0.3-3.9 0.1-5.5 1.2-1.6 1.2-2.6 2.9-2.9 4.8l-26.4 105c-9.2 39.3-44.4 66.9-84.8 66.6-2.3 0-4.5-0.2-6.8-0.2-42.8-2.6-77.4-36.2-81.2-79l-1-9.6h-11.8c-22.1 0-40-17.9-40-40z m520-280c66.3 0 120 53.7 120 120v160c0 22.1-17.9 40-40 40s-40-17.9-40-40v-160c0-22.1-17.9-40-40-40h-640c-22.1 0-40 17.9-40 40v160c0 22.1-17.9 40-40 40s-40-17.9-40-40v-160c0-66.3 53.7-120 120-120h640z m-600 120c22.1 0 40 17.9 40 40v440h480v-440c0-22.1 17.9-40 40-40s40 17.9 40 40v440c0 44.2-35.8 80-80 80h-480c-44.2 0-80-35.8-80-80v-440c0-22.1 17.9-40 40-40z"></path></svg>