<?xml version="1.0"?><svg xmlns="http://www.w3.org/2000/svg" width="960" height="960" viewBox="0 0 960 960"><path d="m468.3 108.3l-268.3 268.3-148.3-148.3c-15.2-15.7-14.9-40.7 0.5-56.1 15.4-15.4 40.4-15.6 56.1-0.5l91.7 91.7 211.7-211.7c15.7-15.2 40.7-14.9 56.1 0.5 15.4 15.4 15.6 40.4 0.5 56.1z m295.7 251.7c88.4 0 160 71.6 160 160v280h-80c0 66.3-53.7 120-120 120s-120-53.7-120-120h-160c0 42.9-22.9 82.5-60 103.9s-82.9 21.5-120 0c-37.1-21.4-60-61-60-103.9h-80v-320c0-22.1 17.9-40 40-40s40 17.9 40 40v240h640v-120h-80v-160h-80v160c0 22.1-17.9 40-40 40s-40-17.9-40-40v-280c0-22.1-17.9-40-40-40h-44c-22.1 0-40-17.9-40-40s17.9-40 40-40h44c66.3 0 120 53.7 120 120v40h80z"></path></svg>