<?xml version="1.0"?><svg xmlns="http://www.w3.org/2000/svg" width="960" height="960" viewBox="0 0 960 960"><path d="m440 840c0 22.1-17.9 40-40 40h-160c-22.1 0-40-17.9-40-40s17.9-40 40-40h160c22.1 0 40 17.9 40 40z m280-40c22.1 0 40 17.9 40 40s-17.9 40-40 40h-160c-22.1 0-40-17.9-40-40s17.9-40 40-40h160z m-594.4-176.8l-65-195.2c-13.6-40.8-20.6-83.5-20.6-126.4v-141.6c0-44.2 35.8-80 80-80h200c44.2 0 80 35.8 80 80v200c1.6 43.5 36.5 78.4 80 80 43.9-0.6 79.4-36.1 80-80v-200c0-44.2 35.8-80 80-80h200c44.2 0 80 35.8 80 80v141.6c0 42.9-7 85.6-20.5 126.4l-65.1 195.2c-27.2 81.8-103.6 136.9-189.7 136.8h-84.7c-22.1 0-40-17.9-40-40s-17.9-40-40-40-40 17.9-40 40-17.9 40-40 40h-84.7c-86.1 0.1-162.5-55-189.7-136.8z m714.4-463.2h-200v80h200v-80z m-360 360c-87.9-1.2-158.8-72.1-160-160v-40h-198.5c1.3 28.1 6.3 56 14.9 82.8l65.1 195.1c16.3 49.1 62.1 82.1 113.8 82.1h51.5c17-48 62.3-80.1 113.2-80.1s96.2 32.1 113.2 80.1h51.5c51.7 0 97.6-33 113.9-82.1l65-195.2c8.6-26.8 13.6-54.6 14.9-82.7h-198.5v40c0 88.4-71.6 160-160 160z m-160-360h-200v80h200v-80z"></path></svg>