<?xml version="1.0"?><svg xmlns="http://www.w3.org/2000/svg" width="960" height="960" viewBox="0 0 960 960"><path d="m440 840c0 22.1-17.9 40-40 40h-160c-22.1 0-40-17.9-40-40s17.9-40 40-40h160c22.1 0 40 17.9 40 40z m320 0c0 22.1-17.9 40-40 40h-160c-22.1 0-40-17.9-40-40s17.9-40 40-40h160c22.1 0 40 17.9 40 40z m160-320c22.1 0 40 17.9 40 40s-17.9 40-40 40h-200c-22.1 0-40-17.9-40-40s17.9-40 40-40h200z m-794.4 103.2l-65.1-195.2c-13.6-40.8-20.5-83.5-20.5-126.4v-141.6c0-44.2 35.8-80 80-80h200c44.2 0 80 35.8 80 80v240c1.6 43.5 36.5 78.4 80 80 43.9-0.6 79.4-36.1 80-80v-240c0-44.2 35.8-80 80-80h200c44.2 0 80 35.8 80 80v141.6c0.1 37-5 73.8-15 109.4-6 21.2-28.2 33.6-49.4 27.6-21.4-6.2-33.6-28.3-27.6-49.5 6-22.6 9.6-45.7 10.7-69.1h-198.7v80c0 88.4-71.6 160-160 160-87.9-1.2-158.8-72.1-160-160v-80h-198.5c1.3 28.1 6.3 56 14.9 82.8l65.1 195.1c16.3 49 62.2 82.1 113.8 82.1h51.6c16.9-48 62.3-80 113.1-80 50.9 0 96.2 32 113.2 80h126.8c22.1 0 40 17.9 40 40s-17.9 40-40 40h-160c-22.1 0-40-17.9-40-40s-17.9-40-40-40-40 17.9-40 40-17.9 40-40 40h-84.7c-86.1 0.1-162.5-55-189.7-136.8z m714.4-463.2h-200v80h200v-80z m-520 0h-200v80h200v-80z"></path></svg>