<?xml version="1.0"?><svg xmlns="http://www.w3.org/2000/svg" width="960" height="960" viewBox="0 0 960 960"><path d="m125.6 583.2c27.2 81.8 103.6 136.9 189.7 136.8h89.4c22.1 0 40-17.9 40-40s-17.9-40-40-40h-89.4c-51.7 0-97.6-33-113.9-82.1l-65-195.2c-8.6-26.7-13.6-54.5-14.9-82.7h198.5v80c1.2 87.9 72.1 158.8 160 160 88.4 0 160-71.6 160-160v-80h198.5c-1.3 28.1-6.3 55.9-14.9 82.6l-8.2 24.6c-6.7 20.8 4.5 43.2 25.3 50.2 20.8 7 43.3-4 50.5-24.6l8.3-24.8c13.6-40.8 20.5-83.5 20.5-126.5v-141.5c0-44.2-35.8-80-80-80h-200c-44.2 0-80 35.8-80 80v240c-0.6 43.9-36.1 79.4-80 80-43.5-1.6-78.4-36.5-80-80v-240c0-44.2-35.8-80-80-80h-200c-44.2 0-80 35.8-80 80v141.6c0 42.9 7 85.6 20.6 126.4l65 195.2z m714.4-463.2v80h-200v-80h200z m-520 0v80h-200v-80h200z m80 640c22.1 0 40 17.9 40 40s-17.9 40-40 40h-160c-22.1 0-40-17.9-40-40s17.9-40 40-40h160z m491.7-228.3c15.7-15.2 40.7-14.9 56.1 0.5 15.4 15.4 15.6 40.4 0.5 56.1l-268.3 268.3-148.3-148.3c-15.2-15.7-14.9-40.7 0.5-56.1 15.4-15.4 40.4-15.6 56.1-0.5l91.7 91.7 211.7-211.7z"></path></svg>