<?xml version="1.0"?><svg xmlns="http://www.w3.org/2000/svg" width="960" height="960" viewBox="0 0 960 960"><path d="m240 880h480c44.2 0 80-35.8 80-80v-463.4l28.3-28.3c7.5-7.5 11.7-17.7 11.7-28.3v-120c0-44.2-35.8-80-80-80h-560c-44.2 0-80 35.8-80 80v120c0 10.6 4.2 20.8 11.7 28.3l28.3 28.3v463.4c0 44.2 35.8 80 80 80z m480-80h-480v-400h200v40c0 22.1 17.9 40 40 40s40-17.9 40-40v-40h200v400z m-520-640h560v103.4l-28.2 28.3-28.4 28.3h-183.4v-40c0-22.1-17.9-40-40-40s-40 17.9-40 40v40h-183.4l-28.3-28.2-28.3-28.4v-103.4z"></path></svg>