<?xml version="1.0"?><svg xmlns="http://www.w3.org/2000/svg" width="960" height="960" viewBox="0 0 960 960"><path d="m760 685.7v-325.7h40c18.6 0 34.7-12.8 39-30.8 4.2-18.1-4.5-36.7-21.1-45l-320-160c-11.3-5.6-24.5-5.6-35.8 0l-320 160c-16.7 8.3-25.4 26.9-21.1 45 4.3 18.1 20.4 30.8 39 30.8h40v325.7c-70.4 18.2-119.7 81.6-120 154.3v40h800v-40c-0.3-72.7-49.6-136.1-120-154.3z m-280-481l150.6 75.3h-301.2l150.6-75.3z m200 155.3v320h-80v-240c0-22.1-17.9-40-40-40s-40 17.9-40 40v240h-80v-240c0-22.1-17.9-40-40-40s-40 17.9-40 40v240h-80v-320h400z m-509.2 440c14.2-24.7 40.6-40 69.2-40h480c28.6 0 55 15.3 69.2 40h-618.4z"></path></svg>