<?xml version="1.0"?><svg xmlns="http://www.w3.org/2000/svg" width="960" height="960" viewBox="0 0 960 960"><path d="m760 240h-121.6c-2.8-86.6-71.8-156.4-158.4-160-86.7 3.5-155.9 73.3-158.8 160h-121.2c-22.1 0-40 17.9-40 40s17.9 40 40 40h2.8l37.2 522.8c1.5 21 19 37.2 40 37.2h400c21 0 38.5-16.2 40-37.2l37.2-522.8h2.8c22.1 0 40-17.9 40-40s-17.9-40-40-40z m-280-80c42.6 3.1 76.3 37.4 78.7 80h-157.5c2.4-42.7 36.1-77 78.8-80z m162.9 640h-325.6l-34.3-480h394l-34.1 480z m-82.9-40c22.1 0 40-17.9 40-40v-280c0-22.1-17.9-40-40-40s-40 17.9-40 40v280c0 22.1 17.9 40 40 40z m-160 0c22.1 0 40-17.9 40-40v-280c0-22.1-17.9-40-40-40s-40 17.9-40 40v280c0 22.1 17.9 40 40 40z"></path></svg>