<?xml version="1.0"?><svg xmlns="http://www.w3.org/2000/svg" width="960" height="960" viewBox="0 0 960 960"><path d="m715.5 213c4.7 13.5 16.2 23.5 30.3 26.2 14 2.7 28.4-2.3 37.8-13.1 9.3-10.8 12.2-25.7 7.6-39.3-22-64.5-83-107.6-151.2-106.8h-440c-65.2 2.4-117.6 54.8-120 120v200h160v489.6l280-163.3 280 163.3v-369.6c0-22.1-17.9-40-40-40s-40 17.9-40 40v230.4l-200-116.7-200 116.7v-550.4c-0.2-13.7-3-27.3-8.2-40h328.2c34-0.5 64.4 20.9 75.5 53z m-475.5-13v120h-80v-120c2.3-21 19-37.7 40-40 21 2.4 37.6 19 40 40z m640 120c22.1 0 40 17.9 40 40s-17.9 40-40 40h-240c-22.1 0-40-17.9-40-40s17.9-40 40-40h240z"></path></svg>