<?xml version="1.0" encoding="UTF-8"?>
<svg width="24px" height="24px" viewBox="0 0 24 24" version="1.1" xmlns="http://www.w3.org/2000/svg" xmlns:xlink="http://www.w3.org/1999/xlink">
    <!-- Generator: Sketch 45.1 (43504) - http://www.bohemiancoding.com/sketch -->
    <title>bookmark-remove</title>
    <desc>Created with Sketch.</desc>
    <defs></defs>
    <g id="Page-1" stroke="none" stroke-width="1" fill="none" fill-rule="evenodd">
        <g id="bookmark-remove" fill="#000000">
            <g id="Bookmark-Minus" transform="translate(4.000000, 1.000000)">
                <polyline id="Fill-2" points="14 13.001 14.006 19.118 8.008 14.834 2.008 19.119 2.008 4.063 8.008 4.063 8.008 3.063 2.401 3.063 3.431 2 12.585 2 13.615 3.063 12.008 3.063 12.008 4.063 14.006 4.063 14 8.998 16 9.002 16.009 2.658 13.431 0 2.585 0 0.008 2.657 0.008 23.006 8.008 17.292 16.01 23.007 16 12.999 14 13.001"></polyline>
                <polygon id="Fill-3" points="9.008 3.063 11.008 3.063 11.008 4.063 9.008 4.063"></polygon>
                <polygon id="Fill-4" points="11.008 10 19.008 10 19.008 12 11.008 12"></polygon>
            </g>
        </g>
    </g>
</svg>