<?xml version="1.0" encoding="UTF-8"?>
<svg width="24px" height="24px" viewBox="0 0 24 24" version="1.1" xmlns="http://www.w3.org/2000/svg" xmlns:xlink="http://www.w3.org/1999/xlink">
    <!-- Generator: Sketch 45.1 (43504) - http://www.bohemiancoding.com/sketch -->
    <title>bookmark-add</title>
    <desc>Created with Sketch.</desc>
    <defs></defs>
    <g id="Page-1" stroke="none" stroke-width="1" fill="none" fill-rule="evenodd">
        <g id="bookmark-add" fill="#000000">
            <g id="Bookmark-Plus" transform="translate(4.000000, 1.000000)">
                <polyline id="Fill-2" points="14 19.119 8 14.834 2 19.119 2 4.063 8 4.063 8 3.063 2.393 3.063 3.423 2 12.577 2 13.607 3.063 12 3.063 12 4.063 14 4.063 14 6 16 6 16 2.657 13.423 0 2.577 0 0 2.657 0 23.006 8 17.292 16 23.006 16 16 14 16 14 19.119"></polyline>
                <polygon id="Fill-3" points="9 3.063 11 3.063 11 4.063 9 4.063"></polygon>
                <polyline id="Fill-4" points="19 10 16 10 16 7 14 7 14 10 11 10 11 12 14 12 14 15 16 15 16 12 19 12 19 10"></polyline>
            </g>
        </g>
    </g>
</svg>