<?xml version="1.0" encoding="UTF-8"?>
<svg width="24px" height="24px" viewBox="0 0 24 24" version="1.1" xmlns="http://www.w3.org/2000/svg" xmlns:xlink="http://www.w3.org/1999/xlink">
    <!-- Generator: Sketch 45.1 (43504) - http://www.bohemiancoding.com/sketch -->
    <title>box-2-cross</title>
    <desc>Created with Sketch.</desc>
    <defs></defs>
    <g id="Page-1" stroke="none" stroke-width="1" fill="none" fill-rule="evenodd">
        <g id="box-2-cross" fill="#000000">
            <g id="Box-2-Cross" transform="translate(2.000000, 2.000000)">
                <path d="M17,0 L3,0 L0,2 L0,20 L20,20 L20,2 L17,0 L17,0 Z M18,18 L2,18 L2,4 L8,4 L8,7 L12.125,7 L12.125,4 L18,4 L18,18 L18,18 Z" id="Fill-1"></path>
                <polyline id="Fill-2" points="11.493 9 9.907 10.586 8.321 9 6.907 10.414 8.493 12 6.907 13.586 8.321 15 9.907 13.414 11.493 15 12.907 13.586 11.321 12 12.907 10.414 11.493 9"></polyline>
            </g>
        </g>
    </g>
</svg>