<?xml version="1.0"?><svg xmlns="http://www.w3.org/2000/svg" width="960" height="960" viewBox="0 0 960 960"><path d="m868.3 611.7c15.6 15.6 15.6 41 0 56.6l-91.7 91.7 91.7 91.7c15.2 15.7 14.9 40.7-0.5 56.1-15.4 15.4-40.4 15.6-56.1 0.5l-91.7-91.7-91.7 91.7c-10 10.4-24.9 14.5-38.9 10.9-14-3.7-24.9-14.6-28.6-28.6-3.6-14 0.5-28.8 10.9-38.9l91.7-91.7-91.7-91.7c-15.2-15.7-14.9-40.7 0.5-56.1 15.4-15.4 40.4-15.6 56.1-0.5l91.7 91.7 91.7-91.7c15.6-15.6 41-15.6 56.6 0z m-428.3 108.3c22.1 0 40 17.9 40 40s-17.9 40-40 40h-240c-44.2 0-80-35.8-80-80v-400c-22.1 0-40-17.9-40-40v-120c0-44.2 35.8-80 80-80h640c44.2 0 80 35.8 80 80v120c0 22.1-17.9 40-40 40v160c0 22.1-17.9 40-40 40s-40-17.9-40-40v-160h-560v400h240z m-280-560v80h640v-80h-640z m480 280c0 22.1-17.9 40-40 40h-240c-22.1 0-40-17.9-40-40s17.9-40 40-40h240c22.1 0 40 17.9 40 40z"></path></svg>