<?xml version="1.0"?><svg xmlns="http://www.w3.org/2000/svg" width="960" height="960" viewBox="0 0 960 960"><path d="m891.7 611.7c15.7-15.2 40.7-14.9 56.1 0.5 15.4 15.4 15.6 40.4 0.5 56.1l-248.3 248.3-148.3-148.3c-15.2-15.7-14.9-40.7 0.5-56.1 15.4-15.4 40.4-15.6 56.1-0.5l91.7 91.7 191.7-191.7z m-771.7 108.3v-400c-22.1 0-40-17.9-40-40v-120c0-44.2 35.8-80 80-80h640c44.2 0 80 35.8 80 80v120c0 22.1-17.9 40-40 40v200c0 22.1-17.9 40-40 40s-40-17.9-40-40v-200h-560v400h200c22.1 0 40 17.9 40 40s-17.9 40-40 40h-200c-44.2 0-80-35.8-80-80z m40-560v80h640v-80h-640z m200 240h240c22.1 0 40 17.9 40 40s-17.9 40-40 40h-240c-22.1 0-40-17.9-40-40s17.9-40 40-40z"></path></svg>