<?xml version="1.0" encoding="UTF-8"?>
<svg width="24px" height="24px" viewBox="0 0 24 24" version="1.1" xmlns="http://www.w3.org/2000/svg" xmlns:xlink="http://www.w3.org/1999/xlink">
    <!-- Generator: Sketch 45.1 (43504) - http://www.bohemiancoding.com/sketch -->
    <title>box-1-tick</title>
    <desc>Created with Sketch.</desc>
    <defs></defs>
    <g id="Page-1" stroke="none" stroke-width="1" fill="none" fill-rule="evenodd">
        <g id="box-1-tick" fill="#000000">
            <g id="Box-1-Check" transform="translate(2.000000, 2.000000)">
                <path d="M17.414,0 L2.586,0 L0,2.586 L0,20 L20,20 L20,2.586 L17.414,0 L17.414,0 Z M16.586,2 L18,3.414 L18,4 L12.094,4 L11.594,2 L16.586,2 L16.586,2 Z M3.414,2 L8.594,2 L8.094,4 L2,4 L2,3.414 L3.414,2 L3.414,2 Z M2,18 L2,5 L8.094,5 L8.094,8 L12.094,8 L12.094,5 L18,5 L18,18 L2,18 L2,18 Z" id="Fill-1"></path>
                <polyline id="Fill-2" points="9.054 13.172 7.508 11.586 6.094 13 9.054 16 14.094 11 12.68 9.586 9.054 13.172"></polyline>
            </g>
        </g>
    </g>
</svg>