<?xml version="1.0"?><svg xmlns="http://www.w3.org/2000/svg" width="960" height="960" viewBox="0 0 960 960"><path d="m640 890.9l-145.4-145.4c-14.1-14.1-14.1-36.8 0-50.9 14-14.1 36.8-14.1 50.9 0l94.5 94.5 174.6-174.6c14-14.1 36.8-14.1 50.9 0 14.1 14.1 14.1 36.8 0 50.9l-225.5 225.5z m-560-250.9v-280c0-66.3 53.7-120 120-120h40v-40c0-44.2 35.8-80 80-80h120c44.2 0 80 35.8 80 80v40h40c0-44.2 35.8-80 80-80s80 35.8 80 80c0 2.4-0.5 4.8-0.7 7.2 48.1 16.6 80.5 61.8 80.7 112.8v140c0 22.1-17.9 40-40 40s-40-17.9-40-40v-140c0-22.1-17.9-40-40-40h-480c-22.1 0-40 17.9-40 40v280c0 22.1 17.9 40 40 40h160c22.1 0 40 17.9 40 40s-17.9 40-40 40h-160c-66.3 0-120-53.7-120-120z m240-440v40h120v-40h-120z m200 300c0 77.3-62.7 140-140 140s-140-62.7-140-140 62.7-140 140-140 140 62.7 140 140z m-140 68c37.6 0 68-30.4 68-68s-30.4-68-68-68-68 30.4-68 68 30.4 68 68 68z"></path></svg>