<?xml version="1.0"?><svg xmlns="http://www.w3.org/2000/svg" width="960" height="960" viewBox="0 0 960 960"><path d="m920 160h-680c-2.4 0.2-4.8 0.7-7.2 1.4-32.5-52.6-90.9-83.8-152.8-81.4-22.1 0-40 17.9-40 40s17.9 40 40 40c24.6-2 49.1 5.8 67.9 21.8s30.5 38.9 32.5 63.6l48.6 361.2c9.7 64.8 65.3 113.1 131 113.4h440c22.1 0 40-17.9 40-40s-17.9-40-40-40h-440c-23.9-0.2-44.6-16.7-50.2-40h266.6c124 0 238.4-67.3 298.6-175.7 0.9-1.6 1.7-3.2 2.3-4.9l80-204.9c4.8-12.3 3.2-26.2-4.2-37.1-7.5-10.9-19.9-17.4-33.1-17.4z m-116.2 227.8c-46.5 81.7-133.3 132.2-227.4 132.2h-278.2l-37.8-280h601.1l-57.7 147.8z m-523.8 532.2c-44.2 0-80-35.8-80-80s35.8-80 80-80 80 35.8 80 80-35.8 80-80 80z m480 0c-44.2 0-80-35.8-80-80s35.8-80 80-80 80 35.8 80 80-35.8 80-80 80z"></path></svg>