<?xml version="1.0"?><svg xmlns="http://www.w3.org/2000/svg" width="960" height="960" viewBox="0 0 960 960"><path d="m934.6 162.7c20.5 8 30.8 31.2 22.7 51.8l-80 204.9c-0.7 1.7-1.5 3.4-2.3 4.9-60.3 108.4-174.6 175.6-298.6 175.7h-266.6c5.5 23.3 26.3 39.8 50.2 40h440c22.1 0 40 17.9 40 40s-17.9 40-40 40h-440c-65.7-0.2-121.4-48.5-130.9-113.5l-48.8-401.7c-4.3-51.1-49.2-89-100.3-84.8-22.1 0-40-17.9-40-40s17.9-40 40-40c90.8-3.7 169 63.2 179.5 153.5l39.7 326.5h277.2c94.1 0 180.8-50.5 227.4-132.2l78.8-202.4c3.8-9.9 11.5-17.9 21.2-22.1 9.8-4.3 20.8-4.5 30.8-0.6z m-654.6 757.3c-44.2 0-80-35.8-80-80s35.8-80 80-80 80 35.8 80 80-35.8 80-80 80z m480 0c-44.2 0-80-35.8-80-80s35.8-80 80-80 80 35.8 80 80-35.8 80-80 80z m-91.7-788.3c15.6 15.6 15.6 41 0 56.6l-71.7 71.7 71.7 71.7c15.2 15.7 14.9 40.7-0.5 56.1-15.4 15.4-40.4 15.6-56.1 0.5l-71.7-71.7-71.7 71.7c-10 10.4-24.9 14.5-38.9 10.9-14-3.7-24.9-14.6-28.6-28.6-3.6-14 0.5-28.8 10.9-38.9l71.7-71.7-71.7-71.7c-15.2-15.7-14.9-40.7 0.5-56.1 15.4-15.4 40.4-15.6 56.1-0.5l71.7 71.7 71.7-71.7c15.6-15.6 41-15.6 56.6 0z"></path></svg>