<?xml version="1.0"?><svg xmlns="http://www.w3.org/2000/svg" width="960" height="960" viewBox="0 0 960 960"><path d="m480 80c-220.9 0-400 179.1-400 400s179.1 400 400 400 400-179.1 400-400c0-106.1-42.2-207.8-117.2-282.8-74.9-75.1-176.7-117.2-282.8-117.2z m0 720c-176.7 0-320-143.3-320-320s143.3-320 320-320 320 143.3 320 320c-0.2 176.6-143.4 319.8-320 320z m131.7-428.3l-191.7 191.7-91.7-91.7c-15.7-15.2-40.7-14.9-56.1 0.5-15.4 15.4-15.6 40.4-0.5 56.1l148.3 148.3 248.3-248.3c15.2-15.7 14.9-40.7-0.5-56.1-15.4-15.4-40.4-15.6-56.1-0.5z"></path></svg>