<?xml version="1.0" encoding="UTF-8"?>
<svg width="24px" height="24px" viewBox="0 0 24 24" version="1.1" xmlns="http://www.w3.org/2000/svg" xmlns:xlink="http://www.w3.org/1999/xlink">
    <!-- Generator: Sketch 45.1 (43504) - http://www.bohemiancoding.com/sketch -->
    <title>circle-diamond</title>
    <desc>Created with Sketch.</desc>
    <defs></defs>
    <g id="Page-1" stroke="none" stroke-width="1" fill="none" fill-rule="evenodd">
        <g id="circle-diamond" fill="#000000">
            <g id="Diamond-2" transform="translate(1.000000, 1.000000)">
                <path d="M11,0 C4.925,0 0,4.925 0,11 C0,17.075 4.925,22 11,22 C17.075,22 22,17.075 22,11 C22,4.925 17.075,0 11,0 L11,0 Z M11,20 C6.037,20 2,15.963 2,11 C2,6.037 6.037,2 11,2 C15.963,2 20,6.037 20,11 C20,15.963 15.963,20 11,20 L11,20 Z" id="Fill-2"></path>
                <path d="M15.535,6 L6.465,6 L3.748,10.076 L11,18.536 L18.252,10.076 L15.535,6 L15.535,6 Z M8.066,9.5 L6.535,9.5 L7.3,8.352 L8.066,9.5 L8.066,9.5 Z M8.268,8 L9.732,8 L9,9.099 L8.268,8 L8.268,8 Z M10.934,8 L11.066,8 L12.066,9.5 L9.934,9.5 L10.934,8 L10.934,8 Z M12.268,8 L13.732,8 L13,9.099 L12.268,8 L12.268,8 Z M14.7,8.352 L15.465,9.5 L13.934,9.5 L14.7,8.352 L14.7,8.352 Z M6.746,10.5 L15.254,10.5 L11,15.464 L6.746,10.5 L6.746,10.5 Z" id="Fill-3"></path>
            </g>
        </g>
    </g>
</svg>