<?xml version="1.0" encoding="UTF-8"?>
<svg width="24px" height="24px" viewBox="0 0 24 24" version="1.1" xmlns="http://www.w3.org/2000/svg" xmlns:xlink="http://www.w3.org/1999/xlink">
    <!-- Generator: Sketch 45.1 (43504) - http://www.bohemiancoding.com/sketch -->
    <title>circle-2-stop</title>
    <desc>Created with Sketch.</desc>
    <defs></defs>
    <g id="Page-1" stroke="none" stroke-width="1" fill="none" fill-rule="evenodd">
        <g id="circle-2-stop" fill="#000000">
            <g id="Stop---circle---filled" transform="translate(0.000000, 1.000000)">
                <path d="M11.992,2 C16.955,2 20.992,6.037 20.992,11 C20.992,15.963 16.955,20 11.992,20 C7.03,20 2.992,15.963 2.992,11 C2.992,6.037 7.03,2 11.992,2 M11.992,0 C5.917,0 0.992,4.925 0.992,11 C0.992,17.075 5.917,22 11.992,22 C18.068,22 22.992,17.075 22.992,11 C22.992,4.925 18.068,0 11.992,0" id="Fill-2"></path>
                <polygon id="Fill-3" points="7.992 7 15.992 7 15.992 15 7.992 15"></polygon>
            </g>
        </g>
    </g>
</svg>