<?xml version="1.0" encoding="UTF-8"?>
<svg width="24px" height="24px" viewBox="0 0 24 24" version="1.1" xmlns="http://www.w3.org/2000/svg" xmlns:xlink="http://www.w3.org/1999/xlink">
    <!-- Generator: Sketch 45.1 (43504) - http://www.bohemiancoding.com/sketch -->
    <title>circle-left</title>
    <desc>Created with Sketch.</desc>
    <defs></defs>
    <g id="Page-1" stroke="none" stroke-width="1" fill="none" fill-rule="evenodd">
        <g id="circle-left" fill="#000000">
            <g id="Left---circle" transform="translate(1.000000, 1.000000)">
                <path d="M11,2 C15.963,2 20,6.037 20,11 C20,15.963 15.963,20 11,20 C6.037,20 2,15.963 2,11 C2,6.037 6.037,2 11,2 M11,0 C4.925,0 0,4.925 0,11 C0,17.075 4.925,22 11,22 C17.075,22 22,17.075 22,11 C22,4.925 17.075,0 11,0" id="Fill-2"></path>
                <polyline id="Fill-3" points="13.707 14.293 10.414 11 13.707 7.707 12.293 6.293 7.586 11 12.293 15.707 13.707 14.293"></polyline>
            </g>
        </g>
    </g>
</svg>