<?xml version="1.0"?><svg xmlns="http://www.w3.org/2000/svg" width="960" height="960" viewBox="0 0 960 960"><path d="m895.5 761.7c13.5 24.8 13 54.9-1.5 79.2-14.4 24.2-40.5 39.1-68.8 39.1h-690.4c-28.3 0-54.4-14.9-68.8-39.2-14.5-24.2-15-54.3-1.5-79.1l345.2-632.9c14-25.8 41-41.8 70.3-41.8s56.2 16 70.2 41.7l345.2 632.9z m-455.5-361.7c0-22.1 17.9-40 40-40s40 17.9 40 40v200c0 22.1-17.9 40-40 40s-40-17.9-40-40v-200z m40 370c-27.6 0-50-22.4-50-50s22.4-50 50-50 50 22.4 50 50-22.4 50-50 50z m-345.2 30h690.4l-345.2-632.9h-0.4l-344.8 632.9z"></path></svg>