<?xml version="1.0"?><svg xmlns="http://www.w3.org/2000/svg" width="960" height="960" viewBox="0 0 960 960"><path d="m480 520c22.1 0 40 17.9 40 40v223.4l51.7-51.7c15.7-15.2 40.7-14.9 56.1 0.5 15.4 15.4 15.6 40.4 0.5 56.1l-148.3 148.3-148.3-148.3c-15.2-15.7-14.9-40.7 0.5-56.1 15.4-15.4 40.4-15.6 56.1-0.5l51.7 51.7v-223.4c0-22.1 17.9-40 40-40z m-284.4 238.7c-118.8-13.3-205.3-119.1-194.7-238.1 10.6-119.2 114.4-208 233.7-200 58.9-112.4 182.2-175.5 307.8-157.6 125.6 18 226.4 113.1 251.4 237.5 96.5 7.4 170 89.7 166.2 186.4-3.7 96.7-83.2 173.2-180 173.1h-20c-22.1 0-40-17.9-40-40s17.9-40 40-40h20.2c55.2 0 100-44.8 100-100s-44.8-100-100-100c-1 0-1.9 0.3-2.8 0.3l-29.4 28.4c-15.9 15.1-40.9 14.7-56.2-1-15.3-15.7-15.2-40.8 0.4-56.3l24.2-23.4c-13.5-95-87.2-170.2-182-185.3-94.8-15.1-188.3 33.3-230.6 119.4l10.4 17.2c8 12.2 8.6 27.9 1.7 40.8-6.9 12.8-20.3 20.9-34.9 21.1-14.6 0-28.2-7.8-35.3-20.6l-11.6-19c-4.7-0.8-9.4-1.4-14.2-1.6-75.1-1.2-137.7 57.1-141.9 132-4.2 75 51.4 140 126.2 147.2 21.8 2.5 37.6 22.2 35.3 44-1.1 10.6-6.3 20.3-14.6 27-8.3 6.6-18.8 9.7-29.4 8.4z"></path></svg>