<?xml version="1.0"?><svg xmlns="http://www.w3.org/2000/svg" width="960" height="960" viewBox="0 0 960 960"><path d="m793.8 400.5c-25.1-124.4-125.8-219.5-251.4-237.5-125.6-18-248.9 45.2-307.8 157.5-80.3-5.5-157.2 33.2-200.5 101.1-43.3 67.7-46.2 153.8-7.4 224.3 38.7 70.5 112.8 114.3 193.3 114.1h560c96.8 0.1 176.3-76.4 180-173.1 3.7-96.7-69.7-179-166.2-186.4z m-13.8 279.5h-560c-77.3 0-140-62.7-140-140s62.7-140 140-140c4.8 0.3 9.5 0.8 14.2 1.6l11.6 19.1c7.1 12.8 20.7 20.6 35.2 20.5 14.7-0.2 28-8.3 35-21.2 6.8-12.8 6.2-28.5-1.8-40.8l-10.4-17.2c42.3-86 135.9-134.4 230.6-119.3 94.8 15.2 168.6 90.3 182 185.3l-24.2 23.4c-15.6 15.5-15.7 40.6-0.4 56.3 15.3 15.7 40.4 16.1 56.2 1l29.3-28.4c1 0 1.9-0.3 2.8-0.3 55.3 0 100 44.8 100 100s-44.7 100-100 100h-0.1z"></path></svg>