<?xml version="1.0" encoding="UTF-8"?>
<svg width="24px" height="24px" viewBox="0 0 24 24" version="1.1" xmlns="http://www.w3.org/2000/svg" xmlns:xlink="http://www.w3.org/1999/xlink">
    <!-- Generator: Sketch 45.1 (43504) - http://www.bohemiancoding.com/sketch -->
    <title>code-2</title>
    <desc>Created with Sketch.</desc>
    <defs></defs>
    <g id="Page-1" stroke="none" stroke-width="1" fill="none" fill-rule="evenodd">
        <g id="code-2" fill="#000000">
            <g id="Code-2" transform="translate(0.000000, 2.000000)">
                <path d="M7.401,16.775 L0.663,11.287 C0.276,11.035 0,10.518 0,9.961 C0,9.404 0.276,8.887 0.74,8.579 L7.406,3.22 L7.563,3.416 C8.168,4.169 8.048,5.27 7.294,5.875 L2.201,9.965 L7.413,14.207 C8.104,14.769 8.208,15.784 7.645,16.475 L7.401,16.775" id="Fill-1"></path>
                <path d="M16.599,16.775 L23.337,11.287 C23.724,11.035 24,10.518 24,9.961 C24,9.404 23.724,8.887 23.26,8.579 L16.594,3.22 L16.437,3.416 C15.832,4.169 15.952,5.27 16.706,5.875 L21.799,9.965 L16.587,14.207 C15.896,14.769 15.792,15.784 16.354,16.475 L16.599,16.775" id="Fill-2"></path>
                <polyline id="Fill-3" points="9.949 19.316 8.051 18.684 14.051 0.684 15.949 1.316 9.949 19.316"></polyline>
            </g>
        </g>
    </g>
</svg>