<?xml version="1.0" encoding="UTF-8"?>
<svg width="24px" height="24px" viewBox="0 0 24 24" version="1.1" xmlns="http://www.w3.org/2000/svg" xmlns:xlink="http://www.w3.org/1999/xlink">
    <!-- Generator: Sketch 45.1 (43504) - http://www.bohemiancoding.com/sketch -->
    <title>code-3</title>
    <desc>Created with Sketch.</desc>
    <defs></defs>
    <g id="Page-1" stroke="none" stroke-width="1" fill="none" fill-rule="evenodd">
        <g id="code-3" fill="#000000">
            <g id="Imported-Layers" transform="translate(0.000000, 4.000000)">
                <path d="M8.493,16 L0.761,9.701 C0.317,9.412 0,8.819 0,8.18 C0,7.541 0.317,6.948 0.849,6.594 L8.499,0.445 L8.679,0.669 C9.373,1.534 9.235,2.797 8.371,3.491 L2.525,8.185 L8.507,13.053 C9.299,13.698 9.419,14.863 8.774,15.655 L8.493,16" id="Fill-1"></path>
                <path d="M15.507,16 L23.239,9.701 C23.683,9.412 24,8.819 24,8.18 C24,7.541 23.683,6.948 23.151,6.594 L15.501,0.445 L15.321,0.669 C14.627,1.534 14.765,2.797 15.629,3.491 L21.475,8.185 L15.493,13.053 C14.701,13.698 14.581,14.863 15.226,15.655 L15.507,16" id="Fill-2"></path>
            </g>
        </g>
    </g>
</svg>