<?xml version="1.0"?><svg xmlns="http://www.w3.org/2000/svg" width="960" height="960" viewBox="0 0 960 960"><path d="m651.7 708.3c-15.6-15.6-15.6-41 0-56.6l171.7-171.7-171.7-171.7c-15.2-15.7-14.9-40.7 0.5-56.1 15.4-15.4 40.4-15.6 56.1-0.5l200 200c15.6 15.6 15.6 41 0 56.6l-200 200c-15.6 15.6-41 15.6-56.6 0z m-400 0l-200-200c-15.6-15.6-15.6-41 0-56.6l200-200c15.7-15.2 40.7-14.9 56.1 0.5 15.4 15.4 15.6 40.4 0.5 56.1l-171.7 171.7 171.7 171.7c15.2 15.7 14.9 40.7-0.5 56.1-15.4 15.4-40.4 15.6-56.1 0.5z m138.6 130.5c-21.5-5.4-34.4-27.1-29.1-48.5l160-640c3.3-14.1 13.9-25.3 27.8-29.4 13.8-4 28.8-0.3 39.2 9.8 10.3 10.1 14.4 25 10.6 39l-160 640c-2.6 10.3-9.1 19.2-18.2 24.6-9.1 5.5-20 7.1-30.3 4.5z"></path></svg>