<?xml version="1.0"?><svg xmlns="http://www.w3.org/2000/svg" width="960" height="960" viewBox="0 0 960 960"><path d="m668.3 651.7c-15.6-15.6-41-15.6-56.6 0l-91.7 91.7v-526.8l91.7 91.7c15.7 15.2 40.7 14.9 56.1-0.5 15.4-15.4 15.6-40.4 0.5-56.1l-160-160-28.3-28.3-28.2 28.3-160 160c-15.2 15.7-15 40.6 0.4 56.1 15.4 15.4 40.4 15.6 56.1 0.5l91.7-91.7v526.8l-91.7-91.7c-15.7-15.2-40.7-14.9-56.1 0.5-15.4 15.4-15.6 40.4-0.5 56.1l160 160 28.3 28.2 28.2-28.2 160-160c15.6-15.6 15.6-40.9 0-56.6z"></path></svg>