<?xml version="1.0"?><svg xmlns="http://www.w3.org/2000/svg" width="960" height="960" viewBox="0 0 960 960"><path d="m91.7 508.3l160 160c15.7 15.2 40.7 14.9 56.1-0.5 15.4-15.4 15.6-40.4 0.5-56.1l-91.7-91.7h526.8l-91.7 91.7c-10.4 10-14.5 24.9-10.9 38.9 3.7 14 14.6 24.9 28.6 28.6 14 3.6 28.8-0.5 38.9-10.9l160-160 28.3-28.3-28.3-28.3-160-160c-15.7-15.2-40.7-14.9-56.1 0.5-15.4 15.4-15.6 40.4-0.5 56.1l91.7 91.7h-526.8l91.7-91.7c15.2-15.7 14.9-40.7-0.5-56.1-15.4-15.4-40.4-15.6-56.1-0.5l-160 160-28.3 28.3 28.3 28.3z"></path></svg>