<?xml version="1.0" encoding="UTF-8"?>
<svg width="24px" height="24px" viewBox="0 0 24 24" version="1.1" xmlns="http://www.w3.org/2000/svg" xmlns:xlink="http://www.w3.org/1999/xlink">
    <!-- Generator: Sketch 45.1 (43504) - http://www.bohemiancoding.com/sketch -->
    <title>dimension-ruler</title>
    <desc>Created with Sketch.</desc>
    <defs></defs>
    <g id="Page-1" stroke="none" stroke-width="1" fill="none" fill-rule="evenodd">
        <g id="dimension-ruler" fill="#000000">
            <g id="Page-1" transform="translate(0.000000, 7.000000)">
                <path d="M0,8.984 L24,8.984 L24,0.966 L0,0.966 L0,8.984 Z M2,2.965 L22,2.965 L22,6.983 L20,6.983 L20,5 L19,5 L19,6.983 L17,6.983 L17,5 L16,5 L16,6.983 L14,6.983 L14,5 L13,5 L13,6.983 L11,6.983 L11,5 L10,5 L10,6.983 L8,6.983 L8,5 L7,5 L7,6.983 L5,6.983 L5,5 L4,5 L4,6.983 L2,6.983 L2,2.965 Z" id="Fill-3"></path>
            </g>
        </g>
    </g>
</svg>