<?xml version="1.0"?><svg xmlns="http://www.w3.org/2000/svg" width="960" height="960" viewBox="0 0 960 960"><path d="m880 280h-800c-44.2 0-80 35.8-80 80v240c0 44.2 35.8 80 80 80h800c44.2 0 80-35.8 80-80v-240c0-44.2-35.8-80-80-80z m-800 320v-240h200v120c0 22.1 17.9 40 40 40s40-17.9 40-40v-120h40v80c0 22.1 17.9 40 40 40s40-17.9 40-40v-80h40v120c0 22.1 17.9 40 40 40s40-17.9 40-40v-120h40v80c0 22.1 17.9 40 40 40s40-17.9 40-40v-80h40v120c0 22.1 17.9 40 40 40s40-17.9 40-40v-120h40v240h-800z m80-80c22.1 0 40-17.9 40-40s-17.9-40-40-40-40 17.9-40 40 17.9 40 40 40z"></path></svg>