<?xml version="1.0"?><svg xmlns="http://www.w3.org/2000/svg" width="960" height="960" viewBox="0 0 960 960"><path d="m860.4 280c7 7 12.6 15.2 16.7 24.2v0.4c4.5 10 6.8 20.9 6.9 32v383.4c0 44.2-35.8 80-80 80h-480c-44.2 0-80-35.8-80-80v-600c0-44.2 35.8-80 80-80h263.2c3 0.1 5.9 0.4 8.8 0.8 1.3-0.3 2.6-0.6 4-0.8 10.4 0 20.4 4.2 27.8 11.4 5.8 3.4 11.2 7.4 16 12l216.6 216.6z m-536.4 440h479.8v-360h-243.8v-240h-236v600z m423.2-440l-107.2-107.2v107.2h107.2z m-103.4 640h-439.8c-44.2 0-80-35.8-80-80v-560c0-22.1 17.9-40 40-40s40 17.9 40 40v560h439.8c22.1 0 40 17.9 40 40s-17.9 40-40 40z"></path></svg>