<?xml version="1.0"?><svg xmlns="http://www.w3.org/2000/svg" width="960" height="960" viewBox="0 0 960 960"><path d="m80 759.6v-479.9c0-66.3 53.7-120 120-120h133.3c22.1 0 40 17.9 40 40s-17.9 40-40 40h-133.3c-22.1 0-40 17.9-40 40v480c0 22.1 17.9 40 40 40h480c22.1 0 40-17.9 40-40v-133c0-22.1 17.9-40 40-40s40 17.9 40 40v133c0 66.3-53.7 120-120 120h-480c-66.3 0-120-53.7-120-120z m800-360c0 22.1-17.9 40-40 40h-320v-320c0-22 17.9-40 40-40s40 18 40 40v183.5l211.7-211.6c15.7-15.2 40.7-15 56.1 0.4 15.4 15.5 15.6 40.4 0.5 56.1l-211.7 211.6h183.4c22.1 0 40 18 40 40z"></path></svg>