<?xml version="1.0"?><svg xmlns="http://www.w3.org/2000/svg" width="960" height="960" viewBox="0 0 960 960"><path d="m760 80h-560c-66.3 0-120 53.7-120 120v560c0 66.3 53.7 120 120 120h560c66.3 0 120-53.7 120-120v-560c0-66.3-53.7-120-120-120z m40 680c0 22.1-17.9 40-40 40h-560c-22.1 0-40-17.9-40-40v-560c0-22.1 17.9-40 40-40h560c22.1 0 40 17.9 40 40v560z m-560-480v120c0 22.2 17.9 40 40 40h120c22.2 0 40-17.9 40-40v-120c0-22.2-17.9-40-40-40h-120c-22.2 0-40 17.9-40 40z m280 0v120c0 22.2 17.9 40 40 40h120c22.2 0 40-17.9 40-40v-120c0-22.2-17.9-40-40-40h-120c-22.2 0-40 17.9-40 40z m-280 280v120c0 22.2 17.9 40 40 40h120c22.2 0 40-17.9 40-40v-120c0-22.2-17.9-40-40-40h-120c-22.2 0-40 17.9-40 40z m280 0v120c0 22.2 17.9 40 40 40h120c22.2 0 40-17.9 40-40v-120c0-22.2-17.9-40-40-40h-120c-22.2 0-40 17.9-40 40z"></path></svg>