<?xml version="1.0" encoding="UTF-8"?>
<svg width="24px" height="24px" viewBox="0 0 24 24" version="1.1" xmlns="http://www.w3.org/2000/svg" xmlns:xlink="http://www.w3.org/1999/xlink">
    <!-- Generator: Sketch 45.1 (43504) - http://www.bohemiancoding.com/sketch -->
    <title>edit-window-layers</title>
    <desc>Created with Sketch.</desc>
    <defs></defs>
    <g id="Page-1" stroke="none" stroke-width="1" fill="none" fill-rule="evenodd">
        <g id="edit-window-layers" fill="#000000">
            <g id="Window-Layers" transform="translate(2.000000, 2.000000)">
                <path d="M20,0 L3,0 L3,3 L0,3 L0,20 L17,20 L17,17 L20,17 L20,0 L20,0 Z M2,5 L15,5 L15,8.876 L2,8.876 L2,5 Z M2,11 L15,11 L15,18 L2,18 L2,11 Z M18,15 L17,15 L17,3 L5,3 L5,2 L18,2 L18,15 L18,15 Z" id="Fill-2"></path>
                <polygon id="Fill-3" points="3 6 5 6 5 8 3 8"></polygon>
                <polygon id="Fill-4" points="6.031 6 14 6 14 8 6.031 8"></polygon>
            </g>
        </g>
    </g>
</svg>