<?xml version="1.0" encoding="UTF-8"?>
<svg width="24px" height="24px" viewBox="0 0 24 24" version="1.1" xmlns="http://www.w3.org/2000/svg" xmlns:xlink="http://www.w3.org/1999/xlink">
    <!-- Generator: Sketch 45.1 (43504) - http://www.bohemiancoding.com/sketch -->
    <title>edit-scissors</title>
    <desc>Created with Sketch.</desc>
    <defs></defs>
    <g id="Page-1" stroke="none" stroke-width="1" fill="none" fill-rule="evenodd">
        <g id="edit-scissors" fill="#000000">
            <path d="M18.5,14.9999052 C16.794,14.9999052 15.328,15.9599052 14.565,17.3589052 L13.138,14.7329052 L19.876,2.48190515 C20.136,2.00990515 19.975,1.41790515 19.513,1.14190515 C19.05,0.865905154 18.453,1.00390515 18.161,1.45690515 L12,10.9679052 L5.839,1.45690515 C5.547,1.00390515 4.95,0.865905154 4.487,1.14190515 C4.025,1.41790515 3.864,2.00990515 4.124,2.48190515 L10.862,14.7329052 L9.435,17.3589052 C8.672,15.9599052 7.206,14.9999052 5.5,14.9999052 C3.015,14.9999052 1,17.0149052 1,19.4999052 C1,21.9849052 3.015,23.9999052 5.5,23.9999052 C6.828,23.9999052 8.009,23.4139052 8.832,22.4999052 C8.85,22.4949052 8.857,22.4859052 8.876,22.4819052 L8.934,22.3769052 C9.305,21.9339052 9.588,21.4239052 9.768,20.8599052 L12,16.8019052 L14.232,20.8599052 C14.412,21.4239052 14.695,21.9339052 15.066,22.3769052 L15.124,22.4819052 C15.143,22.4859052 15.15,22.4949052 15.168,22.4999052 C15.991,23.4139052 17.172,23.9999052 18.5,23.9999052 C20.985,23.9999052 23,21.9849052 23,19.4999052 C23,17.0149052 20.985,14.9999052 18.5,14.9999052 L18.5,14.9999052 Z M5.5,21.9999052 C4.121,21.9999052 3,20.8779052 3,19.4999052 C3,18.1209052 4.121,16.9999052 5.5,16.9999052 C6.879,16.9999052 8,18.1209052 8,19.4999052 C8,19.8219052 7.934,20.1279052 7.822,20.4109052 C7.811,20.4399052 7.8,20.4679052 7.789,20.4979052 C7.402,21.3809052 6.523,21.9999052 5.5,21.9999052 L5.5,21.9999052 Z M18.5,21.9999052 C17.477,21.9999052 16.598,21.3809052 16.211,20.4989052 C16.2,20.4679052 16.188,20.4389052 16.177,20.4089052 C16.066,20.1259052 16,19.8209052 16,19.4999052 C16,18.1209052 17.121,16.9999052 18.5,16.9999052 C19.878,16.9999052 21,18.1209052 21,19.4999052 C21,20.8779052 19.878,21.9999052 18.5,21.9999052 L18.5,21.9999052 Z" id="Imported-Layers"></path>
        </g>
    </g>
</svg>