<?xml version="1.0"?><svg xmlns="http://www.w3.org/2000/svg" width="960" height="960" viewBox="0 0 960 960"><path d="m615.4 524l242.5 120.3c12.8 6.4 21.3 19 22.1 33.3 1 14.2-5.8 27.9-17.7 35.8-11.9 8-27.1 9-39.9 2.6l-242.4-120c-19.9-9.8-28.1-33.8-18.3-53.7 9.8-19.9 33.8-28 53.7-18.3z m-280.2-43.8l-201.9-98.1c-64.9-32.9-99.7-105.3-84.9-176.5 14.7-71.3 75.5-123.8 148.2-128.2 72.6-4.3 139.2 40.6 162.4 109.6 23.2 69-2.8 145-63.3 185.4l131.6 63.4c205.6-99.4 392.5-190.4 395.2-191.8 19.9-9.7 43.9-1.4 53.6 18.5 9.6 19.9 1.3 43.8-18.5 53.5-3.6 1.8-302.9 147.7-561.6 272 59.6 40.5 84.8 115.8 61.6 184-23.3 68.2-89.3 112.5-161.2 108.1-72-4.4-132.1-56.4-146.8-126.9-14.8-70.5 19.3-142.2 83.4-175.2l202.2-97.8z m-129.6-320.2c-44.3-0.1-80.4 35.6-80.6 80 0 44.1 35.7 79.9 79.8 80 44.1 0.1 80-35.5 80.2-79.6 0.2-44.1-35.3-80-79.4-80.4z m0 640c44.4 0.1 80.4-35.6 80.7-80 0-44.1-35.7-79.9-79.8-80-44.1-0.1-80 35.5-80.2 79.6-0.3 44.1 35.3 80 79.3 80.4z"></path></svg>