<?xml version="1.0"?><svg xmlns="http://www.w3.org/2000/svg" width="960" height="960" viewBox="0 0 960 960"><path d="m840 400c-22.1 0-40-17.9-40-40v-143.4l-211.7 211.7c-10 10.4-24.9 14.5-38.9 10.9-14-3.7-24.9-14.6-28.6-28.6-3.6-14 0.5-28.8 10.9-38.9l211.7-211.7h-143.4c-22.1 0-40-17.9-40-40s17.9-40 40-40h280v280c0 22.1-17.9 40-40 40z m-760 480v-240c0-22.1 17.9-40 40-40s40 17.9 40 40v103.4l211.7-211.7c15.7-15.2 40.7-14.9 56.1 0.5 15.4 15.4 15.6 40.4 0.5 56.1l-211.7 211.7h103.4c22.1 0 40 17.9 40 40s-17.9 40-40 40h-240z"></path></svg>