<?xml version="1.0"?><svg xmlns="http://www.w3.org/2000/svg" width="960" height="960" viewBox="0 0 960 960"><path d="m80 480c0 220.9 179.1 400 400 400s400-179.1 400-400-179.1-400-400-400-400 179.1-400 400z m400-320c176.7 0 320 143.3 320 320s-143.3 320-320 320-320-143.3-320-320c0.2-176.6 143.4-319.8 320-320z m-100 320c33.1 0 60-26.9 60-60s-26.9-60-60-60-60 26.9-60 60 26.9 60 60 60z m200 0c33.1 0 60-26.9 60-60s-26.9-60-60-60-60 26.9-60 60 26.9 60 60 60z m-245.6 94.7c-6.8 6.8-10.5 16-10.4 25.5 0 9.6 3.9 18.7 10.7 25.4 39.4 36.6 91.5 56.4 145.3 55.3 53.8 1.1 105.9-18.7 145.3-55.3 9.2-9 12.8-22.3 9.5-34.7-3.2-12.5-12.8-22.3-25.2-25.6-12.4-3.5-25.7 0-34.8 9.1-55 45.4-134.5 45.4-189.4 0-6.8-6.8-16-10.6-25.6-10.4-9.6 0-18.7 3.8-25.4 10.6z"></path></svg>