<?xml version="1.0"?><svg xmlns="http://www.w3.org/2000/svg" width="960" height="960" viewBox="0 0 960 960"><path d="m480 880c-106.1 0-207.8-42.2-282.8-117.2-75.1-74.9-117.2-176.7-117.2-282.8 0-220.9 179.1-400 400-400s400 179.1 400 400-179.1 400-400 400z m-0.6-248c-26.5-1.3-52.6 7.1-73.4 23.6-8.8 9.2-22 13.1-34.5 10-12.5-3-22.4-12.6-26-24.9-3.6-12.3-0.3-25.7 8.6-35 34.9-29.9 79.5-46.1 125.5-45.7 46.4-1.7 91.8 14.7 126.5 45.7 13.7 14.4 13.3 37.2-1.1 50.9-14.4 13.8-37.2 13.3-50.9-1-21.4-16.4-47.8-24.8-74.7-23.6z m100.6-152c-33.1 0-60-26.9-60-60s26.9-60 60-60 60 26.9 60 60-26.9 60-60 60z m-200 0c-33.1 0-60-26.9-60-60s26.9-60 60-60 60 26.9 60 60-26.9 60-60 60z m100-320c-176.6 0.2-319.8 143.4-320 320 0 176.7 143.3 320 320 320s320-143.3 320-320-143.3-320-320-320z"></path></svg>