<?xml version="1.0"?><svg xmlns="http://www.w3.org/2000/svg" width="960" height="960" viewBox="0 0 960 960"><path d="m480 80c-220.9 0-400 179.1-400 400s179.1 400 400 400 400-179.1 400-400c0-106.1-42.2-207.8-117.2-282.8-74.9-75.1-176.7-117.2-282.8-117.2z m0 720c-176.7 0-320-143.3-320-320s143.3-320 320-320 320 143.3 320 320c-0.2 176.6-143.4 319.8-320 320z m0-80c110.4 0 200-89.6 200-200h-400c0 110.4 89.6 200 200 200z m-100-240c33.1 0 60-26.9 60-60s-26.9-60-60-60-60 26.9-60 60 26.9 60 60 60z m200 0c33.1 0 60-26.9 60-60s-26.9-60-60-60-60 26.9-60 60 26.9 60 60 60z"></path></svg>