<?xml version="1.0"?><svg xmlns="http://www.w3.org/2000/svg" width="960" height="960" viewBox="0 0 960 960"><path d="m480 880c220.9 0 400-179.1 400-400s-179.1-400-400-400-400 179.1-400 400c0 106.1 42.2 207.8 117.2 282.8 74.9 75.1 176.7 117.2 282.8 117.2z m0-720c176.7 0 320 143.3 320 320s-143.3 320-320 320-320-143.3-320-320c0.2-176.6 143.4-319.8 320-320z m-156 440c0 19.9 16.1 36 36 36h120c19.9 0 36-16.1 36-36s-16.1-36-36-36h-120c-19.9 0-36 16.1-36 36z m56-120c33.1 0 60-26.9 60-60s-26.9-60-60-60-60 26.9-60 60 26.9 60 60 60z m200 0c33.1 0 60-26.9 60-60s-26.9-60-60-60-60 26.9-60 60 26.9 60 60 60z"></path></svg>