<?xml version="1.0"?><svg xmlns="http://www.w3.org/2000/svg" width="1240" height="960" viewBox="0 0 1240 960"><path fill="#E95219" d="m444 107.3l85.7 173.6c7.1 14.5 20.9 24.5 36.8 26.8l191.7 28c18.4 2.7 33.7 15.6 39.5 33.3 5.7 17.7 0.9 37.2-12.4 50.1l-138.7 135.2c-11.5 11.2-16.8 27.4-14 43.3l32.7 190.9c3.2 18.4-4.4 36.9-19.5 47.9-15.2 10.9-35.2 12.3-51.6 3.6l-171.4-90.1c-14.3-7.5-31.4-7.5-45.6 0l-171.3 90.1c-16.5 8.7-36.4 7.2-51.5-3.7-15.1-10.9-22.7-29.5-19.5-47.9l32.8-190.8c2.7-15.9-2.6-32.1-14.1-43.3l-138.8-135.3c-13.2-13-18-32.5-12.3-50.2 5.8-17.6 21.1-30.6 39.5-33.2l191.6-28c15.9-2.4 29.7-12.4 36.8-26.8l85.6-173.5c8.2-16.8 25.3-27.5 44-27.5 18.7 0 35.8 10.6 44 27.5z m241.4-0.3l56.6 122c11.7 25 0.8 54.8-24.2 66.4-25.1 11.6-54.8 0.8-66.4-24.3l-56.7-122c-11.6-25.1-0.8-54.8 24.3-66.4 25-11.6 54.8-0.8 66.4 24.3z m320.2 347.8l-138.7 135.3 33.1 189.9c4.5 27.2-13.8 52.9-41 57.6-2.8 0.4-5.7 0.7-8.5 0.7-24.3 0-45.1-17.6-49.2-41.6l-32.7-190.8c-5.6-32.1 5.2-64.8 28.4-87.5l138.7-135.2c19.9-18.6 50.9-17.8 69.9 1.7 18.9 19.4 18.9 50.4 0 69.9z m-108.9-164.8c-15.6 0-29.8-9-36.3-23.2l-56.7-122c-6.2-13-4.9-28.3 3.3-40.1 8.2-11.8 22.2-18.2 36.5-16.9 14.3 1.3 26.8 10.2 32.8 23.4l56.6 122c9.3 20 0.6 43.7-19.4 53-5.2 2.4-11 3.8-16.8 3.8z m239 93.2l0.1 0.1c19.9-18.5 50.9-17.7 69.8 1.7 19 19.5 19 50.4 0 69.9l-138.7 135.2 33.1 189.9c4.5 27.2-13.8 52.9-41 57.6-2.8 0.4-5.7 0.7-8.5 0.7-24.3 0-45.1-17.6-49.2-41.6l-32.7-190.8c-5.6-32.1 5.2-64.8 28.4-87.5l138.7-135.2z"></path></svg>