<?xml version="1.0"?><svg xmlns="http://www.w3.org/2000/svg" width="1040" height="960" viewBox="0 0 1040 960"><path fill="#E95219" d="m444 107.3l85.7 173.6c7.1 14.5 20.9 24.5 36.8 26.8l191.7 28c18.4 2.7 33.7 15.6 39.5 33.3 5.7 17.7 0.9 37.2-12.4 50.1l-138.7 135.2c-11.5 11.2-16.8 27.4-14 43.3l32.7 190.9c3.2 18.4-4.4 36.9-19.5 47.9-15.2 10.9-35.2 12.3-51.6 3.6l-171.4-90.1c-14.3-7.5-31.4-7.5-45.6 0l-171.3 90.1c-16.5 8.7-36.4 7.2-51.5-3.7-15.1-10.9-22.7-29.5-19.5-47.9l32.8-190.8c2.7-15.9-2.6-32.1-14.1-43.3l-138.8-135.3c-13.2-13-18-32.5-12.3-50.2 5.8-17.6 21.1-30.6 39.5-33.2l191.6-28c15.9-2.4 29.7-12.4 36.8-26.8l85.6-173.5c8.2-16.8 25.3-27.5 44-27.5 18.7 0 35.8 10.6 44 27.5z m241.4-0.3l56.6 122c11.7 25 0.8 54.8-24.2 66.4-25.1 11.6-54.8 0.8-66.4-24.3l-56.7-122c-11.6-25.1-0.8-54.8 24.3-66.4 25-11.6 54.8-0.8 66.4 24.3z m250.4 276.2v0c20-18.4 50.9-17.6 69.9 1.8s18.9 50.4 0 69.9l-138.7 135.2 33 189.9c4.5 27.2-13.8 52.9-41 57.6-2.8 0.4-5.6 0.6-8.5 0.6-24.3 0-45.1-17.6-49.2-41.6l-32.7-190.8c-5.5-32 5.2-64.8 28.5-87.5l138.6-135.2z"></path></svg>