<?xml version="1.0"?><svg xmlns="http://www.w3.org/2000/svg" width="960" height="960" viewBox="0 0 960 960"><path fill="#FFDA00" d="m407.6 72c-202.4 0-370 147.2-402 340.4 110.8-46.4 226.8-80 335.6-97.6 73.6-12 140.4 11.6 184.4 58 19.2 20 34 44 43.2 71.2 3.2 9.2 5.6 18.8 7.6 28.4 16 85.6-16.8 159.2-99.2 210.4-95.2 59.2-153.6 120.8-194.8 184.4 39.6 12.8 81.6 19.6 125.2 19.6 224.8 0 407.2-182.4 407.2-407.2 0-225.2-182.4-407.6-407.2-407.6z"></path><path fill="#F9AF2C" d="m925 228.2l-1.7 0.4-25.4 6.4c-16.2 4-39.2 10-66.8 18-13.8 3.8-28.7 8.4-44.4 13.3-15.7 4.8-32.2 10.4-49.2 16.2-17 6-34.6 12.1-52.2 19-17.8 6.6-35.5 14.1-53.3 21.5-17.7 7.6-35.4 15.3-52.5 23.4-17.3 8-33.9 16.5-50.1 24.6-1.2 0.6-2.4 1.2-3.6 1.8 19 20 33.8 44 43.1 71.4l1.6-0.9c14.8-8.5 30-17.5 45.9-26 15.7-8.7 32-17 48.3-25.2 16.4-8 32.8-16.2 49.4-23.5 16.4-7.6 32.8-14.4 48.6-21.2 16-6.4 31.4-12.8 46.3-18.4 14.8-5.6 28.8-10.8 42-15.4 26-9.3 48-16.5 63.6-21.4l24.2-7.7 0.6-0.2c14.8-4.7 23.6-19.8 19.8-34.7-3.8-15-18.8-24.2-34.1-21.4m-0.1 0l-1.7 0.4-25.4 6.4c-16.2 4-39.2 10-66.8 18-13.8 3.8-28.7 8.4-44.4 13.3-15.7 4.8-32.2 10.4-49.2 16.2-17 6-34.6 12.1-52.2 19-17.8 6.6-35.5 14.1-53.3 21.5-17.7 7.6-35.4 15.3-52.5 23.4-17.3 8-33.9 16.5-50.1 24.6l-19.7 10c19 20 33.8 44 43.1 71.4 0.6-0.4 17.2-8.9 17.8-9.2 14.8-8.5 30-17.6 45.9-26 15.7-8.7 32-17 48.4-25.2 16.4-8 32.8-16.2 49.3-23.5 16.4-7.6 32.8-14.5 48.6-21.2 16-6.5 31.4-12.8 46.2-18.4 14.8-5.6 28.8-10.8 42-15.4 26-9.3 48.1-16.5 63.6-21.4l24.3-7.7 0.6-0.1c14.8-4.7 23.6-19.9 19.8-34.7-3.9-15-18.8-24.2-34.2-21.3"></path><path fill="#148FE2" d="m477.2 682.8c82.4-51.2 115.2-124.8 99.2-210.4-2-9.6-4.4-19.2-7.6-28.4-9.2-27.2-24-51.2-43.2-71.2-44-46.4-110.8-70-184.4-58-108.8 17.6-224.8 51.2-335.6 97.6-3.6 22-5.6 44.4-5.6 67.2 0 181.2 118.4 334.8 282.4 387.6 41.2-63.6 99.6-125.2 194.8-184.4z"></path><path fill="#FFF" d="m496 486.1c11.2 59.7-28.2 117.2-87.9 128.4-59.7 11.2-117.2-28.1-128.4-87.9-11.2-59.7 28.1-117.2 87.8-128.4 59.7-11.2 117.2 28.1 128.4 87.9"></path><path fill="#333" d="m467.5 483.8c-1.4-7.5-4.3-14.4-8.3-20.5 2.1 12.2-3.7 24.7-15.2 30.5-14.3 7.2-31.6 1.5-38.8-12.8-7.2-14.2-1.4-31.5 12.8-38.6 2.8-1.5 5.8-2.3 8.8-2.7-8-2.2-16.6-2.7-25.3-1.1-30.7 5.8-51 35.3-45.2 66 5.7 30.8 35.3 51 66 45.2 30.8-5.8 51-35.3 45.2-66"></path><path fill="#148FE2" d="m470.8 138.4c-3.5 0.4-6.4 2.5-6.8 5.8-0.4 3.6 1.9 7 5.8 7.2 68.6 5 119.9 80.9 71.6 141.5-0.2-0.9-0.5-1.8-0.8-2.7-2.3-7.5-5.3-14.8-9-22-4.3-8.2-9.6-16-15.8-23.2-5.7-6.8-13.2-13.7-22.8-20.9-17.2-12.3-37.9-21.1-60.1-25.4-9.3-2-19.6-3.1-32.4-3.5-11.8-0.3-22.9 0.9-31.4 2-11 1.7-20.3 3.8-28.5 6.4-7.9 2.3-15.9 5.4-24.4 9.3-6.7 3.2-13.2 6.7-19.4 10.6-5.8 3.8-10.4 7.1-13.9 10-2.8 2-4.8 3.9-6.3 5.3l-2 1.7-2.7 2.4c-3 2.8-3.3 7.3-0.8 10.4 1.2 1.6 3.1 2.6 5.1 2.8 2 0.2 4-0.4 5.6-1.6l2.8-2.3 2-1.6c1.6-1.4 3.6-3 6-4.6 3.2-2.2 7.4-4.9 12.8-8 5.8-3.2 11.8-6.1 17.9-8.7 7.9-3.1 15.2-5.5 22.4-7.2 7.4-1.9 15.8-3.3 25.8-4.4 7.7-0.5 17.8-1 27.9-0.2 11.4 1 20.3 2.4 28.2 4.6 18.2 4.6 35.6 13 49 23.7 7.6 6.4 13 11.9 17 17.4 4.5 5.8 8.2 12 11.2 18.4 2.6 5.6 4.6 11.4 6 17.2 1.4 5.1 2 9.8 2.6 13.9 0.4 2.4 0.4 4.7 0.5 6.5 0 1 0 2 0.1 2.7l0.3 4.4v0.8l0.1 0.4c0.1 0.7 0.3 1.5 0.6 2.5 0 0.1 0 0.4 0.1 0.4 0.3 0.8 0.7 1.6 1.2 2.8 0.8 1.4 1.6 2.6 2.6 3.5 5.1 5.2 12.8 6.3 19.1 3.2 1.4-0.8 3-1.9 4-2.9 97.6-94.3 9.1-203.2-71.3-198.5"></path></svg>