<?xml version="1.0"?><svg xmlns="http://www.w3.org/2000/svg" width="1040" height="960" viewBox="0 0 1040 960"><path fill="#E95219" d="m320 580.4l55.6 112.7 124.4 18.1-90 87.7 21.2 123.9-111.2-58.5-111.2 58.5 21.2-123.9-90-87.7 124.4-18.1 55.6-112.7z m400 0l55.6 112.7 124.4 18.1-90 87.7 21.2 123.9-111.2-58.5-111.2 58.5 21.2-123.9-90-87.7 124.4-18.1 55.6-112.7z m-520-360.8l55.6 112.7 124.4 18.1-90 87.6 21.2 123.9-111.2-58.5-111.2 58.6 21.2-123.9-90-87.7 124.4-18.1 55.6-112.7z m640 0l55.6 112.7 124.4 18.1-90 87.6 21.2 123.9-111.2-58.5-111.2 58.5 21.2-123.9-90-87.6 124.4-18.1 55.6-112.7z m-320-219.6l55.6 112.7 124.4 18-90 87.8 21.2 123.9-111.2-58.5-111.2 58.5 21.2-123.9-90-87.7 124.4-18.1 55.6-112.7z"></path></svg>