<?xml version="1.0" encoding="UTF-8"?>
<svg width="24px" height="24px" viewBox="0 0 24 24" version="1.1" xmlns="http://www.w3.org/2000/svg" xmlns:xlink="http://www.w3.org/1999/xlink">
    <!-- Generator: Sketch 45.1 (43504) - http://www.bohemiancoding.com/sketch -->
    <title>flag-3</title>
    <desc>Created with Sketch.</desc>
    <defs></defs>
    <g id="Page-1" stroke="none" stroke-width="1" fill="none" fill-rule="evenodd">
        <g id="flag-3" fill="#000000">
            <g id="Flag-3---filled" transform="translate(2.000000, 0.000000)">
                <path d="M14.358,8 L19.908,2 L2,2 L2,0.017 L0,0.017 L0,24 L2,24 L2,14 L19.908,14 L14.358,8 L14.358,8 Z M13.352,9.858 L11.21,12 L8.707,12 L12.149,8.558 L13.352,9.858 L13.352,9.858 Z M7.293,12 L4.707,12 L12.707,4 L15.293,4 L7.293,12 L7.293,12 Z M2.062,6.644 L4.707,4 L7.293,4 L2.062,9.231 L2.062,6.644 L2.062,6.644 Z M3.293,4 L2.062,5.231 L2.062,4 L3.293,4 L3.293,4 Z M2.062,10.644 L8.707,4 L11.293,4 L3.293,12 L2.062,12 L2.062,10.644 L2.062,10.644 Z M12.624,12 L14.031,10.593 L15.333,12 L12.624,12 L12.624,12 Z" id="Fill-2"></path>
            </g>
        </g>
    </g>
</svg>