<?xml version="1.0"?><svg xmlns="http://www.w3.org/2000/svg" width="960" height="960" viewBox="0 0 960 960"><path d="m920 840c0 22.1-17.9 40-40 40h-800v-760c0-22.1 17.9-40 40-40s40 17.9 40 40v680h720c22.1 0 40 17.9 40 40z m-40-640c0 42.2-32.9 77-75 79.5l-98.3 196.5c18.9 28 18.1 64.9-1.9 92.1-20 27.2-55 38.9-87.4 29.2-32.4-9.6-55.2-38.6-56.9-72.3l-116.5-58.3c-13 8.7-28.4 13.3-44 13.3h-1.3l-90.3 150.4c-12 17.4-35.5 22.5-53.6 11.6-18.1-11-24.6-34-14.8-52.8l90.2-150.7c-16.5-28.8-13.6-64.8 7.4-90.5 20.9-25.8 55.6-35.8 87.1-25.4 31.5 10.4 53.3 39.3 54.8 72.4l116.5 58.2c11.6-7.6 25.1-12 39-12.7l98.3-196.5c-18.9-28.6-17.5-66 3.4-93.1 20.9-27.1 56.8-37.8 89.2-26.8 32.4 11.2 54.2 41.6 54.1 75.9z"></path></svg>