<?xml version="1.0" encoding="UTF-8"?>
<svg width="24px" height="24px" viewBox="0 0 24 24" version="1.1" xmlns="http://www.w3.org/2000/svg" xmlns:xlink="http://www.w3.org/1999/xlink">
    <!-- Generator: Sketch 45.1 (43504) - http://www.bohemiancoding.com/sketch -->
    <title>heart-remove</title>
    <desc>Created with Sketch.</desc>
    <defs></defs>
    <g id="Page-1" stroke="none" stroke-width="1" fill="none" fill-rule="evenodd">
        <g id="heart-remove" fill="#000000">
            <g id="Heart-Less" transform="translate(0.000000, 1.000000)">
                <polygon id="Fill-1" points="15 12 23 12 23 14 15 14"></polygon>
                <path d="M17.008,0.992 C14.923,0.992 13.082,2.062 12.007,3.681 C10.928,2.062 9.083,0.992 6.992,0.992 C3.684,0.992 0.992,3.684 0.994,7.052 L1.024,7.567 C0.987,8.443 1.044,15.315 11.54,20.876 L12.029,21.136 L12.509,20.857 C12.765,20.709 16.592,18.457 19.56,15 L16.822,15 C14.906,16.879 12.871,18.265 11.975,18.837 C2.741,13.735 3.008,7.889 3.023,7.646 L3.028,7.576 L2.992,6.992 C2.992,4.786 4.786,2.992 6.992,2.992 C9.206,2.992 11.008,4.786 11.008,6.992 L13.008,6.992 C13.008,4.786 14.802,2.992 17.008,2.992 C19.222,2.992 21.022,4.786 21.022,6.992 L21.024,7.503 C20.949,8.716 20.536,9.889 19.939,11 L22.136,11 C22.615,9.909 22.948,8.763 23.023,7.565 L23.023,6.992 C23.023,3.684 20.324,0.992 17.008,0.992" id="Fill-2"></path>
            </g>
        </g>
    </g>
</svg>