<?xml version="1.0" encoding="UTF-8"?>
<svg width="24px" height="24px" viewBox="0 0 24 24" version="1.1" xmlns="http://www.w3.org/2000/svg" xmlns:xlink="http://www.w3.org/1999/xlink">
    <!-- Generator: Sketch 45.1 (43504) - http://www.bohemiancoding.com/sketch -->
    <title>heart-lock</title>
    <desc>Created with Sketch.</desc>
    <defs></defs>
    <g id="Page-1" stroke="none" stroke-width="1" fill="none" fill-rule="evenodd">
        <g id="heart-lock" fill="#000000">
            <g id="Heart-Lock" transform="translate(0.000000, 1.000000)">
                <path d="M20,10.667 L20,9.5 C20,9.5 19.969,8 18,8 C16,8 16,9.5 16,9.5 L16,10.992 L15,10.992 L15,16 L21,16 L21,10.992 L20,10.992 L20,10.667 L20,10.667 Z M17,9.5 C17,9.48 17.011,9 18,9 C18.808,9 18.975,9.33 19,9.537 L19,10.992 L17,10.992 L17,9.5 L17,9.5 Z" id="Fill-2"></path>
                <path d="M17.008,0.992 C14.923,0.992 13.082,2.062 12.007,3.681 C10.928,2.062 9.083,0.992 6.992,0.992 C3.684,0.992 0.992,3.684 0.994,7.052 L1.024,7.567 C0.987,8.443 1.044,15.314 11.54,20.876 L12.029,21.136 L12.509,20.857 C12.711,20.74 15.148,19.304 17.627,17 L14.544,17 C13.461,17.855 12.511,18.495 11.975,18.837 C2.741,13.735 3.008,7.889 3.023,7.646 L3.028,7.576 L2.992,6.992 C2.992,4.786 4.786,2.992 6.992,2.992 C9.206,2.992 11.008,4.786 11.008,6.992 L13.008,6.992 C13.008,4.786 14.802,2.992 17.008,2.992 C19.222,2.992 21.022,4.786 21.022,6.992 L21.024,7.503 L21.022,7.517 L21.022,10 L22.527,10 C22.788,9.213 22.971,8.402 23.023,7.565 L23.023,6.992 C23.023,3.684 20.324,0.992 17.008,0.992" id="Fill-3"></path>
            </g>
        </g>
    </g>
</svg>