<?xml version="1.0" encoding="UTF-8"?>
<svg width="24px" height="24px" viewBox="0 0 24 24" version="1.1" xmlns="http://www.w3.org/2000/svg" xmlns:xlink="http://www.w3.org/1999/xlink">
    <!-- Generator: Sketch 45.1 (43504) - http://www.bohemiancoding.com/sketch -->
    <title>heart</title>
    <desc>Created with Sketch.</desc>
    <defs></defs>
    <g id="Page-1" stroke="none" stroke-width="1" fill="none" fill-rule="evenodd">
        <g id="heart" fill="#000000">
            <g id="Heart-1" transform="translate(0.000000, 1.000000)">
                <path d="M12.029,21.136 L11.539,20.876 C1.04,15.312 0.986,8.437 1.024,7.566 L0.994,7.05 C0.993,3.684 3.684,0.992 6.993,0.992 C9.083,0.992 10.928,2.062 12.006,3.681 C13.082,2.062 14.922,0.992 17.007,0.992 C20.324,0.992 23.023,3.684 23.023,6.992 L23.023,7.565 C22.565,14.948 12.919,20.619 12.509,20.857 L12.029,21.136 L12.029,21.136 Z M6.993,2.992 C4.787,2.992 2.993,4.786 2.993,6.992 L3.028,7.577 L3.022,7.646 C3.007,7.889 2.741,13.735 11.974,18.837 C13.846,17.644 20.687,12.923 21.024,7.503 L21.022,6.992 C21.022,4.786 19.221,2.992 17.007,2.992 C14.802,2.992 13.007,4.786 13.007,6.992 L11.007,6.992 C11.007,4.786 9.207,2.992 6.993,2.992 L6.993,2.992 Z" id="Fill-2"></path>
            </g>
        </g>
    </g>
</svg>