<?xml version="1.0"?><svg xmlns="http://www.w3.org/2000/svg" width="960" height="960" viewBox="0 0 960 960"><path d="m800 516c-32.5-2.2-64.3 9.7-87.3 32.7-23 23-34.9 54.8-32.7 87.3v244h240v-244c2.2-32.5-9.7-64.3-32.7-87.3-23-23-54.8-34.9-87.3-32.7z m0 72c32.7 0 48 11.4 48 48v44h-96v-44c0-36 15.3-48 48-48z m-759.3-301.9c-3.6-64.9 19.1-128.4 62.8-176.5 44.6-44.8 105.3-69.8 168.5-69.6 85.8 3.3 164.1 49.6 208.3 123.2 44.1-73.4 122.1-119.7 207.7-123.2 63.2-0.2 123.9 24.8 168.5 69.6 43.8 48 66.4 111.5 62.9 176.4 0 27.5-2.8 55-8.4 82-4.8 21.1-25.6 34.6-46.9 30.2-21.3-4.3-35.2-24.9-31.4-46.2 4.5-21.8 6.7-43.8 6.7-65.9 3.4-43.9-11-87.3-40-120.5-29.6-29.4-69.6-45.9-111.4-45.6-82.4 0-139.2 75.5-172.6 138.8-6.9 13.2-20.5 21.5-35.4 21.5s-28.5-8.4-35.4-21.6c-32.8-63.2-89.5-138.7-172.6-138.7-41.7-0.2-81.7 16.2-111.3 45.6-28.9 33.1-43.4 76.5-40 120.4 0 262.4 310 414.9 359.2 430.9 4.5-1.5 12.4-4.4 23.8-9.5 20.1-9 43.8 0 52.8 20.2 9 20.2 0 43.8-20.2 52.8-17.3 9.8-36.5 15.8-56.3 17.4-59 0-439.3-193.8-439.3-511.7z"></path></svg>