<?xml version="1.0"?><svg xmlns="http://www.w3.org/2000/svg" width="960" height="960" viewBox="0 0 960 960"><path d="m748.3 371.8l-160-160-120-120c-15.6-15.6-40.9-15.6-56.5 0l-40 40-160 160-200 200c-15.6 15.6-15.6 40.9 0 56.5l200 200 40 40c15.6 15.6 40.9 15.6 56.5 0l91.7-91.7 131.7 131.6 80 80c15.6 15.6 40.9 15.6 56.5 0l80-80 200-200c15.6-15.6 15.6-40.9 0-56.5l-199.9-199.9z m-548.3 251.6l-103.4-103.4 103.4-103.4v206.8z m160 0l-80 80v-366.8l80-80v366.8z m160 80l-80-80v-446.8l80 80v446.8z m160 80l-40 40-40-40v-446.8l80 80v366.8z m80-80v-206.8l103.4 103.4-103.4 103.4z"></path></svg>