<?xml version="1.0"?><svg xmlns="http://www.w3.org/2000/svg" width="960" height="960" viewBox="0 0 960 960"><path d="m160.8 880h638.4c44.6 0 80.8-36.2 80.8-80.8v-309.8c0-32.1-12.8-63-35.5-85.7l-280-280c-46.7-46.7-122.5-46.7-169.2 0l-280.2 280.3c-22.5 22.5-35.2 53.1-35.2 84.9v310.3c0.1 44.6 36.3 80.8 80.9 80.8z m399.2-80h-160v-240c0-44.2 35.8-80 80-80s80 35.8 80 80v240z m-400-311.1c0-10.6 4.2-20.8 11.7-28.3l280.3-280.2c15.5-15.4 40.5-15.4 56 0l280 280c7.7 7.7 12 18.2 12 29.2l-0.8 310.4h-159.2v-240c0-88.4-71.6-160-160-160s-160 71.6-160 160v240l-160-0.8v-310.3z"></path></svg>