<?xml version="1.0" encoding="UTF-8"?>
<svg width="24px" height="24px" viewBox="0 0 24 24" version="1.1" xmlns="http://www.w3.org/2000/svg" xmlns:xlink="http://www.w3.org/1999/xlink">
    <!-- Generator: Sketch 45.1 (43504) - http://www.bohemiancoding.com/sketch -->
    <title>house-land-area-2</title>
    <desc>Created with Sketch.</desc>
    <defs></defs>
    <g id="Page-1" stroke="none" stroke-width="1" fill="none" fill-rule="evenodd">
        <g id="house-land-area-2" fill="#000000">
            <g id="Imported-Layers" transform="translate(1.000000, 0.000000)">
                <path d="M5.891,0.716 L0.716,14.796 L10.103,18.245 L9.413,20.123 L16.922,22.882 L22.786,6.925 L5.891,0.716 L5.891,0.716 Z M5.345,8 L6.08,6 L14.47,6 L19.912,8 L5.345,8 L5.345,8 Z M19.893,9 L19.158,11 L4.242,11 L4.977,9 L19.893,9 L19.893,9 Z M11.748,5 L6.447,5 L7.078,3.284 L11.748,5 L11.748,5 Z M15.734,20.315 L11.98,18.935 L12.67,17.058 L7.071,15 L12,15 L12,14 L4.349,14 L3.284,13.608 L3.875,12 L18.79,12 L15.734,20.315 L15.734,20.315 Z" id="Fill-1"></path>
                <polygon id="Fill-2" points="13 14 15 14 15 15 13 15"></polygon>
            </g>
        </g>
    </g>
</svg>