<?xml version="1.0"?><svg xmlns="http://www.w3.org/2000/svg" width="960" height="960" viewBox="0 0 960 960"><path d="m160 880h640c44.2 0 80-35.8 80-80v-680c0-22.1-17.9-40-40-40h-680c-44.2 0-80 35.8-80 80v640c0 44.2 35.8 80 80 80z m640-360h-103.5l103.5-103.4v103.4z m-160-360h103.4l-103.4 103.4v-103.4z m0 216.6l160-160v86.8l-160 160v-86.8z m-480-216.6h400v360c0 44.2 35.8 80 80 80h160v200h-400v-202.5h40c22.1 0 40-17.9 40-40s-17.9-40-40-40h-160c-22.1 0-40 17.9-40 40s17.9 40 40 40h40v202.5h-160v-640z"></path></svg>