<?xml version="1.0"?><svg xmlns="http://www.w3.org/2000/svg" width="960" height="960" viewBox="0 0 960 960"><path d="m160 80c-44.2 0-80 35.8-80 80v640c0 44.2 35.8 80 80 80h640c44.2 0 80-35.8 80-80v-640c0-44.2-35.8-80-80-80h-640z m0 80h100c55.2 0 100 44.8 100 100s-44.8 100-100 100-100-44.8-100-100v-100z m0 536.6l108.3-108.3c15.2-15.7 14.9-40.7-0.5-56.1-15.4-15.4-40.4-15.6-56.1-0.5l-51.7 51.7v-173.9c71.4 47.4 166.3 37.9 226.8-22.7 60.6-60.5 70.1-155.4 22.7-226.8h333.9l-583.4 583.4v-46.8z m56.6 103.4l583.4-583.4v326.9l-140-140-248.3 248.3c-10.4 10-14.5 24.9-10.9 38.9 3.7 14 14.6 24.9 28.6 28.5 14 3.7 28.8-0.4 38.9-10.8l191.7-191.8 140 140v143.4h-583.4z"></path></svg>