<?xml version="1.0" encoding="UTF-8"?>
<svg width="24px" height="24px" viewBox="0 0 24 24" version="1.1" xmlns="http://www.w3.org/2000/svg" xmlns:xlink="http://www.w3.org/1999/xlink">
    <!-- Generator: Sketch 45.1 (43504) - http://www.bohemiancoding.com/sketch -->
    <title>image-2</title>
    <desc>Created with Sketch.</desc>
    <defs></defs>
    <g id="Page-1" stroke="none" stroke-width="1" fill="none" fill-rule="evenodd">
        <g id="image-2" fill="#000000">
            <g id="Image-1---filled" transform="translate(1.000000, 1.000000)">
                <path d="M15.441,8 C16.269,8 16.941,7.328 16.941,6.5 C16.941,5.672 16.269,5 15.441,5 C14.612,5 13.941,5.672 13.941,6.5 C13.941,7.328 14.612,8 15.441,8" id="Fill-1"></path>
                <path d="M0,22 L22,22 L22,0 L0,0 L0,22 Z M20,20 L2,20 L1.999,2 L20,2 L20,20 L20,20 Z" id="Fill-2"></path>
                <path d="M2.93,15.941 L18.94,15.941 L18.94,3 L2.93,3 L2.93,15.941 Z M17.941,4 L17.941,13.941 L15,11 L13,13 L7.941,8 L3.941,12 L3.93,12.033 L3.93,4 L17.941,4 L17.941,4 Z" id="Fill-3"></path>
            </g>
        </g>
    </g>
</svg>