<?xml version="1.0" encoding="UTF-8"?>
<svg width="24px" height="24px" viewBox="0 0 24 24" version="1.1" xmlns="http://www.w3.org/2000/svg" xmlns:xlink="http://www.w3.org/1999/xlink">
    <!-- Generator: Sketch 45.1 (43504) - http://www.bohemiancoding.com/sketch -->
    <title>image-3-none</title>
    <desc>Created with Sketch.</desc>
    <defs></defs>
    <g id="Page-1" stroke="none" stroke-width="1" fill="none" fill-rule="evenodd">
        <g id="image-3-none" fill="#000000">
            <g id="No-Image-2" transform="translate(1.000000, 1.000000)">
                <path d="M0.06,22 L22.06,22 L22.06,0 L0.06,0 L0.06,22 Z M2.059,2 L18.586,2 L9.53,11.056 L7.059,8.586 L2.059,13.586 L2.059,2 L2.059,2 Z M18.059,7 C18.059,7.551 17.611,8 17.059,8 C16.612,8 16.247,7.7 16.119,7.295 L17.354,6.06 C17.759,6.188 18.059,6.553 18.059,7 L18.059,7 Z M2.059,15 L7.059,10 L8.823,11.763 L4.586,16 L2.059,16 L2.059,15 L2.059,15 Z M2.059,17 L3.586,17 L2.06,18.526 L2.059,17 L2.059,17 Z M20.059,20 L3.414,20 L6.414,17 L10.059,17 L10.059,16 L7.414,16 L10.237,13.177 L12.059,15 L15.059,12 L19.059,16 L16.059,16 L16.059,17 L20.059,17 L20.059,20 L20.059,20 Z M20.06,15.586 L15.059,10.586 L12.059,13.586 L10.944,12.47 L15.364,8.05 C15.717,8.618 16.341,9 17.059,9 C18.164,9 19.059,8.105 19.059,7 C19.059,6.282 18.678,5.657 18.109,5.305 L20.06,3.355 L20.06,15.586 L20.06,15.586 Z" id="Fill-2"></path>
                <polygon id="Fill-3" points="12.059 16 14.115 16 14.115 17 12.059 17"></polygon>
            </g>
        </g>
    </g>
</svg>