<?xml version="1.0" encoding="UTF-8"?>
<svg width="24px" height="24px" viewBox="0 0 24 24" version="1.1" xmlns="http://www.w3.org/2000/svg" xmlns:xlink="http://www.w3.org/1999/xlink">
    <!-- Generator: Sketch 45.1 (43504) - http://www.bohemiancoding.com/sketch -->
    <title>image-3</title>
    <desc>Created with Sketch.</desc>
    <defs></defs>
    <g id="Page-1" stroke="none" stroke-width="1" fill="none" fill-rule="evenodd">
        <g id="image-3" fill="#000000">
            <g id="Image-2" transform="translate(1.000000, 1.000000)">
                <path d="M0.06,22 L22.06,22 L22.06,0 L0.06,0 L0.06,22 Z M2.059,17 L10.059,17 L10.059,16 L2.059,16 L2.059,15 L7.059,10 L12.059,15 L15.059,12 L19.059,16 L16.059,16 L16.059,17 L20.059,17 L20.059,20 L2.06,20 L2.059,17 L2.059,17 Z M20.06,2 L20.06,15.586 L15.059,10.586 L12.059,13.586 L7.059,8.586 L2.059,13.586 L2.059,2 L20.06,2 L20.06,2 Z" id="Fill-1"></path>
                <path d="M17.059,9 C18.164,9 19.059,8.105 19.059,7 C19.059,5.895 18.164,5 17.059,5 C15.955,5 15.059,5.895 15.059,7 C15.059,8.105 15.955,9 17.059,9 L17.059,9 Z M17.059,6 C17.611,6 18.059,6.449 18.059,7 C18.059,7.551 17.611,8 17.059,8 C16.508,8 16.059,7.551 16.059,7 C16.059,6.449 16.508,6 17.059,6 L17.059,6 Z" id="Fill-2"></path>
                <polygon id="Fill-3" points="12.059 16 14.115 16 14.115 17 12.059 17"></polygon>
            </g>
        </g>
    </g>
</svg>