<?xml version="1.0"?><svg xmlns="http://www.w3.org/2000/svg" width="960" height="960" viewBox="0 0 960 960"><path d="m880 160c0-44.2-35.8-80-80-80h-640c-44.2 0-80 35.8-80 80v640c0 44.2 35.8 80 80 80h640c44.2 0 80-35.8 80-80v-640z m-80 383.5l-140-140-260 260-120-120-120 120v-254c71.4 47.4 166.3 38 226.8-22.7 60.6-60.5 70.1-155.4 22.7-226.8h390.5v383.5z m-640-383.5h100c55.2 0 100 44.8 100 100s-44.8 100-100 100-100-44.8-100-100v-100z m0 640v-23.4l120-120 120 120 260-260 140 140v143.4h-640z"></path></svg>