<?xml version="1.0" encoding="UTF-8"?>
<svg width="24px" height="24px" viewBox="0 0 24 24" version="1.1" xmlns="http://www.w3.org/2000/svg" xmlns:xlink="http://www.w3.org/1999/xlink">
    <!-- Generator: Sketch 45.1 (43504) - http://www.bohemiancoding.com/sketch -->
    <title>image-1</title>
    <desc>Created with Sketch.</desc>
    <defs></defs>
    <g id="Page-1" stroke="none" stroke-width="1" fill="none" fill-rule="evenodd">
        <g id="image-1" fill="#000000">
            <g id="Image-1" transform="translate(1.000000, 1.000000)">
                <path d="M15.5,8 C16.328,8 17,7.328 17,6.5 C17,5.672 16.328,5 15.5,5 C14.672,5 14,5.672 14,6.5 C14,7.328 14.672,8 15.5,8 L15.5,8 Z M15.5,6 C15.776,6 16,6.224 16,6.5 C16,6.776 15.776,7 15.5,7 C15.224,7 15,6.776 15,6.5 C15,6.224 15.224,6 15.5,6 L15.5,6 Z" id="Fill-2"></path>
                <path d="M0.06,22 L22.06,22 L22.06,0 L0.06,0 L0.06,22 Z M20.06,20 L2.06,20 L2.059,2 L20.06,2 L20.06,20 L20.06,20 Z" id="Fill-3"></path>
                <path d="M3,16 L19,16 L19,3 L2.99,3 L2.99,15.941 L3,15.941 L3,16 L3,16 Z M4,14.941 L4,12 L8,8 L13,13 L15,11 L18,14 L18,14.941 L4,14.941 L4,14.941 Z M18,4 L18,12.586 L15,9.586 L13,11.586 L8,6.586 L3.99,10.596 L3.99,4 L18,4 L18,4 Z" id="Fill-4"></path>
            </g>
        </g>
    </g>
</svg>