<?xml version="1.0"?><svg xmlns="http://www.w3.org/2000/svg" width="960" height="960" viewBox="0 0 960 960"><path d="m600 800c-22.1 0-40 17.9-40 40s17.9 40 40 40h199.2c44.6 0 80.8-36.2 80.8-80.8v-309.8c-0.1-32.1-12.8-63-35.5-85.8l-280-280c-47.4-45.1-121.9-45.1-169.2 0l-280.1 280.4c-22.6 22.5-35.3 53-35.2 84.9v310.3c0.1 44.6 36.2 80.8 80.8 80.8h119.2c132.5-0.2 239.8-107.5 240-240v-109.1l54.6 54.6c14.1 13.6 36.5 13.3 50.4-0.6 13.8-13.8 14-36.2 0.4-50.4l-120-120c-14-14-36.8-14-50.8 0l-120 120c-13.6 14.2-13.4 36.6 0.5 50.4 13.8 13.9 36.2 14.1 50.4 0.6l54.5-54.6v109.1c0 88.4-71.6 160-160 160l-120-0.8v-310.3c0-10.6 4.2-20.8 11.7-28.3l280.3-280.2c15.6-15.1 40.4-15.1 56 0l280 280c7.7 7.7 12 18.2 12 29.1l-0.8 310.5h-199.2z"></path></svg>