<?xml version="1.0" encoding="UTF-8"?>
<svg width="24px" height="24px" viewBox="0 0 24 24" version="1.1" xmlns="http://www.w3.org/2000/svg" xmlns:xlink="http://www.w3.org/1999/xlink">
    <!-- Generator: Sketch 45.1 (43504) - http://www.bohemiancoding.com/sketch -->
    <title>key-1</title>
    <desc>Created with Sketch.</desc>
    <defs></defs>
    <g id="Page-1" stroke="none" stroke-width="1" fill="none" fill-rule="evenodd">
        <g id="key-1" fill="#000000">
            <g id="Imported-Layers" transform="translate(1.000000, 1.000000)">
                <path d="M15.5,13 C11.916,13 9,10.084 9,6.5 C9,2.916 11.916,0 15.5,0 C19.084,0 22,2.916 22,6.5 C22,10.084 19.084,13 15.5,13 L15.5,13 Z M15.5,2 C13.019,2 11,4.019 11,6.5 C11,8.981 13.019,11 15.5,11 C17.981,11 20,8.981 20,6.5 C20,4.019 17.981,2 15.5,2 L15.5,2 Z" id="Fill-1"></path>
                <path d="M18,5 C18,5.552 17.552,6 17,6 C16.448,6 16,5.552 16,5 C16,4.448 16.448,4 17,4 C17.552,4 18,4.448 18,5" id="Fill-2"></path>
                <polyline id="Fill-3" points="4.414 22 0 22 0 17.586 9.293 8.293 10.707 9.707 2 18.414 2 20 3.586 20 5 18.586 5 17 7 17 7 15 9 15 9 13 10.586 13 12.293 11.293 13.707 12.707 11.414 15 11 15 11 17 9 17 9 19 7 19 7 19.414 4.414 22"></polyline>
            </g>
        </g>
    </g>
</svg>