<?xml version="1.0"?><svg xmlns="http://www.w3.org/2000/svg" width="960" height="960" viewBox="0 0 960 960"><path d="m320 720v80c-3.8 32.8 7.6 65.6 31 89 23.4 23.4 56.2 34.8 89 31h80c32.7 3 65-8.6 88.2-31.8 23.2-23.2 34.8-55.5 31.8-88.2v-80c0-61.6 45-120 88.4-176.2l8.5-11c41.4-63.2 63.3-137.2 63.1-212.8 1.9-85.4-31.2-168-91.6-228.4-60.4-60.4-143-93.5-228.4-91.6-85.4-1.9-168 31.2-228.4 91.6-60.4 60.4-93.5 143-91.6 228.4-2.1 78 21.5 154.5 67 217.8 27.8 34.7 93 116.2 93 182.2z m240 80c0 30.3-9.7 40-40 40h-80c-31 0-40-5.2-40-40v-80h160v80z m-80-720c64.1-1.4 126 23.4 171.3 68.7 45.3 45.3 70.1 107.2 68.7 171.3 0 57.9-16.1 114.7-46.6 164l-8.3 10.8c-37 43.6-67.2 92.6-89.7 145.2h-54.2l77.6-310.3c4-14 0.1-29.2-10.3-39.5-10.4-10.3-25.6-14.1-39.6-9.9-14 4.2-24.6 15.7-27.7 30l-41.2 164.8-41.2-164.8c-3-14.4-13.6-25.8-27.7-30-14-4.2-29.2-0.4-39.6 9.9-10.4 10.3-14.3 25.4-10.3 39.5l77.6 310.3h-55c-23.5-55.2-55.3-106.6-94.4-152.2-34.1-49.2-51.4-108-49.4-167.8-1.4-64.1 23.4-126 68.7-171.3 45.3-45.3 107.2-70.1 171.3-68.7z"></path></svg>