<?xml version="1.0" encoding="UTF-8"?>
<svg width="24px" height="24px" viewBox="0 0 24 24" version="1.1" xmlns="http://www.w3.org/2000/svg" xmlns:xlink="http://www.w3.org/1999/xlink">
    <!-- Generator: Sketch 45.1 (43504) - http://www.bohemiancoding.com/sketch -->
    <title>lightbulb-2</title>
    <desc>Created with Sketch.</desc>
    <defs></defs>
    <g id="Page-1" stroke="none" stroke-width="1" fill="none" fill-rule="evenodd">
        <g id="lightbulb-2" fill="#000000">
            <g id="Light-Bulb-2" transform="translate(5.000000, 2.000000)">
                <path d="M7,0 C3.134,0 0,2.95 0,6.588 C0,12.074 4,12.507 4,14 L4,16 L10,16 L10,14 C10,12.456 14,12.25 14,6.588 C14,2.95 10.866,0 7,0 L7,0 Z M9.849,11.04 C9.069,11.657 8,12.502 8,14 L6,14 C6,12.545 4.95,11.68 4.184,11.048 C3.11,10.164 2,9.25 2,6.588 C2,4.058 4.243,2 7,2 C9.757,2 12,4.058 12,6.588 C12,9.339 10.906,10.204 9.849,11.04 L9.849,11.04 Z" id="Fill-1"></path>
                <path d="M4,19 L5,19 C5,20.105 5.895,21 7,21 C8.105,21 9,20.105 9,19 L10,19 L10,17 L4,17 L4,19" id="Fill-2"></path>
                <polyline id="Fill-3" points="10.646 5.646 9 7.293 7 5.293 5 7.293 3.353 5.646 2.646 6.353 5 8.707 7 6.707 9 8.707 11.353 6.353 10.646 5.646"></polyline>
            </g>
        </g>
    </g>
</svg>