<?xml version="1.0" encoding="UTF-8"?>
<svg width="24px" height="24px" viewBox="0 0 24 24" version="1.1" xmlns="http://www.w3.org/2000/svg" xmlns:xlink="http://www.w3.org/1999/xlink">
    <!-- Generator: Sketch 45.1 (43504) - http://www.bohemiancoding.com/sketch -->
    <title>location-1a</title>
    <desc>Created with Sketch.</desc>
    <defs></defs>
    <g id="Page-1" stroke="none" stroke-width="1" fill="none" fill-rule="evenodd">
        <g id="location-1a" fill="#000000">
            <g id="Location-1" transform="translate(3.000000, 1.000000)">
                <path d="M9,0 C4.582,0 1,3.582 1,8 C1,8 0.417,14.417 9,22 C9,22 17,14.75 17,8 C17,3.582 13.418,0 9,0 L9,0 Z M8.958,19.228 C2.766,13.123 2.981,8.368 2.992,8.181 L3,8.091 L3,8 C3,4.692 5.692,2 9,2 C12.308,2 15,4.692 15,8 C15,11.966 11.367,16.671 8.958,19.228 L8.958,19.228 Z" id="Fill-2"></path>
                <path d="M9,4.5 C7.07,4.5 5.5,6.07 5.5,8 C5.5,9.93 7.07,11.5 9,11.5 C10.93,11.5 12.5,9.93 12.5,8 C12.5,6.07 10.93,4.5 9,4.5 L9,4.5 Z M9,10.5 C7.622,10.5 6.5,9.378 6.5,8 C6.5,6.622 7.622,5.5 9,5.5 C10.378,5.5 11.5,6.622 11.5,8 C11.5,9.378 10.378,10.5 9,10.5 L9,10.5 Z" id="Fill-3"></path>
            </g>
        </g>
    </g>
</svg>