<?xml version="1.0" encoding="UTF-8"?>
<svg width="24px" height="24px" viewBox="0 0 24 24" version="1.1" xmlns="http://www.w3.org/2000/svg" xmlns:xlink="http://www.w3.org/1999/xlink">
    <!-- Generator: Sketch 45.1 (43504) - http://www.bohemiancoding.com/sketch -->
    <title>location-1b</title>
    <desc>Created with Sketch.</desc>
    <defs></defs>
    <g id="Page-1" stroke="none" stroke-width="1" fill="none" fill-rule="evenodd">
        <g id="location-1b" fill="#000000">
            <g id="Location-1---filled" transform="translate(3.000000, 1.000000)">
                <path d="M9,0.008 C4.582,0.008 1,3.589 1,8.008 C1,8.008 0.417,14.424 9,22.008 C9,22.008 17,14.758 17,8.008 C17,3.589 13.418,0.008 9,0.008 L9,0.008 Z M9,11.008 C7.343,11.008 6,9.664 6,8.008 C6,6.351 7.343,5.008 9,5.008 C10.657,5.008 12,6.351 12,8.008 C12,9.664 10.657,11.008 9,11.008 L9,11.008 Z" id="Fill-2"></path>
            </g>
        </g>
    </g>
</svg>