<?xml version="1.0"?><svg xmlns="http://www.w3.org/2000/svg" width="960" height="960" viewBox="0 0 960 960"><path fill="#29A754" d="m480 853c-54.3-50.9-260-256.3-260-453 0-143.4 116.6-260 260-260s260 116.6 260 260c0 198.7-205.5 402.5-260 453z m0-593c-77.2 0-140 62.8-140 140s62.8 140 140 140 140-62.8 140-140-62.8-140-140-140z"></path><path fill="#1B8940" d="m480 160c132.3 0 240 107.7 240 240 0 177-172.8 360.8-239.9 425.4-67.1-65-240.1-249.8-240.1-425.4 0-132.3 107.7-240 240-240z m0 400c88.2 0 160-71.8 160-160s-71.8-160-160-160-160 71.8-160 160 71.8 160 160 160z m0-440c-154.6 0-280 125.4-280 280 0 237.5 280 480 280 480s280-240 280-480c0-154.6-125.4-280-280-280z m0 400c-66.3 0-120-53.7-120-120s53.7-120 120-120 120 53.7 120 120-53.7 120-120 120z"></path></svg>