<?xml version="1.0" encoding="UTF-8"?>
<svg width="24px" height="24px" viewBox="0 0 24 24" version="1.1" xmlns="http://www.w3.org/2000/svg" xmlns:xlink="http://www.w3.org/1999/xlink">
    <!-- Generator: Sketch 45.1 (43504) - http://www.bohemiancoding.com/sketch -->
    <title>lock-closed</title>
    <desc>Created with Sketch.</desc>
    <defs></defs>
    <g id="Page-1" stroke="none" stroke-width="1" fill="none" fill-rule="evenodd">
        <g id="lock-closed" fill="#000000">
            <g id="Lock-Closed" transform="translate(3.000000, 2.000000)">
                <path d="M13,6.018 L13,3 C13,3 12.937,0 9,0 C5,0 5,3 5,3 L5,6.018 L0.932,6.018 L0.932,19 L16.966,19 L16.966,6.018 L13,6.018 L13,6.018 Z M7,3 C7,2.959 7.023,2 9,2 C10.616,2 10.95,2.66 11,3.074 L11,6 L7,6 L7,3 L7,3 Z M2.932,8.018 L14.965,8.018 L14.965,17 L2.932,17 L2.932,8.018 Z" id="Fill-2"></path>
                <path d="M7.957,13.722 L7.957,16.024 L10,16.024 L10,13.699 C10.572,13.346 10.957,12.72 10.957,12 C10.957,10.897 10.06,10 8.957,10 C7.855,10 6.957,10.897 6.957,12 C6.957,12.737 7.363,13.375 7.957,13.722 L7.957,13.722 Z M8.957,11 C9.51,11 9.957,11.448 9.957,12 C9.957,12.552 9.51,13 8.957,13 C8.405,13 7.957,12.552 7.957,12 C7.957,11.448 8.405,11 8.957,11 L8.957,11 Z" id="Fill-3"></path>
            </g>
        </g>
    </g>
</svg>