<?xml version="1.0"?><svg xmlns="http://www.w3.org/2000/svg" width="960" height="960" viewBox="0 0 960 960"><path d="m840 440c0-66.3-53.7-120-120-120h-40v-40c0-110.4-89.6-200-200-200s-200 89.6-200 200v40h-40c-66.3 0-120 53.7-120 120v320c0 66.3 53.7 120 120 120h480c66.3 0 120-53.7 120-120v-320z m-480-160c0-66.3 53.7-120 120-120s120 53.7 120 120v40h-240v-40z m400 480c0 22.1-17.9 40-40 40h-480c-22.1 0-40-17.9-40-40v-320c0-22.1 17.9-40 40-40h480c22.1 0 40 17.9 40 40v320z m-280-280c-36.2-0.1-67.9 24.1-77.3 59.1-9.4 34.9 5.9 71.8 37.3 89.8v91.1c0 22.1 17.9 40 40 40s40-17.9 40-40v-91.1c31.4-18 46.7-54.9 37.3-89.8-9.4-35-41.1-59.2-77.3-59.1z"></path></svg>