<?xml version="1.0"?><svg xmlns="http://www.w3.org/2000/svg" width="960" height="960" viewBox="0 0 960 960"><path d="m480 120c54.7 0 102.5 37 116.2 90 5.5 21.4 27.4 34.2 48.8 28.7 21.3-5.6 34.2-27.3 28.7-48.8-25.1-97.6-118.9-161.2-218.9-148.5-100 12.8-174.9 97.8-174.8 198.6v80h-40c-66.3 0-120 53.7-120 120v320c0 66.3 53.7 120 120 120h480c66.3 0 120-53.7 120-120v-320c0-66.3-53.7-120-120-120h-360v-80c0-66.3 53.7-120 120-120z m240 280c22.1 0 40 17.9 40 40v320c0 22.1-17.9 40-40 40h-480c-22.1 0-40-17.9-40-40v-320c0-22.1 17.9-40 40-40h480z m-280 228.9v91.1c0 22.1 17.9 40 40 40s40-17.9 40-40v-91.1c31.4-18.1 46.6-55 37.3-90-9.4-34.9-41.1-59.3-77.3-59.3s-67.9 24.4-77.3 59.4c-9.3 35 5.9 71.8 37.3 90z"></path></svg>