<?xml version="1.0" encoding="UTF-8"?>
<svg width="24px" height="24px" viewBox="0 0 24 24" version="1.1" xmlns="http://www.w3.org/2000/svg" xmlns:xlink="http://www.w3.org/1999/xlink">
    <!-- Generator: Sketch 45.1 (43504) - http://www.bohemiancoding.com/sketch -->
    <title>mail-1-open</title>
    <desc>Created with Sketch.</desc>
    <defs></defs>
    <g id="Page-1" stroke="none" stroke-width="1" fill="none" fill-rule="evenodd">
        <g id="mail-1-open" fill="#000000">
            <g id="Imported-Layers" transform="translate(2.000000, 0.000000)">
                <path d="M10.094,0.798 L0.094,7.465 L0.094,21.999 L20.094,22 L20.094,7.465 L10.094,0.798 L10.094,0.798 Z M10.094,3.202 L18.094,8.535 L18.094,9 L2.094,9 L2.094,8.535 L10.094,3.202 L10.094,3.202 Z M4.498,12.27 L2.094,14.159 L2.094,10.667 L4.498,12.27 L4.498,12.27 Z M2.094,15.43 L5.373,12.853 L6.591,13.665 L2.094,17.344 L2.094,15.43 L2.094,15.43 Z M4.174,19.999 L6.437,18.113 L5.796,17.345 L2.611,19.999 L2.094,19.999 L2.094,18.636 L7.461,14.245 L10.093,16 L18.094,10.666 L18.094,20 L4.174,19.999 L4.174,19.999 Z" id="Fill-1"></path>
                <polyline id="Fill-2" points="6.796 16.512 7.437 17.28 8.437 16.447 7.796 15.678 6.796 16.512"></polyline>
            </g>
        </g>
    </g>
</svg>