<?xml version="1.0"?><svg xmlns="http://www.w3.org/2000/svg" width="960" height="960" viewBox="0 0 960 960"><path d="m602.8 124.8c-72.2-56.4-173.4-56.4-245.6 0l-254 197.6c-14.7 11.2-23.3 28.7-23.2 47.2v430.4c0.1 44.1 35.9 79.9 80 80h640c44.1-0.1 79.9-35.9 80-80v-429.9c0-18.5-8.5-36-23.1-47.3l-254.1-198z m-42.8 195.2h-323.6l170-132c43.3-33.6 103.9-33.6 147.2 0l221.6 172.4-221.6 174.4c-43.3 33.6-103.9 33.6-147.2 0l-171.2-134.8h324.8c22.1 0 40-17.9 40-40s-17.9-40-40-40z m240 480h-640v-357.6l197.2 155.6c72.4 56.2 173.8 56 246-0.4l196.8-155.2v357.6z"></path></svg>