<?xml version="1.0"?><svg xmlns="http://www.w3.org/2000/svg" width="960" height="960" viewBox="0 0 960 960"><path d="m720 280c19.8 0 36.6-14.5 39.6-34 2.9-19.6-8.9-38.4-27.8-44.2l-520-160c-12.2-3.8-25.4-1.5-35.6 6-10.2 7.6-16.2 19.5-16.2 32.2v160c0 22.1 17.9 40 40 40s40-17.9 40-40v-105.8l82 25.2c-4.7 3.5-9.1 7.3-13.5 11.2-2.1 1.3-4 2.9-5.8 4.8-45.7 42.7-68.5 104.6-61.5 166.8 7 62.2 43 117.5 97.1 149.1-83.9 38.4-137.8 121.9-138.3 214.1v134.6c0 66.3 53.7 120 120 120h240c66.3 0 120-53.7 120-120v-134.6c-0.4-92.2-54.4-175.8-138.2-214.2 82.9-47.5 119.3-148 86-237.7l80.4 24.8c3.8 1.1 7.8 1.7 11.8 1.7z m-152.5 331.6c20.9 26.8 32.4 59.8 32.5 93.8v134.6c0 22.1-17.9 40-40 40h-240c-22.1 0-40-17.9-40-40v-134.6c0.2-34 11.6-67 32.5-93.7 21.5 51.4 71.8 84.9 127.5 84.9 55.8 0 106-33.5 127.6-84.9z m-185.6-52c37.3-14.8 78.9-14.8 116.2 0-0.8 31.5-26.6 56.6-58.1 56.6s-57.3-25.1-58.2-56.6z m58.1-119.6c-66.3 0-120-53.7-120-120 0.1-26.8 9.2-52.7 26-73.6l213.1 64.6c0.3 3 0.9 5.9 0.9 9 0 31.8-12.6 62.4-35.1 84.9-22.5 22.5-53 35.1-84.9 35.1z"></path></svg>