<?xml version="1.0"?><svg xmlns="http://www.w3.org/2000/svg" width="960" height="960" viewBox="0 0 960 960"><path d="m129.8 786.4c31.2 22.6 71.4 28.8 108 16.5l122.2-40.7 240 80 198-66.2c48.9-16.3 81.9-62.1 82-113.6v-391.4c0-38.6-18.6-74.8-49.8-97.4-31.3-22.5-71.6-28.6-108.2-16.4l-122 40.6-240-80-198 66.2c-48.8 16.3-81.9 62.1-82 113.6v391.4c-0.2 38.6 18.4 74.9 49.8 97.4z m30.2-488.8c0-17.2 11-32.5 27.4-37.9l172.6-57.5 200 66.6v131.2c0 22.1 17.9 40 40 40s40-17.9 40-40v-131.2l107.4-35.8c12.2-4 25.6-2 36 5.6 10.4 7.5 16.6 19.6 16.6 32.4v391.4c0 17.2-11 32.4-27.4 37.9l-132.6 44.2v-224.5c0-22.1-17.9-40-40-40s-40 17.9-40 40v224.5l-160-53.3v-371.2c0-22.1-17.9-40-40-40s-40 17.9-40 40v371.2l-107.4 35.8c-12.2 4-25.6 2-36-5.6-10.4-7.5-16.6-19.6-16.6-32.4v-391.4z"></path></svg>