<?xml version="1.0" encoding="UTF-8"?>
<svg width="24px" height="24px" viewBox="0 0 24 24" version="1.1" xmlns="http://www.w3.org/2000/svg" xmlns:xlink="http://www.w3.org/1999/xlink">
    <!-- Generator: Sketch 45.1 (43504) - http://www.bohemiancoding.com/sketch -->
    <title>misc-wrench</title>
    <desc>Created with Sketch.</desc>
    <defs></defs>
    <g id="Page-1" stroke="none" stroke-width="1" fill="none" fill-rule="evenodd">
        <g id="misc-wrench" fill="#000000">
            <g id="Imported-Layers">
                <path d="M22.923,4 L22,4 L20,6 L18,6 L18,4 L20,2 L20,1.187 C20,0.531 19.469,0 18.813,0 L18,0 C14.265,0 11.327,3.413 12.135,7.291 C12.143,7.33 12.159,7.366 12.168,7.405 L1.308,17.278 C1.185,17.396 0.109,18.473 0.093,20.021 C0.086,20.692 0.289,21.703 1.293,22.707 C2.114,23.529 3.017,23.944 3.978,23.944 C4.013,23.944 4.047,23.944 4.083,23.943 C5.619,23.895 6.639,22.788 6.74,22.673 L16.595,11.832 C16.634,11.841 16.67,11.857 16.709,11.865 C17.147,11.957 17.578,12 18,12 C21.314,12 24,9.314 24,6 L24,5.077 C24,4.482 23.518,4 22.923,4 L22.923,4 Z M11.766,10.473 L13.527,12.234 L13.248,12.541 L11.459,10.752 L11.766,10.473 L11.766,10.473 Z M5.256,21.332 C5.25,21.337 4.701,21.929 4.008,21.944 C3.593,21.953 3.149,21.734 2.707,21.293 C2.293,20.879 2.092,20.473 2.093,20.054 C2.094,19.335 2.675,18.74 2.673,18.74 L10.718,11.426 L12.574,13.282 L5.256,21.332 L5.256,21.332 Z M14.2,11.493 L12.507,9.8 L13.015,9.337 C13.452,9.989 14.011,10.548 14.663,10.985 L14.2,11.493 L14.2,11.493 Z M18,10 C17.709,10 17.412,9.969 17.117,9.907 C15.62,9.595 14.405,8.38 14.093,6.883 C13.834,5.642 14.118,4.433 14.894,3.479 C15.456,2.788 16.217,2.314 17.061,2.111 L16.586,2.586 C16.211,2.961 16,3.47 16,4 L16,6 C16,7.105 16.895,8 18,8 L20,8 C20.53,8 21.039,7.789 21.414,7.414 L21.889,6.94 C21.465,8.693 19.882,10 18,10 L18,10 Z" id="Fill-1"></path>
                <path d="M3.865,19 C3.313,19 2.865,19.448 2.865,20 C2.865,20.552 3.313,21 3.865,21 C4.417,21 4.865,20.552 4.865,20 C4.865,19.448 4.417,19 3.865,19" id="Fill-2"></path>
            </g>
        </g>
    </g>
</svg>