<?xml version="1.0"?><svg xmlns="http://www.w3.org/2000/svg" width="960" height="960" viewBox="0 0 960 960"><path d="m480 240c-132.5 0.2-239.8 107.5-240 240-0.1 33 6.7 65.7 20 96 6.2 13.2 4.8 28.7-3.7 40.5-8.5 11.9-22.8 18.1-37.3 16.3-14.4-1.7-26.8-11.2-32.3-24.8-43.2-98.9-33.6-212.9 25.6-303.2 59.1-90.4 159.7-144.8 267.7-144.8h63.4l-91.7-91.7c-15.2-15.7-14.9-40.7 0.5-56.1 15.4-15.4 40.4-15.6 56.1-0.5l188.3 188.3-188.3 188.3c-10 10.4-24.9 14.5-38.9 10.9-14-3.7-24.9-14.6-28.6-28.6-3.6-14 0.5-28.8 10.9-38.9l91.7-91.7h-63.4z m320 240c-0.2 176.6-143.4 319.8-320 320h-63.4l91.6 91.7c15.2 15.7 15 40.6-0.4 56.1-15.5 15.4-40.4 15.6-56.1 0.4l-160-160-28.3-28.2 28.3-28.3 160-160c15.7-15.2 40.7-14.9 56.1 0.5 15.4 15.4 15.6 40.4 0.5 56.1l-91.7 91.7h63.4c80.9-0.1 156.2-40.8 200.6-108.5 44.4-67.6 51.7-153 19.6-227.2-5.8-13.1-4-28.3 4.4-39.7 8.5-11.6 22.5-17.6 36.7-16 14.2 1.6 26.5 10.6 32.2 23.7 17.6 40.3 26.6 83.8 26.5 127.7z"></path></svg>