<?xml version="1.0" encoding="UTF-8"?>
<svg width="24px" height="24px" viewBox="0 0 24 24" version="1.1" xmlns="http://www.w3.org/2000/svg" xmlns:xlink="http://www.w3.org/1999/xlink">
    <!-- Generator: Sketch 45.1 (43504) - http://www.bohemiancoding.com/sketch -->
    <title>misc-target</title>
    <desc>Created with Sketch.</desc>
    <defs></defs>
    <g id="Page-1" stroke="none" stroke-width="1" fill="none" fill-rule="evenodd">
        <g id="misc-target" fill="#000000">
            <g id="Target" transform="translate(2.000000, 0.000000)">
                <path d="M14.25,4.836 L14.25,6.336 L13.473,7.113 C12.492,6.415 11.296,6 10,6 C6.686,6 4,8.686 4,12 C4,15.314 6.686,18 10,18 C13.314,18 16,15.314 16,12 C16,10.704 15.585,9.508 14.887,8.527 L15.664,7.75 L17.164,7.75 L21.414,3.5 L18.5,3.5 L18.5,0.586 L14.25,4.836 L14.25,4.836 Z M14,12 C14,14.206 12.206,16 10,16 C7.794,16 6,14.206 6,12 C6,9.794 7.794,8 10,8 C10.74,8 11.424,8.216 12.019,8.567 L10.512,10.074 C10.347,10.031 10.178,10 10,10 C8.895,10 8,10.895 8,12 C8,13.105 8.895,14 10,14 C11.105,14 12,13.105 12,12 C12,11.822 11.969,11.653 11.926,11.488 L13.433,9.981 C13.785,10.576 14,11.26 14,12 L14,12 Z" id="Fill-1"></path>
                <path d="M17.286,8.714 C17.741,9.718 18,10.828 18,12 C18,16.411 14.411,20 10,20 C5.589,20 2,16.411 2,12 C2,7.589 5.589,4 10,4 C11.172,4 12.282,4.26 13.286,4.714 L14.783,3.217 C13.362,2.442 11.733,2 10,2 C4.477,2 0,6.477 0,12 C0,17.523 4.477,22 10,22 C15.523,22 20,17.523 20,12 C20,10.267 19.558,8.638 18.783,7.217 L17.286,8.714" id="Fill-2"></path>
            </g>
        </g>
    </g>
</svg>