<?xml version="1.0" encoding="UTF-8"?>
<svg width="24px" height="24px" viewBox="0 0 24 24" version="1.1" xmlns="http://www.w3.org/2000/svg" xmlns:xlink="http://www.w3.org/1999/xlink">
    <!-- Generator: Sketch 45.1 (43504) - http://www.bohemiancoding.com/sketch -->
    <title>misc-design</title>
    <desc>Created with Sketch.</desc>
    <defs></defs>
    <g id="Page-1" stroke="none" stroke-width="1" fill="none" fill-rule="evenodd">
        <g id="misc-design" fill="#000000">
            <g id="Design-edit">
                <path d="M18,2.828 L21.172,6 L6.977,20.194 L2.749,21.251 L3.806,17.023 L18,2.828 M18,0.785 C17.515,0.785 17.03,0.97 16.66,1.341 L2.097,15.903 C2.034,15.966 1.988,16.046 1.967,16.133 L0.201,23.197 C0.12,23.519 0.37,23.815 0.681,23.815 C0.721,23.815 0.762,23.81 0.803,23.799 L7.866,22.033 C7.954,22.012 8.034,21.966 8.097,21.903 L22.66,7.341 C23.4,6.6 23.4,5.4 22.66,4.659 L19.34,1.341 C18.97,0.97 18.485,0.785 18,0.785" id="Fill-1"></path>
                <path d="M2.625,16.625 L7,21" id="Fill-2"></path>
                <polyline id="Fill-3" points="6.646 21.354 2.271 16.979 2.978 16.271 7.354 20.647 6.646 21.354"></polyline>
                <path d="M15,4 L20,9" id="Fill-4"></path>
                <polygon id="Fill-5" points="14.646 4.354 15.353 3.647 20.353 8.647 19.646 9.353"></polygon>
            </g>
        </g>
    </g>
</svg>