<?xml version="1.0"?><svg xmlns="http://www.w3.org/2000/svg" width="960" height="960" viewBox="0 0 960 960"><path d="m551.7 71.7c93.2-91.1 242.4-90.2 334.6 2 92.2 92.1 93.1 241.3 2 334.6l-122 122c-15.7 15.2-40.7 14.9-56.1-0.5-15.4-15.4-15.6-40.4-0.5-56.1l122-122c61-61.8 60.6-161.2-0.8-222.6-61.4-61.4-160.8-61.8-222.6-0.8l-162 162c-36.4 36.5-52.8 88.4-43.9 139.2 9 50.7 42.2 93.9 88.8 115.7 19.4 9.8 27.6 33.1 18.4 52.8-9.2 19.6-32.3 28.4-52.2 19.8-70.4-32.8-120.2-98-133.7-174.4-13.5-76.4 11.2-154.7 66-209.6l162-162z m-311.7 886.2c-96.2 0-183-57.9-219.9-146.8-36.8-88.9-16.5-191.3 51.6-259.3l120-120c15.7-15.2 40.7-15 56.1 0.4 15.4 15.5 15.6 40.4 0.5 56.1l-120 120c-61 61.9-60.6 161.2 0.8 222.7 61.4 61.4 160.8 61.7 222.6 0.8l160-160c35.5-35.5 51.9-85.7 44.5-135.3-7.5-49.6-38-92.7-82.3-116.2-12.7-6.7-20.7-19.6-21.2-33.9-0.6-14.3 6.5-27.8 18.7-35.4 12.1-7.6 27.3-8.1 40-1.4 66.6 35.4 112.6 100.3 123.8 175 11.3 74.7-13.6 150.2-66.9 203.7l-160 160c-44.6 44.7-105.2 69.7-168.3 69.6z"></path></svg>