<?xml version="1.0" encoding="UTF-8"?>
<svg width="24px" height="24px" viewBox="0 0 24 24" version="1.1" xmlns="http://www.w3.org/2000/svg" xmlns:xlink="http://www.w3.org/1999/xlink">
    <!-- Generator: Sketch 45.1 (43504) - http://www.bohemiancoding.com/sketch -->
    <title>misc-jpoc</title>
    <desc>Created with Sketch.</desc>
    <defs></defs>
    <g id="Page-1" stroke="none" stroke-width="1" fill="none" fill-rule="evenodd">
        <g id="misc-jpoc" fill="#000000">
            <g id="Imported-Layers" transform="translate(-1.000000, 1.000000)">
                <path d="M23,7.307 L23,1.53 C23,0.686 22.313,0 21.469,0 C21.142,0 20.831,0.103 20.567,0.297 L15.706,3.43 L10.292,3.43 L5.677,0.492 C5.386,0.276 5.043,0.162 4.683,0.162 C3.755,0.162 3,0.916 3,1.843 L3,7.307 L0.919,15.63 L1.181,16.004 C1.307,16.183 4.272,20.32 9.933,20.66 C10.41,20.949 11.315,21.43 12.069,21.43 L13.931,21.43 C14.685,21.43 15.59,20.949 16.067,20.66 C21.728,20.32 24.693,16.183 24.819,16.004 L25.081,15.63 L23,7.307 L23,7.307 Z M15.718,18.674 L15.437,18.685 L15.204,18.84 C14.763,19.132 14.133,19.424 13.931,19.43 L12.07,19.43 C11.867,19.424 11.248,19.138 10.795,18.839 L10.561,18.685 L10.282,18.674 C6.292,18.525 3.866,16.108 3.089,15.196 L4.97,7.672 L5,2.432 L9.709,5.43 L16.294,5.43 L21,2.397 L21,7.43 L22.911,15.196 C22.131,16.111 19.706,18.525 15.718,18.674 L15.718,18.674 Z" id="Fill-1"></path>
                <path d="M10,12.43 L10,11.43 C10,10.877 9.552,10.43 9,10.43 C8.448,10.43 8,10.877 8,11.43 L8,12.43 C8,12.982 8.448,13.43 9,13.43 C9.552,13.43 10,12.982 10,12.43" id="Fill-2"></path>
                <path d="M17,13.43 C17.552,13.43 18,12.982 18,12.43 L18,11.43 C18,10.877 17.552,10.43 17,10.43 C16.448,10.43 16,10.877 16,11.43 L16,12.43 C16,12.982 16.448,13.43 17,13.43" id="Fill-3"></path>
                <path d="M5,3.43 L4.50024414,7.88610857 L6.38474365,6.929 C7.01903368,6.7 7.20895192,5.826 6.7360002,5.313 L5,3.43 Z" id="Fill-4"></path>
                <path d="M21.6512452,7.75720232 L20.999,3.43 L19.029,5.401 C18.556,5.874 18.746,6.678 19.38,6.89 L21.6512452,7.75720232 Z" id="Fill-5"></path>
                <path d="M7.5,15.43 C7.224,15.43 7,15.654 7,15.93 C7,16.206 7.224,16.43 7.5,16.43 C7.776,16.43 8,16.206 8,15.93 C8,15.654 7.776,15.43 7.5,15.43" id="Fill-6"></path>
                <path d="M6.5,14.43 C6.224,14.43 6,14.654 6,14.93 C6,15.206 6.224,15.43 6.5,15.43 C6.776,15.43 7,15.206 7,14.93 C7,14.654 6.776,14.43 6.5,14.43" id="Fill-7"></path>
                <path d="M8.5,14.43 C8.224,14.43 8,14.654 8,14.93 C8,15.206 8.224,15.43 8.5,15.43 C8.776,15.43 9,15.206 9,14.93 C9,14.654 8.776,14.43 8.5,14.43" id="Fill-8"></path>
                <path d="M18.5,15.43 C18.224,15.43 18,15.654 18,15.93 C18,16.206 18.224,16.43 18.5,16.43 C18.776,16.43 19,16.206 19,15.93 C19,15.654 18.776,15.43 18.5,15.43" id="Fill-9"></path>
                <path d="M17.5,14.43 C17.224,14.43 17,14.654 17,14.93 C17,15.206 17.224,15.43 17.5,15.43 C17.776,15.43 18,15.206 18,14.93 C18,14.654 17.776,14.43 17.5,14.43" id="Fill-10"></path>
                <path d="M19.5,14.43 C19.224,14.43 19,14.654 19,14.93 C19,15.206 19.224,15.43 19.5,15.43 C19.776,15.43 20,15.206 20,14.93 C20,14.654 19.776,14.43 19.5,14.43" id="Fill-11"></path>
                <path d="M15.66,16.064 C15.207,16.482 14.768,16.685 14.358,16.648 C13.784,16.605 13.398,16.127 13.397,16.125 C13.371,16.092 13.333,16.073 13.3,16.047 C13.389,16.009 13.474,15.956 13.546,15.883 L14.198,15.231 C14.494,14.935 14.285,14.43 13.866,14.43 L12.134,14.43 C11.715,14.43 11.506,14.935 11.802,15.231 L12.454,15.883 C12.526,15.956 12.611,16.009 12.699,16.047 C12.663,16.075 12.623,16.098 12.596,16.136 C12.313,16.525 12.014,16.724 11.684,16.743 C11.128,16.778 10.545,16.284 10.369,16.092 C10.183,15.89 9.866,15.877 9.663,16.061 C9.46,16.248 9.445,16.562 9.63,16.766 C9.668,16.807 10.532,17.745 11.631,17.745 C11.665,17.745 11.7,17.744 11.735,17.742 C12.216,17.715 12.651,17.517 13.036,17.149 C13.322,17.369 13.741,17.601 14.267,17.645 C14.968,17.701 15.67,17.418 16.34,16.796 C16.543,16.608 16.554,16.292 16.366,16.089 C16.178,15.887 15.861,15.875 15.66,16.064" id="Fill-12"></path>
            </g>
        </g>
    </g>
</svg>