<?xml version="1.0" encoding="UTF-8"?>
<svg width="24px" height="24px" viewBox="0 0 24 24" version="1.1" xmlns="http://www.w3.org/2000/svg" xmlns:xlink="http://www.w3.org/1999/xlink">
    <!-- Generator: Sketch 45.1 (43504) - http://www.bohemiancoding.com/sketch -->
    <title>misc-link</title>
    <desc>Created with Sketch.</desc>
    <defs></defs>
    <g id="Page-1" stroke="none" stroke-width="1" fill="none" fill-rule="evenodd">
        <g id="misc-link" fill="#000000">
            <g id="Link">
                <path d="M14.687,9.316 C14.291,8.92 13.834,8.616 13.351,8.362 L11.832,9.881 C12.37,10.046 12.866,10.324 13.273,10.73 C14.637,12.095 14.637,14.315 13.273,15.68 L7.973,20.981 C6.657,22.295 4.338,22.295 3.023,20.981 C1.658,19.616 1.658,17.395 3.023,16.03 L6.003,13.05 C6.003,13.05 5.562,11.344 6,10 L1.608,14.616 C-0.536,16.761 -0.536,20.251 1.608,22.394 C2.644,23.43 4.025,24 5.498,24 C6.97,24 8.351,23.43 9.387,22.394 L14.687,17.094 C16.832,14.949 16.832,11.46 14.687,9.316" id="Fill-1"></path>
                <path d="M9.313,14.684 C9.709,15.08 10.166,15.384 10.649,15.638 L12.168,14.119 C11.63,13.954 11.134,13.676 10.727,13.27 C9.363,11.905 9.363,9.685 10.727,8.32 L16.027,3.02 C17.343,1.705 19.662,1.705 20.978,3.02 C22.342,4.384 22.342,6.605 20.978,7.97 L17.997,10.95 C17.997,10.95 18.437,12.656 18,14 L22.392,9.384 C24.536,7.239 24.536,3.75 22.392,1.606 C21.356,0.57 19.975,0 18.502,0 C17.03,0 15.649,0.57 14.613,1.606 L9.313,6.906 C7.168,9.051 7.168,12.54 9.313,14.684" id="Fill-2"></path>
            </g>
        </g>
    </g>
</svg>