<?xml version="1.0" encoding="UTF-8"?>
<svg width="24px" height="24px" viewBox="0 0 24 24" version="1.1" xmlns="http://www.w3.org/2000/svg" xmlns:xlink="http://www.w3.org/1999/xlink">
    <!-- Generator: Sketch 45.1 (43504) - http://www.bohemiancoding.com/sketch -->
    <title>misc-newspaper</title>
    <desc>Created with Sketch.</desc>
    <defs></defs>
    <g id="Page-1" stroke="none" stroke-width="1" fill="none" fill-rule="evenodd">
        <g id="misc-newspaper" fill="#000000">
            <g id="Imported-Layers" transform="translate(1.000000, 1.000000)">
                <path d="M3,0 L3,3 L0,3 L0,18.496 C0,19.909 0.954,22 3,22 L19,22 C20.652,22 23,19.414 23,17 L23,0 L3,0 L3,0 Z M2,6.934 L3,6.268 L3,7.066 L2,7.732 L2,6.934 L2,6.934 Z M2,8.934 L3,8.268 L3,9.066 L2,9.732 L2,8.934 L2,8.934 Z M2,10.934 L3,10.268 L3,11.066 L2,11.732 L2,10.934 L2,10.934 Z M2,12.934 L3,12.268 L3,13.066 L2,13.732 L2,12.934 L2,12.934 Z M2,14.934 L3,14.268 L3,15.066 L2,15.732 L2,14.934 L2,14.934 Z M3,5 L3,5.066 L2,5.732 L2,5 L3,5 L3,5 Z M21,17 C21,18.415 19.46,19.918 18.987,20 L3,20 C2.288,20 2,18.939 2,18.496 L2,16.934 L3,16.268 L3,17 C3,17.552 3.448,18 4,18 C4.552,18 5,17.552 5,17 L5,2 L21,2 L21,17 L21,17 Z" id="Fill-1"></path>
                <path d="M7,11.032 L13.105,11.032 L13.105,5 L7,5 L7,11.032 Z M8,6 L12.106,6 L12.106,10.032 L8,10.032 L8,6 Z" id="Fill-2"></path>
                <polygon id="Fill-3" points="14.024 5 19 5 19 6 14.024 6"></polygon>
                <polygon id="Fill-4" points="7 16 13.023 16 13.023 17 7 17"></polygon>
                <polygon id="Fill-5" points="14 7 19.055 7 19.055 8 14 8"></polygon>
                <polygon id="Fill-6" points="14 9 19.055 9 19.055 10 14 10"></polygon>
                <polygon id="Fill-7" points="7 12 19 12 19 13 7 13"></polygon>
                <polygon id="Fill-8" points="7 14 19 14 19 15 7 15"></polygon>
            </g>
        </g>
    </g>
</svg>