<?xml version="1.0" encoding="UTF-8"?>
<svg width="24px" height="24px" viewBox="0 0 24 24" version="1.1" xmlns="http://www.w3.org/2000/svg" xmlns:xlink="http://www.w3.org/1999/xlink">
    <!-- Generator: Sketch 45.1 (43504) - http://www.bohemiancoding.com/sketch -->
    <title>misc-calculator</title>
    <desc>Created with Sketch.</desc>
    <defs></defs>
    <g id="Page-1" stroke="none" stroke-width="1" fill="none" fill-rule="evenodd">
        <g id="misc-calculator" fill="#000000">
            <g id="Calculator" transform="translate(4.000000, 2.000000)">
                <path d="M0,20 L16,20 L16,0 L0,0 L0,20 Z M2,2 L14,2 L14,18 L2,18 L2,2 Z" id="Fill-2"></path>
                <polygon id="Fill-3" points="4.052 4.044 12 4.044 12 7 4.052 7"></polygon>
                <polygon id="Fill-4" points="4 8 6 8 6 10 4 10"></polygon>
                <polygon id="Fill-5" points="4 11 6 11 6 13 4 13"></polygon>
                <polygon id="Fill-6" points="4 14 6 14 6 16 4 16"></polygon>
                <polygon id="Fill-7" points="7 8 9 8 9 10 7 10"></polygon>
                <polygon id="Fill-8" points="7 11 9 11 9 13 7 13"></polygon>
                <polygon id="Fill-9" points="7 14 9 14 9 16 7 16"></polygon>
                <polygon id="Fill-10" points="10 8 12 8 12 10 10 10"></polygon>
                <polygon id="Fill-11" points="10 11 12 11 12 13 10 13"></polygon>
                <polygon id="Fill-12" points="10 14 12 14 12 16 10 16"></polygon>
            </g>
        </g>
    </g>
</svg>