<?xml version="1.0" encoding="UTF-8"?>
<svg width="24px" height="24px" viewBox="0 0 24 24" version="1.1" xmlns="http://www.w3.org/2000/svg" xmlns:xlink="http://www.w3.org/1999/xlink">
    <!-- Generator: Sketch 45.1 (43504) - http://www.bohemiancoding.com/sketch -->
    <title>misc-briefcase</title>
    <desc>Created with Sketch.</desc>
    <defs></defs>
    <g id="Page-1" stroke="none" stroke-width="1" fill="none" fill-rule="evenodd">
        <g id="misc-briefcase" fill="#000000">
            <path d="M23,4 L17,4 L17,2 C17,1.448 16.552,1 16,1 L8,1 C7.448,1 7,1.448 7,2 L7,4 L1,4 C0.448,4 0,4.448 0,5 L0,22 C0,22.552 0.448,23 1,23 L23,23 C23.552,23 24,22.552 24,22 L24,5 C24,4.448 23.552,4 23,4 L23,4 Z M9,3 L15,3 L15,4 L9,4 L9,3 Z M8,6 L22,6 L22,12 L2,12 L2,6 L8,6 L8,6 Z M22,17.901 C20.714,18.125 19.023,18.957 18.602,21 L5.064,21 C4.679,19.13 3.23,18.275 2,17.972 L2,13 L9,13 L9,15 C9,15.552 9.448,16 10,16 L14,16 C14.552,16 15,15.552 15,15 L15,13 L22,13 L22,17.901 L22,17.901 Z M11,13 L13,13 L13,14 L11,14 L11,13 Z M2,19.019 C2.751,19.253 3.698,19.785 4.038,21 L2,21 L2,19.019 L2,19.019 Z M19.629,21 C20.022,19.595 21.226,19.103 22,18.93 L22,21 L19.629,21 L19.629,21 Z" id="Briefcase"></path>
        </g>
    </g>
</svg>