<?xml version="1.0"?><svg xmlns="http://www.w3.org/2000/svg" width="960" height="960" viewBox="0 0 960 960"><path d="m200 480c-83.2-0.3-152.8 63.2-160 146.2-7.2 82.8 50.4 157.4 132.4 171.6 82 14 161.1-37.2 181.9-117.8h85.7c5 0 10-1 14.7-3 1.7-0.8 3.3-1.8 4.9-2.8 2.2-1.1 4.4-2.4 6.4-3.8l244-209.1 11 40.4c-68.8 40.3-97.1 125.4-66.1 198.8 30.9 73.5 111.6 112.6 188.5 91.4 76.9-21.2 126.1-96.1 115.1-175.1-10.9-78.8-78.7-137.5-158.5-136.8-0.7 0-1.4 0.2-2.1 0.2l-87.3-320.2h-110.6c-22.1 0-40 17.9-40 40s17.9 40 40 40h49.4l32 116.7c-38.4-48.9-97.3-77.3-159.5-76.7-62.2 0.7-120.6 30.3-157.9 80h-284c-22.1 0-40 18-40 40s17.9 40 40 40h127.3c95.8-6.1 179.4 64.5 189.4 160h-42.4c-18.2-70.4-81.6-119.7-154.3-120z m0 200h68.9c-18.1 31.4-55 46.6-90 37.3-35-9.4-59.3-41.1-59.3-77.3s24.3-67.9 59.3-77.3c35-9.3 71.9 5.9 90 37.3h-68.9c-22.1 0-40 17.9-40 40s17.9 40 40 40z m561.4-29.5c5.8 21.3 27.8 33.9 49.1 28.1 21.3-5.8 33.9-27.8 28.1-49.1l-18.1-66.5c34.8 9.4 59.1 40.9 59.1 77 0 36.1-24.3 67.7-59.1 77-34.8 9.4-71.6-5.7-89.7-37-18.1-31.2-13-70.6 12.4-96.2l18.2 66.8z m-341.4-230.5c21.4-37.2 61.1-60.1 104-60.1 42.9 0 82.6 22.9 104 60.1 0.8 1.4 2.5 4.2 2.5 4.2l-160.3 137.3c-10.8-44.3-32.4-85.2-62.9-119.2l12.7-22.3z m402.1-47.4l-20-60c-4.5-13.6-1.5-28.5 8-39.2 9.6-10.7 24-15.6 38-12.6 14.1 2.8 25.5 13 30 26.5l20 60c7 21-4.4 43.6-25.4 50.7-21 7-43.6-4.4-50.6-25.4z"></path></svg>