<?xml version="1.0"?><svg xmlns="http://www.w3.org/2000/svg" width="960" height="960" viewBox="0 0 960 960"><path d="m800 400h-60l-36-48c-53-70.3-135.9-111.8-224-112h-84c-102.9 0-194.3 65.6-227.2 163-74.8 15-128.7 80.7-128.8 157v120h127.4c16.7 47.9 61.9 80 112.6 80 50.8 0 96-32.1 112.7-80h214.7c16.7 47.9 61.9 80 112.6 80 50.8 0 96-32.1 112.7-80h127.3v-120c0-88.4-71.6-160-160-160z m80 200h-47.4c-16.7-47.9-61.9-80-112.6-80-50.8 0-96 32.1-112.7 80h-214.7c-16.7-47.9-61.9-80-112.6-80-50.8 0-96 32.1-112.7 80h-47.3v-40c0-44.2 35.8-80 80-80h31.2l9.8-38.8c17.8-71.2 81.6-121.1 155-121.2h84c62.9 0.2 122.1 29.8 160 80l60 80h100c44.2 0 80 35.8 80 80v40z m-360-240h-160c-22.1 0-40 17.9-40 40s17.9 40 40 40h160c22.1 0 40-17.9 40-40s-17.9-40-40-40z"></path></svg>