<?xml version="1.0"?><svg xmlns="http://www.w3.org/2000/svg" width="960" height="960" viewBox="0 0 960 960"><path d="m160 720h40v160h560v-160h40c66.3 0 120-53.7 120-120v-200c0-66.3-53.7-120-120-120h-640c-66.3 0-120 53.7-120 120v200c0 66.3 53.7 120 120 120z m520 80h-400v-240h400v240z m-560-400c0-22.1 17.9-40 40-40h640c22.1 0 40 17.9 40 40v200c0 22.1-17.9 40-40 40h-40v-80c22.1 0 40-17.9 40-40s-17.9-40-40-40h-560c-22.1 0-40 17.9-40 40s17.9 40 40 40v80h-40c-22.1 0-40-17.9-40-40v-200z m120-160c-22.1 0-40-17.9-40-40v-120h560v120c0 22.1-17.9 40-40 40s-40-17.9-40-40v-40h-400v40c0 22.1-17.9 40-40 40z"></path></svg>