<?xml version="1.0" encoding="UTF-8"?>
<svg width="24px" height="24px" viewBox="0 0 24 24" version="1.1" xmlns="http://www.w3.org/2000/svg" xmlns:xlink="http://www.w3.org/1999/xlink">
    <!-- Generator: Sketch 45.1 (43504) - http://www.bohemiancoding.com/sketch -->
    <title>quote-1</title>
    <desc>Created with Sketch.</desc>
    <defs></defs>
    <g id="Page-1" stroke="none" stroke-width="1" fill="none" fill-rule="evenodd">
        <g id="quote-1" fill="#000000">
            <g id="Page-1" transform="translate(2.000000, 5.000000)">
                <path d="M8.5614,0.1738 C8.4994,0.1318 8.4294,0.1018 8.3584,0.0748 C8.3384,0.0668 8.3204,0.0538 8.3004,0.0468 C8.2044,0.0168 8.1034,-0.0002 8.0004,-0.0002 L1.0004,-0.0002 C0.8784,-0.0002 0.7614,0.0288 0.6504,0.0708 C0.6294,0.0788 0.6084,0.0848 0.5884,0.0938 C0.4874,0.1388 0.3964,0.2008 0.3154,0.2778 C0.2984,0.2938 0.2844,0.3108 0.2684,0.3288 C0.2424,0.3578 0.2124,0.3838 0.1884,0.4158 C0.1484,0.4718 0.1174,0.5328 0.0894,0.5948 C0.0864,0.6018 0.0804,0.6088 0.0774,0.6168 C0.0314,0.7268 0.0114,0.8448 0.0074,0.9638 C0.0064,0.9768 0.0004,0.9868 0.0004,0.9998 C0.0004,1.0098 0.0054,1.0168 0.0054,1.0258 C0.0074,1.1238 0.0194,1.2218 0.0514,1.3178 L4.0704,13.3178 C4.2094,13.7308 4.5944,13.9998 5.0174,13.9998 C5.0714,13.9998 5.1254,13.9958 5.1794,13.9868 C5.6634,13.9078 6.0184,13.4898 6.0184,12.9998 L6.0184,4.4428 C9.2754,1.4828 9.2094,1.3098 8.9554,0.6518 C8.8784,0.4538 8.7364,0.2888 8.5614,0.1738" id="Fill-1"></path>
                <path d="M19.8927,0.6519 C19.8167,0.4539 19.6737,0.2889 19.4987,0.1739 C19.4367,0.1309 19.3667,0.1019 19.2957,0.0749 C19.2757,0.0669 19.2587,0.0539 19.2377,0.0469 C19.1427,0.0169 19.0417,-0.0001 18.9377,-0.0001 L11.9377,-0.0001 C11.8157,-0.0001 11.6987,0.0289 11.5877,0.0709 C11.5667,0.0789 11.5467,0.0839 11.5257,0.0939 C11.4257,0.1389 11.3337,0.2009 11.2527,0.2779 C11.2357,0.2939 11.2227,0.3109 11.2067,0.3289 C11.1797,0.3579 11.1497,0.3839 11.1257,0.4159 C11.0857,0.4719 11.0547,0.5329 11.0277,0.5939 C11.0237,0.6019 11.0187,0.6089 11.0147,0.6169 C10.9687,0.7269 10.9497,0.8449 10.9447,0.9639 C10.9447,0.9769 10.9377,0.9869 10.9377,0.9999 C10.9377,1.0089 10.9427,1.0169 10.9427,1.0259 C10.9457,1.1239 10.9577,1.2219 10.9897,1.3179 L15.0077,13.3179 C15.1467,13.7309 15.5327,13.9999 15.9547,13.9999 C16.0087,13.9999 16.0627,13.9959 16.1177,13.9869 C16.6007,13.9079 16.9557,13.4899 16.9557,12.9999 L16.9557,4.4429 C20.2127,1.4829 20.1467,1.3099 19.8927,0.6519" id="Fill-4"></path>
            </g>
        </g>
    </g>
</svg>