<?xml version="1.0" encoding="UTF-8"?>
<svg width="24px" height="24px" viewBox="0 0 24 24" version="1.1" xmlns="http://www.w3.org/2000/svg" xmlns:xlink="http://www.w3.org/1999/xlink">
    <!-- Generator: Sketch 45.1 (43504) - http://www.bohemiancoding.com/sketch -->
    <title>refine-2</title>
    <desc>Created with Sketch.</desc>
    <defs></defs>
    <g id="Page-1" stroke="none" stroke-width="1" fill="none" fill-rule="evenodd">
        <g id="refine-2" fill="#000000">
            <g id="Refine-2" transform="translate(1.000000, 2.000000)">
                <path d="M0,0 L9,0 L9,9 L0,9 L0,0 Z M2,7 L7,7 L7,2 L2,2 L2,7 Z" id="Fill-2"></path>
                <path d="M0,11 L9,11 L9,20 L0,20 L0,11 Z M2,18 L7,18 L7,13 L2,13 L2,18 Z" id="Fill-3"></path>
                <polyline id="Fill-4" points="19 9 11 9 11 0 19 0 19 2 13 2 13 7 19 7 19 9"></polyline>
                <path d="M11,11 L20,11 L20,20 L11,20 L11,11 Z M13,18 L18,18 L18,13 L13,13 L13,18 Z" id="Fill-5"></path>
                <polyline id="Fill-6" points="16.96 7 14 4 15.414 2.586 16.96 4.172 20.586 0.586 22 2 16.96 7"></polyline>
            </g>
        </g>
    </g>
</svg>