<?xml version="1.0"?><svg xmlns="http://www.w3.org/2000/svg" width="960" height="960" viewBox="0 0 960 960"><path d="m800 520h-200c-44.2 0-80 35.8-80 80v200c0 44.2 35.8 80 80 80h200c44.2 0 80-35.8 80-80v-200c0-44.2-35.8-80-80-80z m-200 280v-200h200v200h-200z m-240-280c44.2 0 80 35.8 80 80v200c0 44.2-35.8 80-80 80h-200c-44.2 0-80-35.8-80-80v-200c0-44.2 35.8-80 80-80h200z m-200 280h200v-200h-200v200z m200-720c44.2 0 80 35.8 80 80v200c0 44.2-35.8 80-80 80h-200c-44.2 0-80-35.8-80-80v-200c0-44.2 35.8-80 80-80h200z m-200 280h200v-200h-200v200z m731.7-268.3c15.7-15.2 40.7-14.9 56.1 0.5 15.4 15.4 15.6 40.4 0.5 56.1l-268.3 268.3-148.3-148.3c-15.2-15.7-14.9-40.7 0.5-56.1 15.4-15.4 40.4-15.6 56.1-0.5l91.7 91.7 211.7-211.7z"></path></svg>