<?xml version="1.0"?><svg xmlns="http://www.w3.org/2000/svg" width="960" height="960" viewBox="0 0 960 960"><path d="m840 200c22.1 0 40 17.9 40 40s-17.9 40-40 40h-88.4c-16 36.3-51.9 59.8-91.6 59.8s-75.6-23.5-91.6-59.8h-381.6c-22 0-40-17.9-40-40s18-40 40-40h381.6c16-36.3 51.9-59.8 91.6-59.8s75.6 23.5 91.6 59.8h88.4z m0 240c22.1 0 40 17.9 40 40s-17.9 40-40 40h-448.4c-16 36.3-51.9 59.8-91.6 59.8s-75.6-23.5-91.6-59.8h-21.6c-22 0-40-17.9-40-40s18-40 40-40h21.6c16-36.3 51.9-59.8 91.6-59.8s75.6 23.5 91.6 59.8h448.4z m0 240c22.1 0 40 17.9 40 40s-17.9 40-40 40h-208.4c-16 36.3-51.9 59.8-91.6 59.8s-75.6-23.5-91.6-59.8h-261.6c-22 0-40-17.9-40-40s18-40 40-40h261.6c16-36.3 51.9-59.8 91.6-59.8s75.6 23.5 91.6 59.8h208.4z"></path></svg>