<?xml version="1.0"?><svg xmlns="http://www.w3.org/2000/svg" width="960" height="960" viewBox="0 0 960 960"><path d="m380 720c-153 0-287.2-102.3-327.8-249.9-40.5-147.6 22.5-304.1 154.1-382.3 131.6-78.3 299.2-59 409.5 47.2 110.3 106 136.1 272.8 63 407.3l229.5 229.4c20.1 17.9 32 43.2 32.9 70 1 26.8-9 52.9-27.8 72.2-17.8 17.6-41.9 27.5-67 27.5-28.4-0.5-55.2-12.4-74.6-33.1l-229.5-229.5c-49.8 27.2-105.6 41.3-162.3 41.2z m471.7 108.3l-220-220c-7.4 8.1-15.2 16-23.4 23.4l220 220c10.9 10.9 21.3 12.8 28.5 5.6 3-2.8 4.6-6.7 4.6-10.7-0.8-7.1-4.2-13.6-9.6-18.3z m-303.4-505l-228.3 228.3-128.3-128.3c-15.2-15.7-14.9-40.6 0.5-56.1 15.4-15.4 40.4-15.6 56.1-0.4l71.7 71.6 171.7-171.7c10-10.4 24.9-14.6 38.9-11 14 3.7 24.9 14.6 28.6 28.6 3.6 14-0.5 28.9-10.9 38.9z m-168.3-203.3c-143.5 0.2-259.8 116.5-260 260 0 143.6 116.4 260 260 260s260-116.4 260-260-116.4-260-260-260z"></path></svg>