<?xml version="1.0" encoding="UTF-8"?>
<svg width="24px" height="24px" viewBox="0 0 24 24" version="1.1" xmlns="http://www.w3.org/2000/svg" xmlns:xlink="http://www.w3.org/1999/xlink">
    <!-- Generator: Sketch 45.1 (43504) - http://www.bohemiancoding.com/sketch -->
    <title>search-2</title>
    <desc>Created with Sketch.</desc>
    <defs></defs>
    <g id="Page-1" stroke="none" stroke-width="1" fill="none" fill-rule="evenodd">
        <g id="search-2" fill="#000000">
            <g id="Seach-Minimal">
                <path d="M23.437,20.023 L18.559,15.145 C19.467,13.639 20,11.883 20,10 C20,4.486 15.514,0 10,0 C4.486,0 0,4.486 0,10 C0,15.514 4.486,20 10,20 C11.909,20 13.689,19.453 15.208,18.52 L19.908,23.334 L23.437,20.023 L23.437,20.023 Z M2,10 C2,5.589 5.589,2 10,2 C14.411,2 18,5.589 18,10 C18,14.411 14.411,18 10,18 C5.589,18 2,14.411 2,10 L2,10 Z M17.347,16.761 L20.563,19.977 L19.969,20.534 L16.812,17.3 C16.997,17.127 17.175,16.947 17.347,16.761 L17.347,16.761 Z" id="Fill-2"></path>
            </g>
        </g>
    </g>
</svg>