<?xml version="1.0"?><svg xmlns="http://www.w3.org/2000/svg" width="960" height="960" viewBox="0 0 960 960"><path d="m678.8 542.3l229.5 229.4c20.1 17.9 32 43.2 32.9 70 1 26.8-9.1 52.9-27.8 72.2-17.8 17.6-41.9 27.5-67 27.5-28.4-0.5-55.3-12.4-74.7-33.1l-229.4-229.5c-148.4 80.7-333.6 40-434.7-95.3-101-135.3-87.4-324.4 32-443.8 119.5-119.5 308.6-133.1 443.9-32.1 135.4 101.1 176 286.2 95.4 434.7z m-170.5-290.6c15.6 15.6 15.6 41 0 56.6l-71.7 71.7 71.7 71.7c15.2 15.7 14.9 40.7-0.5 56.1-15.4 15.4-40.4 15.6-56.1 0.5l-71.7-71.7-71.7 71.7c-10 10.4-24.9 14.5-38.9 10.9-14-3.7-24.9-14.6-28.6-28.6-3.6-14 0.5-28.8 10.9-38.9l71.7-71.7-71.7-71.7c-15.2-15.7-14.9-40.7 0.5-56.1 15.4-15.4 40.4-15.6 56.1-0.5l71.7 71.7 71.7-71.7c15.6-15.6 41-15.6 56.6 0z m-388.3 128.3c0.2 143.5 116.5 259.8 260 260 143.6 0 260-116.4 260-260s-116.4-260-260-260-260 116.4-260 260z m736.8 477.3c2.9-2.8 4.6-6.7 4.6-10.7-0.8-7.1-4.3-13.6-9.6-18.3l-220-220c-7.5 8.2-15.3 16-23.5 23.4l220 220c10.9 10.9 21.3 12.8 28.5 5.6z"></path></svg>