<?xml version="1.0" encoding="UTF-8"?>
<svg width="24px" height="24px" viewBox="0 0 24 24" version="1.1" xmlns="http://www.w3.org/2000/svg" xmlns:xlink="http://www.w3.org/1999/xlink">
    <!-- Generator: Sketch 45.1 (43504) - http://www.bohemiancoding.com/sketch -->
    <title>search-tangram</title>
    <desc>Created with Sketch.</desc>
    <defs></defs>
    <g id="Page-1" stroke="none" stroke-width="1" fill="none" fill-rule="evenodd">
        <g id="search-tangram" fill="#000000">
            <path d="M20.923,18.425 L17.716,15.332 C18.525,14.082 19,12.596 19,11 C19,6.589 15.412,3 11,3 C6.589,3 3,6.589 3,11 C3,15.411 6.589,19 11,19 C12.729,19 14.327,18.443 15.637,17.507 L18.793,20.551 C19.392,21.149 20.324,21.149 20.923,20.551 C21.488,19.987 21.488,19.023 20.923,18.425 L20.923,18.425 Z M5,11 C5,7.691 7.692,5 11,5 C14.309,5 17,7.691 17,11 C17,14.309 14.309,17 11,17 C7.692,17 5,14.309 5,11 L5,11 Z" id="Imported-Layers"></path>
        </g>
    </g>
</svg>