<?xml version="1.0" encoding="UTF-8"?>
<svg width="24px" height="24px" viewBox="0 0 24 24" version="1.1" xmlns="http://www.w3.org/2000/svg" xmlns:xlink="http://www.w3.org/1999/xlink">
    <!-- Generator: Sketch 45.1 (43504) - http://www.bohemiancoding.com/sketch -->
    <title>send-2</title>
    <desc>Created with Sketch.</desc>
    <defs></defs>
    <g id="Page-1" stroke="none" stroke-width="1" fill="none" fill-rule="evenodd">
        <g id="send-2" fill="#000000">
            <g id="Send-2" transform="translate(1.000000, 1.000000)">
                <path d="M21.538,0.8 C21.172,0.315 20.487,0.132 19.927,0.368 L1.242,8.255 C0.771,8.472 0.483,8.946 0.512,9.465 C0.54,9.983 0.876,10.424 1.368,10.588 L10.036,13.475 L14.114,21.327 C14.331,21.742 14.757,22 15.225,22 C15.791,22 16.275,21.635 16.434,21.084 L16.453,21.015 L16.5,21 L16.5,20.846 L21.763,1.986 C21.879,1.573 21.797,1.141 21.538,0.8 L21.538,0.8 Z M19.201,3.725 L18.5,6.238 L18.5,4.787 L19.201,3.725 L19.201,3.725 Z M18.453,3.161 L9.134,11.066 L3.875,9.315 L18.453,3.161 L18.453,3.161 Z M15.016,18.725 L14.5,17.732 L14.5,10.846 L15.5,9.331 L15.5,16.989 L15.016,18.725 L15.016,18.725 Z M13.5,15.806 L12.499,13.877 L13.5,12.361 L13.5,15.806 L13.5,15.806 Z M16.5,7.816 L17.5,6.302 L17.5,9.821 L16.5,13.405 L16.5,7.816 L16.5,7.816 Z" id="Fill-2"></path>
            </g>
        </g>
    </g>
</svg>