<?xml version="1.0"?><svg xmlns="http://www.w3.org/2000/svg" width="960" height="960" viewBox="0 0 960 960"><path d="m480 320c-88.4 0-160 71.6-160 160s71.6 160 160 160 160-71.6 160-160c0-42.4-16.8-83.1-46.9-113.1-30-30-70.7-46.9-113.1-46.9z m394.6 77.4c26.7 6.7 45.4 30.7 45.4 58.2v48.8c0 27.5-18.7 51.5-45.4 58.2l-92.8 23.2c-3.9 11.2-8.4 22.1-13.6 32.8l49.2 82c14.2 23.6 10.5 53.8-9 73.3l-34.5 34.5c-19.5 19.4-49.7 23.2-73.3 9l-82-49.2c-10.6 5.2-21.6 9.7-32.8 13.6l-23.2 92.8c-6.6 26.6-30.6 45.4-58.2 45.4h-48.8c-27.5 0-51.5-18.7-58.2-45.4l-23.2-92.8c-11.2-3.9-22.1-8.4-32.8-13.6l-82 49.2c-23.6 14.2-53.8 10.4-73.3-9l-34.5-34.6c-19.4-19.4-23.2-49.7-8.9-73.3l49.2-82c-5.2-10.6-9.7-21.6-13.6-32.8l-92.8-23.2c-26.8-6.5-45.5-30.5-45.5-58.1v-48.8c0-27.6 18.8-51.6 45.6-58.2l92.8-23.2c3.9-11.2 8.5-22.1 13.6-32.8l-49.4-82c-14.2-23.6-10.4-53.8 9-73.3l34.5-34.5c19.5-19.5 49.7-23.2 73.3-9l82 49.2c10.7-5.1 21.6-9.6 32.8-13.6l23.2-92.7c6.7-26.7 30.7-45.5 58.2-45.5h48.8c27.5 0 51.5 18.8 58.2 45.5l23.2 92.8c11.2 3.9 22.1 8.4 32.8 13.5l82-49.2c23.6-14.2 53.9-10.5 73.3 9.1l34.5 34.4c19.4 19.5 23.2 49.7 9 73.3l-49.2 82c5.1 10.7 9.6 21.6 13.5 32.8l92.8 23.2z m-394.6 162.6c-44.2 0-80-35.8-80-80s35.8-80 80-80 80 35.8 80 80-35.8 80-80 80z m360-71.2v-17.6l-88.6-22.3c-20.3-5-36.4-20.4-42.5-40.4-4.3-13.8-9.9-27.2-16.6-40-9.9-18.4-9.3-40.7 1.5-58.6l46.9-78.2-12.4-12.4-78.4 46.9c-17.9 10.8-40.2 11.4-58.6 1.5-12.8-6.7-26.2-12.3-40-16.5-20-6.2-35.3-22.3-40.4-42.5l-22.1-88.7h-17.6l-22.3 88.6c-5.1 20.3-20.4 36.4-40.4 42.5-13.8 4.3-27.2 9.9-40 16.6-18.4 9.8-40.7 9.3-58.6-1.5l-78.3-47-12.4 12.4 47 78.4c10.8 18 11.3 40.2 1.5 58.6-6.7 12.8-12.3 26.2-16.6 40-6.1 20-22.2 35.4-42.5 40.5l-88.6 22.2v17.5l88.6 22.2c20.3 5.1 36.4 20.4 42.5 40.4 4.3 13.8 9.9 27.2 16.6 40 9.8 18.4 9.3 40.7-1.5 58.6l-47 78.4 12.4 12.4 78.5-47c17.9-10.8 40.2-11.4 58.6-1.5 12.8 6.7 26.2 12.3 40 16.5 20 6.2 35.3 22.3 40.4 42.5l22.1 88.7h17.6l22.3-88.6c5.1-20.3 20.4-36.4 40.4-42.6 13.8-4.2 27.2-9.7 40-16.5 18.4-9.9 40.7-9.3 58.6 1.5l78.3 47 12.4-12.4-47-78.3c-10.8-17.9-11.4-40.1-1.5-58.6 6.7-12.8 12.3-26.2 16.5-40 6-20 22.2-35.4 42.6-40.5l88.6-22.2z"></path></svg>