<?xml version="1.0" encoding="UTF-8"?>
<svg width="24px" height="24px" viewBox="0 0 24 24" version="1.1" xmlns="http://www.w3.org/2000/svg" xmlns:xlink="http://www.w3.org/1999/xlink">
    <!-- Generator: Sketch 45.1 (43504) - http://www.bohemiancoding.com/sketch -->
    <title>settings-2</title>
    <desc>Created with Sketch.</desc>
    <defs></defs>
    <g id="Page-1" stroke="none" stroke-width="1" fill="none" fill-rule="evenodd">
        <g id="settings-2" fill="#000000">
            <g id="Settings-2" transform="translate(1.000000, 1.000000)">
                <path d="M20.383,8.486 L19.742,8.486 C19.585,7.953 19.378,7.437 19.122,6.94 L19.561,6.502 C19.885,6.178 20.047,5.721 20.007,5.249 C19.972,4.834 19.784,4.438 19.48,4.133 L18.164,2.818 C17.514,2.167 16.405,2.127 15.796,2.736 L15.396,3.136 C14.89,2.861 14.36,2.638 13.812,2.468 L13.812,1.915 C13.812,1.023 13.034,0.297 12.078,0.297 L10.219,0.297 C9.264,0.297 8.486,1.023 8.486,1.915 L8.486,2.468 C7.938,2.638 7.407,2.861 6.901,3.135 L6.502,2.736 C5.893,2.127 4.783,2.166 4.133,2.818 L2.818,4.133 C2.143,4.809 2.106,5.871 2.736,6.502 L3.176,6.94 C2.92,7.437 2.713,7.953 2.556,8.486 L1.915,8.486 C1.023,8.486 0.297,9.263 0.297,10.219 L0.297,12.078 C0.297,13.034 1.023,13.811 1.915,13.811 L2.634,13.811 C2.8,14.316 3.009,14.804 3.261,15.27 L2.736,15.795 C2.106,16.426 2.143,17.488 2.818,18.164 L4.133,19.479 C4.784,20.132 5.894,20.17 6.502,19.56 L7.065,18.996 C7.523,19.231 7.997,19.426 8.486,19.579 L8.486,20.382 C8.486,21.274 9.264,22 10.219,22 L12.078,22 C13.034,22 13.812,21.274 13.812,20.382 L13.812,19.579 C14.3,19.426 14.774,19.231 15.231,18.996 L15.796,19.56 C16.405,20.17 17.514,20.13 18.164,19.479 L19.48,18.164 C19.784,17.859 19.972,17.462 20.007,17.047 C20.047,16.576 19.885,16.119 19.561,15.795 L19.036,15.27 C19.289,14.803 19.498,14.315 19.663,13.811 L20.383,13.811 C21.274,13.811 22,13.034 22,12.078 L22,10.219 C22,9.263 21.274,8.486 20.383,8.486 L20.383,8.486 Z M20,11.811 L18.108,11.811 L17.93,12.587 C17.742,13.403 17.411,14.172 16.944,14.872 L16.491,15.554 L17.876,16.939 L16.94,17.876 L16.165,17.104 L15.621,16.424 L14.865,16.903 C14.164,17.348 13.402,17.66 12.6,17.831 L11.808,17.999 L11.812,20 L10.486,20 L10.485,18.904 L10.57,18.016 L9.698,17.831 C8.895,17.659 8.133,17.348 7.434,16.904 L6.793,16.497 L5.358,17.876 L4.421,16.939 L5.808,15.553 L5.353,14.87 C4.888,14.174 4.557,13.405 4.367,12.586 L4.188,11.811 L2.297,11.811 L2.297,10.486 L4.162,10.486 L4.32,9.678 C4.485,8.837 4.804,8.04 5.268,7.309 L5.696,6.632 L4.421,5.358 L5.358,4.421 L6.618,5.682 L7.301,5.227 C8.032,4.739 8.838,4.399 9.694,4.217 L10.486,4.048 L10.486,2.297 L11.812,2.297 L11.812,4.048 L12.604,4.217 C13.459,4.399 14.265,4.739 14.996,5.227 L15.678,5.682 L16.94,4.421 L17.876,5.358 L16.602,6.633 L17.03,7.309 C17.494,8.04 17.813,8.837 17.977,9.678 L18.136,10.486 L20,10.486 L20,11.811 L20,11.811 Z" id="Fill-2"></path>
                <path d="M13.779,13.475 C12.457,14.797 10.152,14.797 8.83,13.475 C7.466,12.11 7.466,9.89 8.83,8.525 C9.958,7.396 11.708,7.174 13.081,7.983 L13.589,7.122 C11.824,6.08 9.575,6.367 8.123,7.818 C6.368,9.572 6.368,12.428 8.123,14.182 C8.973,15.032 10.102,15.5 11.305,15.5 C12.507,15.5 13.637,15.032 14.486,14.182 C15.057,13.612 15.463,12.901 15.662,12.125 L14.693,11.877 C14.539,12.478 14.223,13.032 13.779,13.475" id="Fill-3"></path>
                <path d="M14.686,10.094 C14.765,10.388 14.805,10.692 14.805,11 L15.805,11 C15.805,10.605 15.753,10.213 15.652,9.835 L14.686,10.094" id="Fill-4"></path>
                <path d="M15.182,8.713 C14.989,8.388 14.755,8.087 14.486,7.818 L13.779,8.525 C13.989,8.734 14.171,8.969 14.32,9.222 L15.182,8.713" id="Fill-5"></path>
            </g>
        </g>
    </g>
</svg>