<?xml version="1.0" encoding="UTF-8"?>
<svg width="24px" height="24px" viewBox="0 0 24 24" version="1.1" xmlns="http://www.w3.org/2000/svg" xmlns:xlink="http://www.w3.org/1999/xlink">
    <!-- Generator: Sketch 45.1 (43504) - http://www.bohemiancoding.com/sketch -->
    <title>shield-2</title>
    <desc>Created with Sketch.</desc>
    <defs></defs>
    <g id="Page-1" stroke="none" stroke-width="1" fill="none" fill-rule="evenodd">
        <g id="shield-2" fill="#000000">
            <g id="Shield-2" transform="translate(3.000000, 2.000000)">
                <path d="M0,0 L0,12 C0,14.578 1.328,16.782 3.628,17.929 L9,20.077 L14.447,17.894 C16.672,16.782 18,14.578 18,12 L18,0 L0,0 L0,0 Z M2,5.817 L6.581,2 L8.5,2 L8.5,2.771 L2,8.392 L2,5.817 L2,5.817 Z M2,12 L2,9.713 L8.5,4.093 L8.5,6.771 L2.023,12.372 C2.015,12.248 2,12.127 2,12 L2,12 Z M8.5,8.093 L8.5,10.771 L3.295,15.272 C2.805,14.784 2.446,14.188 2.234,13.511 L8.5,8.093 L8.5,8.093 Z M5.019,2 L2,4.516 L2,2 L5.019,2 L5.019,2 Z M8.5,17.723 L7.21,17.208 L8.5,16.093 L8.5,17.723 L8.5,17.723 Z M16,12 C16,13.831 15.108,15.328 13.628,16.071 L9.5,17.723 L9.5,14 L8.5,14 L8.5,14.771 L6.164,16.791 L4.447,16.106 C4.324,16.044 4.212,15.97 4.097,15.9 L8.5,12.093 L8.5,13 L9.5,13 L9.5,2 L16,2 L16,12 L16,12 Z" id="Fill-2"></path>
            </g>
        </g>
    </g>
</svg>