<?xml version="1.0"?><svg xmlns="http://www.w3.org/2000/svg" width="960" height="960" viewBox="0 0 960 960"><path d="m880 440c0-88.4-71.6-160-160-160h-280v-80c0-44.2-35.8-80-80-80h-160c-44.2 0-80 35.8-80 80v80c0 15 4.4 29.7 12.4 42.4-33.3 30-52.3 72.8-52.4 117.6v160h-40v280h880v-280h-40v-160z m-680-160v-80h160v80h-160z m-40 160c0-44.2 35.8-80 80-80h480c44.2 0 80 35.8 80 80v160h-640v-160z m680 360h-720v-120h720v120z m-360 0c33.1 0 60-26.9 60-60s-26.9-60-60-60-60 26.9-60 60 26.9 60 60 60z m200-360c22.1 0 40 17.9 40 40s-17.9 40-40 40h-400c-22.1 0-40-17.9-40-40s17.9-40 40-40h400z"></path></svg>