<?xml version="1.0"?><svg xmlns="http://www.w3.org/2000/svg" width="960" height="960" viewBox="0 0 960 960"><path d="m280 160c-28 0-120 2.9-120 40s92 40 120 40h480c66.3 0 120 53.7 120 120v360c0 66.3-53.7 120-120 120h-480c-180.5 0-200-112-200-160v-492c0.1-5.8 1.5-11.4 4-16.6 11.6-42.4 55.5-91.4 196-91.4h520c22.1 0 40 17.9 40 40s-17.9 40-40 40h-520z m340 460c-44.2 0-80-35.8-80-80s35.8-80 80-80 80 35.8 80 80-35.8 80-80 80z m-340-300c-40.7 1.2-81.4-4.7-120-17.6v377.6c0 21.9 0 80 120 80h480c22.1 0 40-17.9 40-40v-360c0-22.1-17.9-40-40-40h-480z"></path></svg>