<?xml version="1.0"?><svg xmlns="http://www.w3.org/2000/svg" width="960" height="960" viewBox="0 0 960 960"><path d="m282.5 880h397.5c88.4 0 160-71.6 160-160v-520h-164c-18.9-93.2-100.9-160.2-196-160.2-95.1 0-177.1 67-196 160.2h-161.5v520c0 88.4 71.6 160 160 160z m197.5-760c50.7 0.2 95.8 32.2 112.6 80h-225.2c16.8-47.8 62-79.8 112.6-80z m-277.5 160h77.5v160c0 22.1 17.9 40 40 40s40-17.9 40-40v-160h240v160c0 22.1 17.9 40 40 40s40-17.9 40-40v-160h80v440c0 44.2-35.8 80-80 80h-397.5c-44.2 0-80-35.8-80-80v-440z"></path></svg>