<?xml version="1.0" encoding="UTF-8"?>
<svg width="24px" height="24px" viewBox="0 0 24 24" version="1.1" xmlns="http://www.w3.org/2000/svg" xmlns:xlink="http://www.w3.org/1999/xlink">
    <!-- Generator: Sketch 45.1 (43504) - http://www.bohemiancoding.com/sketch -->
    <title>social-twitter-2</title>
    <desc>Created with Sketch.</desc>
    <defs></defs>
    <g id="Page-1" stroke="none" stroke-width="1" fill="none" fill-rule="evenodd">
        <g id="social-twitter-2" fill="#000000">
            <g id="Imported-Layers">
                <path d="M12,24 C5.383,24 0,18.617 0,12 C0,5.383 5.383,0 12,0 C18.617,0 24,5.383 24,12 C24,18.617 18.617,24 12,24 L12,24 Z M12,2 C6.486,2 2,6.486 2,12 C2,17.514 6.486,22 12,22 C17.514,22 22,17.514 22,12 C22,6.486 17.514,2 12,2 L12,2 Z" id="Fill-1"></path>
                <path d="M19,8.627 C18.522,8.835 18.01,8.976 17.474,9.041 C17.47,9.031 17.465,9.022 17.461,9.012 C18.029,8.68 18.468,8.151 18.684,7.518 C18.52,7.619 17.726,8.066 16.952,8.211 C16.447,7.657 15.72,7.309 14.911,7.309 C13.203,7.309 12.15,8.711 12.15,10.07 C12.15,10.176 12.201,10.614 12.209,10.639 C9.914,10.59 7.879,9.485 6.568,7.791 C5.629,9.5 6.612,10.982 7.286,11.51 C6.895,11.504 6.522,11.42 6.183,11.272 C6.255,12.586 7.206,13.666 8.458,13.935 C7.956,14.076 7.354,13.968 7.122,13.908 C7.492,15.008 8.506,15.812 9.716,15.871 C7.864,17.232 5.867,17.093 5.835,17.092 C7.009,17.796 8.382,18.21 9.85,18.2 C15.227,18.165 17.989,13.392 17.661,9.967 C18.249,9.692 18.726,9.216 19,8.627" id="Fill-2"></path>
            </g>
        </g>
    </g>
</svg>