<?xml version="1.0" encoding="UTF-8"?>
<svg width="24px" height="24px" viewBox="0 0 24 24" version="1.1" xmlns="http://www.w3.org/2000/svg" xmlns:xlink="http://www.w3.org/1999/xlink">
    <!-- Generator: Sketch 45.1 (43504) - http://www.bohemiancoding.com/sketch -->
    <title>social-flickr-1</title>
    <desc>Created with Sketch.</desc>
    <defs></defs>
    <g id="Page-1" stroke="none" stroke-width="1" fill="none" fill-rule="evenodd">
        <g id="social-flickr-1" fill="#000000">
            <g id="Imported-Layers" transform="translate(2.000000, 3.000000)">
                <path d="M15,1 C17.209,1 19,2.791 19,5 C19,7.209 17.209,9 15,9 C12.791,9 11,7.209 11,5 C11,2.791 12.791,1 15,1 M15,0 C12.243,0 10,2.243 10,5 C10,7.757 12.243,10 15,10 C17.757,10 20,7.757 20,5 C20,2.243 17.757,0 15,0" id="Fill-1"></path>
                <path d="M0,5 C0,2.239 2.239,0 5,0 C7.761,0 10,2.239 10,5 C10,7.761 7.761,10 5,10 C2.239,10 0,7.761 0,5" id="Fill-2"></path>
                <path d="M13.889,15.561 C14.204,15.084 14.529,14.614 14.831,14.129 C14.945,13.945 15.072,13.876 15.285,13.886 C15.652,13.903 16.02,13.891 16.383,13.891 C16.421,13.994 16.346,14.037 16.308,14.091 C15.96,14.572 15.619,15.059 15.253,15.526 C15.115,15.703 15.131,15.818 15.252,15.991 C15.644,16.551 16.019,17.122 16.396,17.692 C16.443,17.763 16.521,17.822 16.519,17.946 C16.033,17.946 15.55,17.943 15.067,17.948 C14.922,17.949 14.892,17.842 14.843,17.75 C14.569,17.244 14.298,16.737 14.025,16.23 C13.98,16.146 13.93,16.064 13.827,15.988 C13.827,16.394 13.834,16.8 13.825,17.206 C13.819,17.445 13.931,17.753 13.773,17.905 C13.629,18.043 13.327,17.943 13.095,17.944 C12.49,17.949 12.489,17.946 12.489,17.347 C12.489,15.692 12.494,14.036 12.484,12.381 C12.483,12.155 12.544,12.082 12.768,12.097 C13.046,12.116 13.326,12.112 13.605,12.098 C13.783,12.09 13.832,12.15 13.831,12.326 C13.823,13.342 13.827,14.359 13.827,15.376 L13.827,15.533 C13.848,15.542 13.868,15.551 13.889,15.561" id="Fill-3"></path>
                <path d="M2.116,16.417 C2.116,16.858 2.108,17.299 2.12,17.739 C2.124,17.909 2.068,17.957 1.905,17.951 C1.608,17.939 1.31,17.937 1.014,17.951 C0.833,17.959 0.788,17.893 0.789,17.72 C0.797,16.866 0.784,16.011 0.798,15.156 C0.802,14.924 0.749,14.843 0.503,14.852 C0,14.87 0,14.856 0,14.347 C0,13.89 0.001,13.873 0.474,13.897 C0.748,13.911 0.846,13.833 0.814,13.557 C0.79,13.352 0.836,13.145 0.888,12.944 C1.009,12.472 1.312,12.182 1.783,12.071 C2.173,11.979 2.566,11.982 2.961,12.048 C3.089,12.07 3.132,12.123 3.109,12.245 C3.098,12.307 3.095,12.37 3.089,12.433 C3.072,12.603 3.109,12.806 3.027,12.933 C2.933,13.078 2.722,12.945 2.561,12.969 C2.249,13.014 1.976,13.544 2.13,13.825 C2.154,13.87 2.19,13.887 2.238,13.888 C2.292,13.889 2.346,13.886 2.4,13.891 C2.621,13.909 2.936,13.787 3.042,13.941 C3.183,14.146 3.077,14.462 3.087,14.73 C3.091,14.843 3.018,14.859 2.928,14.858 C2.739,14.856 2.549,14.868 2.361,14.855 C2.177,14.842 2.107,14.901 2.112,15.095 C2.125,15.535 2.116,15.976 2.116,16.417" id="Fill-4"></path>
                <path d="M11.758,14.997 C11.006,14.709 10.511,14.762 10.173,15.16 C9.875,15.513 9.809,16.121 10.066,16.5 C10.533,17.189 11.189,17.082 11.898,16.86 C11.898,17.171 11.894,17.457 11.9,17.743 C11.903,17.845 11.861,17.886 11.77,17.91 C11.007,18.112 10.255,18.129 9.541,17.742 C8.775,17.328 8.391,16.463 8.547,15.558 C8.708,14.621 9.343,13.992 10.274,13.838 C10.753,13.759 11.222,13.776 11.684,13.935 C11.822,13.982 11.896,14.04 11.859,14.205 C11.802,14.458 11.837,14.725 11.758,14.997" id="Fill-5"></path>
                <path d="M3.83,14.998 C3.83,14.107 3.835,13.216 3.826,12.326 C3.825,12.149 3.876,12.092 4.053,12.1 C4.35,12.113 4.647,12.111 4.944,12.1 C5.103,12.095 5.165,12.135 5.164,12.308 C5.159,14.117 5.159,15.926 5.164,17.734 C5.164,17.901 5.112,17.954 4.949,17.947 C4.67,17.935 4.39,17.929 4.112,17.948 C3.893,17.963 3.82,17.903 3.824,17.671 C3.839,16.78 3.83,15.889 3.83,14.998" id="Fill-6"></path>
                <path d="M18.371,14.588 C18.437,14.485 18.498,14.377 18.57,14.278 C18.865,13.872 19.352,13.705 19.834,13.826 C19.935,13.851 19.969,13.886 19.961,13.987 C19.94,14.255 19.921,14.524 19.911,14.793 C19.906,14.931 19.859,14.985 19.716,14.966 C18.766,14.837 18.465,15.475 18.45,16.146 C18.439,16.667 18.437,17.189 18.448,17.71 C18.452,17.902 18.388,17.958 18.203,17.949 C17.907,17.935 17.61,17.939 17.313,17.948 C17.167,17.952 17.109,17.914 17.109,17.754 C17.115,16.532 17.114,15.309 17.111,14.087 C17.111,13.96 17.129,13.884 17.284,13.89 C17.571,13.899 17.859,13.897 18.146,13.89 C18.276,13.887 18.323,13.936 18.318,14.063 C18.311,14.231 18.316,14.4 18.316,14.568 C18.334,14.575 18.352,14.582 18.371,14.588" id="Fill-7"></path>
                <path d="M6.361,15.92 C6.361,15.327 6.37,14.734 6.356,14.142 C6.351,13.935 6.418,13.879 6.616,13.891 C6.902,13.906 7.191,13.901 7.477,13.892 C7.625,13.888 7.684,13.93 7.683,14.088 C7.678,15.309 7.678,16.53 7.683,17.751 C7.684,17.909 7.625,17.95 7.478,17.945 C7.173,17.937 6.867,17.933 6.562,17.947 C6.385,17.954 6.357,17.877 6.359,17.725 C6.365,17.123 6.361,16.522 6.361,15.92" id="Fill-8"></path>
                <path d="M7.011,13.197 C6.358,13.197 6.358,13.197 6.359,12.543 C6.359,12.199 6.359,12.199 6.705,12.199 C6.965,12.199 7.225,12.206 7.484,12.197 C7.637,12.191 7.69,12.248 7.683,12.399 C7.674,12.604 7.674,12.811 7.683,13.017 C7.689,13.161 7.632,13.206 7.495,13.199 C7.334,13.19 7.172,13.197 7.011,13.197" id="Fill-9"></path>
            </g>
        </g>
    </g>
</svg>