<?xml version="1.0"?><svg xmlns="http://www.w3.org/2000/svg" width="960" height="960" viewBox="0 0 960 960"><path fill-rule="evenodd" d="m820.8 80h-681.7c-32.6 0-59.1 25.8-59.1 57.6v684.7c0 31.8 26.5 57.7 59.1 57.7h681.7c32.6 0 59.2-25.9 59.2-57.7v-684.7c0-31.7-26.6-57.6-59.2-57.6z m-622.2 681.7h118.6l0.1-381.8h-118.7v381.8z m59.4-434c-38.1 0-68.8-30.8-68.8-68.8 0-37.9 30.7-68.7 68.8-68.7 37.9 0 68.7 30.8 68.7 68.8s-30.8 68.8-68.7 68.8z m503.6 434h-118.4v-185.7c0-44.2-0.8-101.2-61.6-101.2-61.8 0-71.3 48.2-71.3 98v188.9h-118.6v-381.8h113.8v52.2h1.6c15.9-30 54.6-61.6 112.3-61.6 120.2 0 142.3 79 142.3 181.8l0.1 209.4z"></path></svg>