<?xml version="1.0" encoding="UTF-8"?>
<svg width="24px" height="24px" viewBox="0 0 24 24" version="1.1" xmlns="http://www.w3.org/2000/svg" xmlns:xlink="http://www.w3.org/1999/xlink">
    <!-- Generator: Sketch 45.1 (43504) - http://www.bohemiancoding.com/sketch -->
    <title>social-intagram-1</title>
    <desc>Created with Sketch.</desc>
    <defs></defs>
    <g id="Page-1" stroke="none" stroke-width="1" fill="none" fill-rule="evenodd">
        <g id="social-intagram-1" fill="#000000">
            <g id="Imported-Layers" transform="translate(2.000000, 2.000000)">
                <path d="M10,13.995 C12.203,13.995 13.995,12.203 13.995,10 C13.995,7.797 12.203,6.005 10,6.005 C7.797,6.005 6.005,7.797 6.005,10 C6.005,12.203 7.797,13.995 10,13.995" id="Fill-1"></path>
                <path d="M18,0 L2,0 C0.9,0 0,0.9 0,2 L0,18 C0,19.1 0.9,20 2,20 L18,20 C19.1,20 20,19.1 20,18 L20,2 C20,0.9 19.1,0 18,0 L18,0 Z M10,5.005 C12.754,5.005 14.995,7.246 14.995,10 C14.995,12.754 12.754,14.995 10,14.995 C7.246,14.995 5.005,12.754 5.005,10 C5.005,7.246 7.246,5.005 10,5.005 L10,5.005 Z M15,4.501 L15,2.499 C15,2.225 15.225,2 15.499,2 L17.501,2 C17.775,2 18,2.225 18,2.499 L18,4.501 C18,4.775 17.775,5 17.501,5 L15.499,5 C15.225,5 15,4.775 15,4.501 L15,4.501 Z M2,18 L2,8 L3.3,8 C3.11,8.634 3.005,9.305 3.005,10 C3.005,13.857 6.143,16.995 10,16.995 C13.857,16.995 16.995,13.857 16.995,10 C16.995,9.305 16.89,8.634 16.7,8 L18,8 L18,18 L2,18 L2,18 Z" id="Fill-2"></path>
            </g>
        </g>
    </g>
</svg>