<?xml version="1.0" encoding="UTF-8"?>
<svg width="24px" height="24px" viewBox="0 0 24 24" version="1.1" xmlns="http://www.w3.org/2000/svg" xmlns:xlink="http://www.w3.org/1999/xlink">
    <!-- Generator: Sketch 45.1 (43504) - http://www.bohemiancoding.com/sketch -->
    <title>sound-1-on</title>
    <desc>Created with Sketch.</desc>
    <defs></defs>
    <g id="Page-1" stroke="none" stroke-width="1" fill="none" fill-rule="evenodd">
        <g id="sound-1-on" fill="#000000">
            <g id="Sound-1-On" transform="translate(1.000000, 2.000000)">
                <path d="M13,20 L10.52,20 L6.519,15 L0,15 L0,5 L6.519,5 L10.52,0 L13,0 L13,20 L13,20 Z M2,13 L7.481,13 L11,17.399 L11,2.601 L7.481,7 L2,7 L2,13 L2,13 Z" id="Fill-2"></path>
                <polygon id="Fill-3" points="16.021 9 20.842 9 20.842 11 16.021 11"></polygon>
                <polyline id="Fill-4" points="15 15.716 16.027 14 20.412 16.623 19.386 18.34 15 15.716"></polyline>
                <polyline id="Fill-5" points="19.348 1.613 20.399 3.315 16.051 6 15 4.298 19.348 1.613"></polyline>
            </g>
        </g>
    </g>
</svg>