<?xml version="1.0"?><svg xmlns="http://www.w3.org/2000/svg" width="960" height="960" viewBox="0 0 960 960"><path d="m240 700h40.6c0.4 0 0.8-0.2 1.2-0.2 46.1 113.3 158.4 185.4 280.7 180.2 10.8 0 21.2-4.4 28.7-12.2 7.6-7.7 11.6-18.2 11.3-29l-2.5-80c-1.3-21.9-19.4-38.9-41.2-38.8-10.6 0.3-20.7 4.8-27.9 12.5-7.3 7.7-11.2 18-10.9 28.7l1.1 36c-180-26.6-200.5-227.4-200.5-317.1 0-89.8 20.5-290.6 200.5-317.1l-1.1 36c-0.7 22.1 16.7 40.6 38.8 41.2 22 0.7 40.5-16.6 41.2-38.7l2.5-80c0.3-10.8-3.7-21.3-11.3-29.1-7.5-7.8-17.9-12.1-28.7-12.1-122.2-5.3-234.6 66.7-280.7 180-0.4 0-0.8-0.3-1.2-0.3h-40.6c-89.7 0-160 96.6-160 220s70.3 220 160 220z m0-360h15.5c-10.2 46-15.2 92.9-14.9 140-0.3 47.1 4.7 94 14.9 140h-15.5c-37.8 0-80-57.5-80-140 0-82.5 42.2-140 80-140z m548.3-8.3c15.6 15.6 15.6 40.9 0 56.6l-91.7 91.7 91.7 91.7c15.2 15.7 14.9 40.7-0.5 56.1-15.4 15.4-40.4 15.6-56.1 0.5l-91.7-91.7-91.7 91.7c-10 10.4-24.9 14.5-38.9 10.9-14-3.7-24.9-14.6-28.6-28.6-3.6-14 0.5-28.8 10.9-38.9l91.7-91.7-91.7-91.7c-15.2-15.7-14.9-40.7 0.5-56.1 15.4-15.4 40.4-15.6 56.1-0.5l91.7 91.7 91.7-91.7c15.6-15.6 41-15.6 56.6 0z"></path></svg>