<?xml version="1.0" encoding="UTF-8"?>
<svg width="24px" height="24px" viewBox="0 0 24 24" version="1.1" xmlns="http://www.w3.org/2000/svg" xmlns:xlink="http://www.w3.org/1999/xlink">
    <!-- Generator: Sketch 45.1 (43504) - http://www.bohemiancoding.com/sketch -->
    <title>sound-2</title>
    <desc>Created with Sketch.</desc>
    <defs></defs>
    <g id="Page-1" stroke="none" stroke-width="1" fill="none" fill-rule="evenodd">
        <g id="sound-2" fill="#000000">
            <g id="Sound-2" transform="translate(1.000000, 1.000000)">
                <path d="M15,7 L15,15 C15,15 17,14.042 17,11 C17,7.958 15,7 15,7" id="Fill-2"></path>
                <path d="M15,19 L15,17 C15.166,16.964 19,16.046 19,11 C19,5.955 15.171,5.038 15,5 L15,3 C17.167,3.375 21,5.634 21,11 C21,16.366 17.333,18.5 15,19" id="Fill-3"></path>
                <path d="M13,21.081 L6.649,16 L0,16 L0,6 L6.649,6 L13,0.919 L13,21.081 L13,21.081 Z M2,14 L7.351,14 L11,16.919 L11,5.081 L7.351,8 L2,8 L2,14 L2,14 Z" id="Fill-4"></path>
            </g>
        </g>
    </g>
</svg>