<?xml version="1.0" encoding="UTF-8"?>
<svg width="24px" height="24px" viewBox="0 0 24 24" version="1.1" xmlns="http://www.w3.org/2000/svg" xmlns:xlink="http://www.w3.org/1999/xlink">
    <!-- Generator: Sketch 45.1 (43504) - http://www.bohemiancoding.com/sketch -->
    <title>speech-bubble-2a</title>
    <desc>Created with Sketch.</desc>
    <defs></defs>
    <g id="Page-1" stroke="none" stroke-width="1" fill="none" fill-rule="evenodd">
        <g id="speech-bubble-2a" fill="#000000">
            <g id="Speech-bubble-2a" transform="translate(1.000000, 3.000000)">
                <path d="M22,0 L0,0 L0,15.944 L3,15.944 L3,19 L6.549,15.944 L22,15.944 L22,0 L22,0 Z M2,2 L20,2 L20,13.944 L2,13.944 L2,2 Z" id="Fill-2"></path>
                <polyline id="Fill-3" points="18.354 4.353 17.646 3.646 12.646 8.646 13.353 9.354 18.354 4.353"></polyline>
                <polyline id="Fill-4" points="15.646 8.646 16.353 9.354 18.354 7.353 17.646 6.646 15.646 8.646"></polyline>
                <polyline id="Fill-5" points="15.354 4.353 14.646 3.646 12.646 5.646 13.353 6.354 15.354 4.353"></polyline>
            </g>
        </g>
    </g>
</svg>