<?xml version="1.0" encoding="UTF-8"?>
<svg width="24px" height="24px" viewBox="0 0 24 24" version="1.1" xmlns="http://www.w3.org/2000/svg" xmlns:xlink="http://www.w3.org/1999/xlink">
    <!-- Generator: Sketch 45.1 (43504) - http://www.bohemiancoding.com/sketch -->
    <title>star</title>
    <desc>Created with Sketch.</desc>
    <defs></defs>
    <g id="Page-1" stroke="none" stroke-width="1" fill="none" fill-rule="evenodd">
        <g id="star" fill="#000000">
            <g id="Star-1" transform="translate(0.000000, 1.000000)">
                <path d="M17.679,20.859 L17.384,20.725 L11.905,17.845 L6.211,20.839 L5.887,20.859 C5.542,20.859 5.217,20.707 4.994,20.443 C4.773,20.18 4.679,19.834 4.737,19.494 L5.783,13.396 L1.352,9.078 C1.032,8.766 0.919,8.308 1.058,7.882 C1.195,7.457 1.556,7.153 1.998,7.088 L8.122,6.198 L10.86,0.65 C11.056,0.25 11.457,0 11.906,0 C12.352,0 12.752,0.248 12.951,0.647 L15.69,6.198 L21.812,7.088 C22.256,7.153 22.617,7.457 22.755,7.883 C22.893,8.308 22.779,8.766 22.46,9.078 L18.029,13.396 L19.074,19.495 C19.133,19.834 19.039,20.18 18.817,20.443 C18.595,20.707 18.269,20.859 17.925,20.859 L17.679,20.859 L17.679,20.859 Z M11.905,15.737 C12.093,15.737 12.279,15.782 12.444,15.869 L16.818,18.168 L15.984,13.303 C15.916,12.924 16.044,12.532 16.328,12.262 L19.855,8.825 L14.969,8.115 C14.591,8.06 14.264,7.823 14.093,7.481 L11.906,3.05 L9.721,7.477 C9.558,7.817 9.227,8.06 8.841,8.115 L3.958,8.824 L7.493,12.27 C7.765,12.536 7.891,12.918 7.83,13.294 L6.994,18.168 L11.581,15.756 L11.905,15.737 L11.905,15.737 Z" id="Fill-2"></path>
            </g>
        </g>
    </g>
</svg>