<?xml version="1.0"?><svg xmlns="http://www.w3.org/2000/svg" width="960" height="960" viewBox="0 0 960 960"><path d="m252.3 582.4l-169.7-165.4c-10.9-10.6-14.8-26.5-10.1-41 4.7-14.5 17.2-25 32.3-27.2l234.5-34 105-212.5c7.5-12.7 21.1-20.5 35.9-20.5 14.7 0 28.4 7.8 35.8 20.5l104.8 212.4 234.4 34.1c15.2 2.2 27.9 13 32.4 27.7 4.6 14.7 0.4 30.7-10.9 41.2l-89.4 82.9c-10.4 10-25.4 13.6-39.2 9.4-13.9-4.2-24.3-15.5-27.5-29.6-3.1-14.1 1.6-28.8 12.4-38.4l28-26.1-172.5-25c-13.1-1.9-24.3-10.1-30.1-21.9l-78.4-158.6-78.3 158.6c-5.8 11.8-17.1 20-30.1 21.9l-175.1 25.4 126.7 123.7c9.4 9.2 13.6 22.3 11.5 35.2l-29.9 174.4 156.6-82.2c11.6-6.2 25.6-6.2 37.2 0l228.4 120c19.6 10.3 27 34.5 16.8 54.1-10.4 19.6-34.6 27-54.1 16.8l-209.7-110.3-209.6 110.1c-13.5 7.1-29.8 5.9-42.2-3.1-12.3-8.9-18.4-24.1-15.9-39.1l40-233.5z m667.7 17.6c22.1 0 40 17.9 40 40s-17.9 40-40 40h-200c-22.1 0-40-17.9-40-40s17.9-40 40-40h200z"></path></svg>