<?xml version="1.0"?><svg xmlns="http://www.w3.org/2000/svg" width="960" height="960" viewBox="0 0 960 960"><path d="m252.3 582.4l-169.7-165.4c-10.9-10.6-14.8-26.5-10.1-41 4.7-14.5 17.2-25 32.3-27.2l234.5-34 105-212.5c7.5-12.7 21.2-20.5 35.9-20.5 14.7 0 28.4 7.8 35.8 20.5l104.7 212.4 234.4 34.1c14.4 1.8 26.6 11.2 32 24.6 5.5 13.4 3.3 28.7-5.7 40-9 11.3-23.4 16.8-37.7 14.6l-255.2-37.2c-13.1-1.8-24.3-10-30.1-21.8l-78.4-158.6-78.3 158.6c-5.8 11.8-17.1 20-30.1 21.9l-175 25.4 126.8 123.7c9.4 9.2 13.6 22.4 11.4 35.4l-30.4 177.8 38.4-18.5 22-10.5c13-7.1 28.8-6.4 41.1 1.7 12.3 8.1 19.2 22.4 17.9 37.1-1.4 14.7-10.8 27.4-24.4 33.2l-22 10.5-108.2 52c-13.5 6.5-29.5 4.9-41.4-4.1-12-9-17.9-23.9-15.4-38.7l40-233.5z m505.9 99.4h121.8c22.1 0 40 17.9 40 40s-17.9 40-40 40h-121.8v118.2c0 22.1-17.9 40-40 40s-40-17.9-40-40v-118.2h-118.2c-22.1 0-40-18-40-40s17.9-40 40-40h118.2v-121.8c0-22.1 18-40 40-40s40 17.9 40 40v121.8z"></path></svg>