<?xml version="1.0" encoding="UTF-8"?>
<svg width="24px" height="24px" viewBox="0 0 24 24" version="1.1" xmlns="http://www.w3.org/2000/svg" xmlns:xlink="http://www.w3.org/1999/xlink">
    <!-- Generator: Sketch 45.1 (43504) - http://www.bohemiancoding.com/sketch -->
    <title>tag-cross</title>
    <desc>Created with Sketch.</desc>
    <defs></defs>
    <g id="Page-1" stroke="none" stroke-width="1" fill="none" fill-rule="evenodd">
        <g id="tag-cross" fill="#000000">
            <g id="Tag-Cross" transform="translate(4.000000, 1.000000)">
                <polyline id="Fill-2" points="16.05 11.707 14.636 10.293 13.171 11.757 11.707 10.293 10.293 11.707 11.757 13.171 10.293 14.636 11.707 16.05 13.171 14.585 14.636 16.05 16.05 14.636 14.585 13.171 16.05 11.707"></polyline>
                <path d="M12,20 L2.959,20 L2.959,4.828 L5.788,2 L9.188,2 C10.342,3.065 11.398,4.153 12,4.788 L12,9 L14,9 L14,4 C14,4 12.062,1.868 9.959,0 L4.959,0 L0.959,4 L0.959,22 L14,22 L14,17 L12,17 L12,20" id="Fill-3"></path>
                <path d="M7.5,2.5 C6.397,2.5 5.5,3.397 5.5,4.5 C5.5,5.602 6.397,6.5 7.5,6.5 C8.602,6.5 9.5,5.602 9.5,4.5 C9.5,3.397 8.602,2.5 7.5,2.5 L7.5,2.5 Z M7.5,5.5 C6.948,5.5 6.5,5.052 6.5,4.5 C6.5,3.948 6.948,3.5 7.5,3.5 C8.052,3.5 8.5,3.948 8.5,4.5 C8.5,5.052 8.052,5.5 7.5,5.5 L7.5,5.5 Z" id="Fill-4"></path>
            </g>
        </g>
    </g>
</svg>