<?xml version="1.0"?><svg xmlns="http://www.w3.org/2000/svg" width="960" height="960" viewBox="0 0 960 960"><path d="m315.2 851.7l-207-206.9c-22.5-22.5-35.2-53-35.2-84.8 0-31.8 12.7-62.4 35.2-84.9l376.6-376.5c37.5-37.6 88.4-58.8 141.5-58.6h253.7c22.1 0 40 17.9 40 40v253.7c0.1 53.1-21 104-58.6 141.4l-133.1 133.2c-15.7 15.1-40.7 14.9-56.1-0.5-15.4-15.4-15.6-40.4-0.5-56.1l133.1-133.2c22.5-22.5 35.2-53 35.2-84.8v-213.7h-213.7c-31.8-0.1-62.4 12.6-84.9 35.1l-376.6 376.6c-15.6 15.6-15.6 41 0 56.6l206.9 206.9c12.8 12.8 32.6 15.4 48.3 6.4 12.4-7.8 28-8 40.7-0.9 12.7 7.2 20.5 20.7 20.4 35.2-0.2 14.6-8.3 28-21.1 34.9-47 27.2-106.4 19.3-144.8-19.1z m576.5-280c15.7-15.2 40.7-14.9 56.1 0.5 15.4 15.4 15.6 40.4 0.5 56.1l-240 240c-15.6 15.6-41 15.6-56.6 0l-120-120c-15.2-15.7-14.9-40.7 0.5-56.1 15.4-15.4 40.4-15.6 56.1-0.5l91.7 91.7 211.7-211.7z m-191.7-231.7c-44.2 0-80-35.8-80-80s35.8-80 80-80 80 35.8 80 80-35.8 80-80 80z"></path></svg>