<?xml version="1.0" encoding="UTF-8"?>
<svg width="24px" height="24px" viewBox="0 0 24 24" version="1.1" xmlns="http://www.w3.org/2000/svg" xmlns:xlink="http://www.w3.org/1999/xlink">
    <!-- Generator: Sketch 45.1 (43504) - http://www.bohemiancoding.com/sketch -->
    <title>tag-4</title>
    <desc>Created with Sketch.</desc>
    <defs></defs>
    <g id="Page-1" stroke="none" stroke-width="1" fill="none" fill-rule="evenodd">
        <g id="tag-4" fill="#000000">
            <g id="Tag-4">
                <path d="M16,7 C16.552,7 17,7.448 17,8 C17,8.552 16.552,9 16,9 C15.448,9 15,8.552 15,8 C15,7.448 15.448,7 16,7 M16,6 C14.897,6 14,6.897 14,8 C14,9.103 14.897,10 16,10 C17.103,10 18,9.103 18,8 C18,6.897 17.103,6 16,6" id="Fill-1"></path>
                <path d="M17.927,5 C18.286,5.032 19,5.197 19,6 L19,11.172 L9,21.172 L2.828,15 L12.828,5 L17.927,5 M18,3 L12,3 L0,15 L9,24 L21,12 L21,6 C21,3.188 18,3 18,3" id="Fill-2"></path>
                <path d="M16,8.5 C15.845,8.5 15.69,8.427 15.593,8.291 C15.433,8.065 15.484,7.754 15.709,7.593 L22.649,2.636 C22.792,2.441 23.145,1.852 22.646,1.354 C22.1,0.806 21.442,1.286 21.316,1.387 L18.353,4.354 C18.158,4.549 17.842,4.549 17.647,4.354 C17.451,4.158 17.451,3.842 17.647,3.646 L20.647,0.646 C21.18,0.201 22.381,-0.326 23.353,0.646 C24.325,1.618 23.799,2.819 23.385,3.319 L23.291,3.407 L16.291,8.407 C16.202,8.47 16.101,8.5 16,8.5" id="Fill-3"></path>
                <path d="M8.846,12.991 C8.846,12.991 8.889,13.957 9.45,14.518 C9.675,14.742 10.005,14.898 10.273,14.63 C10.771,14.132 8.79,12.063 10.13,10.723 C10.827,10.025 11.825,10.025 12.648,10.586 L13.233,10 L13.912,10.679 L13.346,11.246 C14.019,12.094 14,12.873 14,12.873 L12.647,13.303 C12.647,13.303 12.591,12.462 12.055,11.925 C11.831,11.701 11.482,11.551 11.233,11.801 C10.703,12.33 12.766,14.318 11.388,15.696 C10.728,16.356 9.706,16.481 8.784,15.808 L8.216,16.375 L7.537,15.696 L8.104,15.129 C7.4,14.188 7.444,13.247 7.444,13.247 L8.846,12.991" id="Fill-4"></path>
            </g>
        </g>
    </g>
</svg>