<?xml version="1.0"?><svg xmlns="http://www.w3.org/2000/svg" width="960" height="960" viewBox="0 0 960 960"><path d="m258.6 908.3c22.5 22.5 53 35.2 84.8 35.2 31.8 0 62.4-12.7 84.9-35.2l433.2-433.2c37.6-37.4 58.7-88.3 58.5-141.4v-253.7c0-22.1-17.9-40-40-40h-253.7c-53.1-0.2-104 21-141.4 58.6l-433.2 433.2c-22.5 22.4-35.1 53-35.1 84.8 0 31.8 12.6 62.4 35.2 84.8l206.8 206.8z m-150.3-320l433.2-433.2c22.5-22.4 53-35 84.8-35.1h213.7v213.7c-0.1 31.8-12.7 62.3-35.1 84.8l-433.2 433.2c-7.5 7.5-17.6 11.7-28.3 11.7-10.6 0-20.8-4.2-28.3-11.7l-206.8-206.8c-7.6-7.6-11.7-17.7-11.7-28.4 0-10.5 4.2-20.7 11.7-28.2z m138 125.4c15.6 15.6 41 15.6 56.6 0l37.1-37.1 5.2 5.2c14.8 15 35.1 23.6 56.3 23.6 14.2 0 28.1-3.8 40.4-11 31.6-18 46.9-55.2 37-90.2l-40.7-149.4 93.5 93.5c15.7 15.2 40.7 14.9 56.1-0.5 15.4-15.4 15.6-40.4 0.5-56.1l-31.7-31.7 31.7-31.7c15.2-15.7 14.9-40.7-0.5-56.1-15.4-15.4-40.4-15.6-56.1-0.5l-31.7 31.7-5.2-5.2c-25.7-25.7-65.4-30.9-96.8-12.6-31.4 18.2-46.6 55.3-37 90.4l40.8 149.3-93.6-93.6c-15.6-15.2-40.6-15-56 0.4-15.4 15.5-15.6 40.4-0.5 56.1l31.7 31.8-37.1 37.1c-15.6 15.6-15.6 40.9 0 56.5z m453.7-373.7c44.2 0 80-35.8 80-80s-35.8-80-80-80-80 35.8-80 80 35.8 80 80 80z"></path></svg>