<?xml version="1.0"?><svg xmlns="http://www.w3.org/2000/svg" width="960" height="960" viewBox="0 0 960 960"><path d="m320 600h19.6c17.9 0 33.6 11.8 38.5 29l71.7 251h30.2c88.4 0 160-71.6 160-160v-120h112.6c44.1 0 86.2-18.2 116.4-50.3 30.3-32.1 45.9-75.2 43.2-119.3l-8.2-141.4-0.6-4.8c-17.2-95.1-100.2-164.2-196.9-164.2h-198.2c-24.8 0-49.3 5.8-71.5 16.9l-29.4 14.7c-9.2 4.4-24.3 8.4-115.7 8.4h-251.7v520h280v-80z m123.2-376.9l29.4-14.7c11.1-5.4 23.3-8.4 35.7-8.4h198.2c57.1 0.1 106.3 40.4 117.5 96.4l8.3 138.8c1.3 22.1-6.5 43.7-21.7 59.8-15.1 16-36.2 25.2-58.3 25.1h-112.3v-45.7c0-22.1-17.9-40-40-40s-40 17.9-40 40v245.6c0 33.1-20.4 62.8-51.4 74.7l-53.6-187.6c-14.8-51.5-61.8-87-115.4-87.1h-19.6v-280c77.7-1 100-5.3 123.2-16.9z m-203.2 376.9h-120v-360h120v360z"></path></svg>