<?xml version="1.0" encoding="UTF-8"?>
<svg width="24px" height="24px" viewBox="0 0 24 24" version="1.1" xmlns="http://www.w3.org/2000/svg" xmlns:xlink="http://www.w3.org/1999/xlink">
    <!-- Generator: Sketch 45.1 (43504) - http://www.bohemiancoding.com/sketch -->
    <title>timer-1</title>
    <desc>Created with Sketch.</desc>
    <defs></defs>
    <g id="Page-1" stroke="none" stroke-width="1" fill="none" fill-rule="evenodd">
        <g id="timer-1" fill="#000000">
            <g id="Timer-1" transform="translate(3.000000, 2.000000)">
                <path d="M18,0 L0,0 L0,4.414 L5.586,10 L0,15.586 L0,20 L18,20 L18,15.586 L12.414,10 L18,4.414 L18,0 L18,0 Z M16,3.586 L9.586,10 L16,16.414 L16,18 L14.959,18 L9,12 L3.041,18 L2,18 L2,16.414 L8.414,10 L2,3.586 L2,2 L16,2 L16,3.586 L16,3.586 Z" id="Fill-2"></path>
                <polyline id="Fill-3" points="12 5 12 4 6 4 6 5 9 8 12 5"></polyline>
            </g>
        </g>
    </g>
</svg>