<?xml version="1.0"?><svg xmlns="http://www.w3.org/2000/svg" width="960" height="960" viewBox="0 0 960 960"><path d="m748.3 131.7l188.3 188.3-188.4 188.3c-10 10.4-24.9 14.5-38.9 10.9-14-3.7-24.9-14.6-28.5-28.6-3.7-14 0.4-28.8 10.8-38.9l91.8-91.7h-203.4c-73.2-0.3-144.3 24.8-201.1 71.1-11.1 9-26.2 11.3-39.5 6.2-13.4-5.1-23-17-25.2-31.1-2.2-14.1 3.2-28.3 14.4-37.3 64.4-51.9 143.4-82.6 226-87.8 1.8-0.5 3.6-0.8 5.4-1.1h223.4l-91.7-91.7c-15.2-15.7-14.9-40.7 0.5-56.1 15.4-15.4 40.4-15.6 56.1-0.5z m-508.3 748.3c-10.6 0-20.8-4.2-28.3-11.7l-188.3-188.3 188.3-188.3c15.7-15.2 40.7-14.9 56.1 0.5 15.4 15.4 15.6 40.4 0.5 56.1l-91.7 91.7h203.4c73.2 0.3 144.3-24.8 201.1-71.1 11.1-9 26.2-11.3 39.5-6.2 13.4 5.1 23 17 25.2 31.1 2.2 14.1-3.2 28.3-14.4 37.3-71.2 57.5-160 88.8-251.4 88.9h-203.4l91.7 91.7c11.4 11.5 14.8 28.7 8.7 43.6-6.2 14.9-20.8 24.7-37 24.7z"></path></svg>