<?xml version="1.0"?><svg xmlns="http://www.w3.org/2000/svg" width="960" height="960" viewBox="0 0 960 960"><path d="m851.7 51.7c15.7-15.2 40.7-14.9 56.1 0.5 15.4 15.4 15.6 40.4 0.5 56.1l-268.3 268.3-148.3-148.3c-15.2-15.7-14.9-40.7 0.5-56.1 15.4-15.4 40.4-15.6 56.1-0.5l91.7 91.7 211.7-211.7z m-175 434.1c-17.3 105.6-92.9 192.2-195.1 223.6v130.6h159.3c22.1 0 40 17.9 40 40s-17.9 40-40 40h-401.9c-22.1 0-40-17.9-40-40s17.9-40 40-40h162.6v-129.2c-91.4-29-162.9-101.1-191-192.9-3.4 1.2-7 1.9-10.6 2.1-88.4 0-160-71.6-160-160s71.6-160 160-160v-80h160c22.1 0 40 17.9 40 40s-17.9 40-40 40h-80v240c0.8 95.4 67 177.6 160 198.8 80.4-19 142.1-83.5 157.6-164.6 3.2-21.8 23.5-37 45.4-33.8 21.8 3.2 36.9 23.6 33.7 45.5z m-556.7-125.8c0 44.2 35.8 80 80 80v-160c-44.2 0-80 35.8-80 80z"></path></svg>