<?xml version="1.0"?><svg xmlns="http://www.w3.org/2000/svg" width="960" height="960" viewBox="0 0 960 960"><path d="m709.6 517.9c3.3 1.2 6.8 1.9 10.4 2.1 88.4 0 160-71.6 160-160s-71.6-160-160-160v-80h-480v80c-88.4 0-160 71.6-160 160s71.6 160 160 160c3.6-0.2 7.2-0.9 10.6-2.1 28.1 91.8 99.6 163.9 191 192.9v129.2h-162.6c-22 0-40 17.9-40 40s18 40 40 40h401.8c22.1 0 40-17.9 40-40s-17.9-40-40-40h-159.2v-130.1c90.4-29.3 160.6-101.1 188-192z m90.4-157.9c0 44.2-35.8 80-80 80v-160c44.2 0 80 35.8 80 80z m-640 0c0-44.2 35.8-80 80-80v160c-44.2 0-80-35.8-80-80z m160 80v-240h320v240c-1 95.3-67.1 177.5-160 198.8-93-21.2-159.2-103.4-160-198.8z"></path></svg>