<?xml version="1.0" encoding="UTF-8"?>
<svg width="24px" height="24px" viewBox="0 0 24 24" version="1.1" xmlns="http://www.w3.org/2000/svg" xmlns:xlink="http://www.w3.org/1999/xlink">
    <!-- Generator: Sketch 45.1 (43504) - http://www.bohemiancoding.com/sketch -->
    <title>trophee-won</title>
    <desc>Created with Sketch.</desc>
    <defs></defs>
    <g id="Page-1" stroke="none" stroke-width="1" fill="none" fill-rule="evenodd">
        <g id="trophee-won" fill="#000000">
            <g id="Won" transform="translate(1.000000, 1.000000)">
                <path d="M16.011,2 L16.06,11 C16.06,12.747 13.607,15 11,15 C8.404,15 5.961,12.747 5.961,11 L5.961,2 L16.011,2 M18,0 L3.961,0 L3.961,11 C3.961,14.036 7.46,17 11,17 C14.54,17 18.061,14.036 18.061,11 L18,0" id="Fill-2"></path>
                <path d="M2.039,3.986 L4,3.99 L4,9.672 L3.737,9.446 C2.581,8.286 2.158,5.65 2.039,3.986 M1,2.984 C1,2.984 0.969,10.992 5,10.992 L5,2.992 L1,2.984" id="Fill-3"></path>
                <path d="M19.961,3.994 C19.842,5.658 19.419,8.295 18.263,9.454 L18,9.681 L18,3.998 L19.961,3.994 M21,2.992 L17,3 L17,11 C21.031,11 21,2.992 21,2.992" id="Fill-4"></path>
                <path d="M6,21 L16,21 C16,21 11.031,17 6,21" id="Fill-5"></path>
                <polygon id="Fill-6" points="10 16 12 16 12 21 10 21"></polygon>
                <polygon id="Fill-7" points="5.116 2.984 10.974 2.984 10.974 3.984 5.116 3.984"></polygon>
                <polygon id="Fill-8" points="14.988 2.992 18 2.992 18 3.992 14.988 3.992"></polygon>
                <polygon id="Fill-9" points="11.988 2.992 14.009 2.992 14.009 3.992 11.988 3.992"></polygon>
                <polygon id="Fill-10" points="6 21 16 21 16 22 6 22"></polygon>
                <polyline id="Fill-11" points="10.333 11.414 7.96 9.04 9.374 7.626 10.333 8.586 12.96 5.96 14.374 7.374 10.333 11.414"></polyline>
            </g>
        </g>
    </g>
</svg>