<?xml version="1.0"?><svg xmlns="http://www.w3.org/2000/svg" width="960" height="960" viewBox="0 0 960 960"><path d="m435.6 538.2c6.9-13.4 5.6-29.6-3.3-41.7l-142.9-196.5 143-196.5c8.8-12.1 10-28.3 3.2-41.7-6.8-13.4-20.5-21.8-35.6-21.8h-320c-15 0-28.8 8.4-35.6 21.8-6.9 13.4-5.6 29.6 3.2 41.7l143 196.5-143 196.5c-8.8 12.1-10.1 28.3-3.2 41.7 6.8 13.4 20.6 21.8 35.6 21.8h320c15 0 28.8-8.4 35.6-21.8z m-277-418.2h162.9l-81.5 112-81.4-112z m601.4 240c88.4 0 160 71.6 160 160v280h-80c0 66.3-53.7 120-120 120s-120-53.7-120-120h-160c0 66.3-53.7 120-120 120s-120-53.7-120-120h-80v-120c0-22.1 17.9-40 40-40s40 17.9 40 40v40h640v-120h-80v-160h-80v160c0 22.1-17.9 40-40 40s-40-17.9-40-40v-280c0-22.1-17.9-40-40-40h-40c-22.1 0-40-17.9-40-40s17.9-40 40-40h40c66.3 0 120 53.7 120 120v40h80z"></path></svg>