<?xml version="1.0"?><svg xmlns="http://www.w3.org/2000/svg" width="960" height="960" viewBox="0 0 960 960"><path d="m760 360c88.4 0 160 71.6 160 160v280h-80c0 66.3-53.7 120-120 120s-120-53.7-120-120h-160c0 66.3-53.7 120-120 120s-120-53.7-120-120h-80v-320c0-22.1 17.9-40 40-40s40 17.9 40 40v240h640v-120h-80v-160h-80v160c0 22.1-17.9 40-40 40s-40-17.9-40-40v-280c0-22.1-17.9-40-40-40h-84c-22.1 0-40-17.9-40-40s17.9-40 40-40h84c66.3 0 120 53.7 120 120v40h80z m-468.3-11.7l-91.7-91.7-91.7 91.7c-10 10.4-24.9 14.5-38.9 10.9-14-3.7-24.9-14.6-28.6-28.6-3.6-14 0.5-28.8 10.9-38.9l91.7-91.7-91.7-91.7c-15.2-15.7-14.9-40.7 0.5-56.1 15.4-15.4 40.4-15.6 56.1-0.5l91.7 91.7 91.7-91.7c15.7-15.2 40.7-14.9 56.1 0.5 15.4 15.4 15.6 40.4 0.5 56.1l-91.7 91.7 91.7 91.7c15.2 15.7 14.9 40.7-0.5 56.1-15.4 15.4-40.4 15.6-56.1 0.5z"></path></svg>