<?xml version="1.0"?><svg xmlns="http://www.w3.org/2000/svg" width="960" height="960" viewBox="0 0 960 960"><path d="m760 360h-120c-22.1 0-40 17.9-40 40v200c0 22.1 17.9 40 40 40s40-17.9 40-40v-160h80v160h80v120h-400v-400h120c66.3 0 120-53.7 120-120s-53.7-120-120-120-120 53.7-120 120v40c0-22.1-17.9-40-40-40s-40 17.9-40 40v-60c0-77.3-62.7-140-140-140s-140 62.7-140 140 62.7 140 140 140h140v400h-160v-320c0-22.1-17.9-40-40-40s-40 17.9-40 40v400h80c0 66.3 53.7 120 120 120s120-53.7 120-120h160c0 66.3 53.7 120 120 120s120-53.7 120-120h80v-280c0-88.4-71.6-160-160-160z m-240-160c0-22.1 17.9-40 40-40s40 17.9 40 40-17.9 40-40 40h-40v-40z m-240 40h-60c-33.1 0-60-26.9-60-60s26.9-60 60-60 60 26.9 60 60v60z"></path></svg>