<?xml version="1.0" encoding="UTF-8"?>
<svg width="24px" height="24px" viewBox="0 0 24 24" version="1.1" xmlns="http://www.w3.org/2000/svg" xmlns:xlink="http://www.w3.org/1999/xlink">
    <!-- Generator: Sketch 45.1 (43504) - http://www.bohemiancoding.com/sketch -->
    <title>truck-delivery-2</title>
    <desc>Created with Sketch.</desc>
    <defs></defs>
    <g id="Page-1" stroke="none" stroke-width="1" fill="none" fill-rule="evenodd">
        <g id="truck-delivery-2" fill="#000000">
            <g id="Truck-Delivery-2" transform="translate(0.000000, 7.000000)">
                <path d="M24,6.586 L20.414,3 L19,3 L19,0 L6,0 L6,12 L8.162,12 C8.486,12.799 9.267,13.364 10.182,13.364 C11.097,13.364 11.878,12.799 12.202,12 L17.162,12 C17.486,12.799 18.267,13.364 19.182,13.364 C20.097,13.364 20.878,12.799 21.202,12 L24,12 L24,6.586 L24,6.586 Z M22,10 L21.012,10 C20.623,9.4 19.95,9 19.182,9 C18.413,9 17.741,9.4 17.352,10 L12.012,10 C11.623,9.4 10.95,9 10.182,9 C9.413,9 8.741,9.4 8.352,10 L8,10 L8,2 L17,2 L17,8 L19,8 L19,5 L19.586,5 L20,5.414 L20,7 L21.586,7 L22,7.414 L22,10 L22,10 Z" id="Fill-2"></path>
                <polygon id="Fill-3" points="0 0 5 0 5 1 0 1"></polygon>
                <polygon id="Fill-4" points="1.019 2 5 2 5 3 1.019 3"></polygon>
                <polygon id="Fill-5" points="2.072 4 5 4 5 5 2.072 5"></polygon>
            </g>
        </g>
    </g>
</svg>