<?xml version="1.0"?><svg xmlns="http://www.w3.org/2000/svg" width="960" height="960" viewBox="0 0 960 960"><path d="m776.4 320c41.8-0.9 81.7 17 108.8 48.8 26.8 33.1 37.6 76.4 29.4 118.2l-41 233h-80.6c-13.6 67.9-72 117.6-141.2 120-30.4 1.1-59.6-12.1-79-35.6-19.4-23.5-26.8-54.7-19.9-84.4h-160c-13.6 67.9-72 117.6-141.2 120-30.4 1.1-59.6-12.1-79-35.6-19.4-23.5-26.7-54.7-19.8-84.4h-81.7l41.6-208c2.8-14 12.8-25.5 26.4-30 13.5-4.6 28.5-1.6 39.2 7.8 10.8 9.4 15.6 23.9 12.8 37.9l-22.4 112.3h637.6l21.2-120h-79.6l20.3-120h-78.3l-22.5 127c-3.4 19-20 33-39.3 33-2.4 0-4.7-0.2-7-0.6-21.8-3.9-36.4-24.6-32.5-46.4l20-113 22.5-127.2c4-18.5-0.4-37.8-12-52.8-12.1-13.4-29.5-20.8-47.6-20h-91.6c-22.1 0-40-17.9-40-40s17.9-40 40-40h91.7c41.7-0.9 81.6 17 108.7 48.8 26.8 33.1 37.6 76.4 29.4 118.2l-5.8 33h72.4z m-416.4-120h-280c-22.1 0-40-17.9-40-40s17.9-40 40-40h280c22.1 0 40 17.9 40 40s-17.9 40-40 40z m-40 80c0 22.1-17.9 40-40 40h-160c-22.1 0-40-17.9-40-40s17.9-40 40-40h160c22.1 0 40 17.9 40 40z m-160 80h40c22.1 0 40 17.9 40 40s-17.9 40-40 40h-40c-22.1 0-40-17.9-40-40s17.9-40 40-40z"></path></svg>