<?xml version="1.0" encoding="UTF-8"?>
<svg width="24px" height="24px" viewBox="0 0 24 24" version="1.1" xmlns="http://www.w3.org/2000/svg" xmlns:xlink="http://www.w3.org/1999/xlink">
    <!-- Generator: Sketch 45.1 (43504) - http://www.bohemiancoding.com/sketch -->
    <title>truck-time</title>
    <desc>Created with Sketch.</desc>
    <defs></defs>
    <g id="Page-1" stroke="none" stroke-width="1" fill="none" fill-rule="evenodd">
        <g id="truck-time" fill="#000000">
            <g id="Free-Time" transform="translate(0.000000, 5.000000)">
                <path d="M11,4 L7,4 C6.448,4 6,4.448 6,5 L6,6 C6,6.297 6.132,6.578 6.36,6.768 L7.438,7.667 L6.36,8.565 C6.132,8.755 6,9.037 6,9.333 L6,10 C6,10.552 6.448,11 7,11 L11,11 C11.552,11 12,10.552 12,10 L12,9.333 C12,9.037 11.868,8.755 11.64,8.565 L10.562,7.667 L11.64,6.768 C11.868,6.578 12,6.297 12,6 L12,5 C12,4.448 11.552,4 11,4 L11,4 Z M11,6 L9,7.667 L11,9.333 L11,10 L9,9 L7,10 L7,9.333 L9,7.667 L7,6 L7,5 L11,5 L11,6 L11,6 Z" id="Fill-2"></path>
                <path d="M24,9.574 L19.424,5.002 L19.014,5 L18,4.994 L18,0 L0,0 L0,15.989 L3.184,15.989 C3.597,17.151 4.696,17.989 6,17.989 C7.299,17.989 8.394,17.159 8.811,16.004 L15.189,16.004 C15.606,17.159 16.701,17.989 18,17.989 C19.304,17.989 20.403,17.151 20.816,15.989 L24,15.989 L24,9.574 L24,9.574 Z M6,16.989 C4.897,16.989 4,16.091 4,14.989 C4,13.886 4.897,12.989 6,12.989 C7.05,12.989 7.904,13.805 7.984,14.834 L7.984,15.143 C7.904,16.173 7.05,16.989 6,16.989 L6,16.989 Z M18,16.989 C16.897,16.989 16,16.091 16,14.989 C16,13.886 16.897,12.989 18,12.989 C19.103,12.989 20,13.886 20,14.989 C20,16.091 19.103,16.989 18,16.989 L18,16.989 Z M20.816,13.989 C20.403,12.826 19.304,11.989 18,11.989 C16.69,11.989 15.588,12.834 15.179,14.004 L8.821,14.004 C8.412,12.834 7.31,11.989 6,11.989 C4.696,11.989 3.597,12.826 3.184,13.989 L2,13.989 L2,2 L16,2 L16,11 L18,11 L18,6.994 C18.209,6.995 18.419,6.996 18.592,6.998 L19,7.405 L19,11 L22,11 L22,13.989 L20.816,13.989 L20.816,13.989 Z" id="Fill-3"></path>
                <path d="M6,13.989 C5.448,13.989 5,14.436 5,14.989 C5,15.541 5.448,15.989 6,15.989 C6.552,15.989 7,15.541 7,14.989 C7,14.436 6.552,13.989 6,13.989" id="Fill-4"></path>
                <path d="M18,13.989 C17.448,13.989 17,14.436 17,14.989 C17,15.541 17.448,15.989 18,15.989 C18.552,15.989 19,15.541 19,14.989 C19,14.436 18.552,13.989 18,13.989" id="Fill-5"></path>
            </g>
        </g>
    </g>
</svg>