<?xml version="1.0" encoding="UTF-8"?>
<svg width="24px" height="24px" viewBox="0 0 24 24" version="1.1" xmlns="http://www.w3.org/2000/svg" xmlns:xlink="http://www.w3.org/1999/xlink">
    <!-- Generator: Sketch 45.1 (43504) - http://www.bohemiancoding.com/sketch -->
    <title>upload</title>
    <desc>Created with Sketch.</desc>
    <defs></defs>
    <g id="Page-1" stroke="none" stroke-width="1" fill="none" fill-rule="evenodd">
        <g id="upload" fill="#000000">
            <g id="Imported-Layers" transform="translate(4.000000, 1.000000)">
                <polyline id="Fill-1" points="7 4.414 7 14 9 14 9 4.414 12.293 7.707 13.707 6.293 8 0.586 2.293 6.293 3.707 7.707 7 4.414"></polyline>
                <path d="M0,21 L16,21 L16,15.014 L0,15.014 L0,21 Z M8.693,17.014 L10.279,17.014 L8.293,19 L6.707,19 L8.693,17.014 L8.693,17.014 Z M5.293,19 L3.707,19 L5.693,17.014 L7.279,17.014 L5.293,19 L5.293,19 Z M2,17.014 L4.279,17.014 L2.293,19 L2,19 L2,17.014 L2,17.014 Z M14,19 L9.707,19 L11.693,17.014 L14,17.014 L14,19 L14,19 Z" id="Fill-2"></path>
            </g>
        </g>
    </g>
</svg>