<?xml version="1.0"?><svg xmlns="http://www.w3.org/2000/svg" width="960" height="960" viewBox="0 0 960 960"><path d="m136.7 581.9c-35.5-22-57-61-56.7-102.8 0.3-41.9 22.4-80.5 58.2-102l376.4-249.8c11.9-8.4 27.4-9.7 40.5-3.3 13.1 6.4 21.7 19.4 22.5 33.9 0.8 14.5-6.5 28.4-18.8 36l-378 250.9c-12.8 7.1-20.8 20.6-20.9 35.2-0.2 14.1 7.2 27.2 19.3 34.3l379.4 251.7c12.2 7.8 19.2 21.6 18.4 36-0.8 14.4-9.4 27.3-22.4 33.6-12.9 6.4-28.4 5.2-40.2-3l-377.9-250.7z m244.3-33.3c-24.1-14.4-38.8-40.5-38.8-68.6 0-28.2 14.7-54.2 38.8-68.7l417.8-250.7c24.7-14.8 55.5-15.2 80.6-1 25 14.3 40.6 40.8 40.6 69.6v501.5c0 28.8-15.6 55.4-40.6 69.6-25.1 14.2-55.9 13.8-80.6-1l-417.8-250.7z"></path></svg>