<?xml version="1.0"?><svg xmlns="http://www.w3.org/2000/svg" width="960" height="960" viewBox="0 0 960 960"><path d="m441.2 193.7c-12.2-7.8-19.2-21.6-18.4-36 0.8-14.4 9.4-27.3 22.4-33.6 12.9-6.4 28.3-5.2 40.2 3l377.8 250.7c35.6 22 57.1 61 56.8 102.8-0.4 41.8-22.4 80.4-58.2 102l-376.4 249.8c-11.9 8.4-27.4 9.6-40.5 3.2-13.1-6.4-21.7-19.3-22.5-33.9-0.8-14.5 6.4-28.4 18.8-36l377.9-250.8c12.8-7.1 20.8-20.5 20.9-35.2 0.2-14.1-7.2-27.2-19.4-34.4l-379.4-251.6z m-240 605.3c-24.8 14.8-55.5 15.2-80.6 1-25.1-14.1-40.6-40.8-40.6-69.6v-501.4c0-28.8 15.5-55.4 40.6-69.6 25.1-14.2 55.8-13.8 80.6 1l417.8 250.8c24 14.4 38.8 40.4 38.8 68.6 0 28-14.8 54.1-38.8 68.6l-417.8 250.6z"></path></svg>