<?xml version="1.0"?><svg xmlns="http://www.w3.org/2000/svg" width="960" height="960" viewBox="0 0 960 960"><path d="m43.5 120v141.6c0 42.9 6.9 85.6 20.5 126.4l65 195.2c27.2 81.7 103.6 136.8 189.8 136.8h121.2c22.1 0 40-17.9 40-40s-17.9-40-40-40h-121.2c-51.6 0-97.5-33.1-113.8-82.1l-65-195.2c-8.6-26.7-13.7-54.5-15-82.7h198.5v80c1.2 87.9 72.1 158.8 160 160 42.4 0 83.1-16.8 113.1-46.9 30-30 46.9-70.7 46.9-113.1v-80h198.5c-1.3 28.6-6.4 57-15.3 84.2l-7.2 24.6c-4.2 13.8-0.7 28.8 9.2 39.3 10 10.5 24.8 14.8 38.8 11.3 14-3.5 25.1-14.3 28.8-28.2l6.7-23.2c13.6-40.8 20.6-83.5 20.6-126.5v-141.5c0-44.2-35.8-80-80-80h-200c-44.2 0-80 35.8-80 80v240c-0.7 43.9-36.1 79.4-80 80-43.5-1.6-78.4-36.5-80-80v-240c0-44.2-35.8-80-80-80h-200c-21.2 0-41.6 8.4-56.6 23.4-15 15-23.5 35.4-23.5 56.6z m800 0v80h-200v-80h200z m-520 0v80h-200v-80h200z m120 680c0 22.1-17.9 40-40 40h-160c-22.1 0-40-17.9-40-40s17.9-40 40-40h160c22.1 0 40 17.9 40 40z m476.5-118.2c22.1 0 40 17.9 40 40s-17.9 40-40 40h-121.8v118.2c0 22.1-17.9 40-40 40s-40-17.9-40-40v-118.2h-118.2c-22.1 0-40-18-40-40s17.9-40 40-40h118.2v-121.8c0-22.1 18-40 40-40s40 17.9 40 40v121.8h121.8z"></path></svg>