<?xml version="1.0" encoding="UTF-8"?>
<svg width="24px" height="24px" viewBox="0 0 24 24" version="1.1" xmlns="http://www.w3.org/2000/svg" xmlns:xlink="http://www.w3.org/1999/xlink">
    <!-- Generator: Sketch 45.1 (43504) - http://www.bohemiancoding.com/sketch -->
    <title>watchlist-add</title>
    <desc>Created with Sketch.</desc>
    <defs></defs>
    <g id="Page-1" stroke="none" stroke-width="1" fill="none" fill-rule="evenodd">
        <g id="watchlist-add" fill="#000000">
            <g id="Binoculars-Add" transform="translate(0.000000, 1.000000)">
                <polyline id="Fill-2" points="24 11 22 11 22 9 20 9 20 11 18 11 18 13 20 13 20 15 22 15 22 13 24 13 24 11"></polyline>
                <path d="M18.518,17 L13.883,17 C13.377,17 12.996,16.57 12.996,16 L12.996,9.895 C14.725,9.513 15.508,8.175 15.688,7.414 L15.69,7 L18.642,7 L18.642,6.042 L15.696,6.042 L15.715,2.959 L20.743,2.959 L20.743,6.042 L19.743,6.042 L19.743,7 L20.743,7 L20.743,7.958 L20.742,8 L22.741,8 L22.743,7.958 L22.743,0.958 L13.715,0.958 L13.715,7.033 C13.619,7.278 13.231,8 11.996,8 C10.457,8 10.062,7.265 9.978,7.049 L9.978,0.958 L0.951,0.958 L0.951,7.958 C0.951,10.918 3.412,18.027 3.517,18.329 L3.75,19 L5.076,19 L5.076,20.959 L10.034,20.959 L10.034,18.978 C10.698,18.926 11.375,18.654 11.915,18.202 C12.428,18.695 13.113,19 13.883,19 L14.014,19 L14.014,20.959 L18.972,20.959 L18.972,19 L19.944,19 L20.178,18.329 C20.214,18.224 20.537,17.289 20.94,16 L18.844,16 C18.727,16.364 18.617,16.702 18.518,17 L18.518,17 Z M6.076,19 L9.034,19 L9.034,19.958 L6.076,19.958 L6.076,19 Z M9.81,17 L5.177,17 C4.394,14.653 2.951,9.924 2.951,7.958 L2.951,7 L3.951,7 L3.951,6.042 L2.951,6.042 L2.951,2.959 L7.978,2.959 L7.978,6.042 L4.992,6.042 L4.992,7 L7.978,7 L7.978,7.184 L7.996,7.373 C8.148,8.162 8.97,9.564 10.996,9.918 L10.996,16 C10.996,16.539 10.344,17 9.81,17 L9.81,17 Z M15.014,19 L17.972,19 L17.972,19.958 L15.014,19.958 L15.014,19 Z" id="Fill-3"></path>
            </g>
        </g>
    </g>
</svg>