<?xml version="1.0" encoding="UTF-8"?>
<svg width="24px" height="24px" viewBox="0 0 24 24" version="1.1" xmlns="http://www.w3.org/2000/svg" xmlns:xlink="http://www.w3.org/1999/xlink">
    <!-- Generator: Sketch 45.1 (43504) - http://www.bohemiancoding.com/sketch -->
    <title>watchlist-remove</title>
    <desc>Created with Sketch.</desc>
    <defs></defs>
    <g id="Page-1" stroke="none" stroke-width="1" fill="none" fill-rule="evenodd">
        <g id="watchlist-remove" fill="#000000">
            <g id="Binoculars-Less" transform="translate(0.000000, 1.000000)">
                <polygon id="Fill-2" points="18 11 24 11 24 13 18 13"></polygon>
                <path d="M18.524,17.007 L13.891,17.007 C13.385,17.007 13.004,16.578 13.004,16.007 L13.004,9.902 C14.732,9.52 15.516,8.183 15.695,7.422 L15.698,7.008 L18.65,7.008 L18.65,6.049 L15.704,6.049 L15.723,2.966 L20.75,2.966 L20.75,6.049 L19.75,6.049 L19.75,7.008 L20.75,7.008 L20.75,7.966 C20.75,8.483 20.648,9.194 20.487,10 L22.521,10 C22.663,9.224 22.75,8.522 22.75,7.966 L22.75,0.966 L13.723,0.966 L13.723,7.036 C13.611,7.323 13.219,8.007 12.004,8.007 C10.465,8.007 10.069,7.273 9.986,7.057 L9.986,0.966 L0.958,0.966 L0.958,7.966 C0.958,10.925 3.419,18.035 3.523,18.336 L3.757,19.007 L5.083,19.007 L5.083,20.966 L10.042,20.966 L10.042,18.985 C10.706,18.933 11.382,18.661 11.923,18.209 C12.435,18.703 13.12,19.007 13.891,19.007 L14.021,19.007 L14.021,20.966 L18.98,20.966 L18.98,19.007 L19.951,19.007 L20.185,18.336 C20.238,18.182 20.907,16.248 21.548,14 L19.465,14 C19.131,15.142 18.79,16.212 18.524,17.007 L18.524,17.007 Z M6.083,19.007 L9.042,19.007 L9.042,19.965 L6.083,19.965 L6.083,19.007 Z M9.817,17.007 L5.184,17.007 C4.4,14.661 2.958,9.932 2.958,7.966 L2.958,7.008 L3.958,7.008 L3.958,6.049 L2.958,6.049 L2.958,2.966 L7.986,2.966 L7.986,6.049 L5,6.049 L5,7.008 L7.986,7.008 L7.986,7.191 L8.004,7.38 C8.156,8.17 8.978,9.571 11.004,9.925 L11.004,16.007 C11.004,16.546 10.352,17.007 9.817,17.007 L9.817,17.007 Z M15.021,19.007 L17.98,19.007 L17.98,19.965 L15.021,19.965 L15.021,19.007 Z" id="Fill-3"></path>
            </g>
        </g>
    </g>
</svg>