<?xml version="1.0"?><svg xmlns="http://www.w3.org/2000/svg" width="640" height="640" viewBox="0 0 640 640"><path d="m523.2 40h-406.4c-20.5 0.1-40.1 8.4-54.5 22.9-14.4 14.5-22.4 34.2-22.3 54.7v82.4c0 9.4 3.8 18.5 10.4 25.2l29.6 31.2v267.6c0.1 20.3 8.2 39.6 22.6 53.9 14.4 14.3 33.9 22.2 54.2 22.1h326.4c20.3 0.1 39.7-7.8 54.2-22.1 14.4-14.3 22.5-33.6 22.6-53.9v-267.6l29.6-30.4c6.8-6.9 10.6-16.3 10.4-26v-82.4c0.1-20.5-7.9-40.2-22.3-54.7-14.4-14.5-34-22.8-54.5-22.9z m-411.2 77.6c-0.1-1.4 0.3-2.8 1.2-3.8 0.9-1 2.2-1.7 3.6-1.8h406.4c1.4 0.1 2.7 0.8 3.6 1.8 0.9 1 1.3 2.4 1.2 3.8v68.4l-60.4 62h-107.6v-28c0-22.1-17.9-40-40-40s-40 17.9-40 40v28h-107.6l-60.4-62v-68.4z m371.2 410.4h-326.4c-1.2 0.1-2.3-0.2-3.2-1-0.9-0.8-1.5-1.8-1.6-3v-204h128v20c0 22.1 17.9 40 40 40s40-17.9 40-40v-20h128v204c-0.1 1.2-0.7 2.2-1.6 3-0.9 0.8-2 1.1-3.2 1z"></path></svg>