<?xml version="1.0"?><svg xmlns="http://www.w3.org/2000/svg" width="640" height="640" viewBox="0 0 640 640"><path d="m564 528h-44c0.3-2.6 0.3-5.4 0-8v-160c0-19.9-16.1-36-36-36s-36 16.1-36 36v160c-0.3 2.6-0.3 5.4 0 8h-88c0.3-2.6 0.3-5.4 0-8v-236c0-19.9-16.1-36-36-36h-154l128-120c12.9-14 12.8-35.6-0.4-49.3-13.1-13.8-34.6-14.9-49.2-2.7l-193.2 182c-10.6 10.2-14 25.7-8.5 39.4 5.4 13.6 18.6 22.6 33.3 22.6h48v200c-0.3 2.6-0.3 5.4 0 8h-44c-19.9 0-36 16.1-36 36s16.1 36 36 36h480c19.9 0 36-16.1 36-36s-16.1-36-36-36z m-364 0c0.3-2.6 0.3-5.4 0-8v-200h88v200c-0.3 2.6-0.3 5.4 0 8h-88z m400-368h-16v-40h16c17.7 0 32-14.3 32-32 0-17.7-14.3-32-32-32h-16v-16c0-17.7-14.3-32-32-32-17.7 0-32 14.3-32 32v16h-40v-16c0-17.7-14.3-32-32-32-17.7 0-32 14.3-32 32v16h-16c-17.7 0-32 14.3-32 32 0 17.7 14.3 32 32 32h16v40h-16c-17.7 0-32 14.3-32 32 0 17.7 14.3 32 32 32h16v16c0 17.7 14.3 32 32 32 17.7 0 32-14.3 32-32v-16h40v16c0 17.7 14.3 32 32 32 17.7 0 32-14.3 32-32v-16h16c17.7 0 32-14.3 32-32 0-17.7-14.3-32-32-32z m-120 0v-40h40v40h-40z"></path></svg>