<?xml version="1.0"?><svg xmlns="http://www.w3.org/2000/svg" width="640" height="640" viewBox="0 0 640 640"><path d="m560 528h-45.6c0.3-2.6 0.3-5.4 0-8v-160c0-19.9-16.1-36-36-36s-36 16.1-36 36v160c-0.3 2.6-0.3 5.4 0 8h-88c0.3-2.6 0.3-5.4 0-8v-236c0-19.3-15.2-35.2-34.4-36h-143.6l126.4-104c10.7-7.9 16.2-21 14.2-34.2-2-13.2-11-24.2-23.5-28.6-12.5-4.6-26.5-1.8-36.3 7.2l-204 168c-11.6 9.6-15.9 25.6-10.8 39.7 5.1 14.2 18.5 23.7 33.6 23.9h48v200c-0.3 2.6-0.3 5.3 0 8h-44c-19.9 0-36 16.1-36 36s16.1 36 36 36h480c19.9 0 36-16.2 36-36s-16.1-36-36-36z m-364-8v-200h88v200c-0.3 2.6-0.3 5.4 0 8h-89.6c0.8-2.6 1.4-5.3 1.6-8z m364-400h-40v-40c0-22.1-17.9-40-40-40s-40 17.9-40 40v40h-40c-22.1 0-40 17.9-40 40s17.9 40 40 40h40v40c0 22.1 17.9 40 40 40s40-17.9 40-40v-40h40c22.1 0 40-17.9 40-40s-17.9-40-40-40z"></path></svg>