<?xml version="1.0"?><svg xmlns="http://www.w3.org/2000/svg" width="640" height="640" viewBox="0 0 640 640"><path d="m76 593.6c9.6 0 18.7-3.8 25.4-10.6 6.8-6.7 10.6-15.8 10.6-25.4v-37.6h416v37.6c0 19.9 16.1 36 36 36s36-16.1 36-36v-160c0.4-31-11.6-61-33.4-83.1-21.8-22.1-51.6-34.5-82.6-34.5h-164v-44c0-42-34-76-76-76h-132v-40c0-19.9-16.1-36-36-36s-36 16.1-36 36v437.6c0 9.6 3.8 18.7 10.6 25.4 6.7 6.8 15.8 10.6 25.4 10.6z m168-360c2.2 0 4 1.8 4 4v42.4h-136v-48h132v1.6z m-132 120h372c24.3 0 44 19.7 44 44v52h-416v-97.6 1.6z"></path></svg>