<?xml version="1.0"?><svg xmlns="http://www.w3.org/2000/svg" width="640" height="640" viewBox="0 0 640 640"><path d="m520 160h-80v-4c-2.2-64.7-55.2-116-120-116s-117.8 51.3-120 116v4h-80c-19.9 0-36 16.1-36 36s16.1 36 36 36c-0.3 2.6-0.3 5.4 0 8l17.6 290.4c3.9 39.6 37.4 69.8 77.2 69.6h210.8c40.4-0.3 73.9-31.6 76.8-72l17.6-288c0.2-2.1 0.2-4.3 0-6.4 20.3 0 36.8-16.5 36.8-36.8s-16.5-36.8-36.8-36.8z m-248-4c0.5-12.2 5.9-23.7 14.9-32 9-8.2 20.9-12.6 33.1-12 12.2-0.6 24.1 3.8 33.1 12 9 8.3 14.4 19.8 14.9 32v4h-96v-4z m176 77.6l-18 289.6c-0.2 2.6-2.2 4.6-4.8 4.8h-210.4c-2.5 0-4.6-1.9-4.8-4.4l-18-289.6h257.2s-0.8-0.8-0.8-0.4h-0.4z m-128 50.4c-19.9 0-36 16.1-36 36v120c0 19.9 16.1 36 36 36s36-16.1 36-36v-120c0-19.9-16.1-36-36-36z"></path></svg>