<?xml version="1.0"?><svg xmlns="http://www.w3.org/2000/svg" width="640" height="640" viewBox="0 0 640 640"><path d="m600 200h-160c-22.1 0-40 17.9-40 40s17.9 40 40 40h160c22.1 0 40-17.9 40-40s-17.9-40-40-40z m-560 80h120v301.6l200-97.6 200 97.6v-221.6c0-19.9-16.1-36-36-36s-36 16.1-36 36v106.4l-128-62.4-128 62.4v-350.4c0.1-1.3 0.1-2.7 0-4h212.4c16.7-1.7 32.7 7.3 40 22.4 5.7 13 18.6 21.5 32.8 21.6 5 0 9.9-1.1 14.4-3.2 18-8 26.2-29.1 18.4-47.2-18.8-41.6-60.9-67.5-106.4-65.6h-307.6c-53 0-96 43-96 96v144z m120-72h-48v-72c0-13.2 10.8-24 24-24 13.2 0 24 10.8 24 24v72z"></path></svg>