<?xml version="1.0"?><svg xmlns="http://www.w3.org/2000/svg" width="640" height="640" viewBox="0 0 640 640"><path d="m600 80h-40v-40c0-22.1-17.9-40-40-40s-40 17.9-40 40v40h-40c-22.1 0-40 17.9-40 40s17.9 40 40 40h40v40c0 22.1 17.9 40 40 40s40-17.9 40-40v-40h40c22.1 0 40-17.9 40-40s-17.9-40-40-40z m-240 404l200 97.6v-261.6c0-19.9-16.1-36-36-36s-36 16.1-36 36v146.4l-128-62.4-128 62.4v-350.4c0.1-1.3 0.1-2.7 0-4h88c19.9 0 36-16.1 36-36s-16.1-36-36-36h-184c-53 0-96 43-96 96v144h120v301.6l200-97.6z m-248-276v-72c0-13.2 10.8-24 24-24 13.2 0 24 10.8 24 24v72h-48z"></path></svg>