<?xml version="1.0"?><svg xmlns="http://www.w3.org/2000/svg" width="640" height="640" viewBox="0 0 640 640"><path d="m585.6 414.4c-14-14-36.8-14-50.8 0l-54.8 54.8-54.4-54.4c-14.3-12.5-35.8-11.8-49.2 1.6-13.4 13.4-14.1 34.9-1.6 49.2l54.4 54.4-54.8 54.4c-10.1 8.8-14.4 22.6-11.2 35.6 3.1 13.1 13.3 23.3 26.4 26.4 13 3.2 26.8-1.1 35.6-11.2l54.8-54.4 54.4 54.4c14.3 12.5 35.8 11.8 49.2-1.6 13.4-13.4 14.1-34.9 1.6-49.2l-54.4-54.4 54.4-54.4c6.9-6.7 10.8-15.9 10.9-25.5 0.1-9.6-3.7-18.9-10.5-25.7z m-509.6-134.4h4v204c0 42 34 76 76 76h80c19.9 0 36-16.1 36-36s-16.1-36-36-36h-80c-2.2 0-4-1.8-4-4v-204h336v20c0 19.9 16.1 36 36 36s36-16.1 36-36v-20h4c9.6 0 18.7-3.8 25.4-10.6 6.8-6.7 10.6-15.8 10.6-25.4v-84c0.6-20.8-7.1-41.1-21.6-56.2-14.4-15-34.3-23.6-55.2-23.8h-406.4c-20.9 0.2-40.8 8.8-55.2 23.8-14.5 15.1-22.2 35.4-21.6 56.2v84c0 9.6 3.8 18.7 10.6 25.4 6.7 6.8 15.8 10.6 25.4 10.6z m36-120c-0.6-1.7-0.4-3.6 0.5-5.2 0.9-1.5 2.5-2.6 4.3-2.8h406.4c1.8 0.2 3.4 1.3 4.3 2.8 0.9 1.6 1.1 3.5 0.5 5.2v48h-416v-48z"></path></svg>