<?xml version="1.0"?><svg xmlns="http://www.w3.org/2000/svg" width="640" height="640" viewBox="0 0 640 640"><path d="m574.4 414.4l-114.4 114.8-54.4-54.4c-14.3-12.5-35.8-11.8-49.2 1.6-13.4 13.4-14.1 34.9-1.6 49.2l105.6 105.6 165.6-165.6c14.1-14.2 14-37.3-0.2-51.4-14.2-14.1-37.3-14-51.4 0.2z m-418.4 145.6h40c19.9 0 36-16.1 36-36s-16.1-36-36-36h-40c-2.2 0-4-1.8-4-4v-204h336v44c0 19.9 16.1 36 36 36s36-16.1 36-36v-44h4c9.6 0 18.7-3.8 25.4-10.6 6.8-6.7 10.6-15.8 10.6-25.4v-84c0.6-20.8-7.1-41.1-21.6-56.2-14.4-15-34.3-23.6-55.2-23.8h-406.4c-20.9 0.2-40.8 8.8-55.2 23.8-14.5 15.1-22.2 35.4-21.6 56.2v84c0 9.6 3.8 18.7 10.6 25.4 6.7 6.8 15.8 10.6 25.4 10.6h4v204c0 42 34 76 76 76z m-44-400c-0.6-1.7-0.4-3.6 0.5-5.2 0.9-1.5 2.5-2.6 4.3-2.8h406.4c1.8 0.2 3.4 1.3 4.3 2.8 0.9 1.6 1.1 3.5 0.5 5.2v48h-416v-48z"></path></svg>