<?xml version="1.0"?><svg xmlns="http://www.w3.org/2000/svg" width="640" height="640" viewBox="0 0 640 640"><path d="m523.2 80h-406.4c-42.9 1.7-76.8 37-76.8 80v84c0 9.6 3.8 18.7 10.6 25.4 6.7 6.8 15.8 10.6 25.4 10.6h4v202.8c0 42.5 34.3 77 76.8 77.2h326.4c42.5-0.2 76.8-34.7 76.8-77.2v-202.8h4c19.9 0 36-16.1 36-36v-84c0-43-33.9-78.3-76.8-80z m-411.2 80c-0.6-1.7-0.4-3.6 0.5-5.2 0.9-1.5 2.5-2.6 4.3-2.8h406.4c1.8 0.2 3.4 1.3 4.3 2.8 0.9 1.6 1.1 3.5 0.5 5.2v48h-416v-48z m376 324c0.1 1.4-0.4 2.7-1.2 3.6-1 1-2.2 1.6-3.6 1.6h-326.4c-1.4 0-2.6-0.6-3.6-1.6-0.8-0.9-1.3-2.2-1.2-3.6v-204h336v204z m-208-84h80c22.1 0 40-17.9 40-40s-17.9-40-40-40h-80c-22.1 0-40 17.9-40 40s17.9 40 40 40z"></path></svg>