<?xml version="1.0"?><svg xmlns="http://www.w3.org/2000/svg" width="640" height="640" viewBox="0 0 640 640"><path d="m156 600h328c64.1 0 116-51.9 116-116v-248c0-64.1-51.9-116-116-116h-12v-40c0-19.9-16.1-36-36-36s-36 16.1-36 36v40h-160v-40c0-19.9-16.1-36-36-36s-36 16.1-36 36v40h-12c-64.1 0-116 51.9-116 116v248c0 64.1 51.9 116 116 116z m328-72h-328c-24.3 0-44-19.7-44-44v-124h416v124c0 24.3-19.7 44-44 44z m-328-336h12v8c0 19.9 16.1 36 36 36s36-16.1 36-36v-8h160v8c0 19.9 16.1 36 36 36s36-16.1 36-36v-8h12c11.7 0 22.9 4.6 31.1 12.9 8.3 8.2 12.9 19.4 12.9 31.1v52h-416v-52c0-11.7 4.6-22.9 12.9-31.1 8.2-8.3 19.4-12.9 31.1-12.9z m4 208h80v80h-80z m120 0h80v80h-80z m120 0h80v80h-80z"></path></svg>