<?xml version="1.0"?><svg xmlns="http://www.w3.org/2000/svg" width="640" height="640" viewBox="0 0 640 640"><path d="m629.6 414.8c-14-14-36.8-14-50.8 0l-56.4 54.8-54.8-56.4c-13.9-14.2-36.8-14.5-51-0.6-14.2 13.9-14.5 36.8-0.6 51l55.2 56.4-56.4 54.8c-14.2 13.9-14.5 36.8-0.6 51 13.9 14.2 36.8 14.5 51 0.6l54.8-55.6 54.8 56.4c13.9 14.2 36.8 14.5 51 0.6 14.2-13.9 14.5-36.8 0.6-51l-53.6-56.8 56.4-54.8c13.8-13.9 14-36.3 0.4-50.4z m-513.6 145.2h164c19.9 0 36-16.1 36-36s-16.1-36-36-36h-164c-2.2 0-4-1.8-4-4v-248c0-2.2 1.8-4 4-4h408c2.2 0 4 1.8 4 4v84c0 19.9 16.1 36 36 36s36-16.1 36-36v-84c0.2-28.1-15.2-54-40-67.2 1.6-21.4-8.4-42.1-26.2-54.2-17.8-12-40.6-13.7-60-4.4-19.3 9.4-32.2 28.4-33.8 49.8h-36v-44c0-42-34-76-76-76h-88c-42 0-76 34-76 76v44h-48c-42 0-76 34-76 76v248c0 42 34 76 76 76z m120-444c0-1.1 0.4-2.1 1.2-2.8 0.7-0.8 1.7-1.2 2.8-1.2h88c2.2 0 4 1.8 4 4v44h-96v-44z m44 140c-42.1 0-80 25.3-96.1 64.2-16.1 38.9-7.2 83.6 22.6 113.3 29.7 29.8 74.4 38.7 113.3 22.6 38.9-16.1 64.2-54 64.2-96.1 0-57.4-46.6-104-104-104z m0 144c-22.1 0-40-17.9-40-40s17.9-40 40-40 40 17.9 40 40-17.9 40-40 40z"></path></svg>