<?xml version="1.0"?><svg xmlns="http://www.w3.org/2000/svg" width="640" height="640" viewBox="0 0 640 640"><path d="m578.4 414.4l-134.4 134.8-54.4-54.8c-14.3-12.5-35.8-11.8-49.2 1.6-13.4 13.4-14.1 34.9-1.6 49.2l105.6 105.6 185.6-185.6c9.1-9.2 12.6-22.6 9.1-35-3.5-12.5-13.3-22.2-25.8-25.4-12.5-3.3-25.8 0.4-34.9 9.6z m-462.4 145.6h124c19.9 0 36-16.1 36-36s-16.1-36-36-36h-124c-2.2 0-4-1.8-4-4v-248c0-2.2 1.8-4 4-4h408c2.2 0 4 1.8 4 4v84c0 19.9 16.1 36 36 36s36-16.1 36-36v-84c0.2-28.1-15.2-54-40-67.2 1.6-21.4-8.4-42.1-26.2-54.2-17.8-12-40.6-13.7-60-4.4-19.3 9.4-32.2 28.4-33.8 49.8h-36v-44c0-42-34-76-76-76h-88c-42 0-76 34-76 76v44h-48c-42 0-76 34-76 76v248c0 42 34 76 76 76z m120-444c0-1.1 0.4-2.1 1.2-2.8 0.7-0.8 1.7-1.2 2.8-1.2h88c2.2 0 4 1.8 4 4v44h-96v-44z m-60 244c0 57.4 46.6 104 104 104 57.4 0 104-46.6 104-104 0-57.4-46.6-104-104-104-57.4 0-104 46.6-104 104z m144 0c0 22.1-17.9 40-40 40s-40-17.9-40-40 17.9-40 40-40 40 17.9 40 40z"></path></svg>