<?xml version="1.0"?><svg xmlns="http://www.w3.org/2000/svg" width="640" height="640" viewBox="0 0 640 640"><path d="m600 484h-44v-44c0-19.9-16.1-36-36-36s-36 16.1-36 36v44h-44c-19.9 0-36 16.1-36 36s16.1 36 36 36h44v44c0 19.9 16.1 36 36 36s36-16.1 36-36v-44h44c19.9 0 36-16.1 36-36s-16.1-36-36-36z m-100-384c-33.1 0-60 26.9-60 60h-36v-44c0-42-34-76-76-76h-88c-42 0-76 34-76 76v44h-48c-42 0-76 34-76 76v248c0 42 34 76 76 76h164c19.9 0 36-16.1 36-36s-16.1-36-36-36h-164c-2.2 0-4-1.8-4-4v-248c0-2.2 1.8-4 4-4h408c2.2 0 4 1.8 4 4v84c0 19.9 16.1 36 36 36s36-16.1 36-36v-84c0.2-28.1-15.2-54-40-67.2 3-17.4-2-35.3-13.6-48.7-11.7-13.3-28.7-20.8-46.4-20.1z m-264 16c0-2.2 1.8-4 4-4h88c2.2 0 4 1.8 4 4v44h-96v-44z m-60 244c0 57.4 46.6 104 104 104 57.4 0 104-46.6 104-104 0-57.4-46.6-104-104-104-57.4 0-104 46.6-104 104z m144 0c0 22.1-17.9 40-40 40s-40-17.9-40-40 17.9-40 40-40 40 17.9 40 40z"></path></svg>