<?xml version="1.0"?><svg xmlns="http://www.w3.org/2000/svg" width="640" height="640" viewBox="0 0 640 640"><path d="m600 364h-120c-19.9 0-36 16.1-36 36s16.1 36 36 36h120c19.9 0 36-16.1 36-36s-16.1-36-36-36z m-40 124h-444c-2.2 0-4-1.8-4-4v-248c0-2.2 1.8-4 4-4h408c2.2 0 4 1.8 4 4v44c0 19.9 16.1 36 36 36s36-16.1 36-36v-44c0.2-28.1-15.2-54-40-67.2 1.6-21.4-8.4-42.1-26.2-54.2-17.8-12-40.6-13.7-60-4.4-19.3 9.4-32.2 28.4-33.8 49.8h-36v-44c0-42-34-76-76-76h-88c-42 0-76 34-76 76v44h-48c-42 0-76 34-76 76v248c0 42 34 76 76 76h444c19.9 0 36-16.1 36-36s-16.1-36-36-36z m-324-372c0-2.2 1.8-4 4-4h88c2.2 0 4 1.8 4 4v44h-96v-44z m-60 244c0 57.4 46.6 104 104 104 57.4 0 104-46.6 104-104 0-57.4-46.6-104-104-104-57.4 0-104 46.6-104 104z m144 0c0 22.1-17.9 40-40 40s-40-17.9-40-40 17.9-40 40-40 40 17.9 40 40z"></path></svg>