<?xml version="1.0"?><svg xmlns="http://www.w3.org/2000/svg" width="640" height="640" viewBox="0 0 640 640"><path d="m116 560h408c42 0 76-34 76-76v-248c0.2-28.1-15.2-54-40-67.2 1.6-21.4-8.4-42.1-26.2-54.2-17.8-12-40.6-13.7-60-4.4-19.3 9.4-32.2 28.4-33.8 49.8h-36v-44c0-42-34-76-76-76h-88c-42 0-76 34-76 76v44h-48c-42 0-76 34-76 76v248c0 42 34 76 76 76z m120-444c0-1.1 0.4-2.1 1.2-2.8 0.7-0.8 1.7-1.2 2.8-1.2h88c2.2 0 4 1.8 4 4v44h-96v-44z m-124 120c0-2.2 1.8-4 4-4h408c2.2 0 4 1.8 4 4v248c0 2.2-1.8 4-4 4h-408c-2.2 0-4-1.8-4-4v-248z m168 228c57.4 0 104-46.6 104-104 0-57.4-46.6-104-104-104-57.4 0-104 46.6-104 104 0 57.4 46.6 104 104 104z m0-144c22.1 0 40 17.9 40 40s-17.9 40-40 40-40-17.9-40-40 17.9-40 40-40z"></path></svg>