<?xml version="1.0"?><svg xmlns="http://www.w3.org/2000/svg" width="640" height="640" viewBox="0 0 640 640"><path d="m610 80c-19.1-5.4-39 5.7-44.4 24.8l-40 136c-17.3 49.1-62.1 83.3-114 87.2h-208l-48.4-216c-11-55.1-54.7-97.8-110-107.6-19.3-2.6-37.1 10.8-40 30-2.2 19 10.7 36.6 29.6 40 26.1 5.9 45.9 27.2 50 53.6l67.2 300c10.8 53.5 57.8 92 112.4 92h255.6c19.9 0 36-16.1 36-36s-16.1-36-36-36h-255.6c-19.9-1-36.5-15.6-40-35.2l-4.8-12.8h192c82.8-3.4 155.4-56.7 183.2-134.8l40-139.6c3-9.3 2-19.5-2.7-28.1-4.7-8.6-12.7-14.9-22.1-17.5z m-410 560c19.9 0 36-16.1 36-36s-16.1-36-36-36h-40c-19.9 0-36 16.1-36 36s16.1 36 36 36h40z m320 0c19.9 0 36-16.1 36-36s-16.1-36-36-36h-40c-19.9 0-36 16.1-36 36s16.1 36 36 36h40z"></path><circle cx="340" cy="260" r="40"></circle><path d="m432 100c0-50.8-41.2-92-92-92-50.8 0-92 41.2-92 92 0 17.7 14.3 32 32 32 17.7 0 32-14.3 32-32 0-15.5 12.5-28 28-28 15.5 0 28 12.5 28 28 0 15.5-12.5 28-28 28-17.7 0-32 14.3-32 32 0 17.7 14.3 32 32 32 50.8 0 92-41.2 92-92z"></path></svg>