<?xml version="1.0"?><svg xmlns="http://www.w3.org/2000/svg" width="640" height="640" viewBox="0 0 640 640"><path d="m600 80h-456.4c-18.6-39.6-55.3-67.8-98.4-75.6-19.3-2.6-37.1 10.8-40 30-2.2 19 10.7 36.6 29.6 40 26.1 5.9 45.9 27.2 50 53.6l67.2 300c10.8 53.5 57.8 92 112.4 92h255.6c19.9 0 36-16.1 36-36s-16.1-36-36-36h-255.6c-20.6-0.2-38.2-15-42-35.2l-2.8-12.8h192c82.8-3.4 155.4-56.7 183.2-134.8l40-139.6c3-10.8 0.8-22.5-6.1-31.4-6.8-9-17.4-14.2-28.7-14.2z m-73.2 162c-17.9 49-63.1 82.8-115.2 86h-208l-40-176h388.4l-25.2 90z m-326.8 398c19.9 0 36-16.1 36-36s-16.1-36-36-36h-40c-19.9 0-36 16.1-36 36s16.1 36 36 36h40z m320 0c19.9 0 36-16.1 36-36s-16.1-36-36-36h-40c-19.9 0-36 16.1-36 36s16.1 36 36 36h40z"></path></svg>