<?xml version="1.0"?><svg xmlns="http://www.w3.org/2000/svg" width="640" height="640" viewBox="0 0 640 640"><path d="m610 80c-19.1-5.4-39 5.7-44.4 24.8l-40 136c-17.3 49.1-62.1 83.3-114 87.2h-208l-48.4-216c-11-55.1-54.7-97.8-110-107.6-9.3-1.4-18.8 1-26.2 6.7-7.6 5.6-12.5 14-13.8 23.3-2.2 19 10.7 36.6 29.6 40 26.1 5.9 45.9 27.2 50 53.6l67.2 300c10.8 53.5 57.8 92 112.4 92h255.6c19.9 0 36-16.1 36-36s-16.1-36-36-36h-255.6c-19.9-1-36.5-15.6-40-35.2l-4.8-12.8h192c82.8-3.4 155.4-56.7 183.2-134.8l40-139.6c3-9.3 2-19.5-2.7-28.1-4.7-8.6-12.7-14.9-22.1-17.5z m-410 560c19.9 0 36-16.1 36-36s-16.1-36-36-36h-40c-19.9 0-36 16.1-36 36s16.1 36 36 36h40z m320 0c19.9 0 36-16.1 36-36s-16.1-36-36-36h-40c-19.9 0-36 16.1-36 36s16.1 36 36 36h40z m-97.2-582.8c-12.5-12.5-32.7-12.5-45.2 0l-37.6 37.6-37.2-37.6c-12.6-12.6-33-12.6-45.6 0-12.6 12.6-12.6 33 0 45.6l37.6 37.2-37.2 37.2c-12.6 12.5-12.7 32.8-0.2 45.4 12.5 12.6 32.8 12.7 45.4 0.2l37.2-37.6 37.2 37.6c7.9 8.8 20 12.4 31.5 9.6 11.5-2.9 20.4-11.8 23.3-23.3 2.8-11.5-0.8-23.6-9.6-31.5l-37.2-37.6 37.2-37.2c6.1-6 9.6-14.2 9.7-22.7 0.1-8.6-3.3-16.8-9.3-22.9z"></path></svg>