<?xml version="1.0"?><svg xmlns="http://www.w3.org/2000/svg" width="640" height="640" viewBox="0 0 640 640"><path d="m600 80h-332c-17-45.1-59.8-75.2-108-76-19.9 0-36 16.1-36 36s16.1 36 36 36c23.7 1.4 42.6 20.3 44 44v300.8c-0.2 2.4-0.2 4.8 0 7.2 12.9 53.7 60.8 91.7 116 92h160c19.9 0 36-16.1 36-36s-16.1-36-36-36h-160c-19.8 0.1-37.5-12.5-44-31.2v-16.8h135.6c80.2 0.2 152.4-48.6 182-123.2v-4l40-147.6c2.8-10.6 0.6-21.9-5.9-30.7-6.5-8.8-16.7-14.1-27.7-14.5z m-74 172c-19.2 46.2-64.4 76.2-114.4 76h-135.6v-176h277.2l-27.2 100z m-326 388h40c19.9 0 36-16.1 36-36s-16.1-36-36-36h-40c-19.9 0-36 16.1-36 36s16.1 36 36 36z m280 0c19.9 0 36-16.1 36-36s-16.1-36-36-36h-40c-19.9 0-36 16.1-36 36s16.1 36 36 36h40z m-440-448h80c19.9 0 36-16.1 36-36s-16.1-36-36-36h-80c-19.9 0-36 16.1-36 36s16.1 36 36 36z m80 56h-40c-19.9 0-36 16.1-36 36s16.1 36 36 36h40c19.9 0 36-16.1 36-36s-16.1-36-36-36z"></path></svg>