<?xml version="1.0"?><svg xmlns="http://www.w3.org/2000/svg" width="640" height="640" viewBox="0 0 640 640"><path d="m570 85.2c-19.1-5.4-39 5.7-44.4 24.8l-40 136c-17.8 48.6-62.4 82.2-114 86h-208c-16-73.6-40-174.4-48.8-220-11-55-54.4-97.7-109.6-107.6-19.3-2.6-37.1 10.8-40 30-2.2 19 10.7 36.6 29.6 40 26.1 5.9 45.9 27.2 50 53.6 16.8 74.8 67.2 304 67.2 304 10.8 53.5 57.8 92 112.4 92h255.6c19.9 0 36-16.1 36-36s-16.1-36-36-36h-255.6c-19.8-1-36.3-15.4-40-34.8l-4.8-13.2h192c82.8-3.4 155.4-56.7 183.2-134.8l40-139.6c5.4-19.1-5.7-39-24.8-44.4z m-410 558.8c19.9 0 36-16.1 36-36s-16.1-36-36-36h-40c-19.9 0-36 16.1-36 36s16.1 36 36 36h40z m280 0h40c19.9 0 36-16.1 36-36s-16.1-36-36-36h-40c-19.9 0-36 16.1-36 36s16.1 36 36 36z m-140-413.2l165.6-165.6c14-14.1 13.9-37-0.2-51-14.1-14-37-13.9-51 0.2l-114.4 114.8-34.4-34.8c-9.2-9.2-22.5-12.7-35-9.4-12.5 3.4-22.2 13.1-25.6 25.6-3.3 12.5 0.2 25.8 9.4 35l85.6 85.2z"></path></svg>