<?xml version="1.0"?><svg xmlns="http://www.w3.org/2000/svg" width="640" height="640" viewBox="0 0 640 640"><path d="m320 416c9.6 0 18.7-3.8 25.4-10.6 6.8-6.7 10.6-15.8 10.6-25.4v-80c0-19.9-16.1-36-36-36s-36 16.1-36 36v80c0 9.6 3.8 18.7 10.6 25.4 6.7 6.8 15.8 10.6 25.4 10.6z"></path><circle cx="320" cy="480" r="40"></circle><path d="m44.8 640h550.4c13.9 0 26.7-7.2 34-19.1 7.2-11.8 7.8-26.5 1.6-38.9l-275.2-550.4c-6.8-13.6-20.6-22.2-35.8-22.2-15.2 0-29 8.6-35.8 22.2l-275.2 550.4c-6.3 12.4-5.6 27.2 1.7 39.1 7.4 11.8 20.4 19 34.3 18.9z m275.2-520l223.6 448h-447.2l223.6-448z"></path></svg>