<?xml version="1.0"?><svg xmlns="http://www.w3.org/2000/svg" width="640" height="640" viewBox="0 0 640 640"><path d="m320 600c154.6 0 280-125.4 280-280s-125.4-280-280-280-280 125.4-280 280 125.4 280 280 280z m0-488c114.9 0 208 93.1 208 208 0 114.9-93.1 208-208 208-114.9 0-208-93.1-208-208 0.2-114.8 93.2-207.8 208-208z m-40 338.8l165.6-165.6c9.1-9.2 12.6-22.4 9.2-34.9-3.4-12.4-13.2-22.1-25.6-25.4-12.5-3.3-25.7 0.3-34.8 9.5l-114.4 114.8-54.4-54.8c-14.1-14.1-37.1-14.1-51.2 0s-14.1 37.1 0 51.2l105.6 105.2z"></path></svg>