<?xml version="1.0"?><svg xmlns="http://www.w3.org/2000/svg" width="640" height="640" viewBox="0 0 640 640"><path d="m320 40c-154.6 0-280 125.4-280 280s125.4 280 280 280 280-125.4 280-280c0-74.3-29.5-145.5-82-198-52.5-52.5-123.7-82-198-82z m36 484.4v-24.4c0-19.9-16.1-36-36-36s-36 16.1-36 36v24.4c-86-15.2-153.2-82.4-168.4-168.4h24.4c12.9 0 24.8-6.9 31.2-18 6.4-11.1 6.4-24.9 0-36s-18.4-18-31.2-18h-24.4c15.2-86 82.4-153.2 168.4-168.4v24.4c0 19.9 16.1 36 36 36s36-16.1 36-36v-24.4c86 15.2 153.2 82.4 168.4 168.4h-24.4c-19.9 0-36 16.1-36 36s16.1 36 36 36h24.4c-15.2 86-82.4 153.2-168.4 168.4z m44-240.4h-44v-44c0-19.9-16.1-36-36-36s-36 16.1-36 36v80c0 19.9 16.1 36 36 36h80c19.9 0 36-16.1 36-36s-16.1-36-36-36z"></path></svg>