<?xml version="1.0"?><svg xmlns="http://www.w3.org/2000/svg" width="640" height="640" viewBox="0 0 640 640"><path d="m425.6 214.4c-14-14-36.8-14-50.8 0l-54.8 54.8-54.4-54.8c-14.1-14.1-37.1-14.1-51.2 0s-14.1 37.1 0 51.2l54.8 54.4-54.8 54.4c-10.1 8.8-14.4 22.6-11.2 35.6 3.1 13.1 13.3 23.3 26.4 26.4 13 3.2 26.8-1.1 35.6-11.2l54.8-54.4 54.4 54.4c14.3 12.5 35.8 11.8 49.2-1.6 13.4-13.4 14.1-34.9 1.6-49.2l-54.4-54.4 54.4-54.4c6.9-6.7 10.8-15.9 10.9-25.5 0.1-9.6-3.7-18.9-10.5-25.7z m-105.6-174.4c-154.6 0-280 125.4-280 280s125.4 280 280 280 280-125.4 280-280c0-74.3-29.5-145.5-82-198-52.5-52.5-123.7-82-198-82z m0 488c-114.9 0-208-93.1-208-208 0-114.9 93.1-208 208-208 114.9 0 208 93.1 208 208-0.2 114.8-93.2 207.8-208 208z"></path></svg>