<?xml version="1.0"?><svg xmlns="http://www.w3.org/2000/svg" width="640" height="640" viewBox="0 0 640 640"><path d="m320 40c-154.6 0-280 125.4-280 280s125.4 280 280 280 280-125.4 280-280c0-74.3-29.5-145.5-82-198-52.5-52.5-123.7-82-198-82z m0 488c-114.9 0-208-93.1-208-208 0-114.9 93.1-208 208-208 114.9 0 208 93.1 208 208-0.2 114.8-93.2 207.8-208 208z m80-248h-40v-40c0-22.1-17.9-40-40-40s-40 17.9-40 40v40h-40c-22.1 0-40 17.9-40 40s17.9 40 40 40h40v40c0 22.1 17.9 40 40 40s40-17.9 40-40v-40h40c22.1 0 40-17.9 40-40s-17.9-40-40-40z"></path></svg>