<?xml version="1.0"?><svg xmlns="http://www.w3.org/2000/svg" width="640" height="640" viewBox="0 0 640 640"><path d="m320 600c154.6 0 280-125.4 280-280s-125.4-280-280-280-280 125.4-280 280 125.4 280 280 280z m0-488c114.9 0 208 93.1 208 208 0 114.9-93.1 208-208 208-114.9 0-208-93.1-208-208 0.2-114.8 93.2-207.8 208-208z"></path><circle cx="320" cy="440" r="40"></circle><path d="m260 284c17.7 0 32-14.3 32-32 0-15.5 12.5-28 28-28 15.5 0 28 12.5 28 28-4.2 13.8-12.1 26.3-22.8 36-12.4 14-23.6 29.2-33.2 45.2-6.2 10-6.4 22.5-0.6 32.7 5.8 10.2 16.7 16.4 28.4 16.2 11.8-0.3 22.4-6.9 27.8-17.3 7.8-12.8 16.8-24.8 26.8-36 21.5-20.1 34.9-47.4 37.6-76.8 0-50.8-41.2-92-92-92-50.8 0-92 41.2-92 92 0 8.5 3.4 16.6 9.4 22.6 6 6 14.1 9.4 22.6 9.4z"></path></svg>