<?xml version="1.0"?><svg xmlns="http://www.w3.org/2000/svg" width="640" height="640" viewBox="0 0 640 640"><path d="m280 324c-19.9 0-36 16.1-36 36v113.2l-18.4-18.4c-14.3-12.5-35.8-11.8-49.2 1.6-13.4 13.4-14.1 34.9-1.6 49.2l105.2 105.2 105.6-105.6c12.5-14.3 11.8-35.8-1.6-49.2-13.4-13.4-34.9-14.1-49.2-1.6l-18.4 18.4v-112.8c0-9.6-3.8-18.8-10.7-25.6-6.8-6.8-16.1-10.5-25.7-10.4z m202.4-121.2c-21.5 0-42.7 4.5-62.4 13.2-33-82.4-112.9-136.3-201.6-136-85.6 0.7-163 50.9-198.6 128.8-35.6 77.8-22.8 169.2 32.6 234.4 8.4 9.8 21.3 14.4 34 12 12.6-2.3 23.1-11.2 27.4-23.4 4.3-12.1 1.8-25.6-6.6-35.4-37.2-43.8-45.7-105.2-21.9-157.5s75.6-86.1 133.1-86.9c73.6 0.1 135.5 55 144.4 128 2 13.3 11.2 24.4 23.9 28.7 12.7 4.4 26.8 1.3 36.5-7.9 15.8-15.3 36.8-23.9 58.8-24 45.6 3.1 80.9 41 80.9 86.6 0 45.6-35.3 83.5-80.9 86.6-19.9 0-36 16.1-36 36s16.1 36 36 36c83.8-5.8 148.8-75.4 148.9-159.4 0.1-84-64.7-153.8-148.5-159.8z"></path></svg>