<?xml version="1.0"?><svg xmlns="http://www.w3.org/2000/svg" width="640" height="640" viewBox="0 0 640 640"><path d="m482.4 202.8c-21.5 0-42.7 4.5-62.4 13.2-33-82.4-112.9-136.3-201.6-136-121.5 0-220 98.5-220 220s98.5 220 220 220h263.6c79.5-10.5 139-78.2 139.1-158.4 0.1-80.2-59.2-148.1-138.7-158.8z m0 245.2h-264c-81.7 0-148-66.3-148-148s66.3-148 148-148c73.6 0.1 135.5 55 144.4 128 2 13.3 11.2 24.4 23.9 28.7 12.7 4.4 26.8 1.3 36.5-7.9 15.8-15.3 36.8-23.9 58.8-24 41.8 6.9 72.5 43 72.6 85.4 0.1 42.4-30.4 78.7-72.2 85.8z"></path></svg>