<?xml version="1.0"?><svg xmlns="http://www.w3.org/2000/svg" width="640" height="640" viewBox="0 0 640 640"><path d="m240 600c19.9 0 36-16.1 36-36v-77.2l18.4 18.4c14.3 12.5 35.8 11.8 49.2-1.6 13.4-13.4 14.1-34.9 1.6-49.2l-105.2-105.2-105.6 105.2c-12.5 14.3-11.8 35.8 1.6 49.2 13.4 13.4 34.9 14.1 49.2 1.6l18.4-18.4v77.2c0 9.6 3.8 18.8 10.7 25.6 6.8 6.8 16.1 10.5 25.7 10.4z m242.4-397.2c-21.5 0-42.7 4.5-62.4 13.2-33-82.4-112.9-136.3-201.6-136-75.7 0.7-145.7 40.2-185.5 104.5-39.8 64.4-43.7 144.7-10.5 212.7 8.7 17.9 30.3 25.3 48.2 16.6 17.9-8.7 25.3-30.3 16.6-48.2-22.3-45.6-19.8-99.6 6.8-142.9 26.6-43.3 73.6-70 124.4-70.7 73.6 0.1 135.5 55 144.4 128 2 13.3 11.2 24.4 23.9 28.7 12.7 4.4 26.8 1.3 36.5-7.9 15.8-15.3 36.8-23.9 58.8-24 45.6 3.1 80.9 41 80.9 86.6 0 45.6-35.3 83.5-80.9 86.6-19.9 0-36 16.1-36 36s16.1 36 36 36c83.8-5.8 148.8-75.4 148.9-159.4 0.1-84-64.7-153.8-148.5-159.8z"></path></svg>