<?xml version="1.0"?><svg xmlns="http://www.w3.org/2000/svg" width="640" height="640" viewBox="0 0 640 640"><path d="m160 476c14.6 0.1 27.9-8.6 33.5-22.2 5.6-13.5 2.5-29.1-7.9-39.4l-94.8-94.4 94.8-94.4c9.2-9.2 12.7-22.5 9.4-35-3.4-12.5-13.1-22.2-25.6-25.6-12.5-3.3-25.8 0.2-35 9.4l-120 120c-14 14-14 36.8 0 50.8l120 120c6.8 6.9 16 10.8 25.6 10.8z m294.4-10.4c14 14 36.8 14 50.8 0l120-120c14-14 14-36.8 0-50.8l-120-120c-14.3-12.5-35.8-11.8-49.2 1.6-13.4 13.4-14.1 34.9-1.6 49.2l94.8 94.4-94.4 94.4c-6.9 6.7-10.8 15.9-10.9 25.5-0.1 9.6 3.7 18.9 10.5 25.7z m-181.6 89.6l7.2 0.8c17.1 0 31.8-12.1 35.2-28.8l80-400c3.7-13-0.3-27-10.2-36.2-10-9.2-24.2-12-36.9-7.4-12.7 4.8-21.7 16.2-23.3 29.6l-80 400c-3.7 19.3 8.8 38 28 42z"></path></svg>