<?xml version="1.0"?><svg xmlns="http://www.w3.org/2000/svg" width="640" height="640" viewBox="0 0 640 640"><path d="m440 156h44v44c0 19.9 16.1 36 36 36s36-16.1 36-36v-44h44c19.9 0 36-16.1 36-36s-16.1-36-36-36h-44v-44c0-19.9-16.1-36-36-36s-36 16.1-36 36v44h-44c-19.9 0-36 16.1-36 36s16.1 36 36 36z m-324 364h408c42 0 76-34 76-76v-204h-488v-44c0-2.2 1.8-4 4-4h200c19.9 0 36-16.1 36-36s-16.1-36-36-36h-200c-42 0-76 34-76 76v248c0 20.2 8 39.5 22.2 53.8 14.3 14.2 33.6 22.2 53.8 22.2z m412-200v124c0 2.2-1.8 4-4 4h-408c-2.2 0-4-1.8-4-4v-124h416z"></path></svg>