<?xml version="1.0"?><svg xmlns="http://www.w3.org/2000/svg" width="640" height="640" viewBox="0 0 640 640"><path d="m524 80h-408c-42 0-76 34-76 76v248c0 20.2 8 39.5 22.2 53.8 14.3 14.2 33.6 22.2 53.8 22.2h124v40h-80c-22.1 0-40 17.9-40 40s17.9 40 40 40h320c22.1 0 40-17.9 40-40s-17.9-40-40-40h-80v-40h124c20.2 0 39.5-8 53.8-22.2 14.2-14.3 22.2-33.6 22.2-53.8v-248c0-42-34-76-76-76z m-196 440h-16v-40h16v40z m200-116c0 2.2-1.8 4-4 4h-408c-2.2 0-4-1.8-4-4v-248c0-2.2 1.8-4 4-4h408c2.2 0 4 1.8 4 4v248z"></path></svg>