<?xml version="1.0"?><svg xmlns="http://www.w3.org/2000/svg" width="640" height="640" viewBox="0 0 640 640"><path d="m200 436c14.6 0.1 27.9-8.6 33.5-22.2 5.6-13.5 2.5-29.1-7.9-39.4l-58.8-58.4h306l-58.4 58.4c-10.1 8.8-14.4 22.6-11.2 35.6 3.1 13.1 13.3 23.3 26.4 26.4 13 3.2 26.8-1.1 35.6-11.2l145.6-145.2-145.2-145.6c-14.3-12.5-35.8-11.8-49.2 1.6-13.4 13.4-14.1 34.9-1.6 49.2l58.4 58.8h-306.4l58.8-58.4c14.1-14.1 14.1-37.1 0-51.2s-37.1-14.1-51.2 0l-145.2 145.6 145.6 145.6c6.7 6.6 15.8 10.4 25.2 10.4z"></path></svg>