<?xml version="1.0"?><svg xmlns="http://www.w3.org/2000/svg" width="640" height="640" viewBox="0 0 640 640"><path d="m533.2 289.6c-11.4-48.3-51.9-84.2-101.2-89.6 5.1-12.7 7.8-26.3 8-40 0-66.3-53.7-120-120-120s-120 53.7-120 120c0.2 13.7 2.9 27.3 8 40-49.3 5.4-89.8 41.3-101.2 89.6l-76.8 310.4h580l-76.8-310.4z m-213.2-177.6c26.5 0 48 21.5 48 48 0 22.1-17.9 40-40 40h-18c-22.1 0-40-17.9-40-40 0-13.1 5.3-25.6 14.8-34.7 9.4-9 22.1-13.9 35.2-13.3z m-198 416l54.8-221.2c4.8-20.4 23-34.8 44-34.8h200c21 0 39.2 14.4 44 34.8l54.8 221.2h-397.6z"></path></svg>