<?xml version="1.0"?><svg xmlns="http://www.w3.org/2000/svg" width="640" height="640" viewBox="0 0 640 640"><path d="m564 160h-488c-42 0-76 34-76 76v168c0 20.2 8 39.5 22.2 53.8 14.3 14.2 33.6 22.2 53.8 22.2h488c20.2 0 39.5-8 53.8-22.2 14.2-14.3 22.2-33.6 22.2-53.8v-168c0-42-34-76-76-76z m4 244c0 2.2-1.8 4-4 4h-488c-2.2 0-4-1.8-4-4v-168c0-2.2 1.8-4 4-4h128v88c0 19.9 16.1 36 36 36s36-16.1 36-36v-88h48v48c0 19.9 16.1 36 36 36s36-16.1 36-36v-48h48v88c0 19.9 16.1 36 36 36s36-16.1 36-36v-88h48c2.2 0 4 1.8 4 4v168z"></path></svg>