<?xml version="1.0"?><svg xmlns="http://www.w3.org/2000/svg" width="640" height="640" viewBox="0 0 640 640"><path d="m400 62.4c-13.8-14-32.7-22.1-52.4-22.4h-151.6c-42 0-76 34-76 76v328c0 20.2 8 39.5 22.2 53.8 14.3 14.2 33.6 22.2 53.8 22.2h248c42 0 76-34 76-76v-231.6c-0.3-19.7-8.4-38.6-22.4-52.4l-97.6-97.6z m43.2 145.6h-91.2v-91.2l91.2 91.2z m0 240h-247.2c-2.2 0-4-1.8-4-4v-328c0-2.2 1.8-4 4-4h84v168h168v164c0 2.2-1.8 4-4 4h-0.8z m-119.2 120h-248c-2.2 0-4-1.8-4-4v-328c0-19.9-16.1-36-36-36s-36 16.1-36 36v328c0 42 34 76 76 76h248c12.9 0 24.8-6.9 31.2-18 6.4-11.1 6.4-24.9 0-36s-18.3-18-31.2-18z m36-248h-80c-22.1 0-40 17.9-40 40s17.9 40 40 40h80c22.1 0 40-17.9 40-40s-17.9-40-40-40z"></path></svg>