<?xml version="1.0"?><svg xmlns="http://www.w3.org/2000/svg" width="640" height="640" viewBox="0 0 640 640"><path d="m474.4 80h-34.4v-40h-240v40h-34.4c-22.6-0.1-44.3 8.8-60.4 24.7-16 15.9-25.1 37.5-25.2 60.1v350.8c0.4 46.9 38.7 84.6 85.6 84.4h308.4c22.7 0.2 44.5-8.6 60.6-24.5 16.2-15.9 25.2-37.6 25.4-60.3v-350.4c-0.1-22.6-9.2-44.2-25.2-60.1-16.1-15.9-37.8-24.8-60.4-24.7z m13.6 435.2c-0.1 3.5-1.6 6.8-4.2 9.2-2.5 2.4-5.9 3.7-9.4 3.6h-308.8c-3.5 0.1-6.9-1.2-9.4-3.6-2.6-2.4-4-5.7-4.2-9.2v-350.4c0.1-3.5 1.6-6.8 4.2-9.2 2.5-2.4 5.9-3.7 9.4-3.6h34.4v88h240v-88h34.4c3.5-0.1 6.9 1.2 9.4 3.6 2.6 2.4 4 5.7 4.2 9.2v350.8-0.4z m-88-235.2h-160c-22.1 0-40 17.9-40 40s17.9 40 40 40h160c22.1 0 40-17.9 40-40s-17.9-40-40-40z m0 120h-160c-22.1 0-40 17.9-40 40s17.9 40 40 40h160c22.1 0 40-17.9 40-40s-17.9-40-40-40z"></path></svg>