<?xml version="1.0"?><svg xmlns="http://www.w3.org/2000/svg" width="640" height="640" viewBox="0 0 640 640"><path d="m400 102.4c-13.8-14-32.7-22.1-52.4-22.4h-151.6c-42 0-76 34-76 76v328c0 20.2 8 39.5 22.2 53.8 14.3 14.2 33.6 22.2 53.8 22.2h248c42 0 76-34 76-76v-231.6c-0.4-19.7-8.4-38.5-22.4-52.4l-97.6-97.6z m43.2 145.6h-91.2v-91.6l91.2 91.6z m0 240h-247.2c-2.2 0-4-1.8-4-4v-328c0-2.2 1.8-4 4-4h84v168h168v164c0 2.2-1.8 4-4 4h-0.8z m-83.2-128h-80c-22.1 0-40 17.9-40 40s17.9 40 40 40h80c22.1 0 40-17.9 40-40s-17.9-40-40-40z"></path></svg>