<?xml version="1.0"?><svg xmlns="http://www.w3.org/2000/svg" width="640" height="640" viewBox="0 0 640 640"><path d="m347.6 40h-151.6c-42 0-76 34-76 76v328c0 20.2 8 39.5 22.2 53.8 14.3 14.2 33.6 22.2 53.8 22.2h248c42 0 76-34 76-76v-231.6c-0.3-19.7-8.4-38.6-22.4-52.4l-97.6-97.6c-13.8-14-32.7-22.1-52.4-22.4z m4.4 76.8l91.2 91.2h-91.2v-91.2z m92 331.2h-248c-2.2 0-4-1.8-4-4v-328c0-2.2 1.8-4 4-4h84v168h168v164c0 2.2-1.8 4-4 4z m-120 192c19.9 0 36-16.1 36-36s-16.1-36-36-36h-248c-2.2 0-4-1.8-4-4v-328c0-19.9-16.1-36-36-36s-36 16.1-36 36v328c0 42 34 76 76 76h248z"></path></svg>