<?xml version="1.0"?><svg xmlns="http://www.w3.org/2000/svg" width="640" height="640" viewBox="0 0 640 640"><path d="m600 40h-196c-19.9 0-36 16.1-36 36s16.1 36 36 36h73.2l-102.8 102.4c-10.1 8.8-14.4 22.6-11.2 35.6 3.1 13.1 13.3 23.3 26.4 26.4 13 3.2 26.8-1.1 35.6-11.2l102.8-102.4v73.2c0 19.9 16.1 36 36 36s36-16.1 36-36v-196z m-524 232c19.9 0 36-16.1 36-36v-73.2l102.4 102.8c14.1 14.1 37.1 14.1 51.2 0s14.1-37.1 0-51.2l-102.8-102.4h73.2c19.9 0 36-16.1 36-36s-16.1-36-36-36h-196v196c0 19.9 16.1 36 36 36z m196 292c0-19.9-16.1-36-36-36h-73.2l102.4-102.4c9.2-9.1 12.8-22.3 9.5-34.8-3.3-12.4-13-22.2-25.4-25.6-12.4-3.4-25.7 0.1-34.9 9.2l-102.4 102.8v-73.2c0-19.9-16.1-36-36-36s-36 16.1-36 36v196h196c19.9 0 36-16.1 36-36z m96 0c0 9.6 3.8 18.7 10.6 25.4 6.7 6.8 15.8 10.6 25.4 10.6h196v-196c0-19.9-16.1-36-36-36s-36 16.1-36 36v73.2l-102.4-102.8c-14.3-12.5-35.8-11.8-49.2 1.6-13.4 13.4-14.1 34.9-1.6 49.2l102.4 102.4h-73.2c-9.6 0-18.8 3.8-25.6 10.7-6.8 6.8-10.5 16.1-10.4 25.7z"></path></svg>