<?xml version="1.0"?><svg xmlns="http://www.w3.org/2000/svg" width="640" height="640" viewBox="0 0 640 640"><path d="m600 116c0-42-34-76-76-76h-408c-42 0-76 34-76 76v408c0 42 34 76 76 76h408c42 0 76-34 76-76v-408z m-72 408c0 2.2-1.8 4-4 4h-408c-2.2 0-4-1.8-4-4v-408c0-2.2 1.8-4 4-4h408c2.2 0 4 1.8 4 4v408z m-88-164h-240c-22.1 0-40 17.9-40 40s17.9 40 40 40h240c22.1 0 40-17.9 40-40s-17.9-40-40-40z m0-160h-240c-22.1 0-40 17.9-40 40s17.9 40 40 40h240c22.1 0 40-17.9 40-40s-17.9-40-40-40z"></path></svg>