<?xml version="1.0"?><svg xmlns="http://www.w3.org/2000/svg" width="640" height="640" viewBox="0 0 640 640"><path d="m236 600h248c42 0 76-34 76-76v-328c0-42-34-76-76-76h-248c-42 0-76 34-76 76v328c0 20.2 8 39.5 22.2 53.8 14.3 14.2 33.6 22.2 53.8 22.2z m-4-404c0-2.2 1.8-4 4-4h248c2.2 0 4 1.8 4 4v328c0 2.2-1.8 4-4 4h-248c-2.2 0-4-1.8-4-4v-328z m-156 244c19.9 0 36-16.1 36-36v-328c0-2.2 1.8-4 4-4h248c19.9 0 36-16.1 36-36s-16.1-36-36-36h-248c-42 0-76 34-76 76v328c0 9.6 3.8 18.7 10.6 25.4 6.7 6.8 15.8 10.6 25.4 10.6z"></path></svg>