<?xml version="1.0"?><svg xmlns="http://www.w3.org/2000/svg" width="640" height="640" viewBox="0 0 640 640"><path d="m520 280h-200c-22.1 0-40 17.9-40 40s17.9 40 40 40h200c22.1 0 40-17.9 40-40s-17.9-40-40-40z m0-160h-200c-22.1 0-40 17.9-40 40s17.9 40 40 40h200c22.1 0 40-17.9 40-40s-17.9-40-40-40z"></path><circle cx="160" cy="160" r="60"></circle><circle cx="160" cy="320" r="60"></circle><path d="m520 440h-200c-22.1 0-40 17.9-40 40s17.9 40 40 40h200c22.1 0 40-17.9 40-40s-17.9-40-40-40z"></path><circle cx="160" cy="480" r="60"></circle></svg>