<?xml version="1.0"?><svg xmlns="http://www.w3.org/2000/svg" width="640" height="640" viewBox="0 0 640 640"><path d="m593.6 186.8c-7.4-18.4-28.4-27.4-46.8-20l-281.6 113.2-15.6-7.2c17-20.5 26.3-46.2 26.4-72.8 0.1-60.9-46.9-111.5-107.7-115.9-60.8-4.4-114.5 39-123.2 99.3-8.5 60.3 31 117 90.5 129.8l22 8.8-6.8 2.8c-53.9 3.7-98.1 43.9-106.9 97.2-8.8 53.3 20.2 105.6 70.1 126.4 49.8 20.8 107.4 4.5 139-39.2 31.7-43.8 29.1-103.6-6.2-144.4l11.2-4.8h2c11.1 0 21.7-4.7 29.2-12.8l284.4-113.6c18.4-7.4 27.4-28.4 20-46.8z m-433.6-30.8c24.3 0 44 19.7 44 44-0.9 19-14 35.2-32.4 40l-16.8-5.2c-7.3-2.1-15.1-2.1-22.4 0-10.6-8.4-16.7-21.3-16.4-34.8 0-24.3 19.7-44 44-44z m44 284c0 24.3-19.7 44-44 44-24.3 0-44-19.7-44-44 0.2-14.9 8-28.7 20.8-36.4h3.2c4.6-0.4 9.1-1.6 13.2-3.6l11.2-4.4c22.8 2.1 40.1 21.5 39.6 44.4z m369.2-33.6l-120-48c-18.3-6.8-38.7 2.2-46 20.4-7.2 18 1.3 38.7 19.2 46.4l120 48c18.3 6.8 38.7-2.2 46-20.4 7.2-18-1.3-38.7-19.2-46.4z"></path></svg>