<?xml version="1.0"?><svg xmlns="http://www.w3.org/2000/svg" width="640" height="640" viewBox="0 0 640 640"><path d="m418.4 534.4c-13.8 14.3-13.8 36.9 0 51.2 3.5 3.3 7.6 5.8 12 7.6 4.3 1.9 8.9 2.9 13.6 2.8 16.2-0.1 30.4-11.1 34.5-26.8 4.2-15.7-2.7-32.2-16.8-40.4-14-8.1-31.7-5.8-43.3 5.6z m177.6-90.4c0-19.9-16.1-36-36-36h-80v-172c0-20.2-8-39.5-22.2-53.8-14.3-14.2-33.6-22.2-53.8-22.2h-172v-80c0-19.9-16.1-36-36-36s-36 16.1-36 36v80h-80c-19.9 0-36 16.1-36 36s16.1 36 36 36h324c2.2 0 4 1.8 4 4v172h-172c-2.2 0-4-1.8-4-4v-80c0-12.9-6.9-24.8-18-31.2-11.1-6.4-24.9-6.4-36 0s-18 18.4-18 31.2v80c0 20.2 8 39.5 22.2 53.8 14.3 14.2 33.6 22.2 53.8 22.2h324c19.9 0 36-16.1 36-36z"></path></svg>