<?xml version="1.0"?><svg xmlns="http://www.w3.org/2000/svg" width="640" height="640" viewBox="0 0 640 640"><path d="m116 600h408c42 0 76-34 76-76v-408c0-42-34-76-76-76h-408c-42 0-76 34-76 76v408c0 42 34 76 76 76z m408-72h-408c-2.2 0-4-1.8-4-4v-164h416v164c0 2.2-1.8 4-4 4z m-408-416h408c2.2 0 4 1.8 4 4v172h-416v-172c0-2.2 1.8-4 4-4z"></path><ellipse cx="200" cy="200" rx="40" ry="40"></ellipse><path d="m320 240h120c22.1 0 40-17.9 40-40s-17.9-40-40-40h-120c-22.1 0-40 17.9-40 40s17.9 40 40 40z"></path></svg>