<?xml version="1.0"?><svg xmlns="http://www.w3.org/2000/svg" width="640" height="640" viewBox="0 0 640 640"><path d="m564 120h-368c-42 0-76 34-76 76v368c0 20.2 8 39.5 22.2 53.8 14.3 14.2 33.6 22.2 53.8 22.2h368c42 0 76-34 76-76v-368c0-42-34-76-76-76z m-368 72h368c2.2 0 4 1.8 4 4v172h-376v-172c0-2.2 1.8-4 4-4z m368 376h-368c-2.2 0-4-1.8-4-4v-124h376v124c0 2.2-1.8 4-4 4z m-528-128c19.9 0 36-16.1 36-36v-288c0-24.3 19.7-44 44-44h288c19.9 0 36-16.1 36-36s-16.1-36-36-36h-288c-64.1 0-116 51.9-116 116v288c0 19.9 16.1 36 36 36z"></path><circle cx="280" cy="280" r="40"></circle><path d="m400 320h80c22.1 0 40-17.9 40-40s-17.9-40-40-40h-80c-22.1 0-40 17.9-40 40s17.9 40 40 40z"></path></svg>