<?xml version="1.0"?><svg xmlns="http://www.w3.org/2000/svg" width="640" height="640" viewBox="0 0 640 640"><path d="m524 40h-408c-42 0-76 34-76 76v408c0 42 34 76 76 76h408c42 0 76-34 76-76v-408c0-42-34-76-76-76z m4 484c0 2.2-1.8 4-4 4h-408c-2.2 0-4-1.8-4-4v-408c0-2.2 1.8-4 4-4h408c2.2 0 4 1.8 4 4v408z"></path><rect width="120" height="120" x="160" y="160" rx="20"></rect><rect width="120" height="120" x="360" y="160" rx="20"></rect><rect width="120" height="120" x="160" y="360" rx="20"></rect><rect width="120" height="120" x="360" y="360" rx="20"></rect></svg>