<?xml version="1.0"?><svg xmlns="http://www.w3.org/2000/svg" width="640" height="640" viewBox="0 0 640 640"><path d="m116 600h328c42 0 76-34 76-76v-100.4c0-19.9-16.1-36-36-36s-36 16.1-36 36v100.4c0 2.2-1.8 4-4 4h-328c-2.2 0-4-1.8-4-4v-328c0-2.2 1.8-4 4-4h97.2c19.9 0 36-16.1 36-36s-16.1-36-36-36h-97.2c-42 0-76 34-76 76v328c0 42 34 76 76 76z m458.4-586l-142.4 142.8v-76.8c0-19.9-16.1-36-36-36s-36 16.1-36 36v200h200c19.9 0 36-16.1 36-36s-16.1-36-36-36h-77.2l142.4-142.4c14.2-14 14.4-37 0.4-51.2s-37-14.4-51.2-0.4z"></path></svg>