<?xml version="1.0"?><svg xmlns="http://www.w3.org/2000/svg" width="640" height="640" viewBox="0 0 640 640"><path d="m564 272c19.9 0 36-16.1 36-36v-196h-196c-19.9 0-36 16.1-36 36s16.1 36 36 36h73.2l-142.8 142.4c-14.1 14.1-14.1 37.1 0 51.2s37.1 14.1 51.2 0l142.4-142.8v73.2c0 19.9 16.1 36 36 36z m-292 292c0-19.9-16.1-36-36-36h-73.2l102.4-102.4c9.2-9.1 12.8-22.3 9.5-34.8-3.3-12.4-13-22.2-25.4-25.6-12.4-3.4-25.7 0.1-34.9 9.2l-102.4 102.8v-73.2c0-19.9-16.1-36-36-36s-36 16.1-36 36v196h196c19.9 0 36-16.1 36-36z"></path></svg>