<?xml version="1.0"?><svg xmlns="http://www.w3.org/2000/svg" width="640" height="640" viewBox="0 0 640 640"><path d="m573.2 160c-0.4-24.4-10.4-47.8-28-64.8-17.1-17.8-40.6-28-65.2-28.4-24.6 0.3-48 10.4-65.2 28l-320 320c-1.4 1.8-2.6 3.6-3.6 5.6-1.4 2-2.6 4.2-3.6 6.4l-40 120c-4.4 13-1 27.3 8.7 36.9 9.6 9.7 24 13.1 36.9 8.7l120-40c2.2-1 4.4-2.2 6.4-3.6 2-1 3.8-2.2 5.6-3.6l320-320c17.7-17.1 27.8-40.6 28-65.2z m-107.6-13.6c3.5-4.4 8.8-7.2 14.4-7.6 11.2 1.1 20.1 10 21.2 21.2-0.1 5.7-2.6 11-6.8 14.8l-294.4 294.4-29.2-29.2 294.8-293.6z"></path></svg>