<?xml version="1.0"?><svg xmlns="http://www.w3.org/2000/svg" width="640" height="640" viewBox="0 0 640 640"><path d="m604 40h-200c-19.9 0-36 16.1-36 36s16.1 36 36 36h73.2l-142.8 142.4c-14.1 14.1-14.1 37.1 0 51.2s37.1 14.1 51.2 0l146.4-145.6v80c0 19.9 16.1 36 36 36s36-16.1 36-36v-200z m-488 560h328c42 0 76-34 76-76v-100.4c0-19.9-16.1-36-36-36s-36 16.1-36 36v100.4c0 2.2-1.8 4-4 4h-328c-2.2 0-4-1.8-4-4v-328c0-2.2 1.8-4 4-4h97.2c19.9 0 36-16.1 36-36s-16.1-36-36-36h-97.2c-42 0-76 34-76 76v328c0 42 34 76 76 76z"></path></svg>