<?xml version="1.0"?><svg xmlns="http://www.w3.org/2000/svg" width="640" height="640" viewBox="0 0 640 640"><path d="m320 600c154.6 0 280-125.4 280-280s-125.4-280-280-280-280 125.4-280 280 125.4 280 280 280z m0-488c114.9 0 208 93.1 208 208 0 114.9-93.1 208-208 208-114.9 0-208-93.1-208-208 0.2-114.8 93.2-207.8 208-208z m-80 208c22.1 0 40-17.9 40-40s-17.9-40-40-40-40 17.9-40 40 17.9 40 40 40z m160 0c22.1 0 40-17.9 40-40s-17.9-40-40-40-40 17.9-40 40 17.9 40 40 40z m-185.6 54.8c-14 14-14 36.8 0 50.8 28.7 26.6 66.6 40.9 105.6 40 39 1 76.7-13.4 105.2-40 14.1-14 14.2-36.9 0.2-51-14-14.1-36.9-14.2-51-0.2-31.8 25.8-77.4 25.8-109.2 0-14.2-13.9-36.9-13.7-50.8 0.4z"></path></svg>