<?xml version="1.0"?><svg xmlns="http://www.w3.org/2000/svg" width="640" height="640" viewBox="0 0 640 640"><path d="m320 600c154.6 0 280-125.4 280-280s-125.4-280-280-280-280 125.4-280 280 125.4 280 280 280z m0-488c114.9 0 208 93.1 208 208 0 114.9-93.1 208-208 208-114.9 0-208-93.1-208-208 0.2-114.8 93.2-207.8 208-208z m-80 208c22.1 0 40-17.9 40-40s-17.9-40-40-40-40 17.9-40 40 17.9 40 40 40z m160 0c22.1 0 40-17.9 40-40s-17.9-40-40-40-40 17.9-40 40 17.9 40 40 40z m-168.4 77.6c-8.8 10.8-10.6 25.7-4.6 38.3 6 12.6 18.7 20.5 32.6 20.5 10.8 0 21-5.1 27.6-13.6 20.5-9 43.9-9 64.4 0 12.7 14.8 34.8 16.8 49.9 4.6s17.9-34.3 6.1-49.8c-23.2-22.9-55-35-87.6-33.2-32.8-2-65 10.1-88.4 33.2z"></path></svg>