<?xml version="1.0"?><svg xmlns="http://www.w3.org/2000/svg" width="1040" height="640" viewBox="0 0 1040 640"><g fill="#E95219"><path d="m301.2 53.2l68.4 138.4c3.4 6.9 10 11.6 17.6 12.8l152.4 22c8.8 1.3 16.1 7.5 18.9 16 2.8 8.4 0.6 17.7-5.7 24l-110.4 108c-5.5 5.4-8.1 13.2-6.8 20.8l26 152c1.5 8.9-2.2 17.9-9.4 23.1-7.4 5.3-17 5.9-25 1.7l-136.4-71.6c-6.9-3.6-15.1-3.6-22 0l-136.4 71.6c-8 4.2-17.6 3.6-25-1.7-7.2-5.2-10.9-14.2-9.4-23.1l26-152c1.3-7.6-1.3-15.4-6.8-20.8l-110-107.6c-6.3-6.3-8.5-15.6-5.7-24 2.8-8.5 10.1-14.7 18.9-16l152.4-22c7.6-1.2 14.2-5.9 17.6-12.8l68.4-138.8c4-8.1 12.2-13.2 21.2-13.2 9 0 17.2 5.1 21.2 13.2z m182 146.8c-15 0-28.7-8.3-35.6-21.6l-43.2-83.6c-10.2-19.7-2.5-43.8 17.2-54s43.8-2.5 54 17.2l44.4 83.6c6.5 12.6 5.9 27.7-1.7 39.8-7.6 12-20.9 19-35.1 18.6z m96.8 385.2c-19.6 0.3-36.5-13.6-40-32.8l-24.4-136.4c-3.2-20.6 3.8-41.5 18.8-56l101.6-107.6c9.9-10.4 24.5-14.7 38.4-11.3 13.9 3.3 25 13.9 29 27.6 4 13.7 0.5 28.5-9.4 38.9l-97.2 102.4 22.8 128c1.9 10.4-0.5 21.2-6.6 29.9-6.1 8.7-15.4 14.7-25.8 16.5l-7.2 0.8z m63.2-385.2c-15 0-28.7-8.3-35.6-21.6l-43.2-83.6c-10.2-19.7-2.5-43.8 17.2-54s43.8-2.5 54 17.2l44.4 83.6c6.5 12.6 5.9 27.7-1.7 39.8-7.6 12-20.9 19-35.1 18.6z m96.8 385.2c-19.6 0.3-36.5-13.6-40-32.8l-24.4-136.4c-3.2-20.6 3.8-41.5 18.8-56l101.6-107.6c9.9-10.4 24.5-14.7 38.4-11.3 13.9 3.3 25 13.9 29 27.6 4 13.7 0.5 28.5-9.4 38.9l-97.2 102.4 22.8 128c1.9 10.4-0.5 21.2-6.6 29.9-6.1 8.7-15.4 14.7-25.8 16.5l-7.2 0.8z m63.2-385.2c-15 0-28.7-8.3-35.6-21.6l-43.2-83.6c-10.2-19.7-2.5-43.8 17.2-54s43.8-2.5 54 17.2l44.4 83.6c6.5 12.6 5.9 27.7-1.7 39.8-7.6 12-20.9 19-35.1 18.6z m96.8 385.2c-19.6 0.3-36.5-13.6-40-32.8l-24.4-136.4c-3.2-20.6 3.8-41.5 18.8-56l101.6-107.6c9.9-10.4 24.5-14.7 38.4-11.3 13.9 3.3 25 13.9 29 27.6 4 13.7 0.5 28.5-9.4 38.9l-97.2 102.4 22.8 128c1.9 10.4-0.5 21.2-6.6 29.9-6.1 8.7-15.4 14.7-25.8 16.5l-7.2 0.8z"></path></g></svg>