<?xml version="1.0"?><svg xmlns="http://www.w3.org/2000/svg" width="1240" height="640" viewBox="0 0 1240 640"><path fill="#E95219" d="m404.4 576.4c-12.2-0.1-24.1-3.1-34.8-8.8l-89.6-47.6-88 46c-25.4 13.3-56.2 10.9-79.3-6.1-23.1-17-34.6-45.7-29.5-73.9l15.6-95.2-72-70.8c-20.3-19.8-27.7-49.2-19.3-76.3 8.4-27 31.4-47 59.3-51.7l98.4-14.4 47.6-91.6c12.6-25.7 38.6-42 67.2-42s54.6 16.3 67.2 42l44 88.8 100.4 16c27.9 4.7 50.8 24.7 59.3 51.7 8.4 27.1 1 56.5-19.3 76.3l-69.2 69.2 17.6 100.4c3.8 22.1-2.4 44.8-17 61.8-14.7 17-36.2 26.6-58.6 26.2z m-160-474.4l32.4 16-43.6 88.8c-11.1 21.8-32.2 36.7-56.4 40l-96.8 15.2v5.2l68 69.2c17.7 17.2 25.7 42.1 21.6 66.4l-16.8 98 21.2 35.2-16.8-32 88-46c21.9-11.5 48.1-11.5 70 0l88 46 40-9.2-35.6 6-17.2-98c-4.1-24.3 3.9-49.2 21.6-66.4l71.2-69.2v-5.2l-100-14.4c-24.2-3.3-45.3-18.2-56.4-40l-44-90-38.4-15.6z m35.6 102.8l37.2 74.8 82.8 12-60 58.8 14 82.4-74-38.8-74 38.8 14-82.4-60-58.8 82.8-12z"></path><path fill="#279BE9" d="m800 400l37.2 75.2 82.8 12-60 58.4 14 82.8-74-39.2-74 39.2 14-82.8-60-58.4 82.8-12z m240 0l37.2 75.2 82.8 12-60 58.4 14 82.8-74-39.2-74 39.2 14-82.8-60-58.4 82.8-12z m-320-240l37.2 75.2 82.8 12-60 58.4 14 82.8-74-39.2-74 39.2 14-82.8-60-58.4 82.8-12z m400 0l37.2 75.2 82.8 12-60 58.4 14 82.8-74-39.2-74 39.2 14-82.8-60-58.4 82.8-12z m-200-160l37.2 75.2 82.8 12-60 58.4 14 82.8-74-39.2-74 39.2 14-82.8-60-58.4 82.8-12z"></path></svg>