<?xml version="1.0"?><svg xmlns="http://www.w3.org/2000/svg" width="560" height="640" viewBox="0 0 560 640"><path fill="#E95219" d="m301.2 53.2l68.4 138.4c3.4 6.9 10 11.6 17.6 12.8l152.4 22c8.8 1.3 16.1 7.5 18.9 16 2.8 8.4 0.6 17.7-5.7 24l-110.4 108c-5.5 5.4-8.1 13.2-6.8 20.8l26 152c1.5 8.9-2.2 17.9-9.4 23.1-7.4 5.3-17 5.9-25 1.7l-136.4-71.6c-6.9-3.6-15.1-3.6-22 0l-136.4 71.6c-8 4.2-17.6 3.6-25-1.7-7.2-5.2-10.9-14.2-9.4-23.1l26-152c1.3-7.6-1.3-15.4-6.8-20.8l-110-107.6c-6.3-6.3-8.5-15.6-5.7-24 2.8-8.5 10.1-14.7 18.9-16l152.4-22c7.6-1.2 14.2-5.9 17.6-12.8l68.4-138.8c4-8.1 12.2-13.2 21.2-13.2 9 0 17.2 5.1 21.2 13.2z"></path></svg>