<?xml version="1.0"?><svg xmlns="http://www.w3.org/2000/svg" width="640" height="640" viewBox="0 0 640 640"><g fill="#E95219"><path d="m200 400l37.2 75.2 82.8 12-60 58.4 14 82.8-74-39.2-74 39.2 14-82.8-60-58.4 82.8-12z m240 0l37.2 75.2 82.8 12-60 58.4 14 82.8-74-39.2-74 39.2 14-82.8-60-58.4 82.8-12z m-320-240l37.2 75.2 82.8 12-60 58.4 14 82.8-74-39.2-74 39.2 14-82.8-60-58.4 82.8-12z m400 0l37.2 75.2 82.8 12-60 58.4 14 82.8-74-39.2-74 39.2 14-82.8-60-58.4 82.8-12z m-200-160l37.2 75.2 82.8 12-60 58.4 14 82.8-74-39.2-74 39.2 14-82.8-60-58.4 82.8-12z"></path></g></svg>