<?xml version="1.0"?><svg xmlns="http://www.w3.org/2000/svg" width="640" height="640" viewBox="0 0 640 640"><path d="m131.6 508.4c15.6 15.5 40.8 15.5 56.4 0l132-132 131.6 131.6c15.9 13.6 39.5 12.7 54.3-2.1 14.8-14.8 15.7-38.4 2.1-54.3l-131.6-131.6 131.6-131.6c13.6-15.9 12.7-39.5-2.1-54.3-14.8-14.8-38.4-15.7-54.3-2.1l-131.6 131.6-131.6-132c-10.2-10.2-24.9-14.1-38.8-10.4-13.8 3.7-24.7 14.6-28.4 28.4-3.7 13.9 0.2 28.6 10.4 38.8l132 131.6-132 131.6c-7.6 7.5-11.8 17.7-11.8 28.4 0 10.7 4.2 20.9 11.8 28.4z"></path></svg>