<?xml version="1.0"?><svg xmlns="http://www.w3.org/2000/svg" width="640" height="640" viewBox="0 0 640 640"><path d="m636 520c0-19.9-16.1-36-36-36h-44v-44c0-19.9-16.1-36-36-36s-36 16.1-36 36v44h-44c-19.9 0-36 16.1-36 36s16.1 36 36 36h44v44c0 19.9 16.1 36 36 36s36-16.1 36-36v-44h44c19.9 0 36-16.1 36-36z m-352 32.8c11.8 5.2 25.4 3.6 35.8-4 10.4-7.7 15.8-20.2 14.4-33-1.5-12.8-9.6-23.8-21.4-29-2 0-200-89.2-200-248-2-23.8 5.7-47.4 21.2-65.6 15.9-15.8 37.6-24.6 60-24.4 45.2 0 76.8 42.8 95.2 80 6.2 12 18.5 19.6 32 19.6h-1.2c13.4 0 25.8-7.3 32-19.2 18.8-36 50.4-80 95.2-80 22.4-0.2 44.1 8.6 60 24.4 15.6 18.4 23.1 42.4 20.8 66.4 0 23.4-4.4 46.6-12.8 68.4-5.4 12.2-3.6 26.3 4.7 36.7 8.2 10.4 21.5 15.5 34.6 13.2 13.1-2.3 23.8-11.7 27.9-24.3 11.6-30 17.5-61.8 17.6-94 2.6-42.4-11.8-84.2-40-116-29.4-29.6-69.5-46.1-111.2-46-51.1 0.3-98.9 25-128.8 66.4-29.3-41.4-76.5-66.5-127.2-67.6-42.3-0.6-83 16-112.8 46-28.5 32.1-42.9 74.4-40 117.2 0 163.2 153.6 273.6 244 312.8z"></path></svg>