<?xml version="1.0"?><svg xmlns="http://www.w3.org/2000/svg" width="640" height="640" viewBox="0 0 640 640"><path d="m560 360h-160c-19.9 0-36 16.1-36 36s16.1 36 36 36h160c19.9 0 36-16.1 36-36s-16.1-36-36-36z m0-237.2c-29.4-29.6-69.5-46.1-111.2-46-51.3 0.6-99.2 25.7-128.8 67.6-29.3-41.4-76.5-66.5-127.2-67.6-42.3-0.6-83 16-112.8 46-28.5 32.1-42.9 74.4-40 117.2 0 203.2 237.6 324.4 280 324.4 20.2-2 39.5-8.9 56.4-20 17.8-9 24.8-30.8 15.8-48.6-9-17.8-30.8-24.8-48.6-15.8-7.7 4-15.6 7.6-23.6 10.8-36.8-15.2-208-106.4-208-250.8-2-23.8 5.7-47.4 21.2-65.6 15.9-15.8 37.6-24.6 60-24.4 45.2 0 76.8 42.8 95.2 80 6.2 12 18.5 19.6 32 19.6h-0.4c13.4 0 25.8-7.3 32-19.2 18.8-36 50.4-80 95.2-80 22.4-0.2 44.1 8.6 60 24.4 15.3 18.1 22.8 41.6 20.8 65.2 0 11.8-1 23.6-3.2 35.2-2.4 12.6 2.1 25.6 11.8 34 9.8 8.5 23.2 11.1 35.4 6.8 12.2-4.2 21.2-14.6 23.6-27.2 3-16.1 4.5-32.4 4.4-48.8 2.9-42.8-11.5-85.1-40-117.2z"></path></svg>