<?xml version="1.0"?><svg xmlns="http://www.w3.org/2000/svg" width="640" height="640" viewBox="0 0 640 640"><path d="m540 360c-55.2 0-100 44.8-100 100v180h200v-180c0-55.2-44.8-100-100-100z m-36 120v-20c0-19.9 16.1-36 36-36s36 16.1 36 36v20h-72z m-464-240c0 203.2 237.6 324.4 280 324.4 18.7-0.4 33.9-15.1 35-33.8 1.2-18.6-12.1-35-30.6-37.8-24.8-8.8-212.4-101.6-212.4-252.8-2-23.8 5.7-47.4 21.2-65.6 15.9-15.8 37.6-24.6 60-24.4 45.2 0 76.8 42.8 95.2 80 6.2 12 18.5 19.6 32 19.6h-0.4c13.4 0 25.8-7.3 32-19.2 18.8-36 50.4-80 95.2-80 22.4-0.2 44.1 8.6 60 24.4 15.3 18.1 22.8 41.6 20.8 65.2 0 19.9 16.1 36 36 36s36-16.1 36-36c2.6-42.4-11.8-84.2-40-116-29.4-29.6-69.5-46.1-111.2-46-51.1 0.3-98.9 25-128.8 66.4-29.3-41.4-76.5-66.5-127.2-67.6-42.3-0.6-83 16-112.8 46-28.5 32.1-42.9 74.4-40 117.2z"></path></svg>