<?xml version="1.0"?><svg xmlns="http://www.w3.org/2000/svg" width="640" height="640" viewBox="0 0 640 640"><path d="m571.6 334.4l-91.6 91.6-31.6-31.6c-15.9-13.6-39.5-12.7-54.3 2.1-14.8 14.8-15.7 38.4-2.1 54.3l88 88.4 148.4-148.4c15.6-15.7 15.5-41-0.2-56.6-15.7-15.6-41-15.5-56.6 0.2z m-287.6 221.2c11.8 5.2 25.4 3.6 35.8-4 10.4-7.7 15.8-20.2 14.4-33-1.5-12.8-9.6-23.8-21.4-29-2 0-200-89.2-200-248-2.2-23.7 5.2-47.3 20.4-65.6 15.9-15.8 37.6-24.6 60-24.4 45.2 0 76.8 42.8 95.2 80 6.2 12 18.5 19.6 32 19.6h-0.4c13.4 0 25.8-7.3 32-19.2 18.8-36 50.4-80 95.2-80 22.4-0.2 44.1 8.6 60 24.4 9.2 9.7 15.4 21.7 18 34.8 5.6 18 24 28.7 42.4 24.5 18.4-4.2 30.4-21.9 27.6-40.5-4.9-26.2-17.1-50.4-35.2-70-30-29.6-70.6-46-112.8-45.2-50.6 0.9-97.8 25.7-127.2 66.8-29.4-41.1-76.6-65.9-127.2-66.8-42.2-0.6-82.9 15.8-112.8 45.6-27.8 31.4-42.2 72.5-40 114.4 0 165.6 153.6 276 244 315.6z"></path></svg>