<?xml version="1.0"?><svg xmlns="http://www.w3.org/2000/svg" width="640" height="640" viewBox="0 0 640 640"><path d="m80 600h483.6c9.4-0.2 18.4-3.9 25.2-10.4 7.2-6.9 11.3-16.4 11.2-26.4v-217.2c-0.5-15-6.6-29.3-17.2-40l-206.8-208.4c-31-30.2-80.6-30.2-111.6 0l-208 207.6c-10.5 10.6-16.4 25-16.4 40v214.8c0 22.1 17.9 40 40 40z m194.8-72v-128c-0.5-12 4.2-23.8 12.8-32.2 8.6-8.4 20.4-12.9 32.4-12.2 11.9-0.2 23.4 4.4 31.9 12.7 8.5 8.4 13.3 19.8 13.3 31.7v128h-90.4z m-162.8-176.4l202.8-203.2c2.8-2.7 7.2-2.7 10 0l203.2 203.2v176.4h-90.4v-128c0.1-31.1-12.3-61-34.4-82.8-22.1-22-52.1-34-83.2-33.6-31.2-0.6-61.2 11.4-83.3 33.3-22.1 22-34.3 51.9-33.9 83.1v126.4h-90.8v-174.8z"></path></svg>