<?xml version="1.0"?><svg xmlns="http://www.w3.org/2000/svg" width="640" height="640" viewBox="0 0 640 640"><path d="m76 600h488c19.9 0 36-16.1 36-36v-488c0-19.9-16.1-36-36-36h-488c-19.9 0-36 16.1-36 36v488c0 19.9 16.1 36 36 36z m404-311.2l48-46v77.2h-48v-31.2z m46-148l-46 46.4v-75.2h48v29.2l-2-0.4z m-414-28.8h298v244.8c0 19.9 16.1 36 36 36h82v135.2h-213.6c0.3-2.6 0.3-5.4 0-8v-128h5.6c19.9 0 36-16.1 36-36s-16.1-36-36-36h-80c-19.9 0-36 16.1-36 36s16.1 36 36 36h4v128c-0.3 2.6-0.3 5.4 0 8h-132v-416z"></path></svg>