<?xml version="1.0"?><svg xmlns="http://www.w3.org/2000/svg" width="640" height="640" viewBox="0 0 640 640"><path d="m600 116c0-42-34-76-76-76h-408c-42 0-76 34-76 76v408c0 42 34 76 76 76h408c42 0 76-34 76-76v-408z m-488 0c0-2.2 1.8-4 4-4h64c37.6 0 68 30.4 68 68s-30.4 68-68 68-68-30.4-68-68v-64z m0 408v-222.4c20.7 11.9 44.1 18.2 68 18.4 77.3 0 140-62.7 140-140-0.2-23.9-6.5-47.3-18.4-68h222.4c2.2 0 4 1.8 4 4v240l-108-108-280 280h-24c-2.2 0-4-1.8-4-4z m412 4h-280l176-177.2 108 108v65.2c0 2.2-1.8 4-4 4z"></path></svg>