<?xml version="1.0"?><svg xmlns="http://www.w3.org/2000/svg" width="640" height="640" viewBox="0 0 640 640"><path d="m116 600h408c42 0 76-34 76-76v-408c0-42-34-76-76-76h-408c-42 0-76 34-76 76v408c0 42 34 76 76 76z m185.6-488h175.6l-365.2 365.2v-175.6c20.7 11.9 44.1 18.2 68 18.4 77.3 0 140-62.7 140-140-0.2-23.9-6.5-47.3-18.4-68z m222.4 416h-360l364-365.2v234.4l-82.4-82.8-51.2 51.2 133.6 133.6v24.8c0 2.2-1.8 4-4 4z m-412-412c0-2.2 1.8-4 4-4h64c37.6 0 68 30.4 68 68s-30.4 68-68 68-68-30.4-68-68v-64z"></path></svg>