<?xml version="1.0"?><svg xmlns="http://www.w3.org/2000/svg" width="640" height="640" viewBox="0 0 640 640"><path d="m400 528c-19.9 0-36 16.1-36 36s16.1 36 36 36h163.6c9.4-0.2 18.4-3.9 25.2-10.4 7.1-6.8 11.2-16.2 11.2-26v-217.6c-0.4-15-6.6-29.4-17.2-40l-206.8-208.4c-31-30.2-80.6-30.2-111.6 0l-207.6 207.2c-10.7 10.6-16.8 25-16.8 40v215.2c0 22.1 17.9 40 40 40h120c41.4 0 81-16.4 110.3-45.7 29.2-29.3 45.7-68.9 45.7-110.3v-40l17.6 18.8c13.8 13.1 35.5 13.2 49.4 0.1 13.9-13 15.2-34.7 3-49.3l-80-84.8c-7.2-6.2-16.5-9.4-26-8.8-9.6-0.1-18.8 3.7-25.6 10.4l-80 80c-12.5 14.3-11.8 35.8 1.6 49.2 13.4 13.4 34.9 14.1 49.2 1.6l18.8-21.2v44c0 46.4-37.6 84-84 84h-88v-176.4l202.8-203.2c2.8-2.7 7.2-2.7 10 0l203.2 203.2v176.4h-128z"></path></svg>