<?xml version="1.0"?><svg xmlns="http://www.w3.org/2000/svg" width="640" height="640" viewBox="0 0 640 640"><circle cx="200" cy="200" r="40"></circle><path d="m240 440c19.9 0.5 39.8-1.5 59.2-6l166 166h134.8v-134.8l-166-166c4.5-19.4 6.5-39.3 6-59.2 0-110.4-89.6-200-200-200s-200 89.6-200 200 89.6 200 200 200z m0-328c70.7 0 128 57.3 128 128 1.1 18.2-1.6 36.5-8 53.6l-10.4 22.8 178.8 178.8v32.8h-33.6l-178.4-178.8-22.8 10.8c-17.1 6.4-35.4 9.1-53.6 8-70.7 0-128-57.3-128-128 0-70.7 57.3-128 128-128z"></path></svg>