<?xml version="1.0"?><svg xmlns="http://www.w3.org/2000/svg" width="640" height="640" viewBox="0 0 640 640"><path d="m200 476.4v46.8c0 20.9 8.5 41 23.6 55.5 15.1 14.5 35.5 22.2 56.4 21.3h80c20.9 0.9 41.3-6.8 56.4-21.3 15.1-14.5 23.6-34.6 23.6-55.5v-50c-0.8-39.7 12.2-78.4 36.8-109.6 33.8-40.9 49.6-93.6 44-146.3-5.7-52.7-32.4-100.9-74-133.7-48.1-39.4-111.8-54.2-172.4-40-67.1 15.4-121.4 64.7-143.2 130-21.8 65.4-8 137.4 36.4 190 23.5 32.7 35 72.6 32.4 112.8z m160 51.6h-80c-2.6 0-4.8-2.2-4.8-4.8v-43.2h92v43.2c0.2 1.8-0.6 3.6-2.1 4.7-1.6 1-3.5 1.1-5.1 0.1z m-164.8-320c11.5-45.8 47.6-81.4 93.6-92.4 10.2-2.4 20.7-3.6 31.2-3.6 29.1 0 57.3 9.9 80 28 30.6 24.1 48.4 61 48 100 0.4 29.2-9.7 57.6-28.4 80-19.3 23.6-33.7 50.8-42.4 80h-23.6l36.8-110c5.6-16.8-3.4-35-20.2-40.6-16.8-5.6-35 3.4-40.6 20.2l-9.6 29.2-9.6-28.8c-5.6-16.8-23.8-25.8-40.6-20.2-16.8 5.6-25.8 23.8-20.2 40.6l36.8 109.6h-23.6c-7.8-29.1-21.4-56.3-40-80-27.4-31-37.4-73.6-26.8-113.6l-0.8 1.6z"></path></svg>