<?xml version="1.0"?><svg xmlns="http://www.w3.org/2000/svg" width="640" height="640" viewBox="0 0 640 640"><path fill="#29A754" d="m320 573.6c-42.8-37.2-180-166.8-180-293.6 0-99.4 80.6-180 180-180s180 80.6 180 180c0 126-137.2 256.4-180 293.6z m0-393.6c-55.2 0-100 44.8-100 100s44.8 100 100 100 100-44.8 100-100c0-26.5-10.5-52-29.3-70.7-18.8-18.8-44.2-29.3-70.7-29.3z"></path><path fill="#1B8940" d="m320 120c88.4 0 160 71.6 160 160 0 107.2-109.6 220.4-160 266.8-50.4-46-160-158.8-160-266.8 0-88.4 71.6-160 160-160z m0 280c66.3 0 120-53.7 120-120s-53.7-120-120-120-120 53.7-120 120 53.7 120 120 120z m0-320c-110.4 0-200 89.6-200 200 0 160 200 320 200 320s200-160 200-320c0-110.4-89.6-200-200-200z m0 280c-44.2 0-80-35.8-80-80s35.8-80 80-80 80 35.8 80 80c0 21.2-8.4 41.6-23.4 56.6-15 15-35.4 23.4-56.6 23.4z"></path></svg>