<?xml version="1.0"?><svg xmlns="http://www.w3.org/2000/svg" width="640" height="640" viewBox="0 0 640 640"><path d="m320 72c12.8-0.1 25 4.9 34 14 9.1 9 14.1 21.2 14 34 0 12.9 6.9 24.8 18 31.2 11.1 6.4 24.9 6.4 36 0s18-18.4 18-31.2c0-66.3-53.7-120-120-120s-120 53.7-120 120v80h-44c-20.3 0-39.8 8.1-54 22.6-14.3 14.4-22.2 34-22 54.2v246.4c-0.2 20.3 7.7 39.8 22 54.2 14.2 14.4 33.7 22.6 54 22.6h328c42 0 76-34 76-76v-247.2c0.2-20.3-7.7-39.8-22-54.2-14.2-14.4-33.7-22.6-54-22.6h-212v-80c-0.1-12.8 4.9-25 14-34 9-9.1 21.2-14.1 34-14z m168 204.8v246.4c0 2.2-1.8 4-4 4h-328c-2.2 0-4-1.8-4-4v-246.4c0-2.2 1.8-4 4-4h328c2.2 0 4 1.8 4 4z m-208 147.6v15.6c0 22.1 17.9 40 40 40s40-17.9 40-40v-15.6c18.6-16.6 24.9-42.9 16-66.1-8.8-23.2-31.1-38.6-56-38.6-24.9 0-47.2 15.3-56 38.6-8.9 23.2-2.6 49.5 16 66.1z"></path></svg>