<?xml version="1.0"?><svg xmlns="http://www.w3.org/2000/svg" width="640" height="640" viewBox="0 0 640 640"><path d="m579.6 213.2c-1-1.3-2-2.5-3.2-3.6l-182-142.8c-42.8-35.5-104.8-35.5-147.6 0l-183.2 142.8c-0.9 1-1.7 2.1-2.4 3.2-13.2 10.4-21 26.3-21.2 43.2v288c0 30.9 25.1 56 56 56h448c14.8 0 29.1-5.9 39.6-16.4s16.4-24.8 16.4-39.6v-288c-0.1-16.6-7.6-32.2-20.4-42.8z m-287.6-91.2c16.5-14.1 40.7-14.1 57.2 0l160 124c-3.4 1.1-6.7 2.7-9.6 4.8l-151.6 118.8c-16.5 13.9-40.7 13.9-57.2 0l-148.4-118c-2.9-2.1-6.2-3.7-9.6-4.8l159.2-124.8z m-180 406v-208l133.6 105.2c20.9 17.4 47.2 26.8 74.4 26.8 26.7 0 52.6-9.3 73.2-26.4l134.8-105.6v208h-416z"></path></svg>