<?xml version="1.0"?><svg xmlns="http://www.w3.org/2000/svg" width="640" height="640" viewBox="0 0 640 640"><path d="m75.6 524.4c22.2 14 50 15.5 73.6 4l90.8-44.4 160 80 157.6-76.8c25.8-12.8 42.2-39.2 42.4-68v-240c0-26.2-13.5-50.6-35.6-64.4-22.2-14-50-15.4-73.6-4l-90.8 45.2-160-80-157.2 76.8c-26 12.7-42.6 39-42.8 68v240c0.2 25.9 13.6 49.9 35.6 63.6z m36.4-303.6c0-1.6 1-3 2.4-3.6l125.6-61.2 124 62.4v61.6c0 19.9 16.1 36 36 36s36-16.1 36-36v-61.6l86.4-42-16-32.4 21.6 36v240c0 1.6-1 3-2.4 3.6l-89.6 42.8v-106.4c0-19.9-16.1-36-36-36s-36 16.1-36 36v105.6l-88-44v-185.6c0-19.9-16.1-36-36-36s-36 16.1-36 36v185.6l-86.4 42 16 32.4-21.6-36v-240 0.8z"></path></svg>