<?xml version="1.0"?><svg xmlns="http://www.w3.org/2000/svg" width="640" height="640" viewBox="0 0 640 640"><path d="m356 560v-3.2c103-16.1 183.9-97 200-200h4c19.9 0 36-16.1 36-36s-16.1-36-36-36h-3.2c-16.1-103-97-183.9-200-200v-4.8c0-20.1-16.3-36.4-36.4-36.4-20.1 0-36.4 16.3-36.4 36.4v3.2c-103 16.1-183.9 97-200 200h-4c-20.1 0-36.4 16.3-36.4 36.4 0 20.1 16.3 36.4 36.4 36.4h3.2c16.1 103 97 183.9 200 200v4c0 20.1 16.3 36.4 36.4 36.4 20.1 0 36.4-16.3 36.4-36.4z m-200-204h44c19.9 0 36-16.1 36-36s-16.1-36-36-36h-44c14.2-63.9 64.1-113.8 128-128v44c0 19.9 16.1 36 36 36s36-16.1 36-36v-44c63.9 14.2 113.8 64.1 128 128h-44c-19.9 0-36 16.1-36 36s16.1 36 36 36h44c-14.2 63.9-64.1 113.8-128 128v-44c0-19.9-16.1-36-36-36s-36 16.1-36 36v44c-63.9-14.2-113.8-64.1-128-128z"></path><circle cx="320" cy="320" r="40"></circle></svg>