<?xml version="1.0"?><svg xmlns="http://www.w3.org/2000/svg" width="640" height="640" viewBox="0 0 640 640"><path d="m513.6 168.4c3.4-9 3-18.9-1-27.6-4-8.7-11.2-15.5-20.2-18.8l-324-120c-11.1-4.1-23.4-2.4-33.1 4.3-9.7 6.8-15.4 17.9-15.3 29.7v124c0 12.9 6.9 24.8 18 31.2 11.1 6.4 24.9 6.4 36 0s18-18.4 18-31.2v-72.4l52.8 19.6c-37.6 29.8-53.8 79.1-41.2 125.4 12.4 46.2 51.3 80.6 98.8 87.4-18.6 4.4-35 15.7-45.6 31.6l-103.6 153.6c-12.5 18.7-16.2 42-10 63.6 5.8 20.7 20.4 37.8 40 46.8 43.1 18.9 89.7 28.5 136.8 28 47.2 0.4 94-9.3 137.2-28.4 19.6-9 34.2-26.1 40-46.8 6.2-21.6 2.5-44.9-10-63.6l-104-155.2c-10.9-15.1-27-25.6-45.2-29.6 32-4.9 60.6-22.5 79.4-48.7 18.8-26.3 26.2-59.1 20.6-90.9l29.6 10.8c9.1 3.2 19.1 2.5 27.8-1.8 8.6-4.2 15.2-11.8 18.2-21z m-196.8 221.2h6.4l40 58.4h-85.2l38.8-58.4z m-103.6 160c-1-1.6-1-3.6 0-5.2l18-24.4c2.9 0.4 5.9 0.4 8.8 0h160c3 0.4 6.2 0.4 9.2 0l18 26.8v4.8c-68.7 27.8-145.7 27.2-214-1.6v-0.4z m106.8-301.6c-19.4 0-36.9-11.7-44.4-29.6-7.4-18-3.3-38.6 10.4-52.4 13.8-13.7 34.4-17.8 52.4-10.4 17.9 7.5 29.6 25 29.6 44.4 0 26.5-21.5 48-48 48z"></path></svg>