<?xml version="1.0"?><svg xmlns="http://www.w3.org/2000/svg" width="640" height="640" viewBox="0 0 640 640"><path d="m513.6 168.4c3.4-9 3-18.9-1-27.6-4-8.7-11.2-15.5-20.2-18.8l-324-120c-11.1-4.1-23.4-2.4-33.1 4.3-9.7 6.8-15.4 17.9-15.3 29.7v124c0 12.9 6.9 24.8 18 31.2 11.1 6.4 24.9 6.4 36 0s18-18.4 18-31.2v-72.4l52.8 19.6c-27.2 22.8-43 56.5-43 92 0 35.5 15.8 69.2 43 92-51.5 26.7-84.1 79.6-84.8 137.6v115.2c-0.2 25.4 9.7 49.8 27.6 67.8 17.9 18 42.2 28.2 67.6 28.2h129.6c25.4 0 49.7-10.1 67.6-28.2 17.9-18 27.8-42.4 27.6-67.8v-115.2c-0.3-57.6-32.1-110.4-82.8-137.6 33-27.2 48.4-70.4 40-112.4l29.6 10.8c9 3.5 19 3.2 27.8-0.8 8.8-4 15.6-11.3 19-20.4z m-145.6 31.6c0 19.4-11.7 36.9-29.6 44.4-18 7.4-38.6 3.3-52.4-10.4-13.7-13.8-17.8-34.4-10.4-52.4 7.5-17.9 25-29.6 44.4-29.6 26.5 0 48 21.5 48 48z m-48 142.8c23.3-0.1 45.7 8.9 62.4 25.2h-124.8c16.7-16.3 39.1-25.3 62.4-25.2z m64.8 224.4h-129.6c-12.8 0-23.2-10.4-23.2-23.2v-104h176v104c0 12.8-10.4 23.2-23.2 23.2z"></path></svg>