<?xml version="1.0"?><svg xmlns="http://www.w3.org/2000/svg" width="640" height="640" viewBox="0 0 640 640"><path d="m535.2 326.8c-18.1-8.3-39.5-0.3-47.8 17.8-8.3 18.1-0.3 39.5 17.8 47.8 27.6 7.5 49.6 28.2 58.8 55.2 0 25.2-46.4 58.4-124 76.4v-157.2c-0.6-42.7-24-81.9-61.2-102.8 47.6-26.7 71.1-82.2 57.3-135-13.8-52.8-61.5-89.6-116.1-89.6s-102.3 36.8-116.1 89.6c-13.8 52.8 9.7 108.3 57.3 135-37.2 20.9-60.6 60.1-61.2 102.8v157.2c-77.6-18-124-50.8-124-76.4 9.3-27.1 31.5-47.8 59.2-55.2 11.7-5.4 19.7-16.6 20.9-29.4 1.2-12.8-4.5-25.3-15-32.8-10.5-7.4-24.2-8.8-35.9-3.4-65.2 30-101.2 73.2-101.2 120.8 0 92 136 160 316 160s316-69.6 316-160c0-47.6-36-90.8-100.8-120.8z m-215.2-214.8c26.5 0 48 21.5 48 48 0 26.5-21.5 48-48 48-26.5 0-48-21.5-48-48 0-26.5 21.5-48 48-48z m-48 423.2v-168.4c0-26.5 21.5-48 48-48 26.5 0 48 21.5 48 48v168.4c-15.2 0-31.2 2-48 2-16.8 0-32.8-0.8-48-2z"></path></svg>