<?xml version="1.0"?><svg xmlns="http://www.w3.org/2000/svg" width="640" height="640" viewBox="0 0 640 640"><path d="m300 480h160c22.1 0 40-17.9 40-40s-17.9-40-40-40h-160c-22.1 0-40 17.9-40 40s17.9 40 40 40z m0-240h160c22.1 0 40-17.9 40-40s-17.9-40-40-40h-160c-22.1 0-40 17.9-40 40s17.9 40 40 40z m0 120h160c22.1 0 40-17.9 40-40s-17.9-40-40-40h-160c-22.1 0-40 17.9-40 40s17.9 40 40 40z m-164 240h368c47.4 0.7 88.1-33.3 96-80v-404c0-42-34-76-76-76h-288c-42 0-76 34-76 76v84h-120v304c0 53 43 96 96 96z m96-484c0-2.2 1.8-4 4-4h288c2.2 0 4 1.8 4 4v388c0 13.2-10.8 24-24 24h-275.6v-412h3.6z m-120 156h48v232c0 13.2-10.8 24-24 24-13.2 0-24-10.8-24-24v-232z"></path></svg>