<?xml version="1.0"?><svg xmlns="http://www.w3.org/2000/svg" width="640" height="640" viewBox="0 0 640 640"><path d="m80 520h480c19.9 0 36-16.1 36-36s-16.1-36-36-36h-40v-172.4c-1.1-94.2-67.8-174.8-160-193.6v-42c0-22.1-17.9-40-40-40s-40 17.9-40 40v42c-92.2 18.8-158.9 99.4-160 193.6v172.4h-40c-19.9 0-36 16.1-36 36s16.1 36 36 36z m112-244.4c0.7-61.2 45.2-113.1 105.6-123.2 13.2 10.3 31.6 10.3 44.8 0 60.4 10.1 104.9 62 105.6 123.2v172.4h-256v-172.4z m168 364.4c22.1 0 40-17.9 40-40s-17.9-40-40-40h-80c-22.1 0-40 17.9-40 40s17.9 40 40 40h80z"></path></svg>