<?xml version="1.0"?><svg xmlns="http://www.w3.org/2000/svg" width="640" height="640" viewBox="0 0 640 640"><path d="m96.4 636c24.6 0 48.2-9.8 65.6-27.2l222-222c18.1 5.8 37 8.9 56 9.2 10.3 0 20.6-0.8 30.8-2.4 86.2-13.9 153-82.9 164-169.6 4.1-30.9-12-61-40-74.8-29.1-14.4-64.2-8.6-87.2 14.4l-34.8 34.8c-5.2 5.2-12.8 7.2-20 5.4-7.1-2-12.6-7.5-14.6-14.6-1.8-7.2 0.2-14.8 5.4-20l34.8-34.8c23-23 28.8-58.1 14.4-87.2-13.8-28-43.9-44.1-74.8-40h-4.8c-85.1 11.6-152.7 77.3-166.8 162-4.4 29.2-2.4 58.9 6 87.2l-221.2 221.6c-26.6 26.4-34.6 66.2-20.4 100.8 14.4 34.7 48.1 57.2 85.6 57.2z m221.2-456c9-53.4 51.3-94.9 104.8-102.8h2.4l-4.4-37.2 5.6 42-34.8 34.8c-23.4 23.4-32.5 57.4-23.9 89.3 8.5 31.9 33.5 56.9 65.4 65.4 31.9 8.6 66-0.5 89.3-23.9l38-34.4 2.8 4c-10.3 67.7-73.5 114.3-141.2 104-67.7-10.3-114.3-73.5-104-141.2z m-235.6 348.8l205.6-205.6c4.3 5.4 8.8 10.6 13.6 15.6 5.1 4.7 10.4 9.1 16 13.2l-206 206c-8.1 8.1-21.1 8.1-29.2 0-8.1-8.1-8.1-21.1 0-29.2z"></path></svg>