<?xml version="1.0"?><svg xmlns="http://www.w3.org/2000/svg" width="640" height="640" viewBox="0 0 640 640"><path d="m566.8 73.2c-69.3-69.1-181.5-69.1-250.8 0l-80 80c-69.1 69.3-69.1 181.5 0 250.8 7.8 12.6 22.6 19.1 37.2 16.3 14.6-2.8 26-14.1 28.7-28.7 2.8-14.6-3.7-29.4-16.3-37.2-41.2-41.2-41.2-108 0-149.2l80-80c41.8-39.9 107.4-39.9 149.2 0 36.3 36.2 41.2 93.3 11.6 135.2-9.7 10.4-12.5 25.5-7 38.6 5.6 13.1 18.2 21.7 32.4 22 14.3 0.4 27.3-7.8 33.4-20.6 50-70.1 42.2-166-18.4-227.2z m-463.2 257.2c-16.4-11.2-38.7-7.1-50 9.2-50.8 75.6-36.2 177.3 33.8 235.5 70 58.3 172.7 54.1 237.8-9.5l80-80c69.1-69.3 69.1-181.5 0-250.8-14.3-12.5-35.8-11.8-49.2 1.6-13.4 13.4-14.1 34.9-1.6 49.2 41.2 41.2 41.2 108 0 149.2l-80 80c-41.8 39.9-107.4 39.9-149.2 0-35.9-35.8-41.1-92.2-12.4-134 5.5-7.9 7.7-17.6 5.9-27.1-1.7-9.5-7.2-17.9-15.1-23.3z"></path></svg>