<?xml version="1.0"?><svg xmlns="http://www.w3.org/2000/svg" width="640" height="640" viewBox="0 0 640 640"><path d="m600 504v-464h-560v464c0 53 43 96 96 96h368c53 0 96-43 96-96z m-488 0v-392h416v392c0 13.2-10.8 24-24 24h-368c-13.2 0-24-10.8-24-24z"></path><ellipse cx="200" cy="320" rx="40" ry="40"></ellipse><circle cx="440" cy="320" r="40"></circle><circle cx="320" cy="320" r="40"></circle><path d="m160 160h320v80h-320z"></path><ellipse cx="200" cy="440" rx="40" ry="40"></ellipse><circle cx="440" cy="440" r="40"></circle><circle cx="320" cy="440" r="40"></circle></svg>