<?xml version="1.0"?><svg xmlns="http://www.w3.org/2000/svg" width="640" height="640" viewBox="0 0 640 640"><path d="m116 560h408c42 0 76-34 76-76v-288c0-42-34-76-76-76h-49.2c-18.4-70.4-82-119.6-154.8-119.6-72.8 0-136.4 49.2-154.8 119.6h-49.2c-42 0-76 34-76 76v288c0 42 34 76 76 76z m408-72h-408c-2.2 0-4-1.8-4-4v-164h416v164c0 2.2-1.8 4-4 4z m-204-418c34.1-0.2 65.3 19.2 80 50h-160c14.7-30.8 45.9-50.2 80-50z m-204 120h408c2.2 0 4 1.8 4 4v54h-416v-52c0-2.2 1.8-4 4-4v-2z m244 170h-80c-22.1 0-40 17.9-40 40s17.9 40 40 40h80c22.1 0 40-17.9 40-40s-17.9-40-40-40z"></path></svg>