<?xml version="1.0"?><svg xmlns="http://www.w3.org/2000/svg" width="640" height="640" viewBox="0 0 640 640"><path d="m564 364c19.9 0 36 16.1 36 36v80c0 19.9-16.1 36-36 36s-36-16.1-36-36v-80c0-19.9 16.1-36 36-36z m-524-186c0.1-57 35.1-108 88.2-128.6 53.2-20.5 113.4-6.3 151.8 35.8 33.1-39 85-56.4 134.9-45.4 49.9 11 89.6 48.6 103.3 97.9 13.6 49.2-1.1 102-38.2 137.1v325.2h-284c-64.7-2.2-116-55.2-116-120v-205.2c-25.6-25.7-40-60.5-40-96.8z m156 350h212v-214.8c-8.6 1.8-17.3 2.7-26 2.8-5.4-0.1-10.8-1.5-15.6-4h-172.8c-4.8 2.5-10.2 3.9-15.6 4-8.7-0.1-17.4-1-26-2.8v166.8c-0.5 25.2 18.9 46.3 44 48z m-18-416c-31.8 0.5-58.8 23.6-64.1 55-5.3 31.4 12.6 62.1 42.5 73h247.2c31.8-11 50.2-44.2 42.8-77-7.5-32.8-38.5-54.8-72-50.9-33.4 3.8-58.6 32.2-58.4 65.9 0 19.9-16.1 36-36 36s-36-16.1-36-36c0-36.4-29.6-66-66-66z"></path></svg>