<?xml version="1.0"?><svg xmlns="http://www.w3.org/2000/svg" width="640" height="640" viewBox="0 0 640 640"><path d="m47.6 384c-4.8 9.8-4.8 21.4 0 31.2 3.2 7.6 86.8 180.8 272.4 180.8s269.6-174 272.8-181.6c4.1-9.3 4.1-19.9 0-29.2-3.2-7.2-82.4-181.2-272.8-181.2-180.8 0-268.4 172.8-272.4 180z m133.6-53.2v13.2c-0.5 44.2 20 86.1 55.2 112.9 35.3 26.8 81.1 35.4 123.6 23.1 13-3.1 23.2-13.2 26.5-26.1 3.3-13-0.8-26.7-10.8-35.6-9.9-9-24-11.7-36.5-7.1-27.9 8.2-58-2.3-74.8-26-16.7-23.8-16.5-55.6 0.6-79.2 17.1-23.6 47.3-33.6 75.1-25 27.8 8.6 47.1 33.9 47.9 63 0 19.9 16.1 36 36 36s36-16.1 36-36c0.4-5.6 0.4-11.2 0-16.8 24 20.7 44.3 45.3 60 72.8-39.6 74.2-115.9 121.6-200 124-83.8-3.6-159.6-50.6-200-124 17-25.9 37.6-49.2 61.2-69.2z m29.2-250.8c-18.3 7.6-27 28.5-19.6 46.8l16 40c4.8 11.9 15.7 20.4 28.5 22.1 12.8 1.8 25.5-3.4 33.4-13.6 7.9-10.1 9.7-23.8 4.9-35.7l-16-40c-3.6-8.9-10.6-16-19.5-19.6-8.9-3.7-18.8-3.7-27.7 0z m-130.4 184.4c14.2 0 27-8.4 32.8-21.3 5.8-13 3.5-28.1-6-38.7l-26.8-31.2c-8.4-10.2-21.8-15-34.8-12.3-13 2.6-23.6 12.1-27.4 24.9-3.8 12.6-0.4 26.4 9 35.8l28 31.2c6.5 7.1 15.6 11.2 25.2 11.6z m302.4-166.4l-16 40c-6.9 18.2 2 38.6 20 46 4.3 1.8 8.9 2.8 13.6 2.8 14.6 0 27.7-8.9 33.2-22.4l16-40c5.8-12.2 4.4-26.5-3.8-37.2-8.1-10.8-21.6-16.1-34.8-13.8-13.2 2.3-24.1 11.8-28.2 24.6z m228.4 72.4c-14.8-13.2-37.5-12-50.8 2.8l-28 31.2c-12.4 14.9-10.8 36.9 3.7 49.8 14.4 13 36.5 12.2 49.9-1.8l28-31.2c13.2-14.8 12-37.5-2.8-50.8z"></path></svg>