<?xml version="1.0"?><svg xmlns="http://www.w3.org/2000/svg" width="640" height="640" viewBox="0 0 640 640"><path d="m80 316c-0.1 32.5 6.6 64.6 19.6 94.4 5.2 11.8 16.2 19.9 29 21.4 12.8 1.4 25.3-4 33-14.4 7.6-10.4 9.2-24 4-35.8-22.2-50.7-17.2-109.2 13.1-155.5s82-74.1 137.3-74.1h40l-22.4 22.4c-14.1 14.4-14 37.5 0.4 51.6s37.5 14 51.6-0.4l105.2-105.6-105.2-105.6c-14.1-14.1-37.1-14.1-51.2 0s-14.1 37.1 0 51.2l14.8 14.4h-33.2c-130.2 0.2-235.8 105.8-236 236z m480 8c0-32.4-6.6-64.4-19.6-94-8-18.2-29.2-26.6-47.4-18.6-18.2 8-26.6 29.2-18.6 47.4 21.7 50.7 16.6 108.9-13.6 155-30.3 46.1-81.6 74-136.8 74.2h-40l22.4-22.4c12.5-14.3 11.8-35.8-1.6-49.2-13.4-13.4-34.9-14.1-49.2-1.6l-106.4 105.2 29.2 29.2 76 76c14.3 12.5 35.8 11.8 49.2-1.6 13.4-13.4 14.1-34.9 1.6-49.2l-14.4-14.4h33.2c130.2-0.2 235.8-105.8 236-236z"></path></svg>