<?xml version="1.0"?><svg xmlns="http://www.w3.org/2000/svg" width="640" height="640" viewBox="0 0 640 640"><path d="m529.2 360l-60-280h-109.2c-19.9 0-36 16.1-36 36s16.1 36 36 36h50.8l13.6 62.8c-62-20.6-130.2-11.3-184.4 25.2l-10.8 4h-189.2c-19.9 0-36 16.1-36 36s16.1 36 36 36h210.8l27.2-18c34.6-23.5 78-30.1 118-18l-191.2 115.2c-43.3-44.6-112.6-50.7-163-14.4-50.4 36.4-66.6 104.1-38 159.3 28.6 55.1 93.3 80.9 152 60.7 58.8-20.4 93.7-80.6 82.2-141.6l211.6-126.4 9.6 44c-50.8 30.4-71.8 93.4-49.4 148.2 22.4 54.9 81.5 85.2 139.1 71.4 57.6-13.9 96.5-67.6 91.6-126.7-4.9-59.1-52.2-105.6-111.3-109.7z m-409.2 168c-26.5 0-48-21.5-48-48 0-26.5 21.5-48 48-48 26.5 0 48 21.5 48 48 0 26.5-21.5 48-48 48z m400 0c-26.5 0-48-21.5-48-48 0-26.5 21.5-48 48-48 26.5 0 48 21.5 48 48 0 26.5-21.5 48-48 48z m0-320.8l8 40c3.4 16.7 18.1 28.8 35.2 28.8h7.2c9.8-1.5 18.5-7 24.1-15.2 5.6-8.2 7.6-18.3 5.5-28l-8-40c-2.6-12.9-11.8-23.4-24.2-27.6-12.4-4.2-26.2-1.4-36 7.2-9.9 8.7-14.4 21.9-11.8 34.8z"></path></svg>