<?xml version="1.0"?><svg xmlns="http://www.w3.org/2000/svg" width="640" height="640" viewBox="0 0 640 640"><path d="m524 280h-20.8l-23.2-32.8c-37.6-54.4-99.4-87-165.6-87.2h-68c-68.3-0.5-129.3 42.4-152 106.8l-5.6 16.8c-52.6 14.2-89 62-88.8 116.4v120h89.6c13.6 24.8 39.7 40.2 68 40.2s54.4-15.4 68-40.2h188.8c13.6 24.8 39.7 40.2 68 40.2s54.4-15.4 68-40.2h89.6v-120c0-64.8-51.3-117.8-116-120z m44 168h-14.8c-11.7-28.8-39.7-47.7-70.8-47.7s-59.1 18.8-70.8 47.7h-183.2c-12.4-28.3-39.9-47-70.8-48-30.9 1-58.4 19.7-70.8 48h-14.8v-48c-0.1-25 19.1-45.9 44-48h26l20.8-62.4c13.2-34.7 46.4-57.7 83.6-57.6h68c42.6-0.1 82.5 20.5 107.2 55.2l43.2 64.8h59.2c24.9 2.1 44.1 23 44 48v48z m-208-160h-120c-19.9 0-36 16.1-36 36s16.1 36 36 36h120c19.9 0 36-16.1 36-36s-16.1-36-36-36z"></path></svg>