<?xml version="1.0"?><svg xmlns="http://www.w3.org/2000/svg" width="640" height="640" viewBox="0 0 640 640"><path d="m433.2 138c-13-16.1-36-19.7-53.2-8.2-17.3 11.4-23 34-13.2 52.2l50.8 76-192.8 18.8c-59.6 5.6-105.1 55.8-104.8 115.6v40l-44-17.6v-18.8c0-19.9-16.1-36-36-36s-36 16.1-36 36v88c0 19.9 16.1 36 36 36 16.5-0.1 30.7-11.6 34.4-27.6l80 31.2c56.2 22.6 119 22.6 175.2 0l51.6-20.4c38.6-15.2 81.4-15.2 120 0l85.6 34.4c18.3 6.8 38.7-2.2 46-20.4 7.2-18-1.3-38.7-19.2-46.4l-53.6-20.8c50.8-43.6 80-107.1 80-174v-40l-132.4 12.8-74.4-110.8z m66 270c-5.7 4.2-10.1 10.1-12.4 16.8-45.1-9.4-92-5.2-134.8 12l-51.6 20.4c-34.8 13.6-73.2 14.9-108.8 3.6v-68.4c0.1-22.7 17.4-41.5 40-43.6l331.6-32.4c-9.3 37.2-31.9 69.6-63.6 91.2l-0.4 0.4z"></path></svg>