<?xml version="1.0"?><svg xmlns="http://www.w3.org/2000/svg" width="640" height="640" viewBox="0 0 640 640"><path d="m160 560c66.3 0 120-53.7 120-120v-2.8c0-2.8 0 0 0 0v-285.2h248v178c-48.6-21.2-105.4-8-139.7 32.6-34.2 40.5-37.8 98.8-8.7 143.2 29 44.3 83.8 64.4 134.7 49.2 50.8-15.1 85.7-61.9 85.7-115v-2.8c0-2.8 0 0 0 0v-357.2h-392v250c-44.7-19.5-96.8-10-131.8 24.1-34.9 34-45.7 85.9-27.3 131.1 18.4 45.2 62.3 74.8 111.1 74.8z m320-72c-26.5 0-48-21.5-48-48 0-26.5 21.5-48 48-48 26.5 0 48 21.5 48 48 0 26.5-21.5 48-48 48z m-320-96c26.5 0 48 21.5 48 48 0 26.5-21.5 48-48 48-26.5 0-48-21.5-48-48 0-26.5 21.5-48 48-48z"></path></svg>