<?xml version="1.0"?><svg xmlns="http://www.w3.org/2000/svg" width="640" height="640" viewBox="0 0 640 640"><path d="m164 560h36v-280h-48c0-60 32-115.5 84-145.5s116-30 168 0c52 30 84 85.5 84 145.5h-48v280h36c61 1 115.6-37.7 134.8-95.6 19.2-57.8-1.3-121.5-50.8-157.2 12.3-102-41.7-200.6-134.3-245-92.7-44.6-203.3-25.2-275.3 48.2-52.3 51.4-78.2 123.9-70.4 196.8-49.5 35.7-70 99.4-50.8 157.2 19.2 58 73.8 96.6 134.8 95.6z m348-82.4v-115.2c19.8 12.4 31.8 34.2 31.8 57.6s-12 45.2-31.8 57.6z m-384 0c-19.8-12.4-31.8-34.2-31.8-57.6s12-45.2 31.8-57.6v115.2z"></path></svg>