<?xml version="1.0"?><svg xmlns="http://www.w3.org/2000/svg" width="640" height="640" viewBox="0 0 640 640"><path d="m32.8 349.2l26.8 25.2 27.2-25.2c12.4-10.8 73.2-69.2 73.2-129.2 0-55.2-44.8-100-100-100s-100 44.8-100 100c0 60 60.4 117.6 72.8 129.2z m27.2-160c16.6 0 30 13.4 30 30s-13.4 30-30 30-30-13.4-30-30c0.4-16.2 13.7-29.2 30-29.2v-0.8z m360 50.8c-77.3 0-140 62.7-140 140 0 87.6 101.2 185.2 112.8 196l26.8 24 27.2-25.2c11.6-9.2 113.2-104.8 113.2-194.8 0-77.3-62.7-140-140-140z m0 200c-33.1 0-60-26.9-60-60s26.9-60 60-60 60 26.9 60 60-26.9 60-60 60z m-196.8 112.4c25.6-25.5 33.3-64 19.4-97.4-13.8-33.4-46.4-55.2-82.6-55h-120c-19.9 0-36 16.1-36 36s16.1 36 36 36h120c7.1-0.2 13.6 4 16.4 10.6 2.7 6.5 1.1 14.1-4 19l-58 58.4c-25.3 25.6-32.8 63.8-19 97 13.8 33.2 46.2 55 82.2 55h262.4c19.9 0 36-16.1 36-36s-16.1-36-36-36h-262.4c-7.1 0.2-13.6-4-16.4-10.6-2.7-6.5-1.1-14.1 4-19l58-58z"></path></svg>