<?xml version="1.0"?><svg xmlns="http://www.w3.org/2000/svg" width="640" height="640" viewBox="0 0 640 640"><path d="m460 616.4c36 0 70.6-14.4 96-40 9.2-9.2 29.2-32 44.8-52 13.7-17.5 19-40.1 14.6-61.8-4.4-21.8-18-40.6-37.4-51.4l-104-58c-30.3-16.8-68.1-11.1-92 14l-36.8 40-5.2 4.8c-9.9-7.7-19-16.4-27.2-26l-18-20.4-19.2-18.4-26.4-25.2c1.3-2.4 3.1-4.6 5.2-6.4l40-36.8c25.4-24.1 31-62.4 13.6-92.8l-60.8-103.6c-11-19.2-29.9-32.6-51.6-36.8-21.8-4.1-44.3 1.4-61.6 15.2-19.6 15.6-40 34.8-50 43.6-25.4 25.4-39.8 59.7-40 95.6-0.2 110.2 43.4 216 121.2 294.1 77.8 78.1 183.4 122.1 293.6 122.3h1.2z m-344-413.6c-0.8-18 6-35.4 18.8-48 6.4-6.4 25.6-23.6 44-40l-22.4-26 28.4 31.2 59.2 101.6c1.1 1.4 1.1 3.4 0 4.8l-40 37.6c-16.1 14.3-25.8 34.5-26.8 56 4.5 32.4 22.4 61.4 49.2 80l17.6 16.4 16.4 17.2c18.6 26.8 47.6 44.7 80 49.2 22.2-0.8 43.2-10.6 58-27.2l37.2-40c1.4-1.1 3.4-1.1 4.8 0l104 58v6c-14.4 18.8-32.4 40-40 45.2-12.3 12-28.8 18.8-46 18.8-188.2-0.6-340.9-152.6-342.4-340.8z"></path></svg>