<?xml version="1.0"?><svg xmlns="http://www.w3.org/2000/svg" width="640" height="640" viewBox="0 0 640 640"><path d="m524 160h-408c-42 0-76 34-76 76v168c0 20.2 8 39.5 22.2 53.8 14.3 14.2 33.6 22.2 53.8 22.2h44v120h320v-120h44c20.2 0 39.5-8 53.8-22.2 14.2-14.3 22.2-33.6 22.2-53.8v-168c0-42-34-76-76-76z m-292 368v-176h176v176h-176z m296-124c0 2.2-1.8 4-4 4h-44v-56c19.9 0 36-16.1 36-36s-16.1-36-36-36h-320c-19.9 0-36 16.1-36 36s16.1 36 36 36v56h-44c-2.2 0-4-1.8-4-4v-168c0-2.2 1.8-4 4-4h408c2.2 0 4 1.8 4 4v168z m-328-292h240c19.9 0 36-16.1 36-36s-16.1-36-36-36h-240c-19.9 0-36 16.1-36 36s16.1 36 36 36z"></path></svg>