<?xml version="1.0"?><svg xmlns="http://www.w3.org/2000/svg" width="640" height="640" viewBox="0 0 640 640"><path d="m320 4c-176.7 0-320 143.3-320 320s143.3 320 320 320 320-143.3 320-320c0-84.9-33.7-166.3-93.7-226.3s-141.4-93.7-226.3-93.7z m-128 532c40.6-16.6 84.2-24.7 128-24 43.8-0.7 87.4 7.4 128 24-78.6 48-177.4 48-256 0z m316-50.8c-57.6-31.2-122.5-46.8-188-45.2-65.5-1.6-130.4 14-188 45.2-86.2-100.2-78.7-250.4 17.1-341.4 95.7-91.1 246.1-91.1 341.8 0 95.8 91 103.3 241.2 17.1 341.4z m-188-361.2c-77.3 0-140 62.7-140 140s62.7 140 140 140 140-62.7 140-140-62.7-140-140-140z m0 208c-37.6 0-68-30.4-68-68s30.4-68 68-68 68 30.4 68 68c0 18-7.2 35.3-19.9 48.1-12.8 12.8-30 19.9-48.1 19.9z"></path></svg>