<?xml version="1.0"?><svg xmlns="http://www.w3.org/2000/svg" width="640" height="640" viewBox="0 0 640 640"><path d="m320 360c88.4 0 160-71.6 160-160s-71.6-160-160-160-160 71.6-160 160 71.6 160 160 160z m0-248c48.6 0 88 39.4 88 88 0 48.6-39.4 88-88 88-48.6 0-88-39.4-88-88 0-48.6 39.4-88 88-88z m-230.8 488h461.2c21-0.2 40.2-12 49.6-30.8 9.5-18.5 7.8-40.8-4.4-57.6-30-40-106-111.6-280-111.6s-244.8 70-274.8 112c-11 17.5-11.4 39.8-0.8 57.6 9.5 18.5 28.4 30.2 49.2 30.4z m228.8-128c69.9-5.4 139.5 14.4 196 56h-388.4c55.2-41.4 123.6-61.3 192.4-56z"></path></svg>