<?xml version="1.0"?><svg xmlns="http://www.w3.org/2000/svg" width="640" height="640" viewBox="0 0 640 640"><path d="m222 40h-124c-30.9 0-56 25.1-56 56v124c-1.1 15.5 4.3 30.8 14.9 42.2 10.7 11.4 25.5 17.8 41.1 17.8h124c14.8 0 29.1-5.9 39.6-16.4s16.4-24.8 16.4-39.6v-126c0.6-15.2-5.1-30-15.7-40.9-10.5-10.9-25.1-17.1-40.3-17.1z m-16 164h-92v-90h92v92-2z m16 156h-124c-30.9 0-56 25.1-56 56v124c-1.1 15.5 4.3 30.8 14.9 42.2 10.7 11.4 25.5 17.8 41.1 17.8h124c14.8 0 29.1-5.9 39.6-16.4s16.4-24.8 16.4-39.6v-124c1.1-15.5-4.3-30.8-14.9-42.2-10.7-11.4-25.5-17.8-41.1-17.8z m-16 164h-92v-92h92v92z m336-164h-124c-30.9 0-56 25.1-56 56v124c0 30.9 25.1 56 56 56h124c30.9 0 56-25.1 56-56v-124c0-30.9-25.1-56-56-56z m-16 164h-92v-92h92v92z m45.6-472.4l-131.6 132-51.6-52c-15.7-15.7-41.1-15.7-56.8 0-15.7 15.7-15.7 41.1 0 56.8l108.4 108 188.4-188.4c15.6-15.7 15.5-41-0.2-56.6-15.7-15.6-41-15.5-56.6 0.2z"></path></svg>