<?xml version="1.0"?><svg xmlns="http://www.w3.org/2000/svg" width="640" height="640" viewBox="0 0 640 640"><path d="m515.2 160h-43.6c-15.9-36.4-51.9-59.9-91.6-59.9-39.7 0-75.7 23.5-91.6 59.9h-163.2c-22.1 0-40 17.9-40 40s17.9 40 40 40h163.2c15.9 36.4 51.9 59.9 91.6 59.9 39.7 0 75.7-23.5 91.6-59.9h43.6c22.1 0 40-17.9 40-40s-17.9-40-40-40z m0 240h-163.6c-15.9-36.4-51.9-59.9-91.6-59.9-39.7 0-75.7 23.5-91.6 59.9h-43.2c-22.1 0-40 17.9-40 40s17.9 40 40 40h43.2c15.9 36.4 51.9 59.9 91.6 59.9 39.7 0 75.7-23.5 91.6-59.9h163.6c22.1 0 40-17.9 40-40s-17.9-40-40-40z"></path></svg>