<?xml version="1.0"?><svg xmlns="http://www.w3.org/2000/svg" width="640" height="640" viewBox="0 0 640 640"><path d="m473.2 422c74.5-101.1 58.5-242.5-36.7-324.4-95.2-81.8-237.4-76.4-326.2 12.4-88.8 88.7-94.1 230.9-12.3 326.1 81.9 95.2 223.3 111.2 324.4 36.7l152.4 152.4c14.3 12.5 35.8 11.8 49.2-1.6 13.4-13.4 14.1-34.9 1.6-49.2l-152.4-152.4z m-193.2 26c-92.8 0-168-75.2-168-168 0-92.8 75.2-168 168-168 92.8 0 168 75.2 168 168 0 44.6-17.7 87.3-49.2 118.8-31.5 31.5-74.2 49.2-118.8 49.2z m84.8-204h-169.6c-12.9 0-24.8 6.9-31.2 18-6.4 11.1-6.4 24.9 0 36s18.3 18 31.2 18h169.6c12.9 0 24.8-6.9 31.2-18 6.4-11.1 6.4-24.9 0-36s-18.3-18-31.2-18z"></path></svg>