<?xml version="1.0"?><svg xmlns="http://www.w3.org/2000/svg" width="640" height="640" viewBox="0 0 640 640"><path d="m280 520c51.1-0.1 100.8-16.5 142-46.8l152.4 152.4c14.3 12.5 35.8 11.8 49.2-1.6 13.4-13.4 14.1-34.9 1.6-49.2l-152.4-152.4c66-89.5 61.8-212.5-10-297.4-71.7-84.9-192.4-109.3-291.6-59.1-99.2 50.2-150.9 161.9-125 270 25.9 108.1 122.6 184.3 233.8 184.1z m0-408c92.8 0 168 75.2 168 168 0 92.8-75.2 168-168 168-92.8 0-168-75.2-168-168 0-92.8 75.2-168 168-168z m-20 278.8l125.6-125.2c9.2-9.2 12.7-22.5 9.4-35-3.4-12.5-13.1-22.2-25.6-25.6-12.5-3.3-25.8 0.2-35 9.4l-74.4 74.8-34.4-34.8c-14.1-14.1-37.1-14.1-51.2 0s-14.1 37.1 0 51.2l85.6 85.2z"></path></svg>