<?xml version="1.0"?><svg xmlns="http://www.w3.org/2000/svg" width="640" height="640" viewBox="0 0 640 640"><path d="m280 520c51.1-0.1 100.8-16.5 142-46.8l152.4 152.4c14.3 12.5 35.8 11.8 49.2-1.6 13.4-13.4 14.1-34.9 1.6-49.2l-152.4-152.4c66-89.5 61.8-212.5-10-297.4-71.7-84.9-192.4-109.3-291.6-59.1-99.2 50.2-150.9 161.9-125 270 25.9 108.1 122.6 184.3 233.8 184.1z m0-408c92.8 0 168 75.2 168 168 0 92.8-75.2 168-168 168-92.8 0-168-75.2-168-168 0-92.8 75.2-168 168-168z m-82.8 250.8c12.5 12.5 32.7 12.5 45.2 0l37.6-37.6 37.2 37.6c12.6 12.6 33 12.6 45.6 0 12.6-12.6 12.6-33 0-45.6l-37.6-37.2 37.2-37.2c12.6-12.5 12.7-32.8 0.2-45.4-12.5-12.6-32.8-12.7-45.4-0.2l-37.2 37.6-37.2-37.6c-12.6-12.6-33-12.6-45.6 0-12.6 12.6-12.6 33 0 45.6l37.6 37.2-37.2 37.2c-6.2 6-9.7 14.2-9.8 22.7 0 8.6 3.4 16.8 9.4 22.9z"></path></svg>