<?xml version="1.0"?><svg xmlns="http://www.w3.org/2000/svg" width="640" height="640" viewBox="0 0 640 640"><path d="m595.6 80c-0.2-3.6-0.8-7-2-10.4v-3.2c-3.2-8-9.6-14.4-17.6-17.6h-3.2c-3.3-0.5-6.7-0.5-10 0-3.3-0.5-6.7-0.5-10 0l-458.8 136.8c-23.6 7.2-39.8 28.9-39.8 53.6 0 24.7 16.2 46.4 39.8 53.6l196 56 56 196c6.9 23.6 28.6 39.9 53.2 40h0.8c24.8 0.1 46.6-16.2 53.6-40l140-455.6c0.5-3.4 0.5-7 0-10.4l2 1.2z m-163.6 80l-122.4 120-143.2-40 265.6-80z m-32 313.6l-40-143.2 122.8-122.4-82.8 265.6z"></path></svg>