<?xml version="1.0"?><svg xmlns="http://www.w3.org/2000/svg" width="640" height="640" viewBox="0 0 640 640"><path d="m495.2 234l48.4-86.4-50.8-51.2-86.4 48.4c-7.5-3.7-15.3-6.9-23.2-9.6l-26.8-95.2h-72l-27.2 95.2c-8.1 2.7-16 5.9-23.6 9.6l-86-48.4-50.8 51.2 48 86c-3.7 7.6-6.9 15.5-9.6 23.6l-95.2 26.8v72l95.2 26.8c2.7 8.1 5.9 16 9.6 23.6l-48 86 50.8 50.8 86-48.4c7.6 3.7 15.5 6.9 23.6 9.6l27.2 95.6h72l26.8-95.2c7.9-2.7 15.7-5.9 23.2-9.6l86.4 48.4 50.8-50.8-48.4-86.4c3.7-7.5 6.9-15.3 9.6-23.2l95.2-27.2v-72l-95.6-26.8c-2.6-7.9-5.6-15.7-9.2-23.2z m-51.2 86c0 68.5-55.5 124-124 124-68.5 0-124-55.5-124-124 0-68.5 55.5-124 124-124 68.5 0 124 55.5 124 124z"></path><ellipse cx="320" cy="320" rx="60" ry="60"></ellipse></svg>