<?xml version="1.0"?><svg xmlns="http://www.w3.org/2000/svg" width="640" height="640" viewBox="0 0 640 640"><path d="m312.4 600h14.8c80-16 232.8-86.8 232.8-240v-162.4c0-14.8-9-28.2-22.8-33.6l-204-80c-8.6-3.4-18.2-3.4-26.8 0l-204 80c-13.6 5.6-22.5 18.9-22.4 33.6v162.4c0 186 222.8 237.2 232.4 240z m-160-240v-15.6l131.6-51.6v42.8l-129.2 50.4c-1.8-8.6-2.7-17.3-2.8-26h0.4z m35.6 90.4l96.4-38v101.6c-36.6-13.6-69.8-35.4-96.8-63.6h0.4z m300-90.4c0 90.8-80 135.6-132 155.2v-346l132 52.8v138z m-204-190.8v46.4l-132 51.6v-45.2l132-52.8z"></path></svg>