<?xml version="1.0"?><svg xmlns="http://www.w3.org/2000/svg" width="640" height="640" viewBox="0 0 640 640"><path d="m197.2 600h248c63.6-0.6 114.8-52.4 114.8-116v-324h-120v-4c-2.2-64.7-55.2-116-120-116s-117.8 51.3-120 116v4h-120v324c0 31 12.4 60.7 34.4 82.4 22 21.8 51.8 33.9 82.8 33.6z m74.8-444c0.5-12.2 5.9-23.7 14.9-32 9-8.2 20.9-12.6 33.1-12 12.2-0.6 24.1 3.8 33.1 12 9 8.3 14.4 19.8 14.9 32v4h-96v-4z m-120 76h48v84c0 19.9 16.1 36 36 36s36-16.1 36-36v-84h96v84c0 19.9 16.1 36 36 36s36-16.1 36-36v-84h49.2v252c0 24.3-19.7 44-44 44h-248c-24.3 0-44-19.7-44-44v-252h-1.2z"></path></svg>