<?xml version="1.0"?><svg xmlns="http://www.w3.org/2000/svg" width="640" height="640" viewBox="0 0 640 640"><path d="m236 520h208c64.1 0 116-51.9 116-116v-284h-120v-20c0-55.2-44.8-100-100-100s-100 44.8-100 100v20h-120v284c0 64.1 51.9 116 116 116z m76-420c0-15.5 12.5-28 28-28 15.5 0 28 12.5 28 28v20h-56v-20z m-120 92h48v92c0 19.9 16.1 36 36 36s36-16.1 36-36v-92h56v92c0 19.9 16.1 36 36 36s36-16.1 36-36v-92h48v212c0 24.3-19.7 44-44 44h-208c-24.3 0-44-19.7-44-44v-212z m-76 448h244c19.9 0 36-16.1 36-36s-16.1-36-36-36h-244c-24.3 0-44-19.7-44-44v-284c0-19.9-16.1-36-36-36s-36 16.1-36 36v284c0 64.1 51.9 116 116 116z"></path></svg>