<?xml version="1.0"?><svg xmlns="http://www.w3.org/2000/svg" width="640" height="640" viewBox="0 0 640 640"><path d="m600 316c0-41.4-16.4-81-45.7-110.3-29.3-29.2-68.9-45.7-110.3-45.7h-84v-44c0-42-34-76-76-76h-128c-42 0-76 34-76 76v92c-0.1 1.2-0.1 2.4 0 3.6-25.9 28.6-40.1 65.8-40 104.4v84h-40v200h640v-200h-40v-84z m-444-204h128c2.2 0 4 1.8 4 4v44h-92c-14.9 0.2-29.8 2.7-44 7.2v-51.2c0-2.2 1.8-4 4-4z m-44 204c0-46.4 37.6-84 84-84h248c46.4 0 84 37.6 84 84v84h-416v-84z m-40 156h212v56h-212v-56z m496 56h-212v-56h212v56z m-128-248h-240c-22.1 0-40 17.9-40 40s17.9 40 40 40h240c22.1 0 40-17.9 40-40s-17.9-40-40-40z"></path></svg>