<?xml version="1.0"?><svg xmlns="http://www.w3.org/2000/svg" width="640" height="640" viewBox="0 0 640 640"><path d="m136 152h344c19.9 0 36-16.1 36-36s-16.1-36-36-36h-344c-53.8 1.7-96.5 46.1-96 100v284c0 53 43 96 96 96h348c42 0 76-34 76-76v-208c0-42-34-76-76-76h-348c-5.9 0.8-11.8-0.9-16.4-4.7-4.6-3.8-7.3-9.4-7.6-15.3-0.2-14 10.1-26 24-28z m0 120h348c2.2 0 4 1.8 4 4v208c0 2.2-1.8 4-4 4h-348c-13.2 0-24-10.8-24-24v-194.8c7.9 1.9 15.9 2.8 24 2.8z m244 164c30.9 0 56-25.1 56-56 0-30.9-25.1-56-56-56-30.9 0-56 25.1-56 56 0 14.8 5.9 29.1 16.4 39.6s24.8 16.4 39.6 16.4z m0-72c8.8 0 16 7.2 16 16 0 8.8-7.2 16-16 16-8.8 0-16-7.2-16-16 0-8.8 7.2-16 16-16z"></path></svg>