<?xml version="1.0"?><svg xmlns="http://www.w3.org/2000/svg" width="640" height="640" viewBox="0 0 640 640"><path d="m80 382.4v217.6h480v-217.6c25.2-21.6 39.8-53.2 40-86.4v-180c0-19.9-16.1-36-36-36h-488c-19.9 0-36 16.1-36 36v180c0.2 33.2 14.8 64.8 40 86.4z m72 28.8h5.2c29.8-0.3 58.4-11.8 80-32.4 13.9 13 30.8 22.5 49.2 27.6v120h-134.4v-115.2z m-40-131.2h90.8v16c0 25.1-20.3 45.4-45.4 45.4s-45.4-20.3-45.4-45.4v-16z m370.8 60c-24.6 0.2-44.8-19.4-45.2-44v-16h90.4v16c-0.4 24.6-20.6 44.2-45.2 44z m-117.6-44c0 25.1-20.3 45.4-45.4 45.4s-45.4-20.3-45.4-45.4v-16h90.8v16z m122.8 232h-128v-123.2c14.9-5.6 28.5-14.2 40-25.2 21.6 20.6 50.2 32.1 80 32.4h8v116z m40-376v56h-416v-56h416z"></path><circle cx="220" cy="460" r="20"></circle></svg>