<?xml version="1.0"?><svg xmlns="http://www.w3.org/2000/svg" width="640" height="640" viewBox="0 0 640 640"><path d="m156 480h40c40.5 75.9 120.4 122.4 206.4 120 19.9 0 36-16.1 36-36v-488c0-19.3-15.2-35.2-34.4-36-86-2.4-165.9 44.1-206.4 120h-40c-66.8 0-117.6 70.4-117.6 160s50.8 160 116 160z m212-364.8v409.6c-99.6-18.4-136-114.4-136-204.8 0-90.4 36.4-186.4 136-204.8z m-212 116.8h14c-6.8 28.8-10.2 58.4-10 88-0.2 29.6 3.2 59.2 10 88h-14c-18 0-44-34.4-44-88 0-53.6 26-88 44-88z m378.4-97.6l-40 40c-12.5 14.3-11.8 35.8 1.6 49.2 13.4 13.4 34.9 14.1 49.2 1.6l40-40c12.5-14.3 11.8-35.8-1.6-49.2-13.4-13.4-34.9-14.1-49.2-1.6z m25.6 381.6c14.6 0.1 27.9-8.6 33.5-22.2 5.6-13.5 2.5-29.1-7.9-39.4l-40-40c-14.3-12.5-35.8-11.8-49.2 1.6-13.4 13.4-14.1 34.9-1.6 49.2l40 40c6.6 6.8 15.7 10.7 25.2 10.8z m40-232h-80c-19.9 0-36 16.1-36 36s16.1 36 36 36h80c19.9 0 36-16.1 36-36s-16.1-36-36-36z"></path></svg>