<?xml version="1.0"?><svg xmlns="http://www.w3.org/2000/svg" width="640" height="640" viewBox="0 0 640 640"><path d="m156 480h44c37.9 75.2 115.8 121.9 200 120 19.9 0 36-16.1 36-36v-40c0-19.9-16.1-36-36-36s-36 16.1-36 36c-93.6-18.8-128-114-128-204 0-90 34.4-185.2 128-204.4 0 19.9 16.1 36 36 36s36-16.1 36-36v-40c-0.2-19.7-16.3-35.6-36-35.6-84.2-1.9-162.1 44.8-200 120h-44c-65.2 0-116 70.4-116 160s50.8 160 116 160z m0-248h17.6c-6.6 28.9-9.8 58.4-9.6 88-0.2 29.6 3 59.1 9.6 88h-17.6c-18 0-44-34.4-44-88 0-53.6 26-88 44-88z m429.6-17.6c-14-14-36.8-14-50.8 0l-54.8 54.8-54.4-54.8c-9.2-9.2-22.5-12.7-35-9.4-12.5 3.4-22.2 13.1-25.6 25.6-3.3 12.5 0.2 25.8 9.4 35l54.8 54.4-54.8 54.4c-12.5 14.3-11.8 35.8 1.6 49.2 13.4 13.4 34.9 14.1 49.2 1.6l54.8-54.4 54.4 54.4c8.8 10.1 22.6 14.4 35.6 11.2 13.1-3.1 23.3-13.3 26.4-26.4 3.2-13-1.1-26.8-11.2-35.6l-54.4-54.4 54.4-54.4c6.9-6.7 10.8-15.9 10.9-25.5 0.1-9.6-3.7-18.9-10.5-25.7z"></path></svg>