<?xml version="1.0"?><svg xmlns="http://www.w3.org/2000/svg" width="640" height="640" viewBox="0 0 640 640"><path d="m97.6 588c11.4 9.2 27.2 10.6 40 3.6l142.4-75.2c13.2 2 26.6 3.2 40 3.6 154.4 0 280-107.6 280-240s-125.6-240-280-240-280 106.8-280 240c0.9 62.7 28.2 122.1 75.2 163.6l-30 108c-3.2 13.5 1.6 27.7 12.4 36.4z m14.4-308c0-92.8 93.2-168 208-168s208 74.4 208 168-93.2 168-208 168c-14.1 0-28.1-1.2-42-3.6-7.8-1.3-15.8-0.1-22.8 3.6l-80 40 15.6-48c4.8-14.7-0.4-30.8-12.8-40-39.6-27.4-64-71.9-66-120z"></path></svg>