<?xml version="1.0"?><svg xmlns="http://www.w3.org/2000/svg" width="640" height="640" viewBox="0 0 640 640"><ellipse cx="200" cy="280" rx="40" ry="40"></ellipse><ellipse cx="440" cy="280" rx="40" ry="40"></ellipse><ellipse cx="320" cy="280" rx="40" ry="40"></ellipse><path d="m85.2 550.4c-3.1 13.6 2 27.9 13 36.4 11.1 8.6 26.2 10 38.6 3.6l143.2-74c13.2 2 26.6 3.2 40 3.6 154.4 0 280-107.6 280-240s-125.6-240-280-240-280 106.8-280 240c0.9 62.7 28.2 122.1 75.2 163.6l-30 106.8z m26.8-270.4c0-92.8 93.2-168 208-168s208 74.4 208 168-93.2 168-208 168c-14.1 0-28.1-1.2-42-3.6-7.8-1.4-15.8-0.1-22.8 3.6l-80 40 15.6-48c4.8-14.7-0.4-30.8-12.8-40-39.6-27.4-64-71.9-66-120z"></path></svg>