<?xml version="1.0"?><svg xmlns="http://www.w3.org/2000/svg" width="640" height="640" viewBox="0 0 640 640"><path d="m440 240h-240c-22.1 0-40 17.9-40 40s17.9 40 40 40h240c22.1 0 40-17.9 40-40s-17.9-40-40-40z m-120-200c-154.4 0-280 106.8-280 240 0.9 62.7 28.2 122.1 75.2 163.6l-30 108c-3.1 13.6 2 27.9 13 36.4 11.1 8.6 26.2 10 38.6 3.6l143.2-75.2c13.2 2 26.6 3.2 40 3.6 154.4 0 280-107.6 280-240s-125.6-240-280-240z m0 408c-14.1 0-28.1-1.2-42-3.6-7.8-1.3-15.8-0.1-22.8 3.6l-80 40 15.6-48c4.8-14.7-0.4-30.8-12.8-40-39.6-27.4-64-71.9-66-120 0-92.8 93.2-168 208-168s208 74.4 208 168-93.2 167.2-208 167.2v0.8z"></path></svg>