<?xml version="1.0"?><svg xmlns="http://www.w3.org/2000/svg" width="640" height="640" viewBox="0 0 640 640"><path d="m603.6 250c-4.3-13-15.6-22.5-29.2-24.4l-153.6-22.4-68.4-139.2c-6.8-11.3-19-18.2-32.2-18.2-13.2 0-25.4 6.9-32.2 18.2l-68.8 139.2-153.6 22.4c-13.6 1.9-25 11.4-29.3 24.5-4.2 13.1-0.6 27.5 9.3 37.1l111.2 108-26.4 153.2c-2.4 13.6 3.2 27.3 14.3 35.4 11.2 8.1 25.9 9.1 38.1 2.6l137.2-72.4 137.2 72.4c12.2 6.5 26.9 5.5 38.1-2.6 11.2-8.1 16.7-21.8 14.3-35.4l-26.4-153.2 111.2-108.4c9.8-9.5 13.4-23.8 9.2-36.8z m-184 106.8c-8.6 8.3-12.4 20.3-10.4 32l17.2 99.6-89.6-48.4c-5.3-2.3-11-3.2-16.8-2.8v-277.2l44.8 92c5.3 10.6 15.4 18 27.2 19.6l100 14.4-72.4 70.8z"></path></svg>