<?xml version="1.0"?><svg xmlns="http://www.w3.org/2000/svg" width="640" height="640" viewBox="0 0 640 640"><path d="m156.8 395.2l-26.4 153.2c-2.4 13.6 3.2 27.3 14.3 35.4 11.2 8.1 25.9 9.1 38.1 2.6l137.2-72.4 137.2 72.4 33.6-63.6-154-82.8c-10.5-5.6-23.1-5.6-33.6 0l-89.6 48.8 17.2-100c2-11.7-1.8-23.7-10.4-32l-72.4-70.4 100-14.4c11.8-1.7 22-9.2 27.2-20l44.8-92 44.8 92c5.3 10.6 15.4 18 27.2 19.6l100 14.4-5.2 5.2 50.4 51.6 57.6-56c9.9-9.6 13.5-24 9.3-37.1-4.3-13.1-15.6-22.6-29.3-24.5l-153.6-22.4-68.8-138.8c-6.8-11.3-19-18.2-32.2-18.2-13.2 0-25.4 6.9-32.2 18.2l-68.8 139.2-153.6 22.4c-13.6 1.9-25 11.4-29.3 24.5-4.2 13.1-0.6 27.5 9.3 37.1l111.2 108z m323.2 8.8c-19.9 0-36 16.1-36 36s16.1 36 36 36h120c19.9 0 36-16.1 36-36s-16.1-36-36-36h-120z"></path></svg>