<?xml version="1.0"?><svg xmlns="http://www.w3.org/2000/svg" width="640" height="640" viewBox="0 0 640 640"><path d="m156.8 395.2l-26.4 153.2c-3.1 13.6 2 27.9 13 36.4 11.1 8.6 26.2 10 38.6 3.6l74-37.2c11.5-5.8 19-17.3 19.8-30.1 0.7-12.9-5.4-25.2-16.2-32.2-10.8-7.1-24.5-7.9-36-2.1l-10.4 5.2 17.6-103.2c2-11.7-1.8-23.7-10.4-32l-72.4-70.4 100-14.4c11.8-1.7 22-9.2 27.2-20l44.8-92 44.8 92c5.6 11.3 16.6 18.9 29.2 20l172.4 15.2c13.2 1.9 26.4-3.6 34.3-14.4 7.9-10.7 9.2-25 3.3-37-5.8-12-17.9-19.8-31.2-20.2l-152-13.2-68.4-138.4c-6.8-11.3-19-18.2-32.2-18.2-13.2 0-25.4 6.9-32.2 18.2l-68.8 139.2-153.6 22.4c-13.6 1.9-25 11.4-29.3 24.5-4.2 13.1-0.6 27.5 9.3 37.1l111.2 108z m359.2 48.8v-84c0-19.9-16.1-36-36-36s-36 16.1-36 36v84h-84c-19.9 0-36 16.1-36 36s16.1 36 36 36h84v84c0 19.9 16.1 36 36 36s36-16.1 36-36v-84h84c19.9 0 36-16.1 36-36s-16.1-36-36-36h-84z"></path></svg>