<?xml version="1.0"?><svg xmlns="http://www.w3.org/2000/svg" width="640" height="640" viewBox="0 0 640 640"><path d="m223.6 636c20.1 0 39.4-8.1 53.6-22.4l288.8-288.8c21.8-21.7 34.1-51.2 34-82v-166.8c0-19.9-16.1-36-36-36h-166.8c-30.8-0.1-60.3 12.2-82 34l-288.8 288.8c-14.3 14.2-22.3 33.6-22.3 53.8s8 39.6 22.3 53.8l143.6 143.6c14.2 14.2 33.5 22.1 53.6 22z m-146.4-222.4l288.8-288.8c8.3-8.2 19.5-12.8 31.2-12.8h130.8v130.8c0 11.7-4.6 22.9-12.8 31.2l-288.8 288.8c-1.6 1.4-4 1.4-5.6 0l-143.6-143.6c-1.4-1.6-1.4-4 0-5.6z"></path><ellipse cx="440" cy="200" rx="40" ry="40"></ellipse><path d="m231.6 453.6l5.2 5.2c12.5 12.6 31.4 16.4 47.9 9.7 16.4-6.7 27.2-22.7 27.3-40.5v-70.8l25.2 25.6c12.6 12.6 33 12.6 45.6 0 12.6-12.6 12.6-33 0-45.6l-17.2-17.2 17.6-18.4c8.4-8.2 11.7-20.3 8.5-31.6-3.2-11.4-12.3-20-23.7-22.6-11.6-2.6-23.5 1.4-31.2 10.2l-16.8 18c-13-11.1-31.2-13.6-46.6-6.5-15.6 7.2-25.4 22.7-25.4 39.7v70.8l-25.2-25.2c-12.6-12.6-33-12.6-45.6 0-12.6 12.6-12.6 33 0 45.6l8.8 8.8-8.8 8.8c-11.4 12.6-11 32 1.1 44.1 12.1 12 31.5 12.5 44.1 1.1l9.2-9.2z"></path></svg>