<?xml version="1.0"?><svg xmlns="http://www.w3.org/2000/svg" width="640" height="640" viewBox="0 0 640 640"><ellipse cx="440" cy="200" rx="40" ry="40"></ellipse><path d="m574.4 414.4l-114.4 114.8-54.4-54.4c-14.3-12.5-35.8-11.8-49.2 1.6-13.4 13.4-14.1 34.9-1.6 49.2l80 80c14 14 36.8 14 50.8 0l140-140c9.2-9.2 12.7-22.5 9.4-35-3.4-12.5-13.1-22.2-25.6-25.6-12.5-3.3-25.8 0.2-35 9.4z m-400.8 195.2c14.2 14.3 33.6 22.3 53.8 22.3s39.6-8 53.8-22.3c10-14.4 8.2-34-4.4-46.3-12.6-12.3-32.2-13.7-46.4-3.3-1.6 1.5-4 1.5-5.6 0l-144.8-144.4c-1.4-1.6-1.4-4 0-5.6l286-285.2c8.3-8.2 19.5-12.8 31.2-12.8h130.8v130.8c0.1 11.7-4.5 22.9-12.8 31.2l-60.8 60.4c-12.5 14.3-11.8 35.8 1.6 49.2 13.4 13.4 34.9 14.1 49.2 1.6l60.4-60.4c22-21.6 34.4-51.2 34.4-82v-166.8c0-19.9-16.1-36-36-36h-166.8c-30.8-0.1-60.3 12.2-82 34l-284.8 286c-14.3 14.2-22.3 33.6-22.3 53.8s8 39.6 22.3 53.8l143.2 142z"></path></svg>