<?xml version="1.0"?><svg xmlns="http://www.w3.org/2000/svg" width="640" height="640" viewBox="0 0 640 640"><path d="m200 636c14.6 0.1 27.9-8.6 33.5-22.2 5.6-13.5 2.5-29.1-7.9-39.4l-143.6-143.2c-0.9-0.8-1.4-2-1.4-3.2s0.5-2.4 1.4-3.2l283.2-300c8.5-8.4 20-13 32-12.8h130.8v108c0 19.9 16.1 36 36 36s36-16.1 36-36v-144c0-19.9-16.1-36-36-36h-166.8c-31.2 0-61 12.6-82.8 34.8l-283.2 299.6c-14.3 14.2-22.3 33.6-22.3 53.8s8 39.6 22.3 53.8l143.6 143.6c6.7 6.6 15.8 10.4 25.2 10.4z"></path><ellipse cx="440" cy="200" rx="40" ry="40"></ellipse><path d="m294.4 545.6c14 14 36.8 14 50.8 0l54.8-54.8 54.4 54.4c8.8 10.1 22.6 14.4 35.6 11.2 13.1-3.1 23.3-13.3 26.4-26.4 3.2-13-1.1-26.8-11.2-35.6l-54.4-54.4 54.4-54.4c12.5-14.3 11.8-35.8-1.6-49.2-13.4-13.4-34.9-14.1-49.2-1.6l-54.4 54.4-54.4-54.8c-14.1-14.1-37.1-14.1-51.2 0s-14.1 37.1 0 51.2l54.8 54.4-54.8 54.4c-6.8 6.8-10.7 16-10.7 25.6s3.9 18.8 10.7 25.6z"></path></svg>