<?xml version="1.0"?><svg xmlns="http://www.w3.org/2000/svg" width="640" height="640" viewBox="0 0 640 640"><path d="m480 206.4v-130.4c0-19.9-16.1-36-36-36h-130.4c-30.9 0.1-60.6 12.5-82.4 34.4l-217.2 220c-29.3 29.7-29.3 77.5 0 107.2l106 103.6c29.6 29.5 77.6 29.5 107.2 0l220.4-216.4c21.2-22.1 32.9-51.7 32.4-82.4z m-72 0c-0.1 11.7-4.8 23-13.2 31.2l-220 216.8c-1.6 1.5-4 1.5-5.6 0l-104-104c-1.5-1.6-1.5-4 0-5.6l216.8-220c8.4-8.4 19.8-13 31.6-12.8h94.4v94.4z m156-110c-19.9 0-36 16.1-36 36v130.4c-0.1 11.7-4.8 23-13.2 31.2l-272 268.4c-10.2 8.8-14.6 22.5-11.5 35.5 3.1 13.1 13.2 23.4 26.2 26.7 13 3.2 26.8-1 35.7-11l272-268.8c22-21.7 34.5-51.2 34.8-82v-130.4c0-19.9-16.1-36-36-36z"></path><ellipse cx="320" cy="200" rx="40" ry="40"></ellipse><path d="m240 248h-72v80h-10c-11.4 0.4-21.8 6.8-27.2 16.9s-5 22.3 1 32c6 9.7 16.8 15.5 28.2 15.1h2l70-4.4v-75.6h8c17.7 0 32-14.3 32-32 0-17.7-14.3-32-32-32z"></path></svg>