<?xml version="1.0"?><svg xmlns="http://www.w3.org/2000/svg" width="640" height="640" viewBox="0 0 640 640"><path d="m227.6 632c19.7-0.4 38.5-8.4 52.4-22.4l284.8-284.8c22.3-21.5 35-51 35.2-82v-166.8c0-19.9-16.1-36-36-36h-166.8c-30.8-0.1-60.3 12.2-82 34l-284.8 286c-14.3 14.2-22.3 33.6-22.3 53.8s8 39.6 22.3 53.8l143.6 143.6c14.4 13.7 33.7 21.2 53.6 20.8z m-147.6-222.4l286-284.8c8.3-8.2 19.5-12.8 31.2-12.8h130.8v130.8c0 11.7-4.6 22.9-12.8 31.2l-284.8 286c-1.6 1.4-4 1.4-5.6 0l-144.8-144.4c-1.6-1.7-1.6-4.3 0-6z"></path><ellipse cx="440" cy="200" rx="40" ry="40"></ellipse></svg>