<?xml version="1.0"?><svg xmlns="http://www.w3.org/2000/svg" width="640" height="640" viewBox="0 0 640 640"><path d="m240 400h19.2c1.6 0 3 1 3.6 2.4l80 197.6h23.6c30.8 0 60.3-12.2 82-34 21.8-21.7 34-51.2 34-82v-44h37.6c33.2-0.6 64.7-14.6 87.3-39 22.7-24.2 34.4-56.6 32.7-89.8l-11.2-142.8v-6c-18.8-71.2-82.7-121.2-156.4-122.4h-68.4c-30.7 1.4-60.7 9.9-87.6 24.8l-12.4 6c-17.2 8.6-36.3 13.2-55.6 13.2h-8.4v-4h-200v360h200v-40z m8.4-244c30.4-0.1 60.4-7.2 87.6-20.8l12.4-6.4c17.1-9.6 36.1-15.3 55.6-16.8h68.4c39.2 1.3 73.2 27.3 84.8 64.8l10.8 140c0.6 13.1-4.4 25.9-13.6 35.2-8.8 9.8-21.2 15.6-34.4 16h-37.6v-8c0-19.9-16.1-36-36-36s-36 16.1-36 36v124c0.7 16.4-7.8 31.8-22 40l-58.8-148.4c-11.5-28.8-39.4-47.7-70.4-47.6h-19.2v-172h8.4z m-136.4-4h56v196.4c-2.5 4.8-3.9 10.2-4 15.6-0.1 1.3-0.1 2.7 0 4h-52v-216z"></path></svg>