<?xml version="1.0"?><svg xmlns="http://www.w3.org/2000/svg" width="640" height="640" viewBox="0 0 640 640"><path d="m240 560h2.4c19.3 0 38.3 4.6 55.6 13.2l12.4 6.4c27.1 13.4 57 20.4 87.2 20.4h68.4c73.1 0.1 136.9-49.2 155.2-120l11.6-153.2c1.8-33.2-10-65.6-32.7-89.8-22.6-24.4-54.1-38.4-87.3-39h-36.8v-42c0-64.1-51.9-116-116-116h-24.4l-80 197.6c-0.5 1.2-1.5 2.1-2.8 2.4h-212.8v360h200v-40z m12.8-248c31.2 0.2 59.3-18.7 70.8-47.6l58.4-146.4c14.2 8.2 22.7 23.6 22 40v114h109.6c26.5 2.3 46.7 24.6 46.4 51.2l-10.4 143.6c-12.2 36.4-46.4 60.9-84.8 60.8h-67.2c-19.3 0-38.3-4.6-55.6-13.2l-12.4-6.4c-27.2-13.6-57.2-20.7-87.6-20.8h-2v-175.2h12.8z m-140.8 0h56v196.4c-2.5 4.8-3.9 10.2-4 15.6-0.1 1.3-0.1 2.7 0 4h-52v-216z"></path></svg>