<?xml version="1.0"?><svg xmlns="http://www.w3.org/2000/svg" width="640" height="640" viewBox="0 0 640 640"><path d="m157.6 544.8c15.6 33.8 49.6 55.4 86.8 55.2h151.2c37.3 0 71.2-21.6 87-55.4 15.7-33.8 10.5-73.6-13.4-102.2l-102.4-122.4 102.4-122.4c23.9-28.6 29.1-68.4 13.4-102.2-15.8-33.8-49.7-55.4-87-55.4h-151.2c-37.3 0-71.2 21.6-87 55.4-15.7 33.8-10.5 73.6 13.4 102.2l102.4 122.4-102.4 122.4c-24.1 28.6-29.3 68.6-13.2 102.4z m65.2-418.8c3.7-8.6 12.2-14.1 21.6-14h151.2c9.6-0.2 18.3 5.3 22.3 14 4 8.6 2.4 18.9-3.9 26l-40.4 48h-107.2l-40-48.4c-6.3-7-7.7-17.1-3.6-25.6z m97.2 250l53.6 64h-107.2l53.6-64z"></path></svg>