<?xml version="1.0"?><svg xmlns="http://www.w3.org/2000/svg" width="640" height="640" viewBox="0 0 640 640"><path d="m72 284v-128c0-2.2 1.8-4 4-4h488c2.2 0 4 1.8 4 4v128c0 19.9 16.1 36 36 36s36-16.1 36-36v-128c0-42-34-76-76-76h-488c-42 0-76 34-76 76v128c0 19.9 16.1 36 36 36s36-16.1 36-36z m84-84c-19.9 0-36 16.1-36 36v324h400v-324c0-19.9-16.1-36-36-36s-36 16.1-36 36v252h-256v-252c0-19.9-16.1-36-36-36z m208 4c-19.9 0-36 16.1-36 36 0 8.8-16 8.8-16 0 0-19.9-16.1-36-36-36s-36 16.1-36 36c0 44.2 35.8 80 80 80s80-35.8 80-80c0-9.6-3.8-18.7-10.6-25.4-6.7-6.8-15.8-10.6-25.4-10.6z m-84 164c-19.9 0-36 16.1-36 36s16.1 36 36 36h80c19.9 0 36-16.1 36-36s-16.1-36-36-36h-80z"></path></svg>