<?xml version="1.0"?><svg xmlns="http://www.w3.org/2000/svg" width="640" height="640" viewBox="0 0 640 640"><path d="m454.4 54.4c-14 14-14 36.8 0 50.8l54.8 54.8h-149.2c-45.4 0.1-89.4 15.6-124.8 44-13.5 12.9-14.8 33.9-3.2 48.5s32.5 17.8 48 7.5c22.7-18.2 50.9-28.1 80-28h157.2l-62.8 62.4c-10.1 8.8-14.4 22.6-11.2 35.6 3.1 13.1 13.3 23.3 26.4 26.4 13 3.2 26.8-1.1 35.6-11.2l145.6-145.2-145.2-145.6c-6.8-6.8-16-10.7-25.6-10.7s-18.8 3.9-25.6 10.7z m-294.4 541.6c14.6 0.1 27.9-8.6 33.5-22.2 5.6-13.5 2.5-29.1-7.9-39.4l-54.8-54.4h149.2c45.4-0.1 89.4-15.6 124.8-44 11.4-7.5 17.5-20.8 15.8-34.4-1.6-13.5-10.8-24.9-23.6-29.5-12.8-4.6-27.2-1.5-37 7.9-22.7 18.2-50.9 28.1-80 28h-157.2l62.8-62.4c9.2-9.2 12.7-22.5 9.4-35-3.4-12.5-13.1-22.2-25.6-25.6-12.5-3.3-25.8 0.2-35 9.4l-145.2 145.6 145.6 145.6c6.7 6.6 15.8 10.4 25.2 10.4z"></path></svg>