<?xml version="1.0"?><svg xmlns="http://www.w3.org/2000/svg" width="640" height="640" viewBox="0 0 640 640"><path d="m476 320h4c66.3 0 120-53.7 120-120s-53.7-120-120-120v-40h-320v40c-66.3 0-120 53.7-120 120s53.7 120 120 120h4c14.8 65.4 59.1 120.2 120 148.4v59.6h-84c-19.9 0-36 16.1-36 36s16.1 36 36 36h240c19.9 0 36-16.1 36-36s-16.1-36-36-36h-84v-60.4c60.8-27.8 105.2-82.4 120-147.6z m52-120c0 26.5-21.5 48-48 48v-96c26.5 0 48 21.5 48 48z m-416 0c0-26.5 21.5-48 48-48v96c-26.5 0-48-21.5-48-48z m120 80v-168h176v168c-2 55.4-36.5 104.5-88 125.2-51.4-20.8-85.8-69.8-88-125.2z"></path></svg>