<?xml version="1.0"?><svg xmlns="http://www.w3.org/2000/svg" width="640" height="640" viewBox="0 0 640 640"><path d="m200 528c-19.9 0-36 16.1-36 36s16.1 36 36 36h240c19.9 0 36-16.1 36-36s-16.1-36-36-36h-84v-61.2c45.3-22.3 82.2-58.4 105.6-103.2 6.8-11.7 6.5-26.3-0.9-37.7-7.4-11.4-20.6-17.6-34.1-16.2-13.5 1.5-25 10.4-29.8 23.1-17.3 31.5-44.2 56.7-76.8 72-50.6-21.6-84.7-69.9-88-124.8v-204c0-19.9-16.1-36-36-36s-36 16.1-36 36v4c-66.3 0-120 53.7-120 120s53.7 120 120 120h4c15.7 64.9 59.8 119.2 120 148v60h-84z m-88-328c0-26.5 21.5-48 48-48v96c-26.5 0-48-21.5-48-48z m513.2-185.2c-14-14-36.8-14-50.8 0l-134.4 134.4-54.4-54.8c-14.1-14.1-37.1-14.1-51.2 0s-14.1 37.1 0 51.2l105.6 105.2 185.2-185.2c14-14 14-36.8 0-50.8z"></path></svg>