<?xml version="1.0"?><svg xmlns="http://www.w3.org/2000/svg" width="640" height="640" viewBox="0 0 640 640"><path d="m625.6 14.4c-14-14-36.8-14-50.8 0l-54.8 54.8-54.4-54.8c-14.3-12.5-35.8-11.8-49.2 1.6-13.4 13.4-14.1 34.9-1.6 49.2l54.4 54.8-54.8 54.4c-10.1 8.8-14.4 22.6-11.2 35.6 3.1 13.1 13.3 23.3 26.4 26.4 13 3.2 26.8-1.1 35.6-11.2l54.8-54.4 54.4 54.4c14.3 12.5 35.8 11.8 49.2-1.6 13.4-13.4 14.1-34.9 1.6-49.2l-54.4-54.4 54.4-54.4c6.9-6.7 10.8-15.9 10.9-25.5 0.1-9.6-3.7-18.9-10.5-25.7z m-164 349.2c6.8-11.7 6.5-26.3-0.9-37.7-7.4-11.4-20.6-17.6-34.1-16.2-13.5 1.5-25 10.4-29.8 23.1-17.3 31.5-44.2 56.7-76.8 72-50.6-21.6-84.7-69.9-88-124.8v-168h88c19.9 0 36-16.1 36-36s-16.1-36-36-36h-160v40c-66.3 0-120 53.7-120 120s53.7 120 120 120h4c15.7 64.9 59.8 119.2 120 148v60h-84c-19.9 0-36 16.1-36 36s16.1 36 36 36h240c19.9 0 36-16.1 36-36s-16.1-36-36-36h-84v-61.2c45.3-22.3 82.2-58.4 105.6-103.2z m-349.6-163.6c0-26.5 21.5-48 48-48v96c-26.5 0-48-21.5-48-48z"></path></svg>