<?xml version="1.0"?><svg xmlns="http://www.w3.org/2000/svg" width="640" height="640" viewBox="0 0 640 640"><path d="m65.6 265.6l74.4-74.8 74.4 74.8c9.2 9.2 22.5 12.7 35 9.4 12.5-3.4 22.2-13.1 25.6-25.6 3.3-12.5-0.2-25.8-9.4-35l-74.8-74.4 74.8-74.4c14.1-14.1 14.1-37.1 0-51.2s-37.1-14.1-51.2 0l-74.4 74.8-74.4-74.8c-14.1-14.1-37.1-14.1-51.2 0s-14.1 37.1 0 51.2l74.8 74.4-74.8 74.4c-14.1 14.1-14.1 37.1 0 51.2s37.1 14.1 51.2 0z m418.4-65.6h-44v-4c-2.2-64.7-55.2-116-120-116-19.9 0-36 16.1-36 36s16.1 36 36 36c25-0.1 45.9 19.1 48 44v164c0 19.9 16.1 36 36 36s36-16.1 36-36v-88h40v88h48v88h-416v-88c0-19.9-16.1-36-36-36s-36 16.1-36 36v160h80c0 44.2 35.8 80 80 80s80-35.8 80-80h80c0 44.2 35.8 80 80 80s80-35.8 80-80h80v-204c0-64.1-51.9-116-116-116z"></path></svg>