<?xml version="1.0"?><svg xmlns="http://www.w3.org/2000/svg" width="640" height="640" viewBox="0 0 640 640"><path d="m308.4 68.4c10.2-10.2 14.1-24.9 10.4-38.8-3.7-13.8-14.6-24.7-28.4-28.4-13.9-3.7-28.6 0.2-38.8 10.4l-131.6 132-51.6-52c-15.7-15.7-41.1-15.7-56.8 0-15.7 15.7-15.7 41.1 0 56.8l108.4 108 188.4-188z m179.6 131.6h-44v-4c-0.1-18.6-5-36.9-14-53.2-12.3-22.5-31.5-40.4-54.8-51.2-17.8-7.4-38.3 0.5-46.5 18-8.1 17.5-1.1 38.3 16.1 47.2 9.4 4.3 17.3 11.4 22.4 20.4 3.1 5.8 4.8 12.2 4.8 18.8v164c0 19.9 16.1 36 36 36s36-16.1 36-36v-88h40v88h48v88h-416v-128c0-19.9-16.1-36-36-36s-36 16.1-36 36v200h80c0 44.2 35.8 80 80 80s80-35.8 80-80h80c0 44.2 35.8 80 80 80s80-35.8 80-80h80v-204c0-64.1-51.9-116-116-116z"></path></svg>