<?xml version="1.0"?><svg xmlns="http://www.w3.org/2000/svg" width="640" height="640" viewBox="0 0 640 640"><path d="m535.6 200h-37.2c4.9-29.3-3.2-59.3-22.4-82-20.7-24.4-51.2-38.3-83.2-38-19.9 0-36 16.1-36 36s16.1 36 36 36c10.8-0.4 21.2 4 28.4 12 6 7.1 8.3 16.5 6.4 25.6l-7.2 40-20.4 124c-2.4 19 10.4 36.6 29.2 40h4.8c17.5 0.1 32.5-12.4 35.6-29.6l16.4-92h44l-14 88h40l-15.6 88h-413.6l14.4-80c2.6-12.6-1.8-25.7-11.5-34.2-9.6-8.6-23.2-11.4-35.4-7.2-12.2 4-21.3 14.4-23.9 27l-30.4 166.4h80c-4.6 19.8 0.2 40.6 13.2 56.4 13 15.6 32.5 24.4 52.8 23.6 46.1-1.7 85-34.8 94-80h80c-4.6 19.8 0.2 40.6 13.2 56.4 13 15.6 32.5 24.4 52.8 23.6 46.1-1.7 85-34.8 94-80h80l34.8-197.6c5.9-30.6-2-62.2-21.6-86.4-19.4-22.7-47.8-35.8-77.6-36z m-455.6-40h180c22.1 0 40-17.9 40-40s-17.9-40-40-40h-180c-22.1 0-40 17.9-40 40s17.9 40 40 40z m0 120h80c22.1 0 40-17.9 40-40s-17.9-40-40-40h-80c-22.1 0-40 17.9-40 40s17.9 40 40 40z"></path></svg>