<?xml version="1.0"?><svg xmlns="http://www.w3.org/2000/svg" width="640" height="640" viewBox="0 0 640 640"><path d="m276 383.2c6-10.1 6-22.7 0-32.8l-98-150.4 96.8-150.8c6.3-9.8 6.7-22.3 1.1-32.5-5.6-10.2-16.3-16.6-27.9-16.7h-216c-11.6 0.1-22.4 6.5-27.9 16.7-5.6 10.2-5.2 22.7 1.1 32.5l96.8 150.8-96.8 150.8c-6.3 9.8-6.7 22.3-1.1 32.5 5.6 10.2 16.3 16.6 27.9 16.7h216c11.7 0 22.4-6.5 28-16.8z m-185.6-320h98.8l-49.2 77.6-49.6-77.6z m397.6 136.8h-44v-4c-1.7-50.9-35.4-95.2-84-110.4-18.4-4.6-37.2 5.8-43.1 23.9-5.8 18.1 3.4 37.6 21.1 44.5 18.4 5.1 31.8 21 33.6 40v166c0 19.9 16.1 36 36 36s36-16.1 36-36v-88h40v88h48v88h-451.6c-19.9 0-36 16.1-36 36s16.1 36 36 36h40c0 44.2 35.8 80 80 80s80-35.8 80-80h84c0 44.2 35.8 80 80 80s80-35.8 80-80h80v-204c0-64.1-51.9-116-116-116z"></path></svg>