<?xml version="1.0"?><svg xmlns="http://www.w3.org/2000/svg" width="640" height="640" viewBox="0 0 640 640"><path d="m280 110.4v89.6h89.6c41.2-5.3 71.4-41.3 69.7-82.8-1.8-41.4-35.1-74.7-76.5-76.5-41.6-1.7-77.5 28.5-82.8 69.7z m96 9.6c0 8.8-7.2 16-16 16h-16v-16c0-8.8 7.2-16 16-16 8.8 0 16 7.2 16 16z m108 80h-80c-9.6 0-18.7 3.8-25.4 10.6-6.8 6.7-10.6 15.8-10.6 25.4v124c0 19.9 16.1 36 36 36s36-16.1 36-36v-88h40v88h48v88h-248v-328c0-22.1-17.9-40-40-40s-40 17.9-40 40v-33.6c-7.6-50.9-52.4-87.7-103.8-85.2-51.4 2.5-92.4 43.6-95 95-2.5 51.4 34.3 96.2 85.2 103.8h113.6v248h-88v-168c0-19.9-16.1-36-36-36s-36 16.1-36 36v240h80c0 44.2 35.8 80 80 80s80-35.8 80-80h80c0 44.2 35.8 80 80 80s80-35.8 80-80h80v-204c0-64.1-51.9-116-116-116z m-348-64h-36c-19.9 0-36-16.1-36-36s16.1-36 36-36 36 16.1 36 36v36z"></path></svg>