<?xml version="1.0"?><svg xmlns="http://www.w3.org/2000/svg" width="640" height="640" viewBox="0 0 640 640"><path d="m99.6 514.8l242.4-162.8c11.7-6.5 19-18.8 19-32.2 0-13.4-7.3-25.7-19-32.2l-242.4-162.4c-12-6.8-26.7-6.9-38.8-0.3-12.1 6.6-20 18.9-20.8 32.7v324.8c0.8 13.8 8.7 26.1 20.8 32.7 12.1 6.6 26.8 6.5 38.8-0.3z m417.6-191.6l-179.6 120c-12.8 7.6-20.3 21.5-19.6 36.3 0.7 14.8 9.5 28 23 34.3 13.4 6.3 29.2 4.7 41-4.2l178.8-120c24.5-13.3 39.9-38.9 40-66.8 0.2-26.7-13.8-51.6-36.8-65.2l-191.2-127.6c-11.8-8.9-27.6-10.5-41-4.2-13.5 6.3-22.3 19.5-23 34.3-0.7 14.8 6.8 28.8 19.6 36.3l188.8 126.8z"></path></svg>