<?xml version="1.0"?><svg xmlns="http://www.w3.org/2000/svg" width="640" height="640" viewBox="0 0 640 640"><path d="m300 556c0-22.1-17.9-40-40-40h-80c-22.1 0-40 17.9-40 40s17.9 40 40 40h80c22.1 0 40-17.9 40-40z m180 44c22.1 0 40-17.9 40-40v-40h40c22.1 0 40-17.9 40-40s-17.9-40-40-40h-40v-40c0-22.1-17.9-40-40-40s-40 17.9-40 40v40h-40c-22.1 0-40 17.9-40 40s17.9 40 40 40h40v40c0 22.1 17.9 40 40 40z m120-504c0-14.8-5.9-29.1-16.4-39.6s-24.8-16.4-39.6-16.4h-128c-30.9 0-56 25.1-56 56v144c2.6 12-0.5 24.4-8.3 33.9-7.8 9.4-19.5 14.8-31.7 14.5-12.2 0.3-23.9-5.1-31.7-14.5-7.8-9.5-10.8-21.9-8.3-33.9v-144c0-30.9-25.1-56-56-56h-128c-30.9 0-56 25.1-56 56v98.8c0 34.5 6.5 68.7 19.2 100.8l43.6 111.2c17.3 44.3 60.1 73.3 107.6 73.2h69.6c19.9 0 36-16.1 36-36s-16.1-36-36-36h-69.6c-17.8-0.3-33.6-11.4-40-28l-44.4-110.8c-3.5-9.5-6.3-19.3-8.4-29.2h90.4c-3.6 42.3 17 83 53.1 105.2s81.7 22.2 117.8 0 56.7-62.9 53.1-105.2h90.4c-2.1 9.9-4.9 19.7-8.4 29.2-4.7 12-2.7 25.6 5.4 35.7 8 10.1 20.8 15.1 33.6 13.2 12.8-1.9 23.5-10.5 28.2-22.5 12.5-32.1 18.9-66.3 18.8-100.8v-98.8z m-488 72v-56h96v56h-96z m320-56h96v56h-96v-56z"></path></svg>