<?xml version="1.0"?><svg xmlns="http://www.w3.org/2000/svg" width="640" height="640" viewBox="0 0 640 640"><path d="m180 516c-22.1 0-40 17.9-40 40s17.9 40 40 40h80c22.1 0 40-17.9 40-40s-17.9-40-40-40h-80z m-77.6-109.6c17.2 44.6 60.2 73.8 108 73.6h29.6c19.9 0 36-16.1 36-36s-16.1-36-36-36h-29.6c-17.8-0.3-33.6-11.4-40-28l-44.4-110.8c-3.5-9.5-6.3-19.3-8.4-29.2h90.4c-3.6 42.3 17 83 53.1 105.2s81.7 22.2 117.8 0 56.7-62.9 53.1-105.2h92.4c-0.2 17 11.7 31.8 28.4 35.2 19.4 3.7 38.2-9 42-28.4 3.4-17.1 5.1-34.6 5.2-52v-98.8c0-14.8-5.9-29.1-16.4-39.6s-24.8-16.4-39.6-16.4h-128c-30.9 0-56 25.1-56 56v144c2.6 12-0.5 24.4-8.3 33.9-7.8 9.4-19.5 14.8-31.7 14.5-12.2 0.3-23.9-5.1-31.7-14.5-7.8-9.5-10.8-21.9-8.3-33.9v-144c0-30.9-25.1-56-56-56h-128c-30.9 0-56 25.1-56 56v98.8c0 34.5 6.5 68.7 19.2 100.8l43.2 110.8z m425.6-294.4v56h-96v-56h96z m-320 0v56h-96v-56h96z m363.6 219.6l-131.6 132-51.6-52c-15.9-13.6-39.5-12.7-54.3 2.1-14.8 14.8-15.7 38.4-2.1 54.3l108 108.4 188.4-188.4c10.1-10.2 14-24.9 10.2-38.7-3.7-13.8-14.6-24.5-28.4-28.2-13.8-3.7-28.5 0.3-38.6 10.5z"></path></svg>