<?xml version="1.0"?><svg xmlns="http://www.w3.org/2000/svg" width="640" height="640" viewBox="0 0 640 640"><path d="m280 556c0-22.1-17.9-40-40-40h-40c-22.1 0-40 17.9-40 40s17.9 40 40 40h40c22.1 0 40-17.9 40-40z m160 40c22.1 0 40-17.9 40-40s-17.9-40-40-40h-40c-22.1 0-40 17.9-40 40s17.9 40 40 40h40z m-337.6-189.6c17.2 44.6 60.2 73.8 108 73.6h218.8c47.8 0.2 90.8-29 108-73.6l43.6-110.8c12.7-32.1 19.2-66.3 19.2-100.8v-98.8c0-30.9-25.1-56-56-56h-128c-30.9 0-56 25.1-56 56v104c2.6 12-0.5 24.4-8.3 33.9-7.8 9.4-19.5 14.8-31.7 14.5-12.2 0.3-23.9-5.1-31.7-14.5-7.8-9.5-10.8-21.9-8.3-33.9v-104c0-30.9-25.1-56-56-56h-128c-30.9 0-56 25.1-56 56v98.8c0 34.5 6.5 68.7 19.2 100.8l43.2 110.8z m425.6-294.4v56h-96v-56h96z m-208 208c49.4 0.2 92.9-32.5 106.4-80h96.4c-2.1 9.9-4.9 19.7-8.4 29.2l-44 110.8c-6.6 16.5-22.3 27.5-40 28h-70.4c0-22.1-17.9-40-40-40s-40 17.9-40 40h-69.6c-17.7-0.5-33.4-11.5-40-28l-44.4-110.8c-3.5-9.5-6.4-19.3-8.4-29.2h96.4c13.2 47.6 56.6 80.4 106 80z m-112-208v56h-96v-56h96z"></path></svg>