<?xml version="1.0" encoding="UTF-8"?>
<svg width="24px" height="24px" viewBox="0 0 24 24" version="1.1" xmlns="http://www.w3.org/2000/svg" xmlns:xlink="http://www.w3.org/1999/xlink">
    <!-- Generator: sketchtool 44.1 (41455) - http://www.bohemiancoding.com/sketch -->
    <title>add-favourite</title>
    <desc>Created with sketchtool.</desc>
    <defs></defs>
    <g id="Page-1" stroke="none" stroke-width="1" fill="none" fill-rule="evenodd">
        <g id="add-favourite" fill="#000000">
            <path d="M20.3058563,5.97413793 L17.6339813,5.97413793 C17.5871063,5.97413793 17.5402313,5.92672414 17.5402313,5.87931034 L17.5402313,5.21551724 C17.5402313,5.16810345 17.5871063,5.12068966 17.6339813,5.12068966 L20.3058563,5.12068966 L20.3058563,2.37068966 C20.3058563,2.32327586 20.3527313,2.27586207 20.4464813,2.27586207 L21.1027313,2.27586207 C21.1496063,2.27586207 21.1964813,2.32327586 21.1964813,2.37068966 L21.1964813,5.12068966 L23.8683563,5.12068966 C23.9621063,5.12068966 24.0089813,5.16810345 24.0089813,5.21551724 L24.0089813,5.87931034 C24.0089813,5.92672414 23.9621063,5.97413793 23.8683563,5.97413793 L21.1964813,5.97413793 L21.1964813,8.67672414 C21.1964813,8.72413793 21.1496063,8.77155172 21.1027313,8.77155172 L20.4464813,8.77155172 C20.3527313,8.77155172 20.3058563,8.72413793 20.3058563,8.67672414 L20.3058563,5.97413793 Z M19.2277313,11.7112069 C19.2746063,12.2801724 19.1808563,12.9913793 18.9464813,13.8448276 C18.7121063,14.6982759 18.2433563,15.6465517 17.6339813,16.737069 C17.0246063,17.8275862 15.9933563,18.8706897 14.6339813,19.8663793 C13.2277313,20.862069 11.5871063,21.5732759 9.66523133,22 C7.74335633,21.5732759 6.05585633,20.862069 4.69648133,19.8663793 C3.29023133,18.8706897 2.25898133,17.8275862 1.64960633,16.737069 C1.04023133,15.6465517 0.57148133,14.6982759 0.33710633,13.8448276 C0.10273133,12.9913793 -0.03789367,12.2801724 0.00898133004,11.7112069 C0.05585633,11.1422414 0.14960633,10.6206897 0.29023133,10.0991379 C0.43085633,9.57758621 0.61835633,9.05603448 0.94648133,8.43965517 C1.27460633,7.82327586 1.74335633,7.34913793 2.39960633,7.01724138 C3.00898133,6.68534483 3.80585633,6.49568966 4.69648133,6.49568966 C5.58710633,6.49568966 6.33710633,6.63793103 6.94648133,6.92241379 C7.55585633,7.25431034 8.02460633,7.5387931 8.25898133,7.82327586 C8.49335633,8.15517241 8.68085633,8.53448276 8.91523133,8.9612069 C9.14960633,9.38793103 9.24335633,9.625 9.29023133,9.67241379 C9.43085633,9.81465517 9.57148133,9.90948276 9.66523133,9.90948276 C9.80585633,9.90948276 9.89960633,9.81465517 9.99335633,9.67241379 C9.99335633,9.625 10.1339813,9.38793103 10.3683563,8.9137931 C10.6027313,8.48706897 10.7902313,8.10775862 11.0246063,7.82327586 C11.2589813,7.5387931 11.6808563,7.25431034 12.3371063,6.92241379 C12.9464813,6.63793103 13.6964813,6.49568966 14.5871063,6.49568966 C15.4777313,6.49568966 16.2746063,6.68534483 16.9308563,7.01724138 C17.5402313,7.34913793 18.0089813,7.82327586 18.3371063,8.39224138 C18.6652313,9.00862069 18.8527313,9.53017241 18.9933563,10.0517241 C19.1339813,10.5732759 19.1808563,11.1422414 19.2277313,11.7112069 Z" id="Page-1"></path>
        </g>
    </g>
</svg>