<?xml version="1.0" encoding="UTF-8"?>
<svg width="24px" height="24px" viewBox="0 0 24 24" version="1.1" xmlns="http://www.w3.org/2000/svg" xmlns:xlink="http://www.w3.org/1999/xlink">
    <!-- Generator: Sketch 48.1 (47250) - http://www.bohemiancoding.com/sketch -->
    <title>add-cart</title>
    <desc>Created with Sketch.</desc>
    <defs></defs>
    <g id="Page-1" stroke="none" stroke-width="1" fill="none" fill-rule="evenodd">
        <g id="add-cart" fill="#000000">
            <path d="M20.859375,9.41538462 C20.90625,9.41538462 20.953125,9.36923077 20.953125,9.27692308 L20.953125,2.67692308 C20.953125,2.63076923 20.90625,2.58461538 20.859375,2.58461538 L20.15625,2.58461538 C20.109375,2.58461538 20.0625,2.63076923 20.0625,2.67692308 L20.0625,9.27692308 C20.0625,9.36923077 20.109375,9.41538462 20.15625,9.41538462 L20.859375,9.41538462 Z M24,5.63076923 C24,5.58461538 23.953125,5.58461538 23.90625,5.53846154 L17.15625,5.53846154 C17.109375,5.53846154 17.0625,5.58461538 17.0625,5.63076923 L17.0625,6.32307692 C17.0625,6.36923077 17.109375,6.41538462 17.15625,6.41538462 L23.90625,6.41538462 C23.953125,6.41538462 24,6.36923077 24,6.32307692 L24,5.63076923 Z M16.3125,18.3230769 C16.546875,18.3230769 16.734375,18.2307692 16.875,18.0923077 C17.015625,17.9538462 17.0625,17.7692308 17.0625,17.5384615 C17.0625,17.3538462 17.015625,17.1692308 16.875,17.0307692 C16.734375,16.8923077 16.546875,16.8 16.3125,16.8 L6.421875,16.8 C6.140625,16.8 5.90625,16.7076923 5.71875,16.4769231 C5.484375,16.2923077 5.390625,16.0615385 5.390625,15.7846154 C5.390625,15.5076923 5.484375,15.2769231 5.71875,15.0461538 C5.90625,14.8615385 6.140625,14.7692308 6.421875,14.7692308 L16.40625,14.7692308 C16.828125,14.7692308 17.0625,14.6307692 17.109375,14.3538462 L18.703125,8.12307692 C18.703125,7.98461538 18.65625,7.89230769 18.609375,7.8 C18.515625,7.75384615 18.46875,7.70769231 18.421875,7.70769231 C18.375,7.70769231 18.328125,7.70769231 18.28125,7.70769231 L3.703125,7.70769231 L3.28125,5.53846154 C3.1875,5.21538462 2.953125,5.03076923 2.625,5.03076923 L0.9375,5.03076923 L0.75,5.03076923 C0.515625,5.03076923 0.375,5.12307692 0.234375,5.26153846 C0.09375,5.4 0,5.58461538 0,5.81538462 C0,6 0.09375,6.18461538 0.234375,6.32307692 C0.375,6.46153846 0.515625,6.55384615 0.75,6.55384615 L2.0625,6.55384615 L3.984375,17.7692308 C4.078125,18.1384615 4.3125,18.3230769 4.734375,18.3230769 L5.25,18.3230769 L16.3125,18.3230769 Z M7.40625,19.6153846 C7.40625,19.2 7.265625,18.8769231 7.03125,18.6 C6.75,18.3692308 6.421875,18.2307692 6,18.2307692 C5.625,18.2307692 5.296875,18.3692308 5.015625,18.6 C4.734375,18.8769231 4.59375,19.2 4.59375,19.6153846 C4.59375,19.9846154 4.734375,20.3076923 5.015625,20.5846154 C5.296875,20.8615385 5.625,21 6,21 C6.421875,21 6.75,20.8615385 7.03125,20.5846154 C7.265625,20.3076923 7.40625,19.9846154 7.40625,19.6153846 Z M16.359375,19.6153846 C16.359375,19.2 16.21875,18.8769231 15.9375,18.6 C15.65625,18.3692308 15.328125,18.2307692 14.953125,18.2307692 C14.53125,18.2307692 14.203125,18.3692308 13.96875,18.6 C13.6875,18.8769231 13.546875,19.2 13.546875,19.6153846 C13.546875,19.9846154 13.6875,20.3076923 13.96875,20.5846154 C14.203125,20.8615385 14.53125,21 14.953125,21 C15.328125,21 15.65625,20.8615385 15.9375,20.5846154 C16.21875,20.3076923 16.359375,19.9846154 16.359375,19.6153846 Z" id="Page-1"></path>
        </g>
    </g>
</svg>