<?xml version="1.0" encoding="UTF-8"?>
<svg width="24px" height="24px" viewBox="0 0 24 24" version="1.1" xmlns="http://www.w3.org/2000/svg" xmlns:xlink="http://www.w3.org/1999/xlink">
    <!-- Generator: Sketch 48.1 (47250) - http://www.bohemiancoding.com/sketch -->
    <title>add-watchlist</title>
    <desc>Created with Sketch.</desc>
    <defs></defs>
    <g id="Page-1" stroke="none" stroke-width="1" fill="none" fill-rule="evenodd">
        <g id="add-watchlist" fill="#000000">
            <path d="M19.9138943,5.11632653 L16.9080235,5.11632653 C16.8610568,5.11632653 16.81409,5.06938776 16.81409,5.02244898 L16.81409,4.27142857 C16.81409,4.2244898 16.8610568,4.17755102 16.9080235,4.17755102 L19.9138943,4.17755102 L19.9138943,1.17346939 C19.9138943,1.07959184 19.9608611,1.03265306 20.0547945,1.03265306 L20.7592955,1.03265306 C20.853229,1.03265306 20.9001957,1.07959184 20.9001957,1.17346939 L20.9001957,4.17755102 L23.9530333,4.17755102 C24,4.2244898 24.0469667,4.2244898 24.0469667,4.27142857 L24.0469667,5.02244898 C24.0469667,5.06938776 24,5.11632653 23.9530333,5.11632653 L20.9001957,5.11632653 L20.9001957,8.16734694 C20.9001957,8.26122449 20.853229,8.30816327 20.7592955,8.30816327 L20.0547945,8.30816327 C19.9608611,8.30816327 19.9138943,8.26122449 19.9138943,8.16734694 L19.9138943,5.11632653 Z M0.798434442,9.85714286 C0.563600783,9.85714286 0.375733855,9.76326531 0.234833659,9.62244898 C0.0939334638,9.48163265 0,9.29387755 0,9.05918367 L0,7.2755102 C0,7.04081633 0.0939334638,6.85306122 0.234833659,6.7122449 C0.375733855,6.57142857 0.563600783,6.47755102 0.798434442,6.47755102 L5.87084149,6.47755102 C6.10567515,6.47755102 6.29354207,6.57142857 6.43444227,6.7122449 C6.57534247,6.85306122 6.66927593,7.04081633 6.66927593,7.2755102 L6.66927593,9.05918367 C6.66927593,9.29387755 6.57534247,9.48163265 6.43444227,9.62244898 C6.29354207,9.76326531 6.10567515,9.85714286 5.87084149,9.85714286 L0.798434442,9.85714286 Z M12.7749511,9.85714286 C12.5401174,9.85714286 12.3522505,9.76326531 12.2113503,9.62244898 C12.0234834,9.48163265 11.9295499,9.29387755 11.9295499,9.05918367 L11.9295499,7.2755102 C11.9295499,7.04081633 12.0234834,6.85306122 12.2113503,6.7122449 C12.3522505,6.57142857 12.5401174,6.47755102 12.7749511,6.47755102 L17.8003914,6.47755102 C18.035225,6.47755102 18.223092,6.57142857 18.3639922,6.7122449 C18.5048924,6.85306122 18.5988258,7.04081633 18.5988258,7.2755102 L18.5988258,9.05918367 C18.5988258,9.29387755 18.5048924,9.48163265 18.3639922,9.62244898 C18.223092,9.76326531 18.035225,9.85714286 17.8003914,9.85714286 L12.7749511,9.85714286 Z M7.32681018,21.1693878 C7.70254403,21.1693878 7.89041096,21.3571429 7.89041096,21.7326531 L7.89041096,22.4367347 C7.89041096,22.8122449 7.70254403,23 7.32681018,23 L4.03913894,23 C3.66340509,23 3.47553816,22.8122449 3.47553816,22.4367347 L3.47553816,21.7326531 C3.47553816,21.3571429 3.66340509,21.1693878 4.03913894,21.1693878 L7.32681018,21.1693878 Z M14.5596869,21.1693878 C14.9354207,21.1693878 15.1232877,21.3571429 15.1232877,21.7326531 L15.1232877,22.4367347 C15.1232877,22.8122449 14.9354207,23 14.5596869,23 L11.3189824,23 C10.9432485,23 10.7553816,22.8122449 10.7553816,22.4367347 L10.7553816,21.7326531 C10.7553816,21.3571429 10.9432485,21.1693878 11.3189824,21.1693878 L14.5596869,21.1693878 Z M6.85714286,11.5938776 C6.85714286,12.1571429 7.04500978,12.5795918 7.37377691,12.9081633 C7.70254403,13.2367347 7.98434442,13.377551 8.21917808,13.4244898 C8.40704501,13.4714286 8.54794521,13.4714286 8.6888454,13.4714286 L8.6888454,19.6673469 C8.6888454,20.0897959 8.45401174,20.277551 7.93737769,20.3244898 L3.09980431,20.3244898 C2.44227006,20.3244898 1.87866928,19.9489796 1.40900196,19.1510204 C0.939334638,18.3530612 0.610567515,17.3673469 0.469667319,16.1938776 C0.281800391,15.0204082 0.187866928,14.0816327 0.140900196,13.377551 C0.0939334638,12.6734694 0.0469667319,12.1102041 0.0469667319,11.6877551 C0.0469667319,11.077551 0.281800391,10.7959184 0.798434442,10.7959184 L6.34050881,10.7959184 C6.76320939,10.7959184 6.90410959,11.077551 6.85714286,11.5938776 Z M18.035225,10.7959184 C18.1761252,10.8428571 18.2700587,10.9367347 18.4109589,11.077551 C18.5518591,11.2183673 18.5988258,11.4530612 18.5988258,11.7346939 C18.5988258,12.2040816 18.5988258,12.7673469 18.5518591,13.4244898 C18.5048924,14.1285714 18.3639922,15.0673469 18.223092,16.2408163 C18.035225,17.4142857 17.7064579,18.4 17.2837573,19.1979592 C16.81409,19.9959184 16.2504892,20.3714286 15.5459883,20.3714286 L10.7084149,20.3714286 L10.5205479,20.3714286 C10.3796477,20.3244898 10.2857143,20.277551 10.1448141,20.1367347 C10.0039139,20.0428571 9.95694716,19.9020408 9.95694716,19.7142857 L9.95694716,13.5183673 L10.3796477,13.4714286 C10.7084149,13.4244898 10.9902153,13.2367347 11.3189824,12.9081633 C11.6477495,12.5795918 11.7886497,12.1571429 11.7886497,11.5938776 L11.7886497,11.3591837 C11.7886497,11.2183673 11.8356164,11.1244898 11.9295499,10.9836735 C11.9765166,10.8428571 12.1174168,10.7959184 12.3052838,10.7959184 L17.8473581,10.7959184 L18.035225,10.7959184 Z" id="Page-1"></path>
        </g>
    </g>
</svg>