<?xml version="1.0" encoding="UTF-8"?>
<svg width="24px" height="24px" viewBox="0 0 24 24" version="1.1" xmlns="http://www.w3.org/2000/svg" xmlns:xlink="http://www.w3.org/1999/xlink">
    <!-- Generator: sketchtool 44.1 (41455) - http://www.bohemiancoding.com/sketch -->
    <title>address-verified</title>
    <desc>Created with sketchtool.</desc>
    <defs></defs>
    <g id="Page-1" stroke="none" stroke-width="1" fill="none" fill-rule="evenodd">
        <g id="address-verified" fill="#000000">
            <path d="M9.07602339,11.6451613 L9.68421053,13.3963134 L8.42105263,13.3963134 L9.07602339,11.6451613 Z M22.4561404,15.7926267 C22.877193,15.8387097 23.251462,16.0230415 23.5789474,16.2995392 C23.8596491,16.6221198 24,16.9907834 24,17.40553 C24,17.8202765 23.8596491,18.1889401 23.5789474,18.4654378 C23.251462,18.7880184 22.877193,18.9723502 22.4561404,19.0184332 L22.4561404,19.0645161 L22.4561404,19.156682 L22.4561404,19.3870968 C22.4561404,19.8479263 22.3157895,20.2165899 21.9883041,20.5391705 C21.6608187,20.8617512 21.2865497,21 20.8187135,21 C20.3976608,21 20.0701754,20.8617512 19.7426901,20.5852535 C19.4152047,20.3548387 19.2280702,20.0322581 19.1812865,19.6175115 L18.0116959,19.6175115 C17.9649123,20.0322581 17.7777778,20.3548387 17.4502924,20.5852535 C17.122807,20.8617512 16.7953216,21 16.374269,21 C15.9532164,21 15.625731,20.8617512 15.2982456,20.5852535 C14.9707602,20.3548387 14.7836257,20.0322581 14.7368421,19.6175115 L13.5672515,19.6175115 C13.5204678,20.0322581 13.3333333,20.3548387 13.005848,20.5852535 C12.6783626,20.8617512 12.3508772,21 11.9298246,21 C11.5087719,21 11.1812865,20.8617512 10.8538012,20.5852535 C10.5263158,20.3548387 10.3391813,20.0322581 10.2923977,19.6175115 L9.12280702,19.6175115 C9.07602339,20.0322581 8.88888889,20.3548387 8.56140351,20.5852535 C8.23391813,20.8617512 7.90643275,21 7.48538012,21 C7.06432749,21 6.73684211,20.8617512 6.40935673,20.5852535 C6.08187135,20.3548387 5.89473684,20.0322581 5.84795322,19.6175115 L4.7251462,19.6175115 C4.67836257,20.0322581 4.49122807,20.3548387 4.16374269,20.5852535 C3.83625731,20.8617512 3.50877193,21 3.0877193,21 C2.61988304,21 2.24561404,20.8617512 1.91812865,20.5391705 C1.59064327,20.2165899 1.4502924,19.8479263 1.4502924,19.3870968 C1.4502924,19.202765 1.4502924,19.0645161 1.49707602,18.9723502 C1.07602339,18.9262673 0.701754386,18.7419355 0.421052632,18.4193548 C0.140350877,18.0967742 0,17.7741935 0,17.359447 C0,16.9447005 0.140350877,16.6221198 0.467836257,16.2995392 C0.748538012,15.9769585 1.07602339,15.7926267 1.49707602,15.7465438 L1.49707602,14.3640553 C1.07602339,14.3179724 0.748538012,14.1336406 0.467836257,13.8110599 C0.140350877,13.5345622 0,13.1658986 0,12.7511521 C0,12.3364055 0.140350877,11.9677419 0.467836257,11.6451613 C0.748538012,11.3686636 1.07602339,11.1843318 1.49707602,11.1382488 L1.49707602,9.84792627 C1.07602339,9.80184332 0.748538012,9.61751152 0.467836257,9.29493088 C0.140350877,8.97235023 0,8.64976959 0,8.23502304 C0,7.8202765 0.140350877,7.49769585 0.467836257,7.17511521 C0.748538012,6.85253456 1.07602339,6.66820276 1.4502924,6.62211982 C1.40350877,6.43778802 1.35672515,6.29953917 1.35672515,6.20737327 C1.35672515,5.74654378 1.49707602,5.37788018 1.8245614,5.05529954 C2.15204678,4.73271889 2.52631579,4.59447005 2.99415205,4.59447005 C3.92982456,4.59447005 4.49122807,5.05529954 4.63157895,5.93087558 L5.80116959,5.93087558 C5.94152047,5.05529954 6.50292398,4.59447005 7.43859649,4.59447005 C8.37426901,4.59447005 8.93567251,5.05529954 9.07602339,5.93087558 L10.1988304,5.93087558 C10.4327485,5.05529954 10.9473684,4.59447005 11.8362573,4.59447005 C12.2573099,4.59447005 12.6315789,4.73271889 12.9590643,4.96313364 C13.2865497,5.19354839 13.4269006,5.51612903 13.4736842,5.93087558 L14.6432749,5.93087558 C14.877193,5.05529954 15.3918129,4.59447005 16.2807018,4.59447005 C16.7017544,4.59447005 17.0760234,4.73271889 17.4035088,4.96313364 C17.7309942,5.19354839 17.871345,5.51612903 17.9181287,5.93087558 L19.1812865,5.93087558 C19.2280702,5.51612903 19.4152047,5.19354839 19.7426901,4.96313364 C20.0701754,4.73271889 20.3976608,4.59447005 20.8187135,4.59447005 C21.2397661,4.59447005 21.6608187,4.73271889 21.9883041,5.05529954 C22.3157895,5.37788018 22.4561404,5.74654378 22.4561404,6.20737327 L22.4561404,6.39170507 L22.4561404,6.48387097 L22.4561404,6.62211982 C22.877193,6.66820276 23.2046784,6.85253456 23.5321637,7.12903226 C23.8128655,7.4516129 23.9532164,7.8202765 23.9532164,8.23502304 C23.9532164,8.64976959 23.8128655,9.01843318 23.5321637,9.29493088 C23.2046784,9.61751152 22.877193,9.80184332 22.4561404,9.84792627 L22.4561404,11.1382488 C22.877193,11.1843318 23.2046784,11.3686636 23.5321637,11.6451613 C23.8128655,11.9677419 23.9532164,12.3364055 23.9532164,12.7511521 C23.9532164,13.1658986 23.8128655,13.5345622 23.5321637,13.8571429 C23.2046784,14.1797235 22.877193,14.3179724 22.4561404,14.3640553 L22.4561404,15.7926267 Z M12.7719298,16.2073733 C12.8187135,16.1612903 12.8187135,16.1152074 12.8187135,16.0230415 L10.1988304,9.43317972 C10.1988304,9.34101382 10.1520468,9.29493088 10.0116959,9.29493088 L8.28070175,9.29493088 C8.14035088,9.29493088 8.04678363,9.34101382 8.04678363,9.43317972 L5.38011696,16.0230415 C5.33333333,16.0691244 5.38011696,16.1612903 5.42690058,16.2073733 C5.47368421,16.2534562 5.56725146,16.2995392 5.61403509,16.2995392 L7.20467836,16.2995392 C7.34502924,16.2995392 7.39181287,16.2534562 7.39181287,16.1612903 L7.8128655,14.9170507 L10.245614,14.9170507 L10.7134503,16.1612903 C10.8070175,16.2534562 10.8538012,16.2995392 10.9005848,16.2995392 L12.5847953,16.2995392 C12.6315789,16.2995392 12.7251462,16.2534562 12.7719298,16.2073733 Z M18.994152,9.57142857 C19.0409357,9.47926267 19.0409357,9.43317972 18.994152,9.38709677 C18.9473684,9.34101382 18.8538012,9.29493088 18.8070175,9.29493088 L17.1695906,9.29493088 C17.0292398,9.29493088 16.9824561,9.34101382 16.9824561,9.43317972 L15.5789474,13.764977 L14.1754386,9.43317972 C14.0818713,9.34101382 14.0350877,9.29493088 13.9883041,9.29493088 L12.3040936,9.29493088 C12.1637427,9.29493088 12.1169591,9.34101382 12.1169591,9.38709677 C12.0701754,9.43317972 12.0701754,9.47926267 12.0701754,9.57142857 L14.5497076,16.1612903 C14.5964912,16.2534562 14.6432749,16.2995392 14.7836257,16.2995392 L16.2339181,16.2995392 C16.374269,16.2995392 16.4678363,16.2534562 16.4678363,16.1612903 L18.994152,9.57142857 Z" id="Page-1"></path>
        </g>
    </g>
</svg>