<?xml version="1.0" encoding="UTF-8"?>
<svg width="24px" height="24px" viewBox="0 0 24 24" version="1.1" xmlns="http://www.w3.org/2000/svg" xmlns:xlink="http://www.w3.org/1999/xlink">
    <!-- Generator: Sketch 48.1 (47250) - http://www.bohemiancoding.com/sketch -->
    <title>admin-view</title>
    <desc>Created with Sketch.</desc>
    <defs></defs>
    <g id="Page-1" stroke="none" stroke-width="1" fill="none" fill-rule="evenodd">
        <g id="admin-view" fill="#000000">
            <path d="M10.0001014,1.72427184 C8.97373225,0.699029126 7.71409736,0.186407767 6.2678499,0.186407767 C4.82160243,0.186407767 3.56196755,0.699029126 2.53559838,1.72427184 C1.46257606,2.74951456 0.949391481,4.00776699 0.949391481,5.45242718 C0.949391481,6.89708738 1.46257606,8.15533981 2.53559838,9.18058252 C3.56196755,10.2524272 4.82160243,10.7650485 6.2678499,10.7650485 C7.71409736,10.7650485 8.97373225,10.2524272 10.0001014,9.18058252 C11.0264706,8.15533981 11.5396552,6.89708738 11.5396552,5.45242718 C11.5396552,4.00776699 11.0264706,2.74951456 10.0001014,1.72427184 Z M22.176572,14.7262136 C22.4098377,14.7728155 22.5497972,14.9592233 22.5964503,15.192233 L22.5964503,16.0776699 C22.503144,16.4038835 22.2698783,16.5902913 21.9433063,16.6368932 C21.8033469,16.6368932 21.5700811,16.6834951 21.2435091,16.7300971 C20.870284,16.7300971 20.6370183,16.9165049 20.543712,17.2893204 C20.4970588,17.3825243 20.4037525,17.5223301 20.3570994,17.7087379 C20.2637931,17.8951456 20.21714,18.0349515 20.1704868,18.0815534 C20.0771805,18.4543689 20.1238337,18.7339806 20.3104462,18.9203883 C20.3570994,18.9669903 20.4504057,19.1067961 20.5903651,19.2466019 C20.6836714,19.3864078 20.7769777,19.5262136 20.8236308,19.6194175 C21.0102434,19.9456311 21.0102434,20.1786408 20.7769777,20.4116505 L20.2637931,20.9242718 C20.1238337,21.0640777 19.9838742,21.1106796 19.7972617,21.1106796 C19.7039554,21.1106796 19.5639959,21.0640777 19.4240365,20.9708738 C19.1907708,20.7378641 18.9575051,20.5980583 18.7242394,20.4582524 C18.5376268,20.3184466 18.3976673,20.2718447 18.2577079,20.2718447 C18.1644016,20.2718447 18.0710953,20.2718447 18.0244422,20.3184466 C17.9311359,20.3650485 17.7911765,20.4582524 17.5579108,20.5514563 C17.324645,20.6446602 17.1380325,20.7378641 16.998073,20.784466 C16.7648073,20.831068 16.6248479,21.0174757 16.5781947,21.2970874 C16.5781947,21.3902913 16.5781947,21.5300971 16.5315416,21.6699029 C16.4848884,21.8563107 16.4848884,21.9961165 16.4848884,22.0427184 C16.4848884,22.4621359 16.2982759,22.6951456 15.9717039,22.7883495 L14.9919878,22.7883495 C14.9919878,22.7417476 14.9919878,22.7417476 14.9453347,22.7417476 C14.712069,22.6951456 14.5721095,22.5087379 14.5254564,22.1825243 C14.4788032,22.0427184 14.4321501,21.7631068 14.385497,21.3902913 C14.385497,21.0640777 14.1988844,20.831068 13.8723124,20.7378641 C13.7790061,20.6912621 13.6390467,20.5980583 13.4524341,20.5048544 C13.2658215,20.4582524 13.1258621,20.4116505 13.0325558,20.3650485 C12.8925963,20.3184466 12.7992901,20.2718447 12.7526369,20.2718447 C12.6126775,20.2718447 12.4727181,20.3650485 12.2394523,20.5048544 L11.6796146,20.9242718 C11.5396552,21.0174757 11.3996957,21.0640777 11.16643,21.0640777 C10.9798174,21.0640777 10.7932049,21.0174757 10.6532454,20.8776699 C10.6065923,20.831068 10.513286,20.7378641 10.4199797,20.5980583 C10.2800203,20.4582524 10.186714,20.3650485 10.0934077,20.3184466 C10.0467546,20.1786408 10.0001014,20.038835 10.0467546,19.992233 C10.0467546,19.8058252 10.0934077,19.7126214 10.186714,19.6660194 C10.513286,19.2932039 10.6998986,19.0601942 10.7465517,18.9203883 C10.8865112,18.6873786 10.9331643,18.407767 10.839858,18.1747573 C10.6532454,17.7553398 10.513286,17.4291262 10.4199797,17.2427184 C10.3266734,16.9631068 10.1400609,16.776699 9.81348884,16.7300971 C9.58022312,16.7300971 9.44026369,16.7300971 9.30030426,16.6834951 L8.74046653,16.5436893 C8.6005071,16.4970874 8.46054767,16.3572816 8.41389452,16.1242718 L8.41389452,15.1456311 L8.41389452,15.0990291 C8.50720081,14.8660194 8.69381339,14.6796117 8.97373225,14.6330097 C9.3469574,14.5864078 9.62687627,14.5398058 9.86014199,14.5398058 C10.0934077,14.4932039 10.3266734,14.3533981 10.4666329,14.0271845 C10.513286,13.8873786 10.6065923,13.7475728 10.6998986,13.5145631 C10.7465517,13.3281553 10.7932049,13.1883495 10.839858,13.1417476 C10.9331643,12.8621359 10.8865112,12.5825243 10.6998986,12.3495146 C10.6532454,12.3029126 10.5599391,12.1631068 10.4199797,11.976699 C10.2800203,11.7902913 10.2333671,11.6504854 10.186714,11.6038835 C9.95344828,11.3708738 10.0001014,11.0912621 10.2333671,10.8582524 L10.7932049,10.2990291 C10.9798174,10.1592233 11.1197769,10.1126214 11.2130832,10.1126214 C11.2597363,10.1126214 11.3996957,10.1592233 11.5863083,10.2058252 C11.819574,10.438835 12.0528398,10.6252427 12.2861055,10.7650485 C12.4260649,10.9048544 12.5660243,10.9514563 12.7526369,10.9514563 C12.8925963,10.9514563 12.9859026,10.9514563 13.0325558,10.9048544 C13.0792089,10.8582524 13.2191684,10.8116505 13.3591278,10.7650485 C13.4990872,10.7184466 13.5923935,10.6718447 13.7323529,10.6252427 C13.8256592,10.5786408 13.9189655,10.5320388 14.0122718,10.4854369 C14.2455375,10.392233 14.385497,10.2058252 14.4321501,9.97281553 C14.4321501,9.87961165 14.4321501,9.73980583 14.4788032,9.50679612 C14.5254564,9.32038835 14.5254564,9.18058252 14.5721095,9.0407767 C14.6187627,8.66796117 14.8053753,8.4815534 15.1319473,8.4815534 L15.5051724,8.4815534 L15.9250507,8.4815534 C16.2516227,8.4815534 16.4382353,8.66796117 16.4848884,8.99417476 C16.5315416,9.36699029 16.5781947,9.64660194 16.5781947,9.83300971 C16.6248479,10.1592233 16.8114604,10.392233 17.0913793,10.4854369 C17.4646045,10.6718447 17.7445233,10.8116505 17.9311359,10.8582524 C18.1177485,10.9048544 18.2577079,10.9514563 18.3043611,10.9514563 C18.4909736,10.9514563 18.6309331,10.9048544 18.7708925,10.7650485 C19.0508114,10.6252427 19.2840771,10.438835 19.5173428,10.2524272 C19.6573022,10.2058252 19.7506085,10.1592233 19.8439148,10.1592233 C19.9838742,10.1592233 20.1238337,10.2058252 20.2637931,10.2990291 L20.8236308,10.8582524 C21.0568966,11.0912621 21.0568966,11.3708738 20.870284,11.6504854 C20.6370183,11.976699 20.4504057,12.2097087 20.3570994,12.3961165 C20.1704868,12.6757282 20.1238337,12.9553398 20.2637931,13.1883495 C20.4037525,13.561165 20.4970588,13.8407767 20.5903651,14.0271845 C20.6836714,14.3533981 20.9169371,14.5398058 21.3368154,14.5864078 L22.176572,14.7262136 Z M15.4585193,17.4757282 C15.9717039,17.4757282 16.3915822,17.2893204 16.7648073,16.9631068 C17.0913793,16.6368932 17.2779919,16.1708738 17.2779919,15.6582524 C17.2779919,15.1456311 17.0913793,14.7262136 16.7648073,14.4 C16.3915822,14.0737864 15.9717039,13.8873786 15.4585193,13.8873786 C14.9453347,13.8873786 14.5254564,14.0737864 14.1988844,14.4 C13.8723124,14.7262136 13.6856998,15.1456311 13.6856998,15.6582524 C13.6856998,16.1708738 13.8723124,16.5902913 14.2455375,16.9165049 C14.5721095,17.2893204 14.9919878,17.4757282 15.4585193,17.4757282 Z M11.1197769,22.368932 C11.493002,22.368932 11.9128803,22.2291262 12.4260649,21.9495146 C12.4260649,21.9029126 12.4260649,21.9029126 12.4727181,21.9029126 L12.4727181,22.1359223 C12.6126775,22.6019417 12.5193712,23.0213592 12.2394523,23.3941748 C11.9128803,23.8135922 11.5396552,24 11.0264706,24 L1.55588235,24 C1.04269777,24 0.669472617,23.8135922 0.342900609,23.3941748 C0.0163286004,23.0213592 -0.0769776876,22.6019417 0.0629817444,22.1359223 L1.36926978,15.984466 L1.36926978,15.9378641 C1.83580122,14.0271845 2.39563895,12.815534 3.04878296,12.3961165 C3.70192698,11.976699 4.77494929,11.7436893 6.2678499,11.7436893 L6.31450304,11.7436893 C7.38752535,11.7436893 8.27393509,11.8834951 8.97373225,12.1631068 C8.97373225,12.2097087 9.0203854,12.3495146 9.16034483,12.5359223 C9.20699797,12.5825243 9.25365112,12.6757282 9.3469574,12.815534 C9.44026369,12.9553398 9.48691684,13.0019417 9.53356998,13.0485437 C9.48691684,13.0951456 9.48691684,13.1883495 9.48691684,13.2349515 C9.44026369,13.3747573 9.39361055,13.4679612 9.3469574,13.5145631 C9.30030426,13.561165 9.20699797,13.561165 9.06703854,13.561165 C8.92707911,13.607767 8.78711968,13.607767 8.74046653,13.607767 C8.04066937,13.7009709 7.57413793,14.0737864 7.29421907,14.6796117 L7.10760649,14.8660194 L7.10760649,16.4504854 L7.20091278,16.6834951 C7.24756592,16.823301 7.34087221,17.0097087 7.48083164,17.2427184 C7.76075051,17.568932 8.04066937,17.7553398 8.36724138,17.8485437 C8.46054767,17.8951456 8.6005071,17.8951456 8.74046653,17.9417476 C8.88042596,17.9883495 8.92707911,17.9883495 8.97373225,17.9883495 L9.06703854,17.9883495 C9.11369168,17.9883495 9.16034483,17.9883495 9.20699797,17.9883495 C9.25365112,18.0349515 9.30030426,18.0349515 9.3469574,18.0349515 C9.39361055,18.0815534 9.44026369,18.2213592 9.53356998,18.4543689 C9.48691684,18.4543689 9.48691684,18.5009709 9.48691684,18.5475728 C9.39361055,18.6407767 9.30030426,18.7805825 9.16034483,18.9669903 C9.11369168,19.0135922 9.0203854,19.2 8.83377282,19.5728155 C8.6005071,20.2718447 8.74046653,20.784466 9.20699797,21.2038835 L9.3469574,21.3436893 C9.53356998,21.5300971 9.67352941,21.6699029 9.7668357,21.8097087 C10.186714,22.1825243 10.6532454,22.368932 11.1197769,22.368932 Z" id="Page-1"></path>
        </g>
    </g>
</svg>