<?xml version="1.0" encoding="UTF-8"?>
<svg width="24px" height="24px" viewBox="0 0 24 24" version="1.1" xmlns="http://www.w3.org/2000/svg" xmlns:xlink="http://www.w3.org/1999/xlink">
    <!-- Generator: Sketch 48.1 (47250) - http://www.bohemiancoding.com/sketch -->
    <title>angle-right</title>
    <desc>Created with Sketch.</desc>
    <defs></defs>
    <g id="Page-1" stroke="none" stroke-width="1" fill="none" fill-rule="evenodd">
        <g id="angle-right" fill="#000000">
            <path d="M15.9761194,11.2263158 C15.9761194,11.1315789 15.9283582,11.0368421 15.8328358,10.9421053 L9.48059701,4.64210526 C9.38507463,4.54736842 9.28955224,4.5 9.14626866,4.5 C9.00298507,4.5 8.90746269,4.54736842 8.8119403,4.64210526 L8.14328358,5.30526316 C8.04776119,5.4 8,5.49473684 8,5.58947368 C8,5.73157895 8.04776119,5.82631579 8.14328358,5.92105263 L13.4925373,11.2263158 L8.14328358,16.5789474 C8.04776119,16.6263158 8,16.7210526 8,16.8631579 C8,17.0052632 8.04776119,17.1 8.14328358,17.1947368 L8.8119403,17.8578947 C8.90746269,17.9526316 9.00298507,18 9.14626866,18 C9.28955224,18 9.38507463,17.9526316 9.48059701,17.8578947 L15.8328358,11.5578947 C15.9283582,11.4631579 15.9761194,11.3684211 15.9761194,11.2263158 Z" id="Page-1"></path>
        </g>
    </g>
</svg>