<?xml version="1.0" encoding="UTF-8"?>
<svg width="24px" height="24px" viewBox="0 0 24 24" version="1.1" xmlns="http://www.w3.org/2000/svg" xmlns:xlink="http://www.w3.org/1999/xlink">
    <!-- Generator: sketchtool 44.1 (41455) - http://www.bohemiancoding.com/sketch -->
    <title>angle-down</title>
    <desc>Created with sketchtool.</desc>
    <defs></defs>
    <g id="Page-1" stroke="none" stroke-width="1" fill="none" fill-rule="evenodd">
        <g id="angle-down" fill="#000000">
            <path d="M18.3358396,9.96 C18.3358396,9.86153846 18.2857143,9.76307692 18.1854637,9.66461538 L17.433584,8.92615385 C17.3834586,8.87692308 17.283208,8.82769231 17.1328321,8.82769231 C17.0325815,8.82769231 16.9323308,8.87692308 16.7819549,8.92615385 L11.1679198,14.4892308 L5.55388471,8.92615385 C5.40350877,8.87692308 5.30325815,8.82769231 5.20300752,8.82769231 C5.05263158,8.82769231 4.95238095,8.87692308 4.90225564,8.92615385 L4.15037594,9.66461538 C4.05012531,9.76307692 4,9.86153846 4,9.96 C4,10.1076923 4.05012531,10.2061538 4.15037594,10.3046154 L10.8170426,16.8523077 C10.9172932,16.9507692 11.0175439,17 11.1679198,17 C11.3182957,17 11.4185464,16.9507692 11.518797,16.8523077 L18.1854637,10.3046154 C18.2857143,10.2061538 18.3358396,10.1076923 18.3358396,9.96 Z" id="Page-1"></path>
        </g>
    </g>
</svg>