<?xml version="1.0" encoding="UTF-8"?>
<svg width="24px" height="24px" viewBox="0 0 24 24" version="1.1" xmlns="http://www.w3.org/2000/svg" xmlns:xlink="http://www.w3.org/1999/xlink">
    <!-- Generator: sketchtool 44.1 (41455) - http://www.bohemiancoding.com/sketch -->
    <title>apple</title>
    <desc>Created with sketchtool.</desc>
    <defs></defs>
    <g id="Page-1" stroke="none" stroke-width="1" fill="none" fill-rule="evenodd">
        <g id="apple" fill="#000000">
            <path d="M20.4503311,17 C19.6622517,16.765625 18.9668874,16.203125 18.3642384,15.3125 C17.7615894,14.421875 17.4370861,13.390625 17.4370861,12.3125 C17.4370861,11.28125 17.7152318,10.34375 18.3178808,9.546875 C18.6423841,9.03125 19.1523179,8.515625 19.8013245,8 C19.384106,7.484375 18.9205298,7.015625 18.410596,6.640625 C17.5761589,6.03125 16.6490066,5.75 15.6291391,5.75 C15.1192053,5.75 14.3311258,5.890625 13.3112583,6.21875 C12.4768212,6.546875 11.8278146,6.6875 11.410596,6.6875 C11.1324503,6.6875 10.5298013,6.546875 9.60264901,6.265625 C8.62913907,6.03125 7.8410596,5.890625 7.2384106,5.890625 C5.70860927,5.890625 4.45695364,6.546875 3.48344371,7.8125 C2.50993377,9.171875 2,10.8125 2,12.828125 C2,15.03125 2.64900662,17.234375 3.94701987,19.53125 C5.1986755,21.828125 6.54304636,23 7.93377483,23 C8.35099338,23 8.95364238,22.859375 9.69536424,22.578125 C10.3443709,22.25 10.9470199,22.109375 11.5496689,22.109375 C12.1523179,22.109375 12.8013245,22.25 13.5430464,22.53125 C14.3311258,22.859375 14.9801325,23 15.397351,23 C16.5099338,23 17.6688742,22.109375 18.8278146,20.375 C19.5231788,19.34375 20.0331126,18.21875 20.4503311,17 Z M15.4437086,1.15625 L15.4437086,1.015625 L15.397351,0.875 L15.397351,0.734375 C13.8211921,1.109375 12.7086093,1.765625 12.0596026,2.703125 C11.410596,3.6875 11.0860927,4.8125 11.0397351,6.171875 C11.5496689,6.125 12.013245,6.078125 12.4304636,5.9375 C12.9403974,5.703125 13.4503311,5.375 13.8675497,4.953125 C14.3774834,4.4375 14.7483444,3.828125 15.0728477,3.125 C15.3046358,2.515625 15.4437086,1.90625 15.4437086,1.296875 L15.4437086,1.15625 Z" id="Page-1"></path>
        </g>
    </g>
</svg>