<?xml version="1.0" encoding="UTF-8"?>
<svg width="24px" height="24px" viewBox="0 0 24 24" version="1.1" xmlns="http://www.w3.org/2000/svg" xmlns:xlink="http://www.w3.org/1999/xlink">
    <!-- Generator: sketchtool 44.1 (41455) - http://www.bohemiancoding.com/sketch -->
    <title>arrow-left-circle</title>
    <desc>Created with sketchtool.</desc>
    <defs></defs>
    <g id="Page-1" stroke="none" stroke-width="1" fill="none" fill-rule="evenodd">
        <g id="arrow-left-circle" fill="#000000">
            <path d="M3.515625,20.484375 C1.171875,18.140625 0,15.328125 0,12 C0,8.671875 1.171875,5.859375 3.515625,3.515625 C5.859375,1.171875 8.671875,0 12,0 C15.328125,0 18.140625,1.171875 20.484375,3.515625 C22.828125,5.859375 24,8.671875 24,12 C24,15.328125 22.828125,18.140625 20.484375,20.484375 C18.140625,22.828125 15.328125,24 12,24 C8.671875,24 5.859375,22.828125 3.515625,20.484375 Z M8.765625,11.34375 C8.625,11.53125 8.53125,11.765625 8.53125,12 C8.53125,12.28125 8.625,12.515625 8.765625,12.65625 L12.515625,16.40625 C12.9375,16.828125 13.3125,16.828125 13.734375,16.40625 C14.15625,15.984375 14.15625,15.609375 13.734375,15.1875 L10.5,12 L13.734375,8.8125 C14.15625,8.390625 14.15625,8.015625 13.734375,7.59375 C13.3125,7.171875 12.9375,7.171875 12.515625,7.59375 L8.765625,11.34375 Z" id="Page-1"></path>
        </g>
    </g>
</svg>