<?xml version="1.0" encoding="UTF-8"?>
<svg width="24px" height="24px" viewBox="0 0 24 24" version="1.1" xmlns="http://www.w3.org/2000/svg" xmlns:xlink="http://www.w3.org/1999/xlink">
    <!-- Generator: Sketch 48.1 (47250) - http://www.bohemiancoding.com/sketch -->
    <title>arrow-right</title>
    <desc>Created with Sketch.</desc>
    <defs></defs>
    <g id="Page-1" stroke="none" stroke-width="1" fill="none" fill-rule="evenodd">
        <g id="arrow-right" fill="#000000">
            <path d="M18.4068981,13.59375 C18.9189672,13.171875 19.1051741,12.65625 19.0586223,12.046875 C19.0586223,11.34375 18.8258637,10.828125 18.4068981,10.40625 L8.7706901,0.65625 C8.35172453,0.234375 7.83965551,0 7.23448302,0 C6.62931054,0 6.07068978,0.234375 5.65172421,0.65625 C5.23275865,1.078125 5,1.59375 5,2.203125 C5,2.8125 5.23275865,3.328125 5.65172421,3.75 L13.7982769,12 L5.65172421,20.25 C5.23275865,20.671875 5,21.1875 5,21.796875 C5,22.40625 5.23275865,22.921875 5.65172421,23.34375 C6.07068978,23.765625 6.62931054,24 7.23448302,24 C7.83965551,24 8.35172453,23.765625 8.7706901,23.34375 L18.4068981,13.59375 Z" id="Page-1"></path>
        </g>
    </g>
</svg>