<?xml version="1.0" encoding="UTF-8"?>
<svg width="24px" height="24px" viewBox="0 0 24 24" version="1.1" xmlns="http://www.w3.org/2000/svg" xmlns:xlink="http://www.w3.org/1999/xlink">
    <!-- Generator: Sketch 48.1 (47250) - http://www.bohemiancoding.com/sketch -->
    <title>arrow-up-icon</title>
    <desc>Created with Sketch.</desc>
    <defs></defs>
    <g id="Page-1" stroke="none" stroke-width="1" fill="none" fill-rule="evenodd">
        <g id="arrow-up-icon" fill="#000000">
            <path d="M13.540856,5.60683913 C13.0272374,5.09351241 12.5136187,4.90684815 12,4.95351421 C11.2996109,4.95351421 10.7859922,5.18684454 10.3657588,5.60683913 L0.607003891,15.3133808 C0.186770428,15.7333754 0,16.2467021 0,16.853361 C0,17.4600198 0.186770428,17.9733466 0.607003891,18.3933411 C1.02723735,18.8133357 1.54085603,19 2.14785992,19 C2.75486381,19 3.3151751,18.8133357 3.73540856,18.3933411 L11.9533074,10.2267796 L20.1245136,18.3933411 C20.5447471,18.8133357 21.0583658,19 21.6653696,19 C22.2723735,19 22.8326848,18.8133357 23.2529183,18.3933411 C23.6731518,17.9733466 23.9066148,17.4600198 23.9066148,16.853361 C23.9066148,16.2467021 23.6731518,15.7333754 23.2529183,15.3133808 L13.540856,5.60683913 Z" id="Page-1"></path>
        </g>
    </g>
</svg>