<?xml version="1.0" encoding="UTF-8"?>
<svg width="24px" height="24px" viewBox="0 0 24 24" version="1.1" xmlns="http://www.w3.org/2000/svg" xmlns:xlink="http://www.w3.org/1999/xlink">
    <!-- Generator: sketchtool 44.1 (41455) - http://www.bohemiancoding.com/sketch -->
    <title>arrow-up-circle</title>
    <desc>Created with sketchtool.</desc>
    <defs></defs>
    <g id="Page-1" stroke="none" stroke-width="1" fill="none" fill-rule="evenodd">
        <g id="arrow-up-circle" fill="#000000">
            <path d="M3.515625,3.515625 C5.859375,1.171875 8.671875,0 12,0 C15.328125,0 18.140625,1.171875 20.484375,3.515625 C22.828125,5.859375 24,8.671875 24,12 C24,15.328125 22.828125,18.140625 20.484375,20.484375 C18.140625,22.828125 15.328125,24 12,24 C8.671875,24 5.859375,22.828125 3.515625,20.484375 C1.171875,18.140625 0,15.328125 0,12 C0,8.671875 1.171875,5.859375 3.515625,3.515625 Z M12.65625,8.765625 C12.46875,8.625 12.234375,8.53125 12,8.53125 C11.71875,8.53125 11.484375,8.625 11.34375,8.765625 L7.59375,12.515625 C7.171875,12.9375 7.171875,13.3125 7.59375,13.734375 C8.015625,14.15625 8.390625,14.15625 8.8125,13.734375 L12,10.5 L15.1875,13.734375 C15.609375,14.15625 15.984375,14.15625 16.40625,13.734375 C16.828125,13.3125 16.828125,12.9375 16.40625,12.515625 L12.65625,8.765625 Z" id="Page-1"></path>
        </g>
    </g>
</svg>