<?xml version="1.0" encoding="UTF-8"?>
<svg width="24px" height="24px" viewBox="0 0 24 24" version="1.1" xmlns="http://www.w3.org/2000/svg" xmlns:xlink="http://www.w3.org/1999/xlink">
    <!-- Generator: Sketch 48.1 (47250) - http://www.bohemiancoding.com/sketch -->
    <title>arrow-left</title>
    <desc>Created with Sketch.</desc>
    <defs></defs>
    <g id="Page-1" stroke="none" stroke-width="1" fill="none" fill-rule="evenodd">
        <g id="arrow-left" fill="#000000">
            <path d="M4.61233157,10.40625 C4.14664529,10.828125 3.96037078,11.34375 4.00693941,11.953125 C4.00693941,12.65625 4.19321392,13.171875 4.61233157,13.59375 L14.3451747,23.34375 C14.7642924,23.765625 15.2765473,24 15.8819394,24 C16.4873316,24 16.9995865,23.765625 17.4187041,23.34375 C17.8378218,22.921875 18.0240963,22.40625 18.0240963,21.796875 C18.0240963,21.1875 17.8378218,20.671875 17.4187041,20.25 L9.22262568,12 L17.3721355,3.75 C17.7912531,3.328125 18.0240963,2.8125 18.0240963,2.203125 C18.0240963,1.59375 17.7912531,1.078125 17.3721355,0.65625 C16.9530178,0.234375 16.4407629,0 15.8353708,0 C15.2299786,0 14.7177237,0.234375 14.2986061,0.65625 L4.61233157,10.40625 Z" id="Page-1"></path>
        </g>
    </g>
</svg>