<?xml version="1.0" encoding="UTF-8"?>
<svg width="24px" height="24px" viewBox="0 0 24 24" version="1.1" xmlns="http://www.w3.org/2000/svg" xmlns:xlink="http://www.w3.org/1999/xlink">
    <!-- Generator: Sketch 48.1 (47250) - http://www.bohemiancoding.com/sketch -->
    <title>arrow-right-circle</title>
    <desc>Created with Sketch.</desc>
    <defs></defs>
    <g id="Page-1" stroke="none" stroke-width="1" fill="none" fill-rule="evenodd">
        <g id="arrow-right-circle" fill="#000000">
            <path d="M20.484375,3.515625 C22.828125,5.859375 24,8.671875 24,12 C24,15.328125 22.828125,18.140625 20.484375,20.484375 C18.140625,22.828125 15.328125,24 12,24 C8.671875,24 5.859375,22.828125 3.515625,20.484375 C1.171875,18.140625 0,15.328125 0,12 C0,8.671875 1.171875,5.859375 3.515625,3.515625 C5.859375,1.171875 8.671875,0 12,0 C15.328125,0 18.140625,1.171875 20.484375,3.515625 Z M15.234375,12.65625 C15.375,12.46875 15.46875,12.234375 15.46875,12 C15.46875,11.71875 15.375,11.484375 15.234375,11.34375 L11.484375,7.59375 C11.0625,7.171875 10.6875,7.171875 10.265625,7.59375 C9.84375,8.015625 9.84375,8.390625 10.265625,8.8125 L13.5,12 L10.265625,15.1875 C9.84375,15.609375 9.84375,15.984375 10.265625,16.40625 C10.6875,16.828125 11.0625,16.828125 11.484375,16.40625 L15.234375,12.65625 Z" id="Page-1"></path>
        </g>
    </g>
</svg>