<?xml version="1.0" encoding="UTF-8"?>
<svg width="24px" height="24px" viewBox="0 0 24 24" version="1.1" xmlns="http://www.w3.org/2000/svg" xmlns:xlink="http://www.w3.org/1999/xlink">
    <!-- Generator: Sketch 48.1 (47250) - http://www.bohemiancoding.com/sketch -->
    <title>arrow-down</title>
    <desc>Created with Sketch.</desc>
    <defs></defs>
    <g id="Page-1" stroke="none" stroke-width="1" fill="none" fill-rule="evenodd">
        <g id="arrow-down" fill="#000000">
            <path d="M10.3190661,21.3448276 C10.7392996,21.7660099 11.2529183,22 11.9066148,22 C12.5603113,22 13.1206226,21.7660099 13.540856,21.3448276 L23.2529183,11.6108374 C23.6731518,11.1896552 23.9066148,10.6748768 23.9066148,10.0665025 C23.9066148,9.45812808 23.6731518,8.94334975 23.2529183,8.52216749 C22.8326848,8.10098522 22.2723735,7.9137931 21.6653696,7.9137931 C21.0583658,7.9137931 20.5447471,8.10098522 20.1245136,8.52216749 L11.9533074,16.7118227 L3.73540856,8.52216749 C3.3151751,8.10098522 2.75486381,7.9137931 2.14785992,7.9137931 C1.54085603,7.9137931 1.02723735,8.10098522 0.607003891,8.52216749 C0.186770428,8.94334975 0,9.45812808 0,10.0665025 C0,10.6748768 0.186770428,11.1896552 0.607003891,11.6108374 L10.3190661,21.3448276 Z" id="Page-1"></path>
        </g>
    </g>
</svg>