<?xml version="1.0" encoding="UTF-8"?>
<svg width="24px" height="24px" viewBox="0 0 24 24" version="1.1" xmlns="http://www.w3.org/2000/svg" xmlns:xlink="http://www.w3.org/1999/xlink">
    <!-- Generator: Sketch 48.1 (47250) - http://www.bohemiancoding.com/sketch -->
    <title>arrow-down-circle</title>
    <desc>Created with Sketch.</desc>
    <defs></defs>
    <g id="Page-1" stroke="none" stroke-width="1" fill="none" fill-rule="evenodd">
        <g id="arrow-down-circle" fill="#000000">
            <path d="M20.484375,20.484375 C18.140625,22.828125 15.328125,24 12,24 C8.671875,24 5.859375,22.828125 3.515625,20.484375 C1.171875,18.140625 0,15.328125 0,12 C0,8.671875 1.171875,5.859375 3.515625,3.515625 C5.859375,1.171875 8.671875,0 12,0 C15.328125,0 18.140625,1.171875 20.484375,3.515625 C22.828125,5.859375 24,8.671875 24,12 C24,15.328125 22.828125,18.140625 20.484375,20.484375 Z M11.34375,15.234375 C11.53125,15.375 11.765625,15.46875 12,15.46875 C12.28125,15.46875 12.515625,15.375 12.65625,15.234375 L16.40625,11.484375 C16.828125,11.0625 16.828125,10.6875 16.40625,10.265625 C15.984375,9.84375 15.609375,9.84375 15.1875,10.265625 L12,13.5 L8.8125,10.265625 C8.390625,9.84375 8.015625,9.84375 7.59375,10.265625 C7.171875,10.6875 7.171875,11.0625 7.59375,11.484375 L11.34375,15.234375 Z" id="Page-1"></path>
        </g>
    </g>
</svg>