<?xml version="1.0" encoding="UTF-8"?>
<svg width="24px" height="24px" viewBox="0 0 24 24" version="1.1" xmlns="http://www.w3.org/2000/svg" xmlns:xlink="http://www.w3.org/1999/xlink">
    <!-- Generator: Sketch 48.1 (47250) - http://www.bohemiancoding.com/sketch -->
    <title>bathroom-1</title>
    <desc>Created with Sketch.</desc>
    <defs></defs>
    <g id="Page-1" stroke="none" stroke-width="1" fill="none" fill-rule="evenodd">
        <g id="bathroom-1" fill="#000000">
            <g id="Bathroom-1" transform="translate(2.000000, 8.000000)">
                <polygon id="Fill-2" points="12.937 7.01 14.937 7.01 14.937 8.01 12.937 8.01"></polygon>
                <path d="M2.07,4.003 L2.07,1.462 L2.481,1.001 L4.606,1.001 L5.054,1.471 L5.054,2.021 L6.054,2.021 L6.054,1.071 L5.034,0.001 L2.034,0.001 L1.07,1.08 L1.07,4.003 L0.07,4.003 L0.07,10.292 L2.46,14.034 L17.546,14.034 L20.008,10.3 L20,4 L2.07,4.003 L2.07,4.003 Z M16.47,12.034 L3.556,12.034 L2.07,9.708 L2.07,8.01 L12.017,8.01 L12.017,7.01 L2.07,7.01 L2.07,6.002 L18,6 L18.008,7.01 L16.022,7.01 L16.022,8.01 L18.008,8.01 L18.008,9.7 L16.47,12.034 L16.47,12.034 Z" id="Fill-3"></path>
            </g>
        </g>
    </g>
</svg>