<?xml version="1.0" encoding="UTF-8"?>
<svg width="24px" height="24px" viewBox="0 0 24 24" version="1.1" xmlns="http://www.w3.org/2000/svg" xmlns:xlink="http://www.w3.org/1999/xlink">
    <!-- Generator: Sketch 48.1 (47250) - http://www.bohemiancoding.com/sketch -->
    <title>bedroom-2</title>
    <desc>Created with Sketch.</desc>
    <defs></defs>
    <g id="Page-1" stroke="none" stroke-width="1" fill="none" fill-rule="evenodd">
        <g id="bedroom-2" fill="#000000">
            <g id="Bedroom-2" transform="translate(2.000000, 8.000000)">
                <path d="M19.993,4.016 L17.993,4.016 L17.993,6.029 L8.035,6.029 C8.015,4.915 7.108,4.016 5.988,4.016 L2.038,4.016 L2.038,0 L0.038,0 L0.038,12.005 L2.061,12.005 L2.061,14.052 L2.988,14.052 L2.988,12.005 L17.034,12.005 L17.034,14.052 L18.033,14.052 L18.033,12.005 L19.993,12.005 L19.993,4.016 L19.993,4.016 Z M2.038,5.016 L5.988,5.016 C6.555,5.016 7.018,5.467 7.038,6.029 L2.038,6.029 L2.038,5.016 L2.038,5.016 Z M2.038,7.029 L7.025,7.029 L7.025,10.004 L2.038,10.004 L2.038,7.029 Z" id="Fill-2"></path>
            </g>
        </g>
    </g>
</svg>