<?xml version="1.0" encoding="UTF-8"?>
<svg width="24px" height="24px" viewBox="0 0 24 24" version="1.1" xmlns="http://www.w3.org/2000/svg" xmlns:xlink="http://www.w3.org/1999/xlink">
    <!-- Generator: Sketch 48.1 (47250) - http://www.bohemiancoding.com/sketch -->
    <title>bedroom-1</title>
    <desc>Created with Sketch.</desc>
    <defs></defs>
    <g id="Page-1" stroke="none" stroke-width="1" fill="none" fill-rule="evenodd">
        <g id="bedroom-1" fill="#000000">
            <g id="Bedroom-1" transform="translate(2.000000, 8.000000)">
                <path d="M18,4.109 L18,6.029 L7.996,6.029 C7.976,4.915 7.07,4.016 5.95,4.016 L2,4.016 L2,0 L0,0 L0,14.062 L2,14.062 L2,12.005 L18,12.005 L18,14.052 L20,14.052 L20,4.109 L18,4.109 L18,4.109 Z M5.95,5.016 C6.517,5.016 6.98,5.467 6.999,6.029 L2,6.029 L2,5.016 L5.95,5.016 L5.95,5.016 Z M2,7.029 L7.413,7.029 L7.413,10.004 L2,10.004 L2,7.029 Z" id="Fill-2"></path>
            </g>
        </g>
    </g>
</svg>