<?xml version="1.0" encoding="UTF-8"?>
<svg width="24px" height="24px" viewBox="0 0 24 24" version="1.1" xmlns="http://www.w3.org/2000/svg" xmlns:xlink="http://www.w3.org/1999/xlink">
    <!-- Generator: sketchtool 44.1 (41455) - http://www.bohemiancoding.com/sketch -->
    <title>bin-cross</title>
    <desc>Created with sketchtool.</desc>
    <defs></defs>
    <g id="Page-1" stroke="none" stroke-width="1" fill="none" fill-rule="evenodd">
        <g id="bin-cross" fill="#000000">
            <g id="Bin-Cross" transform="translate(4.000000, 2.000000)">
                <path d="M11.937,3 L11.937,1 C11.937,0.447 11.49,0 10.937,0 L5,0 C4.448,0 4,0.447 4,1 L4,3 L0,3 L0,5 L1,5 L1,16.86 C1,18.006 1.932,18.938 3.077,18.938 L12.922,18.938 C14.068,18.938 15,18.006 15,16.86 L15,5 L16,5 L16,3 L11.937,3 L11.937,3 Z M6,2 L9.938,2 L9.938,3 L6,3 L6,2 Z M13,16.86 L12.922,16.937 L3.077,16.937 L3,16.86 L3,7 L13,7 L13,16.86 L13,16.86 Z" id="Fill-2"></path>
                <polyline id="Fill-3" points="6.414 14.586 8 13 9.586 14.586 11 13.172 9.414 11.586 11 10 9.586 8.586 8 10.172 6.414 8.586 5 10 6.586 11.586 5 13.172 6.414 14.586"></polyline>
            </g>
        </g>
    </g>
</svg>