<?xml version="1.0" encoding="UTF-8"?>
<svg width="24px" height="24px" viewBox="0 0 24 24" version="1.1" xmlns="http://www.w3.org/2000/svg" xmlns:xlink="http://www.w3.org/1999/xlink">
    <!-- Generator: sketchtool 44.1 (41455) - http://www.bohemiancoding.com/sketch -->
    <title>bookmark</title>
    <desc>Created with sketchtool.</desc>
    <defs></defs>
    <g id="Page-1" stroke="none" stroke-width="1" fill="none" fill-rule="evenodd">
        <g id="bookmark" fill="#000000">
            <g id="Bookmark" transform="translate(4.000000, 0.000000)">
                <path d="M13.431,0.937 L2.585,0.937 L0.008,3.595 L0.008,23.943 L8.008,18.228 L16.008,23.943 L16.008,3.595 L13.431,0.937 L13.431,0.937 Z M8.008,15.771 L2.008,20.057 L2.008,5 L8.008,5 L8.008,4 L2.401,4 L3.431,2.937 L12.585,2.937 L13.615,4 L12.008,4 L12.008,5 L14.008,5 L14.008,20.057 L8.008,15.771 L8.008,15.771 Z" id="Fill-2"></path>
                <polygon id="Fill-3" points="9.008 4 11.008 4 11.008 5 9.008 5"></polygon>
            </g>
        </g>
    </g>
</svg>