<?xml version="1.0" encoding="UTF-8"?>
<svg width="24px" height="24px" viewBox="0 0 24 24" version="1.1" xmlns="http://www.w3.org/2000/svg" xmlns:xlink="http://www.w3.org/1999/xlink">
    <!-- Generator: sketchtool 44.1 (41455) - http://www.bohemiancoding.com/sketch -->
    <title>box-1</title>
    <desc>Created with sketchtool.</desc>
    <defs></defs>
    <g id="Page-1" stroke="none" stroke-width="1" fill="none" fill-rule="evenodd">
        <g id="box-1" fill="#000000">
            <path d="M19.414,2 L4.586,2 L2,4.586 L2,22 L22,22 L22,4.586 L19.414,2 L19.414,2 Z M18.586,4 L20,5.414 L20,6 L14.093,6 L13.593,4 L18.586,4 L18.586,4 Z M5.414,4 L10.593,4 L10.093,6 L4,6 L4,5.414 L5.414,4 L5.414,4 Z M4,20 L4,7 L10.093,7 L10.093,12 L14.093,12 L14.093,7 L20,7 L20,20 L4,20 L4,20 Z" id="Box-1"></path>
        </g>
    </g>
</svg>