<?xml version="1.0" encoding="UTF-8"?>
<svg width="24px" height="24px" viewBox="0 0 24 24" version="1.1" xmlns="http://www.w3.org/2000/svg" xmlns:xlink="http://www.w3.org/1999/xlink">
    <!-- Generator: Sketch 48.1 (47250) - http://www.bohemiancoding.com/sketch -->
    <title>box-1-cross</title>
    <desc>Created with Sketch.</desc>
    <defs></defs>
    <g id="Page-1" stroke="none" stroke-width="1" fill="none" fill-rule="evenodd">
        <g id="box-1-cross" fill="#000000">
            <g id="Box-1-Cross" transform="translate(1.000000, 2.000000)">
                <path d="M18.32,0 L3.492,0 L0.906,2.586 L0.906,20 L20.906,20 L20.906,2.586 L18.32,0 L18.32,0 Z M17.492,2 L18.906,3.414 L18.906,4 L13,4 L12.5,2 L17.492,2 L17.492,2 Z M4.32,2 L9.5,2 L9,4 L2.906,4 L2.906,3.414 L4.32,2 L4.32,2 Z M2.906,18 L2.906,5 L9,5 L9,8 L13,8 L13,5 L18.906,5 L18.906,18 L2.906,18 L2.906,18 Z" id="Fill-2"></path>
                <polyline id="Fill-3" points="12.586 10 11 11.586 9.414 10 8 11.414 9.586 13 8 14.586 9.414 16 11 14.414 12.586 16 14 14.586 12.414 13 14 11.414 12.586 10"></polyline>
            </g>
        </g>
    </g>
</svg>