<?xml version="1.0" encoding="UTF-8"?>
<svg width="24px" height="24px" viewBox="0 0 24 24" version="1.1" xmlns="http://www.w3.org/2000/svg" xmlns:xlink="http://www.w3.org/1999/xlink">
    <!-- Generator: Sketch 48.1 (47250) - http://www.bohemiancoding.com/sketch -->
    <title>box-1-gift</title>
    <desc>Created with Sketch.</desc>
    <defs></defs>
    <g id="Page-1" stroke="none" stroke-width="1" fill="none" fill-rule="evenodd">
        <g id="box-1-gift" fill="#000000">
            <path d="M4.04809036,5.14986319 C4.01649722,4.97146917 4,4.78770397 4,4.6 C4,2.90632677 5.34314575,1.53333333 7,1.53333333 C8.55704084,1.53333333 9.83703198,2.74588389 9.98560149,4.29762704 C10.1198842,4.16820996 10.3008802,4.08888889 10.5,4.08888889 C10.6920886,4.08888889 10.8673109,4.16270702 11,4.28410611 L11,3.83333333 C11,1.71624179 12.6789322,3.88903407e-16 14.75,0 C16.8210678,-3.88903407e-16 18.5,1.71624179 18.5,3.83333333 C18.5,4.09589048 18.4741773,4.35228238 18.4249864,4.6 L19.414,4.6 L22,7.24346667 L22,23 L2,23 L2,7.24346667 L4.04809036,5.14986319 Z M9.5,7.66666667 L7,7.66666667 C6.27699822,7.66666667 5.61373248,7.40522273 5.09574195,6.96977489 L4,8.08986667 L4,8.68888889 L9,8.68888889 L9.5,7.66666667 Z M12.25,7.66666667 L13,8.68888889 L20,8.68888889 L20,8.08986667 L18.586,6.64444444 L17.2995342,6.64444444 C16.6304649,7.27882255 15.7345407,7.66666667 14.75,7.66666667 L12.25,7.66666667 Z M12.9411858,16.8222222 L12.907,20.9555556 L8.907,20.9555556 L8.94118577,16.8222222 L4,16.8222222 L4,20.9555556 L20,20.9555556 L20,16.8222222 L12.9411858,16.8222222 Z M12.9742688,12.8222222 L20,12.8222222 L20,9.71111111 L13,9.71111111 L12.9742688,12.8222222 Z M8.97426877,12.8222222 L9,9.71111111 L4,9.71111111 L4,12.8222222 L8.97426877,12.8222222 Z M13.5,5.11111111 L14.75,5.11111111 C15.4403559,5.11111111 16,4.53903051 16,3.83333333 C16,3.12763615 15.4403559,2.55555556 14.75,2.55555556 C14.0596441,2.55555556 13.5,3.12763615 13.5,3.83333333 L13.5,5.11111111 Z M6.997665,3.57777778 C6.44666983,3.57777778 6,4.03437361 6,4.59761311 C6,5.16085261 6.44666983,5.61744844 6.997665,5.61744844 L7.99533,5.61744844 L7.99533,4.59761311 C7.99533,4.03437361 7.54866016,3.57777778 6.997665,3.57777778 Z" id="Combined-Shape"></path>
        </g>
    </g>
</svg>