<?xml version="1.0" encoding="UTF-8"?>
<svg width="24px" height="24px" viewBox="0 0 24 24" version="1.1" xmlns="http://www.w3.org/2000/svg" xmlns:xlink="http://www.w3.org/1999/xlink">
    <!-- Generator: sketchtool 44.1 (41455) - http://www.bohemiancoding.com/sketch -->
    <title>box-1-lock</title>
    <desc>Created with sketchtool.</desc>
    <defs></defs>
    <g id="Page-1" stroke="none" stroke-width="1" fill="none" fill-rule="evenodd">
        <g id="box-1-lock" fill="#000000">
            <g id="Box-1-Lock" transform="translate(2.000000, 2.000000)">
                <path d="M12,11.667 L12,10.5 C12,10.5 11.969,9 10,9 C8,9 8,10.5 8,10.5 L8,12.076 L7,12.076 L7,16 L13,16 L13,12.076 L12,12.076 L12,11.667 L12,11.667 Z M11,11.667 L11,12 L9,12 L9,10.5 C9,10.48 9.011,10 10,10 C10.808,10 10.975,10.33 11,10.537 L11,11.667 L11,11.667 Z" id="Fill-1"></path>
                <path d="M17.414,0 L2.586,0 L0,2.586 L0,20 L20,20 L20,2.586 L17.414,0 L17.414,0 Z M16.586,2 L18,3.414 L18,4 L12.093,4 L11.593,2 L16.586,2 L16.586,2 Z M3.414,2 L8.593,2 L8.093,4 L2,4 L2,3.414 L3.414,2 L3.414,2 Z M2,18 L2,5 L8.093,5 L8.093,8 L12.093,8 L12.093,5 L18,5 L18,18 L2,18 L2,18 Z" id="Fill-2"></path>
            </g>
        </g>
    </g>
</svg>