<?xml version="1.0" encoding="UTF-8"?>
<svg width="24px" height="24px" viewBox="0 0 24 24" version="1.1" xmlns="http://www.w3.org/2000/svg" xmlns:xlink="http://www.w3.org/1999/xlink">
    <!-- Generator: Sketch 48.1 (47250) - http://www.bohemiancoding.com/sketch -->
    <title>briefcase</title>
    <desc>Created with Sketch.</desc>
    <defs></defs>
    <g id="Page-1" stroke="none" stroke-width="1" fill="none" fill-rule="evenodd">
        <g id="briefcase" fill="#000000">
            <path d="M23.015625,4.98167006 C23.25,4.98167006 23.484375,5.07535642 23.71875,5.26272912 C23.90625,5.49694501 24,5.7311609 24,6.01221996 L24,22.9694501 C24,23.2505092 23.90625,23.4847251 23.71875,23.6720978 C23.484375,23.9063136 23.25,24 23.015625,24 L0.984375,24 C0.75,24 0.515625,23.9063136 0.328125,23.6720978 C0.09375,23.4847251 0,23.2505092 0,22.9694501 L0,6.01221996 C0,5.7311609 0.09375,5.49694501 0.328125,5.26272912 C0.515625,5.07535642 0.75,4.98167006 0.984375,4.98167006 L6.984375,4.98167006 L6.984375,3.01425662 C6.984375,2.73319756 7.078125,2.49898167 7.3125,2.26476578 C7.5,2.07739308 7.734375,1.98370672 8.015625,1.98370672 L15.984375,1.98370672 C16.265625,1.98370672 16.5,2.07739308 16.734375,2.26476578 C16.921875,2.49898167 17.015625,2.73319756 17.015625,3.01425662 L17.015625,4.98167006 L23.015625,4.98167006 Z M9,4.98167006 L15,4.98167006 L15,3.99796334 L9,3.99796334 L9,4.98167006 Z M2.015625,6.99592668 L2.015625,12.9918534 L21.984375,12.9918534 L21.984375,6.99592668 L8.015625,6.99592668 L2.015625,6.99592668 Z M21.984375,13.9755601 L15,13.9755601 L15,15.9898167 C15,16.2708758 14.90625,16.5050916 14.71875,16.6924644 C14.484375,16.8798371 14.25,16.9735234 14.015625,16.9735234 L9.984375,16.9735234 C9.75,16.9735234 9.515625,16.8798371 9.328125,16.6924644 C9.09375,16.5050916 9,16.2708758 9,15.9898167 L9,13.9755601 L2.015625,13.9755601 L2.015625,18.9409369 C3.75,19.4093686 4.734375,20.4399185 5.0625,21.9857434 L18.609375,21.9857434 C18.9375,20.2525458 20.0625,19.2219959 21.984375,18.8940937 L21.984375,13.9755601 Z M11.015625,15.00611 L12.984375,15.00611 L12.984375,13.9755601 L11.015625,13.9755601 L11.015625,15.00611 Z M2.015625,21.9857434 L4.03125,21.9857434 C3.796875,21.0020367 3.09375,20.3462322 2.015625,20.0183299 L2.015625,21.9857434 Z M21.984375,21.9857434 L21.984375,19.9246436 C20.71875,20.2525458 19.921875,20.9083503 19.640625,21.9857434 L21.984375,21.9857434 Z" id="Page-1"></path>
        </g>
    </g>
</svg>