<?xml version="1.0" encoding="UTF-8"?>
<svg width="24px" height="24px" viewBox="0 0 24 24" version="1.1" xmlns="http://www.w3.org/2000/svg" xmlns:xlink="http://www.w3.org/1999/xlink">
    <!-- Generator: Sketch 48.1 (47250) - http://www.bohemiancoding.com/sketch -->
    <title>bulb-circle</title>
    <desc>Created with Sketch.</desc>
    <defs></defs>
    <g id="Page-1" stroke="none" stroke-width="1" fill="none" fill-rule="evenodd">
        <g id="bulb-circle" fill="#000000">
            <path d="M20.484375,3.515625 C22.828125,5.859375 24,8.671875 24,12 C24,15.328125 22.828125,18.140625 20.484375,20.484375 C18.140625,22.828125 15.328125,24 12,24 C8.671875,24 5.859375,22.828125 3.515625,20.484375 C1.171875,18.140625 0,15.328125 0,12 C0,8.671875 1.171875,5.859375 3.515625,3.515625 C5.859375,1.171875 8.671875,0 12,0 C15.328125,0 18.140625,1.171875 20.484375,3.515625 Z M7.171875,6.9375 C6.703125,7.171875 6.609375,7.546875 6.890625,8.0625 L7.125,8.484375 C7.40625,8.90625 7.78125,9 8.25,8.765625 L12.421875,6.28125 C12.84375,6 12.9375,5.625 12.703125,5.15625 L12.421875,4.734375 C12.1875,4.265625 11.8125,4.171875 11.296875,4.453125 L7.171875,6.9375 Z M7.21875,11.765625 C7.3125,11.953125 7.453125,12.09375 7.6875,12.140625 C7.921875,12.1875 8.109375,12.1875 8.296875,12.046875 L15.609375,7.6875 C16.078125,7.40625 16.171875,7.03125 15.890625,6.5625 L15.515625,5.953125 C15.234375,5.53125 14.859375,5.4375 14.390625,5.671875 L7.125,10.03125 C6.609375,10.3125 6.515625,10.6875 6.84375,11.15625 L7.21875,11.765625 Z M15,18.234375 L15,15.890625 C15,15.65625 14.90625,15.46875 14.765625,15.328125 C14.625,15.1875 14.4375,15.09375 14.203125,15.09375 L10.171875,15.09375 C9.65625,15.09375 9.375,15.375 9.375,15.890625 L9.375,18.234375 C9.375,18.75 9.65625,19.03125 10.171875,19.03125 L11.15625,19.03125 C11.296875,19.453125 11.625,19.6875 12.140625,19.6875 C12.5625,19.6875 12.890625,19.453125 13.171875,19.03125 L14.15625,19.03125 C14.390625,19.03125 14.578125,18.9375 14.71875,18.796875 C14.859375,18.65625 14.953125,18.46875 14.953125,18.234375 L15,18.234375 Z M15.28125,14.0625 C15.75,13.78125 15.84375,13.40625 15.5625,12.984375 L15.234375,12.5625 C15.140625,12.421875 15,12.28125 14.765625,12.234375 C14.53125,12.1875 14.34375,12.234375 14.15625,12.375 L13.359375,12.84375 C12.9375,13.078125 12.84375,13.40625 13.078125,13.875 L13.40625,14.296875 C13.640625,14.71875 14.015625,14.8125 14.484375,14.53125 L15.28125,14.0625 Z M16.96875,10.21875 C17.390625,9.890625 17.484375,9.5625 17.25,9.140625 L16.875,8.53125 C16.640625,8.0625 16.265625,7.96875 15.75,8.25 L8.671875,12.46875 C8.203125,12.75 8.109375,13.125 8.390625,13.59375 L8.765625,14.203125 C9.046875,14.625 9.421875,14.71875 9.890625,14.484375 L16.96875,10.21875 Z" id="Page-1"></path>
        </g>
    </g>
</svg>