<?xml version="1.0" encoding="UTF-8"?>
<svg width="24px" height="24px" viewBox="0 0 24 24" version="1.1" xmlns="http://www.w3.org/2000/svg" xmlns:xlink="http://www.w3.org/1999/xlink">
    <!-- Generator: Sketch 48.1 (47250) - http://www.bohemiancoding.com/sketch -->
    <title>calculate-shipping</title>
    <desc>Created with Sketch.</desc>
    <defs></defs>
    <g id="Page-1" stroke="none" stroke-width="1" fill="none" fill-rule="evenodd">
        <g id="calculate-shipping" fill="#000000">
            <path d="M24.140625,7.6196319 L24.140625,23 L10.21875,23 L10.21875,18.8609407 L3.28125,18.8609407 L3.28125,11.8527607 L0,11.8527607 L2.953125,4.42126789 L4.96875,1.45807771 L19.828125,1.45807771 L21.796875,4.46830266 L23.203125,7.6196319 L24.140625,7.6196319 Z M10.265625,9.03067485 L10.265625,7.6196319 L20.671875,7.6196319 L19.921875,6.25562372 L4.6875,6.25562372 L3.65625,9.03067485 L10.21875,9.03067485 L10.265625,9.03067485 Z M10.21875,16.0388548 L10.21875,11.805726 L6.046875,11.805726 L6.046875,16.0388548 L10.21875,16.0388548 Z M18.5625,16.0388548 L18.5625,14.6278119 L15.796875,14.6278119 L15.796875,16.0388548 L18.5625,16.0388548 Z M15.796875,17.402863 L15.796875,18.8139059 L18.5625,18.8139059 L18.5625,17.402863 L15.796875,17.402863 Z M14.390625,14.6278119 L11.578125,14.6278119 L11.578125,16.0388548 L14.390625,16.0388548 L14.390625,14.6278119 Z M11.625,18.8139059 L14.4375,18.8139059 L14.4375,17.402863 L11.625,17.402863 L11.625,18.8139059 Z M14.4375,21.5889571 L14.4375,20.2249489 L11.625,20.2249489 L11.625,21.5889571 L14.4375,21.5889571 Z M18.5625,21.5889571 L18.5625,20.2249489 L15.796875,20.2249489 L15.796875,21.5889571 L18.5625,21.5889571 Z M22.734375,20.2249489 L19.921875,20.2249489 L19.921875,21.5889571 L22.734375,21.5889571 L22.734375,20.2249489 Z M22.734375,17.402863 L19.921875,17.402863 L19.921875,18.8139059 L22.734375,18.8139059 L22.734375,17.402863 Z M22.734375,14.6278119 L19.921875,14.6278119 L19.921875,16.0388548 L22.734375,16.0388548 L22.734375,14.6278119 Z M22.6875,13.2167689 L22.6875,8.98364008 L11.578125,8.98364008 L11.578125,13.2167689 L19.96875,13.2167689 L22.6875,13.2167689 Z M14.203125,10.5357873 C14.0625,10.5357873 14.015625,10.5828221 14.015625,10.6298569 C14.015625,10.6768916 14.15625,10.7709611 14.4375,10.8650307 C14.671875,11.006135 14.8125,11.1472393 14.8125,11.3824131 C14.8125,11.7116564 14.671875,11.8997955 14.34375,11.9468303 L14.34375,12.1820041 L14.0625,12.1820041 L14.0625,11.9468303 C13.828125,11.8997955 13.640625,11.8527607 13.546875,11.7116564 L13.78125,11.3824131 L14.203125,11.5705521 C14.34375,11.5705521 14.4375,11.5235174 14.4375,11.4294479 C14.4375,11.3824131 14.296875,11.2883436 14.0625,11.1472393 C13.78125,11.006135 13.640625,10.8650307 13.640625,10.6298569 C13.640625,10.3476483 13.78125,10.1595092 14.109375,10.1124744 L14.109375,9.87730061 L14.390625,9.87730061 L14.390625,10.1124744 C14.578125,10.1595092 14.71875,10.206544 14.8125,10.3476483 L14.625,10.6768916 L14.203125,10.5357873 Z" id="Page-1"></path>
        </g>
    </g>
</svg>