<?xml version="1.0" encoding="UTF-8"?>
<svg width="24px" height="24px" viewBox="0 0 24 24" version="1.1" xmlns="http://www.w3.org/2000/svg" xmlns:xlink="http://www.w3.org/1999/xlink">
    <!-- Generator: sketchtool 44.1 (41455) - http://www.bohemiancoding.com/sketch -->
    <title>calendar-add</title>
    <desc>Created with sketchtool.</desc>
    <defs></defs>
    <g id="Page-1" stroke="none" stroke-width="1" fill="none" fill-rule="evenodd">
        <g id="calendar-add" fill="#000000">
            <path d="M13.5132383,9.36673774 L15.6150713,9.36673774 L15.6150713,8.33688699 L13.5132383,8.33688699 L13.5132383,9.36673774 Z M17.6191446,1.02985075 L17.6191446,3.08955224 L5.20366599,3.08955224 L5.20366599,1.02985075 L3.10183299,1.02985075 L3.10183299,3.08955224 L1,3.08955224 L1,23 L21.8716904,23 L21.8716904,19.8123667 L19.7698574,19.8123667 L19.7698574,9.36673774 L21.8716904,9.36673774 L21.8716904,3.08955224 L19.6720978,3.08955224 L19.6720978,1.02985075 L17.6191446,1.02985075 Z M3.10183299,9.36673774 L12.5356415,9.36673774 L12.5356415,8.33688699 L3.10183299,8.33688699 L3.10183299,5.19829424 L19.7698574,5.19829424 L19.7698574,8.33688699 L16.592668,8.33688699 L16.592668,9.36673774 L19.7698574,9.36673774 L19.7698574,20.891258 L3.10183299,20.891258 L3.10183299,9.36673774 Z M4.12830957,14.6140725 L8.33197556,14.6140725 L8.33197556,10.445629 L4.12830957,10.445629 L4.12830957,14.6140725 Z M9.35845214,14.6140725 L13.5132383,14.6140725 L13.5132383,10.445629 L9.35845214,10.445629 L9.35845214,14.6140725 Z M4.12830957,19.8614072 L8.33197556,19.8614072 L8.33197556,15.6439232 L4.12830957,15.6439232 L4.12830957,19.8614072 Z M9.35845214,19.8614072 L13.5132383,19.8614072 L13.5132383,15.6439232 L9.35845214,15.6439232 L9.35845214,19.8614072 Z M23.9735234,13.5842217 L23.9735234,15.6439232 L21.8716904,15.6439232 L21.8716904,17.7526652 L19.7698574,17.7526652 L19.7698574,15.6439232 L17.7169043,15.6439232 L17.7169043,13.5842217 L19.7698574,13.5842217 L19.7698574,11.4754797 L21.8716904,11.4754797 L21.8716904,13.5842217 L23.9735234,13.5842217 Z" id="Page-1"></path>
        </g>
    </g>
</svg>