<?xml version="1.0" encoding="UTF-8"?>
<svg width="24px" height="24px" viewBox="0 0 24 24" version="1.1" xmlns="http://www.w3.org/2000/svg" xmlns:xlink="http://www.w3.org/1999/xlink">
    <!-- Generator: sketchtool 44.1 (41455) - http://www.bohemiancoding.com/sketch -->
    <title>calendar-2</title>
    <desc>Created with sketchtool.</desc>
    <defs></defs>
    <g id="Page-1" stroke="none" stroke-width="1" fill="none" fill-rule="evenodd">
        <g id="calendar-2" fill="#000000">
            <g id="Calendar-2" transform="translate(1.000000, 2.000000)">
                <polygon id="Fill-2" points="13.008 7 15.008 7 15.008 8 13.008 8"></polygon>
                <path d="M19,1.94 L19,0 L17,0 L17,1.94 L5,1.94 L5,0 L3,0 L3,1.94 L0.977,1.94 L0.977,20.042 L21.103,20.042 L21.103,1.94 L19,1.94 L19,1.94 Z M2.978,8 L6.618,8 L2.978,11.034 L2.978,8 L2.978,8 Z M2.978,17.973 L3.035,18.041 L2.978,18.041 L2.978,17.973 L2.978,17.973 Z M3.732,18.041 L7.32,15.051 L6.68,14.282 L2.978,17.367 L2.978,15.574 L9.316,10.387 L8.684,9.613 L2.978,14.282 L2.978,12.337 L8.181,8 L12.088,8 L12.088,7 L2.978,7 L2.978,3.94 L19.103,3.94 L19.103,7 L16.03,7 L16.03,8 L19.103,8 L19.103,18.041 L3.732,18.041 L3.732,18.041 Z" id="Fill-3"></path>
                <polyline id="Fill-4" points="7.68 13.449 8.32 14.218 9.32 13.384 8.68 12.616 7.68 13.449"></polyline>
                <polygon id="Fill-5" points="14 9 17.943 9 17.943 12.943 14 12.943"></polygon>
            </g>
        </g>
    </g>
</svg>