<?xml version="1.0" encoding="UTF-8"?>
<svg width="24px" height="24px" viewBox="0 0 24 24" version="1.1" xmlns="http://www.w3.org/2000/svg" xmlns:xlink="http://www.w3.org/1999/xlink">
    <!-- Generator: sketchtool 44.1 (41455) - http://www.bohemiancoding.com/sketch -->
    <title>camera-minus</title>
    <desc>Created with sketchtool.</desc>
    <defs></defs>
    <g id="Page-1" stroke="none" stroke-width="1" fill="none" fill-rule="evenodd">
        <g id="camera-minus" fill="#000000">
            <g id="Imported-Layers" transform="translate(1.000000, 3.000000)">
                <path d="M14,3 L6,3 L6,6 L0,6 L0,20 L20,20 L20,6 L14,6 L14,3 L14,3 Z M8,5 L12,5 L12,6 L8,6 L8,5 Z M10,17 C7.794,17 6,15.206 6,13 C6,10.794 7.794,9 10,9 C12.206,9 14,10.794 14,13 C14,15.206 12.206,17 10,17 L10,17 Z M2,8 L6.69,8 C5.071,9.076 4,10.914 4,13 C4,15.086 5.071,16.925 6.69,18 L2,18 L2,8 L2,8 Z M18,8 L18,18 L13.31,18 C14.929,16.925 16,15.086 16,13 C16,10.914 14.929,9.076 13.31,8 L18,8 L18,8 Z" id="Fill-1"></path>
                <path d="M10,9.5 C8.07,9.5 6.5,11.07 6.5,13 C6.5,14.93 8.07,16.5 10,16.5 C11.93,16.5 13.5,14.93 13.5,13 C13.5,11.07 11.93,9.5 10,9.5 L10,9.5 Z M10,15.5 C8.622,15.5 7.5,14.378 7.5,13 C7.5,11.622 8.622,10.5 10,10.5 C11.378,10.5 12.5,11.622 12.5,13 C12.5,14.378 11.378,15.5 10,15.5 L10,15.5 Z" id="Fill-2"></path>
                <polygon id="Fill-3" points="16 0 22 0 22 2 16 2"></polygon>
            </g>
        </g>
    </g>
</svg>