<?xml version="1.0" encoding="UTF-8"?>
<svg width="24px" height="24px" viewBox="0 0 24 24" version="1.1" xmlns="http://www.w3.org/2000/svg" xmlns:xlink="http://www.w3.org/1999/xlink">
    <!-- Generator: sketchtool 44.1 (41455) - http://www.bohemiancoding.com/sketch -->
    <title>camera-cross</title>
    <desc>Created with sketchtool.</desc>
    <defs></defs>
    <g id="Page-1" stroke="none" stroke-width="1" fill="none" fill-rule="evenodd">
        <g id="camera-cross" fill="#000000">
            <g id="Imported-Layers" transform="translate(1.000000, 1.000000)">
                <path d="M14,8 L14,5 L6,5 L6,8 L4.879,8 L4.879,7 L2,7 L2,8 L0,8 L0,22 L20,22 L20,8 L14,8 L14,8 Z M8,7 L12,7 L12,8 L8,8 L8,7 Z M10,19 C7.794,19 6,17.206 6,15 C6,12.794 7.794,11 10,11 C12.206,11 14,12.794 14,15 C14,17.206 12.206,19 10,19 L10,19 Z M2,10 L6.69,10 C5.071,11.076 4,12.914 4,15 C4,17.086 5.071,18.925 6.69,20 L2,20 L2,10 L2,10 Z M18,20 L13.31,20 C14.929,18.925 16,17.086 16,15 C16,12.914 14.929,11.076 13.31,10 L18,10 L18,20 L18,20 Z" id="Fill-1"></path>
                <path d="M10,11.5 C8.07,11.5 6.5,13.07 6.5,15 C6.5,16.93 8.07,18.5 10,18.5 C11.93,18.5 13.5,16.93 13.5,15 C13.5,13.07 11.93,11.5 10,11.5 L10,11.5 Z M10,17.5 C8.622,17.5 7.5,16.378 7.5,15 C7.5,13.622 8.622,12.5 10,12.5 C11.378,12.5 12.5,13.622 12.5,15 C12.5,16.378 11.378,17.5 10,17.5 L10,17.5 Z" id="Fill-2"></path>
                <polyline id="Fill-3" points="17.586 5.828 19 4.414 20.414 5.828 21.828 4.414 20.414 3 21.828 1.586 20.414 0.172 19 1.586 17.586 0.172 16.172 1.586 17.586 3 16.172 4.414 17.586 5.828"></polyline>
            </g>
        </g>
    </g>
</svg>