<?xml version="1.0" encoding="UTF-8"?>
<svg width="24px" height="24px" viewBox="0 0 24 24" version="1.1" xmlns="http://www.w3.org/2000/svg" xmlns:xlink="http://www.w3.org/1999/xlink">
    <!-- Generator: sketchtool 44.1 (41455) - http://www.bohemiancoding.com/sketch -->
    <title>card</title>
    <desc>Created with sketchtool.</desc>
    <defs></defs>
    <g id="Page-1" stroke="none" stroke-width="1" fill="none" fill-rule="evenodd">
        <g id="card" fill="#000000">
            <path d="M4.21875,15.6872038 L9,15.6872038 L9,12.8436019 L4.21875,12.8436019 L4.21875,15.6872038 Z M17.859375,15.6872038 L19.78125,15.6872038 L19.78125,13.8388626 L17.859375,13.8388626 L17.859375,15.6872038 Z M14.953125,15.6872038 L16.921875,15.6872038 L16.921875,13.8388626 L14.953125,13.8388626 L14.953125,15.6872038 Z M19.96875,4.26540284 C21.09375,4.26540284 22.03125,4.64454976 22.828125,5.45023697 C23.625,6.25592417 24,7.20379147 24,8.34123223 L24,15.6872038 C24,16.8720379 23.578125,17.8672986 22.734375,18.7203791 C21.890625,19.5734597 20.90625,20 19.734375,20 L4.21875,20 C3.046875,20 2.0625,19.5734597 1.265625,18.7677725 C0.421875,17.9620853 0,16.9668246 0,15.7819905 L0,8.43601896 C0,7.2985782 0.421875,6.30331754 1.21875,5.49763033 C2.015625,4.69194313 3,4.26540284 4.171875,4.26540284 L19.96875,4.26540284 Z M4.171875,7.10900474 C3.796875,7.10900474 3.46875,7.25118483 3.234375,7.48815166 C3,7.77251185 2.859375,8.1042654 2.859375,8.48341232 L2.859375,8.57819905 L21.1875,8.57819905 L21.1875,8.38862559 C21.1875,8.05687204 21.09375,7.72511848 20.859375,7.48815166 C20.625,7.25118483 20.296875,7.10900474 19.96875,7.10900474 L4.171875,7.10900474 Z M19.734375,17.1563981 C20.15625,17.1563981 20.484375,17.014218 20.765625,16.7298578 C21,16.4454976 21.140625,16.1137441 21.1875,15.6872038 L21.1875,11.4218009 L2.859375,11.4218009 L2.859375,15.7819905 C2.859375,16.1611374 3,16.492891 3.234375,16.7298578 C3.46875,17.014218 3.796875,17.1563981 4.21875,17.1563981 L19.734375,17.1563981 Z" id="Page-1"></path>
        </g>
    </g>
</svg>