<?xml version="1.0" encoding="UTF-8"?>
<svg width="24px" height="24px" viewBox="0 0 24 24" version="1.1" xmlns="http://www.w3.org/2000/svg" xmlns:xlink="http://www.w3.org/1999/xlink">
    <!-- Generator: Sketch 48.1 (47250) - http://www.bohemiancoding.com/sketch -->
    <title>cart-2-cross</title>
    <desc>Created with Sketch.</desc>
    <defs></defs>
    <g id="Page-1" stroke="none" stroke-width="1" fill="none" fill-rule="evenodd">
        <g id="cart-2-cross" fill="#000000">
            <g id="Imported-Layers" transform="translate(1.000000, 2.000000)">
                <path d="M3,13.0909816 L1.711,6 L0,6 L0,4 L2,4 C2.371,4 3.273,4.136 3.629,5.395 L3.73939254,6 L15,6 C15.404,6 15.769,6.244 15.924,6.617 C16.026,6.864 16.023,7.136 15.927,7.375 C15.81,7.703 14.687,11.086 13.949,13.315 C13.814,13.724 13.431,14 13,14 L5,14 L5,15 L13,15 L13,17 L4,17 C3.448,17 3,16.552 3,16 L3,13.0909816 Z M4.10432656,8 L4.83419459,12 L12.278,12 C12.914,10.078 13.329,8.825 13.608,8 L4.10432656,8 Z" id="Combined-Shape"></path>
                <path d="M3,18.5 C3,19.328 3.672,20 4.5,20 C5.328,20 6,19.328 6,18.5 C6,17.672 5.328,17 4.5,17 C3.672,17 3,17.672 3,18.5" id="Fill-3"></path>
                <path d="M10,18.5 C10,19.328 10.672,20 11.5,20 C12.328,20 13,19.328 13,18.5 C13,17.672 12.328,17 11.5,17 C10.672,17 10,17.672 10,18.5" id="Fill-4"></path>
                <polyline id="Fill-5" points="21.828 1.586 20.414 0.172 19 1.586 17.586 0.172 16.172 1.586 17.586 3 16.172 4.414 17.586 5.828 19 4.414 20.414 5.828 21.828 4.414 20.414 3 21.828 1.586"></polyline>
            </g>
        </g>
    </g>
</svg>