<?xml version="1.0" encoding="UTF-8"?>
<svg width="24px" height="24px" viewBox="0 0 24 24" version="1.1" xmlns="http://www.w3.org/2000/svg" xmlns:xlink="http://www.w3.org/1999/xlink">
    <!-- Generator: sketchtool 44.1 (41455) - http://www.bohemiancoding.com/sketch -->
    <title>cart-delivery-2</title>
    <desc>Created with sketchtool.</desc>
    <defs></defs>
    <g id="Page-1" stroke="none" stroke-width="1" fill="none" fill-rule="evenodd">
        <g id="cart-delivery-2" fill="#000000">
            <g id="Cart-Delivery-2" transform="translate(0.000000, 4.000000)">
                <path d="M20,11 C20.447,11 20.84,10.703 20.962,10.273 C21.698,7.671 22.821,3.722 22.94,3.342 C23.023,3.112 23.022,2.853 22.924,2.617 C22.769,2.244 22.404,2 22,2 L8.693,2 C8.128,0.738 7.161,0 6,0 L4,0 L4,2 L6,2 C6.644,2 6.977,3.061 7.038,3.275 L9,10.142 L9,13 C9,13.497 9.368,13.89 9.843,13.968 C9.343,14.244 9,14.77 9,15.381 C9,16.275 9.725,17 10.619,17 C11.513,17 12.238,16.275 12.238,15.381 C12.238,14.793 11.922,14.284 11.454,14 L18.546,14 C18.078,14.284 17.762,14.793 17.762,15.381 C17.762,16.275 18.487,17 19.381,17 C20.275,17 21,16.275 21,15.381 C21,14.793 20.684,14.284 20.216,14 L21,14 L21,12 L11,12 L11,11 L20,11 L20,11 Z M10.755,9 L9.897,6 L15.042,6 L15.042,5 L9.612,5 L9.326,4 L20.67,4 C20.588,4.279 20.491,4.614 20.38,5 L19.042,5 L19.042,6 L20.095,6 C19.866,6.804 19.588,7.787 19.244,9 L10.755,9 L10.755,9 Z" id="Fill-2"></path>
                <polygon id="Fill-3" points="16.042 5 18 5 18 6 16.042 6"></polygon>
                <polygon id="Fill-4" points="0.029 5 6.002 5 6.002 6 0.029 6"></polygon>
                <polygon id="Fill-5" points="2 7 6.9 7 6.9 8 2 8"></polygon>
                <polygon id="Fill-6" points="4.101 9 8 9 8 10 4.101 10"></polygon>
            </g>
        </g>
    </g>
</svg>