<?xml version="1.0" encoding="UTF-8"?>
<svg width="24px" height="24px" viewBox="0 0 24 24" version="1.1" xmlns="http://www.w3.org/2000/svg" xmlns:xlink="http://www.w3.org/1999/xlink">
    <!-- Generator: sketchtool 44.1 (41455) - http://www.bohemiancoding.com/sketch -->
    <title>check-2</title>
    <desc>Created with sketchtool.</desc>
    <defs></defs>
    <g id="Page-1" stroke="none" stroke-width="1" fill="none" fill-rule="evenodd">
        <g id="check-2" fill="#000000">
            <path d="M7.96284785,21.9539749 C8.47809095,21.9539749 8.94649376,21.7698745 9.36805629,21.4476987 L23.6075019,4.37238494 C24.122745,3.77405858 24.122745,3.22175732 23.6543421,2.62343096 C23.0454185,2.07112971 22.4833351,1.79497908 22.0149323,1.79497908 C21.7807309,1.79497908 21.4996892,1.93305439 21.2654878,2.16317992 L7.82232701,17.7656904 L2.81041689,13.3012552 C2.48253492,13.0251046 2.20149323,12.8870293 1.87361126,12.8870293 C1.45204873,12.8870293 1.03048619,13.1171548 0.655763941,13.5313808 C0.234201407,13.9456067 0,14.4058577 0,14.8200837 C0,15.0962343 0.140520844,15.3723849 0.468402815,15.6485356 L6.65131997,21.4937238 C7.0728825,21.8158996 7.44760475,22 7.86916729,22 L7.96284785,21.9539749 Z" id="Page-1"></path>
        </g>
    </g>
</svg>