<?xml version="1.0" encoding="UTF-8"?>
<svg width="24px" height="24px" viewBox="0 0 24 24" version="1.1" xmlns="http://www.w3.org/2000/svg" xmlns:xlink="http://www.w3.org/1999/xlink">
    <!-- Generator: sketchtool 44.1 (41455) - http://www.bohemiancoding.com/sketch -->
    <title>check</title>
    <desc>Created with sketchtool.</desc>
    <defs></defs>
    <g id="Page-1" stroke="none" stroke-width="1" fill="none" fill-rule="evenodd">
        <g id="check" fill="#000000">
            <path d="M7.45513085,21.0998259 C8.06419537,21.7594052 8.76696213,22.042082 9.61028223,21.9949692 C10.5473046,21.9949692 11.2969224,21.7122924 11.8591358,21.0998259 L23.3845106,6.82464465 C24.1809796,5.78816285 24.2278307,4.75168105 23.4313617,3.76231205 C22.7754461,3.10273272 22.1195304,2.67871744 21.4167637,2.4902662 C20.7139969,2.34892777 20.0580813,2.53737901 19.4021657,3.05561991 L9.42287776,14.8338222 L4.73776607,10.6407822 C3.61333927,9.55718759 2.39521023,9.65141321 1.03652784,10.9234591 C0.427463315,11.5359256 0.05265438,12.1955049 0.00580326309,12.8550842 C-0.0410478538,13.5146636 0.193207731,14.1271301 0.802272251,14.6924838 L7.45513085,21.0998259 Z" id="Page-1"></path>
        </g>
    </g>
</svg>