<?xml version="1.0" encoding="UTF-8"?>
<svg width="24px" height="24px" viewBox="0 0 24 24" version="1.1" xmlns="http://www.w3.org/2000/svg" xmlns:xlink="http://www.w3.org/1999/xlink">
    <!-- Generator: Sketch 48.1 (47250) - http://www.bohemiancoding.com/sketch -->
    <title>chevron-up</title>
    <desc>Created with Sketch.</desc>
    <defs></defs>
    <g id="Page-1" stroke="none" stroke-width="1" fill="none" fill-rule="evenodd">
        <g id="chevron-up" fill="#000000">
            <path d="M22.3465553,16.1524548 C22.3465553,15.7105943 22.1461378,15.3178295 21.7954071,14.875969 L12.4759916,5.74418605 C12.125261,5.4005168 11.7244259,5.25322997 11.1732777,5.25322997 C10.6221294,5.25322997 10.2212944,5.4005168 9.87056367,5.74418605 L0.551148225,14.875969 C0.200417537,15.3178295 0,15.7105943 0,16.1524548 C0,16.6434109 0.200417537,17.0852713 0.551148225,17.4289406 L1.65344468,18.5090439 C2.00417537,18.8527132 2.40501044,19 2.90605428,19 C3.45720251,19 3.85803758,18.8527132 4.20876827,18.5090439 L11.1732777,11.6847545 L18.1377871,18.5090439 C18.4885177,18.8527132 18.8893528,19 19.440501,19 C19.9415449,19 20.3924843,18.8527132 20.743215,18.5090439 L21.7954071,17.4289406 C22.1461378,17.0852713 22.3465553,16.6434109 22.3465553,16.1524548 Z" id="Page-1"></path>
        </g>
    </g>
</svg>