<?xml version="1.0" encoding="UTF-8"?>
<svg width="24px" height="24px" viewBox="0 0 24 24" version="1.1" xmlns="http://www.w3.org/2000/svg" xmlns:xlink="http://www.w3.org/1999/xlink">
    <!-- Generator: sketchtool 44.1 (41455) - http://www.bohemiancoding.com/sketch -->
    <title>circle-1-backward</title>
    <desc>Created with sketchtool.</desc>
    <defs></defs>
    <g id="Page-1" stroke="none" stroke-width="1" fill="none" fill-rule="evenodd">
        <g id="circle-1-backward" fill="#000000">
            <g id="Play-Back---circle" transform="translate(1.000000, 1.000000)">
                <path d="M11,2 C15.963,2 20,6.038 20,11 C20,15.963 15.963,20 11,20 C6.037,20 2,15.963 2,11 C2,6.038 6.037,2 11,2 M11,0 C4.925,0 0,4.925 0,11 C0,17.076 4.925,22 11,22 C17.075,22 22,17.076 22,11 C22,4.925 17.075,0 11,0" id="Fill-2"></path>
                <path d="M9,9.886 L9,12.113 L7.441,11 L9,9.886 M11,6 L4,11 L11,16 L11,6" id="Fill-3"></path>
                <path d="M14,9.886 L14,12.114 L12.441,11 L14,9.886 M16,6 L9,11 L16,16 L16,6" id="Fill-4"></path>
            </g>
        </g>
    </g>
</svg>