<?xml version="1.0" encoding="UTF-8"?>
<svg width="24px" height="24px" viewBox="0 0 24 24" version="1.1" xmlns="http://www.w3.org/2000/svg" xmlns:xlink="http://www.w3.org/1999/xlink">
    <!-- Generator: sketchtool 44.1 (41455) - http://www.bohemiancoding.com/sketch -->
    <title>circle-2-forward</title>
    <desc>Created with sketchtool.</desc>
    <defs></defs>
    <g id="Page-1" stroke="none" stroke-width="1" fill="none" fill-rule="evenodd">
        <g id="circle-2-forward" fill="#000000">
            <g id="Play-Forward---circle---filled" transform="translate(1.000000, 0.000000)">
                <path d="M11.008,2.985 C15.97,2.985 20.008,7.022 20.008,11.985 C20.008,16.947 15.97,20.985 11.008,20.985 C6.045,20.985 2.008,16.947 2.008,11.985 C2.008,7.022 6.045,2.985 11.008,2.985 M11.008,0.985 C4.932,0.985 0.008,5.91 0.008,11.985 C0.008,18.06 4.932,22.985 11.008,22.985 C17.083,22.985 22.008,18.06 22.008,11.985 C22.008,5.91 17.083,0.985 11.008,0.985" id="Fill-2"></path>
                <polyline id="Fill-3" points="12.007 8.936 16.287 11.993 12.007 15.049 12.007 8.936"></polyline>
                <path d="M13.008,10.879 L14.567,11.992 L13.008,13.106 L13.008,10.879 M11.008,6.992 L11.008,16.992 L18.008,11.992 L11.008,6.992" id="Fill-4"></path>
                <polyline id="Fill-5" points="7.007 8.936 11.287 11.993 7.007 15.049 7.007 8.936"></polyline>
                <path d="M8.007,10.879 L9.567,11.992 L8.007,13.106 L8.007,10.879 M6.007,6.992 L6.007,16.992 L13.008,11.992 L6.007,6.992" id="Fill-6"></path>
            </g>
        </g>
    </g>
</svg>