<?xml version="1.0" encoding="UTF-8"?>
<svg width="24px" height="24px" viewBox="0 0 24 24" version="1.1" xmlns="http://www.w3.org/2000/svg" xmlns:xlink="http://www.w3.org/1999/xlink">
    <!-- Generator: Sketch 48.1 (47250) - http://www.bohemiancoding.com/sketch -->
    <title>circle-1-forward</title>
    <desc>Created with Sketch.</desc>
    <defs></defs>
    <g id="Page-1" stroke="none" stroke-width="1" fill="none" fill-rule="evenodd">
        <g id="circle-1-forward" fill="#000000">
            <g id="Play-Forward---circle" transform="translate(1.000000, 1.000000)">
                <path d="M11,2 C15.963,2 20,6.038 20,11 C20,15.963 15.963,20 11,20 C6.037,20 2,15.963 2,11 C2,6.038 6.037,2 11,2 M11,0 C4.925,0 0,4.925 0,11 C0,17.076 4.925,22 11,22 C17.075,22 22,17.076 22,11 C22,4.925 17.075,0 11,0" id="Fill-2"></path>
                <path d="M13,9.886 L14.559,11 L13,12.114 L13,9.886 M11,12.4285714 L6,16 L6,6 L11,9.57142857 L11,6 L18,11 L11,16 L11,12.4285714 Z M8,9.886 L8,12.114 L9.559,11 L8,9.886 Z" id="Combined-Shape"></path>
            </g>
        </g>
    </g>
</svg>