<?xml version="1.0" encoding="UTF-8"?>
<svg width="24px" height="24px" viewBox="0 0 24 24" version="1.1" xmlns="http://www.w3.org/2000/svg" xmlns:xlink="http://www.w3.org/1999/xlink">
    <!-- Generator: sketchtool 44.1 (41455) - http://www.bohemiancoding.com/sketch -->
    <title>circle-warning</title>
    <desc>Created with sketchtool.</desc>
    <defs></defs>
    <g id="Page-1" stroke="none" stroke-width="1" fill="none" fill-rule="evenodd">
        <g id="circle-warning" fill="#000000">
            <g id="Warning---circle" transform="translate(1.000000, 1.000000)">
                <path d="M16.6150726,3.97092737 C15.0747912,2.73803583 13.1220403,2 11,2 C6.037,2 2,6.037 2,11 C2,13.1220403 2.73803583,15.0747912 3.97092737,16.6150726 L16.6150726,3.97092737 Z M18.0290726,5.38492737 L5.38492737,18.0290726 C6.92520881,19.2619642 8.87795972,20 11,20 C15.963,20 20,15.963 20,11 C20,8.87795972 19.2619642,6.92520881 18.0290726,5.38492737 Z M11,0 C17.075,0 22,4.925 22,11 C22,17.075 17.075,22 11,22 C4.925,22 0,17.075 0,11 C0,4.925 4.925,0 11,0 Z" id="Combined-Shape"></path>
            </g>
        </g>
    </g>
</svg>