<?xml version="1.0" encoding="UTF-8"?>
<svg width="24px" height="24px" viewBox="0 0 24 24" version="1.1" xmlns="http://www.w3.org/2000/svg" xmlns:xlink="http://www.w3.org/1999/xlink">
    <!-- Generator: sketchtool 44.1 (41455) - http://www.bohemiancoding.com/sketch -->
    <title>close-circle-1</title>
    <desc>Created with sketchtool.</desc>
    <defs></defs>
    <g id="Page-1" stroke="none" stroke-width="1" fill="none" fill-rule="evenodd">
        <g id="close-circle-1" fill="#000000">
            <path d="M12,10.453125 L14.296875,8.15625 L15.84375,9.703125 L13.546875,12 L15.84375,14.296875 L14.296875,15.84375 L12,13.546875 L9.703125,15.84375 L8.15625,14.296875 L10.453125,12 L8.15625,9.703125 L9.703125,8.15625 L12,10.453125 Z M20.484375,3.515625 C22.828125,5.859375 24,8.671875 24,12 C24,15.328125 22.828125,18.140625 20.484375,20.484375 C18.140625,22.828125 15.328125,24 12,24 C8.671875,24 5.859375,22.828125 3.515625,20.484375 C1.171875,18.140625 0,15.328125 0,12 C0,8.671875 1.171875,5.859375 3.515625,3.515625 C5.859375,1.171875 8.671875,0 12,0 C15.328125,0 18.140625,1.171875 20.484375,3.515625 Z M5.0625,5.0625 C3.140625,6.984375 2.203125,9.28125 2.203125,12 C2.203125,14.71875 3.140625,17.015625 5.0625,18.9375 C6.984375,20.859375 9.28125,21.796875 12,21.796875 C14.71875,21.796875 17.015625,20.859375 18.9375,18.9375 C20.859375,17.015625 21.796875,14.71875 21.796875,12 C21.796875,9.28125 20.859375,6.984375 18.9375,5.0625 C17.015625,3.140625 14.71875,2.203125 12,2.203125 C9.28125,2.203125 6.984375,3.140625 5.0625,5.0625 Z" id="Page-1"></path>
        </g>
    </g>
</svg>