<?xml version="1.0" encoding="UTF-8"?>
<svg width="24px" height="24px" viewBox="0 0 24 24" version="1.1" xmlns="http://www.w3.org/2000/svg" xmlns:xlink="http://www.w3.org/1999/xlink">
    <!-- Generator: Sketch 48.1 (47250) - http://www.bohemiancoding.com/sketch -->
    <title>close-circle</title>
    <desc>Created with Sketch.</desc>
    <defs></defs>
    <g id="Page-1" stroke="none" stroke-width="1" fill="none" fill-rule="evenodd">
        <g id="close-circle" fill="#000000">
            <path d="M20.484375,3.515625 C22.828125,5.859375 24,8.671875 24,12 C24,15.328125 22.828125,18.140625 20.484375,20.484375 C18.140625,22.828125 15.328125,24 12,24 C8.671875,24 5.859375,22.828125 3.515625,20.484375 C1.171875,18.140625 0,15.328125 0,12 C0,8.671875 1.171875,5.859375 3.515625,3.515625 C5.859375,1.171875 8.671875,0 12,0 C15.328125,0 18.140625,1.171875 20.484375,3.515625 Z M13.21875,12.234375 L16.40625,9.09375 C16.828125,8.671875 16.828125,8.296875 16.40625,7.875 C15.984375,7.453125 15.609375,7.453125 15.1875,7.875 L12,11.0625 L8.8125,7.875 C8.390625,7.453125 8.015625,7.453125 7.59375,7.875 C7.171875,8.296875 7.171875,8.671875 7.59375,9.09375 L10.78125,12.1875 L7.59375,15.375 C7.21875,15.75 7.21875,16.125 7.59375,16.546875 C8.015625,16.96875 8.390625,16.96875 8.8125,16.546875 L12,13.359375 L15.1875,16.546875 C15.609375,16.96875 15.984375,16.96875 16.40625,16.546875 C16.78125,16.125 16.78125,15.75 16.40625,15.375 L13.21875,12.234375 Z" id="Page-1"></path>
        </g>
    </g>
</svg>