<?xml version="1.0" encoding="UTF-8"?>
<svg width="24px" height="24px" viewBox="0 0 24 24" version="1.1" xmlns="http://www.w3.org/2000/svg" xmlns:xlink="http://www.w3.org/1999/xlink">
    <!-- Generator: sketchtool 44.1 (41455) - http://www.bohemiancoding.com/sketch -->
    <title>cloud-upload</title>
    <desc>Created with sketchtool.</desc>
    <defs></defs>
    <g id="Page-1" stroke="none" stroke-width="1" fill="none" fill-rule="evenodd">
        <g id="cloud-upload" fill="#000000">
            <g id="Imported-Layers" transform="translate(0.000000, 1.000000)">
                <path d="M14,10.828 L14,20 L12,20 L12,10.828 L10.707,12.121 L9.293,10.707 L13,7 L16.707,10.707 L15.293,12.121 L14,10.828 Z M18.979,4.103 C21.837,4.575 24,7.062 24,10 C24,13.309 21.309,16 18,16 C17.315,16 16.641,15.876 16,15.647 L16,13.446 C16.613,13.804 17.298,14 18,14 C20.206,14 22,12.206 22,10 C22,7.915 20.36,6.172 18.267,6.031 L17.679,5.992 L17.428,5.458 C16.442,3.357 14.311,2 12,2 C9.036,2 6.486,4.213 6.068,7.149 L5.943,8.024 L4.95,8 C3.319,8.027 2,9.363 2,11 C2,12.654 3.346,14 5,14 C5.84,14 6.622,13.651 7.202,13.019 L7.8,12.366 L8.52,12.881 C9.547,13.614 10.772,13.973 12,13.976 L12,15.975 C10.621,15.973 9.246,15.637 8.046,14.95 C7.176,15.625 6.102,16 5,16 C2.243,16 0,13.757 0,11 C0,8.499 1.846,6.421 4.247,6.057 C5.126,2.552 8.325,0 12,0 C14.894,0 17.574,1.593 18.979,4.103 Z" id="Combined-Shape"></path>
            </g>
        </g>
    </g>
</svg>