<?xml version="1.0" encoding="UTF-8"?>
<svg width="24px" height="24px" viewBox="0 0 24 24" version="1.1" xmlns="http://www.w3.org/2000/svg" xmlns:xlink="http://www.w3.org/1999/xlink">
    <!-- Generator: Sketch 48.1 (47250) - http://www.bohemiancoding.com/sketch -->
    <title>cloud-2</title>
    <desc>Created with Sketch.</desc>
    <defs></defs>
    <g id="Page-1" stroke="none" stroke-width="1" fill="none" fill-rule="evenodd">
        <g id="cloud-2" fill="#000000">
            <path d="M18,20 C17.034,20 16.088,19.765 15.231,19.317 C12.939,20.33 10.206,20.187 8.047,18.95 C7.176,19.625 6.102,20 5,20 C2.243,20 0,17.757 0,15 C0,12.499 1.846,10.421 4.247,10.057 C5.126,6.552 8.324,4 12,4 C14.893,4 17.573,5.593 18.979,8.103 C21.838,8.575 24,11.061 24,14 C24,17.309 21.309,20 18,20 L18,20 Z M15.327,17.025 L15.821,17.347 C16.478,17.774 17.23,18 18,18 C20.206,18 22,16.206 22,14 C22,11.915 20.36,10.172 18.267,10.031 L17.68,9.992 L17.429,9.459 C16.442,7.357 14.312,6 12,6 C9.036,6 6.486,8.213 6.068,11.149 L5.943,12.024 L4.949,12 C3.318,12.027 2,13.363 2,15 C2,16.654 3.346,18 5,18 C5.84,18 6.622,17.651 7.202,17.019 L7.801,16.366 L8.52,16.881 C10.354,18.191 12.829,18.352 14.807,17.301 L15.327,17.025 L15.327,17.025 Z" id="Imported-Layers"></path>
        </g>
    </g>
</svg>