<?xml version="1.0" encoding="UTF-8"?>
<svg width="24px" height="24px" viewBox="0 0 24 24" version="1.1" xmlns="http://www.w3.org/2000/svg" xmlns:xlink="http://www.w3.org/1999/xlink">
    <!-- Generator: Sketch 48.1 (47250) - http://www.bohemiancoding.com/sketch -->
    <title>cloud-1</title>
    <desc>Created with Sketch.</desc>
    <defs></defs>
    <g id="Page-1" stroke="none" stroke-width="1" fill="none" fill-rule="evenodd">
        <g id="cloud-1" fill="#000000">
            <g id="Imported-Layers" transform="translate(0.000000, 4.000000)">
                <path d="M18.979,4.103 C17.574,1.593 14.894,0 12,0 C8.325,0 5.126,2.552 4.247,6.057 C1.846,6.421 0,8.499 0,11 C0,13.757 2.243,16 5,16 C6.103,16 7.176,15.625 8.046,14.95 C10.207,16.187 12.94,16.329 15.231,15.317 C16.088,15.765 17.034,16 18,16 C21.309,16 24,13.309 24,10 C24,7.062 21.837,4.575 18.979,4.103 L18.979,4.103 Z M18,14 C17.24,14 16.497,13.778 15.848,13.362 L18.313,11.391 L17.688,10.609 L13.824,13.7 C12.96,13.973 12.048,14.042 11.157,13.915 L14.313,11.391 L13.688,10.609 L9.928,13.617 C9.433,13.436 8.958,13.193 8.521,12.881 L8.483,12.854 L10.313,11.391 L9.688,10.609 L5.517,13.946 C5.347,13.976 5.176,14 5,14 C4.409,14 3.861,13.823 3.396,13.526 C4.134,12.925 5.275,11.953 7.065,10.375 L6.404,9.625 C4.933,10.922 3.528,12.111 2.649,12.841 C2.248,12.331 2,11.697 2,11 C2,9.363 3.319,8.027 4.95,8 L5.943,8.024 L6.068,7.149 C6.486,4.213 9.036,2 12,2 C14.311,2 16.442,3.357 17.428,5.458 L17.679,5.992 L18.267,6.031 C20.36,6.172 22,7.915 22,10 C22,12.206 20.206,14 18,14 L18,14 Z" id="Fill-1"></path>
                <polyline id="Fill-2" points="7.537 8.625 8.199 9.375 9.331 8.375 8.669 7.625 7.537 8.625"></polyline>
            </g>
        </g>
    </g>
</svg>