<?xml version="1.0" encoding="UTF-8"?>
<svg width="24px" height="24px" viewBox="0 0 24 24" version="1.1" xmlns="http://www.w3.org/2000/svg" xmlns:xlink="http://www.w3.org/1999/xlink">
    <!-- Generator: sketchtool 44.1 (41455) - http://www.bohemiancoding.com/sketch -->
    <title>code-1</title>
    <desc>Created with sketchtool.</desc>
    <defs></defs>
    <g id="Page-1" stroke="none" stroke-width="1" fill="none" fill-rule="evenodd">
        <g id="code-1" fill="#000000">
            <g id="Code-1" transform="translate(0.000000, 5.000000)">
                <path d="M8,5.28 C7.173,5.28 6.5,5.953 6.5,6.78 C6.5,7.607 7.173,8.28 8,8.28 C8.827,8.28 9.5,7.607 9.5,6.78 C9.5,5.953 8.827,5.28 8,5.28" id="Fill-1"></path>
                <path d="M12,5.28 C11.173,5.28 10.5,5.953 10.5,6.78 C10.5,7.607 11.173,8.28 12,8.28 C12.827,8.28 13.5,7.607 13.5,6.78 C13.5,5.953 12.827,5.28 12,5.28" id="Fill-2"></path>
                <path d="M17.5,6.78 C17.5,5.953 16.827,5.28 16,5.28 C15.173,5.28 14.5,5.953 14.5,6.78 C14.5,7.607 15.173,8.28 16,8.28 C16.827,8.28 17.5,7.607 17.5,6.78" id="Fill-3"></path>
                <path d="M7.413,10.987 L2.201,6.745 L7.294,2.655 C8.048,2.05 8.168,0.949 7.563,0.196 L7.406,0 L0.74,5.358 C0.276,5.667 0,6.184 0,6.741 C0,7.297 0.276,7.814 0.663,8.066 L7.401,13.555 L7.645,13.255 C8.208,12.564 8.104,11.549 7.413,10.987" id="Fill-4"></path>
                <path d="M23.26,5.358 L16.594,0 L16.437,0.196 C15.832,0.949 15.952,2.05 16.706,2.655 L21.799,6.745 L16.587,10.987 C15.896,11.549 15.792,12.564 16.355,13.255 L16.599,13.555 L23.337,8.066 C23.724,7.814 24,7.297 24,6.741 C24,6.184 23.724,5.667 23.26,5.358" id="Fill-5"></path>
            </g>
        </g>
    </g>
</svg>