<?xml version="1.0" encoding="UTF-8"?>
<svg width="24px" height="24px" viewBox="0 0 24 24" version="1.1" xmlns="http://www.w3.org/2000/svg" xmlns:xlink="http://www.w3.org/1999/xlink">
    <!-- Generator: Sketch 48.1 (47250) - http://www.bohemiancoding.com/sketch -->
    <title>community-watch-circle</title>
    <desc>Created with Sketch.</desc>
    <defs></defs>
    <g id="Page-1" stroke="none" stroke-width="1" fill="none" fill-rule="evenodd">
        <g id="community-watch-circle" fill="#000000">
            <path d="M12.1399398,2.19035612e-06 C15.4210046,0.0468745446 18.2333458,1.2186834 20.5769635,3.56230112 C22.8737089,5.90591883 24.0455177,8.71826009 23.9986454,12.0461972 C23.951773,15.3741344 22.7799642,18.233348 20.4363465,20.5300934 C18.0927288,22.8737111 15.2803875,24.0455199 11.9524503,23.9986476 C8.62451319,23.9517752 5.81217193,22.7799664 3.51542657,20.4363487 C1.17180886,18.1396033 0,15.2803897 0,11.9524525 C0,8.62451538 1.17180886,5.76530177 3.56229892,3.42168405 C5.90591664,1.12493869 8.76513025,-0.0468701639 12.1399398,2.19035612e-06 Z M16.4990687,11.7649631 C16.7803028,11.7649631 17.0146646,11.6712184 17.2490264,11.4368566 C17.4833881,11.2024949 17.5771329,10.9212607 17.5771329,10.5931543 C17.5771329,10.2650478 17.4833881,10.030686 17.2490264,9.79632423 C17.0146646,9.60883482 16.7803028,9.51509011 16.4990687,9.51509011 C15.8897281,9.51509011 15.5616216,9.84319659 15.4210046,10.4525372 L13.4054933,10.1713031 L12.5149186,8.39015361 C12.8898974,8.24953654 13.0773868,7.92143006 13.0773868,7.49957887 C13.0773868,7.17147239 12.9836421,6.93711062 12.7961527,6.70274885 C12.5617909,6.51525943 12.3274292,6.42151473 11.9993227,6.42151473 C11.6712162,6.42151473 11.4368544,6.51525943 11.249365,6.70274885 C11.0150033,6.93711062 10.9212585,7.17147239 10.9212585,7.49957887 C10.9212585,7.87455771 11.108748,8.15579183 11.4837268,8.39015361 L10.5931521,10.1713031 L8.57764083,10.4525372 C8.43702377,9.84319659 8.10891729,9.51509011 7.49957668,9.51509011 C7.21834256,9.51509011 6.98398079,9.60883482 6.74961902,9.79632423 C6.51525724,10.030686 6.42151254,10.2650478 6.42151254,10.5931543 C6.42151254,10.9212607 6.51525724,11.1556225 6.74961902,11.3431119 C6.98398079,11.5774737 7.21834256,11.6712184 7.49957668,11.6712184 C7.82768316,11.6712184 8.06204494,11.5774737 8.29640671,11.3431119 L9.74944969,12.7961549 L9.42134321,14.8585385 L9.28072615,14.8585385 C8.95261967,14.8585385 8.7182579,14.9522832 8.53076848,15.1397726 C8.29640671,15.3741344 8.202662,15.6084962 8.202662,15.9366026 C8.202662,16.2178368 8.29640671,16.4521985 8.53076848,16.6865603 C8.7182579,16.9209221 8.95261967,17.0146668 9.28072615,17.0146668 C9.60883263,17.0146668 9.8431944,16.9209221 10.0775562,16.6865603 C10.2650456,16.4521985 10.3587903,16.2178368 10.3587903,15.9366026 C10.3587903,15.8897303 10.3119179,15.7022409 10.2181732,15.4210067 L11.9993227,14.4835597 L13.8273445,15.4210067 C13.7804722,15.6553685 13.7335998,15.8428579 13.7335998,15.9366026 C13.7335998,16.2647091 13.8273445,16.4990709 14.0617063,16.7334327 C14.2491957,16.9677944 14.4835575,17.0615391 14.811664,17.0615391 C15.1397704,17.0615391 15.3741322,16.9677944 15.608494,16.7334327 C15.7959834,16.4990709 15.8897281,16.2647091 15.8897281,15.9366026 C15.8897281,15.6553685 15.7959834,15.4210067 15.608494,15.186645 C15.3741322,14.9522832 15.1397704,14.8585385 14.811664,14.8585385 C14.7647916,14.8585385 14.7647916,14.8585385 14.7179192,14.8585385 C14.6710469,14.9054108 14.6241745,14.9054108 14.5773022,14.9054108 L14.2491957,12.8898996 L15.7022387,11.4368566 C15.9834728,11.6712184 16.2647069,11.7649631 16.4990687,11.7649631 Z" id="Page-1"></path>
        </g>
    </g>
</svg>