<?xml version="1.0" encoding="UTF-8"?>
<svg width="24px" height="24px" viewBox="0 0 24 24" version="1.1" xmlns="http://www.w3.org/2000/svg" xmlns:xlink="http://www.w3.org/1999/xlink">
    <!-- Generator: Sketch 48.1 (47250) - http://www.bohemiancoding.com/sketch -->
    <title>device-mouse</title>
    <desc>Created with Sketch.</desc>
    <defs></defs>
    <g id="Page-1" stroke="none" stroke-width="1" fill="none" fill-rule="evenodd">
        <g id="device-mouse" fill="#000000">
            <g id="Imported-Layers" transform="translate(5.000000, 1.000000)">
                <path d="M7,0 C3.14,0 0,3.14 0,7 L0,15 C0,18.86 3.14,22 7,22 C10.86,22 14,18.86 14,15 L14,7 C14,3.14 10.86,0 7,0 L7,0 Z M12,15 C12,17.757 9.757,20 7,20 C4.243,20 2,17.757 2,15 L2,7 C2,4.243 4.243,2 7,2 C9.757,2 12,4.243 12,7 L12,15 L12,15 Z" id="Fill-1"></path>
                <path d="M7,5 C6.45,5 6,5.45 6,6 L6,8 C6,8.55 6.45,9 7,9 C7.55,9 8,8.55 8,8 L8,6 C8,5.45 7.55,5 7,5" id="Fill-2"></path>
            </g>
        </g>
    </g>
</svg>