<?xml version="1.0" encoding="UTF-8"?>
<svg width="24px" height="24px" viewBox="0 0 24 24" version="1.1" xmlns="http://www.w3.org/2000/svg" xmlns:xlink="http://www.w3.org/1999/xlink">
    <!-- Generator: sketchtool 44.1 (41455) - http://www.bohemiancoding.com/sketch -->
    <title>dimension-weight-2</title>
    <desc>Created with sketchtool.</desc>
    <defs></defs>
    <g id="Page-1" stroke="none" stroke-width="1" fill="none" fill-rule="evenodd">
        <g id="dimension-weight-2" fill="#000000">
            <g id="Fill-3-+-Fill-5" transform="translate(2.000000, 2.000000)">
                <path d="M3.2235,16.8595 L4.3905,18.0265 L3.0105,18.0295 L3.2235,16.8595 Z M8.3835,18.0195 L5.8025,18.0245 L3.4415,15.6625 L3.8395,13.4755 L8.3835,18.0195 Z M15.2185,8.0005 L17.7195,18.0025 L13.7875,18.0095 L9.3135,13.5355 L8.6065,14.2425 L12.3765,18.0125 L9.7955,18.0165 L4.0565,12.2785 L4.8345,8.0005 L15.2185,8.0005 Z M7.9995,4.0005 C7.9995,2.8955 8.8955,2.0005 9.9995,2.0005 C11.1045,2.0005 11.9995,2.8955 11.9995,4.0005 C11.9995,5.1045 11.1045,6.0005 9.9995,6.0005 C8.8955,6.0005 7.9995,5.1045 7.9995,4.0005 L7.9995,4.0005 Z M16.7815,6.0005 L13.4435,6.0005 C13.7885,5.4095 13.9995,4.7315 13.9995,4.0005 C13.9995,1.7945 12.2055,0.0005 9.9995,0.0005 C7.7945,0.0005 5.9995,1.7945 5.9995,4.0005 C5.9995,4.7315 6.2115,5.4095 6.5565,6.0005 L3.1655,6.0005 L0.6145,20.0335 L20.2805,19.9975 L16.7815,6.0005 Z" id="Fill-3"></path>
                <polygon id="Fill-5" points="8 12.2929 6.791 11.0839 6.084 11.7909 7.293 12.9999"></polygon>
            </g>
        </g>
    </g>
</svg>