<?xml version="1.0" encoding="UTF-8"?>
<svg width="24px" height="24px" viewBox="0 0 24 24" version="1.1" xmlns="http://www.w3.org/2000/svg" xmlns:xlink="http://www.w3.org/1999/xlink">
    <!-- Generator: sketchtool 44.1 (41455) - http://www.bohemiancoding.com/sketch -->
    <title>dimension-weight-1</title>
    <desc>Created with sketchtool.</desc>
    <defs></defs>
    <g id="Page-1" stroke="none" stroke-width="1" fill="none" fill-rule="evenodd">
        <g id="dimension-weight-1" fill="#000000">
            <path d="M6.3469,13 L13.9999,13 L13.9999,12 L6.5139,12 L6.8469,10 L17.1529,10 L17.4869,12 L15.9999,12 L15.9999,13 L17.6529,13 L18.8189,20 L5.1809,20 L6.3469,13 Z M9.9999,6 C9.9999,4.895 10.8959,4 11.9999,4 C13.1049,4 13.9999,4.895 13.9999,6 C13.9999,7.105 13.1049,8 11.9999,8 C10.8959,8 9.9999,7.105 9.9999,6 L9.9999,6 Z M19.6799,13 L19.6869,13 L19.6779,12.988 L18.8469,8 L15.4439,8 C15.7879,7.409 15.9999,6.732 15.9999,6 C15.9999,3.794 14.2059,2 11.9999,2 C9.7949,2 7.9999,3.794 7.9999,6 C7.9999,6.732 8.2119,7.409 8.5569,8 L5.1529,8 L2.8189,22 L21.1809,22 L19.6799,13 Z" id="Fill-3"></path>
        </g>
    </g>
</svg>