<?xml version="1.0" encoding="UTF-8"?>
<svg width="24px" height="24px" viewBox="0 0 24 24" version="1.1" xmlns="http://www.w3.org/2000/svg" xmlns:xlink="http://www.w3.org/1999/xlink">
    <!-- Generator: sketchtool 44.1 (41455) - http://www.bohemiancoding.com/sketch -->
    <title>docs-folder-2</title>
    <desc>Created with sketchtool.</desc>
    <defs></defs>
    <g id="Page-1" stroke="none" stroke-width="1" fill="none" fill-rule="evenodd">
        <g id="docs-folder-2" fill="#000000">
            <g id="Imported-Layers" transform="translate(1.000000, 2.000000)">
                <path d="M14.586,0 L13.586,1 L3,1 C1.701,1 1,2.03 1,3 L1,4 L0,4 L0,20 L22,20 L22,0 L14.586,0 L14.586,0 Z M2,11.628 L10.676,6 L13.58,6 L2,13.653 L2,11.628 L2,11.628 Z M2,10.436 L2,8.258 L5.529,6 L8.839,6 L2,10.436 L2,10.436 Z M2,7.072 L2,6 L3.674,6 L2,7.072 L2,7.072 Z M20,18 L7.339,18 L9.377,16.6 L8.811,15.775 L5.572,18 L2.224,18 L10.285,12.411 L9.715,11.589 L2,16.938 L2,14.851 L15.394,6 L20,6 L20,18 L20,18 Z M3,4 L3,3 L14.414,3 L15.414,2 L20,2 L20,4 L3,4 L3,4 Z" id="Fill-1"></path>
                <polyline id="Fill-2" points="11.331 10.596 11.919 11.404 13.294 10.404 12.706 9.596 11.331 10.596"></polyline>
            </g>
        </g>
    </g>
</svg>