<?xml version="1.0" encoding="UTF-8"?>
<svg width="24px" height="24px" viewBox="0 0 24 24" version="1.1" xmlns="http://www.w3.org/2000/svg" xmlns:xlink="http://www.w3.org/1999/xlink">
    <!-- Generator: Sketch 48.1 (47250) - http://www.bohemiancoding.com/sketch -->
    <title>docs-clipboard-2</title>
    <desc>Created with Sketch.</desc>
    <defs></defs>
    <g id="Page-1" stroke="none" stroke-width="1" fill="none" fill-rule="evenodd">
        <g id="docs-clipboard-2" fill="#000000">
            <g id="Imported-Layers" transform="translate(3.000000, 1.000000)">
                <polygon id="Fill-1" points="3.969 16 13.976 16 13.976 17 3.969 17"></polygon>
                <polygon id="Fill-2" points="3.969 12 13.969 12 13.969 13 3.969 13"></polygon>
                <polygon id="Fill-3" points="3.969 10 13.969 10 13.969 11 3.969 11"></polygon>
                <polygon id="Fill-4" points="3.969 14 11.969 14 11.969 15 3.969 15"></polygon>
                <polygon id="Fill-5" points="3.969 8 11.872 8 11.872 9 3.969 9"></polygon>
                <path d="M13.969,0 L3.969,0 L3.969,5 L14.001,5 L13.969,0 L13.969,0 Z M4.969,4 L4.969,1 L12.975,1 L12.995,4 L4.969,4 L4.969,4 Z" id="Fill-6"></path>
                <path d="M6.469,2 C6.193,2 5.969,2.224 5.969,2.5 C5.969,2.776 6.193,3 6.469,3 C6.745,3 6.969,2.776 6.969,2.5 C6.969,2.224 6.745,2 6.469,2" id="Fill-7"></path>
                <path d="M11.469,2 C11.193,2 10.969,2.224 10.969,2.5 C10.969,2.776 11.193,3 11.469,3 C11.745,3 11.969,2.776 11.969,2.5 C11.969,2.224 11.745,2 11.469,2" id="Fill-8"></path>
                <path d="M16.014,2 L14.969,2 L14.969,4 L15.969,4.006 L15.969,20 L2,20 L2,4.19 C2.001,4.108 2.006,4.046 2.013,4 L2.969,4 L2.969,2 L1.969,2 C1.514,2 0.027,2.156 0,4.177 L0,22 L17.969,22 L17.969,4 C17.969,2.785 17.201,2 16.014,2" id="Fill-9"></path>
            </g>
        </g>
    </g>
</svg>