<?xml version="1.0" encoding="UTF-8"?>
<svg width="24px" height="24px" viewBox="0 0 24 24" version="1.1" xmlns="http://www.w3.org/2000/svg" xmlns:xlink="http://www.w3.org/1999/xlink">
    <!-- Generator: sketchtool 44.1 (41455) - http://www.bohemiancoding.com/sketch -->
    <title>docs-folder-1</title>
    <desc>Created with sketchtool.</desc>
    <defs></defs>
    <g id="Page-1" stroke="none" stroke-width="1" fill="none" fill-rule="evenodd">
        <g id="docs-folder-1" fill="#000000">
            <g id="Imported-Layers" transform="translate(1.000000, 3.000000)">
                <path d="M21,3 L21,0 L15,0 L14,1 L2,1 C1,1 1,2 1,2 L1,3 L0,3 L0,19 L22,19 L22,3 L21,3 L21,3 Z M1.999,2.028 C2,2.02 2.001,2.01 2.003,2 L14.414,2 L15.414,1 L20,1 L20,3 L2,3 L1.999,2.028 L1.999,2.028 Z M2,7.258 L5.529,5 L8.839,5 L2,9.436 L2,7.258 L2,7.258 Z M3.674,5 L2,6.072 L2,5 L3.674,5 L3.674,5 Z M2,10.628 L10.676,5 L13.58,5 L2,12.653 L2,10.628 L2,10.628 Z M20,17 L7.339,17 L9.377,15.6 L8.81,14.775 L5.573,17 L2.224,17 L10.285,11.411 L9.715,10.589 L2,15.938 L2,13.852 L15.394,5 L20,5 L20,17 L20,17 Z" id="Fill-1"></path>
                <polyline id="Fill-2" points="11.331 9.596 11.919 10.404 13.294 9.404 12.706 8.596 11.331 9.596"></polyline>
            </g>
        </g>
    </g>
</svg>