<?xml version="1.0" encoding="UTF-8"?>
<svg width="24px" height="24px" viewBox="0 0 24 24" version="1.1" xmlns="http://www.w3.org/2000/svg" xmlns:xlink="http://www.w3.org/1999/xlink">
    <!-- Generator: sketchtool 44.1 (41455) - http://www.bohemiancoding.com/sketch -->
    <title>docs-pages-1</title>
    <desc>Created with sketchtool.</desc>
    <defs></defs>
    <g id="Page-1" stroke="none" stroke-width="1" fill="none" fill-rule="evenodd">
        <g id="docs-pages-1" fill="#000000">
            <g id="Imported-Layers" transform="translate(2.000000, 0.000000)">
                <path d="M20,20 L4,20 L4,0 L16.414,0 L20,3.586 L20,20 L20,20 Z M6,18 L18,18 L18,4.414 L15.586,2 L6,2 L6,18 L6,18 Z" id="Fill-6"></path>
                <polygon id="Fill-7" points="15 4.003 19 4.003 19 5 15 5"></polygon>
                <polygon id="Fill-8" points="15 1 15.997 1 15.997 4.004 15 4.004"></polygon>
                <polyline id="Fill-9" points="18 24 0 24 0 4 3 4 3 6 2 6 2 22 16 22 16 21 18 21 18 24"></polyline>
            </g>
        </g>
    </g>
</svg>