<?xml version="1.0" encoding="UTF-8"?>
<svg width="24px" height="24px" viewBox="0 0 24 24" version="1.1" xmlns="http://www.w3.org/2000/svg" xmlns:xlink="http://www.w3.org/1999/xlink">
    <!-- Generator: Sketch 48.1 (47250) - http://www.bohemiancoding.com/sketch -->
    <title>docs-pages-2</title>
    <desc>Created with Sketch.</desc>
    <defs></defs>
    <g id="Page-1" stroke="none" stroke-width="1" fill="none" fill-rule="evenodd">
        <g id="docs-pages-2" fill="#000000">
            <g id="Imported-Layers" transform="translate(2.000000, 0.000000)">
                <polygon id="Fill-1" points="8 14 16.007 14 16.007 15 8 15"></polygon>
                <polygon id="Fill-2" points="8 10 16 10 16 11 8 11"></polygon>
                <polygon id="Fill-3" points="8 8 16 8 16 9 8 9"></polygon>
                <polygon id="Fill-4" points="8 12 14 12 14 13 8 13"></polygon>
                <polygon id="Fill-5" points="8 6 13.903 6 13.903 7 8 7"></polygon>
                <path d="M15.997,2.411 L15.997,4.003 L17.589,4.003 L15.997,2.411 Z M15,2 L6,2 L6,18 L18,18 L18,5 L15,5 L15,4.004 L15,2 Z M20,20 L4,20 L4,0 L16.414,0 L20,3.586 L20,20 Z" id="Combined-Shape"></path>
                <polyline id="Fill-9" points="18 24 0 24 0 4 3 4 3 6 2 6 2 22 16 22 16 21 18 21 18 24"></polyline>
            </g>
        </g>
    </g>
</svg>