<?xml version="1.0" encoding="UTF-8"?>
<svg width="24px" height="24px" viewBox="0 0 24 24" version="1.1" xmlns="http://www.w3.org/2000/svg" xmlns:xlink="http://www.w3.org/1999/xlink">
    <!-- Generator: Sketch 48.1 (47250) - http://www.bohemiancoding.com/sketch -->
    <title>download</title>
    <desc>Created with Sketch.</desc>
    <defs></defs>
    <g id="Page-1" stroke="none" stroke-width="1" fill="none" fill-rule="evenodd">
        <g id="download" fill="#000000">
            <g id="Imported-Layers" transform="translate(4.000000, 2.000000)">
                <polyline id="Fill-1" points="13.707 7.707 12.293 6.293 9 9.586 9 0 7 0 7 9.586 3.707 6.293 2.293 7.707 8 13.414 13.707 7.707"></polyline>
                <path d="M0,20 L16,20 L16,14.014 L0,14.014 L0,20 Z M8.693,16.014 L10.279,16.014 L8.293,18 L6.707,18 L8.693,16.014 L8.693,16.014 Z M5.293,18 L3.707,18 L5.693,16.014 L7.279,16.014 L5.293,18 L5.293,18 Z M2,16.014 L4.279,16.014 L2.293,18 L2,18 L2,16.014 L2,16.014 Z M14,18 L9.707,18 L11.693,16.014 L14,16.014 L14,18 L14,18 Z" id="Fill-2"></path>
            </g>
        </g>
    </g>
</svg>