<?xml version="1.0" encoding="UTF-8"?>
<svg width="24px" height="24px" viewBox="0 0 24 24" version="1.1" xmlns="http://www.w3.org/2000/svg" xmlns:xlink="http://www.w3.org/1999/xlink">
    <!-- Generator: sketchtool 44.1 (41455) - http://www.bohemiancoding.com/sketch -->
    <title>edit-full-screen</title>
    <desc>Created with sketchtool.</desc>
    <defs></defs>
    <g id="Page-1" stroke="none" stroke-width="1" fill="none" fill-rule="evenodd">
        <g id="edit-full-screen" fill="#000000">
            <g id="Full-Screen" transform="translate(2.000000, 2.000000)">
                <polyline id="Fill-2" points="6.586 12 2 16.586 2 12 0 12 0 20 8 20 8 18 3.414 18 8 13.414 6.586 12"></polyline>
                <polyline id="Fill-3" points="0 0 0 8 2 8 2 3.414 6.586 8 8 6.586 3.414 2 8 2 8 0 0 0"></polyline>
                <polyline id="Fill-4" points="18 0 12 0 12 2 16.586 2 12 6.586 13.414 8 18 3.414 18 8 20 8 20 0 18 0"></polyline>
                <polyline id="Fill-5" points="18 16.586 13.414 12 12 13.414 16.586 18 12 18 12 20 20 20 20 12 18 12 18 16.586"></polyline>
            </g>
        </g>
    </g>
</svg>