<?xml version="1.0" encoding="UTF-8"?>
<svg width="24px" height="24px" viewBox="0 0 24 24" version="1.1" xmlns="http://www.w3.org/2000/svg" xmlns:xlink="http://www.w3.org/1999/xlink">
    <!-- Generator: Sketch 48.1 (47250) - http://www.bohemiancoding.com/sketch -->
    <title>edit</title>
    <desc>Created with Sketch.</desc>
    <defs></defs>
    <g id="Page-1" stroke="none" stroke-width="1" fill="none" fill-rule="evenodd">
        <g id="edit" fill="#000000">
            <path d="M24,24 L0,24 L0,0 L16.5322896,0 L13.5264188,3.00587084 L3.00587084,3.00587084 L3.00587084,20.9941292 L20.9941292,20.9941292 L20.9941292,10.4735812 L24,7.46771037 L24,24 Z M24,4.46183953 L12.0234834,16.4853229 L7.5146771,16.4853229 L7.5146771,11.9765166 L19.7260274,0 L24,4.46183953 Z M19.7260274,2.16046967 L18.4579256,3.3816047 L20.7123288,5.68297456 L21.9334638,4.46183953 L19.7260274,2.16046967 Z M13.2446184,13.1976517 L10.8493151,10.8023483 L9.01761252,12.6340509 L9.01761252,13.4794521 L10.5205479,14.9823875 L11.3659491,14.9823875 L13.2446184,13.1976517 Z" id="Page-1"></path>
        </g>
    </g>
</svg>