<?xml version="1.0" encoding="UTF-8"?>
<svg width="24px" height="24px" viewBox="0 0 24 24" version="1.1" xmlns="http://www.w3.org/2000/svg" xmlns:xlink="http://www.w3.org/1999/xlink">
    <!-- Generator: sketchtool 44.1 (41455) - http://www.bohemiancoding.com/sketch -->
    <title>edit-add-here</title>
    <desc>Created with sketchtool.</desc>
    <defs></defs>
    <g id="Page-1" stroke="none" stroke-width="1" fill="none" fill-rule="evenodd">
        <g id="edit-add-here" fill="#000000">
            <g id="Add-Here" transform="translate(2.000000, 2.000000)">
                <polyline id="Fill-2" points="2 12 0 12 0 20 8 20 8 18 2 18 2 12"></polyline>
                <polyline id="Fill-3" points="2 2 8 2 8 0 0 0 0 8 2 8 2 2"></polyline>
                <polyline id="Fill-4" points="18 0 12 0 12 2 18 2 18 8 20 8 20 0 18 0"></polyline>
                <polyline id="Fill-5" points="18 18 12 18 12 20 20 20 20 12 18 12 18 18"></polyline>
                <polyline id="Fill-6" points="15 11 15 9 11 9 11 5 9 5 9 9 5 9 5 11 9 11 9 15 11 15 11 11 15 11"></polyline>
            </g>
        </g>
    </g>
</svg>