<?xml version="1.0" encoding="UTF-8"?>
<svg width="24px" height="24px" viewBox="0 0 24 24" version="1.1" xmlns="http://www.w3.org/2000/svg" xmlns:xlink="http://www.w3.org/1999/xlink">
    <!-- Generator: sketchtool 44.1 (41455) - http://www.bohemiancoding.com/sketch -->
    <title>edit-pencil</title>
    <desc>Created with sketchtool.</desc>
    <defs></defs>
    <g id="Page-1" stroke="none" stroke-width="1" fill="none" fill-rule="evenodd">
        <g id="edit-pencil" fill="#000000">
            <path d="M19.1846675,8.12121212 L15.8876978,4.82424242 L3.74224321,16.969697 L3.7327194,17.008658 L7.00025187,20.2761905 L7.03921291,20.2666667 L19.1846675,8.12121212 Z M19.9361826,7.36969697 L21.730122,5.57575758 L18.4331523,2.27878788 L16.6392129,4.07272727 L19.9361826,7.36969697 Z M5.79245966,20.5714286 L3.4374813,18.2164502 L2.67557654,21.3333333 L5.79245966,20.5714286 Z M17.0270917,0.775757576 C17.4149705,0.387878788 17.899819,0.193939394 18.4331523,0.193939394 C18.9664856,0.193939394 19.4513341,0.387878788 19.8392129,0.775757576 L23.2331523,4.16969697 C23.6210311,4.55757576 23.8149705,5.04242424 23.8149705,5.57575758 C23.8149705,6.10909091 23.6210311,6.59393939 23.2331523,6.98181818 L8.20284927,22.0121212 C8.10587957,22.1090909 8.00890988,22.1575758 7.96042503,22.1575758 L0.639212906,24 L0.542243209,24 C0.105879573,24 -0.0395749729,23.8060606 0.00890987559,23.369697 L1.85133412,16.0484848 C1.85133412,16 1.89981897,15.9030303 1.99678866,15.8060606 L17.0270917,0.775757576 Z" id="Page-1"></path>
        </g>
    </g>
</svg>