<?xml version="1.0" encoding="UTF-8"?>
<svg width="24px" height="24px" viewBox="0 0 24 24" version="1.1" xmlns="http://www.w3.org/2000/svg" xmlns:xlink="http://www.w3.org/1999/xlink">
    <!-- Generator: sketchtool 44.1 (41455) - http://www.bohemiancoding.com/sketch -->
    <title>emo-1-smile</title>
    <desc>Created with sketchtool.</desc>
    <defs></defs>
    <g id="Page-1" stroke="none" stroke-width="1" fill="none" fill-rule="evenodd">
        <g id="emo-1-smile" fill="#000000">
            <g id="Emo-Smile-2" transform="translate(1.000000, 1.000000)">
                <path d="M11,20 C6.037,20 2,15.963 2,11 C2,6.037 6.037,2 11,2 C15.963,2 20,6.037 20,11 C20,15.963 15.963,20 11,20 M11,0 C4.925,0 0,4.925 0,11 C0,17.075 4.925,22 11,22 C17.075,22 22,17.075 22,11 C22,4.925 17.075,0 11,0" id="Fill-9"></path>
                <path d="M7,11 C7.552,11 8,10.552 8,10 C8,9.448 7.552,9 7,9 C6.448,9 6,9.448 6,10 C6,10.552 6.448,11 7,11" id="Fill-11"></path>
                <path d="M15,11 C15.552,11 16,10.552 16,10 C16,9.448 15.552,9 15,9 C14.448,9 14,9.448 14,10 C14,10.552 14.448,11 15,11" id="Fill-13"></path>
                <path d="M7.0961,15.0919 C8.0861,15.9519 9.3911,16.4669 11.0321,16.4669 C12.6741,16.4669 13.9801,15.9469 14.9701,15.0779 C15.5691,14.5519 15.9311,14.0219 16.1011,13.6479 C16.2061,13.4179 16.1041,13.1459 15.8741,13.0409 C15.6431,12.9359 15.3721,13.0379 15.2671,13.2689 C15.2411,13.3249 15.1771,13.4419 15.0701,13.5979 C14.8861,13.8669 14.6531,14.1369 14.3651,14.3889 C13.5381,15.1149 12.4451,15.5509 11.0321,15.5509 C9.6181,15.5509 8.5241,15.1189 7.6971,14.3999 C7.4101,14.1499 7.1761,13.8829 6.9931,13.6169 C6.8861,13.4629 6.8221,13.3479 6.7961,13.2919 C6.6911,13.0619 6.4191,12.9609 6.1891,13.0669 C5.9591,13.1719 5.8581,13.4439 5.9631,13.6739 C6.1341,14.0449 6.4971,14.5709 7.0961,15.0919" id="Fill-3"></path>
            </g>
        </g>
    </g>
</svg>