<?xml version="1.0" encoding="UTF-8"?>
<svg width="24px" height="24px" viewBox="0 0 24 24" version="1.1" xmlns="http://www.w3.org/2000/svg" xmlns:xlink="http://www.w3.org/1999/xlink">
    <!-- Generator: Sketch 48.1 (47250) - http://www.bohemiancoding.com/sketch -->
    <title>emo-2-happy</title>
    <desc>Created with Sketch.</desc>
    <defs></defs>
    <g id="Page-1" stroke="none" stroke-width="1" fill="none" fill-rule="evenodd">
        <g id="emo-2-happy" fill="#000000">
            <g id="Emo-Happy2" transform="translate(1.000000, 1.000000)">
                <path d="M11,0 C4.925,0 0,4.925 0,11 C0,17.075 4.925,22 11,22 C17.075,22 22,17.075 22,11 C22,4.925 17.075,0 11,0 L11,0 Z M11,20 C6.037,20 2,15.963 2,11 C2,6.037 6.037,2 11,2 C15.963,2 20,6.037 20,11 C20,15.963 15.963,20 11,20 L11,20 Z" id="Fill-2"></path>
                <path d="M15.368,9.021 C15.253,9.007 15.131,9 15,9 C14.846,9 14.701,9.013 14.565,9.036 C13.642,9.192 13,10.047 13,10.983 L13,11 C13.006,10.993 13.719,10 15,10 C15.859,10 16.401,10.402 17,11 L17,10.977 C17,10.016 16.322,9.132 15.368,9.021" id="Fill-3"></path>
                <path d="M9,11 L9,10.977 C9,10.016 8.322,9.132 7.368,9.021 C7.253,9.007 7.131,9 7,9 C6.846,9 6.701,9.013 6.565,9.036 C5.642,9.192 5,10.047 5,10.983 L5,11 C5.006,10.993 5.719,10 7,10 C7.859,10 8.401,10.402 9,11" id="Fill-4"></path>
                <path d="M6.106,13.5 L5.748,13.531 L5.474,14.124 L5.649,14.372 C6.019,14.894 8.017,17.5 11,17.5 C13.983,17.5 15.981,14.894 16.349,14.374 L16.531,14.074 L16.2,13.5 L6.106,13.5 L6.106,13.5 Z M11,16.5 C9.201,16.5 7.802,15.324 7.043,14.5 L14.958,14.5 C14.199,15.323 12.799,16.5 11,16.5 L11,16.5 Z" id="Fill-5"></path>
            </g>
        </g>
    </g>
</svg>