<?xml version="1.0" encoding="UTF-8"?>
<svg width="24px" height="24px" viewBox="0 0 24 24" version="1.1" xmlns="http://www.w3.org/2000/svg" xmlns:xlink="http://www.w3.org/1999/xlink">
    <!-- Generator: Sketch 48.1 (47250) - http://www.bohemiancoding.com/sketch -->
    <title>emo-1-sad</title>
    <desc>Created with Sketch.</desc>
    <defs></defs>
    <g id="Page-1" stroke="none" stroke-width="1" fill="none" fill-rule="evenodd">
        <g id="emo-1-sad" fill="#000000">
            <g id="Emo-Sad-1" transform="translate(1.000000, 1.000000)">
                <path d="M11,0 C4.925,0 0,4.925 0,11 C0,17.075 4.925,22 11,22 C17.075,22 22,17.075 22,11 C22,4.925 17.075,0 11,0 L11,0 Z M11,20 C6.037,20 2,15.963 2,11 C2,6.037 6.037,2 11,2 C15.963,2 20,6.037 20,11 C20,15.963 15.963,20 11,20 L11,20 Z" id="Fill-2"></path>
                <path d="M8,10 C8,9.448 7.552,9 7,9 C6.448,9 6,9.448 6,10 C6,10.552 6.448,11 7,11 C7.552,11 8,10.552 8,10" id="Fill-3"></path>
                <path d="M15,9 C14.448,9 14,9.448 14,10 C14,10.552 14.448,11 15,11 C15.552,11 16,10.552 16,10 C16,9.448 15.552,9 15,9" id="Fill-4"></path>
                <path d="M11,12.5 C8.933,12.5 7.399,13.279 6.565,14.754 C6.429,14.994 6.513,15.299 6.754,15.435 C6.994,15.572 7.299,15.487 7.435,15.246 C8.091,14.088 9.291,13.5 11,13.5 C13.685,13.5 14.465,15.033 14.545,15.208 C14.629,15.392 14.811,15.5 15.001,15.5 L15.209,15.454 C15.459,15.34 15.57,15.043 15.455,14.792 C14.97,13.734 13.513,12.5 11,12.5" id="Fill-5"></path>
            </g>
        </g>
    </g>
</svg>