<?xml version="1.0" encoding="UTF-8"?>
<svg width="24px" height="24px" viewBox="0 0 24 24" version="1.1" xmlns="http://www.w3.org/2000/svg" xmlns:xlink="http://www.w3.org/1999/xlink">
    <!-- Generator: sketchtool 44.1 (41455) - http://www.bohemiancoding.com/sketch -->
    <title>emo-2-smile</title>
    <desc>Created with sketchtool.</desc>
    <defs></defs>
    <g id="Page-1" stroke="none" stroke-width="1" fill="none" fill-rule="evenodd">
        <g id="emo-2-smile" fill="#000000">
            <g id="Emo-Smile-2" transform="translate(1.000000, 1.000000)">
                <path d="M11,0 C4.925,0 0,4.925 0,11 C0,17.075 4.925,22 11,22 C17.075,22 22,17.075 22,11 C22,4.925 17.075,0 11,0 L11,0 Z M11,20 C6.037,20 2,15.963 2,11 C2,6.037 6.037,2 11,2 C15.963,2 20,6.037 20,11 C20,15.963 15.963,20 11,20 L11,20 Z" id="Fill-2"></path>
                <path d="M15,10 C15.859,10 16.401,10.402 17,11 C17,9.94 16.179,9.039 15.12,9.002 L15,9 C14.848,9 14.705,9.013 14.571,9.035 C13.644,9.19 13,10.049 13,10.989 L13,11 C13.006,10.993 13.719,10 15,10" id="Fill-3"></path>
                <path d="M7,10 C7.859,10 8.401,10.402 9,11 L9,10.977 C9,10.016 8.322,9.132 7.368,9.021 C7.253,9.007 7.131,9 7,9 C6.846,9 6.701,9.013 6.565,9.036 C5.642,9.192 5,10.047 5,10.983 L5,11 C5.006,10.993 5.719,10 7,10" id="Fill-4"></path>
                <path d="M17.176,12.533 C16.922,12.436 16.631,12.565 16.532,12.823 C16.475,12.974 15.086,16.5 11,16.5 C6.525,16.5 5.523,13.019 5.483,12.87 C5.41,12.604 5.136,12.452 4.87,12.518 C4.604,12.59 4.446,12.862 4.517,13.128 C4.528,13.172 5.739,17.5 11,17.5 C15.791,17.5 17.452,13.219 17.468,13.176 C17.565,12.917 17.435,12.63 17.176,12.533" id="Fill-5"></path>
            </g>
        </g>
    </g>
</svg>