<?xml version="1.0" encoding="UTF-8"?>
<svg width="24px" height="24px" viewBox="0 0 24 24" version="1.1" xmlns="http://www.w3.org/2000/svg" xmlns:xlink="http://www.w3.org/1999/xlink">
    <!-- Generator: Sketch 48.1 (47250) - http://www.bohemiancoding.com/sketch -->
    <title>emo-2-sad</title>
    <desc>Created with Sketch.</desc>
    <defs></defs>
    <g id="Page-1" stroke="none" stroke-width="1" fill="none" fill-rule="evenodd">
        <g id="emo-2-sad" fill="#000000">
            <g id="Emo-Sad-2" transform="translate(1.000000, 1.000000)">
                <path d="M11,0 C4.925,0 0,4.925 0,11 C0,17.075 4.925,22 11,22 C17.075,22 22,17.075 22,11 C22,4.925 17.075,0 11,0 L11,0 Z M11,20 C6.037,20 2,15.963 2,11 C2,6.037 6.037,2 11,2 C15.963,2 20,6.037 20,11 C20,15.963 15.963,20 11,20 L11,20 Z" id="Fill-2"></path>
                <path d="M6.632,10.979 C6.747,10.993 6.869,11 7,11 C7.154,11 7.3,10.987 7.435,10.964 C8.358,10.808 9,9.953 9,9.017 L9,9 C8.994,9.007 8.281,10 7,10 C6.141,10 5.599,9.598 5,9 L5,9.023 C5,9.984 5.678,10.867 6.632,10.979" id="Fill-3"></path>
                <path d="M15,10 C14.141,10 13.599,9.598 13,9 L13,9.023 C13,9.984 13.678,10.867 14.632,10.979 C14.747,10.993 14.869,11 15,11 C15.154,11 15.3,10.987 15.435,10.964 C16.358,10.808 17,9.953 17,9.017 L17,9 C16.994,9.007 16.281,10 15,10" id="Fill-4"></path>
                <path d="M11.048,13.5 C8.116,13.5 6.1,15.06 5.697,15.628 C5.538,15.853 5.591,16.165 5.816,16.325 C6.042,16.483 6.354,16.432 6.513,16.206 C6.78,15.83 8.519,14.5 11.048,14.5 C13.577,14.5 15.315,15.83 15.582,16.206 C15.68,16.344 15.834,16.417 15.991,16.417 C16.091,16.417 16.191,16.387 16.279,16.325 C16.505,16.165 16.558,15.853 16.398,15.628 C15.996,15.06 13.98,13.5 11.048,13.5" id="Fill-5"></path>
            </g>
        </g>
    </g>
</svg>