<?xml version="1.0" encoding="UTF-8"?>
<svg width="24px" height="24px" viewBox="0 0 24 24" version="1.1" xmlns="http://www.w3.org/2000/svg" xmlns:xlink="http://www.w3.org/1999/xlink">
    <!-- Generator: sketchtool 44.1 (41455) - http://www.bohemiancoding.com/sketch -->
    <title>facebook-circle</title>
    <desc>Created with sketchtool.</desc>
    <defs></defs>
    <g id="Page-1" stroke="none" stroke-width="1" fill="none" fill-rule="evenodd">
        <g id="facebook-circle" fill="#000000">
            <path d="M12.1399398,2.19035612e-06 C15.4210046,0.0468745446 18.2333458,1.2186834 20.5769635,3.56230112 C22.8737089,5.90591883 24.0455177,8.71826009 23.9986454,12.0461972 C23.951773,15.3741344 22.7799642,18.233348 20.4363465,20.5300934 C18.0927288,22.8737111 15.2803875,24.0455199 11.9524503,23.9986476 C8.62451319,23.9517752 5.81217193,22.7799664 3.51542657,20.4363487 C1.17180886,18.1396033 0,15.2803897 0,11.9524525 C0,8.62451538 1.17180886,5.76530177 3.56229892,3.42168405 C5.90591664,1.12493869 8.76513025,-0.0468701639 12.1399398,2.19035612e-06 Z M10.9681309,14.8116661 C10.9681309,15.4210067 11.0150033,15.7491132 11.108748,15.8428579 C11.2024927,15.9366026 11.5305992,15.983475 12.1399398,15.983475 C12.4680462,15.983475 12.6086633,15.8428579 12.6086633,15.5147515 L12.6086633,12.4211761 C12.6086633,12.1399419 12.7492804,11.9993249 12.9836421,11.9993249 C13.2180039,11.9993249 13.4054933,11.9993249 13.499238,11.9524525 C13.5929827,11.9055802 13.6398551,11.8587078 13.6867274,11.7649631 C13.7335998,11.7180908 13.7335998,11.5306013 13.7804722,11.2493672 C13.7804722,11.2024949 13.7804722,11.1556225 13.7804722,11.1087502 L13.8273445,11.0150054 C13.8742169,10.7806437 13.7335998,10.6400266 13.499238,10.6400266 L13.1242592,10.6400266 C13.0773868,10.6400266 13.0773868,10.6400266 13.0305145,10.6400266 C12.8430251,10.6400266 12.702408,10.5931543 12.6555357,10.5462819 C12.5617909,10.4994095 12.5149186,10.4056648 12.5617909,10.2181754 C12.6086633,9.89006894 12.6555357,9.65570717 12.702408,9.56196246 C12.7492804,9.46821775 12.8898974,9.4213454 13.1242592,9.4213454 C13.4523657,9.37447305 13.6867274,9.32760069 13.7335998,9.28072834 C13.7804722,9.23385598 13.8273445,8.99949421 13.8273445,8.62451538 L13.8273445,8.34328125 C13.8742169,8.10891948 13.7335998,8.01517477 13.499238,8.01517477 C12.9367698,8.01517477 12.5149186,8.01517477 12.2336845,8.06204713 C11.4368544,8.10891948 10.9681309,8.57764302 10.9212585,9.4213454 L10.9212585,10.2181754 C10.9681309,10.3587925 10.9212585,10.4994095 10.8743862,10.5462819 C10.8275138,10.6400266 10.6868968,10.686899 10.5462797,10.6400266 C10.4056626,10.5931543 10.2650456,10.6400266 10.2181732,10.686899 C10.1713009,10.7806437 10.1244285,10.9212607 10.1713009,11.0618778 L10.1713009,11.5774737 C10.1244285,11.7180908 10.1713009,11.8587078 10.2181732,11.9055802 C10.2650456,11.9524525 10.4056626,11.9993249 10.5462797,11.9524525 C10.6868968,11.9055802 10.8275138,11.9524525 10.8743862,11.9993249 C10.9212585,12.0930696 10.9681309,12.2336867 10.9681309,12.4211761 L10.9681309,13.9679638 L10.9681309,14.8116661 Z" id="Page-1"></path>
        </g>
    </g>
</svg>