<?xml version="1.0" encoding="UTF-8"?>
<svg width="24px" height="24px" viewBox="0 0 24 24" version="1.1" xmlns="http://www.w3.org/2000/svg" xmlns:xlink="http://www.w3.org/1999/xlink">
    <!-- Generator: Sketch 48.1 (47250) - http://www.bohemiancoding.com/sketch -->
    <title>facebook</title>
    <desc>Created with Sketch.</desc>
    <defs></defs>
    <g id="Page-1" stroke="none" stroke-width="1" fill="none" fill-rule="evenodd">
        <g id="facebook" fill="#000000">
            <path d="M22.6875,24 C23.015625,24 23.34375,23.859375 23.625,23.578125 C23.859375,23.34375 24,23.015625 24,22.6875 L24,1.3125 C24,0.984375 23.859375,0.65625 23.625,0.375 C23.34375,0.140625 23.015625,0 22.6875,0 L1.3125,0 C0.984375,0 0.65625,0.140625 0.421875,0.375 C0.140625,0.65625 0,0.984375 0,1.3125 L0,22.6875 C0,23.015625 0.140625,23.34375 0.421875,23.578125 C0.65625,23.859375 0.984375,24 1.3125,24 L22.6875,24 Z M12.84375,24 L12.84375,14.671875 L9.703125,14.671875 L9.703125,11.0625 L12.84375,11.0625 L12.84375,8.390625 C12.84375,6.84375 13.265625,5.671875 14.109375,4.828125 C14.953125,4.03125 16.078125,3.609375 17.484375,3.609375 C18.609375,3.609375 19.546875,3.65625 20.296875,3.75 L20.296875,7.03125 L18.375,7.03125 C17.671875,7.03125 17.15625,7.171875 16.921875,7.453125 C16.6875,7.734375 16.546875,8.15625 16.546875,8.765625 L16.546875,11.109375 L20.15625,11.109375 L19.6875,14.71875 L16.546875,14.71875 L16.546875,24 L12.84375,24 Z" id="Page-1"></path>
        </g>
    </g>
</svg>