<?xml version="1.0" encoding="UTF-8"?>
<svg width="24px" height="24px" viewBox="0 0 24 24" version="1.1" xmlns="http://www.w3.org/2000/svg" xmlns:xlink="http://www.w3.org/1999/xlink">
    <!-- Generator: sketchtool 44.1 (41455) - http://www.bohemiancoding.com/sketch -->
    <title>file-text</title>
    <desc>Created with sketchtool.</desc>
    <defs></defs>
    <g id="Page-1" stroke="none" stroke-width="1" fill="none" fill-rule="evenodd">
        <g id="file-text" fill="#000000">
            <path d="M12.5,7.33333333 L5,7.33333333 L5,5.86666667 L12.5,5.86666667 L12.5,7.33333333 Z M20,5.86666667 L20,22 L2,22 L2,1.46666667 L15.5,1.46666667 L20,5.86666667 Z M18.5,7.33333333 L14,2.93333333 L3.5,2.93333333 L3.5,20.5333333 L18.5,20.5333333 L18.5,7.33333333 Z M5,16.1333333 L17,16.1333333 L17,17.6 L5,17.6 L5,16.1333333 Z M5,13.2 L17,13.2 L17,14.6666667 L5,14.6666667 L5,13.2 Z M5,10.2666667 L17,10.2666667 L17,11.7333333 L5,11.7333333 L5,10.2666667 Z" id="Page-1"></path>
        </g>
    </g>
</svg>