<?xml version="1.0" encoding="UTF-8"?>
<svg width="24px" height="24px" viewBox="0 0 24 24" version="1.1" xmlns="http://www.w3.org/2000/svg" xmlns:xlink="http://www.w3.org/1999/xlink">
    <!-- Generator: sketchtool 44.1 (41455) - http://www.bohemiancoding.com/sketch -->
    <title>google</title>
    <desc>Created with sketchtool.</desc>
    <defs></defs>
    <g id="Page-1" stroke="none" stroke-width="1" fill="none" fill-rule="evenodd">
        <g id="google" fill="#000000">
            <path d="M16.5773956,18.6875 C16.5773956,19.25 16.4840295,19.71875 16.2506143,20.140625 C15.970516,20.5625 15.6437346,20.890625 15.2702703,21.125 C14.9434889,21.3125 14.4766585,21.5 13.9164619,21.640625 C13.4496314,21.734375 12.982801,21.78125 12.4692875,21.78125 C11.8624079,21.78125 11.3955774,21.734375 11.1154791,21.6875 C10.5085995,21.546875 10.041769,21.453125 9.76167076,21.3125 C9.24815725,21.078125 8.87469287,20.84375 8.59459459,20.609375 C8.26781327,20.375 7.98771499,20.046875 7.8009828,19.625 C7.56756757,19.203125 7.47420147,18.78125 7.47420147,18.265625 C7.47420147,17.75 7.61425061,17.28125 7.84766585,16.859375 C8.08108108,16.4375 8.36117936,16.109375 8.73464373,15.828125 C9.06142506,15.59375 9.52825553,15.40625 10.041769,15.21875 C10.7420147,15.03125 11.2555283,14.9375 11.4889435,14.890625 C12.04914,14.84375 12.5159705,14.796875 12.8427518,14.796875 C13.1695332,14.796875 13.4029484,14.796875 13.4963145,14.84375 C13.5429975,14.84375 13.6830467,14.9375 14.009828,15.171875 C14.1031941,15.265625 14.1965602,15.359375 14.3366093,15.40625 C14.4766585,15.5 14.5233415,15.546875 14.5700246,15.59375 L14.6633907,15.640625 C14.8034398,15.78125 14.9434889,15.875 15.036855,15.96875 C15.1302211,16.015625 15.3169533,16.203125 15.5503686,16.4375 C15.6904177,16.578125 15.8304668,16.765625 15.970516,16.90625 C16.1572482,17.140625 16.2506143,17.328125 16.2972973,17.46875 C16.3439803,17.5625 16.4373464,17.75 16.4840295,18.03125 C16.5307125,18.171875 16.5773956,18.359375 16.5773956,18.6875 Z M15.036855,7.15625 C15.036855,8.046875 14.8034398,8.796875 14.3366093,9.3125 C14.1031941,9.546875 13.7764128,9.734375 13.4496314,9.875 C13.029484,10.015625 12.7027027,10.109375 12.4226044,10.109375 C11.955774,10.109375 11.5356265,10.015625 11.1154791,9.78125 C10.7886978,9.546875 10.4619165,9.265625 10.1351351,8.84375 C9.85503686,8.515625 9.62162162,8.140625 9.43488943,7.625 C9.24815725,7.203125 9.10810811,6.734375 9.01474201,6.265625 C8.92137592,5.796875 8.87469287,5.375 8.87469287,4.953125 C8.87469287,4.0625 9.06142506,3.359375 9.48157248,2.796875 C9.71498771,2.5625 9.995086,2.328125 10.3685504,2.09375 C10.7420147,1.90625 11.1154791,1.8125 11.4889435,1.8125 C12.04914,1.8125 12.5626536,2 13.029484,2.375 C13.5429975,2.75 13.9164619,3.21875 14.1498771,3.78125 C14.4766585,4.390625 14.6633907,5 14.8034398,5.515625 C14.9434889,6.125 15.036855,6.6875 15.036855,7.15625 Z M13.5429975,0.734375 C12.5626536,0.734375 11.5823096,0.875 10.6486486,1.15625 C9.71498771,1.4375 8.92137592,1.859375 8.22113022,2.46875 C7.66093366,2.9375 7.19410319,3.546875 6.86732187,4.25 C6.54054054,4.953125 6.4004914,5.65625 6.4004914,6.359375 C6.4004914,7.625 6.86732187,8.75 7.75429975,9.640625 C8.64127764,10.484375 9.71498771,10.90625 11.0687961,10.90625 C11.3955774,10.90625 11.7223587,10.90625 12.002457,10.859375 C11.8157248,11.28125 11.7223587,11.703125 11.7223587,12.03125 C11.7223587,12.40625 11.7690418,12.734375 11.9090909,13.015625 C12.04914,13.25 12.2358722,13.578125 12.5626536,14 C10.1818182,14.140625 8.36117936,14.5625 7.14742015,15.3125 C6.49385749,15.734375 5.98034398,16.25 5.60687961,16.859375 C5.18673219,17.46875 5,18.125 5,18.875 C5,19.53125 5.14004914,20.09375 5.46683047,20.609375 C5.98034398,21.453125 6.72727273,22.0625 7.75429975,22.484375 C8.82800983,22.8125 9.94840295,23 11.0687961,23 C12.5159705,23 13.8697789,22.765625 15.036855,22.25 C16.2506143,21.734375 17.1842752,20.9375 17.8378378,19.859375 C18.2579853,19.0625 18.4914005,18.3125 18.4914005,17.515625 C18.4914005,16.8125 18.3513514,16.203125 18.0712531,15.640625 C17.8378378,15.125 17.4643735,14.65625 17.044226,14.234375 C16.7174447,13.90625 16.2972973,13.578125 15.8304668,13.25 C15.5503686,13.0625 15.2235872,12.78125 14.8034398,12.359375 C14.5233415,12.03125 14.3832924,11.703125 14.3832924,11.375 C14.3832924,11.046875 14.4766585,10.765625 14.7100737,10.53125 C14.8501229,10.296875 15.0835381,10.015625 15.5036855,9.6875 L16.3906634,8.796875 C16.7174447,8.515625 16.997543,8.09375 17.1842752,7.578125 C17.4176904,7.109375 17.5110565,6.546875 17.5110565,5.84375 C17.5110565,5 17.3710074,4.296875 17.044226,3.6875 C16.6240786,2.984375 16.1105651,2.375 15.5036855,1.90625 L17.2776413,1.90625 L19.0982801,0.734375 L13.5429975,0.734375 Z" id="Page-1"></path>
        </g>
    </g>
</svg>