<?xml version="1.0" encoding="UTF-8"?>
<svg width="24px" height="24px" viewBox="0 0 24 24" version="1.1" xmlns="http://www.w3.org/2000/svg" xmlns:xlink="http://www.w3.org/1999/xlink">
    <!-- Generator: Sketch 48.1 (47250) - http://www.bohemiancoding.com/sketch -->
    <title>google-alt</title>
    <desc>Created with Sketch.</desc>
    <defs></defs>
    <g id="Page-1" stroke="none" stroke-width="1" fill="none" fill-rule="evenodd">
        <g id="google-alt" fill="#000000">
            <path d="M17.9,14.3883929 C17.75,15.3705357 17.2,16.2544643 16.35,17.0892857 C15.5,17.9241071 14.25,18.3660714 12.6,18.3660714 C11,18.3660714 9.65,17.7767857 8.55,16.6473214 C7.4,15.5178571 6.85,14.1919643 6.85,12.5714286 C6.85,10.9508929 7.4,9.625 8.55,8.49553571 C9.65,7.36607143 11,6.82589286 12.6,6.82589286 C14.05,6.82589286 15.3,7.26785714 16.3,8.20089286 L19,5.59821429 C17.25,3.97767857 15.1,3.14285714 12.6,3.14285714 C9.95,3.14285714 7.65,4.07589286 5.8,5.89285714 C3.95,7.70982143 3,9.96875 3,12.5714286 C3,15.1741071 3.95,17.4330357 5.8,19.25 C7.65,21.0669643 9.95,22 12.6,22 C15.35,22 17.6,21.1160714 19.3,19.3973214 C20.95,17.6785714 21.8,15.46875 21.8,12.7678571 C21.8,12.2767857 21.75,11.6383929 21.6,10.8526786 L12.6,10.8526786 L12.6,14.3392857 L17.9,14.3883929 Z" id="Page-1"></path>
        </g>
    </g>
</svg>