<?xml version="1.0" encoding="UTF-8"?>
<svg width="24px" height="24px" viewBox="0 0 24 24" version="1.1" xmlns="http://www.w3.org/2000/svg" xmlns:xlink="http://www.w3.org/1999/xlink">
    <!-- Generator: Sketch 48.1 (47250) - http://www.bohemiancoding.com/sketch -->
    <title>graph-2</title>
    <desc>Created with Sketch.</desc>
    <defs></defs>
    <g id="Page-1" stroke="none" stroke-width="1" fill="none" fill-rule="evenodd">
        <g id="graph-2" fill="#000000">
            <g id="Graph-2" transform="translate(2.000000, 2.000000)">
                <polyline id="Fill-1" points="16.5 18 16.5 17 15.5 17 15.5 18 12.5 18 12.5 17 11.5 17 11.5 18 8.5 18 8.5 17 7.5 17 7.5 18 4.5 18 4.5 17 3.5 17 3.5 18 2 18 2 0 0 0 0 20 20 20 20 18 16.5 18"></polyline>
                <path d="M8.361,8.383 L12.485,10.857 C12.725,11 13.012,11.038 13.28,10.96 C13.547,10.882 13.77,10.696 13.894,10.447 L16.895,4.447 L18,5 L18,0.333 L16.143,1.571 L16.105,1.553 L16.073,1.618 L14,3 L15.106,3.553 L12.588,8.587 L8.515,6.143 C8.285,6.004 8.009,5.965 7.747,6.033 C7.487,6.101 7.265,6.27 7.132,6.504 L3.132,13.504 L4.868,14.496 L8.361,8.383" id="Fill-2"></path>
            </g>
        </g>
    </g>
</svg>