<?xml version="1.0" encoding="UTF-8"?>
<svg width="24px" height="24px" viewBox="0 0 24 24" version="1.1" xmlns="http://www.w3.org/2000/svg" xmlns:xlink="http://www.w3.org/1999/xlink">
    <!-- Generator: Sketch 48.1 (47250) - http://www.bohemiancoding.com/sketch -->
    <title>heart-add</title>
    <desc>Created with Sketch.</desc>
    <defs></defs>
    <g id="Page-1" stroke="none" stroke-width="1" fill="none" fill-rule="evenodd">
        <g id="heart-add" fill="#000000">
            <g id="Heart-Add" transform="translate(0.000000, 1.000000)">
                <path d="M17.008,0.992 C14.923,0.992 13.082,2.062 12.007,3.681 C10.928,2.062 9.083,0.992 6.992,0.992 C3.684,0.992 0.992,3.684 0.994,7.052 L1.024,7.567 C0.987,8.443 1.044,15.315 11.54,20.876 L12.029,21.136 L12.509,20.857 C12.606,20.801 14.7,19.571 17,17.56 L17,15 L16.822,15 C16.657,15.163 16.493,15.325 16.318,15.488 C14.564,17.122 12.794,18.317 11.976,18.838 C2.742,13.736 3.008,7.889 3.023,7.646 L3.028,7.576 L2.992,6.992 C2.992,4.786 4.786,2.992 6.992,2.992 C9.206,2.992 11.008,4.786 11.008,6.992 L13.008,6.992 C13.008,4.786 14.802,2.992 17.008,2.992 C19.222,2.992 21.022,4.786 21.022,6.992 L21.024,7.504 C21.014,7.667 20.977,7.835 20.954,8 L21,8 L21,11 L22.166,11 C22.262,10.781 22.356,10.563 22.435,10.345 C22.769,9.435 22.965,8.521 23.022,7.565 L23.022,6.992 C23.022,3.684 20.324,0.992 17.008,0.992" id="Fill-1"></path>
                <polyline id="Fill-2" points="20 9 18 9 18 12 15 12 15 14 18 14 18 17 20 17 20 14 23 14 23 12 20 12 20 9"></polyline>
            </g>
        </g>
    </g>
</svg>