<?xml version="1.0" encoding="UTF-8"?>
<svg width="24px" height="24px" viewBox="0 0 24 24" version="1.1" xmlns="http://www.w3.org/2000/svg" xmlns:xlink="http://www.w3.org/1999/xlink">
    <!-- Generator: Sketch 48.1 (47250) - http://www.bohemiancoding.com/sketch -->
    <title>heart-2</title>
    <desc>Created with Sketch.</desc>
    <defs></defs>
    <g id="Page-1" stroke="none" stroke-width="1" fill="none" fill-rule="evenodd">
        <g id="heart-2" fill="#000000">
            <g id="Heart-2" transform="translate(0.000000, 1.000000)">
                <path d="M16.015,0.992 C13.93,0.992 12.089,2.062 11.014,3.681 C9.935,2.062 8.091,0.992 6,0.992 C2.691,0.992 -8.88091684e-15,3.684 0.002,7.051 L0.032,7.567 C-0.006,8.441 0.05,15.313 10.547,20.876 L11.037,21.136 L11.517,20.857 C11.927,20.619 21.572,14.948 22.03,7.565 L22.03,6.992 C22.03,3.684 19.332,0.992 16.015,0.992 L16.015,0.992 Z M10.982,18.837 C6.116,16.148 3.9,13.26 2.884,11.087 L5.328,9.051 L4.688,8.283 L2.485,10.119 C2.297,9.58 2.181,9.108 2.116,8.727 L6.328,5.217 L5.687,4.449 L2.031,7.496 L2,6.992 C2,4.786 3.794,2.992 6,2.992 C8.214,2.992 10.015,4.786 10.015,6.992 L12.015,6.992 C12.015,4.786 13.81,2.992 16.015,2.992 C18.229,2.992 20.03,4.786 20.03,6.992 L20.032,7.503 C19.694,12.923 12.853,17.644 10.982,18.837 L10.982,18.837 Z" id="Fill-2"></path>
                <polyline id="Fill-3" points="5.687 7.449 6.327 8.217 7.327 7.384 6.688 6.616 5.687 7.449"></polyline>
            </g>
        </g>
    </g>
</svg>