<?xml version="1.0" encoding="UTF-8"?>
<svg width="24px" height="24px" viewBox="0 0 24 24" version="1.1" xmlns="http://www.w3.org/2000/svg" xmlns:xlink="http://www.w3.org/1999/xlink">
    <!-- Generator: sketchtool 44.1 (41455) - http://www.bohemiancoding.com/sketch -->
    <title>house</title>
    <desc>Created with sketchtool.</desc>
    <defs></defs>
    <g id="Page-1" stroke="none" stroke-width="1" fill="none" fill-rule="evenodd">
        <g id="house" fill="#000000">
            <g id="Imported-Layers" transform="translate(0.000000, 1.000000)">
                <path d="M12,17.714 L19,17.714 L19,12 L12,12 L12,17.714 Z M13,13 L18,13 L18,16.714 L13,16.714 L13,13 Z" id="Fill-1"></path>
                <polygon id="Fill-2" points="14 7 16 7 16 8 14 8"></polygon>
                <path d="M23.002,11 L22.992,6.806 L20.67,1 L18,1 L18,0 L14.934,0 L14.934,1 L3.315,1 L0.992,6.809 L1.002,11 L1.993,11 L1.993,21 L21.993,21 L21.993,11 L23.002,11 L23.002,11 Z M4.67,3 L14.934,3 L14.934,5 L18,5 L18,3 L19.315,3 L20.916,7 L17.022,7 L17.022,8 L20.995,8 L20.998,9 L2.998,9 L2.995,8 L13.08,8 L13.08,7 L3.07,7 L4.67,3 L4.67,3 Z M9.992,15.962 C9.972,15.705 9.763,15.5 9.5,15.5 C9.224,15.5 9,15.724 9,16 C9,16.276 9.224,16.5 9.5,16.5 C9.763,16.5 9.972,16.295 9.992,16.038 L9.992,19 L5.992,19 L5.992,13.003 L9.992,13 L9.992,15.962 L9.992,15.962 Z M19.993,19 L10.992,19 L10.992,12 L4.992,12.003 L4.992,19 L3.993,19 L3.993,11 L19.993,11 L19.993,19 L19.993,19 Z" id="Fill-3"></path>
            </g>
        </g>
    </g>
</svg>