<?xml version="1.0" encoding="UTF-8"?>
<svg width="24px" height="24px" viewBox="0 0 24 24" version="1.1" xmlns="http://www.w3.org/2000/svg" xmlns:xlink="http://www.w3.org/1999/xlink">
    <!-- Generator: Sketch 48.1 (47250) - http://www.bohemiancoding.com/sketch -->
    <title>house-blueprint</title>
    <desc>Created with Sketch.</desc>
    <defs></defs>
    <g id="Page-1" stroke="none" stroke-width="1" fill="none" fill-rule="evenodd">
        <g id="house-blueprint" fill="#000000">
            <path d="M24,6.707 L24,2 L0,2 L0,22 L24,22 L24,6.707 L24,6.707 Z M16,12 L16,10.707 L23,3.707 L23,6.293 L17.293,12 L16,12 L16,12 Z M22.293,3 L16,9.293 L16,6.708 L19.707,3 L22.293,3 L22.293,3 Z M18.293,3 L16,5.293 L16,3 L18.293,3 L18.293,3 Z M18,20 L9,20 L9,14 L10,14 L10,12 L6,12 L6,14 L7,14 L7,20 L2,20 L2,4 L14,4 L14,14 L18,14 L18,20 L18,20 Z M23,21 L20,21 L20,18.707 L22.104,16.603 L21.397,15.897 L20,17.293 L20,14.707 L23,11.707 L23,21 L23,21 Z M23,10.293 L20,13.293 L20,12 L18.707,12 L23,7.707 L23,10.293 L23,10.293 Z" id="Imported-Layers"></path>
        </g>
    </g>
</svg>