<?xml version="1.0" encoding="UTF-8"?>
<svg width="24px" height="24px" viewBox="0 0 24 24" version="1.1" xmlns="http://www.w3.org/2000/svg" xmlns:xlink="http://www.w3.org/1999/xlink">
    <!-- Generator: sketchtool 44.1 (41455) - http://www.bohemiancoding.com/sketch -->
    <title>i-1</title>
    <desc>Created with sketchtool.</desc>
    <defs></defs>
    <g id="Page-1" stroke="none" stroke-width="1" fill="none" fill-rule="evenodd">
        <g id="i-1" fill="#000000">
            <path d="M20.484375,3.515625 C22.828125,5.859375 24,8.671875 24,12 C24,15.328125 22.828125,18.140625 20.484375,20.484375 C18.140625,22.828125 15.328125,24 12,24 C8.671875,24 5.859375,22.828125 3.515625,20.484375 C1.171875,18.140625 0,15.328125 0,12 C0,8.671875 1.171875,5.859375 3.515625,3.515625 C5.859375,1.171875 8.671875,0 12,0 C15.328125,0 18.140625,1.171875 20.484375,3.515625 Z M19.03125,19.03125 C20.953125,17.109375 21.9375,14.765625 21.9375,12 C21.9375,9.234375 20.953125,6.890625 19.03125,4.96875 C17.109375,3.046875 14.765625,2.0625 12,2.0625 C9.234375,2.0625 6.890625,3.046875 4.96875,4.96875 C3.046875,6.890625 2.0625,9.234375 2.0625,12 C2.0625,14.765625 3.046875,17.109375 4.96875,19.03125 C6.890625,20.953125 9.234375,21.9375 12,21.9375 C14.765625,21.9375 17.109375,20.953125 19.03125,19.03125 Z M13.640625,16.921875 L15.328125,16.921875 L15.328125,18.5625 L8.71875,18.5625 L8.71875,16.921875 L10.359375,16.921875 L10.359375,12.046875 L8.71875,12.046875 L8.71875,10.359375 L13.640625,10.359375 L13.640625,16.921875 Z M10.359375,8.765625 L13.640625,8.765625 L13.640625,5.484375 L10.359375,5.484375 L10.359375,8.765625 Z" id="Page-1"></path>
        </g>
    </g>
</svg>