<?xml version="1.0" encoding="UTF-8"?>
<svg width="24px" height="24px" viewBox="0 0 24 24" version="1.1" xmlns="http://www.w3.org/2000/svg" xmlns:xlink="http://www.w3.org/1999/xlink">
    <!-- Generator: Sketch 48.1 (47250) - http://www.bohemiancoding.com/sketch -->
    <title>i</title>
    <desc>Created with Sketch.</desc>
    <defs></defs>
    <g id="Page-1" stroke="none" stroke-width="1" fill="none" fill-rule="evenodd">
        <g id="i" fill="#000000">
            <path d="M3.515625,3.515625 C5.859375,1.171875 8.671875,0 12,0 C15.328125,0 18.140625,1.171875 20.484375,3.515625 C22.828125,5.859375 24,8.671875 24,12 C24,15.328125 22.828125,18.140625 20.484375,20.484375 C18.140625,22.828125 15.328125,24 12,24 C8.671875,24 5.859375,22.828125 3.515625,20.484375 C1.171875,18.140625 0,15.328125 0,12 C0,8.671875 1.171875,5.859375 3.515625,3.515625 Z M4.734375,19.265625 C6.75,21.28125 9.140625,22.265625 12,22.265625 C14.859375,22.265625 17.25,21.28125 19.265625,19.265625 C21.28125,17.25 22.265625,14.859375 22.265625,12 C22.265625,9.140625 21.28125,6.75 19.265625,4.734375 C17.25,2.71875 14.859375,1.734375 12,1.734375 C9.140625,1.734375 6.75,2.71875 4.734375,4.734375 C2.71875,6.75 1.734375,9.140625 1.734375,12 C1.734375,14.859375 2.71875,17.25 4.734375,19.265625 Z M13.78125,5.53125 C14.015625,5.765625 14.109375,6.09375 14.109375,6.421875 C14.109375,6.84375 14.015625,7.125 13.78125,7.359375 C13.453125,7.59375 13.171875,7.734375 12.84375,7.734375 C12.46875,7.734375 12.140625,7.59375 11.90625,7.359375 C11.671875,7.125 11.578125,6.84375 11.578125,6.421875 C11.578125,6.046875 11.671875,5.765625 11.90625,5.53125 C12.140625,5.25 12.46875,5.109375 12.84375,5.109375 C13.125,5.109375 13.453125,5.25 13.78125,5.53125 Z M13.5,17.25 L14.109375,17.25 L13.921875,17.671875 C13.6875,17.71875 13.40625,17.8125 13.078125,17.859375 C12.75,17.953125 12.515625,18 12.46875,18 C12.046875,18.046875 11.625,18.09375 11.25,18.09375 C10.546875,18.09375 9.984375,17.90625 9.5625,17.578125 C9.140625,17.25 8.953125,16.828125 8.953125,16.3125 C8.953125,16.078125 8.953125,15.84375 9,15.703125 C9.046875,15.515625 9.09375,15.28125 9.140625,15 L9.84375,12.515625 C9.890625,12.421875 9.890625,12.28125 9.9375,12.140625 C9.984375,12 9.984375,11.90625 9.984375,11.859375 C10.03125,11.484375 10.078125,11.296875 10.078125,11.25 C10.078125,10.96875 10.03125,10.734375 9.890625,10.546875 C9.703125,10.40625 9.46875,10.359375 9.140625,10.359375 L8.109375,10.359375 L8.296875,9.9375 C8.71875,9.796875 9.09375,9.703125 9.515625,9.65625 C9.9375,9.5625 10.3125,9.515625 10.640625,9.515625 C11.203125,9.515625 11.671875,9.65625 12.09375,9.984375 C12.421875,10.40625 12.609375,10.828125 12.609375,11.296875 C12.609375,11.484375 12.609375,11.671875 12.5625,11.859375 C12.5625,12 12.515625,12.234375 12.421875,12.609375 L11.765625,15.09375 C11.71875,15.234375 11.625,15.421875 11.578125,15.75 C11.53125,15.890625 11.53125,16.078125 11.53125,16.3125 C11.53125,16.640625 11.625,16.875 11.8125,17.015625 C12,17.109375 12.328125,17.15625 12.796875,17.15625 L13.5,17.15625 L13.5,17.25 Z" id="Page-1"></path>
        </g>
    </g>
</svg>