<?xml version="1.0" encoding="UTF-8"?>
<svg width="24px" height="24px" viewBox="0 0 24 24" version="1.1" xmlns="http://www.w3.org/2000/svg" xmlns:xlink="http://www.w3.org/1999/xlink">
    <!-- Generator: Sketch 48.1 (47250) - http://www.bohemiancoding.com/sketch -->
    <title>image-1-none</title>
    <desc>Created with Sketch.</desc>
    <defs></defs>
    <g id="Page-1" stroke="none" stroke-width="1" fill="none" fill-rule="evenodd">
        <g id="image-1-none" fill="#000000">
            <g id="No-Image-1" transform="translate(1.000000, 1.000000)">
                <path d="M0.059,22 L22.059,22 L22.059,0 L0.059,0 L0.059,22 Z M2.059,2 L18.586,2 L17.586,3 L2.99,3 L2.99,15.941 L3,15.941 L3,16 L4.586,16 L2.059,18.527 L2.059,2 L2.059,2 Z M14.008,6.578 L11,9.586 L8,6.586 L3.99,10.596 L3.99,4 L16.586,4 L15.578,5.008 L15.5,5 C14.672,5 14,5.672 14,6.5 L14.008,6.578 L14.008,6.578 Z M4,12 L8,8 L10.293,10.293 L5.645,14.941 L4,14.941 L4,12 L4,12 Z M11.707,11.707 L13,13 L15,11 L18,14 L18,14.941 L8.473,14.941 L11.707,11.707 L11.707,11.707 Z M15.707,10.293 L15,9.586 L13,11.586 L12.414,11 L15.422,7.992 L15.5,8 C16.328,8 17,7.328 17,6.5 L16.992,6.422 L18,5.414 L18,12.586 L15.707,10.293 L15.707,10.293 Z M20.059,20 L3.414,20 L7.414,16 L19,16 L19,4.414 L20.059,3.355 L20.059,20 L20.059,20 Z" id="Fill-2"></path>
            </g>
        </g>
    </g>
</svg>