<?xml version="1.0" encoding="UTF-8"?>
<svg width="24px" height="24px" viewBox="0 0 24 24" version="1.1" xmlns="http://www.w3.org/2000/svg" xmlns:xlink="http://www.w3.org/1999/xlink">
    <!-- Generator: Sketch 48.1 (47250) - http://www.bohemiancoding.com/sketch -->
    <title>image-4</title>
    <desc>Created with Sketch.</desc>
    <defs></defs>
    <g id="Page-1" stroke="none" stroke-width="1" fill="none" fill-rule="evenodd">
        <g id="image-4" fill="#000000">
            <g id="Image-2---filled" transform="translate(1.000000, 1.000000)">
                <path d="M0.06,22 L22.06,22 L22.06,0 L0.06,0 L0.06,22 Z M20.06,2 L20.06,15.001 L20.059,15 L15.059,10 L12.059,13 L7.059,8 L2.059,13 L2.059,2 L20.06,2 L20.06,2 Z M2.06,20 L2.059,17 L2.622,17 L20.06,17 L20.06,20 L2.06,20 L2.06,20 Z" id="Fill-1"></path>
                <path d="M17.06,9 C18.164,9 19.06,8.105 19.06,7 C19.06,5.895 18.164,5 17.06,5 C15.955,5 15.06,5.895 15.06,7 C15.06,8.105 15.955,9 17.06,9" id="Fill-2"></path>
            </g>
        </g>
    </g>
</svg>