<?xml version="1.0" encoding="UTF-8"?>
<svg width="24px" height="24px" viewBox="0 0 24 24" version="1.1" xmlns="http://www.w3.org/2000/svg" xmlns:xlink="http://www.w3.org/1999/xlink">
    <!-- Generator: Sketch 48.1 (47250) - http://www.bohemiancoding.com/sketch -->
    <title>image-2-none</title>
    <desc>Created with Sketch.</desc>
    <defs></defs>
    <g id="Page-1" stroke="none" stroke-width="1" fill="none" fill-rule="evenodd">
        <g id="image-2-none" fill="#000000">
            <g id="No-Image-1--filled" transform="translate(1.000000, 1.000000)">
                <path d="M0,22 L22,22 L22,0 L0,0 L0,22 Z M15.573,5.013 L15.441,5 C14.612,5 13.941,5.672 13.941,6.5 L13.954,6.632 L10.277,10.309 L7.941,8 L3.941,12 L3.93,12.033 L3.93,4 L16.586,4 L15.573,5.013 L15.573,5.013 Z M17.941,13.941 L15,11 L13,13 L11.699,11.715 L15.417,7.998 L15.441,8 C16.269,8 16.941,7.328 16.941,6.5 L16.938,6.476 L17.941,5.473 L17.941,13.941 L17.941,13.941 Z M18.586,2 L17.586,3 L2.93,3 L2.93,15.941 L4.645,15.941 L2,18.586 L2,2 L18.586,2 L18.586,2 Z M3.414,20 L7.473,15.941 L18.941,15.941 L18.941,4.473 L20,3.414 L20,20 L3.414,20 L3.414,20 Z" id="Fill-2"></path>
            </g>
        </g>
    </g>
</svg>