<?xml version="1.0" encoding="UTF-8"?>
<svg width="24px" height="24px" viewBox="0 0 24 24" version="1.1" xmlns="http://www.w3.org/2000/svg" xmlns:xlink="http://www.w3.org/1999/xlink">
    <!-- Generator: Sketch 48.1 (47250) - http://www.bohemiancoding.com/sketch -->
    <title>image-4-none</title>
    <desc>Created with Sketch.</desc>
    <defs></defs>
    <g id="Page-1" stroke="none" stroke-width="1" fill="none" fill-rule="evenodd">
        <g id="image-4-none" fill="#000000">
            <path d="M1,23 L23,23 L23,1 L1,1 L1,23 Z M16.304,9.05 C16.657,9.618 17.282,10 18,10 C19.104,10 20,9.105 20,8 C20,7.282 19.618,6.657 19.05,6.304 L21,4.354 L21,16.001 L20.999,16 L15.999,11 L12.999,14 L12.177,13.177 L16.304,9.05 L16.304,9.05 Z M19.526,3 L10.763,11.763 L7.999,9 L2.999,14 L2.999,3 L19.526,3 L19.526,3 Z M3,19.526 L2.999,18 L3.562,18 L4.526,18 L3,19.526 L3,19.526 Z M4.354,21 L7.354,18 L21,18 L21,21 L4.354,21 L4.354,21 Z" id="No-image---filled"></path>
        </g>
    </g>
</svg>