<?xml version="1.0" encoding="UTF-8"?>
<svg width="24px" height="24px" viewBox="0 0 24 24" version="1.1" xmlns="http://www.w3.org/2000/svg" xmlns:xlink="http://www.w3.org/1999/xlink">
    <!-- Generator: Sketch 48.1 (47250) - http://www.bohemiancoding.com/sketch -->
    <title>in-trade</title>
    <desc>Created with Sketch.</desc>
    <defs></defs>
    <g id="Page-1" stroke="none" stroke-width="1" fill="none" fill-rule="evenodd">
        <g id="in-trade" fill="#000000">
            <path d="M17.859375,11.1616766 C18.09375,11.1616766 18.28125,11.257485 18.375,11.4011976 C18.421875,11.4491018 18.46875,11.6407186 18.46875,11.9760479 C18.46875,12.2155689 18.46875,12.4071856 18.421875,12.502994 C18.28125,12.742515 18.09375,12.8383234 17.859375,12.8383234 L17.34375,12.8383234 L17.34375,11.1616766 L17.859375,11.1616766 Z M14.71875,11.497006 L15,12.2634731 L14.4375,12.2634731 L14.71875,11.497006 Z M12,11.2095808 C12.09375,11.3053892 12.140625,11.4011976 12.09375,11.497006 C12.09375,11.5449102 12.046875,11.6407186 11.953125,11.7365269 C11.90625,11.7844311 11.8125,11.7844311 11.671875,11.7844311 L11.109375,11.7844311 L11.109375,11.1616766 L11.71875,11.1616766 C11.859375,11.1616766 11.953125,11.1616766 12,11.2095808 Z M22.875,8.09580838 C23.203125,8.09580838 23.484375,8.19161677 23.71875,8.43113772 C23.953125,8.67065868 24.046875,8.95808383 24.046875,9.29341317 L24.046875,14.8023952 C24.046875,15.1377246 23.953125,15.3772455 23.71875,15.6167665 C23.484375,15.8562874 23.203125,16 22.875,16 L1.171875,16 C0.84375,16 0.609375,15.8562874 0.375,15.6167665 C0.140625,15.3772455 0,15.1377246 0,14.8023952 L0,9.29341317 C0,8.95808383 0.140625,8.67065868 0.375,8.43113772 C0.609375,8.19161677 0.84375,8.09580838 1.171875,8.09580838 L22.875,8.09580838 Z M2.859375,13.4610778 L2.859375,10.5868263 L2.765625,10.5389222 L2.109375,10.5389222 L2.0625,10.5868263 L2.0625,13.4610778 C2.0625,13.508982 2.0625,13.508982 2.109375,13.5568862 L2.8125,13.5568862 C2.859375,13.5568862 2.90625,13.508982 2.90625,13.4610778 L2.859375,13.4610778 Z M6,10.5868263 L5.90625,10.5389222 L5.34375,10.5389222 C5.296875,10.5389222 5.296875,10.5389222 5.25,10.5868263 L5.25,12.3113772 L4.171875,10.5868263 C4.125,10.5389222 4.125,10.5389222 4.078125,10.5389222 L3.421875,10.5389222 C3.375,10.5389222 3.375,10.5389222 3.328125,10.5868263 L3.328125,13.4610778 C3.328125,13.508982 3.375,13.5568862 3.421875,13.5568862 L3.984375,13.5568862 L4.03125,13.4610778 L4.03125,11.6886228 L5.15625,13.508982 C5.203125,13.5568862 5.203125,13.5568862 5.25,13.5568862 L5.90625,13.5568862 C5.953125,13.5568862 6,13.508982 6,13.4610778 L6,10.5868263 Z M10.078125,11.1137725 L10.078125,10.5868263 L9.984375,10.5389222 L7.5,10.5389222 C7.453125,10.5389222 7.453125,10.5389222 7.40625,10.5868263 L7.40625,11.1137725 C7.40625,11.1616766 7.453125,11.2095808 7.5,11.2095808 L8.34375,11.2095808 L8.34375,13.4610778 C8.34375,13.508982 8.34375,13.5568862 8.390625,13.5568862 L9.046875,13.5568862 C9.09375,13.5568862 9.140625,13.508982 9.140625,13.4610778 L9.140625,11.1616766 L9.984375,11.1616766 L10.03125,11.1137725 L10.078125,11.1137725 Z M12.984375,13.3652695 L12.9375,13.3173653 C12.890625,13.2694611 12.84375,13.2215569 12.84375,13.1736527 L12.84375,12.9341317 L12.84375,12.742515 C12.84375,12.5508982 12.796875,12.4071856 12.75,12.2634731 L12.5625,12.0718563 C12.703125,11.9760479 12.75,11.8802395 12.796875,11.8323353 C12.890625,11.6886228 12.9375,11.5449102 12.9375,11.4011976 C12.9375,11.257485 12.890625,11.1137725 12.84375,11.0658683 C12.796875,10.9221557 12.75,10.8742515 12.703125,10.8263473 C12.609375,10.7305389 12.515625,10.6347305 12.375,10.5868263 C12.328125,10.5868263 12.28125,10.5868263 12.1875,10.5389222 C12.046875,10.5389222 11.953125,10.5389222 11.859375,10.5389222 L10.359375,10.5389222 C10.3125,10.5389222 10.3125,10.5389222 10.265625,10.5868263 L10.265625,13.4610778 C10.265625,13.508982 10.3125,13.5568862 10.359375,13.5568862 L11.015625,13.5568862 C11.0625,13.5568862 11.109375,13.508982 11.109375,13.4610778 L11.109375,12.502994 L11.625,12.502994 C11.71875,12.502994 11.8125,12.502994 11.859375,12.502994 L11.953125,12.5508982 C12,12.5508982 12.046875,12.6467066 12.046875,12.8383234 L12.046875,13.0778443 C12.046875,13.1257485 12.046875,13.1736527 12.09375,13.2215569 C12.09375,13.2694611 12.09375,13.3173653 12.09375,13.3652695 L12.140625,13.508982 L12.1875,13.5568862 L12.9375,13.5568862 C12.984375,13.5568862 12.984375,13.508982 12.984375,13.4610778 L12.984375,13.3652695 Z M16.265625,13.3652695 L15.1875,10.5389222 L15.09375,10.491018 L14.34375,10.491018 L14.296875,10.5389222 L13.171875,13.3652695 L13.171875,13.4610778 C13.21875,13.508982 13.21875,13.508982 13.265625,13.508982 L13.921875,13.508982 C13.96875,13.508982 14.015625,13.508982 14.015625,13.4610778 L14.203125,12.9341317 L15.234375,12.9341317 L15.421875,13.508982 L15.46875,13.5568862 L16.21875,13.5568862 C16.265625,13.5568862 16.265625,13.5568862 16.265625,13.508982 L16.265625,13.3652695 Z M19.03125,12.9820359 C19.21875,12.742515 19.3125,12.4071856 19.3125,11.9760479 C19.3125,11.9281437 19.3125,11.8802395 19.3125,11.7365269 C19.265625,11.6407186 19.265625,11.5449102 19.265625,11.497006 C19.21875,11.3053892 19.125,11.1616766 18.984375,11.0179641 C18.890625,10.8263473 18.703125,10.6826347 18.46875,10.5868263 C18.421875,10.5868263 18.328125,10.5868263 18.234375,10.5389222 C18.09375,10.5389222 18,10.5389222 17.90625,10.5389222 L16.546875,10.5389222 L16.5,10.5868263 L16.5,13.4610778 C16.5,13.508982 16.5,13.508982 16.546875,13.5568862 L17.90625,13.5568862 C18.421875,13.5568862 18.796875,13.3652695 19.03125,12.9820359 Z M22.171875,12.9341317 C22.171875,12.8862275 22.125,12.8383234 22.078125,12.8383234 L20.4375,12.8383234 L20.4375,12.2634731 L21.890625,12.2634731 C21.9375,12.2634731 21.984375,12.2634731 21.984375,12.2155689 L21.984375,11.6886228 L21.890625,11.6407186 L20.4375,11.6407186 L20.4375,11.1616766 L21.984375,11.1616766 C22.03125,11.1616766 22.03125,11.1616766 22.078125,11.1137725 L22.078125,10.5868263 L21.984375,10.5389222 L19.734375,10.5389222 C19.6875,10.5389222 19.6875,10.5389222 19.640625,10.5868263 L19.640625,13.4610778 C19.640625,13.508982 19.6875,13.5568862 19.734375,13.5568862 L22.078125,13.5568862 C22.125,13.5568862 22.171875,13.508982 22.171875,13.4610778 L22.171875,12.9341317 Z" id="Page-1"></path>
        </g>
    </g>
</svg>