<?xml version="1.0" encoding="UTF-8"?>
<svg width="24px" height="24px" viewBox="0 0 24 24" version="1.1" xmlns="http://www.w3.org/2000/svg" xmlns:xlink="http://www.w3.org/1999/xlink">
    <!-- Generator: sketchtool 44.1 (41455) - http://www.bohemiancoding.com/sketch -->
    <title>info</title>
    <desc>Created with sketchtool.</desc>
    <defs></defs>
    <g id="Page-1" stroke="none" stroke-width="1" fill="none" fill-rule="evenodd">
        <g id="info" fill="#000000">
            <path d="M23.8585462,12.0941176 C23.8585462,15.3882353 22.6797642,18.2117647 20.3693517,20.5176471 C18.0589391,22.8235294 15.2298625,24 11.9292731,24 C8.62868369,24 5.79960707,22.8235294 3.4891945,20.5176471 C1.17878193,18.2117647 0,15.3882353 0,12.0941176 C0,8.8 1.17878193,5.97647059 3.4891945,3.67058824 C5.79960707,1.36470588 8.62868369,0.235294118 11.9292731,0.235294118 C15.2298625,0.235294118 18.0589391,1.41176471 20.3693517,3.71764706 C22.6797642,6.02352941 23.8585462,8.84705882 23.8585462,12.0941176 Z M14.0039293,18.0705882 C14.0039293,17.6 13.8624754,17.2235294 13.5324165,16.9411765 C13.1552063,16.6117647 12.7779961,16.4705882 12.4007859,16.4705882 L11.5992141,16.4705882 C11.1277014,16.4705882 10.7504912,16.6588235 10.4675835,16.9882353 C10.1846758,17.2705882 10.043222,17.6470588 10.043222,18.0705882 L10.043222,18.8235294 C10.043222,19.2941176 10.1846758,19.6705882 10.5147348,19.9529412 C10.8447937,20.2352941 11.2220039,20.3764706 11.6463654,20.3764706 L12.4479371,20.3764706 C12.9194499,20.3764706 13.2966601,20.2352941 13.5795678,19.9058824 C13.8624754,19.5764706 14.0039293,19.2 14.0039293,18.7764706 L14.0039293,18.0705882 Z M16.5972495,11.5294118 C17.021611,10.8705882 17.3045187,10.1176471 17.3988212,9.22352941 C17.3988212,7.76470588 16.8330059,6.58823529 15.7485265,5.74117647 C14.7583497,5.03529412 13.4381139,4.65882353 11.8821218,4.65882353 C10.7033399,4.65882353 9.71316306,4.94117647 8.8172888,5.45882353 C7.77996071,6.07058824 7.11984283,7.01176471 6.83693517,8.37647059 C6.69548134,8.8 6.78978389,9.27058824 7.11984283,9.69411765 C7.44990177,10.1176471 7.82711198,10.3058824 8.34577603,10.3058824 L9.05304519,10.3058824 C9.8546169,10.3058824 10.3732809,9.92941176 10.6090373,9.12941176 C10.7504912,8.8 10.8447937,8.56470588 10.891945,8.51764706 C11.1277014,8.18823529 11.4577603,8.04705882 11.9764244,8.04705882 C12.4950884,8.04705882 12.8722986,8.18823529 13.0609037,8.42352941 C13.2966601,8.8 13.3909627,9.12941176 13.3909627,9.41176471 C13.3909627,9.64705882 13.2966601,9.88235294 13.108055,10.2117647 C12.9666012,10.3529412 12.8251473,10.4941176 12.6836935,10.6352941 L12.6365422,10.6352941 L11.9764244,11.2 C11.1748527,11.8117647 10.7033399,12.3294118 10.5147348,12.8 C10.3732809,13.1294118 10.2789784,13.5529412 10.2318271,14.0235294 C10.1375246,14.4470588 10.2789784,14.8705882 10.6090373,15.2470588 C10.891945,15.5764706 11.2691552,15.7647059 11.7878193,15.7647059 L12.3536346,15.7647059 C12.6836935,15.7647059 13.0137525,15.6235294 13.3438114,15.3882353 C13.6267191,15.1529412 13.8153242,14.8705882 13.8624754,14.4941176 C13.9096267,14.4470588 13.9096267,14.4 13.9096267,14.3529412 L13.9096267,14.3058824 L13.9096267,14.2588235 C14.0510806,13.9294118 14.1925344,13.6470588 14.4282908,13.5058824 L15.0884086,12.9882353 C15.9371316,12.2352941 16.4557957,11.7647059 16.5972495,11.5294118 Z" id="Page-1"></path>
        </g>
    </g>
</svg>