<?xml version="1.0" encoding="UTF-8"?>
<svg width="24px" height="24px" viewBox="0 0 24 24" version="1.1" xmlns="http://www.w3.org/2000/svg" xmlns:xlink="http://www.w3.org/1999/xlink">
    <!-- Generator: sketchtool 44.1 (41455) - http://www.bohemiancoding.com/sketch -->
    <title>key-1</title>
    <desc>Created with sketchtool.</desc>
    <defs></defs>
    <g id="Page-1" stroke="none" stroke-width="1" fill="none" fill-rule="evenodd">
        <g id="key-1" fill="#000000">
            <g id="Imported-Layers" transform="translate(1.000000, 1.000000)">
                <path d="M13.6748168,12.7391832 L11.414,15 L11,15 L11,17 L9,17 L9,19 L7,19 L7,19.414 L4.414,22 L0,22 L0,17.586 L9.26081684,8.32518316 C9.09107507,7.74592457 9,7.13339407 9,6.5 C9,2.916 11.916,0 15.5,0 C19.084,0 22,2.916 22,6.5 C22,10.084 19.084,13 15.5,13 C14.8666059,13 14.2540754,12.9089249 13.6748168,12.7391832 Z M11.7673395,11.8186605 C11.1518494,11.3854091 10.6145909,10.8481506 10.1813395,10.2326605 L2,18.414 L2,20 L3.586,20 L5,18.586 L5,17 L7,17 L7,15 L9,15 L9,13 L10.586,13 L11.7673395,11.8186605 Z M15.5,2 C13.019,2 11,4.019 11,6.5 C11,8.981 13.019,11 15.5,11 C17.981,11 20,8.981 20,6.5 C20,4.019 17.981,2 15.5,2 Z" id="Combined-Shape"></path>
                <path d="M18,5 C18,5.552 17.552,6 17,6 C16.448,6 16,5.552 16,5 C16,4.448 16.448,4 17,4 C17.552,4 18,4.448 18,5" id="Fill-2"></path>
            </g>
        </g>
    </g>
</svg>