<?xml version="1.0" encoding="UTF-8"?>
<svg width="24px" height="24px" viewBox="0 0 24 24" version="1.1" xmlns="http://www.w3.org/2000/svg" xmlns:xlink="http://www.w3.org/1999/xlink">
    <!-- Generator: sketchtool 44.1 (41455) - http://www.bohemiancoding.com/sketch -->
    <title>key-2</title>
    <desc>Created with sketchtool.</desc>
    <defs></defs>
    <g id="Page-1" stroke="none" stroke-width="1" fill="none" fill-rule="evenodd">
        <g id="key-2" fill="#000000">
            <g id="Page-1" transform="translate(1.000000, 0.000000)">
                <path d="M16,10 C13.794,10 12,8.206 12,6 C12,3.794 13.794,2 16,2 C18.206,2 20,3.794 20,6 C20,8.206 18.206,10 16,10 M16,0 C12.686,0 10,2.686 10,6 C10,7.22 10.366,8.354 10.992,9.301 L0.646,19.646 C0.451,19.842 0.451,20.158 0.646,20.354 L1.646,21.354 C1.84,21.547 2.151,21.549 2.347,21.36 L3.073,20.661 L5.646,23.233 C5.744,23.331 5.872,23.38 6,23.38 C6.128,23.38 6.256,23.331 6.354,23.233 L7.354,22.233 C7.549,22.038 7.549,21.722 7.354,21.526 L4.816,18.989 L6.011,17.718 L8.446,20.153 C8.642,20.349 8.958,20.349 9.153,20.153 L10.153,19.153 C10.349,18.958 10.349,18.642 10.153,18.446 L7.745,16.038 L12.705,11.011 C13.651,11.635 14.782,12 16,12 C19.314,12 22,9.314 22,6 C22,2.686 19.314,0 16,0" id="Fill-3"></path>
            </g>
        </g>
    </g>
</svg>