<?xml version="1.0" encoding="UTF-8"?>
<svg width="24px" height="24px" viewBox="0 0 24 24" version="1.1" xmlns="http://www.w3.org/2000/svg" xmlns:xlink="http://www.w3.org/1999/xlink">
    <!-- Generator: sketchtool 44.1 (41455) - http://www.bohemiancoding.com/sketch -->
    <title>large-quote</title>
    <desc>Created with sketchtool.</desc>
    <defs></defs>
    <g id="Page-1" stroke="none" stroke-width="1" fill="none" fill-rule="evenodd">
        <g id="large-quote" fill="#000000">
            <path d="M11.0625,3.49234136 C11.0625,3.2166302 10.96875,2.9868709 10.78125,2.80306346 C10.59375,2.66520788 10.359375,2.57330416 10.078125,2.57330416 C8.953125,2.80306346 7.875,3.12472648 6.890625,3.53829322 C5.484375,4.1356674 4.3125,4.91684902 3.328125,5.88183807 C2.296875,6.89277899 1.5,8.04157549 0.890625,9.37417943 C0.28125,10.6608315 0,12.131291 0,13.7396061 C0,14.8424508 0.1875,15.761488 0.5625,16.4967177 C0.890625,17.4157549 1.359375,18.1969365 1.875,18.8402626 C2.484375,19.4835886 3.140625,19.9890591 3.890625,20.4026258 C4.640625,20.8161926 5.4375,21 6.328125,21 C6.84375,21 7.5,20.9080963 8.203125,20.678337 C8.765625,20.4945295 9.28125,20.1728665 9.703125,19.7592998 C10.125,19.4376368 10.453125,19.02407 10.78125,18.4266958 C11.015625,17.9671772 11.109375,17.4157549 11.109375,16.7724289 C11.109375,16.083151 11.015625,15.5776805 10.828125,15.2100656 C10.6875,14.7964989 10.453125,14.3829322 10.078125,13.9693654 C9.75,13.6017505 9.375,13.3260394 8.953125,13.1422319 C8.53125,12.9124726 8.0625,12.8205689 7.640625,12.8205689 C7.171875,12.8205689 6.796875,12.8665208 6.5625,13.0043764 C6.328125,13.0962801 6.09375,13.2341357 5.859375,13.3719912 C5.8125,13.4179431 5.671875,13.5098468 5.53125,13.5557987 C5.390625,13.6477024 5.25,13.7396061 5.203125,13.785558 C4.734375,13.8774617 4.5,13.9234136 4.453125,13.9234136 C4.125,13.9234136 3.84375,13.7396061 3.65625,13.3260394 C3.421875,13.0043764 3.328125,12.5448578 3.328125,11.9934354 C3.328125,11.1203501 3.515625,10.2932166 3.9375,9.51203501 C4.359375,8.68490153 4.921875,7.90371991 5.578125,7.21444201 C6.375,6.52516411 7.171875,5.88183807 8.0625,5.37636761 C8.859375,4.96280088 9.65625,4.595186 10.5,4.31947484 C10.875,4.18161926 11.0625,3.9059081 11.0625,3.49234136 Z M23.953125,3.49234136 C23.953125,3.2166302 23.859375,2.9868709 23.671875,2.80306346 C23.484375,2.66520788 23.296875,2.57330416 23.0625,2.57330416 C21.984375,2.7571116 20.90625,3.07877462 19.828125,3.49234136 C18.421875,4.08971554 17.25,4.87089716 16.265625,5.83588621 C15.234375,6.80087527 14.4375,7.99562363 13.828125,9.32822757 C13.21875,10.6148796 12.9375,12.0853392 12.9375,13.6936543 C12.9375,14.6586433 13.125,15.5776805 13.453125,16.4967177 C13.78125,17.4157549 14.25,18.1969365 14.765625,18.8402626 C15.421875,19.5295405 16.078125,20.0350109 16.78125,20.4026258 C17.53125,20.8161926 18.328125,21 19.21875,21 C19.734375,21 20.390625,20.9080963 21.09375,20.678337 C21.65625,20.4945295 22.171875,20.1728665 22.59375,19.7592998 C23.015625,19.4376368 23.390625,18.9781182 23.625,18.4266958 C23.859375,17.8752735 24,17.3238512 24,16.7724289 C24,16.1750547 23.90625,15.6695842 23.71875,15.2100656 C23.578125,14.7964989 23.34375,14.3829322 22.96875,13.9693654 C22.6875,13.6477024 22.3125,13.3719912 21.84375,13.1422319 C21.328125,12.9124726 20.90625,12.8205689 20.53125,12.8205689 C20.0625,12.8205689 19.6875,12.8665208 19.453125,13.0043764 C19.265625,13.0503282 19.03125,13.1881838 18.703125,13.3719912 C18.609375,13.4179431 18.515625,13.5098468 18.375,13.6017505 C18.234375,13.6936543 18.140625,13.7396061 18.09375,13.785558 C17.625,13.8774617 17.34375,13.9234136 17.296875,13.9234136 C16.96875,13.9234136 16.734375,13.7396061 16.5,13.3260394 C16.3125,12.9584245 16.21875,12.4989059 16.21875,11.9934354 C16.21875,11.166302 16.40625,10.3391685 16.78125,9.51203501 C17.296875,8.63894967 17.859375,7.90371991 18.46875,7.21444201 C19.21875,6.52516411 20.015625,5.92778993 20.90625,5.37636761 C21.796875,4.91684902 22.640625,4.54923414 23.34375,4.31947484 C23.765625,4.18161926 23.953125,3.9059081 23.953125,3.49234136 Z" id="Page-1"></path>
        </g>
    </g>
</svg>