<?xml version="1.0" encoding="UTF-8"?>
<svg width="24px" height="24px" viewBox="0 0 24 24" version="1.1" xmlns="http://www.w3.org/2000/svg" xmlns:xlink="http://www.w3.org/1999/xlink">
    <!-- Generator: Sketch 48.1 (47250) - http://www.bohemiancoding.com/sketch -->
    <title>lightbulb-1</title>
    <desc>Created with Sketch.</desc>
    <defs></defs>
    <g id="Page-1" stroke="none" stroke-width="1" fill="none" fill-rule="evenodd">
        <g id="lightbulb-1" fill="#000000">
            <g id="Light-Bulb-1" transform="translate(5.000000, 2.000000)">
                <path d="M7,0 C3.134,0 0,2.95 0,6.588 C0,12.074 4,12.507 4,14 L4,16 L10,16 L10,14 C10,12.456 14,12.25 14,6.588 C14,2.95 10.866,0 7,0 L7,0 Z M7.683,2.063 C8.13,2.12 8.564,2.214 8.966,2.372 L2.551,9.215 C2.367,8.858 2.222,8.437 2.127,7.936 L7.683,2.063 L7.683,2.063 Z M6.305,2.065 L2.001,6.614 L2,6.588 C2,4.277 3.878,2.378 6.305,2.065 L6.305,2.065 Z M9.849,11.04 C9.069,11.657 8,12.502 8,14 L6,14 C6,12.545 4.95,11.68 4.184,11.048 C3.819,10.748 3.453,10.439 3.125,10.064 L9.885,2.854 C11.16,3.686 12,5.046 12,6.588 C12,9.339 10.906,10.204 9.849,11.04 L9.849,11.04 Z" id="Fill-2"></path>
                <path d="M4,19 L5,19 C5,20.105 5.895,21 7,21 C8.105,21 9,20.105 9,19 L10,19 L10,17 L4,17 L4,19" id="Fill-3"></path>
                <polyline id="Fill-4" points="5.146 9.647 5.854 10.354 8.854 7.354 8.146 6.647 5.146 9.647"></polyline>
            </g>
        </g>
    </g>
</svg>