<?xml version="1.0" encoding="UTF-8"?>
<svg width="24px" height="24px" viewBox="0 0 24 24" version="1.1" xmlns="http://www.w3.org/2000/svg" xmlns:xlink="http://www.w3.org/1999/xlink">
    <!-- Generator: sketchtool 44.1 (41455) - http://www.bohemiancoding.com/sketch -->
    <title>location-2c</title>
    <desc>Created with sketchtool.</desc>
    <defs></defs>
    <g id="Page-1" stroke="none" stroke-width="1" fill="none" fill-rule="evenodd">
        <g id="location-2c" fill="#000000">
            <g id="Location-2/3---filled" transform="translate(3.000000, 1.000000)">
                <path d="M9.001,0 C4.583,0 1.001,3.582 1.001,8 C1.001,8 0.417,14.417 9.001,22 C9.001,22 17.001,14.75 17.001,8 C17.001,3.582 13.419,0 9.001,0 L9.001,0 Z M9.001,12 C6.792,12 5.001,10.209 5.001,8 C5.001,5.791 6.792,4 9.001,4 C11.21,4 13.001,5.791 13.001,8 C13.001,10.209 11.21,12 9.001,12 L9.001,12 Z" id="Fill-2"></path>
            </g>
        </g>
    </g>
</svg>