<?xml version="1.0" encoding="UTF-8"?>
<svg width="24px" height="24px" viewBox="0 0 24 24" version="1.1" xmlns="http://www.w3.org/2000/svg" xmlns:xlink="http://www.w3.org/1999/xlink">
    <!-- Generator: Sketch 48.1 (47250) - http://www.bohemiancoding.com/sketch -->
    <title>location</title>
    <desc>Created with Sketch.</desc>
    <defs></defs>
    <g id="Page-1" stroke="none" stroke-width="1" fill="none" fill-rule="evenodd">
        <g id="location" fill="#000000">
            <path d="M4,8.34375 C4,6.046875 4.78341014,4.078125 6.39631336,2.4375 C8.00921659,0.796875 9.94470046,0 12.202765,0 C14.4608295,0 16.3963134,0.796875 18.0092166,2.4375 C19.6221198,4.078125 20.40553,6.046875 20.40553,8.34375 C20.40553,9.796875 20.1290323,11.34375 19.5299539,12.984375 C18.9308756,14.625 18.2857143,16.03125 17.59447,17.203125 C16.8571429,18.375 16.0276498,19.59375 15.0599078,20.765625 C14.0921659,21.9375 13.4470046,22.734375 13.078341,23.109375 C12.7096774,23.484375 12.4331797,23.765625 12.202765,24 L11.3732719,23.25 C10.7741935,22.734375 10.0829493,21.9375 9.29953917,20.953125 C8.51612903,19.96875 7.68663594,18.84375 6.90322581,17.578125 C6.11981567,16.359375 5.42857143,14.90625 4.87557604,13.265625 C4.2764977,11.625 4,9.984375 4,8.34375 Z M14.921659,10.828125 C15.7050691,10.03125 16.0737327,9.140625 16.0737327,8.0625 C16.0737327,6.984375 15.7050691,6.09375 14.9677419,5.296875 C14.1843318,4.546875 13.2626728,4.171875 12.202765,4.171875 C11.1428571,4.171875 10.2211982,4.546875 9.48387097,5.296875 C8.70046083,6.09375 8.33179724,6.984375 8.33179724,8.0625 C8.33179724,9.140625 8.70046083,10.03125 9.48387097,10.828125 C10.2672811,11.625 11.1428571,12 12.202765,12 C13.2626728,12 14.1382488,11.625 14.921659,10.828125 Z" id="Page-1"></path>
        </g>
    </g>
</svg>