<?xml version="1.0" encoding="UTF-8"?>
<svg width="24px" height="24px" viewBox="0 0 24 24" version="1.1" xmlns="http://www.w3.org/2000/svg" xmlns:xlink="http://www.w3.org/1999/xlink">
    <!-- Generator: Sketch 48.1 (47250) - http://www.bohemiancoding.com/sketch -->
    <title>location-2b</title>
    <desc>Created with Sketch.</desc>
    <defs></defs>
    <g id="Page-1" stroke="none" stroke-width="1" fill="none" fill-rule="evenodd">
        <g id="location-2b" fill="#000000">
            <g id="Location-3" transform="translate(3.000000, 1.000000)">
                <path d="M9,2 C12.308,2 15,4.692 15,8 C15,11.966 11.367,16.671 8.958,19.228 C2.766,13.123 2.981,8.368 2.992,8.181 L3,8.091 L3,8 C3,4.692 5.692,2 9,2 M9,0 C4.582,0 1,3.582 1,8 C1,8 0.417,14.417 9,22 C9,22 17,14.75 17,8 C17,3.582 13.418,0 9,0" id="Fill-2"></path>
                <path d="M9,12.498 C7.848,12.498 6.695,12.059 5.818,11.182 C4.366,9.73 4.08,7.482 5.122,5.716 L5.983,6.224 C5.173,7.598 5.396,9.346 6.525,10.475 C7.89,11.84 10.11,11.84 11.475,10.475 C12.839,9.11 12.839,6.89 11.475,5.525 C11.032,5.082 10.479,4.766 9.876,4.611 L10.125,3.642 C10.901,3.842 11.613,4.248 12.182,4.818 C13.936,6.572 13.936,9.427 12.182,11.182 C11.305,12.059 10.152,12.498 9,12.498" id="Fill-3"></path>
                <path d="M8.093,4.619 L7.835,3.653 C8.215,3.551 8.607,3.5 9,3.5 L9,4.5 C8.694,4.5 8.389,4.54 8.093,4.619" id="Fill-4"></path>
                <path d="M6.525,5.525 L5.818,4.818 C6.087,4.548 6.389,4.315 6.714,4.123 L7.222,4.984 C6.969,5.133 6.735,5.315 6.525,5.525" id="Fill-5"></path>
            </g>
        </g>
    </g>
</svg>