<?xml version="1.0" encoding="UTF-8"?>
<svg width="24px" height="24px" viewBox="0 0 24 24" version="1.1" xmlns="http://www.w3.org/2000/svg" xmlns:xlink="http://www.w3.org/1999/xlink">
    <!-- Generator: Sketch 48.1 (47250) - http://www.bohemiancoding.com/sketch -->
    <title>lock-open</title>
    <desc>Created with Sketch.</desc>
    <defs></defs>
    <g id="Page-1" stroke="none" stroke-width="1" fill="none" fill-rule="evenodd">
        <g id="lock-open" fill="#000000">
            <g id="Lock-Open" transform="translate(3.000000, 2.000000)">
                <path d="M12.992,7.01 L12.992,7 L10.992,7 L10.992,6.992 L6.992,6.992 L6.992,3.992 C6.992,3.952 7.015,2.992 8.992,2.992 C10.609,2.992 10.943,3.652 10.992,4.066 L10.992,5 L12.992,5 L12.992,3.992 C12.992,3.992 12.93,0.992 8.992,0.992 C4.992,0.992 4.992,3.992 4.992,3.992 L4.992,7.01 L0.925,7.01 L0.925,19.992 L16.958,19.992 L16.958,7.01 L12.992,7.01 L12.992,7.01 Z M2.925,9.01 L14.958,9.01 L14.958,17.992 L2.925,17.992 L2.925,9.01 Z" id="Fill-2"></path>
                <path d="M7.95,14.714 L7.95,17.016 L9.992,17.016 L9.992,14.691 C10.564,14.339 10.95,13.712 10.95,12.992 C10.95,11.89 10.053,10.992 8.95,10.992 C7.847,10.992 6.95,11.89 6.95,12.992 C6.95,13.729 7.355,14.367 7.95,14.714 L7.95,14.714 Z M8.95,11.992 C9.502,11.992 9.95,12.44 9.95,12.992 C9.95,13.545 9.502,13.992 8.95,13.992 C8.398,13.992 7.95,13.545 7.95,12.992 C7.95,12.44 8.398,11.992 8.95,11.992 L8.95,11.992 Z" id="Fill-3"></path>
            </g>
        </g>
    </g>
</svg>