<?xml version="1.0" encoding="UTF-8"?>
<svg width="24px" height="24px" viewBox="0 0 24 24" version="1.1" xmlns="http://www.w3.org/2000/svg" xmlns:xlink="http://www.w3.org/1999/xlink">
    <!-- Generator: sketchtool 44.1 (41455) - http://www.bohemiancoding.com/sketch -->
    <title>mail-detail</title>
    <desc>Created with sketchtool.</desc>
    <defs></defs>
    <g id="Page-1" stroke="none" stroke-width="1" fill="none" fill-rule="evenodd">
        <g id="mail-detail" fill="#000000">
            <g id="Imported-Layers" transform="translate(1.000000, 6.000000)">
                <path d="M0.968,15.999 L21.094,15.999 L21.094,0 L0.968,0 L0.968,15.999 Z M19.094,2 L19.094,3.417 L10.99,7.918 L2.968,3.462 L2.968,2 L19.094,2 L19.094,2 Z M2.968,5.749 L4.764,6.747 L2.968,8.159 L2.968,5.749 L2.968,5.749 Z M2.968,9.43 L5.711,7.274 L7.04,8.012 L2.968,11.344 L2.968,9.43 L2.968,9.43 Z M5.048,13.999 L7.311,12.113 L6.67,11.345 L3.485,13.999 L2.968,13.999 L2.968,12.636 L7.981,8.534 L10.99,10.207 L19.094,5.704 L19.094,13.999 L5.048,13.999 L5.048,13.999 Z" id="Fill-1"></path>
                <polyline id="Fill-2" points="7.67 10.512 8.31 11.28 9.31 10.447 8.67 9.678 7.67 10.512"></polyline>
            </g>
        </g>
    </g>
</svg>