<?xml version="1.0" encoding="UTF-8"?>
<svg width="24px" height="24px" viewBox="0 0 24 24" version="1.1" xmlns="http://www.w3.org/2000/svg" xmlns:xlink="http://www.w3.org/1999/xlink">
    <!-- Generator: sketchtool 44.1 (41455) - http://www.bohemiancoding.com/sketch -->
    <title>mail-circle</title>
    <desc>Created with sketchtool.</desc>
    <defs></defs>
    <g id="Page-1" stroke="none" stroke-width="1" fill="none" fill-rule="evenodd">
        <g id="mail-circle" fill="#000000">
            <path d="M12.140625,2.19035612e-06 C15.421875,0.0468745446 18.234375,1.2186834 20.53125,3.56230112 C22.828125,5.90591883 24,8.71826009 24,12.0461972 C23.953125,15.3741344 22.78125,18.233348 20.4375,20.5300934 C18.09375,22.8737111 15.28125,24.0455199 11.953125,23.9986476 C8.625,23.9517752 5.8125,22.7799664 3.515625,20.4363487 C1.171875,18.1396033 0,15.2803897 0,11.9524525 C0,8.62451538 1.171875,5.76530177 3.5625,3.42168405 C5.90625,1.12493869 8.765625,-0.0468701639 12.140625,2.19035612e-06 Z M8.25,9.09323892 C8.015625,9.32760069 8.015625,9.56196246 8.25,9.70257953 C9.046875,10.1244307 10.171875,10.7806437 11.671875,11.6712184 C11.90625,11.8118355 12.09375,11.8118355 12.28125,11.6712184 C12.421875,11.6243461 12.890625,11.3431119 13.734375,10.8743884 C14.53125,10.4056648 15.1875,10.030686 15.609375,9.79632423 C16.03125,9.56196246 16.078125,9.28072834 15.65625,8.99949421 C15.515625,8.9057495 15.328125,8.85887715 15.09375,8.85887715 L12.046875,8.85887715 L8.90625,8.85887715 C8.578125,8.85887715 8.390625,8.95262186 8.25,9.09323892 Z M16.03125,10.3587925 C15.984375,10.4056648 15.890625,10.4525372 15.796875,10.4994095 C15.703125,10.5462819 15.65625,10.5462819 15.609375,10.5931543 L12.375,12.4211761 C12.140625,12.5617931 11.953125,12.5617931 11.71875,12.4211761 C10.21875,11.5306013 9.09375,10.9212607 8.34375,10.4994095 C8.203125,10.3587925 8.0625,10.3119201 7.96875,10.3587925 C7.96875,10.6400266 7.96875,11.0150054 7.96875,11.5306013 C7.96875,12.0461972 7.96875,12.5149208 7.96875,12.936772 C7.96875,13.3586232 7.96875,13.7804743 7.96875,14.1554532 C7.96875,14.7179214 8.25,14.9991556 8.8125,14.9991556 L15.140625,14.9991556 C15.75,14.9991556 16.03125,14.7179214 16.03125,14.1554532 L16.03125,10.3587925 Z" id="Page-1"></path>
        </g>
    </g>
</svg>