<?xml version="1.0" encoding="UTF-8"?>
<svg width="24px" height="24px" viewBox="0 0 24 24" version="1.1" xmlns="http://www.w3.org/2000/svg" xmlns:xlink="http://www.w3.org/1999/xlink">
    <!-- Generator: Sketch 48.1 (47250) - http://www.bohemiancoding.com/sketch -->
    <title>mail</title>
    <desc>Created with Sketch.</desc>
    <defs></defs>
    <g id="Page-1" stroke="none" stroke-width="1" fill="none" fill-rule="evenodd">
        <g id="mail" fill="#000000">
            <path d="M0.801571709,3.38255034 C0.094302554,4.13422819 0.094302554,4.74496644 0.801571709,5.16778523 C6.41257367,8.40939597 9.8546169,10.3825503 11.0333988,11.0872483 C11.6463654,11.4161074 12.259332,11.4161074 12.8251473,11.0872483 C14.0039293,10.3825503 15.7013752,9.44295302 17.9174853,8.17449664 C20.1335953,6.95302013 21.7367387,6.06040268 22.7269155,5.4966443 C24.0471513,4.79194631 24.0943026,4.04026846 22.8212181,3.14765101 C22.4911591,2.81879195 21.9253438,2.67785235 21.1709234,2.67785235 L12.1178782,2.67785235 L2.82907662,2.67785235 C1.93320236,2.67785235 1.27308448,2.91275168 0.801571709,3.38255034 Z M24.0943026,7.18791946 C23.8585462,7.32885906 23.6227898,7.46979866 23.3398821,7.61073826 C23.0569745,7.75167785 22.8683694,7.89261745 22.7740668,7.93959732 C20.2750491,9.30201342 17.021611,11.0872483 13.108055,13.3892617 C12.4950884,13.6711409 11.8821218,13.6711409 11.2220039,13.3892617 C8.39292731,11.6510067 5.04518664,9.72483221 1.2259332,7.56375839 C1.17878193,7.51677852 1.08447937,7.46979866 0.94302554,7.37583893 C0.801571709,7.28187919 0.707269155,7.23489933 0.660117878,7.18791946 C0.612966601,7.18791946 0.518664047,7.1409396 0.377210216,7.09395973 C0.188605108,7.04697987 0.047151277,7.09395973 0,7.18791946 L0,18.5100671 C0,19.261745 0.235756385,19.8724832 0.707269155,20.295302 C1.17878193,20.7651007 1.79174853,21 2.49901768,21 L21.453831,21 C22.2554028,21 22.8683694,20.7651007 23.3870334,20.295302 C23.8585462,19.8724832 24.0943026,19.261745 24.0943026,18.5100671 L24.0943026,7.18791946 Z" id="Page-1"></path>
        </g>
    </g>
</svg>