<?xml version="1.0" encoding="UTF-8"?>
<svg width="24px" height="24px" viewBox="0 0 24 24" version="1.1" xmlns="http://www.w3.org/2000/svg" xmlns:xlink="http://www.w3.org/1999/xlink">
    <!-- Generator: sketchtool 44.1 (41455) - http://www.bohemiancoding.com/sketch -->
    <title>map-views-2</title>
    <desc>Created with sketchtool.</desc>
    <defs></defs>
    <g id="Page-1" stroke="none" stroke-width="1" fill="none" fill-rule="evenodd">
        <g id="map-views-2" fill="#000000">
            <g id="Map-views-2" transform="translate(2.000000, 2.000000)">
                <polyline id="Fill-2" points="2.236 5 10 1.118 17.764 5 10 8.882 2.236 5"></polyline>
                <path d="M10,2.236 L15.528,5 L10,7.764 L4.472,5 L10,2.236 M10,0 L0,5 L10,10 L20,5 L10,0" id="Fill-3"></path>
                <polyline id="Fill-4" points="16 8 13.764 9.118 15.528 10 10 12.764 4.472 10 6.236 9.118 4 8 0 10 10 15 20 10 16 8"></polyline>
                <polyline id="Fill-5" points="16 13 13.764 14.118 15.528 15 10 17.764 4.472 15 6.236 14.118 4 13 0 15 10 20 20 15 16 13"></polyline>
            </g>
        </g>
    </g>
</svg>