<?xml version="1.0" encoding="UTF-8"?>
<svg width="24px" height="24px" viewBox="0 0 24 24" version="1.1" xmlns="http://www.w3.org/2000/svg" xmlns:xlink="http://www.w3.org/1999/xlink">
    <!-- Generator: sketchtool 44.1 (41455) - http://www.bohemiancoding.com/sketch -->
    <title>misc-bell</title>
    <desc>Created with sketchtool.</desc>
    <defs></defs>
    <g id="Page-1" stroke="none" stroke-width="1" fill="none" fill-rule="evenodd">
        <g id="misc-bell" fill="#000000">
            <g id="Notifications" transform="translate(1.000000, 1.000000)">
                <path d="M20.832,19.445 L19,16.697 L19,9.01 C19.001,8.894 19.005,6.136 16.985,4.095 C15.963,3.063 14.629,2.41 13.009,2.141 L13.002,2 L13.002,0 L9.002,0 L9.002,2 C9.002,2 8.992,2.086 8.994,2.22 C3.156,3.37 3.001,8.928 3,9 L3,16.697 L1.168,19.445 C0.963,19.752 0.944,20.146 1.118,20.472 C1.293,20.797 1.631,21 2,21 L9,21 C9,22.105 9.97,23 11.167,23 C12.363,23 13.333,22.105 13.333,21 L20,21 C20.369,21 20.708,20.797 20.882,20.472 C21.056,20.146 21.037,19.752 20.832,19.445 L20.832,19.445 Z M3.869,19 L4.538,17.995 L12,17.995 L12,17 L5,17 L5,9.016 C5.011,8.513 5.271,4.102 11.018,4 L11.212,3.998 C13.632,3.998 15.333,4.815 16.266,6.426 C16.992,7.678 17,8.981 17,9 L17,17 L16,17 L16,17.995 L17.462,17.995 L18.131,19 L3.869,19 L3.869,19 Z" id="Fill-2"></path>
                <polygon id="Fill-3" points="13 17 14.975 17 14.975 17.996 13 17.996"></polygon>
            </g>
        </g>
    </g>
</svg>