<?xml version="1.0" encoding="UTF-8"?>
<svg width="24px" height="24px" viewBox="0 0 24 24" version="1.1" xmlns="http://www.w3.org/2000/svg" xmlns:xlink="http://www.w3.org/1999/xlink">
    <!-- Generator: Sketch 48.1 (47250) - http://www.bohemiancoding.com/sketch -->
    <title>misc-skull</title>
    <desc>Created with Sketch.</desc>
    <defs></defs>
    <g id="Page-1" stroke="none" stroke-width="1" fill="none" fill-rule="evenodd">
        <g id="misc-skull" fill="#000000">
            <g id="Imported-Layers">
                <path d="M10,15 C11.105,15 12,14.105 12,13 C12,11.895 11.105,11 10,11 C8.895,11 8,11.895 8,13 C8,14.105 8.895,15 10,15" id="Fill-1"></path>
                <path d="M14.5,15 C15.328,15 16,14.328 16,13.5 C16,12.672 15.328,12 14.5,12 C13.672,12 13,12.672 13,13.5 C13,14.328 13.672,15 14.5,15" id="Fill-2"></path>
                <path d="M23,6 C23.552,6 24,5.552 24,5 L24,3 C24,2.448 23.552,2 23,2 L22,2 L22,1 C22,0.448 21.552,0 21,0 L19,0 C18.448,0 18,0.448 18,1 L18,2.586 L16.319,4.267 C15.069,3.469 13.59,3 12,3 C10.41,3 8.931,3.469 7.681,4.267 L6,2.586 L6,1 C6,0.448 5.552,0 5,0 L3,0 C2.448,0 2,0.448 2,1 L2,2 L1,2 C0.448,2 0,2.448 0,3 L0,5 C0,5.552 0.448,6 1,6 L2.586,6 L4.558,7.972 C4.162,8.924 3.941,9.966 3.941,11.059 C3.941,12.615 4.394,14.102 5.209,15.377 L2.586,18 L1,18 C0.448,18 0,18.448 0,19 L0,21 C0,21.552 0.448,22 1,22 L2,22 L2,23 C2,23.552 2.448,24 3,24 L5,24 C5.552,24 6,23.552 6,23 L6,21.414 L7.414,20 L16.586,20 L18,21.414 L18,23 C18,23.552 18.448,24 19,24 L21,24 C21.552,24 22,23.552 22,23 L22,22 L23,22 C23.552,22 24,21.552 24,21 L24,19 C24,18.448 23.552,18 23,18 L21.414,18 L18.792,15.377 C19.606,14.102 20.059,12.615 20.059,11.059 C20.059,9.966 19.838,8.924 19.442,7.972 L21.414,6 L23,6 L23,6 Z M18.059,11.059 C18.059,12.903 17.23,14.625 15.786,15.785 L15.412,16.085 L15.412,18 L8.588,18 L8.588,16.085 L8.214,15.785 C6.77,14.625 5.941,12.903 5.941,11.059 C5.941,7.718 8.659,5 12,5 C15.341,5 18.059,7.718 18.059,11.059 L18.059,11.059 Z M3.707,4.293 C3.52,4.105 3.265,4 3,4 C3.552,4 4,3.552 4,3 C4,3.265 4.106,3.519 4.293,3.707 L6.135,5.549 C5.945,5.751 5.767,5.963 5.598,6.184 L3.707,4.293 L3.707,4.293 Z M4.293,20.293 C4.106,20.481 4,20.735 4,21 C4,20.448 3.552,20 3,20 C3.265,20 3.52,19.895 3.707,19.707 L6.489,16.925 C6.523,16.958 6.553,16.994 6.588,17.025 L6.588,17.998 L4.293,20.293 L4.293,20.293 Z M20.293,19.707 C20.48,19.895 20.735,20 21,20 C20.448,20 20,20.448 20,21 C20,20.735 19.894,20.481 19.707,20.293 L17.412,17.998 L17.412,17.025 C17.447,16.994 17.477,16.958 17.511,16.925 L20.293,19.707 L20.293,19.707 Z M20.293,4.293 L18.402,6.184 C18.233,5.963 18.055,5.751 17.865,5.549 L19.707,3.707 C19.894,3.519 20,3.265 20,3 C20,3.552 20.448,4 21,4 C20.735,4 20.48,4.105 20.293,4.293 L20.293,4.293 Z" id="Fill-3"></path>
            </g>
        </g>
    </g>
</svg>