<?xml version="1.0" encoding="UTF-8"?>
<svg width="24px" height="24px" viewBox="0 0 24 24" version="1.1" xmlns="http://www.w3.org/2000/svg" xmlns:xlink="http://www.w3.org/1999/xlink">
    <!-- Generator: Sketch 48.1 (47250) - http://www.bohemiancoding.com/sketch -->
    <title>misc-www</title>
    <desc>Created with Sketch.</desc>
    <defs></defs>
    <g id="Page-1" stroke="none" stroke-width="1" fill="none" fill-rule="evenodd">
        <g id="misc-www" fill="#000000">
            <g id="WWW" transform="translate(1.000000, 1.000000)">
                <path d="M14,16.1967895 L14,11.5 L8,11.5 L8,16.2334033 C9.0344622,16.4377639 10.0437206,16.4978541 10.999,16.5 C12.110651,16.5 13.1100856,16.3843366 14.0000019,16.196786 Z M15,15.9446086 C18.0336733,15.0491589 19.5237184,13.3757748 19.615,13.275 L19.618,13.272 L19.6928818,13.3352183 C19.8515464,12.7450449 19.951566,12.1310857 19.9862815,11.5 L15,11.5 L15,15.9446086 Z M14,5.76664005 C12.9652678,5.56224464 11.9557045,5.50214604 11,5.5 C9.88876172,5.5 8.88965809,5.61561778 8,5.80310303 L8,10.5 L14,10.5 L14,5.76664005 Z M15,6.00997769 L15,10.5 L19.9862845,10.5 C19.9524439,9.88487328 19.8565632,9.28601791 19.7048062,8.70960049 L19.652,8.764 C18.1279936,7.28644754 16.5465825,6.46096757 15,6.00997769 Z M14,19.4860244 L14,17.2170976 C13.0986648,17.3934514 12.0989453,17.5 10.999,17.5 C10.063265,17.502021 9.0506044,17.4444758 8,17.2513114 L8,19.4860244 C8.93872018,19.8188149 9.94858013,20 11,20 C12.0514199,20 13.0612798,19.8188149 14,19.4860244 Z M15,19.0614821 C16.7155169,18.2068941 18.1214826,16.820565 19.000775,15.1196168 C18.1102319,15.7537115 16.7828207,16.4984015 15,16.9837571 L15,19.0614821 Z M14,2.51397557 C13.0612798,2.18118513 12.0514199,2 11,2 C9.94858013,2 8.93872018,2.18118513 8,2.51397557 L8,4.78279214 C8.90106963,4.6065042 9.90045788,4.5 11,4.5 C11.9361028,4.49797891 12.9491362,4.55552804 14,4.7487077 L14,2.51397557 Z M15,2.9385179 L15,4.97318416 C16.3241347,5.32669163 17.6873437,5.92413624 19.0156849,6.90935432 C18.1374206,5.19517726 16.7252465,3.79795268 15,2.9385179 Z M7,15.9900345 L7,11.5 L2.01371548,11.5 C2.04756954,12.1153707 2.14351282,12.7144571 2.29537437,13.2910854 L2.349,13.236 C3.87249228,14.7135658 5.45366894,15.5390473 7,15.9900345 Z M7,6.05527644 C3.96645425,6.95069792 2.47628546,8.62422085 2.385,8.725 L2.382,8.728 L2.30711818,8.66478171 C2.14845362,9.25495512 2.04843401,9.86891426 2.01371847,10.5 L7,10.5 L7,6.05527644 Z M7,19.0614821 L7,17.0267978 C5.6762324,16.6733345 4.31317307,16.0760041 2.98451429,15.0910344 C3.86279296,16.805034 5.27488394,18.2021123 7,19.0614821 Z M7,2.9385179 C5.28450442,3.79309525 3.87855234,5.17940052 2.99925778,6.88031971 C3.88981793,6.24618696 5.21723493,5.50146052 7,5.0161239 L7,2.9385179 Z M11,0 C17.075,0 22,4.925 22,11 C22,17.075 17.075,22 11,22 C4.925,22 0,17.075 0,11 C0,4.925 4.925,0 11,0 Z" id="Combined-Shape"></path>
            </g>
        </g>
    </g>
</svg>