<?xml version="1.0" encoding="UTF-8"?>
<svg width="24px" height="24px" viewBox="0 0 24 24" version="1.1" xmlns="http://www.w3.org/2000/svg" xmlns:xlink="http://www.w3.org/1999/xlink">
    <!-- Generator: sketchtool 44.1 (41455) - http://www.bohemiancoding.com/sketch -->
    <title>misc-phone-1</title>
    <desc>Created with sketchtool.</desc>
    <defs></defs>
    <g id="Page-1" stroke="none" stroke-width="1" fill="none" fill-rule="evenodd">
        <g id="misc-phone-1" fill="#000000">
            <path d="M21.477,15.4476295 L19.323,13.8316295 C18.282,13.0516295 16.738,13.1616295 15.815,14.0816295 C15.504,14.3936295 14.658,14.7896295 14.151,14.7896295 C14.105,14.7896295 14.075,14.7866295 14.068,14.7916295 L8.757,9.50062951 C8.653,9.20062951 9.032,8.13862951 9.453,7.71862951 C10.391,6.78062951 10.498,5.27262951 9.702,4.21062951 L8.087,2.05862951 C7.335,1.05462951 5.864,0.706629508 4.741,1.26762951 L2.483,2.39662951 C1.568,2.85462951 1,3.77362951 1,4.79762951 L1,8.06562951 C1,9.85262951 1.696,11.5336295 2.96,12.7986295 L10.845,20.6826295 C12.04,21.8776295 13.628,22.5346295 15.315,22.5346295 L18.737,22.5346295 C19.761,22.5346295 20.68,21.9666295 21.138,21.0516295 L22.267,18.7926295 C22.847,17.6326295 22.514,16.2246295 21.477,15.4476295 L21.477,15.4476295 Z M5.635,3.05662951 C5.731,3.00962951 5.834,2.98462951 5.94,2.98462951 C6.157,2.98462951 6.356,3.08462951 6.487,3.25962951 L8.103,5.41062951 C8.305,5.68062951 8.277,6.06462951 8.039,6.30362951 C7.815,6.52762951 7.599,6.82462951 7.409,7.15762951 L4.084,3.83262951 L5.635,3.05662951 L5.635,3.05662951 Z M18.737,20.5346295 L15.315,20.5346295 C14.161,20.5346295 13.076,20.0856295 12.259,19.2686295 L4.374,11.3846295 C3.488,10.4976295 3,9.31862951 3,8.06562951 L3,4.79762951 C3,4.66262951 3.041,4.53762951 3.11,4.42962951 L6.934,8.25462951 C6.931,8.26462951 6.926,8.27462951 6.923,8.28462951 C6.595,9.36962951 6.727,10.2776295 7.293,10.8446295 L12.69,16.2416295 C12.94,16.4916295 13.396,16.7896295 14.151,16.7896295 C14.516,16.7896295 14.901,16.7146295 15.278,16.5986295 L19.105,20.4246295 C18.997,20.4936295 18.872,20.5346295 18.737,20.5346295 L18.737,20.5346295 Z M20.478,17.8986295 L19.702,19.4506295 L16.374,16.1236295 C16.715,15.9286295 17.014,15.7116295 17.23,15.4956295 C17.433,15.2936295 17.711,15.1236295 18.123,15.4316295 L20.276,17.0476295 C20.54,17.2456295 20.625,17.6036295 20.478,17.8986295 L20.478,17.8986295 Z" id="Phone-1"></path>
        </g>
    </g>
</svg>