<?xml version="1.0" encoding="UTF-8"?>
<svg width="24px" height="24px" viewBox="0 0 24 24" version="1.1" xmlns="http://www.w3.org/2000/svg" xmlns:xlink="http://www.w3.org/1999/xlink">
    <!-- Generator: Sketch 48.1 (47250) - http://www.bohemiancoding.com/sketch -->
    <title>misc-jpoc</title>
    <desc>Created with Sketch.</desc>
    <defs></defs>
    <g id="Page-1" stroke="none" stroke-width="1" fill="none" fill-rule="evenodd">
        <g id="misc-jpoc" fill="#000000">
            <g id="Imported-Layers" transform="translate(-1.000000, 1.000000)">
                <path d="M21.0213321,7.51669016 L19.38,6.89 C18.746,6.678 18.556,5.874 19.029,5.401 L20.999,3.43 L21,3.43663432 L21,2.397 L16.294,5.43 L9.709,5.43 L5,2.432 L4.99397889,3.48368768 L5,3.43 L6.7360002,5.313 C7.20895192,5.826 7.01903368,6.7 6.38474365,6.929 L4.97014052,7.64745536 L4.97,7.672 L3.089,15.196 C3.866,16.108 6.292,18.525 10.282,18.674 L10.561,18.685 L10.795,18.839 C11.248,19.138 11.867,19.424 12.07,19.43 L13.931,19.43 C14.133,19.424 14.763,19.132 15.204,18.84 L15.437,18.685 L15.718,18.674 C19.706,18.525 22.131,16.111 22.911,15.196 L21.0213321,7.51669016 Z M23,7.307 L25.081,15.63 L24.819,16.004 C24.693,16.183 21.728,20.32 16.067,20.66 C15.59,20.949 14.685,21.43 13.931,21.43 L12.069,21.43 C11.315,21.43 10.41,20.949 9.933,20.66 C4.272,20.32 1.307,16.183 1.181,16.004 L0.919,15.63 L3,7.307 L3,1.843 C3,0.916 3.755,0.162 4.683,0.162 C5.043,0.162 5.386,0.276 5.677,0.492 L10.292,3.43 L15.706,3.43 L20.567,0.297 C20.831,0.103 21.142,0 21.469,0 C22.313,0 23,0.686 23,1.53 L23,7.307 Z M10,12.43 C10,12.982 9.552,13.43 9,13.43 C8.448,13.43 8,12.982 8,12.43 L8,11.43 C8,10.877 8.448,10.43 9,10.43 C9.552,10.43 10,10.877 10,11.43 L10,12.43 Z M17,13.43 C16.448,13.43 16,12.982 16,12.43 L16,11.43 C16,10.877 16.448,10.43 17,10.43 C17.552,10.43 18,10.877 18,11.43 L18,12.43 C18,12.982 17.552,13.43 17,13.43 Z M7.5,15.43 C7.776,15.43 8,15.654 8,15.93 C8,16.206 7.776,16.43 7.5,16.43 C7.224,16.43 7,16.206 7,15.93 C7,15.654 7.224,15.43 7.5,15.43 Z M6.5,14.43 C6.776,14.43 7,14.654 7,14.93 C7,15.206 6.776,15.43 6.5,15.43 C6.224,15.43 6,15.206 6,14.93 C6,14.654 6.224,14.43 6.5,14.43 Z M8.5,14.43 C8.776,14.43 9,14.654 9,14.93 C9,15.206 8.776,15.43 8.5,15.43 C8.224,15.43 8,15.206 8,14.93 C8,14.654 8.224,14.43 8.5,14.43 Z M18.5,15.43 C18.776,15.43 19,15.654 19,15.93 C19,16.206 18.776,16.43 18.5,16.43 C18.224,16.43 18,16.206 18,15.93 C18,15.654 18.224,15.43 18.5,15.43 Z M17.5,14.43 C17.776,14.43 18,14.654 18,14.93 C18,15.206 17.776,15.43 17.5,15.43 C17.224,15.43 17,15.206 17,14.93 C17,14.654 17.224,14.43 17.5,14.43 Z M19.5,14.43 C19.776,14.43 20,14.654 20,14.93 C20,15.206 19.776,15.43 19.5,15.43 C19.224,15.43 19,15.206 19,14.93 C19,14.654 19.224,14.43 19.5,14.43 Z M15.66,16.064 C15.861,15.875 16.178,15.887 16.366,16.089 C16.554,16.292 16.543,16.608 16.34,16.796 C15.67,17.418 14.968,17.701 14.267,17.645 C13.741,17.601 13.322,17.369 13.036,17.149 C12.651,17.517 12.216,17.715 11.735,17.742 C11.7,17.744 11.665,17.745 11.631,17.745 C10.532,17.745 9.668,16.807 9.63,16.766 C9.445,16.562 9.46,16.248 9.663,16.061 C9.866,15.877 10.183,15.89 10.369,16.092 C10.545,16.284 11.128,16.778 11.684,16.743 C12.014,16.724 12.313,16.525 12.596,16.136 C12.623,16.098 12.663,16.075 12.699,16.047 C12.611,16.009 12.526,15.956 12.454,15.883 L11.802,15.231 C11.506,14.935 11.715,14.43 12.134,14.43 L13.866,14.43 C14.285,14.43 14.494,14.935 14.198,15.231 L13.546,15.883 C13.474,15.956 13.389,16.009 13.3,16.047 C13.333,16.073 13.371,16.092 13.397,16.125 C13.398,16.127 13.784,16.605 14.358,16.648 C14.768,16.685 15.207,16.482 15.66,16.064 Z" id="Combined-Shape"></path>
            </g>
        </g>
    </g>
</svg>