<?xml version="1.0" encoding="UTF-8"?>
<svg width="24px" height="24px" viewBox="0 0 24 24" version="1.1" xmlns="http://www.w3.org/2000/svg" xmlns:xlink="http://www.w3.org/1999/xlink">
    <!-- Generator: sketchtool 44.1 (41455) - http://www.bohemiancoding.com/sketch -->
    <title>misc-video-camera</title>
    <desc>Created with sketchtool.</desc>
    <defs></defs>
    <g id="Page-1" stroke="none" stroke-width="1" fill="none" fill-rule="evenodd">
        <g id="misc-video-camera" fill="#000000">
            <g id="Imported-Layers" transform="translate(0.000000, 1.000000)">
                <path d="M22.483,10.388 C22.171,10.155 21.778,10.081 21.406,10.19 L19,10.895 L19,9 L16.969,9 C18.194,8.088 19,6.641 19,5 C19,2.243 16.757,0 14,0 C11.879,0 10.073,1.334 9.348,3.202 C8.561,1.889 7.139,1 5.5,1 C3.019,1 1,3.019 1,5.5 C1,6.921 1.675,8.175 2.706,9 L0.997,9 L1.001,21 L19,21 L19,18.247 L21.407,18.951 C21.52,18.984 21.636,19 21.75,19 C22.011,19 22.267,18.916 22.483,18.753 C22.807,18.511 23,18.119 23,17.704 L23,11.437 C23,11.023 22.807,10.631 22.483,10.388 L22.483,10.388 Z M14,2 C15.654,2 17,3.346 17,5 C17,6.654 15.654,8 14,8 C12.346,8 11,6.654 11,5 C11,3.346 12.346,2 14,2 L14,2 Z M5.5,3 C6.878,3 8,4.122 8,5.5 C8,6.878 6.878,8 5.5,8 C4.122,8 3,6.878 3,5.5 C3,4.122 4.122,3 5.5,3 L5.5,3 Z M9.603,7.329 C9.953,7.987 10.437,8.558 11.031,9 L8.293,9 C8.851,8.554 9.307,7.989 9.603,7.329 L9.603,7.329 Z M17,19 L2.999,19 L2.998,14 L11,14 L11,13 L2.998,13 L2.998,11 L17,11 L17,19 L17,19 Z M21,16.748 L19,16.163 L19,12.979 L21,12.393 L21,16.748 L21,16.748 Z" id="Fill-1"></path>
                <polygon id="Fill-2" points="12 13 14 13 14 14 12 14"></polygon>
            </g>
        </g>
    </g>
</svg>