<?xml version="1.0" encoding="UTF-8"?>
<svg width="24px" height="24px" viewBox="0 0 24 24" version="1.1" xmlns="http://www.w3.org/2000/svg" xmlns:xlink="http://www.w3.org/1999/xlink">
    <!-- Generator: sketchtool 44.1 (41455) - http://www.bohemiancoding.com/sketch -->
    <title>misc-www</title>
    <desc>Created with sketchtool.</desc>
    <defs></defs>
    <g id="Page-1" stroke="none" stroke-width="1" fill="none" fill-rule="evenodd">
        <g id="misc-www" fill="#000000">
            <g id="WWW" transform="translate(1.000000, 1.000000)">
                <path d="M11,2 C15.963,2 20,6.037 20,11 C20,15.963 15.963,20 11,20 C6.037,20 2,15.963 2,11 C2,6.037 6.037,2 11,2 M11,0 C4.925,0 0,4.925 0,11 C0,17.075 4.925,22 11,22 C17.075,22 22,17.075 22,11 C22,4.925 17.075,0 11,0" id="Fill-2"></path>
                <path d="M2.382,8.728 L2.385,8.725 C2.51,8.587 5.258,5.5 11,5.5 C13.672,5.506 16.765,5.965 19.652,8.764 L20.348,8.047 C17.236,5.013 13.779,4.494 11,4.5 C4.677,4.5 1.666,8.022 1.618,8.083 L2.382,8.728" id="Fill-3"></path>
                <path d="M19.618,13.272 L19.615,13.275 C19.49,13.413 16.742,16.5 10.999,16.5 C8.328,16.494 5.235,16.035 2.349,13.236 L1.651,13.953 C4.765,16.987 8.221,17.506 10.999,17.5 C17.323,17.5 20.334,13.978 20.382,13.917 L19.618,13.272" id="Fill-4"></path>
                <polygon id="Fill-5" points="1 10.5 21 10.5 21 11.5 1 11.5"></polygon>
                <polygon id="Fill-6" points="7 2 8 2 8 20 7 20"></polygon>
                <polygon id="Fill-7" points="14 2 15 2 15 20 14 20"></polygon>
            </g>
        </g>
    </g>
</svg>