<?xml version="1.0" encoding="UTF-8"?>
<svg width="24px" height="24px" viewBox="0 0 24 24" version="1.1" xmlns="http://www.w3.org/2000/svg" xmlns:xlink="http://www.w3.org/1999/xlink">
    <!-- Generator: Sketch 48.1 (47250) - http://www.bohemiancoding.com/sketch -->
    <title>misc-design</title>
    <desc>Created with Sketch.</desc>
    <defs></defs>
    <g id="Page-1" stroke="none" stroke-width="1" fill="none" fill-rule="evenodd">
        <g id="misc-design" fill="#000000">
            <g id="Design-edit">
                <path d="M18.7323227,8.43950543 L15.5601774,5.26799453 L3.806,17.023 L3.7908,17.0838 L6.9162,20.2092 L6.977,20.194 L18.7323227,8.43950543 Z M19.438939,7.73293896 L21.172,6 L18,2.828 L16.267061,4.56106104 L19.438939,7.73293896 Z M5.7842,20.4922 L3.5078,18.2158 L2.749,21.251 L5.7842,20.4922 Z M18,0.785 C18.485,0.785 18.97,0.97 19.34,1.341 L22.66,4.659 C23.4,5.4 23.4,6.6 22.66,7.341 L8.097,21.903 C8.034,21.966 7.954,22.012 7.866,22.033 L0.803,23.799 C0.762,23.81 0.721,23.815 0.681,23.815 C0.37,23.815 0.12,23.519 0.201,23.197 L1.967,16.133 C1.988,16.046 2.034,15.966 2.097,15.903 L16.66,1.341 C17.03,0.97 17.515,0.785 18,0.785 Z" id="Combined-Shape"></path>
                <path d="M2.625,16.625 L7,21" id="Fill-2"></path>
                <path d="M15,4 L20,9" id="Fill-4"></path>
            </g>
        </g>
    </g>
</svg>