<?xml version="1.0" encoding="UTF-8"?>
<svg width="24px" height="24px" viewBox="0 0 24 24" version="1.1" xmlns="http://www.w3.org/2000/svg" xmlns:xlink="http://www.w3.org/1999/xlink">
    <!-- Generator: Sketch 48.1 (47250) - http://www.bohemiancoding.com/sketch -->
    <title>misc-wifi</title>
    <desc>Created with Sketch.</desc>
    <defs></defs>
    <g id="Page-1" stroke="none" stroke-width="1" fill="none" fill-rule="evenodd">
        <g id="misc-wifi" fill="#000000">
            <g id="Wifi" transform="translate(1.000000, 4.000000)">
                <path d="M11,15 C10.449,15 10,14.551 10,14 C10,13.449 10.449,13 11,13 C11.551,13 12,13.449 12,14 C12,14.551 11.551,15 11,15" id="Fill-1"></path>
                <path d="M11,12 C9.895,12 9,12.895 9,14 C9,15.105 9.895,16 11,16 C12.105,16 13,15.105 13,14 C13,12.895 12.105,12 11,12" id="Fill-2"></path>
                <path d="M11,10 C12.591,10 13.486,10.737 14.137,11.386 C14.362,11.612 14.722,11.617 14.957,11.402 L15.568,10.848 C15.827,10.612 15.834,10.208 15.578,9.968 C14.821,9.259 13.148,8 11,8 C8.84,8 7.198,9.28 6.441,9.985 C6.185,10.224 6.191,10.629 6.451,10.865 L6.984,11.349 C7.228,11.571 7.606,11.56 7.825,11.314 C8.314,10.764 9.292,10 11,10" id="Fill-3"></path>
                <path d="M11,6 C14.334,6 16.269,7.914 16.989,8.809 C17.179,9.045 17.528,9.065 17.753,8.861 L18.437,8.239 C18.643,8.052 18.672,7.737 18.499,7.52 C17.712,6.533 15.361,4 11,4 C6.876,4 4.41,6.528 3.547,7.518 C3.356,7.737 3.373,8.067 3.588,8.262 L4.248,8.862 C4.47,9.063 4.814,9.047 5.006,8.816 C5.748,7.924 7.769,6 11,6" id="Fill-4"></path>
                <path d="M11,2 C16.088,2 18.83,4.956 19.745,6.195 C19.947,6.468 20.338,6.511 20.589,6.282 L21.234,5.696 C21.448,5.502 21.481,5.181 21.315,4.944 C20.421,3.668 17.266,0 11,0 C4.669,0 1.591,3.684 0.697,4.952 C0.53,5.189 0.562,5.511 0.776,5.706 L1.427,6.297 C1.676,6.523 2.061,6.485 2.265,6.218 C3.202,4.994 5.988,2 11,2" id="Fill-5"></path>
            </g>
        </g>
    </g>
</svg>