<?xml version="1.0" encoding="UTF-8"?>
<svg width="24px" height="24px" viewBox="0 0 24 24" version="1.1" xmlns="http://www.w3.org/2000/svg" xmlns:xlink="http://www.w3.org/1999/xlink">
    <!-- Generator: sketchtool 44.1 (41455) - http://www.bohemiancoding.com/sketch -->
    <title>misc-copyright</title>
    <desc>Created with sketchtool.</desc>
    <defs></defs>
    <g id="Page-1" stroke="none" stroke-width="1" fill="none" fill-rule="evenodd">
        <g id="misc-copyright" fill="#000000">
            <g id="Imported-Layers" transform="translate(1.000000, 1.000000)">
                <path d="M11,22 C4.935,22 0,17.065 0,11 C0,4.935 4.935,0 11,0 C17.065,0 22,4.935 22,11 C22,17.065 17.065,22 11,22 L11,22 Z M11,2 C6.038,2 2,6.038 2,11 C2,15.962 6.038,20 11,20 C15.962,20 20,15.962 20,11 C20,6.038 15.962,2 11,2 L11,2 Z" id="Fill-1"></path>
                <path d="M15.243,13.828 C14.852,13.438 14.219,13.438 13.828,13.828 C12.216,15.441 9.807,15.464 8.226,13.883 C6.637,12.293 6.637,9.707 8.226,8.117 C9.807,6.536 12.216,6.559 13.828,8.172 C14.219,8.562 14.852,8.562 15.243,8.172 C15.633,7.781 15.633,7.148 15.243,6.757 C12.864,4.378 9.16,4.354 6.812,6.703 C4.442,9.072 4.442,12.928 6.812,15.297 C9.16,17.646 12.864,17.621 15.243,15.243 C15.633,14.852 15.633,14.219 15.243,13.828" id="Fill-2"></path>
            </g>
        </g>
    </g>
</svg>