<?xml version="1.0" encoding="UTF-8"?>
<svg width="24px" height="24px" viewBox="0 0 24 24" version="1.1" xmlns="http://www.w3.org/2000/svg" xmlns:xlink="http://www.w3.org/1999/xlink">
    <!-- Generator: Sketch 48.1 (47250) - http://www.bohemiancoding.com/sketch -->
    <title>more</title>
    <desc>Created with Sketch.</desc>
    <defs></defs>
    <g id="Page-1" stroke="none" stroke-width="1" fill="none" fill-rule="evenodd">
        <g id="more" fill="#000000">
            <path d="M10.921875,13.078125 L7.640625,13.078125 L7.640625,10.921875 L10.921875,10.921875 L10.921875,7.640625 L13.078125,7.640625 L13.078125,10.921875 L16.359375,10.921875 L16.359375,13.078125 L13.078125,13.078125 L13.078125,16.359375 L10.921875,16.359375 L10.921875,13.078125 Z M20.484375,3.515625 C22.828125,5.859375 24,8.671875 24,12 C24,15.328125 22.828125,18.140625 20.484375,20.484375 C18.140625,22.828125 15.328125,24 12,24 C8.671875,24 5.859375,22.828125 3.515625,20.484375 C1.171875,18.140625 0,15.328125 0,12 C0,8.671875 1.171875,5.859375 3.515625,3.515625 C5.859375,1.171875 8.671875,0 12,0 C15.328125,0 18.140625,1.171875 20.484375,3.515625 Z M5.0625,5.0625 C3.140625,6.984375 2.203125,9.28125 2.203125,12 C2.203125,14.71875 3.140625,17.015625 5.0625,18.9375 C6.984375,20.859375 9.28125,21.796875 12,21.796875 C14.71875,21.796875 17.015625,20.859375 18.9375,18.9375 C20.859375,17.015625 21.796875,14.71875 21.796875,12 C21.796875,9.28125 20.859375,6.984375 18.9375,5.0625 C17.015625,3.140625 14.71875,2.203125 12,2.203125 C9.28125,2.203125 6.984375,3.140625 5.0625,5.0625 Z" id="Page-1"></path>
        </g>
    </g>
</svg>