<?xml version="1.0" encoding="UTF-8"?>
<svg width="24px" height="24px" viewBox="0 0 24 24" version="1.1" xmlns="http://www.w3.org/2000/svg" xmlns:xlink="http://www.w3.org/1999/xlink">
    <!-- Generator: Sketch 48.1 (47250) - http://www.bohemiancoding.com/sketch -->
    <title>music-headphones</title>
    <desc>Created with Sketch.</desc>
    <defs></defs>
    <g id="Page-1" stroke="none" stroke-width="1" fill="none" fill-rule="evenodd">
        <g id="music-headphones" fill="#000000">
            <g id="Headphones" transform="translate(2.000000, 4.000000)">
                <path d="M17.001,8.046 L17.001,6.012 C17.002,5.916 17.01,3.636 15.291,1.896 C14.048,0.638 12.268,0 10,0 C4.463,0 3,3.925 3,6 L3,8.046 C-0.126,8.327 0.001,9.987 0.001,12 C0.001,14.005 0.011,15.66 3,15.95 L3,16 L5,16 L5,6.006 C5.005,5.596 5.191,2 10,2 C14.856,2 15,5.585 15.001,6 L15.001,16 L17.001,16 L17.001,15.95 C19.989,15.66 20,14.005 20,12 C20,9.987 20.127,8.327 17.001,8.046 L17.001,8.046 Z" id="Fill-2"></path>
            </g>
        </g>
    </g>
</svg>