<?xml version="1.0" encoding="UTF-8"?>
<svg width="24px" height="24px" viewBox="0 0 24 24" version="1.1" xmlns="http://www.w3.org/2000/svg" xmlns:xlink="http://www.w3.org/1999/xlink">
    <!-- Generator: sketchtool 44.1 (41455) - http://www.bohemiancoding.com/sketch -->
    <title>music-note-1</title>
    <desc>Created with sketchtool.</desc>
    <defs></defs>
    <g id="Page-1" stroke="none" stroke-width="1" fill="none" fill-rule="evenodd">
        <g id="music-note-1" fill="#000000">
            <path d="M8,2 L8,14.556 C7.409,14.212 6.732,14 6,14 C3.794,14 2,15.794 2,18 C2,20.206 3.794,22 6,22 C8.206,22 10,20.206 10,18 L10,8 L20,8 L20,13.556 C19.409,13.212 18.732,13 18,13 C15.794,13 14,14.794 14,17 C14,19.206 15.794,21 18,21 C20.206,21 22,19.206 22,17 L22,2 L8,2 L8,2 Z M6,20 C4.897,20 4,19.103 4,18 C4,16.897 4.897,16 6,16 C7.103,16 8,16.897 8,18 C8,19.103 7.103,20 6,20 L6,20 Z M10,4 L20,4 L20,6 L10,6 L10,4 Z M18,19 C16.897,19 16,18.103 16,17 C16,15.897 16.897,15 18,15 C19.103,15 20,15.897 20,17 C20,18.103 19.103,19 18,19 L18,19 Z" id="Imported-Layers"></path>
        </g>
    </g>
</svg>