<?xml version="1.0" encoding="UTF-8"?>
<svg width="24px" height="24px" viewBox="0 0 24 24" version="1.1" xmlns="http://www.w3.org/2000/svg" xmlns:xlink="http://www.w3.org/1999/xlink">
    <!-- Generator: sketchtool 44.1 (41455) - http://www.bohemiancoding.com/sketch -->
    <title>new-tag</title>
    <desc>Created with sketchtool.</desc>
    <defs></defs>
    <g id="Page-1" stroke="none" stroke-width="1" fill="none" fill-rule="evenodd">
        <g id="new-tag" fill="#000000">
            <path d="M23.203125,7.33333333 C23.4375,7.33333333 23.625,7.42857143 23.765625,7.57142857 C23.90625,7.71428571 24,7.9047619 24,8.14285714 L24,16.1428571 C24,16.3809524 23.90625,16.5714286 23.765625,16.7142857 C23.625,16.9047619 23.4375,17 23.203125,17 L0.796875,17 C0.5625,17 0.375,16.9047619 0.234375,16.7142857 C0.09375,16.5714286 0,16.3809524 0,16.1428571 L0,8.14285714 C0,7.9047619 0.09375,7.71428571 0.234375,7.57142857 C0.375,7.42857143 0.5625,7.33333333 0.796875,7.33333333 L23.203125,7.33333333 Z M4.78125,12.0952381 C4.78125,11.7619048 4.6875,11.4761905 4.453125,11.2380952 C4.21875,11 3.890625,10.9047619 3.5625,10.9047619 C3.234375,10.9047619 2.953125,11 2.71875,11.2380952 C2.484375,11.4761905 2.34375,11.7619048 2.34375,12.0952381 C2.34375,12.4285714 2.484375,12.7142857 2.71875,12.952381 C2.953125,13.1904762 3.234375,13.3333333 3.5625,13.3333333 C3.890625,13.3333333 4.21875,13.1904762 4.453125,12.952381 C4.6875,12.7142857 4.78125,12.4285714 4.78125,12.0952381 Z M10.59375,10.1428571 L9.703125,10.1428571 L9.703125,13.047619 L7.96875,10.1428571 L7.03125,10.1428571 L7.03125,14.4761905 L7.921875,14.4761905 L7.921875,11.5714286 L9.703125,14.4761905 L10.59375,14.4761905 L10.59375,10.1428571 Z M14.90625,13.6666667 L12.65625,13.6666667 L12.65625,12.6190476 L14.671875,12.6190476 L14.671875,11.9047619 L12.65625,11.9047619 L12.65625,10.952381 L14.859375,10.952381 L14.859375,10.1428571 L11.71875,10.1428571 L11.71875,14.4761905 L14.90625,14.4761905 L14.90625,13.6666667 Z M20.953125,10.1428571 L20.0625,10.1428571 L19.359375,13.0952381 L18.65625,10.1428571 L17.765625,10.1428571 L17.0625,13.0952381 L16.359375,10.1428571 L15.421875,10.1428571 L16.546875,14.4761905 L17.53125,14.4761905 L18.234375,11.5238095 L18.9375,14.4761905 L19.875,14.4761905 L20.953125,10.1428571 Z" id="Page-1"></path>
        </g>
    </g>
</svg>