<?xml version="1.0" encoding="UTF-8"?>
<svg width="24px" height="24px" viewBox="0 0 24 24" version="1.1" xmlns="http://www.w3.org/2000/svg" xmlns:xlink="http://www.w3.org/1999/xlink">
    <!-- Generator: sketchtool 44.1 (41455) - http://www.bohemiancoding.com/sketch -->
    <title>outbid</title>
    <desc>Created with sketchtool.</desc>
    <defs></defs>
    <g id="Page-1" stroke="none" stroke-width="1" fill="none" fill-rule="evenodd">
        <g id="outbid" fill="#000000">
            <path d="M23.2257777,1.05538397 C23.7414027,1.66834058 24.0226527,2.18699616 24.0226527,2.61135074 C23.9757777,3.08285582 23.7414027,3.64866192 23.2257777,4.30876903 L16.0539027,13.2673656 L21.1632777,18.2653194 C22.3351527,19.4440821 22.1007777,20.9057479 20.3664027,22.5560157 C18.7257777,24.2062835 17.3195277,24.442036 16.1476527,23.2632733 L10.9445277,18.2653194 L5.74140267,23.2632733 C4.56952767,24.442036 3.16327767,24.2062835 1.52265267,22.5560157 C-0.211722326,20.9057479 -0.446097326,19.4440821 0.725777674,18.2653194 L5.60077767,13.5031181 L1.24140267,9.25957239 C0.0695276743,8.08080968 0.303902674,6.61914393 2.03827767,4.92172564 C3.67890267,3.27145785 5.08515267,3.03570531 6.30390267,4.21446802 L10.9914027,8.7409168 L19.3351527,1.38543753 C20.6945277,-0.0762282265 22.0070277,-0.170529243 23.2257777,1.05538397 Z" id="Page-1"></path>
        </g>
    </g>
</svg>