<?xml version="1.0" encoding="UTF-8"?>
<svg width="24px" height="24px" viewBox="0 0 24 24" version="1.1" xmlns="http://www.w3.org/2000/svg" xmlns:xlink="http://www.w3.org/1999/xlink">
    <!-- Generator: sketchtool 44.1 (41455) - http://www.bohemiancoding.com/sketch -->
    <title>paynow-circle</title>
    <desc>Created with sketchtool.</desc>
    <defs></defs>
    <g id="Page-1" stroke="none" stroke-width="1" fill="none" fill-rule="evenodd">
        <g id="paynow-circle" fill="#000000">
            <path d="M7.734375,9.515625 C8.4375,9.515625 8.8125,9.890625 8.8125,10.6875 C8.8125,11.4375 8.4375,11.8125 7.734375,11.8125 L6.65625,11.8125 L6.65625,9.515625 L7.734375,9.515625 Z M20.484375,3.515625 C22.828125,5.859375 24,8.671875 24,12 C24,15.328125 22.828125,18.140625 20.484375,20.484375 C18.140625,22.828125 15.328125,24 12,24 C8.671875,24 5.859375,22.828125 3.515625,20.484375 C1.171875,18.140625 0,15.328125 0,12 C0,8.671875 1.171875,5.859375 3.515625,3.515625 C5.859375,1.171875 8.671875,0 12,0 C15.328125,0 18.140625,1.171875 20.484375,3.515625 Z M8.203125,13.59375 C9,13.59375 9.65625,13.3125 10.171875,12.75 C10.6875,12.234375 10.921875,11.53125 10.875,10.640625 C10.875,9.75 10.640625,9.046875 10.171875,8.53125 C9.65625,8.015625 9,7.734375 8.15625,7.734375 L4.640625,7.734375 L4.640625,16.21875 L6.703125,16.21875 L6.703125,13.59375 L8.203125,13.59375 Z M19.03125,16.21875 L19.03125,7.734375 L16.96875,7.734375 L16.96875,11.625 C16.96875,12 17.015625,12.515625 17.0625,13.125 L16.3125,11.625 L14.015625,7.734375 L11.953125,7.734375 L11.953125,16.21875 L14.0625,16.21875 L14.0625,12.28125 C14.0625,11.90625 14.015625,11.390625 13.96875,10.78125 L14.671875,12.28125 L17.015625,16.21875 L19.078125,16.21875 L19.03125,16.21875 Z" id="Page-1"></path>
        </g>
    </g>
</svg>