<?xml version="1.0" encoding="UTF-8"?>
<svg width="24px" height="24px" viewBox="0 0 24 24" version="1.1" xmlns="http://www.w3.org/2000/svg" xmlns:xlink="http://www.w3.org/1999/xlink">
    <!-- Generator: Sketch 48.1 (47250) - http://www.bohemiancoding.com/sketch -->
    <title>phone</title>
    <desc>Created with Sketch.</desc>
    <defs></defs>
    <g id="Page-1" stroke="none" stroke-width="1" fill="none" fill-rule="evenodd">
        <g id="phone" fill="#000000">
            <path d="M22.6421993,15.1702544 C23.298495,15.6399217 23.7203993,16.2504892 23.9079123,17.0489237 C24.0954254,17.8473581 24.0016689,18.5988258 23.5797645,19.3033268 L21.2358516,24 L15.6104604,24 C14.2041126,24 13.0321561,23.5303327 12.0477127,22.5440313 L1.5001043,11.9295499 C0.515660855,10.9902153 0,9.81604697 0,8.36007828 L0,2.72407045 L4.73470421,0.422700587 C5.4378781,0.0469667319 6.18793025,-0.0469667319 6.98486067,0.140900196 C7.78179108,0.328767123 8.39120845,0.75146771 8.85999105,1.36203523 L11.7195649,5.3072407 C12.0477127,5.72994129 12.2352257,6.24657534 12.2352257,6.85714286 C12.1883475,7.46771037 12.0008344,7.98434442 11.6258084,8.40704501 L10.4069736,9.95694716 L14.0165996,13.5264188 C14.4385039,13.2915851 14.9072865,12.962818 15.4698256,12.4931507 C15.9854865,12.0704501 16.5480256,11.8825832 17.157443,11.8356164 C17.7668604,11.8356164 18.3762777,12.0234834 18.8919386,12.3992172 L22.6421993,15.1702544 Z M4.64094769,3.94520548 L8.29745193,7.60861057 L8.95374757,6.81017613 L6.32856503,3.19373777 L6.141052,3.14677104 L4.64094769,3.94520548 Z M19.3138429,20.9001957 L19.5482342,20.4305284 L15.4229474,16.2504892 C14.0165996,16.9549902 12.8915214,16.8610568 12.094591,15.9686888 L7.82866934,11.741683 C7.406765,11.3189824 7.1723737,10.7553816 7.12549544,10.1448141 C7.07861719,9.53424658 7.21925196,8.97064579 7.59427804,8.45401174 L3.56274772,4.4148728 L3.14084339,4.64970646 L3.14084339,8.36007828 C3.14084339,8.92367906 3.32835642,9.39334638 3.7033825,9.7221135 L14.2509909,20.3365949 C14.626017,20.7123288 15.0947996,20.9001957 15.6104604,20.9001957 L19.3138429,20.9001957 Z M20.8608255,17.9412916 L20.8139472,17.7064579 L17.2980778,15.1232877 C17.157443,15.1702544 17.0168082,15.3111546 16.8292952,15.4520548 C16.6417821,15.592955 16.5011473,15.6868885 16.4542691,15.7338552 L20.0638951,19.3502935 L20.8608255,17.9412916 Z" id="Page-1"></path>
        </g>
    </g>
</svg>