<?xml version="1.0" encoding="UTF-8"?>
<svg width="24px" height="24px" viewBox="0 0 24 24" version="1.1" xmlns="http://www.w3.org/2000/svg" xmlns:xlink="http://www.w3.org/1999/xlink">
    <!-- Generator: sketchtool 44.1 (41455) - http://www.bohemiancoding.com/sketch -->
    <title>pinterest</title>
    <desc>Created with sketchtool.</desc>
    <defs></defs>
    <g id="Page-1" stroke="none" stroke-width="1" fill="none" fill-rule="evenodd">
        <g id="pinterest" fill="#000000">
            <path d="M0,12 C0,8.671875 1.1741019,5.859375 3.52230569,3.515625 C5.87050948,1.171875 8.68835402,0 12.0228034,0 C15.3572528,0 18.1750973,1.171875 20.5233011,3.515625 C22.8715049,5.859375 24.0456068,8.671875 23.9986427,12 C23.9986427,15.328125 22.8245408,18.140625 20.4763371,20.484375 C18.1281333,22.828125 15.3102887,24 11.9758393,24 C10.8017374,24 9.62763554,23.8125 8.45353365,23.484375 C9.25192293,22.125 9.76852777,21.046875 9.90942,20.34375 C10.0503122,19.921875 10.2851326,18.984375 10.6608452,17.484375 C11.17745,18.375 12.0697675,18.84375 13.4317257,18.84375 C15.2163606,18.84375 16.719211,18.140625 17.8933129,16.6875 C19.0674148,15.234375 19.6779478,13.5 19.6779478,11.390625 C19.6779478,9.421875 18.9734866,7.78125 17.5645644,6.421875 C16.108678,5.109375 14.3710072,4.453125 12.2576238,4.453125 C9.76852777,4.453125 7.84300066,5.15625 6.43407839,6.5625 C5.02515611,8.015625 4.32069497,9.703125 4.32069497,11.71875 C4.32069497,12.65625 4.55551535,13.59375 5.02515611,14.484375 C5.44783279,15.375 6.05836578,16.03125 6.76282692,16.359375 C6.9976473,16.453125 7.13853952,16.40625 7.1855036,16.21875 C7.27943175,15.84375 7.3733599,15.375 7.51425213,14.8125 C7.56121621,14.765625 7.51425213,14.625 7.42032398,14.484375 C6.80979099,13.6875 6.52800654,12.796875 6.52800654,11.765625 C6.52800654,10.359375 7.04461137,9.140625 8.03085696,8.109375 C9.01710256,7.078125 10.3320967,6.5625 11.9758393,6.5625 C13.4317257,6.5625 14.6527917,7.03125 15.5920732,7.921875 C16.5313547,8.8125 17.0009954,9.984375 17.0009954,11.4375 C17.0009954,13.03125 16.6252828,14.34375 15.9208217,15.375 C15.2163606,16.40625 14.3240431,16.921875 13.2438694,16.921875 C12.6333364,16.921875 12.1636956,16.6875 11.8349471,16.265625 C11.4592345,15.84375 11.3183423,15.328125 11.4592345,14.765625 C11.5531626,14.4375 11.6940549,13.96875 11.8819112,13.40625 C12.0228034,12.84375 12.1636956,12.328125 12.3045879,11.90625 C12.398516,11.484375 12.4454801,11.109375 12.4454801,10.78125 C12.4454801,10.265625 12.3045879,9.890625 12.0697675,9.5625 C11.787983,9.234375 11.4122704,9.09375 10.8956656,9.09375 C10.2851326,9.09375 9.81549184,9.375 9.39281516,9.890625 C8.97013848,10.453125 8.7353181,11.15625 8.7353181,12 C8.7353181,12.703125 8.87621033,13.3125 9.11103071,13.78125 L7.70210843,19.734375 C7.51425213,20.53125 7.51425213,21.65625 7.65514436,23.203125 C5.35390464,22.3125 3.52230569,20.8125 2.11338341,18.796875 C0.704461137,16.78125 0,14.484375 0,12 Z" id="Page-1"></path>
        </g>
    </g>
</svg>