<?xml version="1.0" encoding="UTF-8"?>
<svg width="24px" height="24px" viewBox="0 0 24 24" version="1.1" xmlns="http://www.w3.org/2000/svg" xmlns:xlink="http://www.w3.org/1999/xlink">
    <!-- Generator: Sketch 48.1 (47250) - http://www.bohemiancoding.com/sketch -->
    <title>plus</title>
    <desc>Created with Sketch.</desc>
    <defs></defs>
    <g id="Page-1" stroke="none" stroke-width="1" fill="none" fill-rule="evenodd">
        <g id="plus" fill="#000000">
            <path d="M22.1754386,9.375 C22.6432749,9.375 23.0643275,9.5625 23.4385965,9.890625 C23.7660819,10.21875 23.9532164,10.640625 24,11.109375 L24,12.609375 C24,13.125 23.8128655,13.546875 23.4853801,13.875 C23.1111111,14.25 22.6900585,14.4375 22.1754386,14.4375 L14.4093567,14.4375 L14.4093567,22.171875 C14.4093567,22.6875 14.2222222,23.109375 13.8947368,23.4375 C13.5204678,23.8125 13.0994152,24 12.6315789,24 L11.0877193,24 C10.619883,24 10.1988304,23.8125 9.87134503,23.4375 C9.49707602,23.109375 9.30994152,22.6875 9.30994152,22.171875 L9.30994152,14.484375 L1.6374269,14.484375 C1.16959064,14.484375 0.795321637,14.296875 0.467836257,13.96875 C0.140350877,13.640625 0,13.21875 0,12.703125 L0,11.203125 C0,10.6875 0.187134503,10.265625 0.561403509,9.890625 C0.888888889,9.5625 1.30994152,9.375 1.77777778,9.375 L9.26315789,9.375 L9.26315789,1.6875 C9.30994152,1.171875 9.54385965,0.75 9.87134503,0.421875 C10.1988304,0.09375 10.619883,-0.09375 11.0409357,-0.09375 L12.5847953,-0.09375 C13.0526316,-0.09375 13.4736842,0.09375 13.8479532,0.421875 C14.1754386,0.796875 14.3625731,1.21875 14.3625731,1.6875 L14.3625731,9.375 L22.1754386,9.375 Z" id="Page-1"></path>
        </g>
    </g>
</svg>