<?xml version="1.0" encoding="UTF-8"?>
<svg width="24px" height="24px" viewBox="0 0 24 24" version="1.1" xmlns="http://www.w3.org/2000/svg" xmlns:xlink="http://www.w3.org/1999/xlink">
    <!-- Generator: Sketch 48.1 (47250) - http://www.bohemiancoding.com/sketch -->
    <title>printer-3</title>
    <desc>Created with Sketch.</desc>
    <defs></defs>
    <g id="Page-1" stroke="none" stroke-width="1" fill="none" fill-rule="evenodd">
        <g id="printer-3" fill="#000000">
            <g transform="translate(1.000000, 2.000000)" id="Combined-Shape">
                <path d="M5,7 L5,2 L7.001,0 L17.125,0 L17.125,7 L19.636,7 C20.939,7 22,8.06 22,9.364 L22,14.636 C22,15.939 20.939,17 19.636,17 L18,17 L18,15 L19.636,15 C19.833,15 20,14.833 20,14.636 L20,9.364 C20,9.167 19.833,9 19.636,9 L2.364,9 C2.166,9 2,9.167 2,9.364 L2,14.636 C2,14.833 2.166,15 2.364,15 L4,15 L4,17 L2.364,17 C1.061,17 0,15.939 0,14.636 L0,9.364 C0,8.06 1.061,7 2.364,7 L5,7 Z M15.125,2 L7.829,2 L7,2.829 L7,6.875 L15.125,6.875 L15.125,2 Z M5,20.125 L5,14 L17,14 L17,20.125 L5,20.125 Z M7,16 L7,18.125 L15,18.125 L15,16 L7,16 Z M17,11 C17,10.448 17.448,10 18,10 C18.552,10 19,10.448 19,11 C19,11.552 18.552,12 18,12 C17.448,12 17,11.552 17,11 Z M14,11 C14,10.448 14.448,10 15,10 C15.552,10 16,10.448 16,11 C16,11.552 15.552,12 15,12 C14.448,12 14,11.552 14,11 Z M8,5 L14,5 L14,6 L8,6 L8,5 Z M8,3 L14,3 L14,4 L8,4 L8,3 Z"></path>
            </g>
        </g>
    </g>
</svg>