<?xml version="1.0" encoding="UTF-8"?>
<svg width="24px" height="24px" viewBox="0 0 24 24" version="1.1" xmlns="http://www.w3.org/2000/svg" xmlns:xlink="http://www.w3.org/1999/xlink">
    <!-- Generator: sketchtool 44.1 (41455) - http://www.bohemiancoding.com/sketch -->
    <title>print</title>
    <desc>Created with sketchtool.</desc>
    <defs></defs>
    <g id="Page-1" stroke="none" stroke-width="1" fill="none" fill-rule="evenodd">
        <g id="print" fill="#000000">
            <path d="M7.41918285,18.3429752 L7.41918285,21.4793388 L16.5288124,21.4793388 L16.5288124,18.3429752 L7.41918285,18.3429752 Z M18.1253455,16.822314 L18.1253455,23 L5.91656354,23 L5.91656354,16.822314 L18.0783886,16.822314 L18.1253455,16.822314 Z M17.3270789,15.3016529 C17.5618632,15.3016529 17.7496906,15.2066116 17.8905612,15.0640496 C18.0314317,14.9214876 18.1253455,14.7789256 18.1253455,14.5413223 C18.1253455,14.303719 18.0314317,14.1136364 17.8905612,13.9710744 C17.7496906,13.8285124 17.5618632,13.7809917 17.3270789,13.7809917 C17.1392515,13.7809917 16.9514241,13.8285124 16.8105536,13.9710744 C16.669683,14.1136364 16.5757693,14.303719 16.5757693,14.5413223 C16.5757693,14.7789256 16.669683,14.9214876 16.8105536,15.0640496 C16.9514241,15.2066116 17.1392515,15.3016529 17.3270789,15.3016529 Z M21.1775409,9.1714876 C21.9758074,9.1714876 22.6332034,9.45661157 23.1966856,10.0268595 C23.7601679,10.5971074 24.041909,11.3099174 23.9949521,12.1177686 L23.9949521,18.5330579 C23.9949521,19.3409091 23.713211,20.053719 23.1966856,20.6239669 C22.6332034,21.1942149 21.9288506,21.4793388 21.1305841,21.4793388 L19.4870942,21.4793388 L19.4870942,18.3904959 L20.9897135,18.3904959 L20.9897135,12.2128099 L3.05219548,12.2128099 L3.05219548,18.3904959 L4.41394423,18.3904959 L4.41394423,21.4793388 L2.86436806,21.4793388 C2.06610155,21.4793388 1.36174875,21.1942149 0.845223363,20.6239669 C0.281741121,20.053719 0,19.3409091 0,18.5330579 L0,12.1177686 C0,11.3099174 0.281741121,10.5971074 0.845223363,10.0268595 C1.4087056,9.45661157 2.06610155,9.1714876 2.86436806,9.1714876 L5.91656354,9.1714876 L5.91656354,4.56198347 L8.96875902,1.4731405 L18.1253455,1.4731405 L18.1253455,9.1714876 L21.1775409,9.1714876 Z M7.46613971,9.1714876 L16.5757693,9.1714876 L16.5757693,3.04132231 L10.5183352,3.04132231 L10.5183352,6.08264463 L7.46613971,6.08264463 L7.46613971,9.1714876 Z" id="Page-1"></path>
        </g>
    </g>
</svg>