<?xml version="1.0" encoding="UTF-8"?>
<svg width="24px" height="24px" viewBox="0 0 24 24" version="1.1" xmlns="http://www.w3.org/2000/svg" xmlns:xlink="http://www.w3.org/1999/xlink">
    <!-- Generator: Sketch 48.1 (47250) - http://www.bohemiancoding.com/sketch -->
    <title>printer-2</title>
    <desc>Created with Sketch.</desc>
    <defs></defs>
    <g id="Page-1" stroke="none" stroke-width="1" fill="none" fill-rule="evenodd">
        <g id="printer-2" fill="#000000">
            <g id="Printer-2" transform="translate(1.000000, 2.000000)">
                <path d="M5,16 L2.364,16 C1.061,16 0,14.939 0,13.636 L0,8.364 C0,7.06 1.061,6 2.364,6 L5,6 L5,0 L17,0 L17,6 L19.636,6 C20.939,6 22,7.06 22,8.364 L22,13.636 C22,14.939 20.939,16 19.636,16 L17,16 L17,21 L4.998,21 L5,21 L5,16 Z M5,14 L5,12 L17,12 L17,14 L19.636,14 C19.833,14 20,13.833 20,13.636 L20,8.364 C20,8.166 19.833,8 19.636,8 L2.364,8 C2.166,8 2,8.166 2,8.364 L2,13.636 C2,13.833 2.166,14 2.364,14 L5,14 Z M7,2 L7,6 L15,6 L15,2 L7,2 Z M7,14 L7,19 L15,19 L15,14 L7,14 Z M17,10 C17,9.448 17.448,9 18,9 C18.552,9 19,9.448 19,10 C19,10.552 18.552,11 18,11 C17.448,11 17,10.552 17,10 Z M14,10 C14,9.448 14.448,9 15,9 C15.552,9 16,9.448 16,10 C16,10.552 15.552,11 15,11 C14.448,11 14,10.552 14,10 Z M8,15 L14,15 L14,16 L8,16 L8,15 Z M8,17 L14,17 L14,18 L8,18 L8,17 Z" id="Combined-Shape"></path>
            </g>
        </g>
    </g>
</svg>