<?xml version="1.0" encoding="UTF-8"?>
<svg width="24px" height="24px" viewBox="0 0 24 24" version="1.1" xmlns="http://www.w3.org/2000/svg" xmlns:xlink="http://www.w3.org/1999/xlink">
    <!-- Generator: Sketch 48.1 (47250) - http://www.bohemiancoding.com/sketch -->
    <title>print-circle</title>
    <desc>Created with Sketch.</desc>
    <defs></defs>
    <g id="Page-1" stroke="none" stroke-width="1" fill="none" fill-rule="evenodd">
        <g id="print-circle" fill="#000000">
            <path d="M16.3115793,12.9836443 C16.4990687,12.9836443 16.5459411,13.077389 16.4990687,13.2180061 C16.4990687,13.3586232 16.4521964,13.4054955 16.3115793,13.4054955 C16.1709622,13.4054955 16.1240899,13.3586232 16.1240899,13.2180061 C16.1240899,13.077389 16.1709622,12.9836443 16.3115793,12.9836443 Z M16.3115793,12.3743037 C16.4521964,12.3743037 16.5459411,12.4211761 16.4990687,12.5617931 C16.4990687,12.7024102 16.4521964,12.7492826 16.3115793,12.7492826 C16.1709622,12.7492826 16.1240899,12.7024102 16.1240899,12.5617931 C16.1240899,12.4211761 16.1709622,12.3743037 16.3115793,12.3743037 Z M9.04636438,14.8116661 L9.04636438,14.9991556 L8.99949202,14.9991556 C8.85887496,14.9991556 8.8120026,14.9522832 8.8120026,14.8116661 C8.8120026,14.6710491 8.85887496,14.5773044 8.99949202,14.5773044 L15.0460257,14.5773044 C15.1866428,14.5773044 15.2335151,14.6710491 15.2335151,14.8116661 L15.0928981,14.9522832 L15.0928981,14.8116661 L9.04636438,14.8116661 Z M12.1399398,2.19035612e-06 C15.4210046,0.0468745446 18.2333458,1.2186834 20.5769635,3.56230112 C22.8737089,5.90591883 24.0455177,8.71826009 23.9986454,12.0461972 C23.951773,15.3741344 22.7799642,18.233348 20.4363465,20.5300934 C18.0927288,22.8737111 15.2803875,24.0455199 11.9524503,23.9986476 C8.62451319,23.9517752 5.81217193,22.7799664 3.51542657,20.4363487 C1.17180886,18.1396033 0,15.2803897 0,11.9524525 C0,8.62451538 1.17180886,5.76530177 3.56229892,3.42168405 C5.90591664,1.12493869 8.76513025,-0.0468701639 12.1399398,2.19035612e-06 Z M9.04636438,12.8430273 L15.0928981,12.8430273 L15.0928981,7.31208946 L9.04636438,7.31208946 L9.04636438,12.8430273 Z M17.1084093,12.1868143 C17.1084093,11.8587078 16.9677922,11.7180908 16.6396858,11.7180908 L15.2803875,11.7180908 L15.2803875,12.8898996 C15.2803875,13.0305167 15.1397704,13.1242614 14.811664,13.1242614 L9.28072615,13.1242614 C8.95261967,13.1242614 8.8120026,13.0305167 8.8120026,12.8898996 L8.8120026,11.7180908 L7.35895962,11.7180908 C7.03085314,11.7180908 6.89023608,11.8587078 6.89023608,12.1868143 L6.89023608,15.7022409 C6.89023608,16.0303474 7.03085314,16.2178368 7.35895962,16.2178368 L9.04636438,16.2178368 L9.04636438,16.639688 L15.0928981,16.639688 L15.0928981,16.2178368 L16.6865581,16.2178368 C17.0146646,16.2178368 17.1552817,16.0303474 17.1552817,15.7022409 L17.1084093,12.1868143 Z" id="Page-1"></path>
        </g>
    </g>
</svg>