<?xml version="1.0" encoding="UTF-8"?>
<svg width="24px" height="24px" viewBox="0 0 24 24" version="1.1" xmlns="http://www.w3.org/2000/svg" xmlns:xlink="http://www.w3.org/1999/xlink">
    <!-- Generator: sketchtool 44.1 (41455) - http://www.bohemiancoding.com/sketch -->
    <title>printer</title>
    <desc>Created with sketchtool.</desc>
    <defs></defs>
    <g id="Page-1" stroke="none" stroke-width="1" fill="none" fill-rule="evenodd">
        <g id="printer" fill="#000000">
            <path d="M6.09580838,0 L6.09580838,7.3125 L19.4091816,7.3125 L19.4091816,0 L8.0239521,0 L6.09580838,0 Z M22.4850299,8.34375 C22.760479,8.34375 22.99002,8.4375 23.2195609,8.625 C23.4031936,8.859375 23.49501,9.09375 23.49501,9.375 L23.49501,18.75 L19.4091816,18.75 L19.4091816,13.546875 L4.0758483,13.546875 L4.0758483,18.75 L1,18.75 L1,9.375 C1,9.09375 1.09181637,8.859375 1.32135729,8.625 C1.50499002,8.4375 1.73453094,8.34375 2.00998004,8.34375 L22.4850299,8.34375 Z M21.4291417,10.453125 L17.3433134,10.453125 L17.3433134,11.484375 L21.4291417,11.484375 L21.4291417,10.453125 Z M18.3992016,21.890625 L16.3333333,24 L5.08582834,24 L5.08582834,14.625 L18.3992016,14.625 L18.3992016,21.890625 Z M16.3333333,20.859375 L7.15169661,20.859375 L7.15169661,21.890625 L16.3333333,21.890625 L16.3333333,20.859375 Z M16.3333333,18.796875 L7.15169661,18.796875 L7.15169661,19.828125 L16.3333333,19.828125 L16.3333333,18.796875 Z M16.3333333,16.6875 L7.15169661,16.6875 L7.15169661,17.71875 L16.3333333,17.71875 L16.3333333,16.6875 Z" id="Page-1"></path>
        </g>
    </g>
</svg>