<?xml version="1.0" encoding="UTF-8"?>
<svg width="24px" height="24px" viewBox="0 0 24 24" version="1.1" xmlns="http://www.w3.org/2000/svg" xmlns:xlink="http://www.w3.org/1999/xlink">
    <!-- Generator: Sketch 48.1 (47250) - http://www.bohemiancoding.com/sketch -->
    <title>profile</title>
    <desc>Created with Sketch.</desc>
    <defs></defs>
    <g id="Page-1" stroke="none" stroke-width="1" fill="none" fill-rule="evenodd">
        <g id="profile" fill="#000000">
            <g id="Profile" transform="translate(3.000000, 2.000000)">
                <path d="M15.982,13.814 C15.724,12.453 14.542,11 12,11 L6,11 C3.458,11 2.276,12.453 2.019,13.804 L0.78,20 L17.22,20 L15.982,13.814 L15.982,13.814 Z M3.22,18 L3.982,14.187 C4.067,13.744 4.441,13 6,13 L12,13 C13.559,13 13.933,13.744 14.019,14.196 L14.78,18 L3.22,18 L3.22,18 Z" id="Fill-2"></path>
                <path d="M9.056,10 C11.786,10 14,7.786 14,5.056 C14,2.325 11.786,0.111 9.056,0.111 C6.325,0.111 4.111,2.325 4.111,5.056 C4.111,7.786 6.325,10 9.056,10 L9.056,10 Z M9.056,2.111 C10.679,2.111 12,3.432 12,5.056 C12,6.679 10.679,8 9.056,8 C7.432,8 6.111,6.679 6.111,5.056 C6.111,3.432 7.432,2.111 9.056,2.111 L9.056,2.111 Z" id="Fill-3"></path>
            </g>
        </g>
    </g>
</svg>