<?xml version="1.0" encoding="UTF-8"?>
<svg width="24px" height="24px" viewBox="0 0 24 24" version="1.1" xmlns="http://www.w3.org/2000/svg" xmlns:xlink="http://www.w3.org/1999/xlink">
    <!-- Generator: Sketch 48.1 (47250) - http://www.bohemiancoding.com/sketch -->
    <title>qa-question</title>
    <desc>Created with Sketch.</desc>
    <defs></defs>
    <g id="Page-1" stroke="none" stroke-width="1" fill="none" fill-rule="evenodd">
        <g id="qa-question" fill="#000000">
            <path d="M12.609375,9.234375 C12.796875,9.5625 12.9375,9.9375 13.03125,10.359375 C13.171875,10.734375 13.21875,11.15625 13.21875,11.625 C13.21875,12.234375 13.171875,12.703125 13.03125,12.984375 C12.9375,13.40625 12.796875,13.734375 12.609375,13.96875 L11.4375,12.9375 L10.40625,14.0625 L11.34375,14.859375 C11.203125,14.90625 11.109375,14.953125 11.015625,14.953125 C10.921875,15 10.734375,15 10.5,15 C9.984375,15 9.5625,14.90625 9.1875,14.71875 C8.859375,14.53125 8.578125,14.296875 8.34375,13.96875 C8.109375,13.6875 7.96875,13.3125 7.875,12.890625 C7.78125,12.46875 7.734375,12.046875 7.734375,11.625 C7.734375,11.203125 7.78125,10.78125 7.875,10.359375 C8.015625,9.84375 8.203125,9.46875 8.34375,9.234375 C8.578125,8.90625 8.859375,8.671875 9.1875,8.484375 C9.5625,8.296875 9.984375,8.203125 10.5,8.203125 C10.96875,8.203125 11.390625,8.296875 11.765625,8.484375 C12.09375,8.625 12.375,8.859375 12.609375,9.234375 Z M20.484375,3.515625 C22.828125,5.859375 24,8.671875 24,12 C24,15.328125 22.828125,18.140625 20.484375,20.484375 C18.140625,22.828125 15.328125,24 12,24 C8.671875,24 5.859375,22.828125 3.515625,20.484375 C1.171875,18.140625 0,15.328125 0,12 C0,8.671875 1.171875,5.859375 3.515625,3.515625 C5.859375,1.171875 8.671875,0 12,0 C15.328125,0 18.140625,1.171875 20.484375,3.515625 Z M14.109375,15.375 C14.53125,14.859375 14.859375,14.296875 15.09375,13.6875 C15.328125,12.9375 15.421875,12.234375 15.421875,11.625 C15.421875,10.875 15.328125,10.171875 15.09375,9.5625 C14.859375,8.859375 14.53125,8.296875 14.109375,7.875 C13.6875,7.40625 13.171875,7.03125 12.5625,6.75 C12.046875,6.515625 11.34375,6.375 10.5,6.375 C9.609375,6.375 8.90625,6.515625 8.390625,6.75 C7.78125,7.03125 7.265625,7.40625 6.84375,7.875 C6.515625,8.25 6.1875,8.8125 5.859375,9.5625 C5.671875,10.21875 5.578125,10.921875 5.578125,11.625 C5.578125,12.328125 5.671875,13.03125 5.859375,13.6875 C6.09375,14.296875 6.421875,14.859375 6.84375,15.375 C7.265625,15.84375 7.78125,16.21875 8.390625,16.5 C8.90625,16.734375 9.609375,16.875 10.5,16.875 C11.484375,16.875 12.328125,16.6875 12.9375,16.3125 L14.34375,17.578125 L15.375,16.5 L14.109375,15.375 Z M17.953125,16.640625 C18.28125,16.640625 18.515625,16.546875 18.75,16.3125 C18.9375,16.125 19.03125,15.890625 19.03125,15.5625 C19.03125,15.234375 18.9375,15 18.75,14.765625 C18.515625,14.578125 18.28125,14.484375 17.953125,14.484375 L17.90625,14.484375 C17.578125,14.484375 17.34375,14.578125 17.15625,14.765625 C16.921875,15 16.828125,15.234375 16.828125,15.5625 C16.828125,15.890625 16.921875,16.125 17.15625,16.3125 C17.34375,16.546875 17.578125,16.640625 17.90625,16.640625 L17.953125,16.640625 Z" id="Page-1"></path>
        </g>
    </g>
</svg>