<?xml version="1.0" encoding="UTF-8"?>
<svg width="24px" height="24px" viewBox="0 0 24 24" version="1.1" xmlns="http://www.w3.org/2000/svg" xmlns:xlink="http://www.w3.org/1999/xlink">
    <!-- Generator: sketchtool 44.1 (41455) - http://www.bohemiancoding.com/sketch -->
    <title>question</title>
    <desc>Created with sketchtool.</desc>
    <defs></defs>
    <g id="Page-1" stroke="none" stroke-width="1" fill="none" fill-rule="evenodd">
        <g id="question" fill="#000000">
            <path d="M5.0625,5.0625 C3.140625,6.984375 2.203125,9.28125 2.203125,12 C2.203125,14.71875 3.140625,17.015625 5.0625,18.9375 C6.984375,20.859375 9.28125,21.796875 12,21.796875 C14.71875,21.796875 17.015625,20.859375 18.9375,18.9375 C20.859375,17.015625 21.796875,14.71875 21.796875,12 C21.796875,9.28125 20.859375,6.984375 18.9375,5.0625 C17.015625,3.140625 14.71875,2.203125 12,2.203125 C9.28125,2.203125 6.984375,3.140625 5.0625,5.0625 Z M20.484375,3.515625 C22.828125,5.859375 24,8.671875 24,12 C24,15.328125 22.828125,18.140625 20.484375,20.484375 C18.140625,22.828125 15.328125,24 12,24 C8.671875,24 5.859375,22.828125 3.515625,20.484375 C1.171875,18.140625 0,15.328125 0,12 C0,8.671875 1.171875,5.859375 3.515625,3.515625 C5.859375,1.171875 8.671875,0 12,0 C15.328125,0 18.140625,1.171875 20.484375,3.515625 Z M10.875,14.203125 L13.03125,14.203125 L13.03125,13.734375 C13.03125,13.40625 13.40625,12.9375 14.15625,12.28125 C14.90625,11.625 15.28125,10.875 15.28125,10.078125 C15.28125,9.28125 15,8.671875 14.390625,8.203125 C13.78125,7.78125 13.03125,7.546875 12.234375,7.546875 C11.0625,7.546875 10.125,7.921875 9.515625,8.625 L10.734375,10.125 L10.875,9.984375 C11.015625,9.890625 11.15625,9.796875 11.390625,9.703125 C11.625,9.609375 11.8125,9.5625 12,9.5625 C12.234375,9.5625 12.46875,9.65625 12.65625,9.796875 C12.84375,9.9375 12.9375,10.125 12.9375,10.359375 C12.9375,10.6875 12.609375,11.109375 11.90625,11.671875 C11.203125,12.28125 10.875,12.890625 10.875,13.546875 L10.875,14.203125 Z M10.921875,17.4375 L13.078125,17.4375 L13.078125,15.28125 L10.921875,15.28125 L10.921875,17.4375 Z" id="Page-1"></path>
        </g>
    </g>
</svg>