<?xml version="1.0" encoding="UTF-8"?>
<svg width="24px" height="24px" viewBox="0 0 24 24" version="1.1" xmlns="http://www.w3.org/2000/svg" xmlns:xlink="http://www.w3.org/1999/xlink">
    <!-- Generator: Sketch 48.1 (47250) - http://www.bohemiancoding.com/sketch -->
    <title>quote-2</title>
    <desc>Created with Sketch.</desc>
    <defs></defs>
    <g id="Page-1" stroke="none" stroke-width="1" fill="none" fill-rule="evenodd">
        <g id="quote-2" fill="#000000">
            <g id="Page-1" transform="translate(2.000000, 5.000000)">
                <path d="M4.456,0 C2.001,0 0.126,1.919 0.012,5 C-0.072,7.25 0.317,9.147 0.533,10 C0.875,11.355 2.73,14 4.012,14 C4.668,14 5.012,13.844 5.012,13 C5.012,12.204 3.637,9 5.012,9 C7.466,9 8.9,6.899 8.9,4.444 C8.9,1.99 6.911,0 4.456,0" id="Fill-1"></path>
                <path d="M15.3679,0 C12.9129,0 11.0379,1.919 10.9239,5 C10.8399,7.25 11.2289,9.147 11.4449,10 C11.7869,11.355 13.6419,14 14.9239,14 C15.5799,14 15.9239,13.844 15.9239,13 C15.9239,12.204 14.5489,9 15.9239,9 C18.3779,9 19.8119,6.899 19.8119,4.444 C19.8119,1.99 17.8229,0 15.3679,0" id="Fill-3"></path>
            </g>
        </g>
    </g>
</svg>