<?xml version="1.0" encoding="UTF-8"?>
<svg width="24px" height="24px" viewBox="0 0 24 24" version="1.1" xmlns="http://www.w3.org/2000/svg" xmlns:xlink="http://www.w3.org/1999/xlink">
    <!-- Generator: sketchtool 44.1 (41455) - http://www.bohemiancoding.com/sketch -->
    <title>refine-3</title>
    <desc>Created with sketchtool.</desc>
    <defs></defs>
    <g id="Page-1" stroke="none" stroke-width="1" fill="none" fill-rule="evenodd">
        <g id="refine-3" fill="#000000">
            <g id="Refine-3" transform="translate(2.000000, 1.000000)">
                <path d="M8.288,20.787 L8.288,20.787 C7.578,20.787 7,20.209 7,19.498 L7,12.424 L0,6.403 L0,0.965 L20,0.965 L20,6.403 L13,12.424 L13,17.474 C13,18.158 12.62,18.773 12.008,19.079 L8.864,20.651 C8.686,20.74 8.486,20.787 8.288,20.787 L8.288,20.787 Z M2,5.485 L9,11.506 L9,18.347 L11,17.347 L11,11.506 L18,5.485 L18,2.965 L2,2.965 L2,5.485 L2,5.485 Z" id="Fill-2"></path>
                <polygon id="Fill-3" points="1 4.944 12.079 4.944 12.079 5.944 1 5.944"></polygon>
                <polygon id="Fill-4" points="16 4.944 19.01 4.944 19.01 5.944 16 5.944"></polygon>
                <polygon id="Fill-5" points="12.99 4.944 14.967 4.944 14.967 5.944 12.99 5.944"></polygon>
            </g>
        </g>
    </g>
</svg>