<?xml version="1.0" encoding="UTF-8"?>
<svg width="24px" height="24px" viewBox="0 0 24 24" version="1.1" xmlns="http://www.w3.org/2000/svg" xmlns:xlink="http://www.w3.org/1999/xlink">
    <!-- Generator: Sketch 48.1 (47250) - http://www.bohemiancoding.com/sketch -->
    <title>refine-3</title>
    <desc>Created with Sketch.</desc>
    <defs></defs>
    <g id="Page-1" stroke="none" stroke-width="1" fill="none" fill-rule="evenodd">
        <g id="refine-3" fill="#000000">
            <path d="M20,6 L20,4 L4,4 L4,6 L13.977,6 L13.977,7 L4.55804684,7 L11,12.541 L11,19.382 L13,18.382 L13,12.541 L19.4419532,7 L18,7 L18,6 L20,6 Z M10.288,21.822 C9.578,21.822 9,21.244 9,20.533 L9,13.459 L2,7.438 L2,2 L22,2 L22,7.438 L15,13.459 L15,18.509 C15,19.193 14.62,19.808 14.008,20.114 L10.864,21.686 C10.686,21.775 10.486,21.822 10.288,21.822 Z M15,6 L16.977,6 L16.977,7 L15,7 L15,6 Z" id="Combined-Shape"></path>
        </g>
    </g>
</svg>