<?xml version="1.0" encoding="UTF-8"?>
<svg width="24px" height="24px" viewBox="0 0 24 24" version="1.1" xmlns="http://www.w3.org/2000/svg" xmlns:xlink="http://www.w3.org/1999/xlink">
    <!-- Generator: sketchtool 44.1 (41455) - http://www.bohemiancoding.com/sketch -->
    <title>restore</title>
    <desc>Created with sketchtool.</desc>
    <defs></defs>
    <g id="Page-1" stroke="none" stroke-width="1" fill="none" fill-rule="evenodd">
        <g id="restore" fill="#000000">
            <path d="M14.015625,1.67391304 C16.734375,1.67391304 19.078125,2.67826087 21.046875,4.63913043 C22.96875,6.64782609 23.953125,9.03913043 23.953125,11.8608696 C23.953125,14.6826087 22.96875,17.073913 21.046875,19.0347826 C19.078125,20.9956522 16.734375,22 14.015625,22 C11.25,22 8.90625,20.9956522 6.984375,18.9869565 C5.015625,17.026087 4.03125,14.6347826 4.03125,11.8608696 L4.03125,11.1434783 L2.25,12.9608696 L0,10.7130435 L5.53125,4.92608696 L11.15625,10.5217391 L8.90625,12.8652174 L7.171875,11.1434783 L7.171875,11.8608696 C7.171875,13.773913 7.828125,15.4 9.1875,16.7391304 C10.546875,18.126087 12.140625,18.7956522 14.015625,18.7956522 C15.84375,18.7956522 17.4375,18.126087 18.796875,16.7391304 C20.109375,15.3521739 20.765625,13.726087 20.765625,11.8608696 C20.765625,9.94782609 20.109375,8.32173913 18.796875,6.93478261 C17.4375,5.59565217 15.84375,4.92608696 14.015625,4.92608696 L14.015625,1.67391304 Z"></path>
        </g>
    </g>
</svg>