<?xml version="1.0" encoding="UTF-8"?>
<svg width="24px" height="24px" viewBox="0 0 24 24" version="1.1" xmlns="http://www.w3.org/2000/svg" xmlns:xlink="http://www.w3.org/1999/xlink">
    <!-- Generator: sketchtool 44.1 (41455) - http://www.bohemiancoding.com/sketch -->
    <title>search-1b</title>
    <desc>Created with sketchtool.</desc>
    <defs></defs>
    <g id="Page-1" stroke="none" stroke-width="1" fill="none" fill-rule="evenodd">
        <g id="search-1b" fill="#000000">
            <g id="Search-2">
                <path d="M18.559,15.145 C19.467,13.639 20,11.883 20,10 C20,4.486 15.514,0 10,0 C4.486,0 0,4.486 0,10 C0,15.514 4.486,20 10,20 C11.909,20 13.689,19.453 15.208,18.52 L19.908,23.334 L23.437,20.023 L18.559,15.145 L18.559,15.145 Z M10,18 C5.589,18 2,14.411 2,10 C2,5.589 5.589,2 10,2 C14.411,2 18,5.589 18,10 C18,14.411 14.411,18 10,18 L10,18 Z M16.812,17.3 C16.997,17.127 17.175,16.947 17.347,16.761 L20.563,19.977 L19.969,20.534 L16.812,17.3 L16.812,17.3 Z" id="Fill-3"></path>
                <polyline id="Fill-5" points="7.32 9.218 6.68 8.449 7.68 7.616 8.32 8.384 7.32 9.218"></polyline>
                <path d="M3.58172791,11.0312595 L5.68,9.282 L6.32,10.051 L3.8509901,12.1085082 C4.72865577,14.660827 7.15366815,16.5 10,16.5 C13.584,16.5 16.5,13.584 16.5,10 C16.5,6.416 13.584,3.5 10,3.5 C7.12888323,3.5 4.68645529,5.37134228 3.82841555,7.95832748 L6.683,5.614 L7.317,6.386 L3.51855065,9.50642614 C3.50625805,9.66936817 3.5,9.83396728 3.5,10 C3.5,10.350858 3.52794565,10.6953142 3.58172791,11.0312595 Z M2.7285666,11.8412799 L2.68,11.783 L2.70832044,11.7593902 C2.57215423,11.1949135 2.5,10.6057361 2.5,10 C2.5,5.864 5.864,2.5 10,2.5 C14.136,2.5 17.5,5.864 17.5,10 C17.5,14.136 14.136,17.5 10,17.5 C6.49909041,17.5 3.55129912,15.0897798 2.7285666,11.8412799 Z" id="Combined-Shape"></path>
            </g>
        </g>
    </g>
</svg>