<?xml version="1.0" encoding="UTF-8"?>
<svg width="24px" height="24px" viewBox="0 0 24 24" version="1.1" xmlns="http://www.w3.org/2000/svg" xmlns:xlink="http://www.w3.org/1999/xlink">
    <!-- Generator: Sketch 48.1 (47250) - http://www.bohemiancoding.com/sketch -->
    <title>search-2-cross</title>
    <desc>Created with Sketch.</desc>
    <defs></defs>
    <g id="Page-1" stroke="none" stroke-width="1" fill="none" fill-rule="evenodd">
        <g id="search-2-cross" fill="#000000">
            <g id="Search-No-results-Minimal">
                <path d="M23.437,20.023 L18.559,15.145 C19.467,13.639 20,11.883 20,10 C20,4.486 15.514,0 10,0 C4.486,0 0,4.486 0,10 C0,15.514 4.486,20 10,20 C11.909,20 13.689,19.453 15.208,18.52 L19.907,23.334 L23.437,20.023 L23.437,20.023 Z M2,10 C2,5.589 5.589,2 10,2 C14.411,2 18,5.589 18,10 C18,14.411 14.411,18 10,18 C5.589,18 2,14.411 2,10 L2,10 Z M17.347,16.761 L20.562,19.977 L19.97,20.534 L16.813,17.3 C16.998,17.127 17.175,16.947 17.347,16.761 L17.347,16.761 Z" id="Fill-2"></path>
                <polyline id="Fill-3" points="11.586 7 10 8.586 8.414 7 7 8.414 8.586 10 7 11.586 8.414 13 10 11.414 11.586 13 13 11.586 11.414 10 13 8.414 11.586 7"></polyline>
            </g>
        </g>
    </g>
</svg>