<?xml version="1.0" encoding="UTF-8"?>
<svg width="24px" height="24px" viewBox="0 0 24 24" version="1.1" xmlns="http://www.w3.org/2000/svg" xmlns:xlink="http://www.w3.org/1999/xlink">
    <!-- Generator: sketchtool 44.1 (41455) - http://www.bohemiancoding.com/sketch -->
    <title>search-1-zoom-in</title>
    <desc>Created with sketchtool.</desc>
    <defs></defs>
    <g id="Page-1" stroke="none" stroke-width="1" fill="none" fill-rule="evenodd">
        <g id="search-1-zoom-in" fill="#000000">
            <g id="Zoom-In">
                <path d="M16.5,10 L17.5,10 C17.5,9.273 17.396,8.553 17.189,7.86 L16.231,8.146 C16.409,8.746 16.5,9.37 16.5,10" id="Fill-2"></path>
                <path d="M16.434,10.93 C15.978,14.106 13.211,16.5 10,16.5 C6.416,16.5 3.5,13.584 3.5,10 C3.5,6.416 6.416,3.5 10,3.5 C12.492,3.5 14.796,4.957 15.872,7.213 L16.774,6.782 C15.534,4.181 12.875,2.5 10,2.5 C5.864,2.5 2.5,5.864 2.5,10 C2.5,14.136 5.864,17.5 10,17.5 C13.706,17.5 16.897,14.737 17.424,11.072 L16.434,10.93" id="Fill-3"></path>
                <path d="M23.437,20.023 L18.559,15.145 C19.467,13.639 20,11.883 20,10 C20,4.486 15.514,0 10,0 C4.486,0 0,4.486 0,10 C0,15.514 4.486,20 10,20 C11.909,20 13.689,19.453 15.208,18.52 L19.908,23.334 L23.437,20.023 L23.437,20.023 Z M2,10 C2,5.589 5.589,2 10,2 C14.411,2 18,5.589 18,10 C18,14.411 14.411,18 10,18 C5.589,18 2,14.411 2,10 L2,10 Z M17.347,16.761 L20.563,19.977 L19.969,20.534 L16.812,17.3 C16.997,17.127 17.175,16.947 17.347,16.761 L17.347,16.761 Z" id="Fill-4"></path>
                <polyline id="Fill-5" points="11 13 11 11 13 11 13 9 11 9 11 7 9 7 9 9 7 9 7 11 9 11 9 13 11 13"></polyline>
            </g>
        </g>
    </g>
</svg>