<?xml version="1.0" encoding="UTF-8"?>
<svg width="24px" height="24px" viewBox="0 0 24 24" version="1.1" xmlns="http://www.w3.org/2000/svg" xmlns:xlink="http://www.w3.org/1999/xlink">
    <!-- Generator: sketchtool 44.1 (41455) - http://www.bohemiancoding.com/sketch -->
    <title>send-1</title>
    <desc>Created with sketchtool.</desc>
    <defs></defs>
    <g id="Page-1" stroke="none" stroke-width="1" fill="none" fill-rule="evenodd">
        <g id="send-1" fill="#000000">
            <g id="Send" transform="translate(1.000000, 1.000000)">
                <path d="M9.13366419,11.0666082 L18.4542399,3.15965312 L3.875,9.315 L9.13366419,11.0666082 Z M19.2002746,3.72611463 L12.4986612,13.8773114 L15.016,18.725 L19.2002746,3.72611463 Z M15.225,22 C14.757,22 14.331,21.742 14.114,21.327 L10.036,13.475 L1.368,10.588 C0.876,10.424 0.54,9.983 0.512,9.465 C0.483,8.946 0.77,8.472 1.242,8.255 L19.927,0.368 C20.487,0.132 21.171,0.315 21.538,0.8 C21.797,1.141 21.879,1.573 21.763,1.986 L16.434,21.084 C16.275,21.635 15.791,22 15.225,22 Z" id="Combined-Shape"></path>
            </g>
        </g>
    </g>
</svg>