<?xml version="1.0" encoding="UTF-8"?>
<svg width="24px" height="24px" viewBox="0 0 24 24" version="1.1" xmlns="http://www.w3.org/2000/svg" xmlns:xlink="http://www.w3.org/1999/xlink">
    <!-- Generator: Sketch 48.1 (47250) - http://www.bohemiancoding.com/sketch -->
    <title>settings-1</title>
    <desc>Created with Sketch.</desc>
    <defs></defs>
    <g id="Page-1" stroke="none" stroke-width="1" fill="none" fill-rule="evenodd">
        <g id="settings-1" fill="#000000">
            <g id="Settings-1" transform="translate(1.000000, 1.000000)">
                <path d="M20.086,8.486 L19.445,8.486 C19.287,7.952 19.08,7.436 18.825,6.94 L19.264,6.502 C19.556,6.209 19.717,5.815 19.716,5.39 C19.716,4.929 19.52,4.47 19.182,4.133 L17.867,2.818 C17.217,2.167 16.106,2.128 15.498,2.736 L15.099,3.135 C14.593,2.861 14.062,2.638 13.514,2.467 L13.514,1.915 C13.514,1.023 12.736,0.297 11.781,0.297 L9.922,0.297 C8.967,0.297 8.19,1.023 8.19,1.915 L8.19,2.467 C7.641,2.638 7.11,2.861 6.604,3.135 L6.205,2.736 C5.596,2.127 4.486,2.166 3.836,2.818 L2.523,4.131 C2.183,4.47 1.987,4.929 1.987,5.39 C1.986,5.815 2.148,6.209 2.439,6.502 L2.878,6.94 C2.623,7.436 2.416,7.952 2.258,8.486 L1.617,8.486 C0.726,8.486 0,9.263 0,10.219 L0,12.078 C0,13.034 0.726,13.811 1.617,13.811 L2.337,13.811 C2.503,14.316 2.712,14.804 2.964,15.27 L2.439,15.795 C2.148,16.087 1.986,16.482 1.987,16.907 C1.987,17.368 2.183,17.827 2.521,18.164 L3.836,19.479 C4.487,20.132 5.597,20.17 6.205,19.56 L6.769,18.996 C7.226,19.231 7.7,19.426 8.19,19.579 L8.19,20.382 C8.19,21.274 8.967,22 9.922,22 L11.781,22 C12.736,22 13.514,21.274 13.514,20.382 L13.514,19.579 C14.003,19.426 14.477,19.232 14.934,18.997 L15.498,19.56 C16.106,20.169 17.216,20.131 17.867,19.479 L19.181,18.166 C19.52,17.827 19.716,17.368 19.716,16.907 C19.717,16.482 19.556,16.087 19.264,15.795 L18.739,15.27 C18.991,14.804 19.2,14.316 19.366,13.811 L20.086,13.811 C20.977,13.811 21.703,13.034 21.703,12.078 L21.703,10.219 C21.703,9.263 20.977,8.486 20.086,8.486 L20.086,8.486 Z M19.703,11.811 L17.812,11.811 L17.633,12.586 C17.443,13.405 17.112,14.174 16.648,14.871 L16.192,15.553 L17.579,16.939 L16.642,17.877 L15.884,17.123 L15.324,16.424 L14.568,16.903 C13.868,17.348 13.106,17.659 12.303,17.831 L11.511,17.999 L11.514,20 L10.189,20 L10.192,17.999 L9.4,17.831 C8.598,17.659 7.835,17.348 7.135,16.903 L6.418,16.449 L5.061,17.876 L4.124,16.939 L5.511,15.553 L5.056,14.87 C4.591,14.174 4.26,13.405 4.07,12.586 L3.891,11.811 L2,11.811 L2,10.486 L3.863,10.486 L4.023,9.679 C4.188,8.835 4.507,8.038 4.97,7.309 L5.398,6.633 L4.124,5.358 L5.061,4.421 L6.321,5.682 L7.004,5.227 C7.735,4.739 8.541,4.399 9.397,4.217 L10.189,4.048 L10.189,2.297 L11.514,2.297 L11.514,4.048 L12.306,4.217 C13.162,4.399 13.968,4.739 14.699,5.227 L15.382,5.682 L16.642,4.421 L17.579,5.358 L16.305,6.633 L16.733,7.309 C17.196,8.038 17.515,8.835 17.681,9.679 L17.84,10.486 L19.703,10.486 L19.703,11.811 L19.703,11.811 Z" id="Fill-2"></path>
                <path d="M10.852,7.515 C8.917,7.515 7.344,9.088 7.344,11.023 C7.344,12.957 8.917,14.531 10.852,14.531 C12.786,14.531 14.359,12.957 14.359,11.023 C14.359,9.088 12.786,7.515 10.852,7.515 L10.852,7.515 Z M10.852,13.531 C9.469,13.531 8.344,12.406 8.344,11.023 C8.344,9.64 9.469,8.515 10.852,8.515 C12.234,8.515 13.359,9.64 13.359,11.023 C13.359,12.406 12.234,13.531 10.852,13.531 L10.852,13.531 Z" id="Fill-3"></path>
            </g>
        </g>
    </g>
</svg>