<?xml version="1.0" encoding="UTF-8"?>
<svg width="24px" height="24px" viewBox="0 0 24 24" version="1.1" xmlns="http://www.w3.org/2000/svg" xmlns:xlink="http://www.w3.org/1999/xlink">
    <!-- Generator: sketchtool 44.1 (41455) - http://www.bohemiancoding.com/sketch -->
    <title>shop-wallet-2</title>
    <desc>Created with sketchtool.</desc>
    <defs></defs>
    <g id="Page-1" stroke="none" stroke-width="1" fill="none" fill-rule="evenodd">
        <g id="shop-wallet-2" fill="#000000">
            <g id="Wallet-2" transform="translate(2.000000, 0.000000)">
                <path d="M14.517,17.111 C14.517,17.736 15.024,18.243 15.649,18.243 C16.273,18.243 16.78,17.736 16.78,17.111 C16.78,16.486 16.273,15.98 15.649,15.98 C15.024,15.98 14.517,16.486 14.517,17.111" id="Fill-1"></path>
                <path d="M19,10.992 L19,7.992 L15.865,7.992 C15.231,7.088 14.185,6.492 13,6.492 C11.815,6.492 10.769,7.088 10.135,7.992 L3,7.992 C1.001,7.992 0.091,9.291 0.091,10.497 L0.091,21.406 C0.091,22.93 1.624,23.992 3,23.992 L20,23.992 L20,10.992 L19,10.992 L19,10.992 Z M17,10.992 L16.34,10.992 C16.436,10.669 16.5,10.336 16.5,9.992 L17,9.992 L17,10.992 L17,10.992 Z M13,7.492 C14.379,7.492 15.5,8.613 15.5,9.992 C15.5,10.341 15.42,10.679 15.283,10.992 L13.901,10.992 C13.97,10.867 14.019,10.73 14.019,10.58 C14.019,9.702 12.728,9.726 12.728,9.389 C12.728,9.23 12.887,9.166 13.03,9.166 C13.371,9.166 13.657,9.417 13.657,9.417 L13.951,8.848 C13.951,8.848 13.709,8.594 13.224,8.539 L13.224,8.177 L12.792,8.177 L12.792,8.55 C12.351,8.634 12.033,8.952 12.033,9.397 C12.033,10.251 13.324,10.279 13.324,10.596 C13.324,10.767 13.169,10.822 13.026,10.822 C12.668,10.822 12.347,10.528 12.347,10.528 L12.026,10.992 L10.718,10.992 C10.58,10.679 10.5,10.341 10.5,9.992 C10.5,8.613 11.621,7.492 13,7.492 L13,7.492 Z M3,9.992 L9.5,9.992 C9.5,10.336 9.563,10.67 9.66,10.992 L3,10.992 C2.38,10.992 2.091,10.696 2.091,10.497 C2.091,10.041 2.727,9.992 3,9.992 L3,9.992 Z M3,21.992 C2.549,21.992 2.091,21.615 2.091,21.406 L2.091,12.882 C2.367,12.953 2.67,12.992 3,12.992 L18,12.992 L18,14.46 L15.642,14.46 C14.18,14.46 12.99,15.649 12.99,17.111 C12.99,18.573 14.18,19.763 15.642,19.763 L18,19.763 L18,21.992 L3,21.992 L3,21.992 Z M18,15.46 L18,18.763 L15.642,18.763 C14.731,18.763 13.99,18.022 13.99,17.111 C13.99,16.201 14.731,15.46 15.642,15.46 L18,15.46 L18,15.46 Z" id="Fill-2"></path>
                <path d="M5.026,4.822 C4.668,4.822 4.347,4.528 4.347,4.528 L3.981,5.057 C3.981,5.057 4.267,5.371 4.792,5.446 L4.792,5.808 L5.224,5.808 L5.224,5.446 C5.733,5.367 6.019,5.001 6.019,4.58 C6.019,3.702 4.728,3.726 4.728,3.389 C4.728,3.23 4.887,3.166 5.03,3.166 C5.371,3.166 5.657,3.417 5.657,3.417 L5.951,2.848 C5.951,2.848 5.709,2.594 5.224,2.539 L5.224,2.177 L4.792,2.177 L4.792,2.55 C4.351,2.634 4.033,2.952 4.033,3.397 C4.033,4.251 5.324,4.279 5.324,4.596 C5.324,4.767 5.169,4.822 5.026,4.822" id="Fill-3"></path>
                <path d="M5,7.492 C6.93,7.492 8.5,5.922 8.5,3.992 C8.5,2.063 6.93,0.492 5,0.492 C3.07,0.492 1.5,2.063 1.5,3.992 C1.5,5.922 3.07,7.492 5,7.492 L5,7.492 Z M5,1.492 C6.379,1.492 7.5,2.613 7.5,3.992 C7.5,5.371 6.379,6.492 5,6.492 C3.621,6.492 2.5,5.371 2.5,3.992 C2.5,2.613 3.621,1.492 5,1.492 L5,1.492 Z" id="Fill-4"></path>
            </g>
        </g>
    </g>
</svg>