<?xml version="1.0" encoding="UTF-8"?>
<svg width="24px" height="24px" viewBox="0 0 24 24" version="1.1" xmlns="http://www.w3.org/2000/svg" xmlns:xlink="http://www.w3.org/1999/xlink">
    <!-- Generator: sketchtool 44.1 (41455) - http://www.bohemiancoding.com/sketch -->
    <title>shop-cash-register</title>
    <desc>Created with sketchtool.</desc>
    <defs></defs>
    <g id="Page-1" stroke="none" stroke-width="1" fill="none" fill-rule="evenodd">
        <g id="shop-cash-register" fill="#000000">
            <g id="Cash-Register" transform="translate(1.000000, 1.000000)">
                <path d="M5.579,8.033 C4.726,8.033 4.031,8.727 4.031,9.581 C4.031,10.051 4.247,10.468 4.579,10.752 L4.579,11.321 L6.579,11.321 L6.579,10.752 C6.911,10.468 7.127,10.051 7.127,9.581 C7.127,8.727 6.433,8.033 5.579,8.033 L5.579,8.033 Z M5.579,9.033 C5.881,9.033 6.127,9.278 6.127,9.581 C6.127,9.883 5.881,10.129 5.579,10.129 C5.277,10.129 5.031,9.883 5.031,9.581 C5.031,9.278 5.277,9.033 5.579,9.033 L5.579,9.033 Z" id="Fill-2"></path>
                <path d="M5.579,11.514 C4.726,11.514 4.031,12.208 4.031,13.062 C4.031,13.532 4.247,13.95 4.579,14.234 L4.579,14.918 L6.579,14.918 L6.579,14.234 C6.911,13.95 7.127,13.532 7.127,13.062 C7.127,12.208 6.433,11.514 5.579,11.514 L5.579,11.514 Z M5.579,12.514 C5.881,12.514 6.127,12.76 6.127,13.062 C6.127,13.364 5.881,13.61 5.579,13.61 C5.277,13.61 5.031,13.364 5.031,13.062 C5.031,12.76 5.277,12.514 5.579,12.514 L5.579,12.514 Z" id="Fill-3"></path>
                <path d="M9.132,8.033 C8.277,8.033 7.583,8.727 7.583,9.581 C7.583,10.051 7.799,10.469 8.132,10.753 L8.132,11.321 L10.132,11.321 L10.132,10.752 C10.464,10.468 10.68,10.051 10.68,9.581 C10.68,8.727 9.985,8.033 9.132,8.033 L9.132,8.033 Z M9.132,9.033 C9.434,9.033 9.68,9.278 9.68,9.581 C9.68,9.883 9.434,10.129 9.132,10.129 C8.829,10.129 8.583,9.883 8.583,9.581 C8.583,9.278 8.829,9.033 9.132,9.033 L9.132,9.033 Z" id="Fill-4"></path>
                <path d="M9.132,11.514 C8.277,11.514 7.583,12.208 7.583,13.062 C7.583,13.533 7.799,13.95 8.132,14.234 L8.132,14.918 L10.132,14.918 L10.132,14.234 C10.464,13.95 10.68,13.532 10.68,13.062 C10.68,12.208 9.985,11.514 9.132,11.514 L9.132,11.514 Z M9.132,12.514 C9.434,12.514 9.68,12.76 9.68,13.062 C9.68,13.364 9.434,13.61 9.132,13.61 C8.829,13.61 8.583,13.364 8.583,13.062 C8.583,12.76 8.829,12.514 9.132,12.514 L9.132,12.514 Z" id="Fill-5"></path>
                <path d="M12.684,8.033 C11.83,8.033 11.136,8.727 11.136,9.581 C11.136,10.051 11.351,10.468 11.684,10.752 L11.684,11.321 L13.684,11.321 L13.684,10.753 C14.017,10.469 14.232,10.051 14.232,9.581 C14.232,8.727 13.538,8.033 12.684,8.033 L12.684,8.033 Z M12.684,9.033 C12.986,9.033 13.232,9.278 13.232,9.581 C13.232,9.883 12.986,10.129 12.684,10.129 C12.382,10.129 12.136,9.883 12.136,9.581 C12.136,9.278 12.382,9.033 12.684,9.033 L12.684,9.033 Z" id="Fill-6"></path>
                <path d="M12.684,11.514 C11.83,11.514 11.136,12.208 11.136,13.062 C11.136,13.532 11.351,13.95 11.684,14.234 L11.684,14.918 L13.684,14.918 L13.684,14.234 C14.017,13.95 14.232,13.533 14.232,13.062 C14.232,12.208 13.538,11.514 12.684,11.514 L12.684,11.514 Z M12.684,12.514 C12.986,12.514 13.232,12.76 13.232,13.062 C13.232,13.364 12.986,13.61 12.684,13.61 C12.382,13.61 12.136,13.364 12.136,13.062 C12.136,12.76 12.382,12.514 12.684,12.514 L12.684,12.514 Z" id="Fill-7"></path>
                <path d="M16.236,8.033 C15.383,8.033 14.688,8.727 14.688,9.581 C14.688,10.051 14.904,10.468 15.236,10.752 L15.236,11.321 L17.236,11.321 L17.236,10.752 C17.569,10.468 17.784,10.051 17.784,9.581 C17.784,8.727 17.09,8.033 16.236,8.033 L16.236,8.033 Z M16.236,9.033 C16.538,9.033 16.784,9.278 16.784,9.581 C16.784,9.883 16.538,10.129 16.236,10.129 C15.935,10.129 15.688,9.883 15.688,9.581 C15.688,9.278 15.935,9.033 16.236,9.033 L16.236,9.033 Z" id="Fill-8"></path>
                <path d="M16.236,11.514 C15.383,11.514 14.688,12.208 14.688,13.062 C14.688,13.532 14.904,13.95 15.236,14.234 L15.236,14.918 L17.236,14.918 L17.236,14.234 C17.569,13.95 17.784,13.532 17.784,13.062 C17.784,12.208 17.09,11.514 16.236,11.514 L16.236,11.514 Z M16.236,12.514 C16.538,12.514 16.784,12.76 16.784,13.062 C16.784,13.364 16.538,13.61 16.236,13.61 C15.935,13.61 15.688,13.364 15.688,13.062 C15.688,12.76 15.935,12.514 16.236,12.514 L16.236,12.514 Z" id="Fill-9"></path>
                <path d="M21,16 L21,8.99 C21,7.134 19.72,5.583 18,5.139 L18,2 C18,0.729 17.271,0 16,0 L6,0 C5.273,0 4.056,0.26 4.056,2 L4.056,5.122 C2.307,5.545 1,7.113 1,8.99 L1,16 L0,16 L0,23 L22,23 L22,16 L21,16 L21,16 Z M6.056,2 L16,2 L16,5 L14.357,5 L14.357,4.802 C14.789,4.735 15.032,4.425 15.032,4.067 C15.032,3.322 13.936,3.342 13.936,3.056 C13.936,2.92 14.071,2.867 14.192,2.867 C14.482,2.867 14.725,3.079 14.725,3.079 L14.974,2.597 C14.974,2.597 14.769,2.381 14.357,2.334 L14.357,2.027 L13.99,2.027 L13.99,2.344 C13.615,2.415 13.346,2.685 13.346,3.062 C13.346,3.787 14.442,3.811 14.442,4.081 C14.442,4.226 14.31,4.273 14.189,4.273 C13.885,4.273 13.612,4.023 13.612,4.023 L13.302,4.472 C13.302,4.472 13.545,4.738 13.99,4.802 L13.99,5 L11.383,5 L11.383,4.802 C11.814,4.735 12.057,4.425 12.057,4.067 C12.057,3.322 10.961,3.342 10.961,3.056 C10.961,2.92 11.096,2.867 11.217,2.867 C11.507,2.867 11.75,3.079 11.75,3.079 L12,2.597 C12,2.597 11.794,2.381 11.383,2.334 L11.383,2.027 L11.015,2.027 L11.015,2.344 C10.641,2.415 10.371,2.685 10.371,3.062 C10.371,3.787 11.467,3.811 11.467,4.081 C11.467,4.226 11.335,4.273 11.214,4.273 C10.91,4.273 10.637,4.023 10.637,4.023 L10.327,4.472 C10.327,4.472 10.57,4.738 11.015,4.802 L11.015,5 L8.408,5 L8.408,4.802 C8.839,4.735 9.082,4.425 9.082,4.067 C9.082,3.322 7.986,3.342 7.986,3.056 C7.986,2.92 8.121,2.867 8.243,2.867 C8.533,2.867 8.775,3.079 8.775,3.079 L9.025,2.597 C9.025,2.597 8.819,2.381 8.408,2.334 L8.408,2.027 L8.04,2.027 L8.04,2.344 C7.666,2.415 7.396,2.685 7.396,3.062 C7.396,3.787 8.492,3.811 8.492,4.081 C8.492,4.226 8.361,4.273 8.239,4.273 C7.936,4.273 7.663,4.023 7.663,4.023 L7.352,4.472 C7.352,4.472 7.595,4.738 8.04,4.802 L8.04,5 L6.056,5 L6.056,2 L6.056,2 Z M3,8.99 C3,7.893 3.893,7 4.99,7 L17.01,7 C18.107,7 19,7.893 19,8.99 L19,16 L3,16 L3,8.99 L3,8.99 Z M2,18 L20,18 L20,21 L2,21 L2,18 Z" id="Fill-10"></path>
            </g>
        </g>
    </g>
</svg>