<?xml version="1.0" encoding="UTF-8"?>
<svg width="24px" height="24px" viewBox="0 0 24 24" version="1.1" xmlns="http://www.w3.org/2000/svg" xmlns:xlink="http://www.w3.org/1999/xlink">
    <!-- Generator: sketchtool 44.1 (41455) - http://www.bohemiancoding.com/sketch -->
    <title>shop</title>
    <desc>Created with sketchtool.</desc>
    <defs></defs>
    <g id="Page-1" stroke="none" stroke-width="1" fill="none" fill-rule="evenodd">
        <g id="shop" fill="#000000">
            <g id="Shop" transform="translate(0.000000, 2.000000)">
                <path d="M20.992,3 L20.992,0 L2.992,0 L2.992,3 L0.992,5.667 L0.992,8.99 C0.991,9.123 1.004,10.315 1.859,11.179 C1.896,11.216 1.95,11.254 1.992,11.292 L1.992,21 L21.992,21 L21.992,11.292 C22.035,11.254 22.089,11.216 22.126,11.178 C22.981,10.314 22.993,9.122 22.992,9 L22.992,5.667 L20.992,3 L20.992,3 Z M18.492,3 L20.742,6 L17.022,6 L17.022,7 L20.992,7 L20.992,8.998 C20.985,9.456 20.806,10 19.992,10 L18.992,10 C18.186,10 18.004,9.45 17.992,9 L17.992,8 L15.992,8 L15.992,8.992 C15.979,9.453 15.796,10 14.992,10 L14.007,10 C13.542,9.982 12.992,9.793 12.992,9 L12.992,8 L10.992,8 L10.992,9 C10.992,9.796 10.437,9.983 9.983,10 L8.992,10 C8.186,10 8.004,9.45 7.992,9 L7.992,8 L5.992,8 L5.992,8.992 C5.979,9.453 5.796,10 4.992,10 L3.992,10 C3.179,10 2.999,9.455 2.992,9 L2.992,7 L13.08,7 L13.08,6 L3.242,6 L5.492,3 L18.492,3 L18.492,3 Z M9.992,16.5 L9.992,19 L5.992,19 L5.992,14.003 L9.992,14.001 L9.992,16.5 L9.992,16.5 Z M19.992,19 L10.992,19 L10.992,13 L4.992,13.003 L4.992,19 L3.992,19 L3.992,12 L4.992,12 C5.868,12 6.522,11.716 6.992,11.297 C7.462,11.716 8.116,12 8.992,12 L10.006,12 C10.622,11.993 11.389,11.771 11.992,11.269 C12.596,11.771 13.362,11.993 13.978,12 L14.992,12 C15.868,12 16.522,11.716 16.992,11.297 C17.462,11.716 18.116,12 18.992,12 L19.992,12 L19.992,19 L19.992,19 Z" id="Fill-1"></path>
                <path d="M11.992,18 L18.992,18 L18.992,13 L11.992,13 L11.992,18 Z M12.992,14 L17.992,14 L17.992,17 L12.992,17 L12.992,14 Z" id="Fill-2"></path>
                <path d="M9.492,16 C9.216,16 8.992,16.224 8.992,16.5 C8.992,16.776 9.216,17 9.492,17 C9.769,17 9.992,16.776 9.992,16.5 C9.992,16.224 9.769,16 9.492,16" id="Fill-3"></path>
                <polygon id="Fill-4" points="14 6 16 6 16 7 14 7"></polygon>
            </g>
        </g>
    </g>
</svg>