<?xml version="1.0" encoding="UTF-8"?>
<svg width="24px" height="24px" viewBox="0 0 24 24" version="1.1" xmlns="http://www.w3.org/2000/svg" xmlns:xlink="http://www.w3.org/1999/xlink">
    <!-- Generator: sketchtool 44.1 (41455) - http://www.bohemiancoding.com/sketch -->
    <title>shop-wallet-1</title>
    <desc>Created with sketchtool.</desc>
    <defs></defs>
    <g id="Page-1" stroke="none" stroke-width="1" fill="none" fill-rule="evenodd">
        <g id="shop-wallet-1" fill="#000000">
            <g id="Wallet-1" transform="translate(2.000000, 0.000000)">
                <polyline id="Fill-1" points="5.68 18.449 6.32 19.217 7.32 18.384 6.68 17.616 5.68 18.449"></polyline>
                <path d="M14.517,17.119 C14.517,17.744 15.024,18.25 15.649,18.25 C16.273,18.25 16.78,17.744 16.78,17.119 C16.78,16.494 16.273,15.987 15.649,15.987 C15.024,15.987 14.517,16.494 14.517,17.119" id="Fill-2"></path>
                <path d="M19,11 L19,8 L15.865,8 C15.231,7.096 14.185,6.5 13,6.5 C11.815,6.5 10.769,7.096 10.135,8 L3,8 C1.001,8 0.091,9.299 0.091,10.505 L0.091,21.413 C0.091,22.938 1.624,24 3,24 L20,24 L20,11 L19,11 L19,11 Z M17,10 L17,11 L16.34,11 C16.436,10.677 16.5,10.343 16.5,10 L17,10 L17,10 Z M13,7.5 C14.379,7.5 15.5,8.622 15.5,10 C15.5,10.349 15.42,10.686 15.283,11 L13.901,11 C13.97,10.875 14.019,10.738 14.019,10.588 C14.019,9.71 12.728,9.734 12.728,9.396 C12.728,9.237 12.887,9.174 13.03,9.174 C13.371,9.174 13.657,9.424 13.657,9.424 L13.951,8.856 C13.951,8.856 13.709,8.602 13.224,8.546 L13.224,8.185 L12.792,8.185 L12.792,8.558 C12.351,8.641 12.033,8.959 12.033,9.404 C12.033,10.258 13.324,10.286 13.324,10.604 C13.324,10.774 13.169,10.83 13.026,10.83 C12.668,10.83 12.347,10.536 12.347,10.536 L12.026,11 L10.718,11 C10.58,10.687 10.5,10.349 10.5,10 C10.5,8.622 11.621,7.5 13,7.5 L13,7.5 Z M3,10 L9.5,10 C9.5,10.343 9.563,10.677 9.66,11 L3,11 C2.38,11 2.091,10.704 2.091,10.505 C2.091,10.049 2.727,10 3,10 L3,10 Z M3,13 L5.019,13 L2.091,15.44 L2.091,12.89 C2.367,12.961 2.67,13 3,13 L3,13 Z M3,22 C2.995,22 2.99,21.997 2.985,21.997 L5.32,20.051 L4.68,19.283 L2.099,21.433 C2.099,21.427 2.091,21.419 2.091,21.413 L2.091,19.742 L7.32,15.384 L6.68,14.616 L2.091,18.44 L2.091,16.742 L6.581,13 L18,13 L18,14.467 L15.642,14.467 C14.18,14.467 12.99,15.657 12.99,17.119 C12.99,18.581 14.18,19.769 15.642,19.769 L18,19.769 L18,22 L3,22 L3,22 Z M18,15.467 L18,18.77 L15.642,18.77 C14.731,18.77 13.99,18.029 13.99,17.119 C13.99,16.208 14.731,15.467 15.642,15.467 L18,15.467 L18,15.467 Z" id="Fill-3"></path>
                <path d="M5.026,4.83 C4.668,4.83 4.347,4.536 4.347,4.536 L3.981,5.065 C3.981,5.065 4.267,5.378 4.792,5.454 L4.792,5.815 L5.224,5.815 L5.224,5.454 C5.733,5.374 6.019,5.009 6.019,4.588 C6.019,3.71 4.728,3.734 4.728,3.396 C4.728,3.237 4.887,3.174 5.03,3.174 C5.371,3.174 5.657,3.424 5.657,3.424 L5.951,2.856 C5.951,2.856 5.709,2.602 5.224,2.546 L5.224,2.185 L4.792,2.185 L4.792,2.558 C4.351,2.641 4.033,2.959 4.033,3.404 C4.033,4.258 5.324,4.286 5.324,4.604 C5.324,4.774 5.169,4.83 5.026,4.83" id="Fill-4"></path>
                <path d="M5,7.5 C6.93,7.5 8.5,5.93 8.5,4 C8.5,2.07 6.93,0.5 5,0.5 C3.07,0.5 1.5,2.07 1.5,4 C1.5,5.93 3.07,7.5 5,7.5 L5,7.5 Z M5,1.5 C6.379,1.5 7.5,2.622 7.5,4 C7.5,5.378 6.379,6.5 5,6.5 C3.621,6.5 2.5,5.378 2.5,4 C2.5,2.622 3.621,1.5 5,1.5 L5,1.5 Z" id="Fill-5"></path>
            </g>
        </g>
    </g>
</svg>