<?xml version="1.0" encoding="UTF-8"?>
<svg width="24px" height="24px" viewBox="0 0 24 24" version="1.1" xmlns="http://www.w3.org/2000/svg" xmlns:xlink="http://www.w3.org/1999/xlink">
    <!-- Generator: sketchtool 44.1 (41455) - http://www.bohemiancoding.com/sketch -->
    <title>small-quote</title>
    <desc>Created with sketchtool.</desc>
    <defs></defs>
    <g id="Page-1" stroke="none" stroke-width="1" fill="none" fill-rule="evenodd">
        <g id="small-quote" fill="#000000">
            <path d="M24.0939335,5.70582059 C24.0939335,5.37425299 23.9530333,5.09005218 23.7181996,4.85321818 C23.4363992,4.61638418 23.1545988,4.56901738 22.8258317,4.61638418 C21.9334638,4.80585138 20.9471624,5.09005218 19.9138943,5.42161979 C18.5518591,5.99002139 17.4246575,6.7478902 16.4853229,7.64785942 C15.4990215,8.64256223 14.7005871,9.73199864 14.1369863,10.9161687 C13.5264188,12.1477055 13.2446184,13.5213427 13.2446184,14.9897135 C13.2446184,15.9844163 13.3855186,16.9317523 13.7142857,17.7369879 C14.0430528,18.6369572 14.4657534,19.3474592 14.9823875,19.9632276 C15.6399217,20.6263628 16.297456,21.1000308 16.9080235,21.4315984 C17.6125245,21.8105328 18.3639922,22 19.2093933,22 C19.9138943,22 20.5714286,21.9052664 21.1350294,21.6684324 C21.7455969,21.4315984 22.2622309,21.1000308 22.6849315,20.7684632 C23.1076321,20.342162 23.4833659,19.868494 23.7181996,19.3474592 C23.9530333,18.8737912 24.0939335,18.3053896 24.0939335,17.6422543 C24.0939335,17.0264859 24,16.4580843 23.8121331,15.9370495 C23.6712329,15.4633815 23.3894325,15.0370803 23.0136986,14.6107791 C22.6849315,14.1844779 22.3091977,13.9002771 21.8395303,13.7108099 C21.3228963,13.4739759 20.853229,13.3792423 20.4305284,13.3792423 C20.1017613,13.3792423 19.8199609,13.4266091 19.5851272,13.5687095 C19.3502935,13.6160763 19.1154599,13.7581767 18.8806262,13.9002771 C18.8336595,13.9476439 18.739726,13.9950107 18.5988258,14.0423775 C18.4579256,14.0897443 18.3639922,14.1371111 18.2700587,14.1844779 C18.1291585,14.3265783 17.9412916,14.3739451 17.7064579,14.3739451 L17.6125245,14.0897443 C17.5655577,13.9476439 17.5655577,13.7581767 17.5655577,13.4739759 C17.5655577,12.8582075 17.7534247,12.2424391 18.0821918,11.5319371 C18.4579256,10.8214351 18.927593,10.2530334 19.4911937,9.73199864 C20.2426614,9.06886343 20.9471624,8.59519543 21.5577299,8.26362782 C21.6986301,8.21626102 21.8864971,8.12152742 22.1682975,7.97942702 C22.4031311,7.83732662 22.6379648,7.74259302 22.778865,7.69522622 C23.6712329,7.26892501 24.0939335,6.6057898 24.0939335,5.70582059 Z M10.8962818,5.70582059 C10.8962818,5.37425299 10.7553816,5.09005218 10.5205479,4.85321818 C10.2387476,4.66375098 9.90998043,4.56901738 9.58121331,4.61638418 C8.59491194,4.80585138 7.6555773,5.09005218 6.71624266,5.42161979 C5.40117417,5.99002139 4.22700587,6.7478902 3.2407045,7.64785942 C2.25440313,8.64256223 1.45596869,9.73199864 0.892367906,10.9161687 C0.281800391,12.1477055 0,13.5213427 0,14.9897135 C0,15.9370495 0.187866928,16.8370187 0.516634051,17.7369879 C0.75146771,18.44749 1.22113503,19.2053588 1.83170254,19.9632276 C2.44227006,20.578996 3.05283757,21.1000308 3.71037182,21.4315984 C4.4148728,21.8105328 5.21330724,22 6.01174168,22 C6.71624266,22 7.37377691,21.9052664 7.93737769,21.6684324 C8.54794521,21.4315984 9.11154599,21.1000308 9.53424658,20.7684632 C10.0039139,20.2947952 10.332681,19.8211272 10.5675147,19.3474592 C10.8023483,18.8737912 10.8962818,18.3053896 10.8962818,17.6422543 C10.8962818,16.9317523 10.8023483,16.3633507 10.6144814,15.9370495 C10.4735812,15.4633815 10.1917808,15.0370803 9.81604697,14.6107791 C9.58121331,14.2318447 9.20547945,13.9476439 8.6888454,13.7108099 C8.17221135,13.4739759 7.70254403,13.3792423 7.27984344,13.3792423 C6.90410959,13.3792423 6.6223092,13.4266091 6.38747554,13.5687095 C6.24657534,13.6160763 6.01174168,13.7108099 5.68297456,13.9002771 L5.11937378,14.1844779 C4.88454012,14.3265783 4.69667319,14.3739451 4.55577299,14.3739451 C4.50880626,14.3739451 4.46183953,14.2792115 4.4148728,14.0897443 C4.36790607,13.9476439 4.36790607,13.7581767 4.36790607,13.4739759 C4.36790607,13.0003079 4.55577299,12.3371727 4.88454012,11.5319371 C5.26027397,10.8214351 5.72994129,10.2530334 6.29354207,9.73199864 C6.99804305,9.11623023 7.70254403,8.64256223 8.40704501,8.26362782 C8.54794521,8.21626102 8.73581213,8.12152742 9.01761252,7.97942702 C9.25244618,7.83732662 9.44031311,7.74259302 9.58121331,7.69522622 C10.4735812,7.26892501 10.8962818,6.6057898 10.8962818,5.70582059 Z" id="Page-1"></path>
        </g>
    </g>
</svg>