<?xml version="1.0" encoding="UTF-8"?>
<svg width="24px" height="24px" viewBox="0 0 24 24" version="1.1" xmlns="http://www.w3.org/2000/svg" xmlns:xlink="http://www.w3.org/1999/xlink">
    <!-- Generator: sketchtool 44.1 (41455) - http://www.bohemiancoding.com/sketch -->
    <title>social-flickr-4</title>
    <desc>Created with sketchtool.</desc>
    <defs></defs>
    <g id="Page-1" stroke="none" stroke-width="1" fill="none" fill-rule="evenodd">
        <g id="social-flickr-4" fill="#000000">
            <path d="M12,0 C5.383,0 0,5.383 0,12 C0,18.617 5.383,24 12,24 C18.617,24 24,18.617 24,12 C24,5.383 18.617,0 12,0 L12,0 Z M11.875,8 L10.875,8 C9.825,8.039 9.862,8.972 9.875,9.034 L9.875,8.995 C9.878,9.035 9.877,9.043 9.875,9.034 L9.875,9.995 L11.875,10 L11.875,12 L9.875,12 L9.875,16 L7.875,16 L7.875,12 L6.875,12 L6.875,10 L7.875,10 L7.875,8.995 C7.875,5.651 10.875,6 10.875,6 L11.875,6 L11.875,8 L11.875,8 Z M17,11.99 L15.875,11.99 C14.896,11.99 14.875,12.99 14.875,12.99 L14.875,15.99 L12.875,15.99 L12.875,9.99 L14.875,9.99 L14.875,10.99 C14.875,10.115 15.875,9.99 15.875,9.99 L17,9.99 L17,11.99 L17,11.99 Z" id="Imported-Layers"></path>
        </g>
    </g>
</svg>