<?xml version="1.0" encoding="UTF-8"?>
<svg width="24px" height="24px" viewBox="0 0 24 24" version="1.1" xmlns="http://www.w3.org/2000/svg" xmlns:xlink="http://www.w3.org/1999/xlink">
    <!-- Generator: Sketch 48.1 (47250) - http://www.bohemiancoding.com/sketch -->
    <title>social-share-2</title>
    <desc>Created with Sketch.</desc>
    <defs></defs>
    <g id="Page-1" stroke="none" stroke-width="1" fill="none" fill-rule="evenodd">
        <g id="social-share-2" fill="#000000">
            <path d="M18,16 C17.262,16 16.596,16.276 16.073,16.718 L8.944,12.559 C8.978,12.378 9,12.192 9,12 C9,11.808 8.978,11.622 8.944,11.441 L16.073,7.282 C16.596,7.724 17.262,8 18,8 C19.657,8 21,6.657 21,5 C21,3.343 19.657,2 18,2 C16.343,2 15,3.343 15,5 C15,5.192 15.022,5.377 15.056,5.559 L7.927,9.718 C7.404,9.276 6.738,9 6,9 C4.343,9 3,10.343 3,12 C3,13.657 4.343,15 6,15 C6.738,15 7.404,14.723 7.927,14.282 L15.056,18.441 C15.022,18.623 15,18.808 15,19 C15,20.657 16.343,22 18,22 C19.657,22 21,20.657 21,19 C21,17.343 19.657,16 18,16" id="Share"></path>
        </g>
    </g>
</svg>