<?xml version="1.0" encoding="UTF-8"?>
<svg width="24px" height="24px" viewBox="0 0 24 24" version="1.1" xmlns="http://www.w3.org/2000/svg" xmlns:xlink="http://www.w3.org/1999/xlink">
    <!-- Generator: sketchtool 44.1 (41455) - http://www.bohemiancoding.com/sketch -->
    <title>social-flickr-2</title>
    <desc>Created with sketchtool.</desc>
    <defs></defs>
    <g id="Page-1" stroke="none" stroke-width="1" fill="none" fill-rule="evenodd">
        <g id="social-flickr-2" fill="#000000">
            <g id="Imported-Layers">
                <path d="M12,24 C5.383,24 0,18.617 0,12 C0,5.383 5.383,0 12,0 C18.617,0 24,5.383 24,12 C24,18.617 18.617,24 12,24 L12,24 Z M12,2 C6.486,2 2,6.486 2,12 C2,17.514 6.486,22 12,22 C17.514,22 22,17.514 22,12 C22,6.486 17.514,2 12,2 L12,2 Z" id="Fill-1"></path>
                <path d="M11,8.01 L12,8.01 L12,6.01 L11,6.01 C11,6.01 8,5.662 8,9.005 L8,10.01 L7,10.01 L7,12.01 L8,12.01 L8,16.01 L10,16.01 L10,12.01 L12,12.01 L12,10.01 L10,10.005 L10,9.005 C10.025,9.302 9.785,8.056 11,8.01" id="Fill-2"></path>
                <path d="M13,10 L13,16 L15,16 L15,13 C15,13 15.021,12 16,12 L17.125,12 L17.125,10 L16,10 C16,10 15,10.125 15,11 L15,10 L13,10" id="Fill-3"></path>
            </g>
        </g>
    </g>
</svg>