<?xml version="1.0" encoding="UTF-8"?>
<svg width="24px" height="24px" viewBox="0 0 24 24" version="1.1" xmlns="http://www.w3.org/2000/svg" xmlns:xlink="http://www.w3.org/1999/xlink">
    <!-- Generator: Sketch 48.1 (47250) - http://www.bohemiancoding.com/sketch -->
    <title>social-share-1</title>
    <desc>Created with Sketch.</desc>
    <defs></defs>
    <g id="Page-1" stroke="none" stroke-width="1" fill="none" fill-rule="evenodd">
        <g id="social-share-1" fill="#000000">
            <path d="M18,16 C17.531,16 17.092,16.117 16.696,16.31 C16.643,16.255 16.597,16.195 16.53,16.152 L9.887,12 L16.53,7.848 C16.597,7.805 16.643,7.745 16.696,7.69 C17.092,7.883 17.531,8 18,8 C19.657,8 21,6.657 21,5 C21,3.343 19.657,2 18,2 C16.343,2 15,3.343 15,5 C15,5.454 15.108,5.88 15.289,6.266 L8.566,10.467 C8.042,9.592 7.094,9 6,9 C4.343,9 3,10.343 3,12 C3,13.657 4.343,15 6,15 C7.094,15 8.042,14.408 8.566,13.533 L15.289,17.734 C15.108,18.12 15,18.546 15,19 C15,20.657 16.343,22 18,22 C19.657,22 21,20.657 21,19 C21,17.343 19.657,16 18,16 L18,16 Z M18,4 C18.551,4 19,4.449 19,5 C19,5.551 18.551,6 18,6 C17.449,6 17,5.551 17,5 C17,4.449 17.449,4 18,4 L18,4 Z M6,13 C5.449,13 5,12.551 5,12 C5,11.449 5.449,11 6,11 C6.551,11 7,11.449 7,12 C7,12.551 6.551,13 6,13 L6,13 Z M18,20 C17.449,20 17,19.551 17,19 C17,18.449 17.449,18 18,18 C18.551,18 19,18.449 19,19 C19,19.551 18.551,20 18,20 L18,20 Z" id="Share---filled"></path>
        </g>
    </g>
</svg>