<?xml version="1.0" encoding="UTF-8"?>
<svg width="24px" height="24px" viewBox="0 0 24 24" version="1.1" xmlns="http://www.w3.org/2000/svg" xmlns:xlink="http://www.w3.org/1999/xlink">
    <!-- Generator: Sketch 48.1 (47250) - http://www.bohemiancoding.com/sketch -->
    <title>social-twitter-3</title>
    <desc>Created with Sketch.</desc>
    <defs></defs>
    <g id="Page-1" stroke="none" stroke-width="1" fill="none" fill-rule="evenodd">
        <g id="social-twitter-3" fill="#000000">
            <path d="M12,0 C5.383,0 0,5.383 0,12 C0,18.617 5.383,24 12,24 C18.617,24 24,18.617 24,12 C24,5.383 18.617,0 12,0 L12,0 Z M17.826,9.967 C18.154,13.392 15.392,18.165 10.014,18.2 C8.547,18.21 7.173,17.795 6,17.092 C6.032,17.093 8.029,17.232 9.881,15.871 C8.671,15.812 7.657,15.008 7.287,13.908 C7.519,13.968 8.121,14.076 8.623,13.935 C7.37,13.666 6.419,12.586 6.348,11.272 C6.687,11.42 7.059,11.504 7.451,11.51 C6.777,10.982 5.794,9.5 6.732,7.791 C8.043,9.485 10.079,10.59 12.374,10.639 C12.365,10.614 12.315,10.176 12.315,10.07 C12.315,8.711 13.367,7.309 15.076,7.309 C15.885,7.309 16.612,7.657 17.117,8.211 C17.891,8.066 18.684,7.619 18.849,7.518 C18.633,8.151 18.194,8.68 17.626,9.012 C17.63,9.022 17.635,9.031 17.639,9.041 C18.175,8.976 18.687,8.835 19.165,8.627 C18.89,9.216 18.414,9.692 17.826,9.967 L17.826,9.967 Z" id="Imported-Layers"></path>
        </g>
    </g>
</svg>