<?xml version="1.0" encoding="UTF-8"?>
<svg width="24px" height="24px" viewBox="0 0 24 24" version="1.1" xmlns="http://www.w3.org/2000/svg" xmlns:xlink="http://www.w3.org/1999/xlink">
    <!-- Generator: Sketch 48.1 (47250) - http://www.bohemiancoding.com/sketch -->
    <title>social-instagram-3</title>
    <desc>Created with Sketch.</desc>
    <defs></defs>
    <g id="Page-1" stroke="none" stroke-width="1" fill="none" fill-rule="evenodd">
        <g id="social-instagram-3" fill="#000000">
            <g id="Imported-Layers">
                <path d="M15.501,8 L14.999,8 C14.725,8 14.5,8.225 14.5,8.499 L14.5,9.001 C14.5,9.275 14.725,9.5 14.999,9.5 L15.501,9.5 C15.775,9.5 16,9.275 16,9.001 L16,8.499 C16,8.225 15.775,8 15.501,8" id="Fill-1"></path>
                <path d="M11.998,14.5 C13.375,14.5 14.495,13.379 14.495,12.002 C14.495,10.98 13.876,10.102 12.995,9.716 C12.937,9.691 12.874,9.674 12.814,9.653 C12.715,9.618 12.617,9.581 12.512,9.559 C12.459,9.548 12.4,9.548 12.344,9.54 C12.23,9.524 12.117,9.505 11.998,9.505 C10.621,9.505 9.5,10.625 9.5,12.002 C9.5,13.379 10.621,14.5 11.998,14.5 L11.998,14.5 Z M11.998,10.005 C13.099,10.005 13.995,10.901 13.995,12.002 C13.995,13.104 13.099,14 11.998,14 C10.896,14 10,13.104 10,12.002 C10,10.901 10.896,10.005 11.998,10.005 L11.998,10.005 Z" id="Fill-2"></path>
                <path d="M15.495,12.002 C15.495,13.931 13.927,15.5 11.998,15.5 C10.069,15.5 8.5,13.931 8.5,12.002 C8.5,11.652 8.568,11.32 8.664,11 L8,11 L8,16 L16,16 L16,11 L15.331,11 C15.428,11.32 15.495,11.652 15.495,12.002" id="Fill-3"></path>
                <path d="M12,0 C5.383,0 0,5.383 0,12 C0,18.617 5.383,24 12,24 C18.617,24 24,18.617 24,12 C24,5.383 18.617,0 12,0 L12,0 Z M17,16 C17,16.55 16.55,17 16,17 L8,17 C7.45,17 7,16.55 7,16 L7,8 C7,7.45 7.45,7 8,7 L16,7 C16.55,7 17,7.45 17,8 L17,16 L17,16 Z" id="Fill-4"></path>
            </g>
        </g>
    </g>
</svg>