<?xml version="1.0" encoding="UTF-8"?>
<svg width="24px" height="24px" viewBox="0 0 24 24" version="1.1" xmlns="http://www.w3.org/2000/svg" xmlns:xlink="http://www.w3.org/1999/xlink">
    <!-- Generator: Sketch 48.1 (47250) - http://www.bohemiancoding.com/sketch -->
    <title>social-twitter-1</title>
    <desc>Created with Sketch.</desc>
    <defs></defs>
    <g id="Page-1" stroke="none" stroke-width="1" fill="none" fill-rule="evenodd">
        <g id="social-twitter-1" fill="#000000">
            <path d="M23.165,6.119 C22.397,6.453 21.573,6.68 20.711,6.784 C20.705,6.768 20.698,6.753 20.691,6.738 C21.605,6.204 22.31,5.353 22.657,4.337 C22.392,4.499 21.117,5.218 19.872,5.45 C19.06,4.559 17.892,4 16.592,4 C13.845,4 12.153,6.254 12.153,8.439 C12.153,8.609 12.234,9.314 12.248,9.354 C8.557,9.274 5.285,7.498 3.178,4.774 C1.668,7.522 3.249,9.904 4.333,10.754 C3.703,10.744 3.105,10.608 2.56,10.371 C2.674,12.484 4.203,14.22 6.217,14.652 C5.41,14.879 4.442,14.706 4.07,14.609 C4.664,16.377 6.294,17.67 8.239,17.765 C5.262,19.952 2.052,19.729 2,19.728 C3.887,20.859 6.095,21.525 8.454,21.509 C17.1,21.453 21.54,13.78 21.012,8.273 C21.959,7.831 22.724,7.066 23.165,6.119" id="Imported-Layers"></path>
        </g>
    </g>
</svg>