<?xml version="1.0" encoding="UTF-8"?>
<svg width="24px" height="24px" viewBox="0 0 24 24" version="1.1" xmlns="http://www.w3.org/2000/svg" xmlns:xlink="http://www.w3.org/1999/xlink">
    <!-- Generator: sketchtool 44.1 (41455) - http://www.bohemiancoding.com/sketch -->
    <title>social-flickr-3</title>
    <desc>Created with sketchtool.</desc>
    <defs></defs>
    <g id="Page-1" stroke="none" stroke-width="1" fill="none" fill-rule="evenodd">
        <g id="social-flickr-3" fill="#000000">
            <g id="Imported-Layers">
                <path d="M11.7976761,12.9028242 C11.3883026,14.6770619 9.798531,16 7.9,16 C5.691,16 3.9,14.209 3.9,12 C3.9,9.791 5.691,8 7.9,8 C9.798531,8 11.3883026,9.32293815 11.7976761,11.0971758 C12.2118097,9.21363915 13.8938316,7.8 15.9,7.8 C18.216,7.8 20.1,9.684 20.1,12 C20.1,14.316 18.216,16.2 15.9,16.2 C13.8938316,16.2 12.2118097,14.7863609 11.7976761,12.9028242 Z M12,24 C5.383,24 0,18.617 0,12 C0,5.383 5.383,0 12,0 C18.617,0 24,5.383 24,12 C24,18.617 18.617,24 12,24 Z M12,2 C6.486,2 2,6.486 2,12 C2,17.514 6.486,22 12,22 C17.514,22 22,17.514 22,12 C22,6.486 17.514,2 12,2 Z M15.9,8.8 C14.133,8.8 12.7,10.233 12.7,12 C12.7,13.767 14.133,15.2 15.9,15.2 C17.667,15.2 19.1,13.767 19.1,12 C19.1,10.233 17.667,8.8 15.9,8.8 Z" id="Combined-Shape"></path>
            </g>
        </g>
    </g>
</svg>