<?xml version="1.0" encoding="UTF-8"?>
<svg width="24px" height="24px" viewBox="0 0 24 24" version="1.1" xmlns="http://www.w3.org/2000/svg" xmlns:xlink="http://www.w3.org/1999/xlink">
    <!-- Generator: sketchtool 44.1 (41455) - http://www.bohemiancoding.com/sketch -->
    <title>social-instagram-2</title>
    <desc>Created with sketchtool.</desc>
    <defs></defs>
    <g id="Page-1" stroke="none" stroke-width="1" fill="none" fill-rule="evenodd">
        <g id="social-instagram-2" fill="#000000">
            <g id="Imported-Layers">
                <path d="M12,0 C5.383,0 0,5.383 0,12 C0,18.617 5.383,24 12,24 C18.617,24 24,18.617 24,12 C24,5.383 18.617,0 12,0 L12,0 Z M12,22 C6.486,22 2,17.514 2,12 C2,6.486 6.486,2 12,2 C17.514,2 22,6.486 22,12 C22,17.514 17.514,22 12,22 L12,22 Z" id="Fill-1"></path>
                <path d="M11.998,14 C13.099,14 13.995,13.104 13.995,12.002 C13.995,10.901 13.099,10.005 11.998,10.005 C10.896,10.005 10,10.901 10,12.002 C10,13.104 10.896,14 11.998,14" id="Fill-2"></path>
                <path d="M16,7 L8,7 C7.45,7 7,7.45 7,8 L7,16 C7,16.55 7.45,17 8,17 L16,17 C16.55,17 17,16.55 17,16 L17,8 C17,7.45 16.55,7 16,7 L16,7 Z M11.998,9.505 C12.117,9.505 12.23,9.524 12.344,9.54 C12.399,9.548 12.459,9.548 12.512,9.559 C12.617,9.581 12.715,9.618 12.814,9.653 C12.874,9.674 12.937,9.691 12.995,9.716 C13.876,10.102 14.495,10.98 14.495,12.002 C14.495,13.379 13.375,14.5 11.998,14.5 C10.621,14.5 9.5,13.379 9.5,12.002 C9.5,10.625 10.621,9.505 11.998,9.505 L11.998,9.505 Z M16,16 L8,16 L8,11 L8.664,11 C8.568,11.32 8.5,11.652 8.5,12.002 C8.5,13.931 10.069,15.5 11.998,15.5 C13.927,15.5 15.495,13.931 15.495,12.002 C15.495,11.652 15.428,11.32 15.331,11 L16,11 L16,16 L16,16 Z M16,9.001 C16,9.275 15.775,9.5 15.501,9.5 L14.999,9.5 C14.725,9.5 14.5,9.275 14.5,9.001 L14.5,8.499 C14.5,8.225 14.725,8 14.999,8 L15.501,8 C15.775,8 16,8.225 16,8.499 L16,9.001 L16,9.001 Z" id="Fill-3"></path>
            </g>
        </g>
    </g>
</svg>