<?xml version="1.0" encoding="UTF-8"?>
<svg width="24px" height="24px" viewBox="0 0 24 24" version="1.1" xmlns="http://www.w3.org/2000/svg" xmlns:xlink="http://www.w3.org/1999/xlink">
    <!-- Generator: sketchtool 44.1 (41455) - http://www.bohemiancoding.com/sketch -->
    <title>sound-1-off</title>
    <desc>Created with sketchtool.</desc>
    <defs></defs>
    <g id="Page-1" stroke="none" stroke-width="1" fill="none" fill-rule="evenodd">
        <g id="sound-1-off" fill="#000000">
            <g id="Sound-1-Off" transform="translate(2.000000, 2.000000)">
                <path d="M13,20 L10.52,20 L6.519,15 L0,15 L0,5 L6.519,5 L10.52,0 L13,0 L13,20 L13,20 Z M2,13 L7.481,13 L11,17.399 L11,2.601 L7.481,7 L2,7 L2,13 L2,13 Z" id="Fill-2"></path>
                <polyline id="Fill-3" points="20 8.414 18.586 7 17 8.586 15.414 7 14 8.414 15.586 10 14 11.586 15.414 13 17 11.414 18.586 13 20 11.586 18.414 10 20 8.414"></polyline>
            </g>
        </g>
    </g>
</svg>