<?xml version="1.0" encoding="UTF-8"?>
<svg width="24px" height="24px" viewBox="0 0 24 24" version="1.1" xmlns="http://www.w3.org/2000/svg" xmlns:xlink="http://www.w3.org/1999/xlink">
    <!-- Generator: Sketch 48.1 (47250) - http://www.bohemiancoding.com/sketch -->
    <title>sound-2-off</title>
    <desc>Created with Sketch.</desc>
    <defs></defs>
    <g id="Page-1" stroke="none" stroke-width="1" fill="none" fill-rule="evenodd">
        <g id="sound-2-off" fill="#000000">
            <g id="Sound-2-Off" transform="translate(2.000000, 1.000000)">
                <path d="M13,21.081 L6.649,16 L0,16 L0,6 L6.649,6 L13,0.919 L13,21.081 L13,21.081 Z M2,14 L7.351,14 L11,16.919 L11,5.081 L7.351,8 L2,8 L2,14 L2,14 Z" id="Fill-2"></path>
                <polyline id="Fill-3" points="20 9.414 18.586 8 17 9.586 15.414 8 14 9.414 15.586 11 14 12.586 15.414 14 17 12.414 18.586 14 20 12.586 18.414 11 20 9.414"></polyline>
            </g>
        </g>
    </g>
</svg>