<?xml version="1.0" encoding="UTF-8"?>
<svg width="24px" height="24px" viewBox="0 0 24 24" version="1.1" xmlns="http://www.w3.org/2000/svg" xmlns:xlink="http://www.w3.org/1999/xlink">
    <!-- Generator: sketchtool 44.1 (41455) - http://www.bohemiancoding.com/sketch -->
    <title>speech-bubble-2b</title>
    <desc>Created with sketchtool.</desc>
    <defs></defs>
    <g id="Page-1" stroke="none" stroke-width="1" fill="none" fill-rule="evenodd">
        <g id="speech-bubble-2b" fill="#000000">
            <g id="Speech-bubble-2b" transform="translate(1.000000, 3.000000)">
                <path d="M22,0 L0,0 L0,15.944 L3,15.944 L3,19 L6.549,15.944 L22,15.944 L22,0 L22,0 Z M2,2 L20,2 L20,13.944 L2,13.944 L2,2 Z" id="Fill-2"></path>
                <path d="M7.864,9 C8.491,9 9,8.491 9,7.864 C9,7.236 8.491,6.727 7.864,6.727 C7.236,6.727 6.727,7.236 6.727,7.864 C6.727,8.491 7.236,9 7.864,9" id="Fill-3"></path>
                <path d="M10.864,9 C11.491,9 12,8.491 12,7.864 C12,7.236 11.491,6.727 10.864,6.727 C10.236,6.727 9.727,7.236 9.727,7.864 C9.727,8.491 10.236,9 10.864,9" id="Fill-4"></path>
                <path d="M13.864,9 C14.491,9 15,8.491 15,7.864 C15,7.236 14.491,6.727 13.864,6.727 C13.236,6.727 12.727,7.236 12.727,7.864 C12.727,8.491 13.236,9 13.864,9" id="Fill-5"></path>
            </g>
        </g>
    </g>
</svg>