<?xml version="1.0" encoding="UTF-8"?>
<svg width="24px" height="24px" viewBox="0 0 24 24" version="1.1" xmlns="http://www.w3.org/2000/svg" xmlns:xlink="http://www.w3.org/1999/xlink">
    <!-- Generator: sketchtool 44.1 (41455) - http://www.bohemiancoding.com/sketch -->
    <title>speech-bubble-1d</title>
    <desc>Created with sketchtool.</desc>
    <defs></defs>
    <g id="Page-1" stroke="none" stroke-width="1" fill="none" fill-rule="evenodd">
        <g id="speech-bubble-1d" fill="#000000">
            <g id="Speech-bubble-1d" transform="translate(1.000000, 3.000000)">
                <path d="M16.576,0 L5.424,0 C2.434,0 0,2.433 0,5.424 L0,10.52 C0,12.195 0.756,13.75 2.073,14.786 C2.364,15.015 2.677,15.199 3,15.362 L3,17.533 C3,18.109 3.675,18.418 4.111,18.043 L6.549,15.944 L16.576,15.944 C19.566,15.944 22,13.511 22,10.52 L22,5.424 C22,2.433 19.566,0 16.576,0 L16.576,0 Z M2,7.726 C2.952,6.789 4.864,4.873 7.713,2 L10.293,2 L2,10.293 L2,7.726 L2,7.726 Z M5.424,2 L6.304,2 C4.786,3.528 3.124,5.199 2,6.32 L2,5.424 C2,3.536 3.536,2 5.424,2 L5.424,2 Z M20,10.52 C20,12.408 18.464,13.944 16.576,13.944 L5.424,13.944 C4.944,13.944 4.485,13.836 4.058,13.649 L8.354,9.354 L7.647,8.646 L3.193,13.099 C2.705,12.676 2.359,12.137 2.172,11.535 L11.707,2 L16.576,2 C18.464,2 20,3.536 20,5.424 L20,10.52 L20,10.52 Z" id="Fill-2"></path>
                <polyline id="Fill-3" points="8.647 7.646 9.354 8.353 10.354 7.353 9.646 6.646 8.647 7.646"></polyline>
            </g>
        </g>
    </g>
</svg>