<?xml version="1.0" encoding="UTF-8"?>
<svg width="24px" height="24px" viewBox="0 0 24 24" version="1.1" xmlns="http://www.w3.org/2000/svg" xmlns:xlink="http://www.w3.org/1999/xlink">
    <!-- Generator: Sketch 48.1 (47250) - http://www.bohemiancoding.com/sketch -->
    <title>speech-bubble-1b</title>
    <desc>Created with Sketch.</desc>
    <defs></defs>
    <g id="Page-1" stroke="none" stroke-width="1" fill="none" fill-rule="evenodd">
        <g id="speech-bubble-1b" fill="#000000">
            <g id="Speech-bubble-1b" transform="translate(1.000000, 3.000000)">
                <path d="M16.576,0 L5.424,0 C2.434,0 0,2.433 0,5.424 L0,10.52 C0,12.639 1.224,14.473 3,15.365 L3,17.282 C3,17.956 3.791,18.319 4.302,17.879 L6.549,15.944 L16.576,15.944 C19.566,15.944 22,13.511 22,10.52 L22,5.424 C22,2.433 19.566,0 16.576,0 L16.576,0 Z M20,10.52 C20,12.408 18.464,13.944 16.576,13.944 L5.424,13.944 C3.536,13.944 2,12.408 2,10.52 L2,5.424 C2,3.536 3.536,2 5.424,2 L16.576,2 C18.464,2 20,3.536 20,5.424 L20,10.52 L20,10.52 Z" id="Fill-2"></path>
                <path d="M7.864,6.727 C7.236,6.727 6.727,7.236 6.727,7.864 C6.727,8.491 7.236,9 7.864,9 C8.491,9 9,8.491 9,7.864 C9,7.236 8.491,6.727 7.864,6.727" id="Fill-3"></path>
                <path d="M10.864,6.727 C10.236,6.727 9.727,7.236 9.727,7.864 C9.727,8.491 10.236,9 10.864,9 C11.491,9 12,8.491 12,7.864 C12,7.236 11.491,6.727 10.864,6.727" id="Fill-4"></path>
                <path d="M13.864,6.727 C13.236,6.727 12.727,7.236 12.727,7.864 C12.727,8.491 13.236,9 13.864,9 C14.491,9 15,8.491 15,7.864 C15,7.236 14.491,6.727 13.864,6.727" id="Fill-5"></path>
            </g>
        </g>
    </g>
</svg>