<?xml version="1.0" encoding="UTF-8"?>
<svg width="24px" height="24px" viewBox="0 0 24 24" version="1.1" xmlns="http://www.w3.org/2000/svg" xmlns:xlink="http://www.w3.org/1999/xlink">
    <!-- Generator: Sketch 48.1 (47250) - http://www.bohemiancoding.com/sketch -->
    <title>speech-bubble-1c</title>
    <desc>Created with Sketch.</desc>
    <defs></defs>
    <g id="Page-1" stroke="none" stroke-width="1" fill="none" fill-rule="evenodd">
        <g id="speech-bubble-1c" fill="#000000">
            <g id="Speech-bubble-1c" transform="translate(1.000000, 3.000000)">
                <path d="M16.576,0.056 L5.424,0.056 C2.434,0.056 0,2.489 0,5.48 L0,10.576 C0,12.695 1.224,14.529 3,15.421 L3,17.197 C3,17.904 3.831,18.285 4.367,17.823 L6.484,16 L16.576,16 C19.566,16 22,13.567 22,10.576 L22,5.48 C22,2.489 19.566,0.056 16.576,0.056 L16.576,0.056 Z M20,10.576 C20,12.464 18.464,14 16.576,14 L5.424,14 C3.536,14 2,12.464 2,10.576 L2,5.48 C2,3.592 3.536,2.056 5.424,2.056 L16.576,2.056 C18.464,2.056 20,3.592 20,5.48 L20,10.576 L20,10.576 Z" id="Fill-2"></path>
                <polygon id="Fill-3" points="5 5.021 17 5.021 17 7 5 7"></polygon>
                <polygon id="Fill-4" points="5 9.046 17 9.046 17 11 5 11"></polygon>
            </g>
        </g>
    </g>
</svg>