<?xml version="1.0" encoding="UTF-8"?>
<svg width="24px" height="24px" viewBox="0 0 24 24" version="1.1" xmlns="http://www.w3.org/2000/svg" xmlns:xlink="http://www.w3.org/1999/xlink">
    <!-- Generator: Sketch 48.1 (47250) - http://www.bohemiancoding.com/sketch -->
    <title>speech-bubble</title>
    <desc>Created with Sketch.</desc>
    <defs></defs>
    <g id="Page-1" stroke="none" stroke-width="1" fill="none" fill-rule="evenodd">
        <g id="speech-bubble" fill="#000000">
            <path d="M18.09375,2.19585129 C19.734375,2.19585129 21.09375,2.76481681 22.265625,3.95016164 C23.4375,5.13550647 24,6.51050647 24,8.16998922 L24,13.8122306 C24,15.4717134 23.4375,16.8467134 22.265625,18.0320582 C21.09375,19.217403 19.734375,19.7863685 18.09375,19.7863685 L7.078125,19.7863685 L4.78125,21.7777478 C4.453125,22.0148168 4.125,22.0622306 3.796875,21.9199892 C3.46875,21.7777478 3.28125,21.4932651 3.28125,21.1139547 L3.28125,19.1225754 C2.296875,18.6484375 1.5,17.9372306 0.890625,16.9415409 C0.28125,15.9932651 0,14.9501616 0,13.8122306 L0,8.16998922 C0,6.51050647 0.5625,5.13550647 1.734375,3.95016164 C2.90625,2.76481681 4.265625,2.19585129 5.90625,2.19585129 L18.09375,2.19585129 Z M21.796875,8.16998922 C21.796875,7.12688578 21.421875,6.22602371 20.71875,5.46740302 C20.015625,4.75619612 19.125,4.37688578 18.09375,4.37688578 L5.90625,4.37688578 C4.875,4.37688578 3.984375,4.75619612 3.28125,5.46740302 C2.578125,6.22602371 2.203125,7.12688578 2.203125,8.16998922 L2.203125,13.8122306 C2.203125,14.8553341 2.578125,15.7561961 3.28125,16.467403 C3.984375,17.1786099 4.875,17.5579203 5.90625,17.5579203 L18.09375,17.5579203 C19.125,17.5579203 20.015625,17.1786099 20.71875,16.467403 C21.421875,15.7561961 21.796875,14.8553341 21.796875,13.8122306 L21.796875,8.16998922 Z M5.4375,9.82947198 L18.5625,9.82947198 L18.5625,7.6484375 L5.4375,7.6484375 L5.4375,9.82947198 Z M5.4375,14.2863685 L18.5625,14.2863685 L18.5625,12.1053341 L5.4375,12.1053341 L5.4375,14.2863685 Z" id="Page-1"></path>
        </g>
    </g>
</svg>