<?xml version="1.0" encoding="UTF-8"?>
<svg width="24px" height="24px" viewBox="0 0 24 24" version="1.1" xmlns="http://www.w3.org/2000/svg" xmlns:xlink="http://www.w3.org/1999/xlink">
    <!-- Generator: sketchtool 44.1 (41455) - http://www.bohemiancoding.com/sketch -->
    <title>star-lock</title>
    <desc>Created with sketchtool.</desc>
    <defs></defs>
    <g id="Page-1" stroke="none" stroke-width="1" fill="none" fill-rule="evenodd">
        <g id="star-lock" fill="#000000">
            <g id="Star-Lock" transform="translate(1.000000, 1.000000)">
                <path d="M21.941,8.022 C21.802,7.596 21.441,7.292 21,7.229 L14.878,6.34 L12.138,0.788 C11.939,0.389 11.539,0.141 11.093,0.141 C10.644,0.141 10.243,0.391 10.048,0.792 L7.308,6.34 L1.188,7.229 C0.746,7.292 0.385,7.596 0.245,8.022 C0.106,8.447 0.219,8.906 0.54,9.219 L4.97,13.538 L3.925,19.636 C3.866,19.976 3.96,20.321 4.181,20.585 C4.404,20.849 4.729,21 5.073,21 L5.398,20.981 L11.093,17.986 L16.568,20.865 L16.865,21 L17.113,21 C17.457,21 17.782,20.849 18.005,20.585 C18.226,20.322 18.32,19.976 18.261,19.636 L18,17 L15.971,17 L16.006,18.31 L11.632,16.01 C11.467,15.924 11.28,15.878 11.093,15.878 L10.768,15.898 L6.181,18.31 L7.017,13.437 C7.078,13.063 6.954,12.682 6.68,12.411 L3.145,8.966 L8.028,8.256 C8.416,8.201 8.747,7.958 8.908,7.618 L11.093,3.191 L13.278,7.619 C13.449,7.963 13.777,8.201 14.156,8.256 L19.042,8.966 L19,9 L19,10 L21,10 L21.647,9.219 C21.968,8.906 22.081,8.448 21.941,8.022" id="Fill-2"></path>
                <path d="M19,11.5 C19,11.5 18.969,10 17,10 C15,10 15,11.5 15,11.5 L15,11.992 L14,11.992 L14,16 L20,16 L20,11.992 L19,11.992 L19,11.5 L19,11.5 Z M16,11.5 C16,11.48 16.011,11 17,11 C17.808,11 17.975,11.33 18,11.537 L18,11.992 L16,11.992 L16,11.5 L16,11.5 Z" id="Fill-3"></path>
            </g>
        </g>
    </g>
</svg>