<?xml version="1.0" encoding="UTF-8"?>
<svg width="24px" height="24px" viewBox="0 0 24 24" version="1.1" xmlns="http://www.w3.org/2000/svg" xmlns:xlink="http://www.w3.org/1999/xlink">
    <!-- Generator: sketchtool 44.1 (41455) - http://www.bohemiancoding.com/sketch -->
    <title>star-20k</title>
    <desc>Created with sketchtool.</desc>
    <defs></defs>
    <g id="Page-1" stroke="none" stroke-width="1" fill="none" fill-rule="evenodd">
        <g id="star-20k" fill="#000000">
            <path d="M10.4474708,10.9793535 C10.4474708,11.0262514 10.4474708,11.0262514 10.4941634,11.0731493 C10.540856,11.1200472 10.540856,11.1669451 10.540856,11.213843 C10.540856,11.2607409 10.540856,11.3076388 10.5875486,11.3545367 C10.5875486,11.4014346 10.5875486,11.4952304 10.5875486,11.5421283 C10.6342412,11.5890262 10.6342412,11.7297199 10.540856,11.8704136 L10.540856,12.151801 L10.540856,12.5738821 C10.540856,12.62078 10.540856,12.6676779 10.540856,12.7614737 C10.4941634,12.9021674 10.4941634,12.9959632 10.4941634,13.0428611 C10.4941634,13.1835548 10.4474708,13.2773506 10.307393,13.4180443 C10.2607004,13.4649422 10.1673152,13.5118401 10.0272374,13.5118401 C9.88715953,13.5118401 9.79377432,13.4649422 9.74708171,13.4180443 C9.70038911,13.3711464 9.70038911,13.3242485 9.6536965,13.2304527 C9.60700389,13.1366569 9.60700389,13.089759 9.60700389,13.0428611 C9.56031128,12.8552695 9.51361868,12.7145758 9.51361868,12.5738821 L9.51361868,12.151801 L9.51361868,11.8704136 C9.56031128,11.7766178 9.56031128,11.682822 9.56031128,11.5421283 C9.56031128,11.4014346 9.56031128,11.2607409 9.60700389,11.213843 C9.6536965,11.0731493 9.70038911,11.0262514 9.70038911,10.9793535 L9.88715953,10.7917619 L10.07393,10.7917619 L10.2607004,10.7917619 C10.3540856,10.8386598 10.4007782,10.8855577 10.4474708,10.9793535 Z M22.6809339,10.6979661 C23.0077821,10.8386598 23.1945525,11.1200472 23.2412451,11.5421283 C23.2412451,11.9642094 23.0544747,12.2455968 22.7276265,12.4331884 L16.8910506,15.7160414 C16.6575875,15.8567351 16.4708171,16.1381224 16.4241245,16.4664077 L15.7237354,23.1259095 C15.6770428,23.5479905 15.4902724,23.78248 15.1167315,23.9231737 C14.7431907,24.0638674 14.4163424,24.0169695 14.0894942,23.7355821 L9.23346304,19.1864859 C9,18.9519964 8.67315175,18.8582006 8.3463035,18.9519964 L1.85603113,20.3589334 C1.43579767,20.4996271 1.15564202,20.3589334 0.922178988,20.0306481 C0.688715953,19.7023628 0.642023346,19.3740775 0.782101167,18.9988943 L3.58365759,12.9490653 C3.72373541,12.62078 3.72373541,12.2924947 3.53696498,12.0111073 L0.175097276,6.28956358 C-0.0583657588,5.96127829 -0.0583657588,5.58609509 0.175097276,5.2578098 C0.408560311,4.9295245 0.688715953,4.7888308 1.10894942,4.8357287 L7.73929961,5.63299299 C8.06614786,5.67989089 8.3463035,5.58609509 8.62645914,5.3047077 L12.9688716,0.333530363 C13.2490272,0.0521429673 13.5758755,-0.0416528315 13.9961089,0.0521429673 C14.4163424,0.145938766 14.6498054,0.380428263 14.6964981,0.802509357 L16.0038911,7.27441947 C16.0505837,7.60270477 16.2373541,7.88409216 16.5642023,8.02478586 L22.6809339,10.6979661 Z M7.78599222,14.4497981 C7.92607004,14.4497981 7.97276265,14.4029002 7.97276265,14.2622065 L7.92607004,14.2622065 L7.92607004,13.4649422 C7.92607004,13.3242485 7.87937743,13.2304527 7.73929961,13.2304527 L6.15175097,13.2304527 L6.19844358,13.2304527 C6.24513619,13.1835548 6.29182879,13.1366569 6.3385214,13.089759 C6.38521401,13.0428611 6.43190661,13.0428611 6.47859922,12.9959632 C6.52529183,12.9490653 6.57198444,12.9490653 6.61867704,12.9490653 C6.66536965,12.9021674 6.71206226,12.9021674 6.75875486,12.8552695 C6.89883268,12.7614737 6.9922179,12.7145758 7.03891051,12.6676779 C7.27237354,12.4800863 7.45914397,12.3393926 7.50583658,12.2924947 C7.6459144,12.0580052 7.73929961,11.8704136 7.78599222,11.8235157 C7.87937743,11.5890262 7.92607004,11.3545367 7.92607004,11.1669451 C7.92607004,10.9324556 7.87937743,10.744864 7.78599222,10.5103745 C7.73929961,10.3696808 7.6459144,10.2289871 7.45914397,10.0413955 C7.36575875,9.94759973 7.17898833,9.85380393 6.94552529,9.71311024 C6.43190661,9.57241654 5.96498054,9.61931444 5.54474708,9.76000814 C5.21789883,9.99449763 5.0311284,10.1820892 4.9844358,10.2289871 C4.84435798,10.3696808 4.75097276,10.6041703 4.65758755,10.8386598 C4.61089494,11.1669451 4.56420233,11.4014346 4.56420233,11.5890262 C4.56420233,11.7297199 4.65758755,11.8235157 4.79766537,11.8235157 L5.6381323,11.8235157 C5.77821012,11.8235157 5.82490272,11.7297199 5.82490272,11.5890262 C5.82490272,11.5421283 5.82490272,11.4952304 5.87159533,11.4483325 C5.87159533,11.4014346 5.87159533,11.3545367 5.87159533,11.3076388 C5.87159533,11.2607409 5.87159533,11.1669451 5.87159533,11.1200472 L5.91828794,11.0262514 C5.96498054,10.9324556 6.01167315,10.8855577 6.10505837,10.8386598 C6.15175097,10.7917619 6.19844358,10.7917619 6.29182879,10.7917619 C6.43190661,10.7917619 6.52529183,10.8386598 6.61867704,10.9324556 C6.66536965,10.9793535 6.71206226,11.1200472 6.71206226,11.3076388 C6.71206226,11.4014346 6.71206226,11.4952304 6.66536965,11.5421283 L6.43190661,11.7766178 C6.38521401,11.8235157 6.3385214,11.8235157 6.29182879,11.8704136 C6.24513619,11.9173115 6.19844358,11.9173115 6.15175097,11.9642094 C6.10505837,12.0111073 6.05836576,12.0580052 5.96498054,12.1049031 L5.87159533,12.151801 C5.6381323,12.3393926 5.45136187,12.4800863 5.35797665,12.5269842 C5.21789883,12.62078 5.0311284,12.7614737 4.84435798,12.9490653 C4.79766537,12.9959632 4.75097276,13.089759 4.70428016,13.2304527 C4.61089494,13.3711464 4.56420233,13.4649422 4.51750973,13.5118401 C4.47081712,13.8401254 4.42412451,14.0746149 4.42412451,14.2622065 C4.42412451,14.4029002 4.47081712,14.4497981 4.61089494,14.4497981 L7.78599222,14.4497981 Z M11.3346304,14.027717 C11.5214008,13.7932275 11.6614786,13.5118401 11.7548638,13.2304527 C11.848249,12.9490653 11.8949416,12.5738821 11.8949416,12.1049031 C11.8949416,11.682822 11.848249,11.3076388 11.7548638,10.9793535 C11.614786,10.6041703 11.4747082,10.3696808 11.3346304,10.2289871 C11.1478599,9.99449763 10.9610895,9.80690604 10.7743191,9.76000814 C10.307393,9.61931444 9.84046693,9.61931444 9.42023346,9.76000814 C9.14007782,9.85380393 8.95330739,9.99449763 8.81322957,10.2289871 C8.62645914,10.4165787 8.48638132,10.6510682 8.39299611,10.9793535 C8.3463035,11.4014346 8.29961089,11.7766178 8.29961089,12.1049031 C8.29961089,12.4800863 8.3463035,12.8552695 8.39299611,13.2304527 C8.53307393,13.6056359 8.67315175,13.8870233 8.81322957,14.027717 C9.04669261,14.2622065 9.23346304,14.4029002 9.42023346,14.4497981 C9.60700389,14.5435939 9.84046693,14.5904918 10.07393,14.5904918 C10.307393,14.5904918 10.540856,14.5435939 10.7743191,14.4497981 C11.0077821,14.3560023 11.1945525,14.2153086 11.3346304,14.027717 Z M16.7509728,14.2153086 L14.8832685,11.5890262 L16.5175097,9.99449763 C16.5642023,9.94759973 16.6108949,9.85380393 16.5642023,9.80690604 C16.5175097,9.76000814 16.4708171,9.71311024 16.4241245,9.71311024 L15.1634241,9.71311024 L15.0700389,9.71311024 L13.6225681,11.2607409 L13.6225681,9.85380393 C13.6225681,9.76000814 13.5758755,9.71311024 13.4824903,9.71311024 L12.4552529,9.71311024 C12.3618677,9.71311024 12.3151751,9.76000814 12.3151751,9.85380393 L12.3151751,14.3091044 C12.3151751,14.4029002 12.3618677,14.4497981 12.4552529,14.4497981 L13.4357977,14.4497981 C13.5291829,14.4497981 13.5758755,14.4029002 13.5758755,14.3091044 L13.5758755,12.9490653 L13.9494163,12.5738821 L15.1634241,14.4029002 C15.2101167,14.4497981 15.3035019,14.496696 15.3501946,14.496696 L16.5642023,14.496696 C16.6108949,14.496696 16.7042802,14.4497981 16.7509728,14.4029002 L16.7509728,14.2153086 Z" id="Page-1"></path>
        </g>
    </g>
</svg>