<?xml version="1.0" encoding="UTF-8"?>
<svg width="24px" height="24px" viewBox="0 0 24 24" version="1.1" xmlns="http://www.w3.org/2000/svg" xmlns:xlink="http://www.w3.org/1999/xlink">
    <!-- Generator: sketchtool 44.1 (41455) - http://www.bohemiancoding.com/sketch -->
    <title>star-remove</title>
    <desc>Created with sketchtool.</desc>
    <defs></defs>
    <g id="Page-1" stroke="none" stroke-width="1" fill="none" fill-rule="evenodd">
        <g id="star-remove" fill="#000000">
            <g id="Star-Minus" transform="translate(1.000000, 1.000000)">
                <polygon id="Fill-2" points="14.187 12.071 20.329 12.071 20.329 14.071 14.187 14.071"></polygon>
                <path d="M21.755,8.022 C21.616,7.596 21.255,7.292 20.813,7.229 L14.691,6.34 L11.952,0.788 C11.753,0.389 11.352,0.141 10.907,0.141 C10.458,0.141 10.056,0.391 9.861,0.792 L7.122,6.34 L1.002,7.229 C0.559,7.292 0.198,7.596 0.058,8.022 C-0.08,8.447 0.033,8.906 0.353,9.219 L4.784,13.538 L3.738,19.636 C3.679,19.976 3.773,20.321 3.995,20.585 C4.217,20.849 4.543,21 4.886,21 L5.211,20.981 L10.906,17.986 L16.382,20.865 L16.678,21 L16.926,21 C17.27,21 17.595,20.849 17.818,20.585 C18.04,20.322 18.133,19.976 18.075,19.636 L16.967,15.031 L14.938,15.031 L15.819,18.31 L11.445,16.01 C11.28,15.924 11.093,15.878 10.906,15.878 L10.582,15.898 L5.995,18.31 L6.831,13.437 C6.891,13.063 6.767,12.682 6.494,12.411 L2.959,8.966 L7.841,8.256 C8.229,8.201 8.56,7.958 8.721,7.618 L10.907,3.191 L13.091,7.619 C13.262,7.963 13.591,8.201 13.969,8.256 L18.855,8.966 L17,11 L19.633,11 L21.461,9.219 C21.781,8.906 21.894,8.448 21.755,8.022" id="Fill-3"></path>
            </g>
        </g>
    </g>
</svg>