<?xml version="1.0" encoding="UTF-8"?>
<svg width="24px" height="24px" viewBox="0 0 24 24" version="1.1" xmlns="http://www.w3.org/2000/svg" xmlns:xlink="http://www.w3.org/1999/xlink">
    <!-- Generator: Sketch 48.1 (47250) - http://www.bohemiancoding.com/sketch -->
    <title>star-200</title>
    <desc>Created with Sketch.</desc>
    <defs></defs>
    <g id="Page-1" stroke="none" stroke-width="1" fill="none" fill-rule="evenodd">
        <g id="star-200" fill="#000000">
            <path d="M8.40275101,16.7686557 C8.5479123,16.8173002 8.5962994,16.9145893 8.6446865,17.0605229 C8.6446865,17.2064565 8.5962994,17.3523902 8.45113811,17.4010347 L6.37049295,18.5685037 C6.22533166,18.5685037 6.17694456,18.6657927 6.17694456,18.8117264 L5.93500908,21.1953088 C5.88662198,21.3412425 5.83823488,21.389887 5.69307359,21.4385315 C5.5479123,21.4871761 5.45113811,21.4871761 5.35436392,21.389887 L3.56404133,19.7846172 C3.51565424,19.7359726 3.41888004,19.6873281 3.27371875,19.6873281 L0.951138109,20.222418 C0.805976819,20.2710626 0.709202625,20.2710626 0.660815528,20.125129 C0.564041335,19.9791953 0.564041335,19.8819063 0.612428431,19.7359726 L1.58017037,17.5956129 C1.67694456,17.4983238 1.67694456,17.4010347 1.58017037,17.2551011 L0.418880044,15.2120304 C0.370492948,15.0660968 0.370492948,14.9688077 0.418880044,14.8228741 C0.467267141,14.6769405 0.612428431,14.6282959 0.757589722,14.6769405 L3.08017037,14.9688077 C3.17694456,15.0174522 3.27371875,14.9688077 3.37049295,14.8715186 L4.96726714,13.0716706 C5.06404133,12.925737 5.16081553,12.8770925 5.30597682,12.925737 C5.45113811,12.9743816 5.49952521,13.0716706 5.5479123,13.2176043 L6.03178327,15.5525422 C6.03178327,15.6984758 6.08017037,15.7957649 6.22533166,15.8444094 L8.40275101,16.7686557 Z M8.01565424,7.67212667 C8.16081553,7.72077121 8.20920262,7.81806029 8.25758972,7.96399392 C8.25758972,8.10992754 8.20920262,8.20721662 8.06404133,8.25586116 L5.98339617,9.42333012 C5.83823488,9.47197466 5.78984779,9.56926374 5.78984779,9.71519736 L5.5479123,12.0501353 C5.5479123,12.1960689 5.49952521,12.293358 5.35436392,12.3420025 C5.20920262,12.3906471 5.11242843,12.3906471 4.96726714,12.293358 L3.22533166,10.6880882 C3.12855746,10.5907991 3.03178327,10.5421545 2.93500908,10.5907991 L0.612428431,11.125889 C0.467267141,11.1745336 0.370492948,11.125889 0.273718754,10.9799554 C0.17694456,10.8826663 0.17694456,10.7853772 0.225331657,10.6394436 L1.24146069,8.49908386 C1.28984779,8.40179478 1.28984779,8.3045057 1.24146069,8.15857208 L0.0317832701,6.06685685 C-0.0166038266,5.92092323 -0.0166038266,5.82363415 0.0801703669,5.67770053 C0.128557464,5.58041145 0.225331657,5.53176691 0.370492948,5.58041145 L2.74146069,5.87227869 C2.78984779,5.92092323 2.88662198,5.87227869 3.03178327,5.72634507 L4.58017037,3.92649708 C4.67694456,3.829208 4.82210585,3.78056346 4.96726714,3.829208 C5.11242843,3.87785254 5.16081553,3.92649708 5.20920262,4.0724307 L5.69307359,6.45601317 C5.69307359,6.60194679 5.74146069,6.69923587 5.88662198,6.69923587 L8.01565424,7.67212667 Z M16.4833962,4.26700886 C16.6285575,4.3156534 16.6769446,4.41294248 16.7253317,4.5588761 C16.7253317,4.70480972 16.6769446,4.85074335 16.5317833,4.89938789 L14.4511381,6.06685685 C14.3059768,6.06685685 14.2575897,6.16414593 14.2575897,6.31007955 L14.0156542,8.69366202 C14.0156542,8.83959564 13.9672671,8.88824018 13.8221059,8.93688472 C13.6769446,8.98552926 13.5801704,8.98552926 13.4350091,8.88824018 L11.6930736,7.28297035 C11.5479123,7.23432581 11.4511381,7.18568127 11.402751,7.23432581 L9.08017037,7.72077121 C8.93500908,7.76941575 8.83823488,7.72077121 8.74146069,7.62348213 C8.6446865,7.52619305 8.6446865,7.38025943 8.69307359,7.23432581 L9.70920262,5.09396605 C9.75758972,4.99667697 9.75758972,4.89938789 9.70920262,4.75345427 L8.49952521,2.71038358 C8.45113811,2.56444996 8.45113811,2.46716088 8.49952521,2.32122726 C8.5479123,2.17529364 8.69307359,2.1266491 8.83823488,2.17529364 L11.2092026,2.46716088 C11.2575897,2.51580542 11.3543639,2.46716088 11.4995252,2.3698718 L13.0479123,0.570023812 C13.1446865,0.424090191 13.2898478,0.375445651 13.4350091,0.424090191 C13.5801704,0.472734731 13.6285575,0.570023812 13.6285575,0.715957432 L14.1608155,3.0995399 C14.1608155,3.24547352 14.2092026,3.29411806 14.3059768,3.3427626 L16.4833962,4.26700886 Z M22.3382349,11.3204672 C22.4833962,11.3691117 22.5317833,11.4664008 22.5317833,11.6123344 C22.5317833,11.758268 22.4833962,11.9042017 22.3382349,11.9528462 L20.2575897,13.1203152 C20.1124284,13.1203152 20.0640413,13.2176043 20.0640413,13.3635379 L19.8704929,15.7471203 C19.8221059,15.893054 19.7737188,15.9416985 19.6285575,15.990343 C19.4833962,16.0389876 19.386622,16.0389876 19.2414607,15.9416985 L17.4995252,14.3364287 C17.3543639,14.2877841 17.2575897,14.2391396 17.2092026,14.2877841 L14.886622,14.7742295 C14.7414607,14.8228741 14.6446865,14.8228741 14.5962994,14.6769405 C14.4995252,14.5310068 14.4511381,14.4337178 14.4995252,14.2877841 L15.5156542,12.1474244 C15.6124284,12.0501353 15.6124284,11.9528462 15.5156542,11.8069126 L14.3059768,9.7638419 C14.2575897,9.61790828 14.2575897,9.5206192 14.3059768,9.37468558 C14.3543639,9.22875196 14.4995252,9.18010742 14.6446865,9.22875196 L17.0156542,9.5206192 C17.0640413,9.5206192 17.1608155,9.47197466 17.3059768,9.42333012 L18.8543639,7.62348213 C18.9511381,7.47754851 19.0962994,7.42890397 19.2414607,7.47754851 C19.386622,7.52619305 19.4350091,7.62348213 19.4833962,7.76941575 L19.9672671,10.1529982 C19.9672671,10.2989318 20.0156542,10.3475764 20.1608155,10.3962209 L22.3382349,11.3204672 Z M17.5479123,19.2495272 C17.6930736,19.2981718 17.7414607,19.3954609 17.7898478,19.5413945 C17.8382349,19.6873281 17.7898478,19.8332617 17.6446865,19.9305508 L15.5640413,21.0493752 C15.41888,21.0980198 15.3704929,21.1953088 15.3704929,21.3412425 L15.1285575,23.6761804 C15.0801704,23.822114 15.0317833,23.9194031 14.886622,23.9680476 C14.7414607,24.0166922 14.6446865,24.0166922 14.5479123,23.9194031 L12.8059768,22.3141333 C12.7575897,22.2654887 12.6124284,22.2168442 12.4672671,22.2168442 L10.1930736,22.7519341 C10.0479123,22.8005787 9.95113811,22.7519341 9.85436392,22.6060005 C9.75758972,22.5087114 9.75758972,22.4114223 9.80597682,22.2654887 L10.8221059,20.0764844 C10.8704929,19.9791953 10.8704929,19.8819063 10.8221059,19.7359726 L9.61242843,17.6929019 C9.56404133,17.5469683 9.56404133,17.4496792 9.66081553,17.3037456 C9.70920262,17.157812 9.80597682,17.1091675 9.95113811,17.157812 L12.3221059,17.4496792 C12.41888,17.4983238 12.5156542,17.4496792 12.6124284,17.3523902 L14.1608155,15.5525422 C14.2575897,15.4066086 14.402751,15.357964 14.5479123,15.4066086 C14.6930736,15.4552531 14.7414607,15.5525422 14.7898478,15.6984758 L15.2253317,18.0334137 C15.2253317,18.1793473 15.2737188,18.2279919 15.41888,18.2766364 L17.5479123,19.2495272 Z" id="Page-1"></path>
        </g>
    </g>
</svg>