<?xml version="1.0" encoding="UTF-8"?>
<svg width="24px" height="24px" viewBox="0 0 24 24" version="1.1" xmlns="http://www.w3.org/2000/svg" xmlns:xlink="http://www.w3.org/1999/xlink">
    <!-- Generator: sketchtool 44.1 (41455) - http://www.bohemiancoding.com/sketch -->
    <title>star-2k</title>
    <desc>Created with sketchtool.</desc>
    <defs></defs>
    <g id="Page-1" stroke="none" stroke-width="1" fill="none" fill-rule="evenodd">
        <g id="star-2k" fill="#000000">
            <path d="M22.6809339,10.6979661 C23.0077821,10.8386598 23.1945525,11.1200472 23.2412451,11.5421283 C23.2412451,11.9642094 23.0544747,12.2455968 22.7276265,12.4331884 L16.8910506,15.7160414 C16.6575875,15.8567351 16.4708171,16.1381224 16.4241245,16.4664077 L15.7237354,23.1259095 C15.6770428,23.5479905 15.4902724,23.78248 15.1167315,23.9231737 C14.7431907,24.0638674 14.4163424,24.0169695 14.0894942,23.7355821 L9.23346304,19.1864859 C9,18.9519964 8.67315175,18.8582006 8.3463035,18.9519964 L1.85603113,20.3589334 C1.43579767,20.4996271 1.15564202,20.3589334 0.922178988,20.0306481 C0.688715953,19.7023628 0.642023346,19.3740775 0.782101167,18.9988943 L3.58365759,12.9490653 C3.72373541,12.62078 3.72373541,12.2924947 3.53696498,12.0111073 L0.175097276,6.28956358 C-0.0583657588,5.96127829 -0.0583657588,5.58609509 0.175097276,5.2578098 C0.408560311,4.9295245 0.688715953,4.7888308 1.10894942,4.8357287 L7.73929961,5.63299299 C8.06614786,5.67989089 8.3463035,5.58609509 8.62645914,5.3047077 L12.9688716,0.333530363 C13.2490272,0.0521429673 13.5758755,-0.0416528315 13.9961089,0.0521429673 C14.4163424,0.145938766 14.6498054,0.380428263 14.6964981,0.802509357 L16.0038911,7.27441947 C16.0505837,7.60270477 16.2373541,7.88409216 16.5642023,8.02478586 L22.6809339,10.6979661 Z M9.6536965,14.4497981 C9.79377432,14.4497981 9.84046693,14.4029002 9.84046693,14.2622065 L9.79377432,14.2622065 L9.79377432,13.4649422 C9.79377432,13.3242485 9.74708171,13.2304527 9.60700389,13.2304527 L8.06614786,13.2304527 L8.48638132,12.9490653 L8.90661479,12.6676779 C9.14007782,12.4800863 9.32684825,12.3393926 9.37354086,12.2924947 C9.42023346,12.2455968 9.46692607,12.151801 9.56031128,12.0111073 C9.60700389,11.9173115 9.6536965,11.8704136 9.70038911,11.8235157 C9.74708171,11.4952304 9.79377432,11.3076388 9.79377432,11.1669451 C9.79377432,11.0262514 9.74708171,10.8386598 9.70038911,10.5103745 C9.6536965,10.3696808 9.51361868,10.2289871 9.32684825,10.0413955 C9.23346304,9.94759973 9.04669261,9.85380393 8.81322957,9.71311024 C8.3463035,9.57241654 7.87937743,9.57241654 7.41245136,9.76000814 C7.08560311,9.99449763 6.89883268,10.1820892 6.85214008,10.2289871 C6.71206226,10.3696808 6.61867704,10.6041703 6.52529183,10.8386598 C6.47859922,11.1669451 6.43190661,11.4014346 6.43190661,11.5890262 C6.43190661,11.7297199 6.52529183,11.8235157 6.66536965,11.8235157 L7.50583658,11.8235157 C7.6459144,11.8235157 7.692607,11.7297199 7.692607,11.5890262 C7.692607,11.5421283 7.692607,11.4952304 7.73929961,11.4483325 C7.73929961,11.4014346 7.73929961,11.3545367 7.73929961,11.3076388 C7.73929961,11.2607409 7.73929961,11.1669451 7.73929961,11.1200472 L7.78599222,11.0262514 C7.83268482,10.9324556 7.87937743,10.8855577 7.97276265,10.8386598 C8.01945525,10.7917619 8.06614786,10.7917619 8.15953307,10.7917619 C8.29961089,10.7917619 8.39299611,10.8386598 8.48638132,10.9324556 C8.57976654,11.0262514 8.62645914,11.1669451 8.62645914,11.3076388 C8.62645914,11.3545367 8.57976654,11.4014346 8.53307393,11.5421283 C8.48638132,11.5890262 8.39299611,11.6359241 8.3463035,11.7766178 C8.29961089,11.8235157 8.25291829,11.8235157 8.20622568,11.8704136 C8.15953307,11.9173115 8.11284047,11.9173115 8.06614786,11.9642094 C8.01945525,12.0111073 7.92607004,12.0111073 7.87937743,12.0580052 C7.78599222,12.1049031 7.73929961,12.1049031 7.73929961,12.151801 C7.50583658,12.3393926 7.31906615,12.4800863 7.22568093,12.5269842 C7.08560311,12.62078 6.89883268,12.7614737 6.71206226,12.9490653 L6.43190661,13.5118401 C6.3385214,13.7463296 6.29182879,14.027717 6.29182879,14.2622065 C6.29182879,14.4029002 6.3385214,14.4497981 6.47859922,14.4497981 L9.6536965,14.4497981 Z M14.8832685,14.4029002 C14.9299611,14.3091044 14.9299611,14.2622065 14.8832685,14.2153086 L13.0622568,11.5890262 L14.6964981,9.99449763 C14.7431907,9.94759973 14.7898833,9.85380393 14.7431907,9.80690604 C14.6964981,9.76000814 14.6498054,9.71311024 14.6031128,9.71311024 L13.3424125,9.71311024 L13.2490272,9.71311024 L11.8015564,11.2607409 L11.8015564,9.85380393 C11.8015564,9.76000814 11.7548638,9.71311024 11.614786,9.71311024 L10.6342412,9.71311024 C10.540856,9.71311024 10.4941634,9.76000814 10.4941634,9.85380393 L10.4941634,14.3091044 C10.4941634,14.4029002 10.540856,14.4497981 10.6342412,14.4497981 L11.614786,14.4497981 C11.7081712,14.4497981 11.7548638,14.4029002 11.7548638,14.3091044 L11.7548638,12.9490653 L12.1284047,12.5738821 L13.3424125,14.4029002 C13.3891051,14.4497981 13.4357977,14.4497981 13.4824903,14.496696 L14.7431907,14.496696 C14.8365759,14.496696 14.8832685,14.4497981 14.8832685,14.4029002 Z" id="Page-1"></path>
        </g>
    </g>
</svg>