<?xml version="1.0" encoding="UTF-8"?>
<svg width="24px" height="24px" viewBox="0 0 24 24" version="1.1" xmlns="http://www.w3.org/2000/svg" xmlns:xlink="http://www.w3.org/1999/xlink">
    <!-- Generator: Sketch 48.1 (47250) - http://www.bohemiancoding.com/sketch -->
    <title>star-10</title>
    <desc>Created with Sketch.</desc>
    <defs></defs>
    <g id="Page-1" stroke="none" stroke-width="1" fill="none" fill-rule="evenodd">
        <g id="star-10" fill="#000000">
            <path d="M23.6842105,11.3798302 C23.871345,11.4733367 23.9649123,11.6135964 24.0116959,11.8006094 C24.0116959,11.9876224 23.9181287,12.1278822 23.7309942,12.1746354 L20.8304094,13.810999 C20.6432749,13.9512588 20.5497076,14.0915185 20.5497076,14.2317783 L20.2690058,17.598012 C20.2222222,17.785025 20.128655,17.9252847 19.9415205,17.972038 C19.754386,18.0187912 19.5672515,18.0187912 19.4269006,17.8785315 L16.994152,15.6343757 C16.8538012,15.4941159 16.7134503,15.4473627 16.5263158,15.4941159 L13.251462,16.2421679 C13.0643275,16.2889211 12.9239766,16.1954146 12.7836257,16.0551549 C12.6432749,15.9148951 12.6432749,15.7278822 12.6900585,15.5408692 L14.1403509,12.5019081 C14.1871345,12.4551549 14.1871345,12.4084016 14.1871345,12.2681419 C14.1403509,12.1746354 14.1403509,12.1278822 14.0935673,12.0811289 L12.4093567,9.18242761 C12.2690058,9.04216787 12.2690058,8.85515488 12.4093567,8.66814189 C12.502924,8.4811289 12.6432749,8.38762241 12.877193,8.43437566 L16.1988304,8.85515488 C16.3391813,8.90190813 16.4795322,8.80840163 16.619883,8.66814189 L18.8654971,6.19021981 C18.9122807,6.09671332 19.005848,6.04996007 19.1461988,6.00320683 C19.2865497,6.00320683 19.380117,6.04996007 19.5204678,6.09671332 C19.6140351,6.19021981 19.6608187,6.28372631 19.7076023,6.42398605 L20.3157895,9.69671332 C20.3157895,9.83697306 20.4093567,9.9772328 20.5964912,10.023986 L23.6842105,11.3798302 Z M11.4269006,11.3798302 C11.6140351,11.4733367 11.7076023,11.6135964 11.754386,11.8006094 C11.754386,11.9876224 11.6608187,12.1278822 11.4269006,12.1746354 L8.52631579,13.810999 C8.38596491,13.9045055 8.29239766,14.0447653 8.29239766,14.2317783 L7.96491228,17.598012 C7.91812865,17.785025 7.8245614,17.9252847 7.6374269,17.972038 C7.4502924,18.0187912 7.26315789,18.0187912 7.12280702,17.8785315 L4.69005848,15.6343757 C4.5497076,15.4941159 4.40935673,15.4473627 4.22222222,15.4941159 L0.947368421,16.2421679 C0.760233918,16.2889211 0.619883041,16.2421679 0.479532164,16.0551549 C0.339181287,15.9148951 0.339181287,15.7278822 0.432748538,15.5408692 L1.83625731,12.5019081 C1.88304094,12.4551549 1.88304094,12.4084016 1.88304094,12.2681419 C1.83625731,12.1746354 1.83625731,12.1278822 1.78947368,12.0811289 L0.105263158,9.18242761 C-0.0350877193,9.04216787 -0.0350877193,8.85515488 0.105263158,8.66814189 C0.198830409,8.4811289 0.339181287,8.38762241 0.573099415,8.43437566 L3.89473684,8.85515488 C4.03508772,8.90190813 4.1754386,8.85515488 4.31578947,8.66814189 L6.56140351,6.19021981 C6.60818713,6.09671332 6.70175439,6.04996007 6.84210526,6.00320683 C6.98245614,6.00320683 7.07602339,6.04996007 7.21637427,6.09671332 C7.30994152,6.19021981 7.35672515,6.28372631 7.40350877,6.42398605 L8.05847953,9.69671332 C8.05847953,9.83697306 8.15204678,9.9772328 8.29239766,10.023986 L11.4269006,11.3798302 Z" id="Page-1"></path>
        </g>
    </g>
</svg>