<?xml version="1.0" encoding="UTF-8"?>
<svg width="24px" height="24px" viewBox="0 0 24 24" version="1.1" xmlns="http://www.w3.org/2000/svg" xmlns:xlink="http://www.w3.org/1999/xlink">
    <!-- Generator: Sketch 48.1 (47250) - http://www.bohemiancoding.com/sketch -->
    <title>star</title>
    <desc>Created with Sketch.</desc>
    <defs></defs>
    <g id="Page-1" stroke="none" stroke-width="1" fill="none" fill-rule="evenodd">
        <g id="star" fill="#000000">
            <path d="M23.0631566,10.6979661 C23.4433546,10.8386598 23.6334536,11.1200472 23.6809784,11.5421283 C23.6809784,11.9642094 23.4908794,12.2455968 23.1106814,12.4331884 L17.2176121,15.6691435 C16.8849388,15.903633 16.7423645,16.1850203 16.6948398,16.4664077 L16.0294932,23.1259095 C15.9819685,23.5479905 15.7443447,23.78248 15.4116715,23.9231737 C15.0314734,24.0638674 14.6988002,24.0169695 14.3661269,23.7355821 L9.42355265,19.1864859 C9.18592889,18.9519964 8.85325562,18.8582006 8.52058235,18.9050985 L1.91464176,20.3589334 C1.48691899,20.4527292 1.15424572,20.3589334 0.916621957,20.0306481 C0.678998195,19.7023628 0.631473442,19.3740775 0.821572452,18.9988943 L3.6730576,12.9021674 C3.76810711,12.5738821 3.76810711,12.2924947 3.62553285,12.0111073 L0.156225917,6.24266568 C-0.0813978451,5.91438039 -0.0338730926,5.53919719 0.20375067,5.2109119 C0.441374432,4.8826266 0.726522947,4.7419329 1.15424572,4.7888308 L7.85523582,5.58609509 C8.23543384,5.63299299 8.52058235,5.53919719 8.75820612,5.2578098 L13.2255328,0.286632464 C13.5106814,0.00524506789 13.8433546,-0.0885507308 14.2710774,0.00524506789 C14.6512754,0.0990408666 14.8888992,0.333530363 14.9839487,0.755611458 L16.3146418,7.27441947 C16.3621665,7.60270477 16.5522655,7.88409216 16.8849388,8.02478586 L23.0631566,10.6979661 Z" id="Page-1"></path>
        </g>
    </g>
</svg>