<?xml version="1.0" encoding="UTF-8"?>
<svg width="24px" height="24px" viewBox="0 0 24 24" version="1.1" xmlns="http://www.w3.org/2000/svg" xmlns:xlink="http://www.w3.org/1999/xlink">
    <!-- Generator: sketchtool 44.1 (41455) - http://www.bohemiancoding.com/sketch -->
    <title>star-5k</title>
    <desc>Created with sketchtool.</desc>
    <defs></defs>
    <g id="Page-1" stroke="none" stroke-width="1" fill="none" fill-rule="evenodd">
        <g id="star-5k" fill="#000000">
            <path d="M22.7695312,10.6979661 C23.0976562,10.8386598 23.2851562,11.1200472 23.3320312,11.5421283 C23.3320312,11.9642094 23.1445312,12.2455968 22.8164062,12.4331884 L16.9570312,15.7160414 C16.7226562,15.8567351 16.5351562,16.1381224 16.4882812,16.4664077 L15.8320312,23.1259095 C15.7851562,23.5479905 15.5507812,23.78248 15.1757812,23.9231737 C14.8007812,24.0638674 14.4726562,24.0169695 14.1914062,23.7355821 L9.26953125,19.1864859 C9.03515625,18.9519964 8.75390625,18.8582006 8.42578125,18.9519964 L1.91015625,20.3589334 C1.48828125,20.4996271 1.16015625,20.3589334 0.92578125,20.0306481 C0.69140625,19.7023628 0.64453125,19.3740775 0.83203125,18.9988943 L3.59765625,12.9490653 C3.73828125,12.62078 3.73828125,12.2924947 3.55078125,12.0111073 L0.17578125,6.28956358 C-0.05859375,5.96127829 -0.05859375,5.58609509 0.17578125,5.2578098 C0.41015625,4.9295245 0.69140625,4.7888308 1.11328125,4.8357287 L7.76953125,5.63299299 C8.14453125,5.67989089 8.42578125,5.58609509 8.66015625,5.3047077 L13.0664062,0.333530363 C13.3476563,0.0521429673 13.6757812,-0.0416528315 14.0976562,0.0521429673 C14.4726562,0.145938766 14.7070312,0.380428263 14.7539062,0.802509357 L16.1132812,7.27441947 C16.1132812,7.55580687 16.3007812,7.79029636 16.6289062,8.02478586 L22.7695312,10.6979661 Z M10.0664062,13.5118401 C10.1132812,13.3242485 10.2070312,13.089759 10.2539062,12.7614737 C10.2539062,12.5269842 10.2070312,12.3393926 10.1132812,12.151801 C10.0664062,12.0111073 9.97265625,11.8235157 9.83203125,11.5890262 C9.69140625,11.4483325 9.55078125,11.3076388 9.31640625,11.213843 C8.98828125,11.0731493 8.56640625,11.0262514 8.14453125,11.1669451 L8.05078125,11.213843 C8.00390625,11.2607409 8.00390625,11.2607409 7.95703125,11.2607409 L8.05078125,10.6979661 L9.83203125,10.6979661 C9.92578125,10.6979661 9.97265625,10.6510682 9.97265625,10.5103745 L9.97265625,9.76000814 C9.97265625,9.66621234 9.92578125,9.61931444 9.83203125,9.61931444 L7.25390625,9.61931444 C7.16015625,9.61931444 7.11328125,9.66621234 7.11328125,9.71311024 L6.64453125,12.2455968 C6.64453125,12.2924947 6.64453125,12.3393926 6.69140625,12.3862905 C6.73828125,12.4331884 6.78515625,12.4331884 6.83203125,12.4331884 L7.62890625,12.4331884 C7.67578125,12.4331884 7.72265625,12.3862905 7.76953125,12.3393926 C7.81640625,12.1986989 7.91015625,12.151801 8.00390625,12.1049031 C8.23828125,11.9642094 8.42578125,11.9642094 8.61328125,12.1049031 C8.70703125,12.151801 8.75390625,12.1986989 8.80078125,12.2455968 C8.84765625,12.3862905 8.89453125,12.4331884 8.94140625,12.4800863 C8.98828125,12.5269842 8.98828125,12.62078 8.98828125,12.7614737 C8.98828125,12.9021674 8.98828125,12.9959632 8.94140625,13.0428611 C8.89453125,13.1835548 8.84765625,13.2304527 8.80078125,13.2773506 C8.75390625,13.3711464 8.70703125,13.4180443 8.61328125,13.4649422 C8.56640625,13.5118401 8.47265625,13.5118401 8.33203125,13.5118401 C8.23828125,13.5118401 8.09765625,13.4649422 7.91015625,13.3242485 C7.76953125,13.1835548 7.72265625,13.089759 7.72265625,12.9490653 C7.72265625,12.8552695 7.67578125,12.8083716 7.58203125,12.8083716 L6.64453125,12.8083716 C6.59765625,12.8083716 6.55078125,12.8083716 6.55078125,12.8552695 C6.50390625,12.9021674 6.50390625,12.9021674 6.50390625,12.9490653 C6.50390625,13.2304527 6.55078125,13.4649422 6.64453125,13.6525338 C6.78515625,13.9339212 6.92578125,14.1215128 7.06640625,14.1684107 C7.11328125,14.2153086 7.25390625,14.3091044 7.39453125,14.3560023 L7.62890625,14.4497981 C8.00390625,14.496696 8.23828125,14.5435939 8.33203125,14.5435939 L8.37890625,14.5435939 C8.61328125,14.5435939 8.84765625,14.496696 9.03515625,14.4029002 C9.36328125,14.2622065 9.55078125,14.1684107 9.64453125,14.0746149 C9.83203125,13.8870233 9.97265625,13.6994317 10.0664062,13.5118401 Z M15.0820312,14.4029002 C15.1289062,14.3091044 15.1289062,14.2622065 15.0820312,14.2153086 L13.2539062,11.5890262 L14.8945312,9.99449763 C14.9414062,9.94759973 14.9882812,9.85380393 14.9414062,9.80690604 C14.8945312,9.76000814 14.8476562,9.71311024 14.7539062,9.71311024 L13.5351562,9.71311024 L13.3945312,9.71311024 L11.9882812,11.2607409 L11.9882812,9.85380393 C11.9882812,9.76000814 11.9414062,9.71311024 11.8007812,9.71311024 L10.8164062,9.71311024 C10.6757812,9.71311024 10.6289062,9.76000814 10.6289062,9.85380393 L10.6289062,14.3091044 C10.6289062,14.4029002 10.6757812,14.4497981 10.8164062,14.4497981 L11.7539062,14.4497981 C11.8945312,14.4497981 11.9414062,14.4029002 11.9414062,14.3091044 L11.9414062,12.9490653 L12.2695312,12.5738821 L13.5351562,14.4029002 C13.5820312,14.4497981 13.6289062,14.496696 13.6757812,14.496696 L14.9414062,14.496696 C14.9882812,14.496696 15.0351562,14.4497981 15.0820312,14.4029002 Z" id="Page-1"></path>
        </g>
    </g>
</svg>