<?xml version="1.0" encoding="UTF-8"?>
<svg width="24px" height="24px" viewBox="0 0 24 24" version="1.1" xmlns="http://www.w3.org/2000/svg" xmlns:xlink="http://www.w3.org/1999/xlink">
    <!-- Generator: sketchtool 44.1 (41455) - http://www.bohemiancoding.com/sketch -->
    <title>star-details</title>
    <desc>Created with sketchtool.</desc>
    <defs></defs>
    <g id="Page-1" stroke="none" stroke-width="1" fill="none" fill-rule="evenodd">
        <g id="star-details" fill="#000000">
            <g id="Star-2" transform="translate(0.000000, 1.000000)">
                <path d="M22.755,7.883 C22.617,7.458 22.256,7.153 21.812,7.088 L15.69,6.198 L12.951,0.647 C12.752,0.248 12.352,0 11.906,0 C11.457,0 11.056,0.25 10.86,0.65 L8.122,6.198 L1.998,7.088 C1.556,7.153 1.195,7.457 1.058,7.882 C0.919,8.308 1.032,8.766 1.352,9.078 L5.783,13.397 L4.737,19.494 C4.679,19.834 4.773,20.18 4.994,20.442 C5.216,20.707 5.541,20.858 5.886,20.858 L6.211,20.839 L11.905,17.845 L17.381,20.723 L17.678,20.858 L17.926,20.858 C18.27,20.858 18.596,20.707 18.817,20.442 C19.039,20.18 19.133,19.834 19.074,19.495 L18.029,13.397 L22.46,9.078 C22.779,8.766 22.893,8.308 22.755,7.883 L22.755,7.883 Z M6.986,8.384 L5.117,9.954 L3.958,8.824 L6.986,8.384 L6.986,8.384 Z M16.328,12.262 C16.044,12.532 15.916,12.924 15.984,13.303 L16.817,18.168 L12.444,15.868 C12.279,15.782 12.093,15.737 11.905,15.737 L11.581,15.756 L6.994,18.168 L7.483,15.316 L11.32,12.119 L10.68,11.351 L7.744,13.798 L7.83,13.294 C7.891,12.918 7.765,12.536 7.493,12.27 L7.465,12.243 L10.872,9.456 L10.239,8.681 L6.745,11.54 L5.837,10.655 L8.871,8.107 C9.243,8.043 9.562,7.808 9.721,7.477 L11.906,3.05 L14.093,7.481 C14.264,7.823 14.591,8.06 14.969,8.115 L19.855,8.825 L16.328,12.262 L16.328,12.262 Z" id="Fill-2"></path>
                <polyline id="Fill-3" points="11.68 10.517 12.32 11.286 13.32 10.453 12.68 9.684 11.68 10.517"></polyline>
            </g>
        </g>
    </g>
</svg>