<?xml version="1.0" encoding="UTF-8"?>
<svg width="24px" height="24px" viewBox="0 0 24 24" version="1.1" xmlns="http://www.w3.org/2000/svg" xmlns:xlink="http://www.w3.org/1999/xlink">
    <!-- Generator: sketchtool 44.1 (41455) - http://www.bohemiancoding.com/sketch -->
    <title>star-3k</title>
    <desc>Created with sketchtool.</desc>
    <defs></defs>
    <g id="Page-1" stroke="none" stroke-width="1" fill="none" fill-rule="evenodd">
        <g id="star-3k" fill="#000000">
            <path d="M22.7695312,10.6979661 C23.0976562,10.8386598 23.2851562,11.1200472 23.3320312,11.5421283 C23.3320312,11.9642094 23.1445312,12.2455968 22.8164062,12.4331884 L16.9570312,15.7160414 C16.7226562,15.8567351 16.5351562,16.1381224 16.4882812,16.4664077 L15.8320312,23.1259095 C15.7851562,23.5479905 15.5507812,23.78248 15.1757812,23.9231737 C14.8007812,24.0638674 14.4726562,24.0169695 14.1914062,23.7355821 L9.26953125,19.1864859 C9.03515625,18.9519964 8.75390625,18.8582006 8.42578125,18.9519964 L1.91015625,20.3589334 C1.48828125,20.4996271 1.16015625,20.3589334 0.92578125,20.0306481 C0.69140625,19.7023628 0.64453125,19.3740775 0.83203125,18.9988943 L3.59765625,12.9490653 C3.73828125,12.62078 3.73828125,12.2924947 3.55078125,12.0111073 L0.17578125,6.28956358 C-0.05859375,5.96127829 -0.05859375,5.58609509 0.17578125,5.2578098 C0.41015625,4.9295245 0.69140625,4.7888308 1.11328125,4.8357287 L7.76953125,5.63299299 C8.14453125,5.67989089 8.42578125,5.58609509 8.66015625,5.3047077 L13.0664062,0.333530363 C13.3476563,0.0521429673 13.6757812,-0.0416528315 14.0976562,0.0521429673 C14.4726562,0.145938766 14.7070312,0.380428263 14.7539062,0.802509357 L16.1132812,7.27441947 C16.1132812,7.55580687 16.3007812,7.79029636 16.6289062,8.02478586 L22.7695312,10.6979661 Z M9.83203125,13.6056359 C9.92578125,13.4180443 9.97265625,13.1835548 9.97265625,12.9021674 C9.97265625,12.6676779 9.87890625,12.3862905 9.73828125,12.151801 C9.59765625,12.0111073 9.50390625,11.9173115 9.41015625,11.8704136 C9.50390625,11.8235157 9.59765625,11.7766178 9.64453125,11.6359241 C9.78515625,11.4952304 9.83203125,11.2607409 9.83203125,11.0262514 C9.83203125,10.744864 9.78515625,10.5572724 9.64453125,10.4165787 C9.55078125,10.2289871 9.41015625,10.0882934 9.26953125,9.94759973 C9.22265625,9.94759973 9.17578125,9.90070183 9.08203125,9.85380393 C8.94140625,9.80690604 8.84765625,9.76000814 8.75390625,9.71311024 C8.28515625,9.61931444 7.86328125,9.61931444 7.53515625,9.76000814 C7.30078125,9.90070183 7.11328125,9.99449763 7.01953125,10.1351913 C6.92578125,10.2289871 6.83203125,10.4165787 6.69140625,10.6510682 C6.59765625,10.8386598 6.55078125,11.0731493 6.55078125,11.3076388 C6.55078125,11.3545367 6.55078125,11.4014346 6.59765625,11.4483325 C6.64453125,11.4952304 6.69140625,11.4952304 6.73828125,11.4952304 L7.58203125,11.4952304 C7.62890625,11.4952304 7.62890625,11.4952304 7.67578125,11.4483325 C7.72265625,11.4014346 7.72265625,11.3545367 7.72265625,11.3076388 C7.72265625,11.1669451 7.76953125,10.9793535 7.86328125,10.8386598 C7.91015625,10.744864 8.05078125,10.6979661 8.23828125,10.6979661 C8.33203125,10.6979661 8.42578125,10.744864 8.56640625,10.7917619 C8.66015625,10.8855577 8.70703125,10.9793535 8.70703125,11.1200472 C8.70703125,11.2607409 8.70703125,11.3076388 8.66015625,11.3076388 C8.61328125,11.3545367 8.51953125,11.4014346 8.47265625,11.4483325 L8.37890625,11.4483325 C8.33203125,11.4952304 8.28515625,11.4952304 8.23828125,11.4952304 L7.95703125,11.4952304 C7.91015625,11.4952304 7.91015625,11.4952304 7.86328125,11.5421283 C7.81640625,11.5890262 7.81640625,11.5890262 7.81640625,11.6359241 L7.81640625,12.2924947 C7.81640625,12.3862905 7.86328125,12.4331884 7.95703125,12.4331884 L8.28515625,12.4331884 C8.42578125,12.4331884 8.51953125,12.4331884 8.56640625,12.4800863 C8.70703125,12.4800863 8.75390625,12.5269842 8.75390625,12.62078 C8.80078125,12.6676779 8.84765625,12.7614737 8.84765625,12.9021674 C8.84765625,13.1366569 8.80078125,13.2304527 8.70703125,13.2773506 C8.56640625,13.4180443 8.42578125,13.4649422 8.28515625,13.4649422 C8.14453125,13.4649422 8.05078125,13.4649422 8.00390625,13.4180443 L7.81640625,13.2304527 C7.76953125,13.1835548 7.72265625,13.1366569 7.67578125,12.9959632 L7.67578125,12.9021674 C7.62890625,12.8552695 7.62890625,12.7614737 7.62890625,12.7145758 C7.62890625,12.62078 7.58203125,12.5738821 7.48828125,12.5738821 L6.64453125,12.5738821 C6.55078125,12.5738821 6.50390625,12.62078 6.50390625,12.7145758 C6.50390625,12.9021674 6.55078125,13.1366569 6.59765625,13.4649422 C6.64453125,13.558738 6.73828125,13.7463296 6.97265625,14.027717 C7.16015625,14.2153086 7.34765625,14.3091044 7.53515625,14.3560023 C7.72265625,14.4497981 7.95703125,14.496696 8.23828125,14.496696 C8.47265625,14.496696 8.70703125,14.4497981 8.89453125,14.3560023 C9.08203125,14.3091044 9.26953125,14.2153086 9.45703125,14.0746149 C9.69140625,13.9339212 9.78515625,13.7932275 9.83203125,13.6056359 Z M14.9414062,14.4029002 C14.9882812,14.3091044 14.9882812,14.2622065 14.9414062,14.2153086 L13.1132812,11.5890262 L14.7539062,9.99449763 L14.7539062,9.80690604 C14.7539062,9.76000814 14.7070312,9.71311024 14.6132812,9.71311024 L13.3945312,9.71311024 L13.2539062,9.71311024 L11.8007812,11.2607409 L11.8007812,9.85380393 C11.8007812,9.76000814 11.7539062,9.71311024 11.6601562,9.71311024 L10.6289062,9.71311024 C10.5351562,9.71311024 10.4882812,9.76000814 10.4882812,9.85380393 L10.4882812,14.3091044 C10.4882812,14.4029002 10.5351562,14.4497981 10.6289062,14.4497981 L11.6132812,14.4497981 C11.7070312,14.4497981 11.7539062,14.4029002 11.7539062,14.3091044 L11.7539062,12.9490653 L12.1289062,12.5738821 L13.3945312,14.4029002 C13.3945312,14.4497981 13.4414062,14.496696 13.5351562,14.496696 L14.7539062,14.496696 C14.8007812,14.496696 14.8945312,14.4497981 14.9414062,14.4029002 Z" id="Page-1"></path>
        </g>
    </g>
</svg>