<?xml version="1.0" encoding="UTF-8"?>
<svg width="24px" height="24px" viewBox="0 0 24 24" version="1.1" xmlns="http://www.w3.org/2000/svg" xmlns:xlink="http://www.w3.org/1999/xlink">
    <!-- Generator: Sketch 48.1 (47250) - http://www.bohemiancoding.com/sketch -->
    <title>star-30k</title>
    <desc>Created with Sketch.</desc>
    <defs></defs>
    <g id="Page-1" stroke="none" stroke-width="1" fill="none" fill-rule="evenodd">
        <g id="star-30k" fill="#000000">
            <path d="M10.6289063,11.5421283 C10.6757813,11.5890262 10.6757813,11.7297199 10.6289063,11.8704136 L10.6289063,12.151801 L10.6289063,12.5738821 C10.6289063,12.7145758 10.5820313,12.8552695 10.5351563,13.0428611 C10.5351563,13.089759 10.4882813,13.2304527 10.3945313,13.4180443 C10.3476563,13.4649422 10.2539063,13.5118401 10.1132813,13.5118401 C9.92578125,13.5118401 9.83203125,13.4649422 9.83203125,13.4180443 C9.73828125,13.2773506 9.69140625,13.1835548 9.64453125,13.0428611 C9.59765625,12.8552695 9.55078125,12.7145758 9.55078125,12.5738821 L9.55078125,12.151801 L9.55078125,11.8704136 C9.59765625,11.7766178 9.59765625,11.682822 9.59765625,11.5421283 C9.59765625,11.4014346 9.59765625,11.2607409 9.64453125,11.213843 C9.64453125,11.1669451 9.64453125,11.1200472 9.69140625,11.0731493 C9.73828125,11.0262514 9.73828125,11.0262514 9.78515625,10.9793535 C9.83203125,10.9324556 9.87890625,10.8386598 9.92578125,10.7917619 L10.1132813,10.7917619 L10.3476563,10.7917619 C10.3945313,10.8386598 10.4414063,10.9324556 10.4882813,10.9793535 C10.5351563,11.0262514 10.5820313,11.0731493 10.6289063,11.213843 L10.6289063,11.5421283 Z M22.7695312,10.6979661 C23.0976562,10.8386598 23.2851562,11.1200472 23.3320312,11.5421283 C23.3320312,11.9642094 23.1445312,12.2455968 22.8164062,12.4331884 L16.9570312,15.7160414 C16.7226562,15.8567351 16.5351562,16.1381224 16.4882812,16.4664077 L15.8320312,23.1259095 C15.7851562,23.5479905 15.5507812,23.78248 15.1757812,23.9231737 C14.8007812,24.0638674 14.4726562,24.0169695 14.1914062,23.7355821 L9.26953125,19.1864859 C9.03515625,18.9519964 8.75390625,18.8582006 8.42578125,18.9519964 L1.91015625,20.3589334 C1.48828125,20.4996271 1.16015625,20.3589334 0.92578125,20.0306481 C0.69140625,19.7023628 0.64453125,19.3740775 0.83203125,18.9988943 L3.59765625,12.9490653 C3.73828125,12.62078 3.73828125,12.2924947 3.55078125,12.0111073 L0.17578125,6.28956358 C-0.05859375,5.96127829 -0.05859375,5.58609509 0.17578125,5.2578098 C0.41015625,4.9295245 0.69140625,4.7888308 1.11328125,4.8357287 L7.76953125,5.63299299 C8.14453125,5.67989089 8.42578125,5.58609509 8.66015625,5.3047077 L13.0664062,0.333530363 C13.3476563,0.0521429673 13.6757812,-0.0416528315 14.0976562,0.0521429673 C14.4726562,0.145938766 14.7070312,0.380428263 14.7539062,0.802509357 L16.1132812,7.27441947 C16.1132812,7.55580687 16.3007812,7.79029636 16.6289062,8.02478586 L22.7695312,10.6979661 Z M7.86328125,13.6056359 C7.91015625,13.3711464 7.95703125,13.1366569 7.95703125,12.9021674 C7.95703125,12.5738821 7.86328125,12.3393926 7.72265625,12.151801 C7.58203125,12.0111073 7.48828125,11.9173115 7.39453125,11.8704136 C7.53515625,11.8235157 7.62890625,11.7297199 7.62890625,11.6359241 C7.76953125,11.4952304 7.81640625,11.2607409 7.81640625,11.0262514 C7.81640625,10.744864 7.76953125,10.5572724 7.62890625,10.4165787 C7.58203125,10.275885 7.48828125,10.1351913 7.30078125,9.94759973 C7.25390625,9.94759973 7.16015625,9.90070183 7.06640625,9.85380393 C6.92578125,9.80690604 6.83203125,9.76000814 6.78515625,9.71311024 C6.26953125,9.61931444 5.84765625,9.61931444 5.51953125,9.76000814 C5.33203125,9.85380393 5.14453125,9.99449763 5.00390625,10.1351913 C4.81640625,10.4165787 4.72265625,10.6041703 4.67578125,10.6510682 C4.62890625,10.8855577 4.58203125,11.1200472 4.58203125,11.3076388 C4.58203125,11.3545367 4.58203125,11.4014346 4.62890625,11.4483325 C4.62890625,11.4952304 4.67578125,11.4952304 4.72265625,11.4952304 L5.56640625,11.4952304 C5.61328125,11.4952304 5.66015625,11.4952304 5.70703125,11.4483325 C5.75390625,11.4014346 5.75390625,11.3545367 5.75390625,11.3076388 C5.75390625,11.0731493 5.80078125,10.9324556 5.84765625,10.8386598 C5.94140625,10.744864 6.08203125,10.6979661 6.26953125,10.6979661 C6.41015625,10.6979661 6.50390625,10.744864 6.55078125,10.7917619 C6.64453125,10.8855577 6.69140625,10.9793535 6.69140625,11.1200472 C6.69140625,11.2607409 6.69140625,11.3076388 6.64453125,11.3076388 L6.50390625,11.4483325 C6.45703125,11.4483325 6.41015625,11.4483325 6.36328125,11.4483325 L6.26953125,11.4952304 L5.98828125,11.4952304 C5.94140625,11.4952304 5.89453125,11.4952304 5.84765625,11.5421283 C5.80078125,11.5890262 5.80078125,11.5890262 5.80078125,11.6359241 L5.80078125,12.2924947 C5.80078125,12.3862905 5.84765625,12.4331884 5.98828125,12.4331884 L6.26953125,12.4331884 C6.41015625,12.4331884 6.50390625,12.4331884 6.55078125,12.4800863 C6.69140625,12.4800863 6.73828125,12.5269842 6.78515625,12.62078 C6.83203125,12.6676779 6.83203125,12.7614737 6.83203125,12.9021674 C6.83203125,13.1366569 6.78515625,13.2304527 6.69140625,13.2773506 C6.55078125,13.4180443 6.41015625,13.4649422 6.26953125,13.4649422 C6.12890625,13.4649422 6.08203125,13.4649422 6.03515625,13.4180443 C5.98828125,13.3711464 5.89453125,13.3242485 5.80078125,13.2304527 C5.75390625,13.1835548 5.75390625,13.1366569 5.75390625,13.089759 C5.70703125,13.0428611 5.70703125,13.0428611 5.70703125,12.9959632 L5.70703125,12.9021674 C5.66015625,12.8552695 5.66015625,12.7614737 5.66015625,12.7145758 C5.66015625,12.62078 5.61328125,12.5738821 5.47265625,12.5738821 L4.62890625,12.5738821 C4.53515625,12.5738821 4.48828125,12.62078 4.48828125,12.7145758 C4.48828125,12.9959632 4.53515625,13.2304527 4.62890625,13.4649422 C4.67578125,13.6056359 4.76953125,13.7932275 4.95703125,14.027717 C5.19140625,14.2153086 5.37890625,14.3091044 5.51953125,14.3560023 C5.75390625,14.4497981 6.03515625,14.496696 6.26953125,14.496696 C6.50390625,14.496696 6.69140625,14.4497981 6.87890625,14.3560023 C7.11328125,14.3091044 7.30078125,14.2153086 7.44140625,14.0746149 C7.58203125,13.9808191 7.72265625,13.8401254 7.86328125,13.6056359 Z M11.8007812,13.2304527 C11.8945312,12.9490653 11.9414062,12.5738821 11.9414062,12.1049031 C11.9414062,11.682822 11.8945312,11.3076388 11.8007812,10.9793535 C11.7539062,10.6979661 11.6132812,10.4634766 11.4257812,10.2289871 C11.1914062,9.99449763 10.9570312,9.80690604 10.8164062,9.76000814 C10.3476562,9.61931444 9.87890625,9.61931444 9.45703125,9.76000814 C9.22265625,9.85380393 9.03515625,9.99449763 8.84765625,10.2289871 C8.61328125,10.5103745 8.51953125,10.744864 8.47265625,10.9793535 C8.37890625,11.3076388 8.33203125,11.682822 8.33203125,12.1049031 C8.33203125,12.5738821 8.37890625,12.9490653 8.47265625,13.2304527 C8.51953125,13.4649422 8.66015625,13.6994317 8.84765625,14.027717 C9.03515625,14.2153086 9.22265625,14.3560023 9.45703125,14.4497981 C9.64453125,14.5435939 9.87890625,14.5904918 10.1132812,14.5904918 C10.3945312,14.5904918 10.6289062,14.5435939 10.8164062,14.4497981 C11.0507812,14.3560023 11.2382812,14.2153086 11.4257812,14.027717 C11.6601562,13.6525338 11.7539062,13.3711464 11.8007812,13.2304527 Z M16.8164062,14.4029002 C16.8632812,14.3091044 16.8632812,14.2622065 16.8164062,14.2153086 L14.9882812,11.5890262 L16.6289062,9.99449763 L16.6289062,9.80690604 C16.6289062,9.76000814 16.5820312,9.71311024 16.4882812,9.71311024 L15.2695312,9.71311024 L15.1289062,9.71311024 L13.6757812,11.2607409 L13.6757812,9.85380393 C13.6757812,9.76000814 13.6289062,9.71311024 13.5351562,9.71311024 L12.5507812,9.71311024 C12.4101562,9.71311024 12.3632812,9.76000814 12.3632812,9.85380393 L12.3632812,14.3091044 C12.3632812,14.4029002 12.4101562,14.4497981 12.5507812,14.4497981 L13.4882812,14.4497981 C13.5820312,14.4497981 13.6289062,14.4029002 13.6289062,14.3091044 L13.6289062,12.9490653 L14.0039062,12.5738821 L15.2695312,14.4029002 C15.2695312,14.4497981 15.3164062,14.496696 15.4101562,14.496696 L16.6289062,14.496696 C16.6757812,14.496696 16.7695312,14.4497981 16.8164062,14.4029002 Z" id="Page-1"></path>
        </g>
    </g>
</svg>