<?xml version="1.0" encoding="UTF-8"?>
<svg width="24px" height="24px" viewBox="0 0 24 24" version="1.1" xmlns="http://www.w3.org/2000/svg" xmlns:xlink="http://www.w3.org/1999/xlink">
    <!-- Generator: Sketch 48.1 (47250) - http://www.bohemiancoding.com/sketch -->
    <title>star-50</title>
    <desc>Created with Sketch.</desc>
    <defs></defs>
    <g id="Page-1" stroke="none" stroke-width="1" fill="none" fill-rule="evenodd">
        <g id="star-50" fill="#000000">
            <path d="M23.7890625,14.8825274 C23.9296875,14.9283596 24.0234375,15.0200239 24.0234375,15.2033524 C24.0234375,15.386681 23.9296875,15.4783453 23.7421875,15.5241774 L21.4453125,16.7616452 C21.3046875,16.8533095 21.2109375,16.9449737 21.2109375,17.0824702 L20.9765625,19.6949021 C20.9765625,19.8323985 20.9296875,19.9240628 20.7890625,19.969895 C20.6484375,20.0157271 20.4609375,20.0157271 20.3203125,19.9240628 L18.3984375,18.0907772 C18.2578125,18.0449451 18.1171875,17.999113 18.0234375,18.0449451 L15.4453125,18.5949308 C15.3046875,18.6407629 15.1640625,18.5949308 15.0703125,18.4574344 C14.9296875,18.3657701 14.9296875,18.2282737 14.9765625,18.0907772 L16.1015625,15.707506 C16.1953125,15.6158417 16.1953125,15.5241774 16.1015625,15.386681 L14.7421875,13.095074 C14.6953125,12.9575776 14.6953125,12.8200812 14.7890625,12.6825847 C14.8828125,12.5450883 15.0234375,12.4992562 15.1640625,12.4992562 L17.7890625,12.8200812 C17.8359375,12.8659133 17.9765625,12.8200812 18.1640625,12.7284169 L19.8984375,10.7576349 C19.9921875,10.6201384 20.1328125,10.5743063 20.3203125,10.6201384 C20.4609375,10.6659706 20.5546875,10.803467 20.6015625,10.9409634 L21.1171875,13.5533954 C21.2109375,13.6908918 21.3046875,13.7825561 21.3515625,13.8283882 L23.7890625,14.8825274 Z M16.7109375,7.77854578 C16.8515625,7.82437792 16.9453125,7.96187434 16.9453125,8.09937076 C16.9453125,8.23686718 16.8515625,8.3743636 16.7109375,8.46602788 L14.3671875,9.74932779 C14.2265625,9.79515993 14.1796875,9.93265635 14.1796875,10.0701528 L13.9453125,12.6367526 C13.9453125,12.774249 13.8515625,12.8659133 13.7109375,12.9117454 C13.5703125,12.9575776 13.4296875,12.9575776 13.2890625,12.8659133 L11.3203125,11.0784598 C11.1796875,10.9409634 11.0859375,10.9409634 10.9921875,10.9867956 L8.3671875,11.5826134 C8.2265625,11.6284455 8.1328125,11.5826134 8.0390625,11.445117 C7.8984375,11.3076205 7.8984375,11.1701241 7.9453125,11.0326277 L9.0234375,8.64935644 C9.1171875,8.51186002 9.1171875,8.42019574 9.0234375,8.28269932 L7.6640625,6.03692447 C7.6171875,5.89942805 7.6171875,5.71609949 7.7109375,5.57860307 C7.8046875,5.44110665 7.9453125,5.39527451 8.0859375,5.44110665 L10.7109375,5.76193163 C10.8515625,5.80776377 10.9453125,5.76193163 11.0859375,5.62443521 L12.8203125,3.69948534 C12.9140625,3.56198892 13.0546875,3.51615678 13.2421875,3.56198892 C13.3828125,3.60782106 13.4765625,3.74531748 13.5234375,3.8828139 L14.0390625,6.44941373 C14.0859375,6.58691015 14.1796875,6.67857443 14.2734375,6.72440657 L16.7109375,7.77854578 Z M9.1171875,13.5992275 C9.2578125,13.6450597 9.3515625,13.7825561 9.3515625,13.9200525 C9.3515625,14.1033811 9.2578125,14.2408775 9.0703125,14.2867096 L6.7265625,15.5241774 C6.5859375,15.6616738 6.5390625,15.7533381 6.5390625,15.8450024 L6.3046875,18.4116022 C6.3046875,18.5490986 6.2109375,18.6865951 6.0703125,18.7324272 C5.9296875,18.7782593 5.7890625,18.7782593 5.6484375,18.6407629 L3.7265625,16.8533095 C3.6328125,16.8074773 3.4921875,16.7616452 3.3515625,16.7616452 L0.7265625,17.357463 C0.5859375,17.4032951 0.4453125,17.357463 0.3515625,17.2199666 C0.2578125,17.0824702 0.2578125,16.9449737 0.3046875,16.8074773 L1.4296875,14.4700382 C1.5234375,14.3325418 1.5234375,14.2408775 1.4296875,14.1033811 L0.0703125,11.8576062 C-0.0234375,11.7201098 -0.0234375,11.5826134 0.0703125,11.445117 C0.1640625,11.3076205 0.3046875,11.2159563 0.4453125,11.2617884 L3.1171875,11.5826134 C3.2578125,11.6284455 3.3984375,11.5826134 3.4453125,11.445117 L5.2265625,9.52016709 C5.3203125,9.38267067 5.4609375,9.33683853 5.6484375,9.38267067 C5.7890625,9.42850281 5.8828125,9.56599923 5.8828125,9.70349565 L6.4453125,12.2700955 C6.4453125,12.4075919 6.5390625,12.4992562 6.6796875,12.5450883 L9.1171875,13.5992275 Z" id="Page-1"></path>
        </g>
    </g>
</svg>