<?xml version="1.0" encoding="UTF-8"?>
<svg width="24px" height="24px" viewBox="0 0 24 24" version="1.1" xmlns="http://www.w3.org/2000/svg" xmlns:xlink="http://www.w3.org/1999/xlink">
    <!-- Generator: sketchtool 44.1 (41455) - http://www.bohemiancoding.com/sketch -->
    <title>star-100</title>
    <desc>Created with sketchtool.</desc>
    <defs></defs>
    <g id="Page-1" stroke="none" stroke-width="1" fill="none" fill-rule="evenodd">
        <g id="star-100" fill="#000000">
            <path d="M16.2105263,18.9104377 C16.3508772,18.9572784 16.3976608,19.0978004 16.4444444,19.2383225 C16.4444444,19.3788446 16.3976608,19.5193667 16.3040936,19.5662074 L14.0116959,20.7840654 C13.871345,20.8309061 13.8245614,20.9245875 13.8245614,21.0651095 L13.5906433,23.6881883 C13.5438596,23.8287104 13.497076,23.9223918 13.3567251,23.9692325 C13.2163743,24.0160732 13.0760234,24.0160732 12.9356725,23.9223918 L11.0175439,22.1424455 C10.9707602,22.0956048 10.8304094,22.0487641 10.6900585,22.0487641 L8.11695906,22.6108524 C7.97660819,22.6576931 7.83625731,22.6108524 7.74269006,22.4703303 C7.64912281,22.3766489 7.64912281,22.2361269 7.69590643,22.0956048 L8.77192982,19.7535701 C8.81871345,19.6130481 8.81871345,19.5193667 8.77192982,19.3788446 L7.4619883,17.177332 C7.36842105,17.0368099 7.36842105,16.8962879 7.4619883,16.7557658 C7.50877193,16.6152437 7.64912281,16.568403 7.78947368,16.6152437 L10.4093567,16.8962879 C10.502924,16.9431286 10.5964912,16.9431286 10.7368421,16.8026065 L12.4210526,14.8352974 C12.5614035,14.741616 12.7017544,14.6947753 12.8421053,14.741616 C12.9824561,14.7884567 13.0760234,14.8821381 13.122807,15.0226602 L13.5906433,17.5988983 C13.6374269,17.7394203 13.7309942,17.8331017 13.8245614,17.8799424 L16.2105263,18.9104377 Z M23.6959064,12.5401034 C23.8362573,12.5869441 23.9298246,12.6806255 23.9766082,12.8211476 C23.9766082,13.0085104 23.9298246,13.1490324 23.7894737,13.1958731 L21.497076,14.4137312 C21.3567251,14.4605718 21.3099415,14.5542532 21.3099415,14.6947753 L21.0760234,17.3178541 C21.0292398,17.4583762 20.9824561,17.5520576 20.8421053,17.5988983 C20.7017544,17.645739 20.5614035,17.645739 20.4210526,17.5520576 L18.502924,15.8189519 C18.3625731,15.7252705 18.2222222,15.6784299 18.128655,15.7252705 L15.6023392,16.2873589 C15.4619883,16.3341996 15.3216374,16.2873589 15.2280702,16.1468368 C15.0877193,16.0531554 15.0877193,15.9126333 15.1345029,15.7721112 L16.2105263,13.3363952 C16.3040936,13.1958731 16.3040936,13.1021918 16.2105263,13.0085104 L14.9005848,10.7601571 C14.8538012,10.619635 14.8538012,10.479113 14.9473684,10.3385909 C14.994152,10.1980688 15.1345029,10.1512281 15.2748538,10.1980688 L17.8479532,10.5259536 C17.9415205,10.5727943 18.0350877,10.5259536 18.1754386,10.3854316 L19.9064327,8.41812247 C20.0467836,8.32444108 20.1871345,8.27760039 20.3274854,8.32444108 C20.4678363,8.37128177 20.5146199,8.51180385 20.5614035,8.65232593 L21.0760234,11.1817233 C21.0760234,11.3222454 21.1695906,11.4159268 21.3099415,11.4627675 L23.6959064,12.5401034 Z M16.4912281,4.34298219 C16.6315789,4.38982288 16.6783626,4.48350427 16.7251462,4.62402634 C16.7719298,4.81138912 16.7251462,4.95191119 16.5847953,4.99875189 L14.2923977,6.26345059 C14.1520468,6.26345059 14.1052632,6.35713198 14.1052632,6.54449475 L13.871345,9.12073286 C13.8245614,9.26125494 13.7777778,9.35493632 13.6374269,9.40177701 C13.497076,9.44861771 13.3567251,9.44861771 13.2163743,9.35493632 L11.2982456,7.62183069 C11.1578947,7.48130861 11.0643275,7.48130861 10.9707602,7.5281493 L8.39766082,8.09023762 C8.25730994,8.13707831 8.11695906,8.09023762 8.02339181,7.94971554 C7.92982456,7.85603415 7.92982456,7.71551207 7.97660819,7.57498999 L9.05263158,5.18611466 C9.0994152,5.04559258 9.0994152,4.9050705 9.05263158,4.81138912 L7.74269006,2.56303586 C7.64912281,2.42251378 7.64912281,2.2819917 7.74269006,2.14146962 C7.78947368,2.00094754 7.92982456,1.95410685 8.07017544,2.00094754 L10.6900585,2.32883239 C10.7836257,2.37567309 10.877193,2.32883239 11.0175439,2.18831032 L12.7017544,0.267841909 C12.8421053,0.12731983 12.9824561,0.0804791374 13.122807,0.12731983 C13.2631579,0.174160523 13.3567251,0.314682602 13.4035088,0.45520468 L13.871345,2.98460209 C13.9181287,3.17196487 14.0116959,3.26564625 14.1052632,3.26564625 L16.4912281,4.34298219 Z M8.81871345,10.6664757 C8.95906433,10.7133164 9.05263158,10.8538385 9.05263158,10.9943606 C9.05263158,11.1348827 8.95906433,11.2754047 8.81871345,11.4159268 L6.57309942,12.6337848 C6.43274854,12.6806255 6.38596491,12.7743069 6.38596491,12.914829 L6.19883041,15.4442264 C6.15204678,15.8657926 5.91812865,15.9126333 5.54385965,15.6784299 L3.67251462,13.8984835 C3.48538012,13.8516428 3.34502924,13.8048021 3.29824561,13.8516428 L0.725146199,14.4137312 C0.584795322,14.4605718 0.444444444,14.4137312 0.350877193,14.2732091 C0.257309942,14.132687 0.257309942,14.0390056 0.304093567,13.8984835 L1.38011696,11.5096082 C1.52046784,11.4159268 1.52046784,11.3222454 1.38011696,11.1817233 L0.0701754386,8.93337009 C-0.0233918129,8.79284801 -0.0233918129,8.65232593 0.0701754386,8.51180385 C0.116959064,8.37128177 0.257309942,8.32444108 0.397660819,8.37128177 L3.01754386,8.69916662 C3.15789474,8.69916662 3.25146199,8.65232593 3.34502924,8.55864454 L5.02923977,6.59133544 C5.16959064,6.49765406 5.30994152,6.45081337 5.4502924,6.49765406 C5.59064327,6.54449475 5.68421053,6.68501683 5.73099415,6.82553891 L6.19883041,9.35493632 C6.24561404,9.4954584 6.29239766,9.58913979 6.43274854,9.63598048 L8.81871345,10.6664757 Z" id="Page-1"></path>
        </g>
    </g>
</svg>