<?xml version="1.0" encoding="UTF-8"?>
<svg width="24px" height="24px" viewBox="0 0 24 24" version="1.1" xmlns="http://www.w3.org/2000/svg" xmlns:xlink="http://www.w3.org/1999/xlink">
    <!-- Generator: sketchtool 44.1 (41455) - http://www.bohemiancoding.com/sketch -->
    <title>star-4k</title>
    <desc>Created with sketchtool.</desc>
    <defs></defs>
    <g id="Page-1" stroke="none" stroke-width="1" fill="none" fill-rule="evenodd">
        <g id="star-4k" fill="#000000">
            <path d="M7.72265625,12.4331884 L8.51953125,11.3545367 L8.51953125,12.4331884 L7.72265625,12.4331884 Z M22.7695312,10.6979661 C23.0976562,10.8386598 23.2851562,11.1200472 23.3320312,11.5421283 C23.3320312,11.9642094 23.1445312,12.2455968 22.8164062,12.4331884 L16.9570312,15.7160414 C16.7226562,15.8567351 16.5351562,16.1381224 16.4882812,16.4664077 L15.8320312,23.1259095 C15.7851562,23.5479905 15.5507812,23.78248 15.1757812,23.9231737 C14.8007812,24.0638674 14.4726562,24.0169695 14.1914062,23.7355821 L9.26953125,19.1864859 C9.03515625,18.9519964 8.75390625,18.8582006 8.42578125,18.9519964 L1.91015625,20.3589334 C1.48828125,20.4996271 1.16015625,20.3589334 0.92578125,20.0306481 C0.69140625,19.7023628 0.64453125,19.3740775 0.83203125,18.9988943 L3.59765625,12.9490653 C3.73828125,12.62078 3.73828125,12.2924947 3.55078125,12.0111073 L0.17578125,6.28956358 C-0.05859375,5.96127829 -0.05859375,5.58609509 0.17578125,5.2578098 C0.41015625,4.9295245 0.69140625,4.7888308 1.11328125,4.8357287 L7.76953125,5.63299299 C8.14453125,5.67989089 8.42578125,5.58609509 8.66015625,5.3047077 L13.0664062,0.333530363 C13.3476563,0.0521429673 13.6757812,-0.0416528315 14.0976562,0.0521429673 C14.4726562,0.145938766 14.7070312,0.380428263 14.7539062,0.802509357 L16.1132812,7.27441947 C16.1132812,7.55580687 16.3007812,7.79029636 16.6289062,8.02478586 L22.7695312,10.6979661 Z M10.3476562,12.5738821 C10.3476562,12.4800863 10.3007812,12.4331884 10.1601562,12.4331884 L9.69140625,12.4331884 L9.69140625,9.85380393 C9.69140625,9.76000814 9.64453125,9.71311024 9.55078125,9.71311024 L8.66015625,9.71311024 L8.51953125,9.71311024 L6.41015625,12.3862905 C6.36328125,12.3862905 6.36328125,12.3862905 6.36328125,12.4331884 L6.36328125,13.2773506 C6.36328125,13.4180443 6.41015625,13.4649422 6.55078125,13.4649422 L8.47265625,13.4649422 L8.47265625,14.3091044 C8.47265625,14.4497981 8.51953125,14.496696 8.61328125,14.496696 L9.55078125,14.496696 C9.64453125,14.496696 9.69140625,14.4497981 9.69140625,14.3091044 L9.69140625,13.4649422 L10.1601562,13.4649422 C10.3007812,13.4649422 10.3476562,13.4180443 10.3476562,13.2773506 L10.3476562,12.5738821 Z M15.2226562,14.4029002 C15.2695312,14.3091044 15.2695312,14.2622065 15.2226562,14.2153086 L13.3945312,11.5890262 L15.0351562,9.99449763 L15.0351562,9.80690604 C15.0351562,9.76000814 14.9882812,9.71311024 14.8945312,9.71311024 L13.6289062,9.71311024 L13.5351562,9.71311024 L12.0820312,11.2607409 L12.0820312,9.85380393 C12.0820312,9.76000814 12.0351562,9.71311024 11.9414062,9.71311024 L10.9101562,9.71311024 C10.8164062,9.71311024 10.7695312,9.76000814 10.7695312,9.85380393 L10.7695312,14.3091044 C10.7695312,14.4029002 10.8164062,14.4497981 10.9101562,14.4497981 L11.8945312,14.4497981 C11.9882812,14.4497981 12.0351562,14.4029002 12.0351562,14.3091044 L12.0351562,12.9490653 L12.4101562,12.5738821 L13.6289062,14.4029002 C13.6757812,14.4497981 13.7695312,14.496696 13.8164062,14.496696 L15.0351562,14.496696 C15.0820312,14.496696 15.1757812,14.4497981 15.2226562,14.4029002 Z" id="Page-1"></path>
        </g>
    </g>
</svg>