<?xml version="1.0" encoding="UTF-8"?>
<svg width="24px" height="24px" viewBox="0 0 24 24" version="1.1" xmlns="http://www.w3.org/2000/svg" xmlns:xlink="http://www.w3.org/1999/xlink">
    <!-- Generator: sketchtool 44.1 (41455) - http://www.bohemiancoding.com/sketch -->
    <title>star-50k</title>
    <desc>Created with sketchtool.</desc>
    <defs></defs>
    <g id="Page-1" stroke="none" stroke-width="1" fill="none" fill-rule="evenodd">
        <g id="star-50k" fill="#000000">
            <path d="M11.4726562,11.5421283 C11.4726562,11.682822 11.4726562,11.7766178 11.4257812,11.8704136 L11.4257812,12.151801 L11.4257812,12.5738821 C11.4257812,12.7145758 11.3789062,12.8552695 11.3320312,13.0428611 C11.3320312,13.089759 11.2851562,13.2304527 11.1914062,13.4180443 C11.1445312,13.4649422 11.0507812,13.5118401 10.9101562,13.5118401 C10.7226562,13.5118401 10.6289062,13.4649422 10.6289062,13.4180443 C10.5351562,13.2773506 10.4882812,13.1835548 10.4414062,13.0428611 C10.3945312,12.9490653 10.3945312,12.8083716 10.3945312,12.5738821 L10.3945312,12.151801 L10.3945312,11.8704136 L10.3945312,11.5421283 C10.3945312,11.4014346 10.3945312,11.2607409 10.4414062,11.213843 C10.4882812,11.1669451 10.4882812,11.1200472 10.5351562,11.0731493 C10.5820312,11.0262514 10.5820312,11.0262514 10.5820312,10.9793535 C10.6289062,10.9324556 10.6757812,10.8386598 10.7226562,10.7917619 L10.9101562,10.7917619 L11.1445312,10.7917619 C11.1914062,10.8386598 11.2382812,10.9324556 11.2851562,10.9793535 C11.3320312,11.0262514 11.3789062,11.0731493 11.4257812,11.213843 C11.4257812,11.2607409 11.4257812,11.3076388 11.4726562,11.3545367 C11.4726562,11.4014346 11.4726562,11.4952304 11.4726562,11.5421283 Z M22.7695312,10.6979661 C23.0976562,10.8386598 23.2851562,11.1200472 23.3320312,11.5421283 C23.3320312,11.9642094 23.1445312,12.2455968 22.8164062,12.4331884 L16.9570312,15.7160414 C16.7226562,15.8567351 16.5351562,16.1381224 16.4882812,16.4664077 L15.8320312,23.1259095 C15.7851562,23.5479905 15.5507812,23.78248 15.1757812,23.9231737 C14.8007812,24.0638674 14.4726562,24.0169695 14.1914062,23.7355821 L9.26953125,19.1864859 C9.03515625,18.9519964 8.75390625,18.8582006 8.42578125,18.9519964 L1.91015625,20.3589334 C1.48828125,20.4996271 1.16015625,20.3589334 0.92578125,20.0306481 C0.69140625,19.7023628 0.64453125,19.3740775 0.83203125,18.9988943 L3.59765625,12.9490653 C3.73828125,12.62078 3.73828125,12.2924947 3.55078125,12.0111073 L0.17578125,6.28956358 C-0.05859375,5.96127829 -0.05859375,5.58609509 0.17578125,5.2578098 C0.41015625,4.9295245 0.69140625,4.7888308 1.11328125,4.8357287 L7.76953125,5.63299299 C8.14453125,5.67989089 8.42578125,5.58609509 8.66015625,5.3047077 L13.0664062,0.333530363 C13.3476563,0.0521429673 13.6757812,-0.0416528315 14.0976562,0.0521429673 C14.4726562,0.145938766 14.7070312,0.380428263 14.7539062,0.802509357 L16.1132812,7.27441947 C16.1132812,7.55580687 16.3007812,7.79029636 16.6289062,8.02478586 L22.7695312,10.6979661 Z M8.70703125,13.5118401 C8.75390625,13.3242485 8.84765625,13.089759 8.89453125,12.7614737 C8.89453125,12.5269842 8.84765625,12.3393926 8.75390625,12.151801 C8.70703125,12.0111073 8.61328125,11.8235157 8.47265625,11.5890262 C8.33203125,11.4483325 8.19140625,11.3076388 7.95703125,11.213843 C7.62890625,11.0731493 7.20703125,11.0262514 6.78515625,11.1669451 C6.73828125,11.1669451 6.73828125,11.1669451 6.69140625,11.213843 C6.64453125,11.2607409 6.64453125,11.2607409 6.59765625,11.2607409 L6.69140625,10.6979661 L8.47265625,10.6979661 C8.56640625,10.6979661 8.61328125,10.6510682 8.61328125,10.5103745 L8.61328125,9.76000814 C8.61328125,9.66621234 8.56640625,9.61931444 8.47265625,9.61931444 L5.89453125,9.61931444 C5.80078125,9.61931444 5.75390625,9.66621234 5.75390625,9.71311024 L5.28515625,12.2455968 C5.28515625,12.2924947 5.28515625,12.3393926 5.33203125,12.3862905 C5.37890625,12.4331884 5.42578125,12.4331884 5.47265625,12.4331884 L6.26953125,12.4331884 C6.31640625,12.4331884 6.36328125,12.3862905 6.41015625,12.3393926 C6.50390625,12.1986989 6.59765625,12.151801 6.64453125,12.1049031 C6.87890625,11.9642094 7.06640625,11.9642094 7.25390625,12.1049031 C7.34765625,12.151801 7.39453125,12.1986989 7.44140625,12.2455968 C7.48828125,12.3862905 7.53515625,12.4331884 7.58203125,12.4800863 C7.62890625,12.5269842 7.62890625,12.62078 7.62890625,12.7614737 C7.62890625,12.9021674 7.62890625,12.9959632 7.58203125,13.0428611 C7.53515625,13.1835548 7.48828125,13.2304527 7.44140625,13.2773506 C7.39453125,13.3711464 7.34765625,13.4180443 7.25390625,13.4649422 C7.20703125,13.5118401 7.11328125,13.5118401 6.97265625,13.5118401 C6.87890625,13.5118401 6.73828125,13.4649422 6.55078125,13.3242485 C6.41015625,13.1835548 6.36328125,13.089759 6.36328125,12.9490653 C6.36328125,12.8552695 6.31640625,12.8083716 6.22265625,12.8083716 L5.28515625,12.8083716 C5.23828125,12.8083716 5.19140625,12.8083716 5.19140625,12.8552695 C5.14453125,12.9021674 5.14453125,12.9021674 5.14453125,12.9490653 C5.14453125,13.2304527 5.19140625,13.4649422 5.28515625,13.6525338 C5.42578125,13.9339212 5.56640625,14.1215128 5.70703125,14.1684107 C5.75390625,14.2153086 5.89453125,14.3091044 6.03515625,14.3560023 L6.26953125,14.4497981 C6.64453125,14.496696 6.87890625,14.5435939 6.97265625,14.5435939 L7.01953125,14.5435939 C7.25390625,14.5435939 7.48828125,14.496696 7.67578125,14.4029002 C8.00390625,14.2622065 8.19140625,14.1684107 8.28515625,14.0746149 C8.47265625,13.8870233 8.61328125,13.6994317 8.70703125,13.5118401 Z M12.5976562,13.2304527 C12.6914062,12.9490653 12.7382812,12.5738821 12.7382812,12.1049031 C12.7382812,11.682822 12.6914062,11.3076388 12.5976562,10.9793535 C12.5507812,10.6979661 12.4101562,10.4634766 12.2226562,10.2289871 C12.0351562,9.99449763 11.8476562,9.85380393 11.6132812,9.76000814 C11.1914062,9.61931444 10.7226562,9.61931444 10.2539062,9.76000814 C10.0195312,9.85380393 9.83203125,9.99449763 9.64453125,10.2289871 C9.41015625,10.5103745 9.31640625,10.744864 9.26953125,10.9793535 C9.17578125,11.3076388 9.12890625,11.682822 9.12890625,12.1049031 C9.12890625,12.5738821 9.17578125,12.9490653 9.26953125,13.2304527 C9.31640625,13.4649422 9.45703125,13.6994317 9.64453125,14.027717 C9.83203125,14.2153086 10.0195312,14.3560023 10.2539062,14.4497981 C10.4414062,14.5435939 10.6757812,14.5904918 10.9101562,14.5904918 C11.1914062,14.5904918 11.4257812,14.5435939 11.6132812,14.4497981 C11.8476562,14.3560023 12.0351562,14.2153086 12.2226562,14.027717 C12.4570312,13.6525338 12.5507812,13.3711464 12.5976562,13.2304527 Z M17.6132812,14.4029002 C17.6601562,14.3091044 17.6601562,14.2622065 17.6132812,14.2153086 L15.7851562,11.5890262 L17.4257812,9.99449763 C17.4726562,9.94759973 17.4726562,9.90070183 17.4726562,9.80690604 C17.4257812,9.76000814 17.3789062,9.71311024 17.2851562,9.71311024 L16.0664062,9.71311024 L15.9257812,9.71311024 L14.4726562,11.2607409 L14.4726562,9.85380393 C14.4726562,9.76000814 14.4257812,9.71311024 14.3320312,9.71311024 L13.3476562,9.71311024 C13.2070312,9.71311024 13.1601562,9.76000814 13.1601562,9.85380393 L13.1601562,14.3091044 C13.1601562,14.4029002 13.2070312,14.4497981 13.3476562,14.4497981 L14.2851562,14.4497981 C14.4257812,14.4497981 14.4726562,14.4029002 14.4726562,14.3091044 L14.4726562,12.9490653 L14.8007812,12.5738821 L16.0664062,14.4029002 C16.1132812,14.4497981 16.1601562,14.496696 16.2070312,14.496696 L17.4726562,14.496696 C17.5195312,14.496696 17.5664062,14.4497981 17.6132812,14.4029002 Z" id="Page-1"></path>
        </g>
    </g>
</svg>