<?xml version="1.0" encoding="UTF-8"?>
<svg width="24px" height="24px" viewBox="0 0 24 24" version="1.1" xmlns="http://www.w3.org/2000/svg" xmlns:xlink="http://www.w3.org/1999/xlink">
    <!-- Generator: sketchtool 44.1 (41455) - http://www.bohemiancoding.com/sketch -->
    <title>star-10k</title>
    <desc>Created with sketchtool.</desc>
    <defs></defs>
    <g id="Page-1" stroke="none" stroke-width="1" fill="none" fill-rule="evenodd">
        <g id="star-10k" fill="#000000">
            <path d="M10.1132812,10.9793535 C10.1132812,11.0262514 10.1132812,11.0262514 10.1601562,11.0731493 C10.2070312,11.1200472 10.2070312,11.1669451 10.2070312,11.213843 C10.2070312,11.2607409 10.2070312,11.3076388 10.2539062,11.3545367 C10.2539062,11.4014346 10.2539062,11.4952304 10.2539062,11.5421283 C10.3007812,11.5890262 10.3007812,11.7297199 10.2070312,11.8704136 L10.2070312,12.151801 L10.2070312,12.5738821 C10.2070312,12.7145758 10.1601562,12.8552695 10.1132812,13.0428611 C10.1132812,13.1835548 10.0664062,13.3242485 9.97265625,13.4180443 C9.92578125,13.4649422 9.83203125,13.5118401 9.69140625,13.5118401 C9.55078125,13.5118401 9.45703125,13.4649422 9.41015625,13.4180443 C9.31640625,13.2773506 9.26953125,13.1835548 9.26953125,13.0428611 C9.22265625,12.8552695 9.17578125,12.7145758 9.17578125,12.5738821 L9.17578125,12.151801 L9.17578125,11.8704136 C9.22265625,11.7766178 9.22265625,11.682822 9.22265625,11.5421283 C9.22265625,11.4014346 9.22265625,11.2607409 9.26953125,11.213843 C9.26953125,11.1669451 9.31640625,11.1200472 9.36328125,10.9793535 L9.55078125,10.7917619 L9.73828125,10.7917619 L9.92578125,10.7917619 C10.0195312,10.8386598 10.0664062,10.8855577 10.1132812,10.9793535 Z M22.7695312,10.6979661 C23.0976562,10.8386598 23.2851562,11.1200472 23.3320312,11.5421283 C23.3320312,11.9642094 23.1445312,12.2455968 22.8164062,12.4331884 L16.9570312,15.7160414 C16.7226562,15.8567351 16.5351562,16.1381224 16.4882812,16.4664077 L15.8320312,23.1259095 C15.7851562,23.5479905 15.5507812,23.78248 15.1757812,23.9231737 C14.8007812,24.0638674 14.4726562,24.0169695 14.1914062,23.7355821 L9.26953125,19.1864859 C9.03515625,18.9519964 8.75390625,18.8582006 8.42578125,18.9519964 L1.91015625,20.3589334 C1.48828125,20.4996271 1.16015625,20.3589334 0.92578125,20.0306481 C0.69140625,19.7023628 0.64453125,19.3740775 0.83203125,18.9988943 L3.59765625,12.9490653 C3.73828125,12.62078 3.73828125,12.2924947 3.55078125,12.0111073 L0.17578125,6.28956358 C-0.05859375,5.96127829 -0.05859375,5.58609509 0.17578125,5.2578098 C0.41015625,4.9295245 0.69140625,4.7888308 1.11328125,4.8357287 L7.76953125,5.63299299 C8.14453125,5.67989089 8.42578125,5.58609509 8.66015625,5.3047077 L13.0664062,0.333530363 C13.3476563,0.0521429673 13.6757812,-0.0416528315 14.0976562,0.0521429673 C14.4726562,0.145938766 14.7070312,0.380428263 14.7539062,0.802509357 L16.1132812,7.27441947 C16.1132812,7.55580687 16.3007812,7.79029636 16.6289062,8.02478586 L22.7695312,10.6979661 Z M6.97265625,14.496696 C7.06640625,14.496696 7.11328125,14.4497981 7.11328125,14.3091044 L7.11328125,9.90070183 C7.11328125,9.76000814 7.06640625,9.71311024 6.92578125,9.71311024 L6.17578125,9.71311024 C6.08203125,9.71311024 6.03515625,9.76000814 6.03515625,9.90070183 C6.03515625,10.0413955 5.98828125,10.1820892 5.89453125,10.2289871 C5.75390625,10.3696808 5.70703125,10.4634766 5.66015625,10.5103745 C5.61328125,10.5103745 5.51953125,10.5572724 5.33203125,10.6041703 C5.23828125,10.6510682 5.09765625,10.6510682 4.95703125,10.6510682 L4.91015625,10.6510682 L4.81640625,10.6979661 C4.76953125,10.744864 4.76953125,10.744864 4.76953125,10.7917619 L4.76953125,11.4952304 C4.76953125,11.5890262 4.81640625,11.6359241 4.91015625,11.6359241 L5.94140625,11.6359241 L5.94140625,14.3091044 C5.94140625,14.4497981 5.98828125,14.496696 6.08203125,14.496696 L6.97265625,14.496696 Z M11.4257812,13.2304527 C11.4726562,12.8552695 11.5195312,12.4800863 11.5195312,12.1049031 C11.5195312,11.7766178 11.4726562,11.4014346 11.4257812,10.9793535 C11.2851562,10.6041703 11.1445312,10.3696808 11.0039062,10.2289871 C10.8164062,9.99449763 10.6289062,9.85380393 10.3945312,9.76000814 C9.97265625,9.61931444 9.55078125,9.61931444 9.03515625,9.76000814 C8.80078125,9.85380393 8.61328125,9.99449763 8.47265625,10.2289871 C8.28515625,10.4165787 8.14453125,10.6510682 8.05078125,10.9793535 C7.95703125,11.3076388 7.91015625,11.682822 7.91015625,12.1049031 C7.91015625,12.5738821 7.95703125,12.9490653 8.05078125,13.2304527 C8.19140625,13.6056359 8.33203125,13.8870233 8.47265625,14.027717 C8.70703125,14.2622065 8.89453125,14.4029002 9.03515625,14.4497981 C9.26953125,14.5435939 9.50390625,14.5904918 9.73828125,14.5904918 C9.97265625,14.5904918 10.2070312,14.5435939 10.3945312,14.4497981 C10.6757812,14.3091044 10.8632812,14.1684107 11.0039062,14.027717 C11.1914062,13.7932275 11.3320312,13.5118401 11.4257812,13.2304527 Z M16.8164062,14.4029002 C16.8632812,14.3091044 16.8632812,14.2622065 16.8164062,14.2153086 L14.9882812,11.5890262 L16.6289062,9.99449763 L16.6289062,9.80690604 C16.6289062,9.76000814 16.5820312,9.71311024 16.4882812,9.71311024 L15.2695312,9.71311024 L15.1289062,9.71311024 L13.6757812,11.2607409 L13.6757812,9.85380393 C13.6757812,9.76000814 13.6289062,9.71311024 13.5351562,9.71311024 L12.5507812,9.71311024 C12.4101562,9.71311024 12.3632812,9.76000814 12.3632812,9.85380393 L12.3632812,14.3091044 C12.3632812,14.4029002 12.4101562,14.4497981 12.5507812,14.4497981 L13.4882812,14.4497981 C13.5820312,14.4497981 13.6289062,14.4029002 13.6289062,14.3091044 L13.6289062,12.9490653 L14.0039062,12.5738821 L15.2695312,14.4029002 C15.2695312,14.4497981 15.3164062,14.496696 15.4101562,14.496696 L16.6289062,14.496696 C16.6757812,14.496696 16.7695312,14.4497981 16.8164062,14.4029002 Z" id="Page-1"></path>
        </g>
    </g>
</svg>