<?xml version="1.0" encoding="UTF-8"?>
<svg width="24px" height="24px" viewBox="0 0 24 24" version="1.1" xmlns="http://www.w3.org/2000/svg" xmlns:xlink="http://www.w3.org/1999/xlink">
    <!-- Generator: sketchtool 44.1 (41455) - http://www.bohemiancoding.com/sketch -->
    <title>star-1k</title>
    <desc>Created with sketchtool.</desc>
    <defs></defs>
    <g id="Page-1" stroke="none" stroke-width="1" fill="none" fill-rule="evenodd">
        <g id="star-1k" fill="#000000">
            <path d="M22.7695312,10.6979661 C23.0976562,10.8386598 23.2851562,11.1200472 23.3320312,11.5421283 C23.3320312,11.9642094 23.1445312,12.2455968 22.8164062,12.4331884 L16.9570312,15.7160414 C16.7226562,15.8567351 16.5351562,16.1381224 16.4882812,16.4664077 L15.8320312,23.1259095 C15.7851562,23.5479905 15.5507812,23.78248 15.1757812,23.9231737 C14.8007812,24.0638674 14.4726562,24.0169695 14.1914062,23.7355821 L9.26953125,19.1864859 C9.03515625,18.9519964 8.75390625,18.8582006 8.42578125,18.9519964 L1.91015625,20.3589334 C1.48828125,20.4996271 1.16015625,20.3589334 0.92578125,20.0306481 C0.69140625,19.7023628 0.64453125,19.3740775 0.83203125,18.9988943 L3.59765625,12.9490653 C3.73828125,12.62078 3.73828125,12.2924947 3.55078125,12.0111073 L0.17578125,6.28956358 C-0.05859375,5.96127829 -0.05859375,5.58609509 0.17578125,5.2578098 C0.41015625,4.9295245 0.69140625,4.7888308 1.11328125,4.8357287 L7.76953125,5.63299299 C8.14453125,5.67989089 8.42578125,5.58609509 8.66015625,5.3047077 L13.0664062,0.333530363 C13.3476563,0.0521429673 13.6757812,-0.0416528315 14.0976562,0.0521429673 C14.4726562,0.145938766 14.7070312,0.380428263 14.7539062,0.802509357 L16.1132812,7.27441947 C16.1132812,7.55580687 16.3007812,7.79029636 16.6289062,8.02478586 L22.7695312,10.6979661 Z M8.89453125,14.496696 C8.98828125,14.496696 9.03515625,14.4497981 9.03515625,14.3091044 L9.03515625,9.90070183 C9.03515625,9.76000814 8.98828125,9.71311024 8.84765625,9.71311024 L8.09765625,9.71311024 C7.95703125,9.71311024 7.91015625,9.76000814 7.91015625,9.90070183 C7.91015625,10.0882934 7.86328125,10.1820892 7.81640625,10.2289871 C7.76953125,10.3227829 7.67578125,10.4165787 7.58203125,10.5103745 C7.53515625,10.5103745 7.44140625,10.5572724 7.25390625,10.6041703 C7.16015625,10.6510682 7.01953125,10.6510682 6.87890625,10.6510682 L6.83203125,10.6510682 L6.73828125,10.6979661 C6.69140625,10.744864 6.69140625,10.744864 6.69140625,10.7917619 L6.69140625,11.4952304 C6.69140625,11.5890262 6.73828125,11.6359241 6.83203125,11.6359241 L7.86328125,11.6359241 L7.86328125,14.3091044 C7.86328125,14.4497981 7.91015625,14.496696 8.00390625,14.496696 L8.89453125,14.496696 Z M14.1445312,14.4029002 C14.1445312,14.3091044 14.1445312,14.2622065 14.0976562,14.2153086 L12.2695312,11.5890262 L13.9101562,9.99449763 L13.9101562,9.80690604 C13.9101562,9.76000814 13.8632812,9.71311024 13.7695312,9.71311024 L12.5507812,9.71311024 L12.4101562,9.71311024 L10.9570312,11.2607409 L10.9570312,9.85380393 C10.9570312,9.76000814 10.9101562,9.71311024 10.8164062,9.71311024 L9.83203125,9.71311024 C9.69140625,9.71311024 9.64453125,9.76000814 9.64453125,9.85380393 L9.64453125,14.3091044 C9.64453125,14.4029002 9.69140625,14.4497981 9.83203125,14.4497981 L10.7695312,14.4497981 C10.8632812,14.4497981 10.9101562,14.4029002 10.9101562,14.3091044 L10.9101562,12.9490653 L11.3320312,12.5738821 L12.5507812,14.4029002 C12.5976562,14.4497981 12.6914062,14.496696 12.7382812,14.496696 L13.9570312,14.496696 C14.0039062,14.496696 14.0976562,14.4497981 14.1445312,14.4029002 Z" id="Page-1"></path>
        </g>
    </g>
</svg>