<?xml version="1.0" encoding="UTF-8"?>
<svg width="24px" height="24px" viewBox="0 0 24 24" version="1.1" xmlns="http://www.w3.org/2000/svg" xmlns:xlink="http://www.w3.org/1999/xlink">
    <!-- Generator: Sketch 48.1 (47250) - http://www.bohemiancoding.com/sketch -->
    <title>star-add</title>
    <desc>Created with Sketch.</desc>
    <defs></defs>
    <g id="Page-1" stroke="none" stroke-width="1" fill="none" fill-rule="evenodd">
        <g id="star-add" fill="#000000">
            <g id="Star-Plus" transform="translate(0.000000, 1.000000)">
                <polyline id="Fill-2" points="20.143 12.071 18.071 12.071 18.071 10 16.071 10 16.071 12.071 14 12.071 14 14.071 16.071 14.071 16.071 16.143 18.071 16.143 18.071 14.071 20.143 14.071 20.143 12.071"></polyline>
                <path d="M22.754,8.022 C22.615,7.596 22.254,7.292 21.812,7.229 L15.69,6.34 L12.951,0.788 C12.752,0.389 12.352,0.141 11.906,0.141 C11.457,0.141 11.056,0.391 10.86,0.791 L8.121,6.34 L2.001,7.229 C1.559,7.292 1.197,7.596 1.058,8.021 C0.919,8.447 1.032,8.906 1.352,9.219 L5.783,13.538 L4.737,19.636 C4.679,19.976 4.772,20.321 4.994,20.585 C5.217,20.849 5.542,21 5.886,21 L6.211,20.981 L11.905,17.986 L17.381,20.865 L17.678,21 L17.926,21 C18.269,21 18.595,20.849 18.817,20.585 C19.039,20.322 19.133,19.976 19.074,19.636 L18.623,17 L16.594,17 L16.818,18.31 L12.444,16.01 C12.279,15.924 12.093,15.878 11.905,15.878 L11.581,15.898 L6.994,18.31 L7.83,13.437 C7.891,13.063 7.767,12.682 7.493,12.411 L3.958,8.966 L8.841,8.256 C9.228,8.201 9.56,7.957 9.721,7.618 L11.906,3.191 L14.091,7.619 C14.262,7.963 14.59,8.201 14.969,8.256 L19.854,8.966 L19,9.799 L19,11 L20.633,11 L22.46,9.219 C22.78,8.906 22.894,8.448 22.754,8.022" id="Fill-3"></path>
            </g>
        </g>
    </g>
</svg>