<?xml version="1.0" encoding="UTF-8"?>
<svg width="24px" height="24px" viewBox="0 0 24 24" version="1.1" xmlns="http://www.w3.org/2000/svg" xmlns:xlink="http://www.w3.org/1999/xlink">
    <!-- Generator: sketchtool 44.1 (41455) - http://www.bohemiancoding.com/sketch -->
    <title>star-1</title>
    <desc>Created with sketchtool.</desc>
    <defs></defs>
    <g id="Page-1" stroke="none" stroke-width="1" fill="none" fill-rule="evenodd">
        <g id="star-1" fill="#000000">
            <path d="M21.65625,11.8917836 C22.265625,11.8917836 22.828125,11.6613226 23.296875,11.2004008 C23.765625,10.739479 24,10.1402806 24,9.4488978 C24,8.8496994 23.765625,8.29659319 23.34375,7.83567134 C22.875,7.42084168 22.3125,7.19038076 21.65625,7.19038076 C21.09375,7.19038076 20.625,7.3747495 20.203125,7.74348697 C19.78125,8.11222445 19.5,8.57314629 19.40625,9.12625251 L15.046875,8.52705411 L13.125,4.79358717 C13.921875,4.37875752 14.34375,3.73346693 14.34375,2.85771543 C14.34375,2.25851703 14.109375,1.70541082 13.6875,1.24448898 C13.21875,0.829659319 12.65625,0.599198397 12,0.599198397 C11.34375,0.599198397 10.78125,0.829659319 10.359375,1.24448898 C9.890625,1.70541082 9.65625,2.25851703 9.65625,2.85771543 C9.65625,3.64128257 10.078125,4.28657315 10.875,4.79358717 L8.953125,8.52705411 L4.59375,9.12625251 C4.5,8.57314629 4.265625,8.11222445 3.84375,7.74348697 C3.421875,7.3747495 2.90625,7.19038076 2.34375,7.19038076 C1.6875,7.19038076 1.125,7.42084168 0.703125,7.83567134 C0.234375,8.250501 0,8.80360721 0,9.4488978 C0,10.0480962 0.234375,10.6012024 0.703125,11.0160321 C1.125,11.4769539 1.6875,11.7074148 2.34375,11.7074148 C2.953125,11.7074148 3.515625,11.4769539 3.9375,11.0621242 L7.171875,14.0581162 L6.375,18.3446894 L6.140625,18.3446894 C5.484375,18.3446894 4.921875,18.5751503 4.5,18.98998 C4.03125,19.4509018 3.796875,20.004008 3.796875,20.6032064 C3.796875,21.248497 4.03125,21.8016032 4.5,22.2164329 C4.921875,22.6773547 5.484375,22.9078156 6.140625,22.9078156 C6.75,22.9078156 7.3125,22.6773547 7.78125,22.2164329 C8.203125,21.8016032 8.4375,21.248497 8.4375,20.6032064 C8.4375,20.2805611 8.34375,19.9118236 8.109375,19.5430862 L12,17.6072144 L15.9375,19.6352705 C15.796875,20.004008 15.703125,20.3727455 15.703125,20.741483 C15.703125,21.3406814 15.9375,21.8937876 16.40625,22.3086172 C16.828125,22.7695391 17.390625,23 18.046875,23 C18.65625,23 19.21875,22.7695391 19.6875,22.3086172 C20.109375,21.8937876 20.34375,21.3406814 20.34375,20.741483 C20.34375,20.0961924 20.109375,19.5430862 19.6875,19.0821643 C19.21875,18.6673347 18.65625,18.4368737 18.046875,18.4368737 C18,18.4368737 17.90625,18.4368737 17.8125,18.4829659 C17.71875,18.5290581 17.625,18.5290581 17.578125,18.5290581 L16.828125,14.242485 L20.0625,11.2004008 C20.53125,11.6613226 21.046875,11.8917836 21.65625,11.8917836 Z" id="Page-1"></path>
        </g>
    </g>
</svg>