<?xml version="1.0" encoding="UTF-8"?>
<svg width="24px" height="24px" viewBox="0 0 24 24" version="1.1" xmlns="http://www.w3.org/2000/svg" xmlns:xlink="http://www.w3.org/1999/xlink">
    <!-- Generator: sketchtool 44.1 (41455) - http://www.bohemiancoding.com/sketch -->
    <title>stop</title>
    <desc>Created with sketchtool.</desc>
    <defs></defs>
    <g id="Page-1" stroke="none" stroke-width="1" fill="none" fill-rule="evenodd">
        <g id="stop" fill="#000000">
            <path d="M20.484375,3.515625 C22.828125,5.859375 24,8.671875 24,12 C24,15.328125 22.828125,18.140625 20.484375,20.484375 C18.140625,22.828125 15.328125,24 12,24 C8.671875,24 5.859375,22.828125 3.515625,20.484375 C1.171875,18.140625 0,15.328125 0,12 C0,8.671875 1.171875,5.859375 3.515625,3.515625 C5.859375,1.171875 8.671875,0 12,0 C15.328125,0 18.140625,1.171875 20.484375,3.515625 Z M12,3.328125 C9.609375,3.328125 7.59375,4.171875 5.90625,5.859375 C4.21875,7.546875 3.375,9.609375 3.375,12 C3.375,13.59375 3.75,15 4.5,16.21875 L17.15625,5.0625 C15.65625,3.890625 13.921875,3.328125 12,3.328125 Z M12,20.625 C14.390625,20.625 16.453125,19.78125 18.140625,18.09375 C19.828125,16.40625 20.671875,14.34375 20.625,11.953125 C20.625,10.359375 20.25,8.953125 19.5,7.734375 L6.84375,18.9375 C8.390625,20.0625 10.078125,20.625 12,20.625 Z" id="Page-1"></path>
        </g>
    </g>
</svg>