<?xml version="1.0" encoding="UTF-8"?>
<svg width="24px" height="24px" viewBox="0 0 24 24" version="1.1" xmlns="http://www.w3.org/2000/svg" xmlns:xlink="http://www.w3.org/1999/xlink">
    <!-- Generator: sketchtool 44.1 (41455) - http://www.bohemiancoding.com/sketch -->
    <title>tag-tick</title>
    <desc>Created with sketchtool.</desc>
    <defs></defs>
    <g id="Page-1" stroke="none" stroke-width="1" fill="none" fill-rule="evenodd">
        <g id="tag-tick" fill="#000000">
            <g id="Tag-Check" transform="translate(5.000000, 1.000000)">
                <polyline id="Fill-2" points="10.667 15.414 8.293 13.04 9.707 11.626 10.667 12.586 13.293 9.96 14.707 11.374 10.667 15.414"></polyline>
                <path d="M8.229,2 C9.383,3.065 10.439,4.153 11.04,4.788 L11.04,10 L13,8 L13.04,4 C13.04,4 11.102,1.868 9,0 L4,0 L0,4 L0,22 L13.04,22 L13,15 L11,17 L11.04,20 L2,20 L2,4.828 L4.828,2 L8.229,2" id="Fill-3"></path>
                <path d="M8,4.5 L7.5,4.5 C7.499,5.052 7.052,5.499 6.5,5.5 C5.948,5.499 5.501,5.052 5.5,4.5 C5.501,3.948 5.948,3.501 6.5,3.5 C7.052,3.501 7.499,3.948 7.5,4.5 L8.5,4.5 C8.5,3.395 7.605,2.5 6.5,2.5 C5.395,2.5 4.5,3.395 4.5,4.5 C4.5,5.605 5.395,6.5 6.5,6.5 C7.605,6.5 8.5,5.605 8.5,4.5 L8,4.5" id="Fill-4"></path>
            </g>
        </g>
    </g>
</svg>