<?xml version="1.0" encoding="UTF-8"?>
<svg width="24px" height="24px" viewBox="0 0 24 24" version="1.1" xmlns="http://www.w3.org/2000/svg" xmlns:xlink="http://www.w3.org/1999/xlink">
    <!-- Generator: sketchtool 44.1 (41455) - http://www.bohemiancoding.com/sketch -->
    <title>tag-2</title>
    <desc>Created with sketchtool.</desc>
    <defs></defs>
    <g id="Page-1" stroke="none" stroke-width="1" fill="none" fill-rule="evenodd">
        <g id="tag-2" fill="#000000">
            <g id="Tag-2" transform="translate(1.000000, 2.000000)">
                <path d="M15.379,3.035 C14.666,3.749 14.667,4.909 15.379,5.621 C15.724,5.967 16.184,6.156 16.672,6.156 C17.159,6.156 17.619,5.967 17.965,5.621 C18.677,4.909 18.678,3.749 17.965,3.035 C17.272,2.344 16.067,2.344 15.379,3.035 L15.379,3.035 Z M17.258,4.914 C16.944,5.227 16.398,5.227 16.086,4.914 C15.764,4.591 15.764,4.065 16.086,3.742 C16.242,3.586 16.45,3.5 16.672,3.5 C16.893,3.5 17.102,3.586 17.258,3.742 C17.58,4.065 17.58,4.591 17.258,4.914 L17.258,4.914 Z" id="Fill-2"></path>
                <path d="M18.805,0 L12.734,0 C12.256,0 11.78,0.212 11.395,0.598 L0.894,11.101 C0.519,11.475 0.312,11.974 0.312,12.506 C0.312,13.037 0.519,13.536 0.894,13.91 L7.09,20.107 C7.465,20.481 7.964,20.688 8.494,20.688 C9.026,20.688 9.525,20.481 9.899,20.106 L20.402,9.604 C20.731,9.276 20.94,8.842 20.993,8.38 L21,2.2 C21,0.987 20.016,0 18.805,0 L18.805,0 Z M18.988,8.19 L8.494,18.684 L2.308,12.515 L12.828,2 L18.805,2 C18.914,2 19,2.088 19,2.2 L18.988,8.19 L18.988,8.19 Z" id="Fill-3"></path>
                <path d="M13.905,7.804 L13.166,7.065 L12.529,7.702 C11.634,7.092 10.549,7.092 9.79,7.851 C8.332,9.309 10.488,11.56 9.946,12.102 C9.654,12.393 9.295,12.224 9.051,11.98 C8.441,11.37 8.394,10.319 8.394,10.319 L6.868,10.597 C6.868,10.597 6.821,11.62 7.587,12.644 L6.97,13.261 L7.709,14 L8.326,13.383 C9.329,14.115 10.44,13.98 11.159,13.261 C12.657,11.763 10.414,9.6 10.99,9.024 C11.261,8.753 11.641,8.916 11.884,9.16 C12.468,9.743 12.528,10.658 12.528,10.658 L14,10.19 C14,10.19 14.02,9.343 13.288,8.42 L13.905,7.804" id="Fill-4"></path>
            </g>
        </g>
    </g>
</svg>