<?xml version="1.0" encoding="UTF-8"?>
<svg width="24px" height="24px" viewBox="0 0 24 24" version="1.1" xmlns="http://www.w3.org/2000/svg" xmlns:xlink="http://www.w3.org/1999/xlink">
    <!-- Generator: Sketch 48.1 (47250) - http://www.bohemiancoding.com/sketch -->
    <title>tag-3</title>
    <desc>Created with Sketch.</desc>
    <defs></defs>
    <g id="Page-1" stroke="none" stroke-width="1" fill="none" fill-rule="evenodd">
        <g id="tag-3" fill="#000000">
            <g id="Tag-3" transform="translate(1.000000, 0.000000)">
                <path d="M21.853,0.806 C21.009,-0.038 19.638,-0.038 18.794,0.806 L16.46,4.506 L10.844,4.146 L10.754,4.156 C10.293,4.209 9.86,4.419 9.537,4.744 L0.578,13.703 C-0.192,14.474 -0.192,15.727 0.578,16.498 L6.704,22.624 C7.076,22.997 7.573,23.202 8.102,23.202 C8.63,23.202 9.127,22.997 9.499,22.624 L18.458,13.665 C18.784,13.339 18.993,12.906 19.046,12.448 L19.057,12.358 L18.691,6.688 L18.685,6.5 L21.853,3.864 C22.696,3.022 22.696,1.648 21.853,0.806 L21.853,0.806 Z M8.102,21.193 L1.992,15.117 L10.969,6.158 L15.246,6.433 L14.721,7.266 C13.982,7.034 13.124,7.192 12.557,7.756 C11.731,8.582 11.731,9.928 12.557,10.756 C12.958,11.156 13.49,11.377 14.057,11.377 C14.624,11.377 15.156,11.156 15.557,10.756 C16.376,9.935 16.38,8.607 15.576,7.779 L16.377,6.505 L16.459,6.511 L16.606,6.575 L16.695,6.565 L16.685,6.653 L17.045,12.251 L8.102,21.193 L8.102,21.193 Z M14.85,10.049 C14.428,10.473 13.69,10.474 13.264,10.049 C12.827,9.611 12.827,8.899 13.264,8.463 C13.476,8.251 13.758,8.135 14.057,8.135 L14.16,8.155 L13.634,8.989 C13.486,9.224 13.557,9.532 13.79,9.679 C13.873,9.731 13.965,9.756 14.057,9.756 C14.223,9.756 14.385,9.673 14.479,9.523 L15.002,8.692 C15.256,9.122 15.219,9.679 14.85,10.049 L14.85,10.049 Z M21.18,3.126 L18.371,5.461 C18.311,5.368 18.25,5.276 18.175,5.192 C17.987,4.982 17.758,4.821 17.509,4.704 L19.538,1.477 C19.993,1.06 20.704,1.072 21.146,1.513 C21.599,1.966 21.599,2.704 21.18,3.126 L21.18,3.126 Z" id="Fill-2"></path>
                <path d="M12.026,11.986 L11.372,11.332 L10.808,11.896 C10.015,11.356 9.055,11.356 8.383,12.028 C7.092,13.319 9.001,15.311 8.521,15.791 C8.263,16.049 7.945,15.899 7.729,15.683 C7.188,15.143 7.146,14.213 7.146,14.213 L5.796,14.459 C5.796,14.459 5.754,15.365 6.432,16.271 L5.886,16.818 L6.54,17.472 L7.086,16.926 C7.974,17.574 8.959,17.454 9.595,16.817 C10.921,15.491 8.935,13.576 9.445,13.067 C9.685,12.826 10.021,12.97 10.237,13.186 C10.753,13.703 10.807,14.513 10.807,14.513 L12.11,14.099 C12.11,14.099 12.128,13.348 11.48,12.532 L12.026,11.986" id="Fill-3"></path>
            </g>
        </g>
    </g>
</svg>