<?xml version="1.0" encoding="UTF-8"?>
<svg width="24px" height="24px" viewBox="0 0 24 24" version="1.1" xmlns="http://www.w3.org/2000/svg" xmlns:xlink="http://www.w3.org/1999/xlink">
    <!-- Generator: sketchtool 44.1 (41455) - http://www.bohemiancoding.com/sketch -->
    <title>tandc</title>
    <desc>Created with sketchtool.</desc>
    <defs></defs>
    <g id="Page-1" stroke="none" stroke-width="1" fill="none" fill-rule="evenodd">
        <g id="tandc" fill="#000000">
            <path d="M5.25,12.46875 L15.703125,12.46875 L15.703125,10.078125 L5.25,10.078125 L5.25,12.46875 Z M24,15.9375 L20.109375,19.875 L17.859375,22.125 L15.609375,19.875 L13.5,17.765625 L15.75,15.515625 L17.859375,17.578125 L21.703125,13.734375 L24,15.9375 Z M5.25,14.390625 L14.4375,14.390625 L12,16.78125 L5.25,16.78125 L5.25,14.390625 Z M14.203125,20.8125 L17.390625,24 L14.203125,24 L14.203125,20.8125 Z M3.1875,20.8125 L14.203125,20.8125 L14.203125,24 L0,24 L0,0 L15.75,0 L21,5.25 L21,12.140625 L21.046875,12.140625 L17.859375,15.375 L17.859375,8.203125 L5.25,8.203125 L5.25,5.8125 L11.953125,5.8125 L11.953125,2.625 L3.1875,2.625 L3.1875,20.8125 Z" id="Page-1"></path>
        </g>
    </g>
</svg>