<?xml version="1.0" encoding="UTF-8"?>
<svg width="24px" height="24px" viewBox="0 0 24 24" version="1.1" xmlns="http://www.w3.org/2000/svg" xmlns:xlink="http://www.w3.org/1999/xlink">
    <!-- Generator: Sketch 48.1 (47250) - http://www.bohemiancoding.com/sketch -->
    <title>timer-2</title>
    <desc>Created with Sketch.</desc>
    <defs></defs>
    <g id="Page-1" stroke="none" stroke-width="1" fill="none" fill-rule="evenodd">
        <g id="timer-2" fill="#000000">
            <g id="Timer-2" transform="translate(3.000000, 1.000000)">
                <path d="M18,4.079 L18,0.992 L0,0.992 L0,4.144 C0,4.957 0.316,5.723 0.893,6.3 L5.586,10.992 L0.942,15.636 C0.335,16.245 0,17.053 0,17.912 L0,20.992 L18,20.992 L18,17.802 C18,17.014 17.692,16.272 17.135,15.714 L12.414,10.992 L17.063,6.345 C17.667,5.739 18,4.935 18,4.079 L18,4.079 Z M16,4.079 C16,4.401 15.874,4.704 15.648,4.932 L9.586,10.992 L15.721,17.128 C15.9,17.309 16,17.548 16,17.802 L16,18.992 L14.958,18.992 L9.816,13.814 C9.366,13.361 8.634,13.361 8.184,13.814 L3.042,18.992 L2,18.992 L2,17.912 C2,17.587 2.127,17.279 2.357,17.049 L8.414,10.992 L2.308,4.887 C2.109,4.688 2,4.424 2,4.144 L2,2.992 L16,2.992 L16,4.079 L16,4.079 Z" id="Fill-2"></path>
                <path d="M9.726,8.266 L12,5.992 L12,4.992 L6,4.992 L6,5.992 L8.274,8.266 C8.675,8.667 9.325,8.667 9.726,8.266" id="Fill-3"></path>
            </g>
        </g>
    </g>
</svg>