<?xml version="1.0" encoding="UTF-8"?>
<svg width="24px" height="24px" viewBox="0 0 24 24" version="1.1" xmlns="http://www.w3.org/2000/svg" xmlns:xlink="http://www.w3.org/1999/xlink">
    <!-- Generator: sketchtool 44.1 (41455) - http://www.bohemiancoding.com/sketch -->
    <title>top-seller</title>
    <desc>Created with sketchtool.</desc>
    <defs></defs>
    <g id="Page-1" stroke="none" stroke-width="1" fill="none" fill-rule="evenodd">
        <g id="top-seller" fill="#000000">
            <path d="M0,14.212963 C0,14.4444444 0.09375,14.6296296 0.234375,14.7685185 C0.375,14.9074074 0.5625,15 0.796875,15 L23.203125,15 C23.4375,15 23.625,14.9074074 23.765625,14.7685185 C23.90625,14.6296296 24,14.4444444 24,14.212963 L24,9.81481481 C24,9.58333333 23.90625,9.39814815 23.765625,9.25925926 C23.625,9.12037037 23.4375,9.02777778 23.203125,9.02777778 L0.796875,9.02777778 C0.5625,9.02777778 0.375,9.12037037 0.234375,9.25925926 C0.09375,9.39814815 0,9.58333333 0,9.81481481 L0,14.212963 Z M3.65625,11.3425926 L2.953125,11.3425926 L2.953125,13.1481481 L2.34375,13.1481481 L2.34375,11.3425926 L1.640625,11.3425926 L1.640625,10.8333333 L3.65625,10.8333333 L3.65625,11.3425926 Z M3.796875,11.9907407 C3.796875,11.6666667 3.890625,11.3425926 4.125,11.1111111 C4.3125,10.8796296 4.59375,10.787037 4.96875,10.787037 C5.71875,10.787037 6.09375,11.2037037 6.09375,11.9907407 C6.09375,12.7777778 5.71875,13.1944444 4.96875,13.1944444 C4.171875,13.1944444 3.796875,12.7777778 3.796875,11.9907407 Z M4.96875,12.6851852 C5.34375,12.6851852 5.53125,12.4537037 5.53125,11.9907407 C5.53125,11.5277778 5.34375,11.2962963 4.96875,11.2962963 C4.59375,11.2962963 4.40625,11.5277778 4.40625,11.9907407 C4.40625,12.4537037 4.59375,12.6851852 4.96875,12.6851852 Z M6.46875,10.8333333 L7.546875,10.8333333 C8.109375,10.8333333 8.390625,11.0648148 8.390625,11.5740741 C8.390625,12.0833333 8.109375,12.3611111 7.546875,12.3611111 L7.03125,12.3611111 L7.03125,13.1481481 L6.46875,13.1481481 L6.46875,10.8333333 Z M7.03125,11.8981481 L7.453125,11.8981481 C7.6875,11.8981481 7.78125,11.8055556 7.78125,11.6203704 C7.78125,11.4351852 7.6875,11.3425926 7.453125,11.3425926 L7.03125,11.3425926 L7.03125,11.8981481 Z M10.171875,12.3611111 C10.21875,12.5925926 10.359375,12.7314815 10.640625,12.7314815 C10.875,12.7314815 11.015625,12.6388889 11.015625,12.5 C11.015625,12.4074074 10.78125,12.3148148 10.3125,12.1759259 C9.890625,12.037037 9.65625,11.8055556 9.65625,11.4814815 C9.65625,11.0185185 9.984375,10.787037 10.59375,10.787037 C11.203125,10.787037 11.53125,11.0185185 11.53125,11.5277778 L10.921875,11.5277778 C10.921875,11.3425926 10.78125,11.25 10.546875,11.25 C10.359375,11.25 10.265625,11.2962963 10.265625,11.4351852 C10.265625,11.5277778 10.5,11.6203704 10.921875,11.7592593 C11.390625,11.8981481 11.625,12.0833333 11.625,12.4074074 C11.625,12.9166667 11.296875,13.1944444 10.59375,13.1944444 C9.890625,13.1944444 9.5625,12.9166667 9.5625,12.3611111 L10.171875,12.3611111 Z M11.90625,10.8333333 L13.734375,10.8333333 L13.734375,11.3425926 L12.515625,11.3425926 L12.515625,11.712963 L13.640625,11.712963 L13.640625,12.1759259 L12.515625,12.1759259 L12.515625,12.6388889 L13.78125,12.6388889 L13.78125,13.1481481 L11.90625,13.1481481 L11.90625,10.8333333 Z M14.109375,10.8333333 L14.71875,10.8333333 L14.71875,12.6388889 L15.84375,12.6388889 L15.84375,13.1481481 L14.109375,13.1481481 L14.109375,10.8333333 Z M16.125,10.8333333 L16.734375,10.8333333 L16.734375,12.6388889 L17.8125,12.6388889 L17.8125,13.1481481 L16.125,13.1481481 L16.125,10.8333333 Z M18.09375,10.8333333 L19.96875,10.8333333 L19.96875,11.3425926 L18.703125,11.3425926 L18.703125,11.712963 L19.875,11.712963 L19.875,12.1759259 L18.703125,12.1759259 L18.703125,12.6388889 L20.015625,12.6388889 L20.015625,13.1481481 L18.09375,13.1481481 L18.09375,10.8333333 Z M20.34375,10.8333333 L21.5625,10.8333333 C22.078125,10.8333333 22.359375,11.0648148 22.359375,11.4814815 C22.359375,11.8055556 22.21875,11.9907407 21.984375,12.0833333 C22.21875,12.1296296 22.3125,12.3148148 22.3125,12.6388889 C22.3125,12.6851852 22.3125,12.7314815 22.359375,12.8703704 C22.40625,13.0092593 22.40625,13.1018519 22.40625,13.1481481 L21.84375,13.1481481 C21.796875,13.0092593 21.75,12.9166667 21.75,12.7777778 C21.75,12.4537037 21.65625,12.3148148 21.421875,12.3148148 L20.953125,12.3148148 L20.953125,13.1481481 L20.34375,13.1481481 L20.34375,10.8333333 Z M20.953125,11.8518519 L21.46875,11.8518519 C21.65625,11.8518519 21.75,11.7592593 21.75,11.5740741 C21.75,11.4351852 21.65625,11.3425926 21.421875,11.3425926 L20.953125,11.3425926 L20.953125,11.8518519 Z" id="Page-1"></path>
        </g>
    </g>
</svg>