<?xml version="1.0" encoding="UTF-8"?>
<svg width="24px" height="24px" viewBox="0 0 24 24" version="1.1" xmlns="http://www.w3.org/2000/svg" xmlns:xlink="http://www.w3.org/1999/xlink">
    <!-- Generator: Sketch 48.1 (47250) - http://www.bohemiancoding.com/sketch -->
    <title>trophee-lost</title>
    <desc>Created with Sketch.</desc>
    <defs></defs>
    <g id="Page-1" stroke="none" stroke-width="1" fill="none" fill-rule="evenodd">
        <g id="trophee-lost" fill="#000000">
            <g id="Lost" transform="translate(2.000000, 1.000000)">
                <path d="M19.9999975,2.992 L17.0169979,2.998 L16.9999979,0 L3.06699962,0 L3.06699962,2.99 L-2.06627081e-13,2.984 C-2.06627081e-13,2.984 -0.015999998,9.67 3.06699962,10.81 L3.06699962,11 C3.06699962,13.748 5.84799928,16.429 8.9999989,16.914 L8.9999989,19.281 C7.73699905,19.426 6.37299922,19.909 4.99999939,21 L4.99999939,22 L14.9999982,22 L14.9999982,21 C14.9999982,21 13.3529984,19.683 10.9999987,19.32 L10.9999987,16.915 C14.1739983,16.431 17.0599979,13.749 17.0599979,11 L17.0589979,10.767 C20.0149975,9.492 19.9999975,2.992 19.9999975,2.992 L19.9999975,2.992 Z M3,9.672 C2.91,9.607 2.823,9.532 2.737,9.446 C1.581,8.286 1.158,5.65 1.039,3.986 L3,3.99 L3,9.672 L3,9.672 Z M10,15 C7.39,15 5.067,12.763 5.067,11 L5.067,3.984 L9.974,3.984 L9.974,2.984 L5.067,2.984 L5.067,2 L15.011,2 L15.016,2.992 L13.988,2.992 L13.988,3.992 L15.022,3.992 L15.06,11 C15.06,12.747 12.607,15 10,15 L10,15 Z M17.053,9.635 L17.022,3.998 L18.961,3.994 C18.842,5.658 18.419,8.295 17.263,9.454 C17.194,9.523 17.124,9.58 17.053,9.635 L17.053,9.635 Z" id="Fill-1"></path>
                <polygon id="Fill-2" points="10.988 2.992 13.009 2.992 13.009 3.992 10.988 3.992"></polygon>
                <polyline id="Fill-3" points="11.636 6.293 10.171 7.757 8.707 6.293 7.293 7.707 8.757 9.171 7.293 10.636 8.707 12.05 10.171 10.585 11.636 12.05 13.05 10.636 11.585 9.171 13.05 7.707 11.636 6.293"></polyline>
            </g>
        </g>
    </g>
</svg>