<?xml version="1.0" encoding="UTF-8"?>
<svg width="24px" height="24px" viewBox="0 0 24 24" version="1.1" xmlns="http://www.w3.org/2000/svg" xmlns:xlink="http://www.w3.org/1999/xlink">
    <!-- Generator: sketchtool 44.1 (41455) - http://www.bohemiancoding.com/sketch -->
    <title>trophee-lost</title>
    <desc>Created with sketchtool.</desc>
    <defs></defs>
    <g id="Page-1" stroke="none" stroke-width="1" fill="none" fill-rule="evenodd">
        <g id="trophee-lost" fill="#000000">
            <g id="Lost" transform="translate(1.000000, 1.000000)">
                <path d="M21,2.992 L18.017,2.998 L18,0 L4.067,0 L4.067,2.99 L1,2.984 C1,2.984 0.984,9.67 4.067,10.81 L4.067,11 C4.067,13.748 6.848,16.429 10,16.914 L10,19.281 C8.737,19.426 7.373,19.909 6,21 L6,22 L16,22 L16,21 C16,21 14.353,19.683 12,19.32 L12,16.915 C15.174,16.431 18.06,13.749 18.06,11 L18.059,10.767 C21.015,9.492 21,2.992 21,2.992 L21,2.992 Z M4,9.672 C3.91,9.607 3.823,9.532 3.737,9.446 C2.581,8.286 2.158,5.65 2.039,3.986 L4,3.99 L4,9.672 L4,9.672 Z M11,15 C8.39,15 6.067,12.763 6.067,11 L6.067,3.984 L10.974,3.984 L10.974,2.984 L6.067,2.984 L6.067,2 L16.011,2 L16.016,2.992 L14.988,2.992 L14.988,3.992 L16.022,3.992 L16.06,11 C16.06,12.747 13.607,15 11,15 L11,15 Z M18.053,9.635 L18.022,3.998 L19.961,3.994 C19.842,5.658 19.419,8.295 18.263,9.454 C18.194,9.523 18.124,9.58 18.053,9.635 L18.053,9.635 Z" id="Fill-1"></path>
                <polygon id="Fill-2" points="11.988 2.992 14.009 2.992 14.009 3.992 11.988 3.992"></polygon>
                <polyline id="Fill-3" points="12.636 6.293 11.171 7.757 9.707 6.293 8.293 7.707 9.757 9.171 8.293 10.636 9.707 12.05 11.171 10.585 12.636 12.05 14.05 10.636 12.585 9.171 14.05 7.707 12.636 6.293"></polyline>
            </g>
        </g>
    </g>
</svg>