<?xml version="1.0" encoding="UTF-8"?>
<svg width="24px" height="24px" viewBox="0 0 24 24" version="1.1" xmlns="http://www.w3.org/2000/svg" xmlns:xlink="http://www.w3.org/1999/xlink">
    <!-- Generator: sketchtool 44.1 (41455) - http://www.bohemiancoding.com/sketch -->
    <title>trophee-lost</title>
    <desc>Created with sketchtool.</desc>
    <defs></defs>
    <g id="Page-1" stroke="none" stroke-width="1" fill="none" fill-rule="evenodd">
        <g id="trophee-lost" fill="#000000">
            <g id="Lost" transform="translate(2.000000, 1.000000)">
                <path d="M20,2.992 L17.017,2.998 L17,0 L3.067,0 L3.067,2.99 L3.24653329e-16,2.984 C3.24653329e-16,2.984 -0.016,9.67 3.067,10.81 L3.067,11 C3.067,13.748 5.848,16.429 9,16.914 L9,19.281 C7.737,19.426 6.373,19.909 5,21 L5,22 L15,22 L15,21 C15,21 13.353,19.683 11,19.32 L11,16.915 C14.174,16.431 17.06,13.749 17.06,11 L17.059,10.767 C20.015,9.492 20,2.992 20,2.992 L20,2.992 Z M3,9.672 C2.91,9.607 2.823,9.532 2.737,9.446 C1.581,8.286 1.158,5.65 1.039,3.986 L3,3.99 L3,9.672 L3,9.672 Z M10,15 C7.39,15 5.067,12.763 5.067,11 L5.067,3.984 L9.974,3.984 L9.974,2.984 L5.067,2.984 L5.067,2 L15.011,2 L15.016,2.992 L13.988,2.992 L13.988,3.992 L15.022,3.992 L15.06,11 C15.06,12.747 12.607,15 10,15 L10,15 Z M17.053,9.635 L17.022,3.998 L18.961,3.994 C18.842,5.658 18.419,8.295 17.263,9.454 C17.194,9.523 17.124,9.58 17.053,9.635 L17.053,9.635 Z" id="Fill-1"></path>
                <polygon id="Fill-2" points="10.988 2.992 13.009 2.992 13.009 3.992 10.988 3.992"></polygon>
                <polyline id="Fill-3" points="11.636 6.293 10.171 7.757 8.707 6.293 7.293 7.707 8.757 9.171 7.293 10.636 8.707 12.05 10.171 10.585 11.636 12.05 13.05 10.636 11.585 9.171 13.05 7.707 11.636 6.293"></polyline>
            </g>
        </g>
    </g>
</svg>