<?xml version="1.0" encoding="UTF-8"?>
<svg width="24px" height="24px" viewBox="0 0 24 24" version="1.1" xmlns="http://www.w3.org/2000/svg" xmlns:xlink="http://www.w3.org/1999/xlink">
    <!-- Generator: Sketch 48.1 (47250) - http://www.bohemiancoding.com/sketch -->
    <title>trophee-won</title>
    <desc>Created with Sketch.</desc>
    <defs></defs>
    <g id="Page-1" stroke="none" stroke-width="1" fill="none" fill-rule="evenodd">
        <g id="trophee-won" fill="#000000">
            <path d="M7,22 C8.37104215,20.9099248 9.73747977,20.4139815 11,20.2693021 L11,17.9229677 C7.82967857,17.4389197 4.961,14.7489747 4.961,12 L4.961,11.7903183 C1.97459113,10.5476845 2,3.984 2,3.984 L4.961,3.989922 L4.961,1 L19,1 L19.0166251,3.99796675 L22,3.992 C22,3.992 22.0252906,10.5251232 19.0598329,11.7895428 L19.061,12 C19.061,14.7491343 16.1739494,17.439232 13,17.9230519 L13,20.3131583 C15.3551505,20.6759111 17,22 17,22 L17,23 L7,23 L7,22 Z M17.0218453,4.992 L15.988,4.992 L15.988,3.992 L17.0164009,3.992 L17.011,3 L6.961,3 L6.961,3.984 L11.974,3.984 L11.974,4.984 L6.961,4.984 L6.961,12 C6.961,13.747 9.404,16 12,16 C14.607,16 17.06,13.747 17.06,12 L17.0218453,4.992 Z M12.988,3.992 L15.009,3.992 L15.009,4.992 L12.988,4.992 L12.988,3.992 Z M11.333,12.414 L8.96,10.04 L10.374,8.626 L11.333,9.586 L13.96,6.96 L15.374,8.374 L11.333,12.414 Z M3.039,4.986 C3.158,6.65 3.581,9.286 4.737,10.446 L5,10.672 L5,4.99 L3.039,4.986 Z M20.961,4.994 L19,4.998 L19,10.681 L19.263,10.454 C20.419,9.295 20.842,6.658 20.961,4.994 Z" id="Combined-Shape"></path>
        </g>
    </g>
</svg>