<?xml version="1.0" encoding="UTF-8"?>
<svg width="24px" height="24px" viewBox="0 0 24 24" version="1.1" xmlns="http://www.w3.org/2000/svg" xmlns:xlink="http://www.w3.org/1999/xlink">
    <!-- Generator: Sketch 48.1 (47250) - http://www.bohemiancoding.com/sketch -->
    <title>truck</title>
    <desc>Created with Sketch.</desc>
    <defs></defs>
    <g id="Page-1" stroke="none" stroke-width="1" fill="none" fill-rule="evenodd">
        <g id="truck" fill="#000000">
            <path d="M24,11.6608315 L24,19.059081 L21.005848,19.059081 C21.005848,19.8402626 20.7251462,20.5295405 20.1169591,21.1269147 C19.5087719,21.7242888 18.8070175,22 18.0116959,22 C17.2163743,22 16.5146199,21.7242888 15.9064327,21.1269147 C15.2982456,20.5295405 15.0175439,19.8402626 15.0175439,19.059081 L7.48538012,19.059081 C7.48538012,19.8402626 7.20467836,20.5295405 6.59649123,21.1269147 C5.98830409,21.7242888 5.28654971,22 4.49122807,22 C3.69590643,22 2.99415205,21.7242888 2.38596491,21.1269147 C1.77777778,20.5295405 1.49707602,19.8402626 1.49707602,19.059081 L0,19.059081 L0,2.8380744 L16.4678363,2.8380744 L16.4678363,5.77899344 L17.9649123,5.77899344 L24,11.6608315 Z M20.9590643,16.0722101 L20.9590643,13.131291 L17.9649123,13.131291 L17.9649123,9.96061269 L16.748538,8.71991247 L14.9707602,8.71991247 L14.9707602,13.131291 L13.4736842,13.131291 L13.4736842,5.77899344 L2.99415205,5.77899344 L2.99415205,16.0722101 L13.4736842,16.0722101 L13.4736842,14.6017505 L14.9707602,14.6017505 L14.9707602,16.0722101 L20.9590643,16.0722101 Z" id="Page-1"></path>
        </g>
    </g>
</svg>