<?xml version="1.0" encoding="UTF-8"?>
<svg width="24px" height="24px" viewBox="0 0 24 24" version="1.1" xmlns="http://www.w3.org/2000/svg" xmlns:xlink="http://www.w3.org/1999/xlink">
    <!-- Generator: sketchtool 44.1 (41455) - http://www.bohemiancoding.com/sketch -->
    <title>truck-2</title>
    <desc>Created with sketchtool.</desc>
    <defs></defs>
    <g id="Page-1" stroke="none" stroke-width="1" fill="none" fill-rule="evenodd">
        <g id="truck-2" fill="#000000">
            <g id="Truck-2" transform="translate(0.000000, 5.000000)">
                <path d="M24.008,9.574 L19.431,5.002 L19.02,5 L18.008,4.994 L18.008,0 L0.008,0 L0.008,15.989 L3.191,15.989 C3.605,17.151 4.703,17.989 6.008,17.989 C7.306,17.989 8.401,17.159 8.819,16.004 L15.196,16.004 C15.614,17.159 16.709,17.989 18.008,17.989 C19.312,17.989 20.411,17.151 20.824,15.989 L24.008,15.989 L24.008,9.574 L24.008,9.574 Z M2.008,7.718 C2.963,6.779 4.871,4.866 7.713,2 L10.293,2 L2.008,10.285 L2.008,7.718 L2.008,7.718 Z M6.304,2 C4.79,3.525 3.132,5.191 2.008,6.312 L2.008,2 L6.304,2 L6.304,2 Z M6.008,16.989 C4.906,16.989 4.009,16.093 4.008,14.991 L4.008,14.986 C4.009,13.885 4.906,12.989 6.008,12.989 C7.058,12.989 7.913,13.806 7.992,14.836 L7.992,15.141 C7.913,16.171 7.058,16.989 6.008,16.989 L6.008,16.989 Z M18.008,16.989 C16.905,16.989 16.008,16.091 16.008,14.989 C16.008,13.886 16.905,12.989 18.008,12.989 C19.108,12.989 20.003,13.882 20.007,14.981 L20.007,14.996 C20.003,16.095 19.108,16.989 18.008,16.989 L18.008,16.989 Z M20.824,13.989 C20.411,12.826 19.312,11.989 18.008,11.989 C16.697,11.989 15.595,12.834 15.186,14.004 L8.829,14.004 C8.752,13.785 8.657,13.576 8.534,13.383 L11,11.006 L10.307,10.286 L7.86,12.645 C7.348,12.24 6.71,11.989 6.008,11.989 L5.759,12.014 L12.608,5.294 L11.907,4.581 L2.316,13.989 L2.008,13.989 L2.008,11.699 L11.707,2 L16.008,2 L16.008,11 L18.008,11 L18.008,6.994 C18.217,6.995 18.426,6.996 18.599,6.998 L19.008,7.406 L19.008,11 L22.008,11 L22.008,13.989 L20.824,13.989 L20.824,13.989 Z" id="Fill-2"></path>
                <path d="M6.008,13.989 C5.455,13.989 5.008,14.436 5.008,14.989 C5.008,15.541 5.455,15.989 6.008,15.989 C6.56,15.989 7.008,15.541 7.008,14.989 C7.008,14.436 6.56,13.989 6.008,13.989" id="Fill-3"></path>
                <path d="M18.008,13.989 C17.455,13.989 17.008,14.436 17.008,14.989 C17.008,15.541 17.455,15.989 18.008,15.989 C18.56,15.989 19.008,15.541 19.008,14.989 C19.008,14.436 18.56,13.989 18.008,13.989" id="Fill-4"></path>
                <polyline id="Fill-5" points="10.85 9.577 11.541 10.298 12.541 9.34 11.85 8.618 10.85 9.577"></polyline>
            </g>
        </g>
    </g>
</svg>