<?xml version="1.0" encoding="UTF-8"?>
<svg width="24px" height="24px" viewBox="0 0 24 24" version="1.1" xmlns="http://www.w3.org/2000/svg" xmlns:xlink="http://www.w3.org/1999/xlink">
    <!-- Generator: sketchtool 44.1 (41455) - http://www.bohemiancoding.com/sketch -->
    <title>truck</title>
    <desc>Created with sketchtool.</desc>
    <defs></defs>
    <g id="Page-1" stroke="none" stroke-width="1" fill="none" fill-rule="evenodd">
        <g id="truck" fill="#000000">
            <g id="Truck-1" transform="translate(0.000000, 4.000000)">
                <path d="M24,9.585 L19.424,5.014 L19.014,5.011 L18,5.005 L18,0.011 L0,0.011 L0,16 L3.184,16 C3.597,17.163 4.696,18 6,18 C7.299,18 8.394,17.17 8.812,16.016 L15.188,16.016 C15.606,17.17 16.701,18 18,18 C19.304,18 20.403,17.163 20.816,16 L24,16 L24,9.585 L24,9.585 Z M6,17 C4.897,17 4,16.103 4,15 C4,13.897 4.897,13 6,13 C7.05,13 7.904,13.816 7.984,14.846 L7.984,15.155 C7.904,16.184 7.05,17 6,17 L6,17 Z M18,17 C16.897,17 16,16.103 16,15 C16,13.897 16.897,13 18,13 C19.103,13 20,13.897 20,15 C20,16.103 19.103,17 18,17 L18,17 Z M20.816,14 C20.403,12.838 19.304,12 18,12 C16.69,12 15.588,12.845 15.179,14.016 L8.821,14.016 C8.412,12.845 7.31,12 6,12 C4.696,12 3.597,12.838 3.184,14 L2,14 L2,2.011 L16,2.011 L16,11.011 L18,11.011 L18,7.005 C18.209,7.006 18.419,7.008 18.592,7.009 L19,7.417 L19,11.011 L22,11.011 L22,14 L20.816,14 L20.816,14 Z" id="Fill-2"></path>
                <path d="M6,14 C5.448,14 5,14.448 5,15 C5,15.552 5.448,16 6,16 C6.552,16 7,15.552 7,15 C7,14.448 6.552,14 6,14" id="Fill-3"></path>
                <path d="M18,14 C17.448,14 17,14.448 17,15 C17,15.552 17.448,16 18,16 C18.552,16 19,15.552 19,15 C19,14.448 18.552,14 18,14" id="Fill-4"></path>
            </g>
        </g>
    </g>
</svg>