<?xml version="1.0" encoding="UTF-8"?>
<svg width="24px" height="24px" viewBox="0 0 24 24" version="1.1" xmlns="http://www.w3.org/2000/svg" xmlns:xlink="http://www.w3.org/1999/xlink">
    <!-- Generator: sketchtool 44.1 (41455) - http://www.bohemiancoding.com/sketch -->
    <title>truck-free</title>
    <desc>Created with sketchtool.</desc>
    <defs></defs>
    <g id="Page-1" stroke="none" stroke-width="1" fill="none" fill-rule="evenodd">
        <g id="truck-free" fill="#000000">
            <g id="Free-Delivery" transform="translate(0.000000, 5.000000)">
                <polyline id="Fill-2" points="3.004 6.966 5.464 6.966 5.464 7.809 3.987 7.809 3.987 8.652 5.212 8.652 5.212 9.494 3.987 9.494 3.987 10.983 3.004 10.983 3.004 6.966"></polyline>
                <path d="M6.004,6.966 L7.402,6.966 C7.813,6.966 8.009,6.994 8.183,7.062 C8.639,7.236 8.925,7.646 8.925,8.23 C8.925,8.657 8.723,9.123 8.324,9.326 L8.324,9.337 C8.324,9.337 8.38,9.41 8.476,9.579 L9.256,10.983 L8.161,10.983 L7.448,9.629 L6.987,9.629 L6.987,10.983 L6.004,10.983 L6.004,6.966 L6.004,6.966 Z M7.414,8.786 C7.729,8.786 7.925,8.612 7.925,8.292 C7.925,7.989 7.813,7.809 7.318,7.809 L6.987,7.809 L6.987,8.786 L7.414,8.786 L7.414,8.786 Z" id="Fill-3"></path>
                <polyline id="Fill-4" points="9.408 6.966 12.004 6.966 12.004 7.809 10.391 7.809 10.391 8.539 11.616 8.539 11.616 9.382 10.391 9.382 10.391 10.14 12.004 10.14 12.004 10.983 9.408 10.983 9.408 6.966"></polyline>
                <polyline id="Fill-5" points="12.408 6.983 15.004 6.983 15.004 7.826 13.391 7.826 13.391 8.556 14.616 8.556 14.616 9.399 13.391 9.399 13.391 10.157 15.004 10.157 15.004 11 12.408 11 12.408 6.983"></polyline>
                <path d="M24.004,9.574 L19.428,5.002 L19.018,5 L18.004,4.994 L18.004,0 L0.004,0 L0.004,15.989 L3.188,15.989 C3.601,17.151 4.7,17.989 6.004,17.989 C7.302,17.989 8.398,17.159 8.815,16.004 L15.192,16.004 C15.61,17.159 16.705,17.989 18.004,17.989 C19.308,17.989 20.407,17.151 20.82,15.989 L24.004,15.989 L24.004,9.574 L24.004,9.574 Z M6.004,16.989 C4.901,16.989 4.005,16.092 4.004,14.99 L4.004,14.987 C4.005,13.885 4.901,12.989 6.004,12.989 C7.054,12.989 7.908,13.805 7.988,14.835 L7.988,15.142 C7.908,16.172 7.054,16.989 6.004,16.989 L6.004,16.989 Z M18.004,16.989 C16.901,16.989 16.004,16.091 16.004,14.989 C16.004,13.886 16.901,12.989 18.004,12.989 C19.107,12.989 20.004,13.886 20.004,14.989 C20.004,16.091 19.107,16.989 18.004,16.989 L18.004,16.989 Z M20.82,13.989 C20.407,12.826 19.308,11.989 18.004,11.989 C16.694,11.989 15.591,12.834 15.183,14.004 L8.825,14.004 C8.416,12.834 7.314,11.989 6.004,11.989 C4.699,11.989 3.601,12.826 3.187,13.989 L2.004,13.989 L2.004,2 L16.004,2 L16.004,11 L18.004,11 L18.004,6.994 C18.213,6.995 18.423,6.997 18.596,6.998 L19.004,7.405 L19.004,11 L22.004,11 L22.004,13.989 L20.82,13.989 L20.82,13.989 Z" id="Fill-6"></path>
                <path d="M6.004,13.989 C5.452,13.989 5.004,14.436 5.004,14.989 C5.004,15.541 5.452,15.989 6.004,15.989 C6.556,15.989 7.004,15.541 7.004,14.989 C7.004,14.436 6.556,13.989 6.004,13.989" id="Fill-7"></path>
                <path d="M18.004,13.989 C17.452,13.989 17.004,14.436 17.004,14.989 C17.004,15.541 17.452,15.989 18.004,15.989 C18.556,15.989 19.004,15.541 19.004,14.989 C19.004,14.436 18.556,13.989 18.004,13.989" id="Fill-8"></path>
            </g>
        </g>
    </g>
</svg>