<?xml version="1.0" encoding="UTF-8"?>
<svg width="24px" height="24px" viewBox="0 0 24 24" version="1.1" xmlns="http://www.w3.org/2000/svg" xmlns:xlink="http://www.w3.org/1999/xlink">
    <!-- Generator: sketchtool 44.1 (41455) - http://www.bohemiancoding.com/sketch -->
    <title>twitter-circle</title>
    <desc>Created with sketchtool.</desc>
    <defs></defs>
    <g id="Page-1" stroke="none" stroke-width="1" fill="none" fill-rule="evenodd">
        <g id="twitter-circle" fill="#000000">
            <path d="M12.1399398,2.19035612e-06 C15.4210046,0.0468745446 18.2333458,1.2186834 20.5769635,3.56230112 C22.8737089,5.90591883 24.0455177,8.71826009 23.9986454,12.0461972 C23.951773,15.3741344 22.7799642,18.233348 20.4363465,20.5300934 C18.0927288,22.8737111 15.2803875,24.0455199 11.9524503,23.9986476 C8.62451319,23.9517752 5.81217193,22.7799664 3.51542657,20.4363487 C1.17180886,18.1396033 0,15.2803897 0,11.9524525 C0,8.62451538 1.17180886,5.76530177 3.56229892,3.42168405 C5.90591664,1.12493869 8.76513025,-0.0468701639 12.1399398,2.19035612e-06 Z M15.3272598,12.280559 C15.3741322,12.0461972 15.4678769,11.7649631 15.5147493,11.3899843 C15.5616216,11.0150054 15.6553663,10.686899 15.749111,10.3587925 C15.8428557,10.0775584 16.0303452,9.84319659 16.2647069,9.60883482 C16.2178346,9.60883482 16.1709622,9.60883482 16.1240899,9.60883482 C15.8897281,9.60883482 15.8897281,9.46821775 16.0772175,9.14011127 C16.0772175,9.09323892 16.0772175,9.09323892 16.0303452,9.04636657 L16.0303452,8.99949421 C15.5147493,9.23385598 15.0460257,9.18698363 14.6241745,8.9057495 C14.155451,8.62451538 13.6867274,8.62451538 13.1711316,8.95262186 C12.6555357,9.28072834 12.4211739,9.70257953 12.3743015,10.2181754 C12.3274292,10.6400266 12.1399398,10.827516 11.7180886,10.7337713 C10.8275138,10.4525372 10.3119179,10.2181754 10.1244285,10.030686 C9.79632204,9.89006894 9.51508792,9.70257953 9.18698144,9.37447305 C9.14010908,9.23385598 9.04636438,9.14011127 8.90574731,9.18698363 C8.8120026,9.28072834 8.76513025,9.37447305 8.76513025,9.51509011 C8.67138554,10.0775584 8.8120026,10.5931543 9.14010908,11.0150054 C9.3275985,11.0150054 9.37447086,11.0618778 9.23385379,11.2024949 C9.18698144,11.2493672 9.09323673,11.2024949 8.85887496,11.0618778 C8.7182579,11.1087502 8.7182579,11.2024949 8.76513025,11.3899843 C8.85887496,11.8587078 9.18698144,12.280559 9.79632204,12.6086655 C9.28072615,12.8898996 9.28072615,13.1711337 9.70257733,13.4523679 C9.8431944,13.5461126 10.0775562,13.6398573 10.4056626,13.7804743 C10.5462797,13.7804743 10.6400244,13.8273467 10.6400244,13.9210914 L10.4056626,14.1554532 C9.98381146,14.4366873 9.37447086,14.5773044 8.67138554,14.5773044 C8.67138554,14.6241767 8.7182579,14.6710491 8.85887496,14.8116661 C10.0775562,15.4210067 11.3431097,15.4678791 12.6555357,14.9522832 C13.9210892,14.4366873 14.811664,13.5461126 15.3272598,12.280559 Z" id="Page-1"></path>
        </g>
    </g>
</svg>