<?xml version="1.0" encoding="UTF-8"?>
<svg width="24px" height="24px" viewBox="0 0 24 24" version="1.1" xmlns="http://www.w3.org/2000/svg" xmlns:xlink="http://www.w3.org/1999/xlink">
    <!-- Generator: Sketch 48.1 (47250) - http://www.bohemiancoding.com/sketch -->
    <title>twitter</title>
    <desc>Created with Sketch.</desc>
    <defs></defs>
    <g id="Page-1" stroke="none" stroke-width="1" fill="none" fill-rule="evenodd">
        <g id="twitter" fill="#000000">
            <path d="M24.046875,5.64655172 C23.34375,6.73706897 22.546875,7.59051724 21.5625,8.20689655 L21.5625,8.82327586 C21.5625,11.0991379 21.046875,13.2801724 20.015625,15.4137931 C18.9375,17.5474138 17.34375,19.3017241 15.140625,20.7715517 C12.9375,22.2413793 10.40625,23 7.546875,23 C4.828125,23 2.296875,22.2413793 0,20.7715517 C0.5625,20.8189655 0.984375,20.8663793 1.21875,20.8663793 C3.46875,20.8663793 5.484375,20.1551724 7.3125,18.7327586 C6.234375,18.6853448 5.296875,18.3534483 4.453125,17.737069 C3.609375,17.1206897 3.046875,16.2672414 2.71875,15.2715517 C2.90625,15.3189655 3.234375,15.3663793 3.65625,15.3663793 C4.171875,15.3663793 4.59375,15.3189655 4.921875,15.1767241 C3.796875,14.9396552 2.859375,14.3706897 2.109375,13.4698276 C1.359375,12.5689655 0.984375,11.5258621 0.984375,10.3405172 L0.984375,10.2456897 C1.6875,10.6724138 2.4375,10.862069 3.234375,10.862069 C1.78125,9.86637931 1.03125,8.49137931 1.03125,6.73706897 C1.03125,5.7887931 1.265625,4.93534483 1.6875,4.22413793 C4.265625,7.44827586 7.6875,9.20258621 11.859375,9.43965517 C11.765625,9.06034483 11.71875,8.68103448 11.71875,8.30172414 C11.71875,6.92672414 12.1875,5.7887931 13.171875,4.79310345 C14.109375,3.79741379 15.28125,3.32327586 16.640625,3.32327586 C18.09375,3.32327586 19.3125,3.84482759 20.25,4.88793103 C21.421875,4.65086207 22.5,4.22413793 23.390625,3.65517241 C23.015625,4.84051724 22.3125,5.7887931 21.234375,6.45258621 C22.171875,6.31034483 23.109375,6.07327586 24.046875,5.64655172 Z" id="Page-1"></path>
        </g>
    </g>
</svg>