<?xml version="1.0" encoding="UTF-8"?>
<svg width="24px" height="24px" viewBox="0 0 24 24" version="1.1" xmlns="http://www.w3.org/2000/svg" xmlns:xlink="http://www.w3.org/1999/xlink">
    <!-- Generator: sketchtool 44.1 (41455) - http://www.bohemiancoding.com/sketch -->
    <title>update</title>
    <desc>Created with sketchtool.</desc>
    <defs></defs>
    <g id="Page-1" stroke="none" stroke-width="1" fill="none" fill-rule="evenodd">
        <g id="update" fill="#000000">
            <path d="M19.906,11.625 L22.85,11.625 C22.85,14.71875 21.792,17.34375 19.63,19.5 C17.468,21.703125 14.892,22.78125 11.902,22.78125 C9.602,22.78125 7.532,22.125 5.738,20.859375 L5.738,24 L2.104,24 L2.104,14.859375 L11.12,14.859375 L11.12,18.5625 L7.624,18.5625 C8.958,19.40625 10.384,19.828125 11.902,19.828125 C14.11,19.828125 15.996,19.03125 17.56,17.4375 C19.124,15.890625 19.906,13.96875 19.906,11.671875 L19.906,11.625 Z M11.902,3.515625 C9.694,3.515625 7.808,4.3125 6.244,5.90625 C4.68,7.5 3.898,9.421875 3.898,11.671875 L1,11.671875 C1,8.625 2.058,6 4.22,3.796875 C6.336,1.59375 8.912,0.515625 11.948,0.515625 C14.248,0.515625 16.364,1.21875 18.296,2.578125 L18.296,0 L21.93,0 L21.93,9.1875 L12.914,9.1875 L12.914,5.484375 L17.1,5.484375 C15.582,4.171875 13.834,3.515625 11.902,3.515625 Z" id="Page-1"></path>
        </g>
    </g>
</svg>