<?xml version="1.0" encoding="UTF-8"?>
<svg width="24px" height="24px" viewBox="0 0 24 24" version="1.1" xmlns="http://www.w3.org/2000/svg" xmlns:xlink="http://www.w3.org/1999/xlink">
    <!-- Generator: sketchtool 44.1 (41455) - http://www.bohemiancoding.com/sketch -->
    <title>warning-1</title>
    <desc>Created with sketchtool.</desc>
    <defs></defs>
    <g id="Page-1" stroke="none" stroke-width="1" fill="none" fill-rule="evenodd">
        <g id="warning-1" fill="#000000">
            <path d="M9.57991026,4.18907563 C10.1884211,3.21848739 10.9373575,2.75630252 11.9203366,2.75630252 C12.9033156,2.75630252 13.6522521,3.21848739 14.2607629,4.18907563 L23.5288511,19.210084 C24.137362,20.1806723 24.1841705,21.012605 23.7160852,21.7983193 C23.2011914,22.5840336 22.358638,23 21.1884248,23 L2.79267393,23 C1.62246077,23 0.826715819,22.5840336 0.358630555,21.7983193 C-0.156263236,21.012605 -0.109454709,20.1344538 0.452247608,19.1638655 L9.57991026,4.18907563 Z M21.8437442,20.6428571 L12.0139536,4.55882353 L2.23097161,20.5966387 L21.8437442,20.6428571 Z M10.7969319,17.9159664 C10.7969319,17.592437 10.9373575,17.2689076 11.1714002,17.0378151 C11.4054428,16.8067227 11.6862939,16.6680672 12.0139536,16.6680672 C12.3416133,16.6680672 12.6224645,16.8067227 12.8565071,17.0378151 C13.0905497,17.2689076 13.2309753,17.592437 13.2309753,17.9159664 C13.2309753,18.1932773 13.0905497,18.4705882 12.8565071,18.7016807 C12.6224645,18.9327731 12.3416133,19.0714286 12.0139536,19.0714286 C11.6862939,19.0714286 11.4054428,18.9327731 11.1714002,18.7016807 C10.9373575,18.4705882 10.7969319,18.1932773 10.7969319,17.9159664 Z M12.8565071,9.18067227 C13.0905497,9.50420168 13.2309753,9.78151261 13.2309753,10.105042 C13.2309753,10.4285714 13.2309753,10.7058824 13.1841668,10.8907563 L12.9501242,12.0462185 C12.8096986,12.4621849 12.7160815,13.0168067 12.6224645,13.6176471 C12.5756559,13.8487395 12.4352304,14.6344538 12.2479963,15.8823529 L11.779911,15.8823529 C11.7331025,15.5588235 11.6394854,15.0966387 11.5926769,14.5882353 C11.4990598,14.0798319 11.4522513,13.7563025 11.4054428,13.6176471 C11.3586343,13.3865546 11.3118257,13.0630252 11.2182087,12.6470588 C11.1245916,12.2773109 11.0777831,12.092437 11.0777831,12.0462185 C11.0777831,11.8151261 11.0309746,11.4453782 10.890549,10.9369748 C10.8437405,10.5210084 10.7969319,10.2436975 10.7969319,10.105042 C10.7969319,9.78151261 10.9373575,9.50420168 11.1714002,9.18067227 C11.3586343,8.90336134 11.6394854,8.76470588 12.0139536,8.76470588 C12.3416133,8.76470588 12.6224645,8.90336134 12.8565071,9.18067227 Z" id="Page-1"></path>
        </g>
    </g>
</svg>