<?xml version="1.0" encoding="UTF-8"?>
<svg width="24px" height="24px" viewBox="0 0 24 24" version="1.1" xmlns="http://www.w3.org/2000/svg" xmlns:xlink="http://www.w3.org/1999/xlink">
    <!-- Generator: Sketch 48.1 (47250) - http://www.bohemiancoding.com/sketch -->
    <title>watchlist</title>
    <desc>Created with Sketch.</desc>
    <defs></defs>
    <g id="Page-1" stroke="none" stroke-width="1" fill="none" fill-rule="evenodd">
        <g id="watchlist" fill="#000000">
            <g id="Binoculars" transform="translate(0.000000, 1.000000)">
                <path d="M13.715,0.966 L13.715,7.036 C13.603,7.323 13.211,8.007 11.996,8.007 C10.457,8.007 10.062,7.273 9.979,7.057 L9.979,0.966 L0.951,0.966 L0.951,7.966 C0.951,10.925 3.412,18.035 3.517,18.336 L3.75,19.007 L5.076,19.007 L5.076,20.966 L10.034,20.966 L10.034,18.985 C10.698,18.933 11.375,18.661 11.915,18.209 C12.428,18.703 13.113,19.007 13.883,19.007 L14.014,19.007 L14.014,20.966 L18.972,20.966 L18.972,19.007 L19.944,19.007 L20.178,18.336 C20.282,18.035 22.743,10.925 22.743,7.966 L22.743,0.966 L13.715,0.966 L13.715,0.966 Z M6.076,19.007 L9.034,19.007 L9.034,19.965 L6.076,19.965 L6.076,19.007 Z M9.81,17.007 L5.177,17.007 C4.394,14.661 2.951,9.932 2.951,7.966 L2.951,7.008 L3.951,7.008 L3.951,6.049 L2.951,6.049 L2.951,2.966 L7.978,2.966 L7.978,6.049 L4.992,6.049 L4.992,7.008 L7.978,7.008 L7.978,7.191 L7.996,7.38 C8.148,8.17 8.97,9.571 10.996,9.925 L10.996,16.007 C10.996,16.546 10.344,17.007 9.81,17.007 L9.81,17.007 Z M15.014,19.007 L17.972,19.007 L17.972,19.965 L15.014,19.965 L15.014,19.007 Z M18.518,17.007 L13.883,17.007 C13.377,17.007 12.996,16.578 12.996,16.007 L12.996,9.902 C14.725,9.52 15.508,8.183 15.688,7.422 L15.69,7.008 L18.642,7.008 L18.642,6.049 L15.696,6.049 L15.715,2.966 L20.743,2.966 L20.743,6.049 L19.743,6.049 L19.743,7.008 L20.743,7.008 L20.743,7.966 C20.743,9.93 19.301,14.66 18.518,17.007 L18.518,17.007 Z" id="Fill-2"></path>
            </g>
        </g>
    </g>
</svg>