<?xml version="1.0" encoding="UTF-8"?>
<svg width="24px" height="24px" viewBox="0 0 24 24" version="1.1" xmlns="http://www.w3.org/2000/svg" xmlns:xlink="http://www.w3.org/1999/xlink">
    <!-- Generator: sketchtool 44.1 (41455) - http://www.bohemiancoding.com/sketch -->
    <title>watchlist-tick</title>
    <desc>Created with sketchtool.</desc>
    <defs></defs>
    <g id="Page-1" stroke="none" stroke-width="1" fill="none" fill-rule="evenodd">
        <g id="watchlist-tick" fill="#000000">
            <g id="Binoculars-Check" transform="translate(0.000000, 1.000000)">
                <polyline id="Fill-2" points="19.499 12 17.999 10.5 16.499 12 19.499 15 24 10.498 22.5 8.998 19.499 12"></polyline>
                <path d="M18.524,17 L13.891,17 C13.385,17 13.004,16.57 13.004,16 L13.004,9.895 C14.732,9.513 15.516,8.175 15.695,7.414 L15.698,7 L18.65,7 L18.65,6.042 L15.704,6.042 L15.723,2.959 L20.75,2.959 L20.75,6.042 L19.75,6.042 L19.75,7 L20.75,7 L20.75,7.958 L20.748,8 L22.748,8 L22.75,7.958 L22.75,0.958 L13.723,0.958 L13.723,7.033 C13.627,7.278 13.239,8 12.004,8 C10.465,8 10.069,7.265 9.986,7.049 L9.986,0.958 L0.958,0.958 L0.958,7.958 C0.958,10.918 3.419,18.027 3.523,18.329 L3.757,19 L5.083,19 L5.083,20.959 L10.042,20.959 L10.042,18.978 C10.706,18.926 11.382,18.653 11.923,18.201 C12.435,18.695 13.12,19 13.891,19 L14.021,19 L14.021,20.959 L18.979,20.959 L18.979,19 L19.951,19 L20.185,18.329 C20.221,18.224 20.544,17.289 20.947,16 L18.851,16 C18.734,16.364 18.624,16.702 18.524,17 L18.524,17 Z M6.083,19 L9.042,19 L9.042,19.958 L6.083,19.958 L6.083,19 Z M9.817,17 L5.184,17 C4.4,14.653 2.958,9.924 2.958,7.958 L2.958,7 L3.958,7 L3.958,6.042 L2.958,6.042 L2.958,2.959 L7.986,2.959 L7.986,6.042 L5,6.042 L5,7 L7.986,7 L7.986,7.184 L8.004,7.373 C8.156,8.162 8.977,9.564 11.004,9.918 L11.004,16 C11.004,16.539 10.352,17 9.817,17 L9.817,17 Z M15.021,19 L17.98,19 L17.98,19.958 L15.021,19.958 L15.021,19 Z" id="Fill-3"></path>
            </g>
        </g>
    </g>
</svg>