<?xml version="1.0" encoding="UTF-8"?>
<svg width="24px" height="24px" viewBox="0 0 24 24" version="1.1" xmlns="http://www.w3.org/2000/svg" xmlns:xlink="http://www.w3.org/1999/xlink">
    <!-- Generator: Sketch 48.1 (47250) - http://www.bohemiancoding.com/sketch -->
    <title>yahoo</title>
    <desc>Created with Sketch.</desc>
    <defs></defs>
    <g id="Page-1" stroke="none" stroke-width="1" fill="none" fill-rule="evenodd">
        <g id="yahoo" fill="#000000">
            <path d="M13.1216216,14.53125 C14.6824324,11.8125 16.2432432,9.09375 17.8986486,6.375 C17.9459459,6.328125 17.9932432,6.28125 18.0405405,6.140625 C18.0878378,6.046875 18.1351351,5.90625 18.277027,5.765625 C18.3716216,5.625 18.4662162,5.4375 18.5608108,5.25 C18.6081081,5.15625 18.8918919,4.734375 19.3175676,3.984375 C19.3648649,3.890625 19.5067568,3.703125 19.6486486,3.421875 C19.7905405,3.1875 19.9324324,3 19.9797297,2.90625 C20.3581081,2.34375 20.6418919,1.96875 20.7837838,1.734375 C20.3108108,1.875 19.7905405,1.921875 19.2702703,1.921875 C18.7027027,1.921875 18.2297297,1.875 17.8040541,1.734375 C17.3783784,2.53125 16.9054054,3.375 16.3851351,4.265625 C16.2432432,4.5 16.1013514,4.78125 15.9121622,5.109375 C15.6756757,5.4375 15.5337838,5.71875 15.3918919,5.953125 C15.25,6.1875 15.1081081,6.421875 14.9662162,6.609375 C14.8243243,6.84375 14.5878378,7.21875 14.2567568,7.78125 C13.8783784,8.34375 13.5945946,8.8125 13.3581081,9.1875 C13.1216216,9.5625 12.8378378,10.03125 12.5067568,10.546875 C12.1756757,11.0625 11.9864865,11.390625 11.8918919,11.53125 C11.3243243,10.59375 10.7094595,9.609375 10,8.53125 C9.24324324,7.265625 8.48648649,6 7.72972973,4.828125 C7.49324324,4.40625 7.20945946,3.84375 6.78378378,3.140625 C6.35810811,2.4375 6.07432432,1.96875 5.93243243,1.734375 C5.41216216,1.875 4.89189189,1.921875 4.46621622,1.921875 C3.94594595,1.921875 3.47297297,1.875 3,1.734375 C4.04054054,3.28125 4.84459459,4.59375 5.41216216,5.578125 C6.31081081,7.03125 7.25675676,8.71875 8.34459459,10.59375 C9.52702703,12.609375 10.2837838,13.921875 10.6148649,14.53125 L10.472973,24 C11.0405405,23.90625 11.5135135,23.859375 11.8918919,23.859375 C12.2702703,23.859375 12.7432432,23.90625 13.3108108,24 L13.1216216,14.53125 Z" id="Page-1"></path>
        </g>
    </g>
</svg>