<?xml version="1.0" encoding="UTF-8"?>
<svg width="24px" height="24px" viewBox="0 0 24 24" version="1.1" xmlns="http://www.w3.org/2000/svg" xmlns:xlink="http://www.w3.org/1999/xlink">
    <!-- Generator: Sketch 48.1 (47250) - http://www.bohemiancoding.com/sketch -->
    <title>zoom-off</title>
    <desc>Created with Sketch.</desc>
    <defs></defs>
    <g id="Page-1" stroke="none" stroke-width="1" fill="none" fill-rule="evenodd">
        <g id="zoom-off" fill="#000000">
            <path d="M23.0175439,18.703125 C23.625731,19.3125 23.9532164,20.015625 24,20.90625 C24,21.796875 23.6725146,22.5 23.0643275,23.109375 C22.4561404,23.71875 21.754386,24 20.8654971,24 C19.9766082,24 19.2748538,23.71875 18.6666667,23.109375 L13.0994152,17.53125 C11.8362573,18.140625 10.5263158,18.421875 9.16959064,18.421875 C6.64327485,18.421875 4.49122807,17.53125 2.71345029,15.703125 C0.888888889,13.921875 0,11.765625 0,9.1875 C0,6.65625 0.888888889,4.5 2.71345029,2.671875 C4.49122807,0.890625 6.64327485,0 9.12280702,0 C11.6959064,0 13.8479532,0.890625 15.6725146,2.671875 C17.4502924,4.5 18.3391813,6.65625 18.3391813,9.1875 C18.3391813,10.546875 18.0584795,11.859375 17.4502924,13.125 L23.0175439,18.703125 Z M9.12280702,16.125 C11.1345029,16.125 12.8187135,15.421875 14.2222222,14.015625 C15.5789474,12.65625 16.2807018,10.96875 16.2807018,8.953125 C16.2807018,6.984375 15.5789474,5.296875 14.2222222,3.890625 C12.8187135,2.484375 11.1345029,1.78125 9.12280702,1.78125 C7.15789474,1.78125 5.47368421,2.484375 4.11695906,3.890625 C2.71345029,5.296875 2.01169591,6.984375 2.01169591,8.953125 C2.01169591,10.96875 2.71345029,12.65625 4.11695906,14.015625 C5.47368421,15.421875 7.15789474,16.125 9.12280702,16.125 Z M5.89473684,9.28125 C5.89473684,9.609375 6.08187135,9.796875 6.40935673,9.796875 L12.3976608,9.796875 C12.7251462,9.796875 12.9122807,9.609375 12.9122807,9.28125 L12.9122807,8.859375 C12.9122807,8.484375 12.7251462,8.296875 12.3976608,8.296875 L6.40935673,8.296875 C6.08187135,8.296875 5.89473684,8.484375 5.89473684,8.859375 L5.89473684,9.28125 Z" id="Page-1"></path>
        </g>
    </g>
</svg>